<?xml version="1.0" encoding="UTF-8"?>
<svg xmlns="http://www.w3.org/2000/svg" viewBox="0 -1792 2048 1792">
  <path d="M2048 832Q2048 766 2023.0 707.5Q1998 649 1954.5 605.5Q1911 562 1852.5 537.0Q1794 512 1728 512Q1705 512 1683 515L1224 56Q1198 30 1162.0 15.0Q1126 0 1088 0Q1048 0 1013.0 15.0Q978 30 952.0 56.0Q926 82 911.0 117.0Q896 152 896 192Q896 230 911.0 266.0Q926 302 952 328L1411 787Q1408 809 1408 832Q1408 898 1433.0 956.5Q1458 1015 1501.5 1058.5Q1545 1102 1603.5 1127.0Q1662 1152 1728 1152Q1794 1152 1852.0 1126.5Q1910 1101 1953.5 1057.5Q1997 1014 2022.5 956.0Q2048 898 2048 832ZM1920 832Q1920 873 1901 914L1755 768H1664V859L1810 1005Q1769 1024 1728 1024Q1688 1024 1653.0 1009.0Q1618 994 1592.0 968.0Q1566 942 1551.0 907.0Q1536 872 1536 832Q1536 791 1555 750L1043 237Q1024 218 1024 192Q1024 166 1043.0 147.0Q1062 128 1088 128Q1114 128 1133 147L1646 659Q1687 640 1728 640Q1768 640 1803.0 655.0Q1838 670 1864.0 696.0Q1890 722 1905.0 757.0Q1920 792 1920 832ZM1408 1536H2048V1186Q2019 1212 1987.0 1233.5Q1955 1255 1920 1271V1408H128V1152H512V1280H640V1152H1373Q1347 1123 1326.0 1091.0Q1305 1059 1289 1024H640V896H512V1024H128V512H910Q879 481 848.0 451.0Q817 421 793 384H0V1536H640V1792H1408ZM1280 1536V1664H768V1536ZM1536 1280V1271Q1501 1255 1469.0 1234.0Q1437 1213 1408 1187V1280Z" transform="scale(1,-1)"/>
</svg>