<?xml version="1.0" encoding="UTF-8"?>
<svg xmlns="http://www.w3.org/2000/svg" viewBox="128 -2048 1920 2048">
  <path d="M867 587Q932 554 985.0 506.0Q1038 458 1075.0 398.0Q1112 338 1132.0 269.5Q1152 201 1152 128H1024Q1024 207 994.0 277.0Q964 347 911.5 399.5Q859 452 789.0 482.0Q719 512 640 512Q560 512 490.5 482.0Q421 452 368.5 399.5Q316 347 286.0 277.0Q256 207 256 128H128Q128 201 148.0 269.5Q168 338 205.0 398.0Q242 458 295.0 506.0Q348 554 413 587Q339 641 297.5 722.5Q256 804 256 896Q256 975 286.0 1045.0Q316 1115 368.5 1167.5Q421 1220 490.5 1250.0Q560 1280 640 1280Q732 1280 813.5 1238.5Q895 1197 949 1123Q987 1198 1046.5 1257.5Q1106 1317 1181 1354Q1107 1409 1065.5 1490.5Q1024 1572 1024 1664Q1024 1743 1054.0 1813.0Q1084 1883 1136.5 1935.5Q1189 1988 1258.5 2018.0Q1328 2048 1408 2048Q1487 2048 1557.0 2018.0Q1627 1988 1679.5 1935.5Q1732 1883 1762.0 1813.0Q1792 1743 1792 1664Q1792 1570 1749.0 1487.0Q1706 1404 1629 1350Q1676 1325 1719.0 1290.5Q1762 1256 1797.5 1214.0Q1833 1172 1860.0 1123.5Q1887 1075 1903 1024H1769Q1747 1076 1710.0 1122.5Q1673 1169 1625.0 1204.0Q1577 1239 1521.5 1259.0Q1466 1279 1408 1279Q1328 1279 1258.5 1249.0Q1189 1219 1136.5 1167.0Q1084 1115 1054.0 1045.0Q1024 975 1024 896Q1024 804 982.5 722.5Q941 641 867 587ZM1408 1920Q1355 1920 1308.5 1900.0Q1262 1880 1227.0 1845.0Q1192 1810 1172.0 1763.5Q1152 1717 1152 1664Q1152 1611 1172.0 1564.5Q1192 1518 1227.0 1483.0Q1262 1448 1308.5 1428.0Q1355 1408 1408 1408Q1461 1408 1507.5 1428.0Q1554 1448 1589.0 1483.0Q1624 1518 1644.0 1564.5Q1664 1611 1664 1664Q1664 1717 1644.0 1763.5Q1624 1810 1589.0 1845.0Q1554 1880 1507.5 1900.0Q1461 1920 1408 1920ZM384 896Q384 843 404.0 796.5Q424 750 459.0 715.0Q494 680 540.5 660.0Q587 640 640 640Q693 640 739.5 660.0Q786 680 821.0 715.0Q856 750 876.0 796.5Q896 843 896 896Q896 949 876.0 995.5Q856 1042 821.0 1077.0Q786 1112 739.5 1132.0Q693 1152 640 1152Q587 1152 540.5 1132.0Q494 1112 459.0 1077.0Q424 1042 404.0 995.5Q384 949 384 896ZM2048 512V0H1408V512H1472V640Q1472 693 1492.0 739.5Q1512 786 1547.0 821.0Q1582 856 1628.5 876.0Q1675 896 1728 896Q1781 896 1827.5 876.0Q1874 856 1909.0 821.0Q1944 786 1964.0 739.5Q1984 693 1984 640V512ZM1600 512H1856V640Q1856 667 1846.0 690.0Q1836 713 1818.5 730.5Q1801 748 1778.0 758.0Q1755 768 1728 768Q1701 768 1678.0 758.0Q1655 748 1637.5 730.5Q1620 713 1610.0 690.0Q1600 667 1600 640ZM1920 384H1536V128H1920Z" transform="scale(1,-1)"/>
</svg>