<?xml version="1.0" encoding="UTF-8"?>
<svg xmlns="http://www.w3.org/2000/svg" viewBox="0 -2048 2047 2048">
  <path d="M274 540Q379 379 540 274L491 155Q388 218 303.0 303.0Q218 388 155 491ZM151 1212Q140 1165 134.0 1118.5Q128 1072 128 1024Q128 976 134.0 929.0Q140 882 151 835L32 786Q18 845 9.0 904.5Q0 964 0 1024Q0 1084 9.0 1143.5Q18 1203 32 1262ZM1024 128Q1072 128 1119.0 134.0Q1166 140 1213 151L1262 32Q1203 18 1143.5 9.0Q1084 0 1024 0Q964 0 904.5 9.0Q845 18 786 32L835 151Q882 140 929.0 134.0Q976 128 1024 128ZM2016 1262Q2030 1203 2038.5 1143.5Q2047 1084 2047 1024Q2047 964 2038.5 904.5Q2030 845 2016 786L1897 835Q1908 882 1914.0 929.0Q1920 976 1920 1024Q1920 1072 1914.0 1118.5Q1908 1165 1897 1212ZM1773 1508Q1722 1588 1655.0 1655.0Q1588 1722 1508 1773L1557 1892Q1660 1829 1745.0 1744.5Q1830 1660 1893 1557ZM1508 274Q1669 379 1774 540L1893 491Q1830 388 1745.0 303.0Q1660 218 1557 155ZM256 2048H768V1536H640V1829Q528 1776 434.0 1695.0Q340 1614 273 1509L153 1558Q223 1672 319.0 1763.5Q415 1855 532 1920H256Z" transform="scale(1,-1)"/>
</svg>