<?xml version="1.0" encoding="UTF-8"?>
<svg xmlns="http://www.w3.org/2000/svg" viewBox="0 -2048 2048 2048">
  <path d="M128 1408H0V1536H128ZM128 1152H0V1280H128ZM128 896H0V1024H128ZM128 640H0V768H128ZM128 384H0V512H128ZM128 256V128H0V256ZM128 128H256V0H128ZM384 128H512V0H384ZM128 1920H0V2048H128ZM384 1920H256V2048H384ZM512 2048H640V1920H512ZM896 1920H768V2048H896ZM1152 1920H1024V2048H1152ZM1408 1920H1280V2048H1408ZM1408 1792V1920H1536V1792ZM1536 1536H1408V1664H1536ZM128 1664H0V1792H128ZM1408 1408H1536V1280H1408ZM2048 1152V0H768V1152H1024V1280H1152V1152H1664V1280H1792V1152ZM1920 768H896V128H1920ZM1920 1024H896V896H1920Z" transform="scale(1,-1)"/>
</svg>