<?xml version="1.0" encoding="UTF-8"?>
<svg xmlns="http://www.w3.org/2000/svg" viewBox="0 -1920 2048 1911">
  <path d="M2048 1152V768Q2048 637 1999.5 522.5Q1951 408 1870.5 311.5Q1790 215 1686.0 138.5Q1582 62 1472 9Q1362 62 1258.0 138.5Q1154 215 1073.5 311.5Q993 408 944.5 522.5Q896 637 896 768V1152Q953 1152 997.5 1153.0Q1042 1154 1083.0 1160.5Q1124 1167 1165.5 1181.0Q1207 1195 1258 1221Q1286 1235 1310.5 1246.0Q1335 1257 1360.5 1264.5Q1386 1272 1413.0 1276.0Q1440 1280 1472 1280Q1504 1280 1531.0 1276.0Q1558 1272 1583.5 1264.5Q1609 1257 1633.5 1246.0Q1658 1235 1686 1221Q1737 1195 1778.5 1181.0Q1820 1167 1861.0 1160.5Q1902 1154 1946.5 1153.0Q1991 1152 2048 1152ZM1920 768V1026Q1877 1029 1840.0 1034.5Q1803 1040 1768.0 1049.5Q1733 1059 1698.5 1073.0Q1664 1087 1627 1107Q1606 1118 1588.5 1126.5Q1571 1135 1553.0 1140.5Q1535 1146 1515.5 1149.0Q1496 1152 1472 1152Q1448 1152 1428.5 1149.0Q1409 1146 1391.0 1140.5Q1373 1135 1355.5 1126.5Q1338 1118 1317 1107Q1279 1087 1245.0 1073.0Q1211 1059 1176.0 1049.5Q1141 1040 1104.0 1034.5Q1067 1029 1024 1026V768Q1024 666 1062.5 574.0Q1101 482 1164.0 403.5Q1227 325 1307.5 261.5Q1388 198 1472 152Q1557 199 1637.5 262.5Q1718 326 1781.0 403.5Q1844 481 1882.0 572.5Q1920 664 1920 768ZM384 1536V1408H256V1536ZM1152 1536V1408H512V1536ZM384 1152V1024H256V1152ZM768 1152V1024H512V1152ZM256 640V768H384V640ZM512 640V768H768V640ZM128 384H832Q849 350 870.0 318.5Q891 287 914 256H0V1920H1408V1437Q1386 1433 1365.0 1430.0Q1344 1427 1323 1421V1420Q1312 1417 1301.5 1414.0Q1291 1411 1280 1407V1792H128Z" transform="scale(1,-1)"/>
</svg>