<?xml version="1.0" encoding="UTF-8"?>
<svg xmlns="http://www.w3.org/2000/svg" viewBox="0 -2048 2048 2048">
  <path d="M1920 1600Q1929 1601 1946.0 1601.5Q1963 1602 1982.5 1601.5Q2002 1601 2019.5 1600.5Q2037 1600 2048 1600V512H1920V1471L1117 1328Q1128 1360 1135.5 1393.5Q1143 1427 1148 1462ZM1536 515 1146 585Q1136 528 1107.5 479.0Q1079 430 1037.0 395.0Q995 360 942.5 340.0Q890 320 832 320Q766 320 707.5 345.0Q649 370 605.5 413.5Q562 457 537.0 515.5Q512 574 512 640Q512 668 518 697L254 744Q235 748 219.0 751.0Q203 754 188.0 757.0Q173 760 157.0 762.5Q141 765 122 768Q110 769 94.5 769.5Q79 770 62.0 769.5Q45 769 28.5 768.5Q12 768 0 768V1152Q55 1079 128 1024V896Q135 896 139 895L1536 646ZM832 448Q867 448 899.0 460.0Q931 472 956.0 493.5Q981 515 998.0 544.0Q1015 573 1021 608L643 675Q640 657 640 640Q640 600 655.0 565.0Q670 530 696.0 504.0Q722 478 757.0 463.0Q792 448 832 448ZM1792 384H2048V256H1792V0H1664V256H1408V384H1664V640H1792ZM512 1024Q406 1024 313.0 1064.5Q220 1105 150.5 1174.5Q81 1244 40.5 1337.0Q0 1430 0 1536Q0 1642 40.5 1735.0Q81 1828 150.5 1897.5Q220 1967 313.0 2007.5Q406 2048 512 2048Q618 2048 711.0 2007.5Q804 1967 873.5 1897.5Q943 1828 983.5 1735.0Q1024 1642 1024 1536Q1024 1430 983.5 1337.0Q943 1244 873.5 1174.5Q804 1105 711.0 1064.5Q618 1024 512 1024ZM512 1920Q432 1920 362.5 1890.0Q293 1860 240.5 1807.5Q188 1755 158.0 1685.0Q128 1615 128 1536Q128 1456 158.0 1386.5Q188 1317 240.5 1264.5Q293 1212 362.5 1182.0Q432 1152 512 1152Q591 1152 661.0 1182.0Q731 1212 783.5 1264.5Q836 1317 866.0 1386.5Q896 1456 896 1536Q896 1615 866.0 1685.0Q836 1755 783.5 1807.5Q731 1860 661.0 1890.0Q591 1920 512 1920ZM704 1408H384V1792H512V1536H704Z" transform="scale(1,-1)"/>
</svg>