<?xml version="1.0" encoding="UTF-8"?>
<svg xmlns="http://www.w3.org/2000/svg" viewBox="0 -1920 2048 1920">
  <path d="M1024 1024V1152H640V384H0V1920H1664V1024H1536V1152H1152V1024ZM1536 1280V1536H1152V1280ZM512 512V768H128V512ZM512 896V1152H128V896ZM512 1280V1536H128V1280ZM128 1664H1536V1792H128ZM640 1280H1024V1536H640ZM2048 320Q2048 254 2023.0 195.5Q1998 137 1954.5 93.5Q1911 50 1852.5 25.0Q1794 0 1728 0H1472Q1405 0 1347.0 25.0Q1289 50 1245.5 93.5Q1202 137 1177.0 195.0Q1152 253 1152 320Q1152 377 1171.0 429.0Q1190 481 1224.0 522.5Q1258 564 1305.0 593.0Q1352 622 1408 634V501Q1350 480 1315.0 431.5Q1280 383 1280 320Q1280 280 1295.0 245.0Q1310 210 1336.0 184.0Q1362 158 1397.0 143.0Q1432 128 1472 128H1728Q1768 128 1803.0 143.0Q1838 158 1864.0 184.0Q1890 210 1905.0 245.0Q1920 280 1920 320Q1920 385 1883.0 433.5Q1846 482 1786 503Q1792 539 1792 576Q1792 591 1791.0 605.5Q1790 620 1788 634Q1845 622 1892.5 593.5Q1940 565 1974.5 523.5Q2009 482 2028.5 430.5Q2048 379 2048 320ZM896 576Q896 511 933.0 462.5Q970 414 1030 393Q1024 357 1024 320Q1024 305 1025.0 290.5Q1026 276 1028 262Q972 271 924.0 300.0Q876 329 841.5 371.5Q807 414 787.5 467.0Q768 520 768 576Q768 642 793.0 700.5Q818 759 861.5 802.5Q905 846 963.5 871.0Q1022 896 1088 896H1344Q1410 896 1468.0 870.5Q1526 845 1569.5 801.5Q1613 758 1638.5 700.0Q1664 642 1664 576Q1664 522 1643.5 470.5Q1623 419 1588.0 377.0Q1553 335 1506.5 304.5Q1460 274 1408 262V395Q1450 404 1475.0 418.5Q1500 433 1513.5 454.5Q1527 476 1531.5 506.0Q1536 536 1536 576Q1536 616 1521.0 651.0Q1506 686 1480.0 712.0Q1454 738 1419.0 753.0Q1384 768 1344 768H1088Q1048 768 1013.0 753.0Q978 738 952.0 712.0Q926 686 911.0 651.0Q896 616 896 576Z" transform="scale(1,-1)"/>
</svg>