<?xml version="1.0" encoding="UTF-8"?>
<svg xmlns="http://www.w3.org/2000/svg" viewBox="0 -2048 2048 2048">
  <path d="M384 789Q331 719 295 640H0V1792H384ZM256 1664H128V768H256ZM640 1022Q606 1001 574.0 977.5Q542 954 512 928V1536H896V1137Q863 1127 831.5 1115.5Q800 1104 768 1090V1408H640ZM1152 1181Q1120 1179 1088.0 1176.0Q1056 1173 1024 1167V2048H1408V1167Q1376 1173 1344.0 1176.0Q1312 1179 1280 1181V1920H1152ZM1216 640Q1282 640 1340.0 614.5Q1398 589 1441.5 545.5Q1485 502 1510.5 444.0Q1536 386 1536 320Q1536 254 1510.5 195.5Q1485 137 1441.5 93.5Q1398 50 1340.0 25.0Q1282 0 1216 0Q1150 0 1091.5 25.0Q1033 50 989.5 93.5Q946 137 921.0 195.5Q896 254 896 320Q896 386 921.0 444.0Q946 502 989.5 545.5Q1033 589 1091.5 614.5Q1150 640 1216 640ZM1216 128Q1256 128 1291.0 143.0Q1326 158 1352.0 184.0Q1378 210 1393.0 245.0Q1408 280 1408 320Q1408 360 1393.0 395.0Q1378 430 1352.0 456.0Q1326 482 1291.0 497.0Q1256 512 1216 512Q1176 512 1141.0 497.0Q1106 482 1080.0 456.0Q1054 430 1039.0 395.0Q1024 360 1024 320Q1024 280 1039.0 245.0Q1054 210 1080.0 184.0Q1106 158 1141.0 143.0Q1176 128 1216 128ZM1216 1024Q1316 1024 1416.5 1002.0Q1517 980 1609.0 938.0Q1701 896 1781.5 835.5Q1862 775 1921.0 696.5Q1980 618 2014.0 523.5Q2048 429 2048 320H1920Q1920 411 1890.5 489.5Q1861 568 1810.0 632.0Q1759 696 1690.5 745.0Q1622 794 1544.0 827.5Q1466 861 1382.0 878.5Q1298 896 1216 896Q1134 896 1050.0 878.5Q966 861 888.0 827.5Q810 794 741.5 745.0Q673 696 622.0 632.0Q571 568 541.5 489.5Q512 411 512 320H384Q384 429 418.0 523.5Q452 618 511.0 696.5Q570 775 650.5 835.5Q731 896 823.0 938.0Q915 980 1015.5 1002.0Q1116 1024 1216 1024Z" transform="scale(1,-1)"/>
</svg>