<?xml version="1.0" encoding="UTF-8"?>
<svg xmlns="http://www.w3.org/2000/svg" viewBox="0 -2048 2048 2048">
  <path d="M1024 2048Q1165 2048 1296.0 2011.5Q1427 1975 1541.0 1908.5Q1655 1842 1748.5 1748.5Q1842 1655 1908.5 1541.0Q1975 1427 2011.5 1296.0Q2048 1165 2048 1024Q2048 883 2011.5 752.0Q1975 621 1908.5 507.0Q1842 393 1748.5 299.5Q1655 206 1541.0 139.5Q1427 73 1296.0 36.5Q1165 0 1024 0Q883 0 752.0 36.5Q621 73 507.0 139.5Q393 206 299.5 299.5Q206 393 139.5 507.0Q73 621 36.5 751.5Q0 882 0 1024Q0 1165 36.5 1296.0Q73 1427 139.5 1541.0Q206 1655 299.5 1748.5Q393 1842 507.0 1908.5Q621 1975 751.5 2011.5Q882 2048 1024 2048ZM1024 128Q1147 128 1261.5 160.0Q1376 192 1475.5 250.5Q1575 309 1657.0 391.0Q1739 473 1797.5 572.5Q1856 672 1888.0 786.5Q1920 901 1920 1024Q1920 1147 1888.0 1261.5Q1856 1376 1797.5 1475.5Q1739 1575 1657.0 1657.0Q1575 1739 1475.5 1797.5Q1376 1856 1261.5 1888.0Q1147 1920 1024 1920Q901 1920 786.5 1888.0Q672 1856 572.5 1797.5Q473 1739 391.0 1657.0Q309 1575 250.5 1475.5Q192 1376 160.0 1261.5Q128 1147 128 1024Q128 901 160.0 786.5Q192 672 250.5 572.5Q309 473 391.0 391.0Q473 309 572.5 250.5Q672 192 786.5 160.0Q901 128 1024 128ZM640 1536Q667 1536 690.0 1526.0Q713 1516 730.5 1498.5Q748 1481 758.0 1458.0Q768 1435 768 1408H512Q512 1435 522.0 1458.0Q532 1481 549.5 1498.5Q567 1516 590.0 1526.0Q613 1536 640 1536ZM1408 1536Q1435 1536 1458.0 1526.0Q1481 1516 1498.5 1498.5Q1516 1481 1526.0 1458.0Q1536 1435 1536 1408H1280Q1280 1435 1290.0 1458.0Q1300 1481 1317.5 1498.5Q1335 1516 1358.0 1526.0Q1381 1536 1408 1536ZM1472 1280Q1512 1280 1547.0 1265.0Q1582 1250 1608.0 1224.0Q1634 1198 1649.0 1163.0Q1664 1128 1664 1088V1024Q1664 891 1614.0 774.5Q1564 658 1477.0 571.0Q1390 484 1273.5 434.0Q1157 384 1024 384Q891 384 774.5 434.0Q658 484 571.0 571.0Q484 658 434.0 774.5Q384 891 384 1024Q384 1072 392.0 1118.0Q400 1164 421.0 1200.0Q442 1236 479.5 1258.0Q517 1280 576 1280Q650 1280 705.0 1260.0Q760 1240 809.5 1216.0Q859 1192 909.5 1172.0Q960 1152 1024 1152Q1088 1152 1138.5 1172.0Q1189 1192 1238.5 1216.0Q1288 1240 1343.0 1260.0Q1398 1280 1472 1280ZM1536 1088Q1536 1114 1517.0 1133.0Q1498 1152 1472 1152Q1429 1152 1393.0 1142.5Q1357 1133 1323.5 1119.0Q1290 1105 1257.5 1088.0Q1225 1071 1189.5 1057.0Q1154 1043 1113.5 1033.5Q1073 1024 1024 1024Q975 1024 934.5 1033.5Q894 1043 858.5 1057.0Q823 1071 790.5 1088.0Q758 1105 724.5 1119.0Q691 1133 655.0 1142.5Q619 1152 576 1152Q550 1152 531.0 1133.0Q512 1114 512 1088V1024Q512 918 552.5 825.0Q593 732 662.5 662.5Q732 593 825.0 552.5Q918 512 1024 512Q1130 512 1223.0 552.5Q1316 593 1385.5 662.5Q1455 732 1495.5 825.0Q1536 918 1536 1024Z" transform="scale(1,-1)"/>
</svg>