<?xml version="1.0" encoding="UTF-8"?>
<svg xmlns="http://www.w3.org/2000/svg" viewBox="0 -1920 2048 1920">
  <path d="M1280 1152Q1200 1152 1130.5 1122.0Q1061 1092 1008.5 1039.5Q956 987 926.0 917.0Q896 847 896 768Q896 676 855.0 595.0Q814 514 740 459Q805 426 857.5 377.5Q910 329 947.0 269.5Q984 210 1004.0 141.5Q1024 73 1024 0H896Q896 79 866.0 149.0Q836 219 783.5 271.5Q731 324 661.0 354.0Q591 384 512 384Q432 384 362.5 354.0Q293 324 240.5 271.5Q188 219 158.0 149.0Q128 79 128 0H0Q0 73 20.0 141.5Q40 210 77.0 269.5Q114 329 166.5 377.5Q219 426 284 459Q210 514 169.0 595.0Q128 676 128 768Q128 847 158.0 917.0Q188 987 240.5 1039.5Q293 1092 362.5 1122.0Q432 1152 512 1152Q604 1152 685.0 1111.0Q766 1070 821 996Q859 1071 918.0 1130.0Q977 1189 1052 1227Q978 1282 937.0 1363.0Q896 1444 896 1536Q896 1615 926.0 1685.0Q956 1755 1008.5 1807.5Q1061 1860 1130.5 1890.0Q1200 1920 1280 1920Q1359 1920 1429.0 1890.0Q1499 1860 1551.5 1807.5Q1604 1755 1634.0 1685.0Q1664 1615 1664 1536Q1664 1444 1623.0 1363.0Q1582 1282 1508 1227Q1573 1194 1625.5 1145.5Q1678 1097 1715.0 1037.5Q1752 978 1772.0 909.5Q1792 841 1792 768H1664Q1664 847 1634.0 917.0Q1604 987 1551.5 1039.5Q1499 1092 1429.0 1122.0Q1359 1152 1280 1152ZM1024 1536Q1024 1483 1044.0 1436.5Q1064 1390 1099.0 1355.0Q1134 1320 1180.5 1300.0Q1227 1280 1280 1280Q1333 1280 1379.5 1300.0Q1426 1320 1461.0 1355.0Q1496 1390 1516.0 1436.5Q1536 1483 1536 1536Q1536 1589 1516.0 1635.5Q1496 1682 1461.0 1717.0Q1426 1752 1379.5 1772.0Q1333 1792 1280 1792Q1227 1792 1180.5 1772.0Q1134 1752 1099.0 1717.0Q1064 1682 1044.0 1635.5Q1024 1589 1024 1536ZM512 512Q565 512 611.5 532.0Q658 552 693.0 587.0Q728 622 748.0 668.5Q768 715 768 768Q768 821 748.0 867.5Q728 914 693.0 949.0Q658 984 611.5 1004.0Q565 1024 512 1024Q459 1024 412.5 1004.0Q366 984 331.0 949.0Q296 914 276.0 867.5Q256 821 256 768Q256 715 276.0 668.5Q296 622 331.0 587.0Q366 552 412.5 532.0Q459 512 512 512ZM2048 256H1792V0H1664V256H1408V384H1664V640H1792V384H2048Z" transform="scale(1,-1)"/>
</svg>