<?xml version="1.0" encoding="UTF-8"?>
<svg xmlns="http://www.w3.org/2000/svg" viewBox="0 -2048 2048 2048">
  <path d="M2048 1024Q2048 882 2011.5 751.5Q1975 621 1908.5 507.0Q1842 393 1748.5 299.5Q1655 206 1541.0 139.5Q1427 73 1296.0 36.5Q1165 0 1024 0Q882 0 751.5 36.5Q621 73 507.0 139.5Q393 206 299.5 299.5Q206 393 139.5 507.0Q73 621 36.5 752.0Q0 883 0 1024Q0 1165 36.5 1296.0Q73 1427 139.5 1541.0Q206 1655 299.5 1748.5Q393 1842 507.0 1908.5Q621 1975 752.0 2011.5Q883 2048 1024 2048Q1165 2048 1296.0 2011.5Q1427 1975 1541.0 1908.5Q1655 1842 1748.5 1748.5Q1842 1655 1908.5 1541.0Q1975 1427 2011.5 1296.0Q2048 1165 2048 1024ZM1024 128Q1147 128 1261.5 160.0Q1376 192 1475.5 250.5Q1575 309 1657.0 391.0Q1739 473 1797.5 572.5Q1856 672 1888.0 786.5Q1920 901 1920 1024Q1920 1147 1888.0 1261.5Q1856 1376 1797.5 1475.5Q1739 1575 1657.0 1657.0Q1575 1739 1475.5 1797.5Q1376 1856 1261.5 1888.0Q1147 1920 1024 1920Q900 1920 786.0 1888.0Q672 1856 572.5 1797.5Q473 1739 391.0 1657.0Q309 1575 250.5 1475.5Q192 1376 160.0 1261.5Q128 1147 128 1024Q128 900 160.0 786.0Q192 672 250.5 572.5Q309 473 391.0 391.0Q473 309 572.5 250.5Q672 192 786.5 160.0Q901 128 1024 128ZM1024 640Q1079 640 1131.5 655.5Q1184 671 1229.0 700.0Q1274 729 1310.5 769.5Q1347 810 1371 860L1487 804Q1455 737 1406.5 683.0Q1358 629 1297.5 591.0Q1237 553 1167.5 532.5Q1098 512 1024 512Q914 512 813.5 557.0Q713 602 640 685V512H512V896H896V768H738Q792 708 867.5 674.0Q943 640 1024 640ZM1408 1363V1536H1536V1152H1152V1280H1310Q1256 1340 1180.5 1374.0Q1105 1408 1024 1408Q969 1408 916.5 1392.5Q864 1377 819.0 1348.0Q774 1319 737.5 1278.5Q701 1238 677 1188L561 1244Q593 1311 641.5 1365.0Q690 1419 750.5 1457.0Q811 1495 880.5 1515.5Q950 1536 1024 1536Q1134 1536 1234.5 1491.0Q1335 1446 1408 1363Z" transform="scale(1,-1)"/>
</svg>