<?xml version="1.0" encoding="UTF-8"?>
<svg xmlns="http://www.w3.org/2000/svg" viewBox="0 -2048 2048 2048">
  <path d="M1600 990 2048 766V239L1600 15L1152 239V766ZM1536 190V495L1280 623V318ZM1359 727 1600 606 1841 727 1600 847ZM1920 318V623L1664 495V190ZM896 1408V896H768V1408ZM768 640V768H896V640ZM128 128H1016L1272 0H0V2048H1536Q1563 2048 1586.0 2038.0Q1609 2028 1626.5 2010.5Q1644 1993 1654.0 1970.0Q1664 1947 1664 1920V1440Q1664 1399 1656.0 1369.0Q1648 1339 1636.0 1316.0Q1624 1293 1609.0 1273.5Q1594 1254 1580.0 1234.5Q1566 1215 1555.0 1192.0Q1544 1169 1539 1138L1408 1073Q1408 1118 1402.0 1147.5Q1396 1177 1386.5 1197.5Q1377 1218 1364.5 1233.5Q1352 1249 1339.0 1266.0Q1326 1283 1313.0 1305.5Q1300 1328 1289 1363Q1284 1382 1282.0 1401.0Q1280 1420 1280 1440V1920H128ZM1408 1920V1440Q1408 1396 1425.5 1365.5Q1443 1335 1472 1304Q1501 1335 1518.5 1365.0Q1536 1395 1536 1440V1920Z" transform="scale(1,-1)"/>
</svg>