<?xml version="1.0" encoding="UTF-8"?>
<svg xmlns="http://www.w3.org/2000/svg" viewBox="0 -2048 1792 2048">
  <path d="M832 1408H512V1792H640V1536H832ZM1792 2048V0H128V1114Q66 1191 33.0 1282.0Q0 1373 0 1472Q0 1591 45.5 1696.0Q91 1801 169.0 1879.0Q247 1957 352.0 2002.5Q457 2048 576 2048ZM576 1920Q483 1920 401.5 1884.5Q320 1849 259.5 1788.5Q199 1728 163.5 1646.5Q128 1565 128 1472Q128 1379 163.5 1297.5Q199 1216 259.5 1155.5Q320 1095 401.5 1059.5Q483 1024 576 1024Q669 1024 750.5 1059.5Q832 1095 892.5 1155.5Q953 1216 988.5 1297.5Q1024 1379 1024 1472Q1024 1565 988.5 1646.5Q953 1728 892.5 1788.5Q832 1849 750.5 1884.5Q669 1920 576 1920ZM1664 1920H934Q1024 1848 1078.0 1749.0Q1132 1650 1146 1536H1536V1408H1146Q1139 1343 1117 1280H1536V1152H1055Q1030 1115 999.5 1083.5Q969 1052 934 1024H1536V896H576Q491 896 409.5 920.5Q328 945 256 993V128H1664ZM384 512H1536V384H384ZM384 768H1536V640H384Z" transform="scale(1,-1)"/>
</svg>