<?xml version="1.0" encoding="UTF-8"?>
<svg xmlns="http://www.w3.org/2000/svg" viewBox="128 -1920 1920 1792">
  <path d="M128 768Q128 840 148.0 909.0Q168 978 205.0 1038.0Q242 1098 294.5 1146.5Q347 1195 412 1227Q338 1282 297.0 1363.0Q256 1444 256 1536Q256 1615 286.0 1685.0Q316 1755 368.5 1807.5Q421 1860 490.5 1890.0Q560 1920 640 1920Q719 1920 789.0 1890.0Q859 1860 911.5 1807.5Q964 1755 994.0 1685.0Q1024 1615 1024 1536Q1024 1444 983.0 1363.0Q942 1282 868 1227Q933 1195 985.5 1146.5Q1038 1098 1075.0 1038.0Q1112 978 1132.0 909.0Q1152 840 1152 768H1024Q1024 847 994.0 917.0Q964 987 911.5 1039.5Q859 1092 789.0 1122.0Q719 1152 640 1152Q560 1152 490.5 1122.0Q421 1092 368.5 1039.5Q316 987 286.0 917.0Q256 847 256 768ZM384 1536Q384 1483 404.0 1436.5Q424 1390 459.0 1355.0Q494 1320 540.5 1300.0Q587 1280 640 1280Q693 1280 739.5 1300.0Q786 1320 821.0 1355.0Q856 1390 876.0 1436.5Q896 1483 896 1536Q896 1589 876.0 1635.5Q856 1682 821.0 1717.0Q786 1752 739.5 1772.0Q693 1792 640 1792Q587 1792 540.5 1772.0Q494 1752 459.0 1717.0Q424 1682 404.0 1635.5Q384 1589 384 1536ZM2048 640V128H256V640ZM1920 512H384V256H1920Z" transform="scale(1,-1)"/>
</svg>