<?xml version="1.0" encoding="UTF-8"?>
<svg xmlns="http://www.w3.org/2000/svg" viewBox="0 -2048 2048 2048">
  <path d="M896 896H1007Q992 833 992 768H768V1408H1152V1153Q1065 1066 1024 952V1280H896ZM1664 1297Q1601 1312 1536 1312V1664H1408V1297Q1374 1289 1342.5 1276.5Q1311 1264 1280 1248V1792H1664ZM256 768V1664H640V768ZM384 896H512V1536H384ZM128 640H896V512H0V2048H1920V1153Q1862 1210 1792 1248V1920H128ZM1764 459Q1829 427 1881.5 378.5Q1934 330 1971.0 270.0Q2008 210 2028.0 141.0Q2048 72 2048 0H1920Q1920 79 1890.0 149.0Q1860 219 1807.5 271.5Q1755 324 1685.0 354.0Q1615 384 1536 384Q1456 384 1386.5 354.0Q1317 324 1264.5 271.5Q1212 219 1182.0 149.0Q1152 79 1152 0H1024Q1024 72 1044.0 141.0Q1064 210 1101.0 270.0Q1138 330 1190.5 378.5Q1243 427 1308 459Q1234 514 1193.0 595.0Q1152 676 1152 768Q1152 847 1182.0 917.0Q1212 987 1264.5 1039.5Q1317 1092 1386.5 1122.0Q1456 1152 1536 1152Q1615 1152 1685.0 1122.0Q1755 1092 1807.5 1039.5Q1860 987 1890.0 917.0Q1920 847 1920 768Q1920 676 1879.0 595.0Q1838 514 1764 459ZM1280 768Q1280 715 1300.0 668.5Q1320 622 1355.0 587.0Q1390 552 1436.5 532.0Q1483 512 1536 512Q1589 512 1635.5 532.0Q1682 552 1717.0 587.0Q1752 622 1772.0 668.5Q1792 715 1792 768Q1792 821 1772.0 867.5Q1752 914 1717.0 949.0Q1682 984 1635.5 1004.0Q1589 1024 1536 1024Q1483 1024 1436.5 1004.0Q1390 984 1355.0 949.0Q1320 914 1300.0 867.5Q1280 821 1280 768Z" transform="scale(1,-1)"/>
</svg>