<?xml version="1.0" encoding="UTF-8"?>
<svg xmlns="http://www.w3.org/2000/svg" viewBox="0 -1792 2048 1408">
  <path d="M2048 1664V384H128V640H0V1792H1792V1664ZM1536 1664Q1536 1637 1546.0 1614.0Q1556 1591 1573.5 1573.5Q1591 1556 1614.0 1546.0Q1637 1536 1664 1536V1664ZM128 1536Q155 1536 178.0 1546.0Q201 1556 218.5 1573.5Q236 1591 246.0 1614.0Q256 1637 256 1664H128ZM128 1024Q181 1024 227.5 1004.0Q274 984 309.0 949.0Q344 914 364.0 867.5Q384 821 384 768H1408Q1408 821 1428.0 867.5Q1448 914 1483.0 949.0Q1518 984 1564.5 1004.0Q1611 1024 1664 1024V1408Q1611 1408 1564.5 1428.0Q1518 1448 1483.0 1483.0Q1448 1518 1428.0 1564.5Q1408 1611 1408 1664H384Q384 1611 364.0 1564.5Q344 1518 309.0 1483.0Q274 1448 227.5 1428.0Q181 1408 128 1408ZM1664 896Q1637 896 1614.0 886.0Q1591 876 1573.5 858.5Q1556 841 1546.0 818.0Q1536 795 1536 768H1664ZM128 768H256Q256 795 246.0 818.0Q236 841 218.5 858.5Q201 876 178.0 886.0Q155 896 128 896ZM1920 1536H1792V640H256V512H1920ZM448 1152Q422 1152 403.0 1171.0Q384 1190 384 1216Q384 1242 403.0 1261.0Q422 1280 448 1280Q474 1280 493.0 1261.0Q512 1242 512 1216Q512 1190 493.0 1171.0Q474 1152 448 1152ZM1344 1152Q1318 1152 1299.0 1171.0Q1280 1190 1280 1216Q1280 1242 1299.0 1261.0Q1318 1280 1344 1280Q1370 1280 1389.0 1261.0Q1408 1242 1408 1216Q1408 1190 1389.0 1171.0Q1370 1152 1344 1152ZM896 896Q843 896 796.5 916.0Q750 936 715.0 971.0Q680 1006 660.0 1052.5Q640 1099 640 1152V1280Q640 1333 660.0 1379.5Q680 1426 715.0 1461.0Q750 1496 796.5 1516.0Q843 1536 896 1536Q949 1536 995.5 1516.0Q1042 1496 1077.0 1461.0Q1112 1426 1132.0 1379.5Q1152 1333 1152 1280V1152Q1152 1099 1132.0 1052.5Q1112 1006 1077.0 971.0Q1042 936 995.5 916.0Q949 896 896 896ZM768 1152Q768 1125 778.0 1102.0Q788 1079 805.5 1061.5Q823 1044 846.0 1034.0Q869 1024 896 1024Q923 1024 946.0 1034.0Q969 1044 986.5 1061.5Q1004 1079 1014.0 1102.0Q1024 1125 1024 1152V1280Q1024 1307 1014.0 1330.0Q1004 1353 986.5 1370.5Q969 1388 946.0 1398.0Q923 1408 896 1408Q869 1408 846.0 1398.0Q823 1388 805.5 1370.5Q788 1353 778.0 1330.0Q768 1307 768 1280Z" transform="scale(1,-1)"/>
</svg>