<?xml version="1.0" encoding="UTF-8"?>
<svg xmlns="http://www.w3.org/2000/svg" viewBox="0 -2048 2048 2048">
  <path d="M1472 1152Q1591 1152 1696.0 1106.5Q1801 1061 1879.0 983.0Q1957 905 2002.5 800.0Q2048 695 2048 576Q2048 457 2002.5 352.0Q1957 247 1879.0 169.0Q1801 91 1696.0 45.5Q1591 0 1472 0Q1353 0 1248.0 45.5Q1143 91 1065.0 169.0Q987 247 941.5 352.0Q896 457 896 576Q896 695 941.5 800.0Q987 905 1065.0 983.0Q1143 1061 1248.0 1106.5Q1353 1152 1472 1152ZM1472 128Q1565 128 1646.5 163.5Q1728 199 1788.5 259.5Q1849 320 1884.5 401.5Q1920 483 1920 576Q1920 669 1884.5 750.5Q1849 832 1788.5 892.5Q1728 953 1646.5 988.5Q1565 1024 1472 1024Q1379 1024 1297.5 988.5Q1216 953 1155.5 892.5Q1095 832 1059.5 750.5Q1024 669 1024 576Q1024 483 1059.5 401.5Q1095 320 1155.5 259.5Q1216 199 1297.5 163.5Q1379 128 1472 128ZM2048 1792V1280H1536V1408H1852Q1793 1525 1705.5 1619.5Q1618 1714 1510.0 1780.5Q1402 1847 1278.5 1883.5Q1155 1920 1024 1920Q870 1920 728.5 1872.5Q587 1825 470.5 1738.5Q354 1652 267.5 1530.5Q181 1409 136 1261L14 1299Q64 1465 163.0 1603.0Q262 1741 395.5 1840.0Q529 1939 689.5 1993.5Q850 2048 1024 2048Q1161 2048 1291.0 2014.0Q1421 1980 1536.5 1915.5Q1652 1851 1750.0 1758.5Q1848 1666 1920 1549V1792ZM880 140Q909 101 942.5 66.0Q976 31 1014 1Q879 2 750.0 37.5Q621 73 506.5 138.5Q392 204 295.5 296.0Q199 388 128 503V256H0V768H512V640H198Q248 541 320.0 457.0Q392 373 479.5 308.5Q567 244 668.5 201.0Q770 158 880 140ZM1408 896H1536V512H1408ZM1408 384H1536V256H1408Z" transform="scale(1,-1)"/>
</svg>