<?xml version="1.0" encoding="UTF-8"?>
<svg xmlns="http://www.w3.org/2000/svg" viewBox="0 -2048 2048 2048">
  <path d="M2048 768V0H1024V768H1280V1024H1792V768ZM1408 768H1664V896H1408ZM1920 384H1792V256H1664V384H1408V256H1280V384H1152V128H1920ZM1920 640H1152V512H1920ZM1565 1152Q1511 1213 1436.5 1246.5Q1362 1280 1280 1280Q1200 1280 1130.5 1250.0Q1061 1220 1008.5 1167.5Q956 1115 926.0 1045.0Q896 975 896 896Q896 804 854.5 722.5Q813 641 739 587Q784 564 823.5 533.5Q863 503 896 466V128Q896 207 866.0 277.0Q836 347 783.5 399.5Q731 452 661.0 482.0Q591 512 512 512Q432 512 362.5 482.0Q293 452 240.5 399.5Q188 347 158.0 277.0Q128 207 128 128H0Q0 201 20.0 269.5Q40 338 77.0 398.0Q114 458 167.0 506.0Q220 554 285 587Q211 641 169.5 722.5Q128 804 128 896Q128 975 158.0 1045.0Q188 1115 240.5 1167.5Q293 1220 362.5 1250.0Q432 1280 512 1280Q604 1280 685.5 1238.5Q767 1197 821 1123Q859 1198 918.5 1257.5Q978 1317 1053 1355Q979 1409 937.5 1490.5Q896 1572 896 1664Q896 1743 926.0 1813.0Q956 1883 1008.5 1935.5Q1061 1988 1130.5 2018.0Q1200 2048 1280 2048Q1359 2048 1429.0 2018.0Q1499 1988 1551.5 1935.5Q1604 1883 1634.0 1813.0Q1664 1743 1664 1664Q1664 1572 1622.5 1490.5Q1581 1409 1507 1355Q1575 1321 1630.0 1269.5Q1685 1218 1723 1152ZM512 640Q565 640 611.5 660.0Q658 680 693.0 715.0Q728 750 748.0 796.5Q768 843 768 896Q768 949 748.0 995.5Q728 1042 693.0 1077.0Q658 1112 611.5 1132.0Q565 1152 512 1152Q459 1152 412.5 1132.0Q366 1112 331.0 1077.0Q296 1042 276.0 995.5Q256 949 256 896Q256 843 276.0 796.5Q296 750 331.0 715.0Q366 680 412.5 660.0Q459 640 512 640ZM1024 1664Q1024 1611 1044.0 1564.5Q1064 1518 1099.0 1483.0Q1134 1448 1180.5 1428.0Q1227 1408 1280 1408Q1333 1408 1379.5 1428.0Q1426 1448 1461.0 1483.0Q1496 1518 1516.0 1564.5Q1536 1611 1536 1664Q1536 1717 1516.0 1763.5Q1496 1810 1461.0 1845.0Q1426 1880 1379.5 1900.0Q1333 1920 1280 1920Q1227 1920 1180.5 1900.0Q1134 1880 1099.0 1845.0Q1064 1810 1044.0 1763.5Q1024 1717 1024 1664Z" transform="scale(1,-1)"/>
</svg>