<?xml version="1.0" encoding="UTF-8"?>
<svg xmlns="http://www.w3.org/2000/svg" viewBox="49 -2035 1999 2035">
  <path d="M2048 640Q2048 610 2034 582L1735 0H640V1024Q640 1051 650.0 1074.0Q660 1097 677.5 1114.5Q695 1132 718.0 1142.0Q741 1152 768 1152H992Q1037 1152 1069.5 1142.5Q1102 1133 1127.5 1119.0Q1153 1105 1173.0 1088.0Q1193 1071 1213.5 1057.0Q1234 1043 1257.5 1033.5Q1281 1024 1312 1024H1664Q1691 1024 1714.0 1014.0Q1737 1004 1754.5 986.5Q1772 969 1782.0 946.0Q1792 923 1792 896V768H1920Q1953 768 1982.5 752.0Q2012 736 2029 707Q2048 675 2048 640ZM768 1024V335L949 697Q966 730 996.5 749.0Q1027 768 1064 768H1664V896H1312Q1267 896 1234.5 905.5Q1202 915 1176.5 929.0Q1151 943 1131.0 960.0Q1111 977 1090.5 991.0Q1070 1005 1046.5 1014.5Q1023 1024 992 1024ZM1657 128 1920 640H1064L808 128ZM366 1280H749Q680 1280 621.5 1245.5Q563 1211 528 1152H367L236 622L512 745V605L49 397L251 1213L49 2035L1868 1213L1732 1152H1331Q1316 1152 1305 1162Q1272 1190 1238.5 1212.0Q1205 1234 1169.5 1249.0Q1134 1264 1095.0 1272.0Q1056 1280 1011 1280H1409L236 1810Z" transform="scale(1,-1)"/>
</svg>