<?xml version="1.0" encoding="UTF-8"?>
<svg xmlns="http://www.w3.org/2000/svg" viewBox="128 -2048 1664 2048">
  <path d="M896 385H1024V257H896ZM960 1345Q1026 1345 1084.0 1319.5Q1142 1294 1185.5 1250.5Q1229 1207 1254.5 1149.0Q1280 1091 1280 1025Q1280 965 1261.0 920.0Q1242 875 1213.5 839.5Q1185 804 1152.0 774.5Q1119 745 1090.5 715.0Q1062 685 1043.0 652.0Q1024 619 1024 577V513H896V577Q896 637 915.0 681.5Q934 726 962.5 761.5Q991 797 1024.0 827.0Q1057 857 1085.5 886.5Q1114 916 1133.0 949.0Q1152 982 1152 1025Q1152 1064 1137.0 1099.0Q1122 1134 1095.5 1160.5Q1069 1187 1034.0 1202.0Q999 1217 960 1217Q921 1217 886.0 1202.0Q851 1187 824.5 1160.5Q798 1134 783.0 1099.0Q768 1064 768 1025H640Q640 1091 665.0 1149.0Q690 1207 733.5 1250.5Q777 1294 835.5 1319.5Q894 1345 960 1345ZM1792 1499V0H128V2048H1248ZM1285 1536H1575L1285 1828ZM1664 128V1408H1157V1920H256V128Z" transform="scale(1,-1)"/>
</svg>