<?xml version="1.0" encoding="UTF-8"?>
<svg xmlns="http://www.w3.org/2000/svg" viewBox="384 -2048 1152 2048">
  <path d="M1024.0546875 128.0H896.0625V0.0H1024.0546875ZM960.05859375 2048.0Q881.0634155273438 2048.0 807.5679016113281 2027.5Q734.0723876953125 2007.0 670.0762939453125 1969.5Q606.0802001953125 1932.0 553.0834350585938 1879.0Q500.086669921875 1826.0 462.5889587402344 1762.0Q425.09124755859375 1698.0 404.5924987792969 1624.5Q384.09375 1551.0 384.09375 1472.0Q384.09375 1388.0 406.0924072265625 1320.0Q428.091064453125 1252.0 464.0888671875 1195.5Q500.086669921875 1139.0 546.0838623046875 1091.0Q592.0810546875 1043.0 640.078125 998.0Q688.0751953125 953.0 734.0723876953125 908.5Q780.069580078125 864.0 816.0673828125 814.0Q852.065185546875 764.0 874.0638427734375 706.0Q896.0625 648.0 896.0625 576.0V384.0H1024.0546875V576.0Q1024.0546875 660.0 1002.0560302734375 728.0Q980.057373046875 796.0 944.0595703125 852.5Q908.061767578125 909.0 862.0645751953125 956.5Q816.0673828125 1004.0 768.0703125 1049.0Q720.0732421875 1094.0 674.0760498046875 1139.0Q628.078857421875 1184.0 592.0810546875 1234.0Q556.083251953125 1284.0 534.0845947265625 1342.0Q512.0859375 1400.0 512.0859375 1472.0Q512.0859375 1565.0 547.5837707519531 1646.5Q583.0816040039062 1728.0 643.5779113769531 1788.5Q704.07421875 1849.0 785.5692443847656 1884.5Q867.0642700195312 1920.0 960.05859375 1920.0Q1053.0529174804688 1920.0 1134.5479431152344 1884.5Q1216.04296875 1849.0 1276.5392761230469 1788.5Q1337.0355834960938 1728.0 1372.5334167480469 1646.5Q1408.03125 1565.0 1408.03125 1472.0H1536.0234375Q1536.0234375 1551.0 1515.5246887207031 1624.5Q1495.0259399414062 1698.0 1457.5282287597656 1762.0Q1420.030517578125 1826.0 1367.0337524414062 1879.0Q1314.0369873046875 1932.0 1250.0408935546875 1969.5Q1186.0447998046875 2007.0 1112.5492858886719 2027.5Q1039.0537719726562 2048.0 960.05859375 2048.0Z" transform="scale(1,-1)"/>
</svg>