<?xml version="1.0" encoding="UTF-8"?>
<svg xmlns="http://www.w3.org/2000/svg" viewBox="0 -2048 1920 1920">
  <path d="M1472 1472Q1445 1472 1422.0 1482.0Q1399 1492 1381.5 1509.5Q1364 1527 1354.0 1550.0Q1344 1573 1344 1600Q1344 1627 1354.0 1650.0Q1364 1673 1381.5 1690.5Q1399 1708 1422.0 1718.0Q1445 1728 1472 1728Q1499 1728 1522.0 1718.0Q1545 1708 1562.5 1690.5Q1580 1673 1590.0 1650.0Q1600 1627 1600 1600Q1600 1573 1590.0 1550.0Q1580 1527 1562.5 1509.5Q1545 1492 1522.0 1482.0Q1499 1472 1472 1472ZM1024 2048H1920V1152L896 128L0 1024ZM1792 1205V1920H1077L181 1024L896 309Z" transform="scale(1,-1)"/>
</svg>