<?xml version="1.0" encoding="UTF-8"?>
<svg xmlns="http://www.w3.org/2000/svg" viewBox="0 -2048 1920 2048">
  <path d="M1792 756Q1820 746 1844.0 728.0Q1868 710 1884.5 686.5Q1901 663 1910.5 634.5Q1920 606 1920 576Q1920 536 1905.0 501.0Q1890 466 1864.0 440.0Q1838 414 1803.0 399.0Q1768 384 1728 384Q1668 384 1619 418L1408 313V0H1280V576Q1280 602 1261.0 621.0Q1242 640 1216 640H704Q678 640 659.0 621.0Q640 602 640 576V0H512V313L301 418Q252 384 192 384Q152 384 117.0 399.0Q82 414 56.0 440.0Q30 466 15.0 501.0Q0 536 0 576Q0 606 9.5 634.5Q19 663 35.5 686.5Q52 710 75.5 728.0Q99 746 128 756V1292Q99 1302 75.5 1320.0Q52 1338 35.5 1361.5Q19 1385 9.5 1413.5Q0 1442 0 1472Q0 1512 15.0 1547.0Q30 1582 56.0 1608.0Q82 1634 117.0 1649.0Q152 1664 192 1664Q252 1664 301 1630L769 1864Q770 1902 786.0 1935.5Q802 1969 828.0 1994.0Q854 2019 888.0 2033.5Q922 2048 960 2048Q998 2048 1032.0 2033.5Q1066 2019 1092.0 1994.0Q1118 1969 1133.5 1935.5Q1149 1902 1151 1864L1619 1630Q1668 1664 1728 1664Q1768 1664 1803.0 1649.0Q1838 1634 1864.0 1608.0Q1890 1582 1905.0 1547.0Q1920 1512 1920 1472Q1920 1442 1910.5 1413.5Q1901 1385 1884.5 1361.5Q1868 1338 1844.0 1320.0Q1820 1302 1792 1292ZM1728 1536Q1702 1536 1683.0 1517.0Q1664 1498 1664 1472Q1664 1446 1683.0 1427.0Q1702 1408 1728 1408Q1754 1408 1773.0 1427.0Q1792 1446 1792 1472Q1792 1498 1773.0 1517.0Q1754 1536 1728 1536ZM960 1920Q934 1920 915.0 1901.0Q896 1882 896 1856Q896 1830 915.0 1811.0Q934 1792 960 1792Q986 1792 1005.0 1811.0Q1024 1830 1024 1856Q1024 1882 1005.0 1901.0Q986 1920 960 1920ZM192 1536Q166 1536 147.0 1517.0Q128 1498 128 1472Q128 1446 147.0 1427.0Q166 1408 192 1408Q218 1408 237.0 1427.0Q256 1446 256 1472Q256 1498 237.0 1517.0Q218 1536 192 1536ZM192 512Q218 512 237.0 531.0Q256 550 256 576Q256 602 237.0 621.0Q218 640 192 640Q166 640 147.0 621.0Q128 602 128 576Q128 550 147.0 531.0Q166 512 192 512ZM1536 576Q1536 606 1545.5 634.0Q1555 662 1572.0 685.5Q1589 709 1612.5 727.0Q1636 745 1664 756V1292Q1635 1302 1611.5 1320.0Q1588 1338 1571.5 1362.0Q1555 1386 1545.5 1414.0Q1536 1442 1536 1472Q1536 1497 1544 1524L1112 1740Q1085 1705 1045.0 1684.5Q1005 1664 960 1664Q915 1664 875.0 1684.5Q835 1705 808 1740L376 1524Q384 1497 384 1472Q384 1442 374.5 1414.0Q365 1386 348.5 1362.0Q332 1338 308.0 1320.0Q284 1302 256 1292V756Q284 746 308.0 728.0Q332 710 348.5 686.0Q365 662 374.5 634.0Q384 606 384 576Q384 551 376 524L512 455V576Q512 616 527.0 651.0Q542 686 568.0 712.0Q594 738 629.0 753.0Q664 768 704 768H1216Q1256 768 1291.0 753.0Q1326 738 1352.0 712.0Q1378 686 1393.0 651.0Q1408 616 1408 576V455L1544 523Q1536 550 1536 576ZM1728 512Q1754 512 1773.0 531.0Q1792 550 1792 576Q1792 602 1773.0 621.0Q1754 640 1728 640Q1702 640 1683.0 621.0Q1664 602 1664 576Q1664 550 1683.0 531.0Q1702 512 1728 512ZM1280 1088Q1280 1022 1254.5 963.5Q1229 905 1185.5 861.5Q1142 818 1084.0 793.0Q1026 768 960 768Q894 768 835.5 793.0Q777 818 733.5 861.5Q690 905 665.0 963.5Q640 1022 640 1088Q640 1154 665.0 1212.0Q690 1270 733.5 1313.5Q777 1357 835.5 1382.5Q894 1408 960 1408Q1026 1408 1084.0 1382.5Q1142 1357 1185.5 1313.5Q1229 1270 1254.5 1212.0Q1280 1154 1280 1088ZM960 896Q1000 896 1035.0 911.0Q1070 926 1096.0 952.0Q1122 978 1137.0 1013.0Q1152 1048 1152 1088Q1152 1128 1137.0 1163.0Q1122 1198 1096.0 1224.0Q1070 1250 1035.0 1265.0Q1000 1280 960 1280Q920 1280 885.0 1265.0Q850 1250 824.0 1224.0Q798 1198 783.0 1163.0Q768 1128 768 1088Q768 1048 783.0 1013.0Q798 978 824.0 952.0Q850 926 885.0 911.0Q920 896 960 896Z" transform="scale(1,-1)"/>
</svg>