<?xml version="1.0" encoding="UTF-8"?>
<svg xmlns="http://www.w3.org/2000/svg" viewBox="0 -1664 2048 1664">
  <path d="M2048 1664V980Q1993 1059 1920 1119V1400L1638 1260Q1597 1269 1555.5 1274.5Q1514 1280 1472 1280Q1449 1280 1425.5 1278.0Q1402 1276 1379 1273L1905 1536H143L1007 1104Q982 1081 959.0 1057.0Q936 1033 916 1007L128 1400V512H771Q774 480 780.5 448.0Q787 416 795 384H0V1664ZM1472 1152Q1591 1152 1696.0 1106.5Q1801 1061 1879.0 983.0Q1957 905 2002.5 800.0Q2048 695 2048 576Q2048 457 2002.5 352.0Q1957 247 1879.0 169.0Q1801 91 1696.0 45.5Q1591 0 1472 0Q1353 0 1248.0 45.5Q1143 91 1065.0 169.0Q987 247 941.5 352.0Q896 457 896 576Q896 695 941.5 800.0Q987 905 1065.0 983.0Q1143 1061 1248.0 1106.5Q1353 1152 1472 1152ZM1472 128Q1565 128 1646.5 163.5Q1728 199 1788.5 259.5Q1849 320 1884.5 401.5Q1920 483 1920 576Q1920 669 1884.5 750.5Q1849 832 1788.5 892.5Q1728 953 1646.5 988.5Q1565 1024 1472 1024Q1379 1024 1297.5 988.5Q1216 953 1155.5 892.5Q1095 832 1059.5 750.5Q1024 669 1024 576Q1024 483 1059.5 401.5Q1095 320 1155.5 259.5Q1216 199 1297.5 163.5Q1379 128 1472 128ZM1408 896H1536V512H1408ZM1408 384H1536V256H1408Z" transform="scale(1,-1)"/>
</svg>