<?xml version="1.0" encoding="UTF-8"?>
<svg xmlns="http://www.w3.org/2000/svg" viewBox="0 -1792 2048 1536">
  <path d="M1792 768V640H1408V768ZM1792 1152V1024H1408V1152ZM256 1536H2048V256H256ZM1920 384V1408H384V384ZM640 512H512Q512 564 526.0 613.5Q540 663 565.5 706.5Q591 750 628.0 786.5Q665 823 710 848Q677 883 658.5 929.5Q640 976 640 1024Q640 1077 660.0 1123.5Q680 1170 715.0 1205.0Q750 1240 796.5 1260.0Q843 1280 896 1280Q949 1280 995.5 1260.0Q1042 1240 1077.0 1205.0Q1112 1170 1132.0 1123.5Q1152 1077 1152 1024Q1152 976 1133.5 929.5Q1115 883 1082 848Q1127 822 1164.0 786.0Q1201 750 1226.5 706.5Q1252 663 1266.0 613.5Q1280 564 1280 512H1152Q1152 565 1132.0 611.5Q1112 658 1077.0 693.0Q1042 728 995.5 748.0Q949 768 896 768Q843 768 796.0 748.0Q749 728 714.5 693.5Q680 659 660.0 612.0Q640 565 640 512ZM768 1024Q768 997 778.0 974.0Q788 951 805.5 933.5Q823 916 846.0 906.0Q869 896 896 896Q923 896 946.0 906.0Q969 916 986.5 933.5Q1004 951 1014.0 974.0Q1024 997 1024 1024Q1024 1051 1014.0 1074.0Q1004 1097 986.5 1114.5Q969 1132 946.0 1142.0Q923 1152 896 1152Q869 1152 846.0 1142.0Q823 1132 805.5 1114.5Q788 1097 778.0 1074.0Q768 1051 768 1024ZM1792 1792V1664H128V512H0V1792Z" transform="scale(1,-1)"/>
</svg>