<?xml version="1.0" encoding="UTF-8"?>
<svg xmlns="http://www.w3.org/2000/svg" viewBox="0 -1920 1920 1792">
  <path d="M1920 1792V128H0V1792H256V1920H640Q728 1920 809.5 1893.0Q891 1866 960 1812Q1029 1866 1110.5 1893.0Q1192 1920 1280 1920H1664V1792ZM1280 1792Q1210 1792 1144.0 1768.5Q1078 1745 1024 1700V446Q1083 479 1148.0 495.5Q1213 512 1280 512H1536V1792ZM384 512H640Q707 512 772.0 495.5Q837 479 896 446V1700Q842 1745 776.0 1768.5Q710 1792 640 1792H384ZM128 256H934Q902 287 869.0 310.5Q836 334 800.5 350.5Q765 367 725.5 375.5Q686 384 640 384H256V1664H128ZM1792 1664H1664V384H1280Q1234 384 1194.5 375.5Q1155 367 1119.5 350.5Q1084 334 1051.0 310.5Q1018 287 986 256H1792Z" transform="scale(1,-1)"/>
</svg>