<?xml version="1.0" encoding="UTF-8"?>
<svg xmlns="http://www.w3.org/2000/svg" viewBox="128 -1920 1792 1792">
  <path d="M1024 1920Q1147 1920 1261.5 1888.0Q1376 1856 1475.5 1797.5Q1575 1739 1657.0 1657.0Q1739 1575 1797.5 1475.5Q1856 1376 1888.0 1261.5Q1920 1147 1920 1024Q1920 901 1888.0 786.5Q1856 672 1797.5 572.5Q1739 473 1657.0 391.0Q1575 309 1475.5 250.5Q1376 192 1261.5 160.0Q1147 128 1024 128Q901 128 786.5 160.0Q672 192 572.5 250.5Q473 309 391.0 391.0Q309 473 250.5 572.5Q192 672 160.0 786.0Q128 900 128 1024Q128 1147 160.0 1261.5Q192 1376 250.5 1475.5Q309 1575 391.0 1657.0Q473 1739 572.5 1797.5Q672 1856 786.0 1888.0Q900 1920 1024 1920ZM1024 256Q1130 256 1228.0 283.5Q1326 311 1411.5 361.0Q1497 411 1567.0 481.0Q1637 551 1687.0 636.5Q1737 722 1764.5 820.0Q1792 918 1792 1024Q1792 1130 1764.5 1228.0Q1737 1326 1687.0 1411.5Q1637 1497 1567.0 1567.0Q1497 1637 1411.5 1687.0Q1326 1737 1228.0 1764.5Q1130 1792 1024 1792Q918 1792 820.0 1764.5Q722 1737 636.5 1687.0Q551 1637 481.0 1567.0Q411 1497 361.0 1411.5Q311 1326 283.5 1228.0Q256 1130 256 1024Q256 918 283.5 820.0Q311 722 361.0 636.5Q411 551 481.0 481.0Q551 411 636.5 361.0Q722 311 820.0 283.5Q918 256 1024 256ZM1024 1408Q1103 1408 1173.0 1377.5Q1243 1347 1295.0 1295.0Q1347 1243 1377.5 1173.0Q1408 1103 1408 1024Q1408 945 1377.5 875.0Q1347 805 1295.0 753.0Q1243 701 1173.0 670.5Q1103 640 1024 640Q945 640 875.0 670.5Q805 701 753.0 753.0Q701 805 670.5 875.0Q640 945 640 1024Q640 1103 670.5 1173.0Q701 1243 753.0 1295.0Q805 1347 875.0 1377.5Q945 1408 1024 1408Z" transform="scale(1,-1)"/>
</svg>