<?xml version="1.0" encoding="UTF-8"?>
<svg xmlns="http://www.w3.org/2000/svg" viewBox="43 -1792 2005 1408">
  <path d="M640 1792 1109 384H981L853 768H299L171 384H43L512 1792ZM811 896 576 1600 341 896ZM1728 1408Q1794 1408 1852.5 1383.0Q1911 1358 1954.5 1314.5Q1998 1271 2023.0 1212.5Q2048 1154 2048 1088V384H1920V518Q1857 453 1774.0 418.5Q1691 384 1600 384Q1534 384 1475.5 409.0Q1417 434 1373.5 477.5Q1330 521 1305.0 579.5Q1280 638 1280 704Q1280 755 1297.5 801.0Q1315 847 1346.0 883.5Q1377 920 1419.5 945.0Q1462 970 1512 978L1920 1046V1088Q1920 1128 1905.0 1163.0Q1890 1198 1864.0 1224.0Q1838 1250 1803.0 1265.0Q1768 1280 1728 1280Q1638 1280 1555.5 1247.5Q1473 1215 1408 1152V1315Q1480 1361 1561.5 1384.5Q1643 1408 1728 1408ZM1600 512Q1666 512 1724.0 537.0Q1782 562 1825.5 605.5Q1869 649 1894.5 707.5Q1920 766 1920 832V916L1533 852Q1506 847 1483.0 834.0Q1460 821 1443.5 801.0Q1427 781 1417.5 756.0Q1408 731 1408 704Q1408 664 1423.0 629.0Q1438 594 1464.0 568.0Q1490 542 1525.0 527.0Q1560 512 1600 512Z" transform="scale(1,-1)"/>
</svg>