<?xml version="1.0" encoding="UTF-8"?>
<svg xmlns="http://www.w3.org/2000/svg" viewBox="19 -2029 2010 2010">
  <path d="M1300 847 1029 576 1119 486 893 259Q830 196 747.5 162.0Q665 128 576 128Q503 128 434.5 150.5Q366 173 308 217L109 19L19 109L217 308Q173 366 150.5 434.5Q128 503 128 576Q128 665 162.0 747.5Q196 830 259 893L486 1119L576 1029L847 1300L938 1210L666 938L938 666L1210 938ZM576 256Q640 256 698.5 280.5Q757 305 802 350L938 486L486 938L350 802Q305 757 280.5 698.5Q256 640 256 576Q256 510 281.0 451.5Q306 393 349.5 349.5Q393 306 451.5 281.0Q510 256 576 256ZM1831 1740Q1875 1682 1897.5 1613.5Q1920 1545 1920 1472Q1920 1383 1886.0 1300.5Q1852 1218 1789 1155L1562 929L929 1562L1155 1789Q1218 1852 1300.5 1886.0Q1383 1920 1472 1920Q1545 1920 1613.5 1897.5Q1682 1875 1740 1831L1939 2029L2029 1939ZM1698 1246Q1743 1291 1767.5 1349.5Q1792 1408 1792 1472Q1792 1538 1766.5 1596.0Q1741 1654 1697.5 1697.5Q1654 1741 1596.0 1766.5Q1538 1792 1472 1792Q1408 1792 1349.5 1767.5Q1291 1743 1246 1698L1110 1562L1562 1110Z" transform="scale(1,-1)"/>
</svg>