<?xml version="1.0" encoding="UTF-8"?>
<svg xmlns="http://www.w3.org/2000/svg" viewBox="0 -2048 1920 1920">
  <path d="M960 1536Q1053 1536 1134.5 1501.0Q1216 1466 1277.0 1405.0Q1338 1344 1373.0 1262.5Q1408 1181 1408 1088Q1408 995 1373.0 913.5Q1338 832 1277.0 771.0Q1216 710 1134.5 675.0Q1053 640 960 640Q867 640 785.5 675.0Q704 710 643.0 771.0Q582 832 547.0 913.5Q512 995 512 1088Q512 1181 547.0 1262.5Q582 1344 643.0 1405.0Q704 1466 785.5 1501.0Q867 1536 960 1536ZM960 768Q1026 768 1084.0 793.0Q1142 818 1185.5 861.5Q1229 905 1254.5 963.5Q1280 1022 1280 1088Q1280 1154 1254.5 1212.0Q1229 1270 1185.5 1313.5Q1142 1357 1084.0 1382.5Q1026 1408 960 1408Q894 1408 835.5 1382.5Q777 1357 733.5 1313.5Q690 1270 665.0 1212.0Q640 1154 640 1088Q640 1022 665.0 963.5Q690 905 733.5 861.5Q777 818 835.5 793.0Q894 768 960 768ZM1024 1664H896V2048H1024ZM896 512H1024V128H896ZM1920 1152V1024H1536V1152ZM384 1024H0V1152H384ZM507 1450 236 1722 326 1812 598 1541ZM1413 726 1684 454 1594 364 1322 635ZM1413 1450 1322 1541 1594 1812 1684 1722ZM507 726 598 635 326 364 236 454Z" transform="scale(1,-1)"/>
</svg>