<?xml version="1.0" encoding="UTF-8"?>
<svg xmlns="http://www.w3.org/2000/svg" viewBox="0 -2048 2038 2038">
  <path d="M1920 448Q1920 417 1914 387L2038 336L1989 217L1865 269Q1850 244 1827.0 221.5Q1804 199 1779 183L1831 59L1712 10L1661 134Q1631 128 1600 128Q1569 128 1539 134L1488 10L1369 59L1421 183Q1370 218 1335 269L1211 217L1162 336L1286 387Q1280 417 1280 448Q1280 479 1286 509L1162 560L1211 679L1335 627Q1369 679 1421 713L1369 837L1488 886L1539 762Q1553 764 1566.5 765.5Q1580 767 1594 767Q1611 767 1627.0 765.0Q1643 763 1660 760L1712 886L1831 837L1778 711Q1831 679 1865 627L1989 679L2038 560L1914 509Q1920 479 1920 448ZM1792 448Q1792 488 1777.0 523.0Q1762 558 1736.0 584.0Q1710 610 1675.0 625.0Q1640 640 1600 640Q1561 640 1526.0 625.0Q1491 610 1464.5 583.5Q1438 557 1423.0 522.0Q1408 487 1408 448Q1408 408 1423.5 373.0Q1439 338 1465.0 312.0Q1491 286 1526.5 271.0Q1562 256 1601 256Q1640 256 1674.5 271.5Q1709 287 1735.5 313.0Q1762 339 1777.0 374.0Q1792 409 1792 448ZM739 587Q805 554 857.5 505.5Q910 457 947.0 398.0Q984 339 1004.0 270.5Q1024 202 1024 128H896Q896 207 866.0 277.0Q836 347 783.5 399.5Q731 452 661.0 482.0Q591 512 512 512Q432 512 362.0 482.0Q292 452 240.0 400.0Q188 348 158.0 278.0Q128 208 128 128H0Q0 201 20.0 270.0Q40 339 77.0 398.5Q114 458 166.5 506.0Q219 554 285 587Q210 642 169.0 722.5Q128 803 128 896Q128 976 158.0 1046.0Q188 1116 240.0 1168.0Q292 1220 362.0 1250.0Q432 1280 512 1280Q604 1280 685.5 1238.5Q767 1197 821 1123Q858 1198 918.0 1257.5Q978 1317 1053 1354Q978 1411 937.0 1490.5Q896 1570 896 1664Q896 1744 926.0 1814.0Q956 1884 1008.0 1936.0Q1060 1988 1130.0 2018.0Q1200 2048 1280 2048Q1359 2048 1429.0 2018.0Q1499 1988 1551.5 1935.5Q1604 1883 1634.0 1813.0Q1664 1743 1664 1664Q1664 1569 1621.5 1487.0Q1579 1405 1501 1350Q1600 1296 1670.0 1214.0Q1740 1132 1775 1024H1641Q1618 1077 1581.0 1123.5Q1544 1170 1497.0 1204.5Q1450 1239 1394.5 1259.0Q1339 1279 1280 1279Q1222 1279 1168.0 1262.5Q1114 1246 1068.0 1215.5Q1022 1185 985.5 1142.0Q949 1099 926 1045Q896 974 896 896Q896 804 854.5 722.5Q813 641 739 587ZM1280 1408Q1333 1408 1379.5 1428.0Q1426 1448 1461.0 1483.0Q1496 1518 1516.0 1564.5Q1536 1611 1536 1664Q1536 1717 1516.0 1763.5Q1496 1810 1461.0 1845.0Q1426 1880 1379.5 1900.0Q1333 1920 1280 1920Q1227 1920 1180.5 1900.0Q1134 1880 1099.0 1845.0Q1064 1810 1044.0 1763.5Q1024 1717 1024 1664Q1024 1611 1044.0 1564.5Q1064 1518 1099.0 1483.0Q1134 1448 1180.5 1428.0Q1227 1408 1280 1408ZM768 896Q768 949 748.0 995.5Q728 1042 693.0 1077.0Q658 1112 611.5 1132.0Q565 1152 512 1152Q459 1152 412.5 1132.0Q366 1112 331.0 1077.0Q296 1042 276.0 995.5Q256 949 256 896Q256 843 276.0 796.5Q296 750 331.0 715.0Q366 680 412.5 660.0Q459 640 512 640Q565 640 611.5 660.0Q658 680 693.0 715.0Q728 750 748.0 796.5Q768 843 768 896Z" transform="scale(1,-1)"/>
</svg>