<?xml version="1.0" encoding="UTF-8"?>
<svg xmlns="http://www.w3.org/2000/svg" viewBox="512 -1536 1408 1536">
  <path d="M1701 154Q1695 148 1690.5 141.5Q1686 135 1681 128H1920V0H1536V64Q1536 116 1555.0 158.0Q1574 200 1602.5 235.0Q1631 270 1664.0 299.0Q1697 328 1725.5 353.0Q1754 378 1773.0 401.0Q1792 424 1792 448Q1792 474 1773.0 493.0Q1754 512 1728 512Q1702 512 1683.0 493.0Q1664 474 1664 448H1536Q1536 488 1551.0 523.0Q1566 558 1592.0 584.0Q1618 610 1653.0 625.0Q1688 640 1728 640Q1768 640 1803.0 625.0Q1838 610 1864.0 584.0Q1890 558 1905.0 523.0Q1920 488 1920 448Q1920 410 1905.0 374.5Q1890 339 1864 312H1863ZM1440 1536 1056 1024 1440 512H1280L976 917L672 512H512L896 1024L512 1536H672L976 1131L1280 1536Z" transform="scale(1,-1)"/>
</svg>