<?xml version="1.0" encoding="UTF-8"?>
<svg xmlns="http://www.w3.org/2000/svg" viewBox="0 -2038 2038 2038">
  <path d="M1920 1600Q1920 1569 1914 1539L2038 1488L1989 1369L1865 1421Q1830 1370 1779 1335L1831 1211L1712 1162L1661 1286Q1631 1280 1600 1280Q1569 1280 1539 1286L1488 1162L1369 1211L1421 1335Q1370 1370 1335 1421L1211 1369L1162 1488L1286 1539Q1280 1569 1280 1600Q1280 1631 1286 1661L1162 1712L1211 1831L1335 1779Q1370 1830 1421 1865L1369 1989L1488 2038L1539 1914Q1569 1920 1600 1920Q1631 1920 1661 1914L1712 2038L1831 1989L1779 1865Q1830 1830 1865 1779L1989 1831L2038 1712L1914 1661Q1920 1631 1920 1600ZM1600 1408Q1640 1408 1675.0 1423.0Q1710 1438 1736.0 1464.0Q1762 1490 1777.0 1525.0Q1792 1560 1792 1600Q1792 1640 1777.0 1675.0Q1762 1710 1736.0 1736.0Q1710 1762 1675.0 1777.0Q1640 1792 1600 1792Q1560 1792 1525.0 1777.0Q1490 1762 1464.0 1736.0Q1438 1710 1423.0 1675.0Q1408 1640 1408 1600Q1408 1560 1423.0 1525.0Q1438 1490 1464.0 1464.0Q1490 1438 1525.0 1423.0Q1560 1408 1600 1408ZM1920 1024V0H896V384H384V896H0V1920H1024V1024ZM896 896H512V512H896ZM896 1792H128V1024H896ZM1792 896H1024V128H1792Z" transform="scale(1,-1)"/>
</svg>