<?xml version="1.0" encoding="UTF-8"?>
<svg xmlns="http://www.w3.org/2000/svg" viewBox="0 -2048 1920 1920">
  <path d="M960 2048Q1092 2048 1215.0 2013.5Q1338 1979 1444.5 1916.5Q1551 1854 1638.5 1766.5Q1726 1679 1788.5 1572.5Q1851 1466 1885.5 1343.0Q1920 1220 1920 1088Q1920 956 1885.5 833.0Q1851 710 1788.5 603.5Q1726 497 1638.5 409.5Q1551 322 1444.5 259.5Q1338 197 1215.0 162.5Q1092 128 960 128Q828 128 705.0 162.5Q582 197 475.5 259.5Q369 322 281.5 409.5Q194 497 131.5 603.5Q69 710 34.5 832.5Q0 955 0 1088Q0 1220 34.5 1343.0Q69 1466 131.5 1572.5Q194 1679 281.5 1766.5Q369 1854 475.5 1916.5Q582 1979 704.5 2013.5Q827 2048 960 2048ZM960 256Q1075 256 1181.5 285.5Q1288 315 1380.5 369.5Q1473 424 1548.5 499.5Q1624 575 1678.5 667.5Q1733 760 1762.5 866.5Q1792 973 1792 1088Q1792 1203 1762.5 1309.5Q1733 1416 1678.5 1508.5Q1624 1601 1548.5 1676.5Q1473 1752 1380.5 1806.5Q1288 1861 1181.5 1890.5Q1075 1920 960 1920Q845 1920 738.5 1890.5Q632 1861 539.5 1806.5Q447 1752 371.5 1676.5Q296 1601 241.5 1508.5Q187 1416 157.5 1309.5Q128 1203 128 1088Q128 973 157.5 866.5Q187 760 241.5 667.5Q296 575 371.5 499.5Q447 424 539.5 369.5Q632 315 738.5 285.5Q845 256 960 256ZM384 1152H1536V1024H384Z" transform="scale(1,-1)"/>
</svg>