<?xml version="1.0" encoding="UTF-8"?>
<svg xmlns="http://www.w3.org/2000/svg" viewBox="0 -2048 2048 2048">
  <path d="M2048 384V256H1792V0H1664V256H1408V384H1664V640H1792V384ZM768 384H1280V256H640V910L768 1038ZM960 2048Q1026 2048 1084.0 2022.5Q1142 1997 1185.5 1953.5Q1229 1910 1254.5 1852.0Q1280 1794 1280 1728Q1280 1662 1254.5 1603.5Q1229 1545 1185.5 1501.5Q1142 1458 1084.0 1433.0Q1026 1408 960 1408Q937 1408 915 1411L328 824Q301 797 265.5 782.5Q230 768 192 768Q152 768 117.0 783.0Q82 798 56.0 824.0Q30 850 15.0 885.0Q0 920 0 960Q0 998 14.5 1033.5Q29 1069 56 1096L643 1683Q640 1705 640 1728Q640 1794 665.0 1852.0Q690 1910 733.5 1953.5Q777 1997 835.5 2022.5Q894 2048 960 2048ZM960 1536Q1000 1536 1035.0 1551.0Q1070 1566 1096.0 1592.0Q1122 1618 1137.0 1653.0Q1152 1688 1152 1728Q1152 1769 1133 1810L987 1664H896V1755L1042 1901Q1001 1920 960 1920Q920 1920 885.0 1905.0Q850 1890 824.0 1864.0Q798 1838 783.0 1803.0Q768 1768 768 1728Q768 1687 787 1646L147 1005Q128 986 128 960Q128 934 147.0 915.0Q166 896 192 896Q218 896 237 915L878 1555Q919 1536 960 1536Z" transform="scale(1,-1)"/>
</svg>