<?xml version="1.0" encoding="UTF-8"?>
<svg xmlns="http://www.w3.org/2000/svg" viewBox="0 -1920 2048 1910">
  <path d="M1989 679 2038 560 1914 509Q1920 479 1920 448Q1920 417 1914 387L2038 336L1989 217L1865 269Q1830 218 1779 183L1831 59L1712 10L1661 134Q1631 128 1600 128Q1569 128 1539 134L1488 10L1369 59L1421 183Q1370 218 1335 269L1211 217L1162 336L1286 387Q1280 417 1280 448Q1280 479 1286 509L1162 560L1211 679L1335 627Q1370 678 1421 713L1369 837L1488 886L1539 762Q1569 768 1600 768Q1631 768 1661 762L1712 886L1831 837L1779 713Q1830 678 1865 627ZM1792 448Q1792 488 1777.0 523.0Q1762 558 1736.0 584.0Q1710 610 1675.0 625.0Q1640 640 1600 640Q1560 640 1525.0 625.0Q1490 610 1464.0 584.0Q1438 558 1423.0 523.0Q1408 488 1408 448Q1408 408 1423.0 373.0Q1438 338 1464.0 312.0Q1490 286 1525.0 271.0Q1560 256 1600 256Q1640 256 1675.0 271.0Q1710 286 1736.0 312.0Q1762 338 1777.0 373.0Q1792 408 1792 448ZM0 1920H2048V1701L1280 933Q1270 923 1253.5 909.5Q1237 896 1218.5 882.0Q1200 868 1182.0 855.0Q1164 842 1152 832V987L1920 1755V1792H128V1755L896 987V256H1059Q1071 222 1086.0 190.0Q1101 158 1121 128H768V933L0 1701Z" transform="scale(1,-1)"/>
</svg>