<?xml version="1.0" encoding="UTF-8"?>
<svg xmlns="http://www.w3.org/2000/svg" viewBox="0 -1696 2048 1312">
  <path d="M1660 1215Q1742 1210 1812.5 1175.0Q1883 1140 1935.5 1084.0Q1988 1028 2018.0 955.0Q2048 882 2048 800Q2048 714 2015.0 638.5Q1982 563 1925.5 506.5Q1869 450 1793.5 417.0Q1718 384 1632 384H512Q406 384 313.0 424.5Q220 465 150.5 534.5Q81 604 40.5 697.0Q0 790 0 896Q0 980 26.5 1057.0Q53 1134 100.0 1198.5Q147 1263 213.0 1311.5Q279 1360 359 1385Q396 1396 431.5 1401.0Q467 1406 505 1408H506Q550 1475 609.0 1528.5Q668 1582 737.0 1619.5Q806 1657 882.5 1676.5Q959 1696 1040 1696Q1149 1696 1249.5 1660.5Q1350 1625 1432.5 1561.5Q1515 1498 1574.0 1409.5Q1633 1321 1660 1215ZM1040 1568Q927 1568 825.0 1521.5Q723 1475 651 1388Q689 1378 723.5 1362.5Q758 1347 791 1327L1199 1083L1432 1181Q1455 1191 1478.5 1198.5Q1502 1206 1528 1211Q1503 1291 1455.0 1356.5Q1407 1422 1342.5 1469.0Q1278 1516 1201.0 1542.0Q1124 1568 1040 1568ZM206 665 1052 1022 725 1218Q675 1248 620.0 1264.0Q565 1280 507 1280Q429 1280 360.0 1249.0Q291 1218 239.5 1165.5Q188 1113 158.0 1043.0Q128 973 128 896Q128 836 148.0 774.5Q168 713 206 665ZM1632 512Q1680 512 1724.0 527.0Q1768 542 1806 571L1189 940L310 570Q355 542 406.5 527.0Q458 512 512 512ZM1889 670Q1920 732 1920 800Q1920 866 1895.0 920.0Q1870 974 1827.5 1011.5Q1785 1049 1728.0 1069.5Q1671 1090 1608 1090Q1572 1090 1536.5 1081.5Q1501 1073 1467.0 1060.0Q1433 1047 1400.0 1031.5Q1367 1016 1335 1002Z" transform="scale(1,-1)"/>
</svg>