<?xml version="1.0" encoding="UTF-8"?>
<svg xmlns="http://www.w3.org/2000/svg" viewBox="0 -1792 2048 1408">
  <path d="M2048 1792V384H0V1792ZM1920 1664H128V512H1920ZM1279 923Q1278 884 1273.0 846.5Q1268 809 1254.5 775.0Q1241 741 1217.5 712.5Q1194 684 1157 664Q1152 661 1143.5 657.0Q1135 653 1125.0 649.5Q1115 646 1106.0 643.0Q1097 640 1093 640H915V1534H1112Q1138 1534 1162.5 1524.5Q1187 1515 1206.0 1498.5Q1225 1482 1238.0 1459.5Q1251 1437 1254 1411Q1256 1391 1256.0 1371.0Q1256 1351 1256 1331Q1256 1319 1256.0 1293.0Q1256 1267 1254.5 1238.5Q1253 1210 1250.5 1185.5Q1248 1161 1244 1152Q1238 1139 1232.0 1130.0Q1226 1121 1219.0 1115.0Q1212 1109 1202.5 1104.5Q1193 1100 1178 1097V1095Q1211 1091 1231.0 1078.0Q1251 1065 1261.5 1045.5Q1272 1026 1275.5 1000.0Q1279 974 1279 943ZM1004 1136Q1019 1136 1034.0 1135.5Q1049 1135 1064 1135Q1084 1135 1104.5 1138.5Q1125 1142 1141 1156Q1148 1162 1152.0 1186.0Q1156 1210 1158.0 1238.5Q1160 1267 1160.5 1293.5Q1161 1320 1161 1330Q1161 1346 1161.0 1362.0Q1161 1378 1159 1394Q1157 1409 1147.5 1421.5Q1138 1434 1124.0 1443.0Q1110 1452 1094.0 1456.5Q1078 1461 1065 1461H1004ZM1082 710Q1112 722 1131.5 743.5Q1151 765 1163.0 792.5Q1175 820 1179.5 851.0Q1184 882 1184 911Q1184 942 1180.5 968.0Q1177 994 1166.0 1013.0Q1155 1032 1133.0 1042.0Q1111 1052 1074 1052H1001L1004 711ZM1716 644Q1648 644 1591.5 670.5Q1535 697 1494.5 742.0Q1454 787 1431.0 846.0Q1408 905 1408 971Q1408 1026 1427.5 1069.0Q1447 1112 1480.5 1140.5Q1514 1169 1560.0 1184.0Q1606 1199 1659 1199Q1676 1199 1697.5 1194.5Q1719 1190 1736 1185L1757 1095Q1734 1106 1715.5 1112.5Q1697 1119 1671 1119Q1635 1119 1604.0 1109.5Q1573 1100 1550.5 1081.0Q1528 1062 1515.0 1033.0Q1502 1004 1502 966Q1502 919 1517.5 875.5Q1533 832 1561.5 798.0Q1590 764 1630.0 744.0Q1670 724 1720 724Q1758 724 1795.5 734.5Q1833 745 1863 769L1882 685Q1866 674 1845.0 666.5Q1824 659 1802.0 654.0Q1780 649 1757.5 646.5Q1735 644 1716 644ZM303 1021 199 1037 649 1566 748 1552V899L665 903V1158H408ZM460 1234H666L667 1443Q667 1451 668.0 1460.0Q669 1469 671 1477Z" transform="scale(1,-1)"/>
</svg>