<?xml version="1.0" encoding="UTF-8"?>
<svg xmlns="http://www.w3.org/2000/svg" viewBox="128 -1920 1910 1910">
  <path d="M1024 1152Q1051 1152 1074.0 1142.0Q1097 1132 1114.5 1114.5Q1132 1097 1142.0 1074.0Q1152 1051 1152 1024Q1152 997 1142.0 974.0Q1132 951 1114.5 933.5Q1097 916 1074.0 906.0Q1051 896 1024 896Q997 896 974.0 906.0Q951 916 933.5 933.5Q916 951 906.0 974.0Q896 997 896 1024Q896 1051 906.0 1074.0Q916 1097 933.5 1114.5Q951 1132 974.0 1142.0Q997 1152 1024 1152ZM1026 256Q1037 223 1051.0 191.5Q1065 160 1083 131Q1068 130 1053.5 129.0Q1039 128 1024 128Q900 128 786.0 160.0Q672 192 572.5 250.5Q473 309 391.0 391.0Q309 473 250.5 572.5Q192 672 160.0 786.5Q128 901 128 1024Q128 1147 160.0 1261.5Q192 1376 250.5 1475.5Q309 1575 391.0 1657.0Q473 1739 572.5 1797.5Q672 1856 786.5 1888.0Q901 1920 1024 1920Q1147 1920 1261.5 1888.0Q1376 1856 1475.5 1797.5Q1575 1739 1657.0 1657.0Q1739 1575 1797.5 1475.5Q1856 1376 1888.0 1261.5Q1920 1147 1920 1024Q1920 1009 1919.0 994.5Q1918 980 1917 965Q1888 983 1856.5 997.0Q1825 1011 1792 1022Q1792 1128 1764.5 1226.5Q1737 1325 1687.5 1410.5Q1638 1496 1568.0 1566.5Q1498 1637 1412.5 1687.0Q1327 1737 1228.5 1764.5Q1130 1792 1024 1792Q918 1792 820.0 1764.5Q722 1737 636.5 1687.0Q551 1637 481.0 1567.0Q411 1497 361.0 1411.5Q311 1326 283.5 1228.0Q256 1130 256 1024Q256 917 283.5 819.0Q311 721 361.0 635.5Q411 550 481.5 480.0Q552 410 637.5 360.5Q723 311 821.5 283.5Q920 256 1026 256ZM1534 1049Q1469 1041 1408 1022Q1408 1102 1378.0 1172.0Q1348 1242 1296.0 1294.5Q1244 1347 1174.0 1377.5Q1104 1408 1024 1408Q944 1408 874.5 1378.0Q805 1348 752.5 1295.5Q700 1243 670.0 1173.0Q640 1103 640 1024Q640 944 670.5 874.0Q701 804 753.5 752.0Q806 700 876.0 670.0Q946 640 1026 640Q1006 578 999 514Q897 519 808.0 561.0Q719 603 653.5 672.0Q588 741 550.0 831.5Q512 922 512 1024Q512 1130 552.5 1223.0Q593 1316 662.5 1385.5Q732 1455 825.0 1495.5Q918 1536 1024 1536Q1126 1536 1216.5 1498.0Q1307 1460 1376.0 1394.5Q1445 1329 1487.0 1240.0Q1529 1151 1534 1049ZM1914 509Q1920 479 1920 448Q1920 417 1914 387L2038 336L1989 217L1865 269Q1830 218 1779 183L1831 59L1712 10L1661 134Q1631 128 1600 128Q1569 128 1539 134L1488 10L1369 59L1421 183Q1370 218 1335 269L1211 217L1162 336L1286 387Q1280 417 1280 448Q1280 479 1286 509L1162 560L1211 679L1335 627Q1370 678 1421 713L1369 837L1488 886L1539 762Q1569 768 1600 768Q1631 768 1661 762L1712 886L1831 837L1779 713Q1830 678 1865 627L1989 679L2038 560ZM1792 448Q1792 488 1777.0 523.0Q1762 558 1736.0 584.0Q1710 610 1675.0 625.0Q1640 640 1600 640Q1560 640 1525.0 625.0Q1490 610 1464.0 584.0Q1438 558 1423.0 523.0Q1408 488 1408 448Q1408 408 1423.0 373.0Q1438 338 1464.0 312.0Q1490 286 1525.0 271.0Q1560 256 1600 256Q1640 256 1675.0 271.0Q1710 286 1736.0 312.0Q1762 338 1777.0 373.0Q1792 408 1792 448Z" transform="scale(1,-1)"/>
</svg>