<?xml version="1.0" encoding="UTF-8"?>
<svg xmlns="http://www.w3.org/2000/svg" viewBox="0 -1920 2048 1883">
  <path d="M566 1039Q566 1066 549.5 1084.5Q533 1103 507.5 1119.0Q482 1135 453.0 1150.5Q424 1166 398.5 1186.0Q373 1206 356.5 1234.0Q340 1262 340 1302Q340 1340 355.5 1368.5Q371 1397 396.5 1415.5Q422 1434 454.5 1443.0Q487 1452 522 1452Q551 1452 582.0 1447.5Q613 1443 639 1432V1338Q587 1376 523 1376Q507 1376 491.5 1372.5Q476 1369 463.5 1360.5Q451 1352 443.0 1339.0Q435 1326 435 1308Q435 1280 452.0 1261.0Q469 1242 494.0 1226.0Q519 1210 548.5 1195.0Q578 1180 603.0 1160.5Q628 1141 645.0 1114.0Q662 1087 662 1048Q662 1006 646.0 977.0Q630 948 603.0 930.0Q576 912 541.5 904.0Q507 896 470 896Q456 896 438.5 898.0Q421 900 403.5 904.0Q386 908 370.0 914.0Q354 920 342 928V1025Q354 1013 370.5 1003.5Q387 994 406.0 987.0Q425 980 444.0 976.0Q463 972 480 972Q514 972 540.0 986.5Q566 1001 566 1039ZM851 896H768V1434H896L1058 1030H1060L1228 1434H1350V896H1262V1321H1260L1087 896H1029L853 1318H851ZM1715 1039Q1715 1065 1698.5 1084.0Q1682 1103 1656.5 1119.0Q1631 1135 1602.0 1150.5Q1573 1166 1547.5 1186.5Q1522 1207 1505.5 1234.5Q1489 1262 1489 1302Q1489 1340 1504.5 1368.0Q1520 1396 1545.5 1415.0Q1571 1434 1604.0 1443.0Q1637 1452 1671 1452Q1700 1452 1731.0 1447.5Q1762 1443 1788 1432V1338Q1763 1358 1733.0 1367.0Q1703 1376 1672 1376Q1656 1376 1640.5 1372.5Q1625 1369 1612.5 1360.5Q1600 1352 1592.0 1339.0Q1584 1326 1584 1308Q1584 1281 1601.0 1261.5Q1618 1242 1643.0 1226.5Q1668 1211 1697.5 1195.5Q1727 1180 1752.0 1160.5Q1777 1141 1794.0 1114.0Q1811 1087 1811 1048Q1811 1006 1795.0 977.0Q1779 948 1752.0 930.0Q1725 912 1690.5 904.0Q1656 896 1619 896Q1605 896 1587.5 898.0Q1570 900 1552.5 904.5Q1535 909 1519.0 914.5Q1503 920 1491 928V1025Q1517 1001 1555.5 986.5Q1594 972 1629 972Q1663 972 1689.0 986.0Q1715 1000 1715 1039ZM2048 1920V512H731L256 37V512H0V1920ZM1920 1792H128V640H384V347L677 640H1920Z" transform="scale(1,-1)"/>
</svg>