<?xml version="1.0" encoding="UTF-8"?>
<svg xmlns="http://www.w3.org/2000/svg" viewBox="0 -2048 2048 2048">
  <path d="M1792 1280Q1844 1280 1891.0 1259.5Q1938 1239 1972.5 1204.5Q2007 1170 2027.5 1123.0Q2048 1076 2048 1024Q2048 971 2027.5 924.5Q2007 878 1972.5 843.5Q1938 809 1891.0 788.5Q1844 768 1792 768H1344L960 0H512L768 768H512L448 640H0L128 1024L0 1408H448L512 1280H768L512 2048H960L1344 1280ZM1792 896Q1819 896 1842.0 906.0Q1865 916 1882.5 933.5Q1900 951 1910.0 974.0Q1920 997 1920 1024Q1920 1051 1910.0 1074.0Q1900 1097 1882.5 1114.5Q1865 1132 1842.0 1142.0Q1819 1152 1792 1152H1265Q1166 1344 1072.0 1535.5Q978 1727 881 1920H690Q754 1727 817.0 1535.5Q880 1344 946 1152H433L369 1280H178Q199 1216 219.5 1152.0Q240 1088 263 1024Q240 960 219.5 896.0Q199 832 178 768H369L433 896H946Q880 704 817.0 512.5Q754 321 690 128H881Q978 321 1072.0 512.5Q1166 704 1265 896Z" transform="scale(1,-1)"/>
</svg>