<?xml version="1.0" encoding="UTF-8"?>
<svg xmlns="http://www.w3.org/2000/svg" viewBox="0 -2025 2004 2002">
  <path d="M2004 1023Q2004 981 2001.5 930.0Q1999 879 1993.5 826.5Q1988 774 1980.0 724.0Q1972 674 1960 634Q1955 616 1941.5 604.5Q1928 593 1908 593Q1899 593 1870.0 600.0Q1841 607 1807.0 616.5Q1773 626 1742.5 635.0Q1712 644 1699 647Q1678 569 1644.5 485.5Q1611 402 1568.0 322.5Q1525 243 1473.0 170.0Q1421 97 1364 40Q1355 32 1345.5 27.5Q1336 23 1324 23Q1302 23 1287 38L812 512H85Q50 512 25.0 537.0Q0 562 0 597V1451Q0 1486 25.0 1511.0Q50 1536 85 1536H812L1286 2010Q1301 2025 1323 2025Q1336 2025 1344.5 2021.0Q1353 2017 1362 2008Q1388 1982 1410.5 1954.5Q1433 1927 1454 1898Q1626 1670 1699 1397Q1717 1402 1747.5 1411.0Q1778 1420 1809.5 1429.0Q1841 1438 1868.5 1444.5Q1896 1451 1908 1451Q1928 1451 1941.5 1439.5Q1955 1428 1960 1410Q1972 1369 1980.5 1319.5Q1989 1270 1994.5 1218.5Q2000 1167 2002.0 1116.5Q2004 1066 2004 1023ZM784 1288Q784 1319 763.0 1340.0Q742 1361 711 1361Q691 1361 673.5 1350.5Q656 1340 646 1322L516 1077L390 1322Q378 1345 357.5 1353.0Q337 1361 313 1361Q282 1361 261.0 1340.0Q240 1319 240 1288Q240 1268 249 1252L426 937Q428 933 429.5 927.0Q431 921 431 916V760Q431 722 456.5 704.5Q482 687 516 687Q540 687 554.5 696.0Q569 705 577.0 720.0Q585 735 588.0 754.5Q591 774 591 796Q591 822 589.0 848.0Q587 874 587 896Q587 910 588.0 920.5Q589 931 594 939L774 1252Q784 1270 784 1288ZM1320 1863 982 1524Q1001 1513 1012.5 1493.5Q1024 1474 1024 1451V1217L1575 1364Q1537 1506 1474.0 1627.0Q1411 1748 1320 1863ZM1576 681 1024 829V597Q1024 574 1012.5 554.5Q1001 535 982 524L1321 185Q1410 294 1475.0 419.0Q1540 544 1576 680ZM1851 739Q1864 810 1870.0 880.5Q1876 951 1876 1023Q1876 1095 1870.0 1165.5Q1864 1236 1851 1306Q1643 1250 1437.5 1195.5Q1232 1141 1024 1085Q1023 1069 1023.0 1054.0Q1023 1039 1023 1023Q1023 1007 1023.0 991.5Q1023 976 1024 961Q1232 905 1437.5 851.0Q1643 797 1851 739Z" transform="scale(1,-1)"/>
</svg>