<?xml version="1.0" encoding="UTF-8"?>
<svg xmlns="http://www.w3.org/2000/svg" viewBox="0 -2048 2048 2048">
  <path d="M1347 128 1468 8Q1436 0 1408 0H256Q203 0 156.5 20.0Q110 40 75.0 75.0Q40 110 20.0 156.5Q0 203 0 256Q0 309 20.0 355.5Q40 402 75.0 437.0Q110 472 156.5 492.0Q203 512 256 512V1792Q256 1845 276.0 1891.5Q296 1938 331.0 1973.0Q366 2008 412.5 2028.0Q459 2048 512 2048H1792Q1845 2048 1891.5 2028.0Q1938 2008 1973.0 1973.0Q2008 1938 2028.0 1891.5Q2048 1845 2048 1792Q2048 1739 2028.0 1692.5Q2008 1646 1973.0 1611.0Q1938 1576 1891.5 1556.0Q1845 1536 1792 1536H1664V1151Q1604 1173 1536 1179V1792Q1536 1860 1570 1920H512Q485 1920 462.0 1910.0Q439 1900 421.5 1882.5Q404 1865 394.0 1842.0Q384 1819 384 1792V512H1025Q1040 476 1057.5 445.5Q1075 415 1099 384H256Q229 384 206.0 374.0Q183 364 165.5 346.5Q148 329 138.0 306.0Q128 283 128 256Q128 229 138.0 206.0Q148 183 165.5 165.5Q183 148 206.0 138.0Q229 128 256 128ZM1664 1792V1664H1792Q1819 1664 1842.0 1674.0Q1865 1684 1882.5 1701.5Q1900 1719 1910.0 1742.0Q1920 1765 1920 1792Q1920 1819 1910.0 1842.0Q1900 1865 1882.5 1882.5Q1865 1900 1842.0 1910.0Q1819 1920 1792 1920Q1765 1920 1742.0 1910.0Q1719 1900 1701.5 1882.5Q1684 1865 1674.0 1842.0Q1664 1819 1664 1792ZM1920 731V896H2048V512H1664V640H1829L1634 835Q1605 864 1567.0 880.0Q1529 896 1487 896Q1444 896 1406.5 879.5Q1369 863 1341.0 834.5Q1313 806 1296.5 768.5Q1280 731 1280 688Q1280 646 1296.0 608.5Q1312 571 1341 542L1773 109L1683 19L1250 451Q1202 499 1177.0 560.0Q1152 621 1152 688Q1152 757 1178.5 818.0Q1205 879 1250.5 925.0Q1296 971 1357.0 997.5Q1418 1024 1487 1024Q1554 1024 1615.5 999.0Q1677 974 1725 926Z" transform="scale(1,-1)"/>
</svg>