<?xml version="1.0" encoding="UTF-8"?>
<svg xmlns="http://www.w3.org/2000/svg" viewBox="128 -2048 1920 2048">
  <path d="M1024 384V256H896V384ZM960 1345Q1026 1345 1084.0 1319.5Q1142 1294 1185.5 1250.5Q1229 1207 1254.5 1149.0Q1280 1091 1280 1025Q1280 965 1261.0 920.0Q1242 875 1213.5 839.5Q1185 804 1152.0 774.5Q1119 745 1090.5 715.0Q1062 685 1043.0 652.0Q1024 619 1024 577V513H896V577Q896 637 915.0 681.5Q934 726 962.5 761.5Q991 797 1024.0 827.0Q1057 857 1085.5 886.5Q1114 916 1133.0 949.0Q1152 982 1152 1025Q1152 1064 1137.0 1099.0Q1122 1134 1095.5 1160.5Q1069 1187 1034.0 1202.0Q999 1217 960 1217Q921 1217 886.0 1202.0Q851 1187 824.5 1160.5Q798 1134 783.0 1099.0Q768 1064 768 1025H640Q640 1091 665.0 1149.0Q690 1207 733.5 1250.5Q777 1294 835.5 1319.5Q894 1345 960 1345ZM256 128H1136Q1120 67 1120 0H128V2048H1243L1792 1499V908Q1729 928 1664 928V1408H1152V1920H256ZM1280 1536H1573L1280 1829ZM1848 335Q1894 310 1931.0 274.0Q1968 238 1994.0 194.5Q2020 151 2034.0 101.5Q2048 52 2048 0H1920Q1920 53 1900.0 99.5Q1880 146 1845.0 181.0Q1810 216 1763.5 236.0Q1717 256 1664 256Q1611 256 1564.5 236.0Q1518 216 1483.0 181.0Q1448 146 1428.0 99.5Q1408 53 1408 0H1280Q1280 52 1294.0 101.5Q1308 151 1334.0 194.5Q1360 238 1397.0 274.0Q1434 310 1480 335Q1446 370 1427.0 416.0Q1408 462 1408 512Q1408 565 1428.0 611.5Q1448 658 1483.0 693.0Q1518 728 1564.5 748.0Q1611 768 1664 768Q1717 768 1763.5 748.0Q1810 728 1845.0 693.0Q1880 658 1900.0 611.5Q1920 565 1920 512Q1920 462 1901.0 416.0Q1882 370 1848 335ZM1664 384Q1691 384 1714.0 394.0Q1737 404 1754.5 421.5Q1772 439 1782.0 462.0Q1792 485 1792 512Q1792 539 1782.0 562.0Q1772 585 1754.5 602.5Q1737 620 1714.0 630.0Q1691 640 1664 640Q1637 640 1614.0 630.0Q1591 620 1573.5 602.5Q1556 585 1546.0 562.0Q1536 539 1536 512Q1536 485 1546.0 462.0Q1556 439 1573.5 421.5Q1591 404 1614.0 394.0Q1637 384 1664 384Z" transform="scale(1,-1)"/>
</svg>