<?xml version="1.0" encoding="UTF-8"?>
<svg xmlns="http://www.w3.org/2000/svg" viewBox="0 -1920 2048 1792">
  <path d="M1907 1920Q1936 1920 1961.5 1909.0Q1987 1898 2006.5 1878.5Q2026 1859 2037.0 1833.5Q2048 1808 2048 1779V1293Q2048 1272 2042.0 1246.0Q2036 1220 2022 1203L1702 832L1139 179Q1118 155 1087.0 141.5Q1056 128 1024 128Q988 128 966.0 147.5Q944 167 922 192L38 1203Q18 1225 9.0 1244.0Q0 1263 0 1293V1779Q0 1808 11.0 1833.5Q22 1859 41.5 1878.5Q61 1898 86.5 1909.0Q112 1920 141 1920H640Q677 1920 703.5 1908.0Q730 1896 755 1869L1024 1574L1306 1869Q1319 1882 1329.0 1892.0Q1339 1902 1349.5 1908.0Q1360 1914 1374.0 1917.0Q1388 1920 1408 1920ZM128 1293 448 922 934 1485 653 1792H141L128 1779ZM1037 269 1523 832 1024 1382 525 832 998 282Q1001 278 1004.5 275.0Q1008 272 1011 269ZM1920 1280V1779Q1915 1784 1908.5 1788.0Q1902 1792 1894 1792H1382L1113 1472L1613 922Z" transform="scale(1,-1)"/>
</svg>