<?xml version="1.0" encoding="UTF-8"?>
<svg xmlns="http://www.w3.org/2000/svg" viewBox="128 -1984 1664 1976">
  <path d="M768 1024H640V1152H768ZM1280 1024H1152V1152H1280ZM1792 1152V896H1664V576Q1664 536 1649.0 501.0Q1634 466 1608.0 440.0Q1582 414 1547.0 399.0Q1512 384 1472 384H1208L768 8V384H448Q408 384 373.0 399.0Q338 414 312.0 440.0Q286 466 271.0 501.0Q256 536 256 576V896H128V1152H256V1344Q256 1384 271.0 1419.0Q286 1454 312.0 1480.0Q338 1506 373.0 1521.0Q408 1536 448 1536H896V1745Q867 1762 849.5 1792.0Q832 1822 832 1856Q832 1883 842.0 1906.0Q852 1929 869.5 1946.5Q887 1964 910.0 1974.0Q933 1984 960 1984Q987 1984 1010.0 1974.0Q1033 1964 1050.5 1946.5Q1068 1929 1078.0 1906.0Q1088 1883 1088 1856Q1088 1822 1070.5 1792.0Q1053 1762 1024 1745V1536H1472Q1512 1536 1547.0 1521.0Q1582 1506 1608.0 1480.0Q1634 1454 1649.0 1419.0Q1664 1384 1664 1344V1152ZM1536 1344Q1536 1370 1517.0 1389.0Q1498 1408 1472 1408H448Q422 1408 403.0 1389.0Q384 1370 384 1344V576Q384 550 403.0 531.0Q422 512 448 512H896V286L1160 512H1472Q1498 512 1517.0 531.0Q1536 550 1536 576ZM685 882Q740 827 811.0 797.5Q882 768 960 768Q1038 768 1109.0 797.5Q1180 827 1235 882L1325 791Q1252 718 1157.5 679.0Q1063 640 960 640Q857 640 762.5 679.0Q668 718 595 791Z" transform="scale(1,-1)"/>
</svg>