<?xml version="1.0" encoding="UTF-8"?>
<svg xmlns="http://www.w3.org/2000/svg" viewBox="0 -1536 2048 1024">
  <path d="M1024 1536Q1174 1536 1316.0 1497.0Q1458 1458 1588.5 1389.5Q1719 1321 1834.5 1227.0Q1950 1133 2048 1024Q1950 914 1834.5 820.5Q1719 727 1588.5 658.5Q1458 590 1316.0 551.0Q1174 512 1024 512Q874 512 732.0 551.0Q590 590 459.5 658.5Q329 727 213.0 820.5Q97 914 0 1024Q97 1133 213.0 1227.0Q329 1321 459.5 1389.5Q590 1458 732.0 1497.0Q874 1536 1024 1536ZM1408 1024Q1408 1103 1377.5 1173.0Q1347 1243 1295.0 1295.0Q1243 1347 1173.0 1377.5Q1103 1408 1024 1408Q945 1408 875.0 1377.5Q805 1347 753.0 1295.0Q701 1243 670.5 1173.0Q640 1103 640 1024Q640 945 670.5 875.0Q701 805 753.0 753.0Q805 701 875.0 670.5Q945 640 1024 640Q1103 640 1173.0 670.5Q1243 701 1295.0 753.0Q1347 805 1377.5 875.0Q1408 945 1408 1024ZM177 1024Q271 933 377.0 857.5Q483 782 604 731Q559 795 535.5 870.5Q512 946 512 1024Q512 1102 535.5 1177.5Q559 1253 604 1317Q483 1266 377.0 1190.5Q271 1115 177 1024ZM1444 731Q1565 782 1671.0 857.5Q1777 933 1871 1024Q1777 1115 1671.0 1190.5Q1565 1266 1444 1317Q1489 1253 1512.5 1177.5Q1536 1102 1536 1024Q1536 946 1512.5 870.5Q1489 795 1444 731ZM1024 896Q997 896 974.0 906.0Q951 916 933.5 933.5Q916 951 906.0 974.0Q896 997 896 1024Q896 1051 906.0 1074.0Q916 1097 933.5 1114.5Q951 1132 974.0 1142.0Q997 1152 1024 1152Q1051 1152 1074.0 1142.0Q1097 1132 1114.5 1114.5Q1132 1097 1142.0 1074.0Q1152 1051 1152 1024Q1152 997 1142.0 974.0Q1132 951 1114.5 933.5Q1097 916 1074.0 906.0Q1051 896 1024 896Z" transform="scale(1,-1)"/>
</svg>