<?xml version="1.0" encoding="UTF-8"?>
<svg xmlns="http://www.w3.org/2000/svg" viewBox="256 -2048 1792 2048">
  <path d="M640 1152H768V1024H640ZM640 896H768V768H640ZM640 640H768V512H640ZM640 384H768V256H640ZM768 1152V1280H896V1152ZM768 896V1024H896V896ZM768 640V768H896V640ZM768 384V512H896V384ZM896 128H1169Q1152 63 1152 0H256V2048H1792Q1819 2048 1842.0 2038.0Q1865 2028 1882.5 2010.5Q1900 1993 1910.0 1970.0Q1920 1947 1920 1920V1440Q1920 1395 1910.5 1362.5Q1901 1330 1887.0 1304.5Q1873 1279 1856.0 1259.0Q1839 1239 1825.0 1218.5Q1811 1198 1801.5 1174.5Q1792 1151 1792 1120V874Q1728 896 1664 896V1120Q1664 1151 1654.5 1174.5Q1645 1198 1631.0 1218.5Q1617 1239 1600.0 1259.0Q1583 1279 1569.0 1304.5Q1555 1330 1545.5 1362.5Q1536 1395 1536 1440V1920H1024V1408H768V1280H640V1408H512V1920H384V128H768V256H896ZM1792 1920H1664V1440Q1664 1416 1668.5 1398.0Q1673 1380 1681.5 1365.0Q1690 1350 1701.5 1335.5Q1713 1321 1728 1304Q1743 1321 1754.5 1335.5Q1766 1350 1774.5 1365.0Q1783 1380 1787.5 1398.0Q1792 1416 1792 1440ZM640 1920V1536H896V1920ZM1848 335Q1894 310 1931.0 274.0Q1968 238 1994.0 194.5Q2020 151 2034.0 101.5Q2048 52 2048 0H1920Q1920 53 1900.0 99.5Q1880 146 1845.0 181.0Q1810 216 1763.5 236.0Q1717 256 1664 256Q1611 256 1564.5 236.0Q1518 216 1483.0 181.0Q1448 146 1428.0 99.5Q1408 53 1408 0H1280Q1280 52 1294.0 101.5Q1308 151 1334.0 194.5Q1360 238 1397.0 274.0Q1434 310 1480 335Q1446 370 1427.0 416.0Q1408 462 1408 512Q1408 565 1428.0 611.5Q1448 658 1483.0 693.0Q1518 728 1564.5 748.0Q1611 768 1664 768Q1717 768 1763.5 748.0Q1810 728 1845.0 693.0Q1880 658 1900.0 611.5Q1920 565 1920 512Q1920 462 1901.0 416.0Q1882 370 1848 335ZM1664 384Q1691 384 1714.0 394.0Q1737 404 1754.5 421.5Q1772 439 1782.0 462.0Q1792 485 1792 512Q1792 539 1782.0 562.0Q1772 585 1754.5 602.5Q1737 620 1714.0 630.0Q1691 640 1664 640Q1637 640 1614.0 630.0Q1591 620 1573.5 602.5Q1556 585 1546.0 562.0Q1536 539 1536 512Q1536 485 1546.0 462.0Q1556 439 1573.5 421.5Q1591 404 1614.0 394.0Q1637 384 1664 384Z" transform="scale(1,-1)"/>
</svg>