<?xml version="1.0" encoding="UTF-8"?>
<svg xmlns="http://www.w3.org/2000/svg" viewBox="0 -2048 1920 2048">
  <path d="M1771 2048Q1802 2048 1829.0 2036.0Q1856 2024 1876.0 2004.0Q1896 1984 1908.0 1957.0Q1920 1930 1920 1899V149Q1920 118 1908.0 91.0Q1896 64 1876.0 43.5Q1856 23 1829.0 11.5Q1802 0 1771 0H149Q118 0 91.0 11.5Q64 23 43.5 43.5Q23 64 11.5 91.0Q0 118 0 149V875Q0 906 11.5 933.0Q23 960 43.5 980.0Q64 1000 91.0 1012.0Q118 1024 149 1024H512V1387Q512 1418 523.5 1445.0Q535 1472 555.5 1492.0Q576 1512 603.0 1524.0Q630 1536 661 1536H1024V1899Q1024 1930 1035.5 1957.0Q1047 1984 1067.5 2004.0Q1088 2024 1115.0 2036.0Q1142 2048 1173 2048ZM768 128V874Q768 883 761.5 889.5Q755 896 746 896H149Q141 896 134.5 889.5Q128 883 128 875V149Q128 141 134.5 134.5Q141 128 149 128ZM1280 128V1387Q1280 1395 1273.5 1401.5Q1267 1408 1259 1408H661Q653 1408 646.5 1401.5Q640 1395 640 1387V1024H746Q777 1024 804.5 1012.0Q832 1000 852.0 980.0Q872 960 884.0 932.5Q896 905 896 874V128ZM1792 149V1899Q1792 1907 1785.5 1913.5Q1779 1920 1771 1920H1173Q1165 1920 1158.5 1913.5Q1152 1907 1152 1899V1536H1259Q1290 1536 1317.0 1524.0Q1344 1512 1364.0 1492.0Q1384 1472 1396.0 1445.0Q1408 1418 1408 1387V128H1771Q1779 128 1785.5 134.5Q1792 141 1792 149Z" transform="scale(1,-1)"/>
</svg>