<?xml version="1.0" encoding="UTF-8"?>
<svg xmlns="http://www.w3.org/2000/svg" viewBox="128 -1920 1849 1920">
  <path d="M1152 1408H512V1536H1152ZM256 384H937L873 256H128V1920H1536V1280H1408V1792H256ZM512 768H1129L1065 640H512ZM1024 1152V1024H512V1152ZM1963 185Q1977 157 1977 128Q1977 102 1967.0 78.5Q1957 55 1939.5 37.5Q1922 20 1898.5 10.0Q1875 0 1849 0H1095Q1069 0 1045.5 10.0Q1022 20 1004.5 37.5Q987 55 977.0 78.5Q967 102 967 128Q967 157 981 185L1280 783V1024H1152V1152H1792V1024H1664V783ZM1721 384 1536 753V1024H1408V753L1223 384Z" transform="scale(1,-1)"/>
</svg>