<?xml version="1.0" encoding="UTF-8"?>
<svg xmlns="http://www.w3.org/2000/svg" viewBox="0 -1536 2048 1149">
  <path d="M1600 1536Q1693 1536 1774.5 1501.0Q1856 1466 1917.0 1405.0Q1978 1344 2013.0 1262.5Q2048 1181 2048 1088Q2048 995 2013.0 913.5Q1978 832 1917.0 771.0Q1856 710 1774.5 675.0Q1693 640 1600 640V768Q1666 768 1724.0 793.0Q1782 818 1825.5 861.5Q1869 905 1894.5 963.5Q1920 1022 1920 1088Q1920 1154 1894.5 1212.0Q1869 1270 1825.5 1313.5Q1782 1357 1724.0 1382.5Q1666 1408 1600 1408H448Q382 1408 323.5 1382.5Q265 1357 221.5 1313.5Q178 1270 153.0 1212.0Q128 1154 128 1088Q128 1022 153.0 963.5Q178 905 221.5 861.5Q265 818 323.5 793.0Q382 768 448 768H902L739 931L829 1021L1146 704L829 387L739 477L902 640H416V641Q328 647 252.0 684.5Q176 722 120.0 782.0Q64 842 32.0 920.5Q0 999 0 1088Q0 1181 35.0 1262.5Q70 1344 131.0 1405.0Q192 1466 273.5 1501.0Q355 1536 448 1536H1600Z" transform="scale(1,-1)"/>
</svg>