<?xml version="1.0" encoding="UTF-8"?>
<svg xmlns="http://www.w3.org/2000/svg" viewBox="0 -2048 2048 1792">
  <path d="M1856 1408Q1895 1408 1930.0 1393.0Q1965 1378 1991.5 1352.0Q2018 1326 2033.0 1291.0Q2048 1256 2048 1216Q2048 1184 2038 1155L1782 387Q1772 358 1754.0 333.5Q1736 309 1712.0 292.0Q1688 275 1659.5 265.5Q1631 256 1600 256H1088Q909 256 743 325Q671 354 598.5 369.0Q526 384 448 384H0V1280H417Q482 1280 539.5 1304.0Q597 1328 643 1374L1265 1995Q1290 2020 1315.0 2034.0Q1340 2048 1376 2048Q1409 2048 1438.0 2035.5Q1467 2023 1489.0 2001.0Q1511 1979 1523.5 1950.0Q1536 1921 1536 1888Q1536 1807 1518.0 1733.5Q1500 1660 1465 1588Q1445 1545 1431.0 1500.5Q1417 1456 1412 1408Z" transform="scale(1,-1)"/>
</svg>