<?xml version="1.0" encoding="UTF-8"?>
<svg xmlns="http://www.w3.org/2000/svg" viewBox="0 -2048 2038 2048">
  <path d="M1920 448Q1920 417 1914 387L2038 336L1989 217L1865 269Q1830 218 1779 183L1831 59L1712 10L1661 134Q1631 128 1600 128Q1569 128 1539 134L1488 10L1369 59L1421 183Q1370 218 1335 269L1211 217L1162 336L1286 387Q1280 417 1280 448Q1280 479 1286 509L1162 560L1211 679L1335 627Q1370 678 1421 713L1369 837L1488 886L1539 762Q1569 768 1600 768Q1631 768 1661 762L1712 886L1831 837L1779 713Q1830 678 1865 627L1989 679L2038 560L1914 509Q1920 479 1920 448ZM1792 448Q1792 488 1777.0 523.0Q1762 558 1736.0 584.0Q1710 610 1675.0 625.0Q1640 640 1600 640Q1560 640 1525.0 625.0Q1490 610 1464.0 584.0Q1438 558 1423.0 523.0Q1408 488 1408 448Q1408 408 1423.0 373.0Q1438 338 1464.0 312.0Q1490 286 1525.0 271.0Q1560 256 1600 256Q1640 256 1675.0 271.0Q1710 286 1736.0 312.0Q1762 338 1777.0 373.0Q1792 408 1792 448ZM960 768Q893 768 835.0 793.0Q777 818 733.5 861.5Q690 905 665.0 963.0Q640 1021 640 1088Q640 1154 665.0 1212.5Q690 1271 733.5 1314.5Q777 1358 835.5 1383.0Q894 1408 960 1408Q1026 1408 1084.0 1382.5Q1142 1357 1185.5 1313.5Q1229 1270 1254.5 1212.0Q1280 1154 1280 1088Q1280 1022 1255.0 963.5Q1230 905 1186.5 861.5Q1143 818 1084.5 793.0Q1026 768 960 768ZM960 896Q1000 896 1035.0 911.0Q1070 926 1096.0 952.0Q1122 978 1137.0 1013.0Q1152 1048 1152 1088Q1152 1128 1137.0 1163.0Q1122 1198 1096.0 1224.0Q1070 1250 1035.0 1265.0Q1000 1280 960 1280Q920 1280 885.0 1265.0Q850 1250 824.0 1224.0Q798 1198 783.0 1163.0Q768 1128 768 1088Q768 1048 783.0 1013.0Q798 978 824.0 952.0Q850 926 885.0 911.0Q920 896 960 896ZM704 768H1121Q1101 738 1086.0 706.0Q1071 674 1059 640H704Q678 640 659.0 621.0Q640 602 640 576V0H512V313L301 418Q277 401 249.0 392.5Q221 384 192 384Q152 384 117.0 399.0Q82 414 56.0 440.0Q30 466 15.0 501.0Q0 536 0 576Q0 606 9.5 634.0Q19 662 36.0 685.5Q53 709 76.5 727.0Q100 745 128 756V1292Q70 1313 35.0 1361.0Q0 1409 0 1472Q0 1512 15.0 1547.0Q30 1582 56.0 1608.0Q82 1634 117.0 1649.0Q152 1664 192 1664Q221 1664 249.0 1655.5Q277 1647 301 1630L769 1864Q770 1902 786.0 1935.5Q802 1969 828.0 1994.0Q854 2019 888.0 2033.5Q922 2048 960 2048Q998 2048 1032.0 2033.5Q1066 2019 1092.0 1994.0Q1118 1969 1133.5 1935.5Q1149 1902 1151 1864L1619 1630Q1643 1647 1671.0 1655.5Q1699 1664 1728 1664Q1768 1664 1803.0 1649.0Q1838 1634 1864.0 1608.0Q1890 1582 1905.0 1547.0Q1920 1512 1920 1472Q1920 1442 1910.5 1414.0Q1901 1386 1884.0 1362.5Q1867 1339 1843.5 1320.5Q1820 1302 1792 1292V989Q1729 1011 1664 1018V1292Q1606 1313 1571.0 1361.0Q1536 1409 1536 1472Q1536 1497 1544 1524L1112 1740Q1084 1704 1045.0 1684.0Q1006 1664 960 1664Q914 1664 875.0 1684.0Q836 1704 808 1740L376 1524Q384 1497 384 1472Q384 1442 374.5 1414.0Q365 1386 348.0 1362.5Q331 1339 307.5 1320.5Q284 1302 256 1292V756Q313 735 348.5 686.5Q384 638 384 576Q384 551 376 524L512 455V576Q512 616 527.0 651.0Q542 686 568.0 712.0Q594 738 629.0 753.0Q664 768 704 768ZM1664 1472Q1664 1446 1683.0 1427.0Q1702 1408 1728 1408Q1754 1408 1773.0 1427.0Q1792 1446 1792 1472Q1792 1498 1773.0 1517.0Q1754 1536 1728 1536Q1702 1536 1683.0 1517.0Q1664 1498 1664 1472ZM896 1856Q896 1830 915.0 1811.0Q934 1792 960 1792Q986 1792 1005.0 1811.0Q1024 1830 1024 1856Q1024 1882 1005.0 1901.0Q986 1920 960 1920Q934 1920 915.0 1901.0Q896 1882 896 1856ZM128 1472Q128 1446 147.0 1427.0Q166 1408 192 1408Q218 1408 237.0 1427.0Q256 1446 256 1472Q256 1498 237.0 1517.0Q218 1536 192 1536Q166 1536 147.0 1517.0Q128 1498 128 1472ZM256 576Q256 602 237.0 621.0Q218 640 192 640Q166 640 147.0 621.0Q128 602 128 576Q128 550 147.0 531.0Q166 512 192 512Q218 512 237.0 531.0Q256 550 256 576Z" transform="scale(1,-1)"/>
</svg>