<?xml version="1.0" encoding="UTF-8"?>
<svg xmlns="http://www.w3.org/2000/svg" viewBox="128 -1920 1924 1922">
  <path d="M1468 909Q1416 866 1379 813Q1296 855 1205.5 875.5Q1115 896 1022 896Q914 896 815.5 869.0Q717 842 632.0 792.5Q547 743 477.5 673.5Q408 604 359.0 518.5Q310 433 283.0 334.0Q256 235 256 128H128Q128 274 171.5 409.0Q215 544 295.0 656.0Q375 768 488.5 852.0Q602 936 742 981Q688 1017 645.5 1064.0Q603 1111 573.5 1166.0Q544 1221 528.0 1282.0Q512 1343 512 1408Q512 1514 552.5 1607.0Q593 1700 662.5 1769.5Q732 1839 825.0 1879.5Q918 1920 1024 1920Q1130 1920 1223.0 1879.5Q1316 1839 1385.5 1769.5Q1455 1700 1495.5 1607.0Q1536 1514 1536 1408Q1536 1343 1520.0 1281.5Q1504 1220 1474.5 1165.0Q1445 1110 1402.0 1063.0Q1359 1016 1305 980Q1348 966 1388.5 948.5Q1429 931 1468 909ZM640 1408Q640 1328 670.0 1258.5Q700 1189 752.5 1136.5Q805 1084 874.5 1054.0Q944 1024 1024 1024Q1103 1024 1173.0 1054.0Q1243 1084 1295.5 1136.5Q1348 1189 1378.0 1258.5Q1408 1328 1408 1408Q1408 1487 1378.0 1557.0Q1348 1627 1295.5 1679.5Q1243 1732 1173.0 1762.0Q1103 1792 1024 1792Q944 1792 874.5 1762.0Q805 1732 752.5 1679.5Q700 1627 670.0 1557.0Q640 1487 640 1408ZM1730 897Q1796 897 1855.0 871.5Q1914 846 1957.5 802.5Q2001 759 2026.5 700.5Q2052 642 2052 576Q2052 510 2026.5 451.5Q2001 393 1957.5 349.5Q1914 306 1855.0 280.5Q1796 255 1730 255Q1633 255 1553 309L1261 17Q1242 -2 1216 -2Q1190 -2 1171.0 17.0Q1152 36 1152 62Q1152 88 1171 107L1463 399Q1409 479 1409 576Q1409 642 1434.5 700.5Q1460 759 1503.5 802.5Q1547 846 1605.5 871.5Q1664 897 1730 897ZM1730 383Q1770 383 1805.0 398.0Q1840 413 1866.5 439.5Q1893 466 1908.5 501.0Q1924 536 1924 576Q1924 616 1908.5 651.0Q1893 686 1867.0 712.5Q1841 739 1805.5 754.0Q1770 769 1730 769Q1690 769 1655.0 753.5Q1620 738 1593.5 712.0Q1567 686 1552.0 651.0Q1537 616 1537 576Q1537 536 1552.0 501.0Q1567 466 1593.5 439.5Q1620 413 1655.0 398.0Q1690 383 1730 383Z" transform="scale(1,-1)"/>
</svg>