<?xml version="1.0" encoding="UTF-8"?>
<svg xmlns="http://www.w3.org/2000/svg" viewBox="256 -1920 1536 1792">
  <path d="M1792 512V384H1280Q1280 331 1260.0 284.5Q1240 238 1205.0 203.0Q1170 168 1123.5 148.0Q1077 128 1024 128Q971 128 924.5 148.0Q878 168 843.0 203.0Q808 238 788.0 284.5Q768 331 768 384H256V512H384V1280Q384 1368 407.0 1450.0Q430 1532 471.5 1603.0Q513 1674 571.5 1732.5Q630 1791 701.0 1832.5Q772 1874 854.0 1897.0Q936 1920 1024 1920Q1112 1920 1194.0 1897.0Q1276 1874 1347.0 1832.5Q1418 1791 1476.5 1732.5Q1535 1674 1576.5 1603.0Q1618 1532 1641.0 1450.0Q1664 1368 1664 1280V512ZM1536 512V1280Q1536 1386 1495.5 1479.0Q1455 1572 1385.5 1641.5Q1316 1711 1223.0 1751.5Q1130 1792 1024 1792Q918 1792 825.0 1751.5Q732 1711 662.5 1641.5Q593 1572 552.5 1479.0Q512 1386 512 1280V512ZM1024 256Q1051 256 1074.0 266.0Q1097 276 1114.5 293.5Q1132 311 1142.0 334.0Q1152 357 1152 384H896Q896 357 906.0 334.0Q916 311 933.5 293.5Q951 276 974.0 266.0Q997 256 1024 256Z" transform="scale(1,-1)"/>
</svg>