<?xml version="1.0" encoding="UTF-8"?>
<svg xmlns="http://www.w3.org/2000/svg" viewBox="128 -2048 1920 2048">
  <path d="M549 1024 805 1280H896V384H805L549 640H384V1024ZM603 896H512V768H603L768 603V1061ZM949 651Q985 687 1004.5 734.0Q1024 781 1024 832Q1024 883 1004.5 930.0Q985 977 949 1013L1040 1103Q1094 1049 1123.0 978.5Q1152 908 1152 832Q1152 756 1123.0 685.5Q1094 615 1040 561ZM256 128H1376V0H128V2048H1243L1792 1499V580L1664 705V1408H1152V1920H256ZM1280 1536H1573L1280 1829ZM1220 1285Q1311 1194 1359.5 1077.0Q1408 960 1408 832Q1408 806 1406.0 780.5Q1404 755 1400 729L1136 464L1130 470Q1203 543 1241.5 636.0Q1280 729 1280 832Q1280 935 1241.5 1028.0Q1203 1121 1130 1194ZM2048 512V0H1536V128H1829L1427 531L1517 621L1920 219V512Z" transform="scale(1,-1)"/>
</svg>