<?xml version="1.0" encoding="UTF-8"?>
<svg xmlns="http://www.w3.org/2000/svg" viewBox="0 -2048 2048 2048">
  <path d="M1664 1152Q1743 1152 1813.0 1121.5Q1883 1091 1935.0 1039.0Q1987 987 2017.5 917.0Q2048 847 2048 768Q2048 689 2017.5 619.0Q1987 549 1935.0 497.0Q1883 445 1813.0 414.5Q1743 384 1664 384Q1604 384 1547.0 402.0Q1490 420 1442 455Q1426 439 1388.5 399.5Q1351 360 1302.0 309.5Q1253 259 1198.5 204.5Q1144 150 1096.0 104.5Q1048 59 1011.0 29.5Q974 0 960 0Q934 0 915.0 19.0Q896 38 896 64Q896 78 925.5 115.0Q955 152 1000.5 200.0Q1046 248 1100.5 302.5Q1155 357 1205.5 406.0Q1256 455 1295.5 492.5Q1335 530 1351 546Q1316 594 1298.0 651.0Q1280 708 1280 768Q1280 847 1310.5 917.0Q1341 987 1393.0 1039.0Q1445 1091 1515.0 1121.5Q1585 1152 1664 1152ZM1664 512Q1716 512 1763.0 532.5Q1810 553 1844.5 587.5Q1879 622 1899.5 668.5Q1920 715 1920 768Q1920 820 1899.5 867.0Q1879 914 1844.5 948.5Q1810 983 1763.0 1003.5Q1716 1024 1664 1024Q1611 1024 1564.5 1003.5Q1518 983 1483.5 948.5Q1449 914 1428.5 867.0Q1408 820 1408 768Q1408 715 1428.5 668.5Q1449 622 1483.5 587.5Q1518 553 1564.5 532.5Q1611 512 1664 512ZM256 640V896H0V2048H1536V1792H1792V1262Q1760 1270 1728.0 1275.0Q1696 1280 1664 1280V1664H384V768H1152Q1152 736 1157.0 704.0Q1162 672 1170 640ZM256 1024V1792H1408V1920H128V1024Z" transform="scale(1,-1)"/>
</svg>