<?xml version="1.0" encoding="UTF-8"?>
<svg xmlns="http://www.w3.org/2000/svg" viewBox="128 -2048 1920 2048">
  <path d="M1536 1152H640V1280H1536ZM1024 1536V1408H640V1536ZM512 896H384V1024H512ZM512 1408H384V1536H512ZM512 1152H384V1280H512ZM384 768H512V640H384ZM1728 896Q1794 896 1852.0 870.5Q1910 845 1953.5 801.5Q1997 758 2022.5 700.0Q2048 642 2048 576Q2048 510 2022.5 451.5Q1997 393 1953.5 349.5Q1910 306 1852.0 281.0Q1794 256 1728 256Q1681 256 1636.0 269.5Q1591 283 1552 309L1261 19Q1242 0 1216 0Q1190 0 1171.0 19.0Q1152 38 1152 64Q1152 90 1171 109L1461 400Q1435 439 1421.5 484.0Q1408 529 1408 576Q1408 642 1433.0 700.0Q1458 758 1501.5 801.5Q1545 845 1603.5 870.5Q1662 896 1728 896ZM1728 384Q1768 384 1803.0 399.0Q1838 414 1864.0 440.0Q1890 466 1905.0 501.0Q1920 536 1920 576Q1920 616 1905.0 651.0Q1890 686 1864.0 712.0Q1838 738 1803.0 753.0Q1768 768 1728 768Q1688 768 1653.0 753.0Q1618 738 1592.0 712.0Q1566 686 1551.0 651.0Q1536 616 1536 576Q1536 536 1551.0 501.0Q1566 466 1592.0 440.0Q1618 414 1653.0 399.0Q1688 384 1728 384ZM640 768H1288Q1262 705 1253 640H640ZM1536 1016Q1441 974 1371 896H640V1024H1536ZM256 128H1024V0H128V2048H1243L1792 1499V1024H1664V1408H1152V1920H256ZM1280 1536H1573L1280 1829Z" transform="scale(1,-1)"/>
</svg>