<?xml version="1.0" encoding="UTF-8"?>
<svg xmlns="http://www.w3.org/2000/svg" viewBox="0 -1730 2048 1728">
  <path d="M1920 1728Q1929 1729 1946.0 1729.5Q1963 1730 1982.5 1729.5Q2002 1729 2019.5 1728.5Q2037 1728 2048 1728V1213Q2019 1234 1987.0 1248.0Q1955 1262 1920 1270V1599L128 1280V1024Q135 1024 139 1023L1254 824L883 452Q870 450 857.5 449.0Q845 448 832 448Q766 448 707.5 473.0Q649 498 605.5 541.5Q562 585 537.0 643.5Q512 702 512 768Q512 796 518 825L254 872Q235 876 219.0 879.0Q203 882 188.0 885.0Q173 888 157.0 890.5Q141 893 122 896Q110 897 94.5 897.5Q79 898 62.0 897.5Q45 897 28.5 896.5Q12 896 0 896V1408Q10 1408 27.0 1407.5Q44 1407 62.5 1406.5Q81 1406 97.0 1406.0Q113 1406 122 1408ZM643 803Q640 785 640 768Q640 728 655.0 693.0Q670 658 696.0 632.0Q722 606 757.0 591.0Q792 576 832 576Q867 576 899.0 588.0Q931 600 956.0 621.5Q981 643 998.0 672.0Q1015 701 1021 736ZM1707 1095Q1735 1123 1772.0 1136.0Q1809 1149 1848 1149Q1890 1149 1926.5 1134.5Q1963 1120 1990.0 1094.0Q2017 1068 2032.5 1032.5Q2048 997 2048 954Q2048 914 2032.5 877.5Q2017 841 1989 813L1273 96L896 2L990 379ZM1899 903Q1909 913 1914.5 926.5Q1920 940 1920 954Q1920 986 1899.5 1004.5Q1879 1023 1848 1023Q1835 1023 1821.5 1019.0Q1808 1015 1798 1005L1106 313L1072 178L1207 212Z" transform="scale(1,-1)"/>
</svg>