<?xml version="1.0" encoding="UTF-8"?>
<svg xmlns="http://www.w3.org/2000/svg" viewBox="0 -2048 2048 2048">
  <path d="M1728 1408Q1794 1408 1852.0 1382.5Q1910 1357 1953.5 1313.5Q1997 1270 2022.5 1212.0Q2048 1154 2048 1088Q2048 1031 2029.0 979.0Q2010 927 1976.0 885.5Q1942 844 1895.0 815.0Q1848 786 1792 774V672Q1792 583 1770.0 498.5Q1748 414 1707.5 339.0Q1667 264 1609.5 202.0Q1552 140 1480.5 95.0Q1409 50 1326.0 25.0Q1243 0 1152 0Q1061 0 978.0 25.0Q895 50 823.5 95.0Q752 140 694.5 202.0Q637 264 596.5 339.0Q556 414 534.0 498.5Q512 583 512 672V901Q389 912 293.5 960.0Q198 1008 133.0 1086.0Q68 1164 34.0 1267.0Q0 1370 0 1490V2048H320Q346 2048 365.0 2029.0Q384 2010 384 1984Q384 1958 365.0 1939.0Q346 1920 320 1920H128V1490Q128 1384 157.5 1298.0Q187 1212 244.0 1151.0Q301 1090 384.5 1057.0Q468 1024 576 1024Q677 1024 760.0 1055.0Q843 1086 901.5 1144.0Q960 1202 992.0 1284.5Q1024 1367 1024 1469V1920H832Q806 1920 787.0 1939.0Q768 1958 768 1984Q768 2010 787.0 2029.0Q806 2048 832 2048H1152V1490Q1152 1370 1118.0 1267.0Q1084 1164 1019.0 1086.0Q954 1008 858.5 960.0Q763 912 640 901V672Q640 565 678.5 466.5Q717 368 785.5 293.0Q854 218 947.5 173.0Q1041 128 1152 128Q1263 128 1356.5 173.0Q1450 218 1518.5 293.0Q1587 368 1625.5 466.5Q1664 565 1664 672V774Q1608 786 1561.0 815.0Q1514 844 1480.0 885.5Q1446 927 1427.0 979.0Q1408 1031 1408 1088Q1408 1154 1433.0 1212.0Q1458 1270 1501.5 1313.5Q1545 1357 1603.5 1382.5Q1662 1408 1728 1408ZM1728 896Q1768 896 1803.0 911.0Q1838 926 1864.0 952.0Q1890 978 1905.0 1013.0Q1920 1048 1920 1088Q1920 1128 1905.0 1163.0Q1890 1198 1864.0 1224.0Q1838 1250 1803.0 1265.0Q1768 1280 1728 1280Q1688 1280 1653.0 1265.0Q1618 1250 1592.0 1224.0Q1566 1198 1551.0 1163.0Q1536 1128 1536 1088Q1536 1048 1551.0 1013.0Q1566 978 1592.0 952.0Q1618 926 1653.0 911.0Q1688 896 1728 896Z" transform="scale(1,-1)"/>
</svg>