<?xml version="1.0" encoding="UTF-8"?>
<svg xmlns="http://www.w3.org/2000/svg" viewBox="192 -2048 1600 2048">
  <path d="M1600 1280Q1640 1280 1675.0 1265.0Q1710 1250 1736.0 1224.0Q1762 1198 1777.0 1163.0Q1792 1128 1792 1088V576Q1792 457 1746.5 352.0Q1701 247 1623.0 169.0Q1545 91 1440.0 45.5Q1335 0 1216 0Q1072 0 947.5 55.0Q823 110 722 211L250 683Q222 711 207.0 748.0Q192 785 192 824Q192 866 208.0 902.5Q224 939 251.0 966.0Q278 993 314.5 1008.5Q351 1024 392 1024Q432 1024 468.0 1008.5Q504 993 533 965L640 859V1856Q640 1896 655.0 1931.0Q670 1966 696.0 1992.0Q722 2018 757.0 2033.0Q792 2048 832 2048Q872 2048 907.0 2033.0Q942 2018 968.0 1992.0Q994 1966 1009.0 1931.0Q1024 1896 1024 1856V1397Q1057 1408 1088 1408Q1138 1408 1181.0 1384.5Q1224 1361 1250 1319Q1295 1344 1344 1344Q1394 1344 1437.0 1320.5Q1480 1297 1506 1255Q1551 1280 1600 1280ZM1664 1088Q1664 1114 1645.0 1133.0Q1626 1152 1600 1152Q1566 1152 1552.5 1133.0Q1539 1114 1536.5 1085.5Q1534 1057 1536.0 1024.0Q1538 991 1535.5 962.5Q1533 934 1519.5 915.0Q1506 896 1472 896Q1435 896 1421.5 919.5Q1408 943 1406.0 979.0Q1404 1015 1408.0 1056.0Q1412 1097 1410.0 1133.0Q1408 1169 1394.5 1192.5Q1381 1216 1344 1216Q1310 1216 1296.5 1197.0Q1283 1178 1280.5 1149.5Q1278 1121 1280.0 1088.0Q1282 1055 1279.5 1026.5Q1277 998 1263.5 979.0Q1250 960 1216 960Q1179 960 1165.5 983.5Q1152 1007 1150.0 1043.0Q1148 1079 1152.0 1120.0Q1156 1161 1154.0 1197.0Q1152 1233 1138.5 1256.5Q1125 1280 1088 1280Q1054 1280 1040.5 1261.0Q1027 1242 1024.5 1213.5Q1022 1185 1024.0 1152.0Q1026 1119 1023.5 1090.5Q1021 1062 1007.5 1043.0Q994 1024 960 1024Q934 1024 915.0 1043.0Q896 1062 896 1088V1856Q896 1882 877.0 1901.0Q858 1920 832 1920Q806 1920 787.0 1901.0Q768 1882 768 1856V813Q768 790 759.5 770.5Q751 751 736.5 736.0Q722 721 702.0 712.5Q682 704 660 704Q638 704 617.5 712.0Q597 720 581 736L442 875Q421 896 392 896Q363 896 341.5 875.0Q320 854 320 824Q320 795 341 774L813 301Q897 217 997.0 172.5Q1097 128 1216 128Q1309 128 1390.5 163.5Q1472 199 1532.5 259.5Q1593 320 1628.5 401.5Q1664 483 1664 576Z" transform="scale(1,-1)"/>
</svg>