<?xml version="1.0" encoding="UTF-8"?>
<svg xmlns="http://www.w3.org/2000/svg" viewBox="256 -2048 1408 2048">
  <path d="M704 512Q664 512 629.0 527.0Q594 542 568.0 568.0Q542 594 527.0 629.0Q512 664 512 704V1856Q512 1896 527.0 1931.0Q542 1966 568.0 1992.0Q594 2018 629.0 2033.0Q664 2048 704 2048H1216Q1256 2048 1291.0 2033.0Q1326 2018 1352.0 1992.0Q1378 1966 1393.0 1931.0Q1408 1896 1408 1856V704Q1408 664 1393.0 629.0Q1378 594 1352.0 568.0Q1326 542 1291.0 527.0Q1256 512 1216 512ZM640 704Q640 678 659.0 659.0Q678 640 704 640H1216Q1242 640 1261.0 659.0Q1280 678 1280 704V1856Q1280 1882 1261.0 1901.0Q1242 1920 1216 1920H704Q678 1920 659.0 1901.0Q640 1882 640 1856ZM1664 1024V662Q1664 578 1632.0 504.0Q1600 430 1545.0 375.0Q1490 320 1416.0 288.0Q1342 256 1258 256H1024V128H1280V0H640V128H896V256H662Q578 256 504.0 288.0Q430 320 375.0 375.0Q320 430 288.0 504.0Q256 578 256 662V1024H384V662Q384 605 406.0 554.0Q428 503 465.5 465.5Q503 428 554.0 406.0Q605 384 662 384H1258Q1315 384 1366.0 406.0Q1417 428 1454.5 465.5Q1492 503 1514.0 554.0Q1536 605 1536 662V1024Z" transform="scale(1,-1)"/>
</svg>