<?xml version="1.0" encoding="UTF-8"?>
<svg xmlns="http://www.w3.org/2000/svg" viewBox="128 -2048 1920 2048">
  <path d="M1024 1536V1408H384V1536ZM384 1280H1536V1152H384ZM1216 640Q1282 640 1340.0 614.5Q1398 589 1441.5 545.5Q1485 502 1510.5 444.0Q1536 386 1536 320Q1536 254 1510.5 195.5Q1485 137 1441.5 93.5Q1398 50 1340.0 25.0Q1282 0 1216 0Q1150 0 1091.5 25.0Q1033 50 989.5 93.5Q946 137 921.0 195.5Q896 254 896 320Q896 386 921.0 444.0Q946 502 989.5 545.5Q1033 589 1091.5 614.5Q1150 640 1216 640ZM1216 128Q1256 128 1291.0 143.0Q1326 158 1352.0 184.0Q1378 210 1393.0 245.0Q1408 280 1408 320Q1408 360 1393.0 395.0Q1378 430 1352.0 456.0Q1326 482 1291.0 497.0Q1256 512 1216 512Q1176 512 1141.0 497.0Q1106 482 1080.0 456.0Q1054 430 1039.0 395.0Q1024 360 1024 320Q1024 280 1039.0 245.0Q1054 210 1080.0 184.0Q1106 158 1141.0 143.0Q1176 128 1216 128ZM1216 1024Q1316 1024 1416.5 1002.5Q1517 981 1609.5 939.0Q1702 897 1782.0 836.0Q1862 775 1921.0 697.0Q1980 619 2014.0 524.0Q2048 429 2048 320H1920Q1920 411 1890.5 489.0Q1861 567 1810.0 631.0Q1759 695 1690.5 744.5Q1622 794 1544.0 827.5Q1466 861 1382.0 878.5Q1298 896 1216 896Q1134 896 1050.0 878.5Q966 861 888.0 827.5Q810 794 741.5 744.5Q673 695 622.0 631.0Q571 567 541.5 489.0Q512 411 512 320H384Q384 429 418.0 524.0Q452 619 511.0 697.0Q570 775 650.0 836.0Q730 897 822.5 939.0Q915 981 1015.5 1002.5Q1116 1024 1216 1024ZM256 128H384V0H128V2048H1243L1792 1499V1022Q1729 1061 1664 1090V1408H1152V1920H256ZM1280 1536H1573L1280 1829Z" transform="scale(1,-1)"/>
</svg>