<?xml version="1.0" encoding="UTF-8"?>
<svg xmlns="http://www.w3.org/2000/svg" viewBox="128 -1920 1664 1792">
  <path d="M1664 1792Q1664 1686 1633.5 1585.5Q1603 1485 1543 1397Q1512 1352 1478.0 1315.0Q1444 1278 1405.5 1247.5Q1367 1217 1324.0 1191.0Q1281 1165 1232 1142Q1195 1125 1173.5 1095.5Q1152 1066 1152 1024Q1152 982 1173.5 952.5Q1195 923 1232 906Q1281 883 1324.0 857.0Q1367 831 1405.5 800.5Q1444 770 1478.0 733.0Q1512 696 1543 651Q1603 563 1633.5 462.5Q1664 362 1664 256H1792V128H128V256H256Q256 362 286.5 462.5Q317 563 377 651Q409 698 443.0 734.5Q477 771 514.5 801.0Q552 831 595.0 856.0Q638 881 688 905Q724 922 746.0 952.0Q768 982 768 1024Q768 1066 746.5 1095.5Q725 1125 688 1142Q639 1165 596.0 1191.0Q553 1217 514.5 1247.5Q476 1278 442.0 1315.0Q408 1352 377 1397Q317 1485 286.5 1585.5Q256 1686 256 1792H128V1920H1792V1792ZM1024 1024Q1024 1106 1067.0 1166.0Q1110 1226 1182 1261Q1211 1275 1238.0 1288.5Q1265 1302 1291 1321Q1349 1361 1394.5 1413.5Q1440 1466 1471.5 1526.5Q1503 1587 1519.5 1654.5Q1536 1722 1536 1792H384Q384 1722 400.5 1654.5Q417 1587 448.5 1526.5Q480 1466 525.5 1413.5Q571 1361 629 1321Q655 1302 682.0 1288.5Q709 1275 738 1261Q810 1226 853.0 1166.0Q896 1106 896 1024Q896 942 853.0 882.0Q810 822 738 787Q709 773 682.0 759.5Q655 746 629 727Q571 687 525.5 634.5Q480 582 448.5 521.5Q417 461 400.5 393.5Q384 326 384 256H1536Q1536 326 1519.5 393.5Q1503 461 1471.5 521.5Q1440 582 1394.5 634.5Q1349 687 1291 727Q1265 746 1238.0 759.5Q1211 773 1182 787Q1110 822 1067.0 882.0Q1024 942 1024 1024Z" transform="scale(1,-1)"/>
</svg>