<?xml version="1.0" encoding="UTF-8"?>
<svg xmlns="http://www.w3.org/2000/svg" viewBox="0 -1792 2048 1408">
  <path d="M1024 768H640Q640 805 640.0 843.0Q640 881 654 916Q665 944 687.5 970.5Q710 997 737.0 1023.0Q764 1049 792.0 1073.5Q820 1098 843.5 1122.0Q867 1146 881.5 1169.5Q896 1193 896 1216Q896 1242 877.0 1261.0Q858 1280 832 1280Q809 1280 791.5 1266.0Q774 1252 769 1229L644 1255Q650 1288 667.5 1316.0Q685 1344 711.0 1364.5Q737 1385 768.0 1396.5Q799 1408 832 1408Q872 1408 907.0 1393.0Q942 1378 968.0 1352.0Q994 1326 1009.0 1291.0Q1024 1256 1024 1216Q1024 1177 1012.5 1145.5Q1001 1114 982.0 1087.5Q963 1061 938.0 1037.0Q913 1013 887.0 990.5Q861 968 835.5 945.0Q810 922 789 896H1024ZM2048 1792V384H0V1792ZM1920 1664H128V512H1920ZM397 1261Q368 1244 329.0 1230.0Q290 1216 256 1216V1344Q267 1344 287.0 1350.0Q307 1356 327.0 1365.5Q347 1375 363.5 1386.0Q380 1397 385 1408H512V768H397ZM1320 768Q1278 768 1238.5 782.0Q1199 796 1164 819V946Q1184 931 1199.5 920.0Q1215 909 1231.0 902.0Q1247 895 1265.5 892.0Q1284 889 1310 889Q1332 889 1352.0 893.5Q1372 898 1387.5 908.5Q1403 919 1412.0 936.0Q1421 953 1421 978Q1421 1009 1397.0 1022.5Q1373 1036 1341.0 1040.0Q1309 1044 1275.5 1042.5Q1242 1041 1223 1041V1138Q1250 1138 1281.0 1138.0Q1312 1138 1339.0 1145.5Q1366 1153 1384.0 1171.5Q1402 1190 1402 1228Q1402 1270 1376.5 1284.0Q1351 1298 1313 1298Q1273 1298 1244.0 1280.0Q1215 1262 1186 1237V1367Q1220 1390 1262.0 1399.0Q1304 1408 1344 1408Q1380 1408 1414.0 1398.0Q1448 1388 1474.5 1368.5Q1501 1349 1517.0 1319.5Q1533 1290 1533 1251Q1533 1203 1513.5 1165.5Q1494 1128 1452 1105Q1496 1090 1524.0 1052.0Q1552 1014 1552 967Q1552 920 1532.0 883.0Q1512 846 1479.5 820.5Q1447 795 1405.0 781.5Q1363 768 1320 768Z" transform="scale(1,-1)"/>
</svg>