<?xml version="1.0" encoding="UTF-8"?>
<svg xmlns="http://www.w3.org/2000/svg" viewBox="0 -2048 2048 2048">
  <path d="M768 896H640V1408H768ZM640 768H768V640H640ZM1984 768Q1984 720 1972.0 673.5Q1960 627 1938.0 586.0Q1916 545 1884.0 510.0Q1852 475 1812 448Q1852 421 1884.0 386.0Q1916 351 1938.0 309.5Q1960 268 1972.0 222.0Q1984 176 1984 128H2048V0H1152V128H1216Q1216 176 1228.0 222.0Q1240 268 1262.0 309.5Q1284 351 1316.0 386.0Q1348 421 1388 448Q1348 475 1316.0 510.0Q1284 545 1262.0 586.0Q1240 627 1228.0 673.5Q1216 720 1216 768H1152V896H2048V768ZM1664 448Q1664 479 1679.0 502.5Q1694 526 1720 542Q1784 580 1820.0 636.5Q1856 693 1856 768H1344Q1344 693 1380.0 636.5Q1416 580 1480 542Q1506 526 1521.0 502.5Q1536 479 1536 448Q1536 417 1521.0 393.5Q1506 370 1480 354Q1416 316 1380.0 259.5Q1344 203 1344 128H1856Q1856 203 1820.0 259.5Q1784 316 1720 354Q1694 370 1679.0 393.5Q1664 417 1664 448ZM128 128H1024V0H0V2048H1536Q1563 2048 1586.0 2038.0Q1609 2028 1626.5 2010.5Q1644 1993 1654.0 1970.0Q1664 1947 1664 1920V1440Q1664 1395 1654.5 1362.5Q1645 1330 1631.0 1304.5Q1617 1279 1600.0 1259.0Q1583 1239 1569.0 1218.5Q1555 1198 1545.5 1174.5Q1536 1151 1536 1120V1024H1408V1120Q1408 1151 1398.5 1174.5Q1389 1198 1375.0 1218.5Q1361 1239 1344.0 1259.0Q1327 1279 1313.0 1304.5Q1299 1330 1289.5 1362.5Q1280 1395 1280 1440V1920H128ZM1536 1920H1408V1440Q1408 1416 1412.5 1398.0Q1417 1380 1425.5 1365.0Q1434 1350 1445.5 1335.5Q1457 1321 1472 1304Q1487 1321 1498.5 1335.5Q1510 1350 1518.5 1365.0Q1527 1380 1531.5 1398.0Q1536 1416 1536 1440Z" transform="scale(1,-1)"/>
</svg>