<?xml version="1.0" encoding="UTF-8"?>
<svg xmlns="http://www.w3.org/2000/svg" viewBox="0 -2048 2048 2048">
  <path d="M1024 128Q1178 128 1319.5 175.5Q1461 223 1577.5 309.5Q1694 396 1780.5 517.5Q1867 639 1912 787L2034 749Q1984 582 1885.0 444.5Q1786 307 1652.5 208.0Q1519 109 1358.5 54.5Q1198 0 1024 0Q887 0 757.0 34.0Q627 68 511.5 132.5Q396 197 298.0 289.5Q200 382 128 499V256H0V768H512V640H196Q255 523 342.5 428.5Q430 334 538.0 267.5Q646 201 769.5 164.5Q893 128 1024 128ZM2048 1792V1280H1536V1408H1852Q1793 1525 1705.5 1619.5Q1618 1714 1510.0 1780.5Q1402 1847 1278.5 1883.5Q1155 1920 1024 1920Q870 1920 728.5 1872.5Q587 1825 470.5 1738.5Q354 1652 267.5 1530.5Q181 1409 136 1261L14 1299Q64 1465 163.0 1603.0Q262 1741 395.5 1840.0Q529 1939 689.5 1993.5Q850 2048 1024 2048Q1161 2048 1291.0 2014.0Q1421 1980 1536.5 1915.5Q1652 1851 1750.0 1758.5Q1848 1666 1920 1549V1792Z" transform="scale(1,-1)"/>
</svg>