<?xml version="1.0" encoding="UTF-8"?>
<svg xmlns="http://www.w3.org/2000/svg" viewBox="128 -2048 1664 2048">
  <path d="M1280 617Q1318 612 1370.5 601.5Q1423 591 1480.0 574.5Q1537 558 1593.0 535.0Q1649 512 1693.0 480.5Q1737 449 1764.5 409.5Q1792 370 1792 320Q1792 270 1764.5 231.0Q1737 192 1696.5 162.5Q1656 133 1609.0 112.0Q1562 91 1523 78Q1459 56 1388.5 41.0Q1318 26 1245.0 17.0Q1172 8 1099.5 4.0Q1027 0 960 0Q892 0 820.0 4.0Q748 8 675.0 17.0Q602 26 531.5 41.0Q461 56 397 78Q358 91 311.0 112.0Q264 133 223.5 162.5Q183 192 155.5 231.0Q128 270 128 320Q128 370 155.5 409.5Q183 449 227.0 480.5Q271 512 327.0 535.0Q383 558 440.0 574.5Q497 591 549.5 601.0Q602 611 640 617V779Q611 789 587.5 807.0Q564 825 547.0 849.0Q530 873 521.0 901.5Q512 930 512 960V1472Q512 1512 527.0 1547.0Q542 1582 568.0 1608.0Q594 1634 629.0 1649.0Q664 1664 704 1664H738Q704 1724 704 1792Q704 1845 724.0 1891.5Q744 1938 779.0 1973.0Q814 2008 860.5 2028.0Q907 2048 960 2048Q1013 2048 1059.5 2028.0Q1106 2008 1141.0 1973.0Q1176 1938 1196.0 1891.5Q1216 1845 1216 1792Q1216 1724 1182 1664H1216Q1256 1664 1291.0 1649.0Q1326 1634 1352.0 1608.0Q1378 1582 1393.0 1547.0Q1408 1512 1408 1472V960Q1408 930 1399.0 901.5Q1390 873 1373.0 849.0Q1356 825 1332.5 807.0Q1309 789 1280 779ZM832 1792Q832 1765 842.0 1742.0Q852 1719 869.5 1701.5Q887 1684 910.0 1674.0Q933 1664 960 1664Q987 1664 1010.0 1674.0Q1033 1684 1050.5 1701.5Q1068 1719 1078.0 1742.0Q1088 1765 1088 1792Q1088 1819 1078.0 1842.0Q1068 1865 1050.5 1882.5Q1033 1900 1010.0 1910.0Q987 1920 960 1920Q933 1920 910.0 1910.0Q887 1900 869.5 1882.5Q852 1865 842.0 1842.0Q832 1819 832 1792ZM960 128Q1003 128 1060.0 130.5Q1117 133 1179.5 139.5Q1242 146 1307.0 156.5Q1372 167 1432.0 183.0Q1492 199 1542.5 220.5Q1593 242 1628 271Q1638 279 1651.0 292.5Q1664 306 1664 320Q1664 334 1651.0 348.0Q1638 362 1620.5 374.5Q1603 387 1585.0 396.5Q1567 406 1557 411Q1493 441 1421.5 459.0Q1350 477 1280 488V320Q1280 308 1263.0 299.0Q1246 290 1224.0 284.0Q1202 278 1181.0 274.0Q1160 270 1152 269V896Q1170 896 1192.5 895.5Q1215 895 1234.5 900.0Q1254 905 1267.0 918.5Q1280 932 1280 960V1472Q1280 1498 1261.0 1517.0Q1242 1536 1216 1536H704Q678 1536 659.0 1517.0Q640 1498 640 1472V960Q640 932 653.0 918.5Q666 905 685.5 900.0Q705 895 727.5 895.5Q750 896 768 896V269Q760 270 739.0 274.0Q718 278 696.0 284.0Q674 290 657.0 299.0Q640 308 640 320V488Q570 477 498.5 459.0Q427 441 363 411Q353 406 335.0 396.5Q317 387 299.5 374.5Q282 362 269.0 348.0Q256 334 256 320Q256 306 269.0 292.5Q282 279 292 271Q326 242 377.0 220.5Q428 199 488.0 183.0Q548 167 613.0 156.5Q678 146 740.5 139.5Q803 133 860.0 130.5Q917 128 960 128ZM896 896H1024V257Q1008 256 992.0 256.0Q976 256 960 256Q944 256 928.0 256.0Q912 256 896 257Z" transform="scale(1,-1)"/>
</svg>