<?xml version="1.0" encoding="UTF-8"?>
<svg xmlns="http://www.w3.org/2000/svg" viewBox="256 -2048 1532 2029">
  <path d="M1088 2044Q1184 2044 1273.0 2019.0Q1362 1994 1440.0 1948.0Q1518 1902 1582.0 1838.0Q1646 1774 1692.0 1696.0Q1738 1618 1763.0 1529.0Q1788 1440 1788 1344Q1788 1207 1735.5 1079.5Q1683 952 1586 855L749 19L659 109L1495 946Q1574 1025 1617.0 1128.5Q1660 1232 1660 1344Q1660 1461 1614.5 1565.0Q1569 1669 1491.0 1747.0Q1413 1825 1309.0 1870.5Q1205 1916 1088 1916Q980 1916 897.5 1883.5Q815 1851 745.0 1797.5Q675 1744 610.5 1676.0Q546 1608 475 1536H896V1408H256V2048H384V1627Q439 1683 489.5 1735.5Q540 1788 590.5 1834.5Q641 1881 693.5 1919.5Q746 1958 805.5 1985.5Q865 2013 934.5 2028.5Q1004 2044 1088 2044Z" transform="scale(1,-1)"/>
</svg>