<?xml version="1.0" encoding="UTF-8"?>
<svg xmlns="http://www.w3.org/2000/svg" viewBox="0 -1984 2048 1920">
  <path d="M1280 1984Q1417 1984 1554 1969Q1578 1966 1623.5 1959.5Q1669 1953 1724.0 1941.5Q1779 1930 1836.5 1913.5Q1894 1897 1941.0 1874.5Q1988 1852 2018.0 1823.5Q2048 1795 2048 1760V288Q2048 253 2018.0 224.5Q1988 196 1941.0 173.5Q1894 151 1836.5 134.5Q1779 118 1724.0 106.5Q1669 95 1623.5 88.0Q1578 81 1554 79Q1417 64 1280 64Q1142 64 1006 79Q982 81 936.5 88.0Q891 95 836.0 106.5Q781 118 723.5 134.5Q666 151 619.0 173.5Q572 196 542.0 224.5Q512 253 512 288V512H85Q50 512 25.0 537.0Q0 562 0 597V1451Q0 1486 25.0 1511.0Q50 1536 85 1536H512V1760Q512 1795 542.0 1823.5Q572 1852 619.0 1874.5Q666 1897 723.5 1913.5Q781 1930 836.0 1941.5Q891 1953 936.5 1959.5Q982 1966 1006 1969Q1142 1984 1280 1984ZM1280 1856Q1215 1856 1135.0 1851.5Q1055 1847 972.5 1836.0Q890 1825 812.0 1806.5Q734 1788 674 1760Q736 1731 813.5 1712.5Q891 1694 972.5 1683.5Q1054 1673 1133.5 1668.5Q1213 1664 1280 1664Q1347 1664 1426.5 1668.5Q1506 1673 1587.5 1683.5Q1669 1694 1746.5 1712.5Q1824 1731 1886 1760Q1826 1788 1748.0 1806.5Q1670 1825 1587.5 1836.0Q1505 1847 1425.0 1851.5Q1345 1856 1280 1856ZM403 841H620L671 688H842L597 1360H430L182 688H352ZM1920 309V612Q1854 583 1772.5 564.0Q1691 545 1605.0 533.5Q1519 522 1435.0 517.0Q1351 512 1280 512Q1207 512 1134.5 516.5Q1062 521 990 529Q967 512 939 512H640V309Q669 286 718.0 268.0Q767 250 826.5 237.0Q886 224 951.0 215.5Q1016 207 1077.5 201.5Q1139 196 1192.0 194.0Q1245 192 1280 192Q1315 192 1368.0 194.0Q1421 196 1482.5 201.5Q1544 207 1609.0 215.5Q1674 224 1733.5 237.0Q1793 250 1842.0 268.0Q1891 286 1920 309ZM1920 755V1124Q1854 1095 1772.5 1076.0Q1691 1057 1605.0 1045.5Q1519 1034 1435.0 1029.0Q1351 1024 1280 1024Q1216 1024 1152.0 1027.5Q1088 1031 1024 1037V653Q1088 646 1152.0 643.0Q1216 640 1280 640Q1317 640 1370.0 642.0Q1423 644 1483.5 649.5Q1544 655 1608.0 663.5Q1672 672 1731.0 685.0Q1790 698 1839.5 715.0Q1889 732 1920 755ZM1920 1267V1636Q1854 1607 1772.5 1588.0Q1691 1569 1605.0 1557.5Q1519 1546 1435.0 1541.0Q1351 1536 1280 1536Q1209 1536 1125.0 1541.0Q1041 1546 955.0 1557.5Q869 1569 787.5 1588.0Q706 1607 640 1636V1536H939Q974 1536 999.0 1511.0Q1024 1486 1024 1451V1165Q1088 1158 1152.0 1155.0Q1216 1152 1280 1152Q1317 1152 1370.0 1154.0Q1423 1156 1483.5 1161.5Q1544 1167 1608.0 1175.5Q1672 1184 1731.0 1197.0Q1790 1210 1839.0 1227.0Q1888 1244 1920 1267ZM442 971 511 1180 578 971Z" transform="scale(1,-1)"/>
</svg>