<?xml version="1.0" encoding="UTF-8"?>
<svg xmlns="http://www.w3.org/2000/svg" viewBox="68 -1991 1923 1927">
  <path d="M538 709 511 774Q479 768 448 768Q417 768 389 774L362 708L244 757L271 822Q218 858 184 907L119 880L69 998L134 1025Q128 1056 128 1088Q128 1118 134 1147L68 1174L117 1292L182 1265Q218 1318 267 1352L240 1417L358 1467L385 1402Q416 1408 448 1408Q478 1408 507 1402L534 1468L652 1419L625 1354Q678 1318 712 1269L777 1296L827 1178L762 1151Q768 1119 768 1088Q768 1057 762 1029L828 1002L779 884L714 911Q678 858 629 824L656 759ZM256 1088Q256 1048 271.0 1013.0Q286 978 312.0 952.0Q338 926 373.0 911.0Q408 896 448 896Q488 896 523.0 911.0Q558 926 584.0 952.0Q610 978 625.0 1013.0Q640 1048 640 1088Q640 1128 625.0 1163.0Q610 1198 584.0 1224.0Q558 1250 523.0 1265.0Q488 1280 448 1280Q408 1280 373.0 1265.0Q338 1250 312.0 1224.0Q286 1198 271.0 1163.0Q256 1128 256 1088ZM1920 1401Q1919 1374 1916.0 1346.5Q1913 1319 1907 1293L1974 1269L1930 1149L1863 1173Q1843 1135 1817.5 1100.0Q1792 1065 1760 1036L1802 978L1699 902L1656 960Q1595 927 1529 910L1537 839L1409 825L1401 896Q1374 897 1346.5 900.0Q1319 903 1293 909L1272 850L1296 874L1386 784L1337 734Q1388 664 1403 576H1472V448H1403Q1388 360 1337 290L1386 240L1296 150L1246 199Q1176 148 1088 133V64H960V133Q872 148 802 199L752 150L662 240L711 290Q660 360 645 448H576V576H645Q660 664 711 734L662 784L752 874L802 825Q872 876 960 891V960H1088V891Q1176 876 1246 825L1265 843L1149 886L1173 953Q1135 973 1100.0 998.5Q1065 1024 1036 1056L978 1014L902 1117L960 1160Q927 1221 910 1287L839 1279L825 1407L896 1415Q897 1442 900.0 1469.5Q903 1497 909 1523L842 1547L886 1667L953 1643Q973 1681 998.5 1716.0Q1024 1751 1056 1780L1014 1838L1117 1914L1160 1856Q1221 1889 1287 1906L1279 1977L1407 1991L1415 1920Q1442 1919 1469.5 1916.0Q1497 1913 1523 1907L1547 1974L1667 1930L1643 1863Q1681 1843 1716.0 1817.5Q1751 1792 1780 1760L1838 1802L1914 1699L1856 1656Q1889 1595 1906 1529L1977 1537L1991 1409ZM1024 256Q1077 256 1123.5 276.0Q1170 296 1205.0 331.0Q1240 366 1260.0 412.5Q1280 459 1280 512Q1280 565 1260.0 611.5Q1240 658 1205.0 693.0Q1170 728 1123.5 748.0Q1077 768 1024 768Q971 768 924.5 748.0Q878 728 843.0 693.0Q808 658 788.0 611.5Q768 565 768 512Q768 459 788.0 412.5Q808 366 843.0 331.0Q878 296 924.5 276.0Q971 256 1024 256ZM1408 1024Q1487 1024 1557.0 1054.0Q1627 1084 1679.5 1136.5Q1732 1189 1762.0 1258.5Q1792 1328 1792 1408Q1792 1487 1762.0 1557.0Q1732 1627 1679.5 1679.5Q1627 1732 1557.0 1762.0Q1487 1792 1408 1792Q1328 1792 1258.5 1762.0Q1189 1732 1136.5 1679.5Q1084 1627 1054.0 1557.0Q1024 1487 1024 1408Q1024 1328 1054.0 1258.5Q1084 1189 1136.5 1136.5Q1189 1084 1258.5 1054.0Q1328 1024 1408 1024Z" transform="scale(1,-1)"/>
</svg>