<?xml version="1.0" encoding="UTF-8"?>
<svg xmlns="http://www.w3.org/2000/svg" viewBox="256 -2048 1408 2048">
  <path d="M960 768Q1000 768 1035.0 753.0Q1070 738 1096.0 712.0Q1122 686 1137.0 651.0Q1152 616 1152 576Q1152 536 1137.0 501.0Q1122 466 1096.0 440.0Q1070 414 1035.0 399.0Q1000 384 960 384Q920 384 885.0 399.0Q850 414 824.0 440.0Q798 466 783.0 501.0Q768 536 768 576Q768 616 783.0 651.0Q798 686 824.0 712.0Q850 738 885.0 753.0Q920 768 960 768ZM960 512Q986 512 1005.0 531.0Q1024 550 1024 576Q1024 602 1005.0 621.0Q986 640 960 640Q934 640 915.0 621.0Q896 602 896 576Q896 550 915.0 531.0Q934 512 960 512ZM960 1280Q1000 1280 1035.0 1265.0Q1070 1250 1096.0 1224.0Q1122 1198 1137.0 1163.0Q1152 1128 1152 1088Q1152 1048 1137.0 1013.0Q1122 978 1096.0 952.0Q1070 926 1035.0 911.0Q1000 896 960 896Q920 896 885.0 911.0Q850 926 824.0 952.0Q798 978 783.0 1013.0Q768 1048 768 1088Q768 1128 783.0 1163.0Q798 1198 824.0 1224.0Q850 1250 885.0 1265.0Q920 1280 960 1280ZM960 1024Q986 1024 1005.0 1043.0Q1024 1062 1024 1088Q1024 1114 1005.0 1133.0Q986 1152 960 1152Q934 1152 915.0 1133.0Q896 1114 896 1088Q896 1062 915.0 1043.0Q934 1024 960 1024ZM960 1792Q1000 1792 1035.0 1777.0Q1070 1762 1096.0 1736.0Q1122 1710 1137.0 1675.0Q1152 1640 1152 1600Q1152 1560 1137.0 1525.0Q1122 1490 1096.0 1464.0Q1070 1438 1035.0 1423.0Q1000 1408 960 1408Q920 1408 885.0 1423.0Q850 1438 824.0 1464.0Q798 1490 783.0 1525.0Q768 1560 768 1600Q768 1640 783.0 1675.0Q798 1710 824.0 1736.0Q850 1762 885.0 1777.0Q920 1792 960 1792ZM960 1536Q986 1536 1005.0 1555.0Q1024 1574 1024 1600Q1024 1626 1005.0 1645.0Q986 1664 960 1664Q934 1664 915.0 1645.0Q896 1626 896 1600Q896 1574 915.0 1555.0Q934 1536 960 1536ZM1664 1280Q1664 1218 1646.0 1161.5Q1628 1105 1594.5 1058.0Q1561 1011 1513.5 975.0Q1466 939 1408 918V768H1664Q1664 706 1646.0 649.5Q1628 593 1594.5 546.0Q1561 499 1513.5 463.0Q1466 427 1408 406V128H1152V0H1024V128H896V0H768V128H512V406Q454 427 406.5 463.0Q359 499 325.5 546.0Q292 593 274.0 649.5Q256 706 256 768H512V918Q454 939 406.5 975.0Q359 1011 325.5 1058.0Q292 1105 274.0 1161.5Q256 1218 256 1280H512V1430Q454 1451 406.5 1487.0Q359 1523 325.5 1570.0Q292 1617 274.0 1673.5Q256 1730 256 1792H512V2048H1408V1792H1664Q1664 1730 1646.0 1673.5Q1628 1617 1594.5 1570.0Q1561 1523 1513.5 1487.0Q1466 1451 1408 1430V1280ZM1408 1152V1058Q1467 1093 1502 1152ZM1408 1664V1570Q1467 1605 1502 1664ZM418 1664Q453 1605 512 1570V1664ZM418 1152Q453 1093 512 1058V1152ZM418 640Q453 581 512 546V640ZM1408 640V546Q1467 581 1502 640ZM1280 1920H640V256H1280Z" transform="scale(1,-1)"/>
</svg>