<?xml version="1.0" encoding="UTF-8"?>
<svg xmlns="http://www.w3.org/2000/svg" viewBox="0 -2048 2048 2029">
  <path d="M896 768V640H768V768ZM1536 1280H1664V1152H1536ZM1664 1920H2048V1024H1920V1408H128V256H1219L1347 128H0V1920H384V2048H512V1920H1536V2048H1664ZM1920 1536V1792H1664V1664H1536V1792H512V1664H384V1792H128V1536ZM1280 1280V1152H1152V1280ZM512 768V640H384V768ZM384 384V512H512V384ZM512 1024V896H384V1024ZM896 1024V896H768V1024ZM896 1280V1152H768V1280ZM768 384V512H896V384ZM1920 731V896H2048V512H1664V640H1829L1634 835Q1605 864 1567.0 880.0Q1529 896 1487 896Q1444 896 1406.5 879.5Q1369 863 1341.0 835.0Q1313 807 1296.5 769.0Q1280 731 1280 688Q1280 647 1296.0 609.0Q1312 571 1341 542L1773 109L1683 19L1250 451Q1202 499 1177.0 560.5Q1152 622 1152 688Q1152 758 1178.5 819.0Q1205 880 1250.5 925.5Q1296 971 1357.0 997.5Q1418 1024 1487 1024Q1554 1024 1615.5 999.0Q1677 974 1725 926Z" transform="scale(1,-1)"/>
</svg>