<?xml version="1.0" encoding="UTF-8"?>
<svg xmlns="http://www.w3.org/2000/svg" viewBox="256 -1920 1408 1792">
  <path d="M960 1920Q1030 1920 1118.0 1912.0Q1206 1904 1294.5 1884.0Q1383 1864 1462.5 1830.5Q1542 1797 1594 1746Q1625 1716 1644.5 1680.5Q1664 1645 1664 1600V448Q1664 403 1644.5 367.5Q1625 332 1594 302Q1542 251 1462.5 217.5Q1383 184 1294.5 164.0Q1206 144 1118.0 136.0Q1030 128 960 128Q890 128 802.0 136.0Q714 144 625.5 164.0Q537 184 457.5 217.5Q378 251 326 302Q295 332 275.5 367.5Q256 403 256 448V1600Q256 1645 275.5 1680.5Q295 1716 326 1746Q378 1797 457.5 1830.5Q537 1864 625.5 1884.0Q714 1904 802.0 1912.0Q890 1920 960 1920ZM960 1792Q909 1792 853.5 1788.5Q798 1785 742.5 1776.5Q687 1768 633.0 1754.5Q579 1741 531 1722Q516 1716 491.0 1703.5Q466 1691 442.0 1675.0Q418 1659 401.0 1639.5Q384 1620 384 1600Q384 1592 387.0 1585.0Q390 1578 395 1571Q416 1539 455.5 1515.0Q495 1491 544.5 1473.0Q594 1455 650.0 1442.5Q706 1430 762.0 1422.5Q818 1415 869.0 1411.5Q920 1408 960 1408Q1000 1408 1051.0 1411.5Q1102 1415 1158.0 1422.5Q1214 1430 1270.0 1442.5Q1326 1455 1375.5 1473.0Q1425 1491 1464.0 1515.0Q1503 1539 1525 1571Q1530 1578 1533.0 1585.0Q1536 1592 1536 1600Q1536 1620 1519.0 1639.5Q1502 1659 1478.0 1675.0Q1454 1691 1429.0 1703.5Q1404 1716 1389 1722Q1341 1741 1287.0 1754.5Q1233 1768 1177.5 1776.5Q1122 1785 1066.5 1788.5Q1011 1792 960 1792ZM960 256Q1011 256 1066.5 259.5Q1122 263 1178.0 271.5Q1234 280 1288.0 293.0Q1342 306 1389 326Q1404 332 1429.0 344.5Q1454 357 1478.0 373.0Q1502 389 1519.0 408.0Q1536 427 1536 448V642Q1479 604 1407.0 579.0Q1335 554 1258.0 539.0Q1181 524 1104.0 518.0Q1027 512 960 512Q893 512 816.0 518.0Q739 524 662.0 539.0Q585 554 513.0 579.0Q441 604 384 642V448Q384 427 401.0 408.0Q418 389 442.0 373.0Q466 357 491.0 344.5Q516 332 531 326Q578 306 632.0 293.0Q686 280 742.0 271.5Q798 263 853.5 259.5Q909 256 960 256ZM960 640Q1011 640 1066.5 643.5Q1122 647 1178.0 655.5Q1234 664 1288.0 677.0Q1342 690 1389 710Q1404 716 1429.0 728.5Q1454 741 1478.0 757.0Q1502 773 1519.0 792.0Q1536 811 1536 832V1026Q1479 988 1407.0 963.0Q1335 938 1258.0 923.0Q1181 908 1104.0 902.0Q1027 896 960 896Q893 896 816.0 902.0Q739 908 662.0 923.0Q585 938 513.0 963.0Q441 988 384 1026V832Q384 811 401.0 792.0Q418 773 442.0 757.0Q466 741 491.0 728.5Q516 716 531 710Q578 690 632.0 677.0Q686 664 742.0 655.5Q798 647 853.5 643.5Q909 640 960 640ZM960 1024Q1012 1024 1067.0 1027.5Q1122 1031 1177.5 1039.5Q1233 1048 1287.0 1061.0Q1341 1074 1389 1094Q1404 1100 1429.0 1112.5Q1454 1125 1478.0 1141.0Q1502 1157 1519.0 1176.5Q1536 1196 1536 1216V1410Q1479 1373 1407.5 1348.0Q1336 1323 1258.5 1308.0Q1181 1293 1104.0 1286.5Q1027 1280 960 1280Q893 1280 816.0 1286.5Q739 1293 661.5 1308.0Q584 1323 512.5 1348.0Q441 1373 384 1410V1216Q384 1196 401.0 1176.5Q418 1157 442.0 1141.0Q466 1125 491.0 1112.5Q516 1100 531 1094Q579 1074 633.0 1061.0Q687 1048 742.5 1039.5Q798 1031 853.0 1027.5Q908 1024 960 1024Z" transform="scale(1,-1)"/>
</svg>