<?xml version="1.0" encoding="UTF-8"?>
<svg xmlns="http://www.w3.org/2000/svg" viewBox="0 -2048 2048 2048">
  <path d="M1216 640Q1282 640 1340.0 614.5Q1398 589 1441.5 545.5Q1485 502 1510.5 444.0Q1536 386 1536 320Q1536 254 1510.5 195.5Q1485 137 1441.5 93.5Q1398 50 1340.0 25.0Q1282 0 1216 0Q1150 0 1091.5 25.0Q1033 50 989.5 93.5Q946 137 921.0 195.5Q896 254 896 320Q896 386 921.0 444.0Q946 502 989.5 545.5Q1033 589 1091.5 614.5Q1150 640 1216 640ZM1216 128Q1256 128 1291.0 143.0Q1326 158 1352.0 184.0Q1378 210 1393.0 245.0Q1408 280 1408 320Q1408 360 1393.0 395.0Q1378 430 1352.0 456.0Q1326 482 1291.0 497.0Q1256 512 1216 512Q1176 512 1141.0 497.0Q1106 482 1080.0 456.0Q1054 430 1039.0 395.0Q1024 360 1024 320Q1024 280 1039.0 245.0Q1054 210 1080.0 184.0Q1106 158 1141.0 143.0Q1176 128 1216 128ZM1216 1024Q1316 1024 1416.5 1002.5Q1517 981 1609.5 939.0Q1702 897 1782.0 836.0Q1862 775 1921.0 697.0Q1980 619 2014.0 524.0Q2048 429 2048 320H1920Q1920 411 1890.5 489.0Q1861 567 1810.0 631.0Q1759 695 1690.5 744.5Q1622 794 1544.0 827.5Q1466 861 1382.0 878.5Q1298 896 1216 896Q1134 896 1050.0 878.5Q966 861 888.0 827.5Q810 794 741.5 744.5Q673 695 622.0 631.0Q571 567 541.5 489.0Q512 411 512 320H384Q384 429 418.0 524.0Q452 619 511.0 697.0Q570 775 650.0 836.0Q730 897 822.5 939.0Q915 981 1015.5 1002.5Q1116 1024 1216 1024ZM1112 1533 859 1280 980 1158Q908 1143 839 1119L768 1189L515 936L424 1027L677 1280L424 1533L515 1624L768 1371L1021 1624ZM128 1280Q128 1206 145.0 1135.0Q162 1064 194.0 1000.0Q226 936 272.0 879.5Q318 823 376 778Q337 725 308 666Q235 720 178.0 789.0Q121 858 81.5 936.5Q42 1015 21.0 1102.0Q0 1189 0 1280Q0 1386 27.5 1484.0Q55 1582 105.0 1667.5Q155 1753 225.0 1823.0Q295 1893 380.5 1943.0Q466 1993 564.0 2020.5Q662 2048 768 2048Q874 2048 972.0 2020.5Q1070 1993 1155.5 1943.0Q1241 1893 1311.0 1823.0Q1381 1753 1431.0 1667.5Q1481 1582 1508.5 1484.0Q1536 1386 1536 1280Q1536 1245 1532.5 1210.5Q1529 1176 1523 1141Q1492 1150 1460.5 1157.0Q1429 1164 1397 1169Q1402 1197 1405.0 1224.5Q1408 1252 1408 1280Q1408 1368 1385.0 1450.0Q1362 1532 1320.5 1603.0Q1279 1674 1220.5 1732.5Q1162 1791 1091.0 1832.5Q1020 1874 938.0 1897.0Q856 1920 768 1920Q680 1920 598.0 1897.0Q516 1874 445.0 1832.5Q374 1791 315.5 1732.5Q257 1674 215.5 1603.0Q174 1532 151.0 1450.0Q128 1368 128 1280Z" transform="scale(1,-1)"/>
</svg>