<?xml version="1.0" encoding="UTF-8"?>
<svg xmlns="http://www.w3.org/2000/svg" viewBox="128 -1991 1920 1989">
  <path d="M896 511V1112L256 1432V552L800 279L769 152L128 472V1576L960 1991L1792 1576V1306Q1722 1295 1664 1261V1432L1024 1112V639ZM754 1746 1338 1412 1585 1536 960 1849ZM960 1223 1200 1343 616 1677 335 1536ZM1848 1152Q1890 1152 1926.5 1137.0Q1963 1122 1990.0 1095.5Q2017 1069 2032.5 1032.5Q2048 996 2048 954Q2048 915 2033.0 878.0Q2018 841 1990 813L1273 96L896 2L990 379L1707 1095Q1736 1124 1772.0 1138.0Q1808 1152 1848 1152ZM1899 903Q1920 924 1920 954Q1920 985 1899.5 1004.5Q1879 1024 1848 1024Q1834 1024 1821.0 1019.5Q1808 1015 1798 1005L1106 313L1072 178L1207 212Z" transform="scale(1,-1)"/>
</svg>