<?xml version="1.0" encoding="UTF-8"?>
<svg xmlns="http://www.w3.org/2000/svg" viewBox="128 -2048 1920 2048">
  <path d="M512 906Q529 906 553.5 905.0Q578 904 601 904Q612 904 622.0 904.5Q632 905 640 906L2048 1108V192L1531 266Q1521 209 1492.5 160.0Q1464 111 1422.0 75.5Q1380 40 1327.0 20.0Q1274 0 1216 0Q1150 0 1091.5 25.0Q1033 50 989.5 93.5Q946 137 921.0 195.5Q896 254 896 320Q896 329 896.5 338.0Q897 347 898 356Q832 366 765.0 376.5Q698 387 631 394Q621 395 611.5 395.5Q602 396 592 396Q572 396 551.5 395.0Q531 394 512 394ZM1216 128Q1250 128 1281.5 139.5Q1313 151 1338.5 172.0Q1364 193 1381.5 221.5Q1399 250 1405 284L1025 338Q1024 333 1024.0 329.0Q1024 325 1024 320Q1024 280 1039.0 245.0Q1054 210 1080.0 184.0Q1106 158 1141.0 143.0Q1176 128 1216 128ZM1920 960 640 778V522L1920 340ZM1024 1408H640V1536H1024ZM640 1280H1024V1152H640ZM512 1408H384V1536H512ZM384 1280H512V1152H384ZM776 128Q807 58 859 0H128V2048H1243L1792 1499V1232L1664 1214V1408H1152V1920H256V128ZM1280 1536H1573L1280 1829Z" transform="scale(1,-1)"/>
</svg>