<?xml version="1.0" encoding="UTF-8"?>
<svg xmlns="http://www.w3.org/2000/svg" viewBox="0 -2048 2048 2048">
  <path d="M2048 1920V0H0V1920H384V2048H512V1920H1536V2048H1664V1920ZM128 1792V1536H1920V1792H1664V1664H1536V1792H512V1664H384V1792ZM1920 128V1408H128V128ZM1216 1280Q1282 1280 1340.0 1254.5Q1398 1229 1441.5 1185.5Q1485 1142 1510.5 1084.0Q1536 1026 1536 960Q1536 894 1510.5 835.5Q1485 777 1441.5 733.5Q1398 690 1340.0 665.0Q1282 640 1216 640Q1193 640 1171 643L840 312Q813 285 777.5 270.5Q742 256 704 256Q664 256 629.0 271.0Q594 286 568.0 312.0Q542 338 527.0 373.0Q512 408 512 448Q512 486 526.5 521.5Q541 557 568 584L899 915Q896 937 896 960Q896 1026 921.0 1084.0Q946 1142 989.5 1185.5Q1033 1229 1091.5 1254.5Q1150 1280 1216 1280ZM1216 768Q1256 768 1291.0 783.0Q1326 798 1352.0 824.0Q1378 850 1393.0 885.0Q1408 920 1408 960Q1408 1001 1389 1042L1243 896H1152V987L1298 1133Q1257 1152 1216 1152Q1176 1152 1141.0 1137.0Q1106 1122 1080.0 1096.0Q1054 1070 1039.0 1035.0Q1024 1000 1024 960Q1024 919 1043 878L659 493Q640 474 640 448Q640 422 659.0 403.0Q678 384 704 384Q730 384 749 403L1134 787Q1175 768 1216 768Z" transform="scale(1,-1)"/>
</svg>