<?xml version="1.0" encoding="UTF-8"?>
<svg xmlns="http://www.w3.org/2000/svg" viewBox="0 -2048 2048 2048">
  <path d="M1792 2048Q1845 2048 1891.5 2028.0Q1938 2008 1973.0 1973.0Q2008 1938 2028.0 1891.5Q2048 1845 2048 1792Q2048 1739 2028.0 1692.5Q2008 1646 1973.0 1611.0Q1938 1576 1891.5 1556.0Q1845 1536 1792 1536H1664V256Q1664 203 1644.0 156.5Q1624 110 1589.0 75.0Q1554 40 1507.5 20.0Q1461 0 1408 0H256Q203 0 156.5 20.0Q110 40 75.0 75.0Q40 110 20.0 156.5Q0 203 0 256Q0 309 20.0 355.5Q40 402 75.0 437.0Q110 472 156.5 492.0Q203 512 256 512V1792Q256 1845 276.0 1891.5Q296 1938 331.0 1973.0Q366 2008 412.5 2028.0Q459 2048 512 2048ZM1186 128Q1152 188 1152 256Q1152 324 1186 384H256Q229 384 206.0 374.0Q183 364 165.5 346.5Q148 329 138.0 306.0Q128 283 128 256Q128 229 138.0 206.0Q148 183 165.5 165.5Q183 148 206.0 138.0Q229 128 256 128ZM1408 128Q1435 128 1458.0 138.0Q1481 148 1498.5 165.5Q1516 183 1526.0 206.0Q1536 229 1536 256V1792Q1536 1860 1570 1920H512Q485 1920 462.0 1910.0Q439 1900 421.5 1882.5Q404 1865 394.0 1842.0Q384 1819 384 1792V512H1408Q1434 512 1453.0 493.0Q1472 474 1472 448Q1472 422 1453.0 403.0Q1434 384 1408 384Q1383 384 1359.0 374.5Q1335 365 1317 347Q1299 329 1289.5 305.0Q1280 281 1280 256Q1280 229 1290.0 206.0Q1300 183 1317.5 165.5Q1335 148 1358.0 138.0Q1381 128 1408 128ZM1792 1664Q1819 1664 1842.0 1674.0Q1865 1684 1882.5 1701.5Q1900 1719 1910.0 1742.0Q1920 1765 1920 1792Q1920 1819 1910.0 1842.0Q1900 1865 1882.5 1882.5Q1865 1900 1842.0 1910.0Q1819 1920 1792 1920Q1765 1920 1742.0 1910.0Q1719 1900 1701.5 1882.5Q1684 1865 1674.0 1842.0Q1664 1819 1664 1792V1664ZM512 1664H1408V1536H512ZM512 1408H1408V1280H512ZM512 1152H1408V1024H512ZM512 896H1408V768H512Z" transform="scale(1,-1)"/>
</svg>