<?xml version="1.0" encoding="UTF-8"?>
<svg xmlns="http://www.w3.org/2000/svg" viewBox="128 -2048 1792 2048">
  <path d="M128 0Q128 143 169.5 275.0Q211 407 288.0 518.0Q365 629 474.5 713.0Q584 797 720 845Q642 887 580.0 947.0Q518 1007 474.5 1080.0Q431 1153 407.5 1236.5Q384 1320 384 1408Q384 1496 407.0 1578.0Q430 1660 471.5 1731.0Q513 1802 571.5 1860.5Q630 1919 701.0 1960.5Q772 2002 854.0 2025.0Q936 2048 1024 2048Q1112 2048 1194.0 2025.0Q1276 2002 1347.0 1960.5Q1418 1919 1476.5 1860.5Q1535 1802 1576.5 1731.0Q1618 1660 1641.0 1578.0Q1664 1496 1664 1408Q1664 1320 1640.5 1236.5Q1617 1153 1573.5 1080.0Q1530 1007 1468.0 947.0Q1406 887 1328 845Q1463 797 1572.5 713.0Q1682 629 1759.5 518.0Q1837 407 1878.5 275.0Q1920 143 1920 0H128Z" transform="scale(1,-1)"/>
</svg>