<?xml version="1.0" encoding="UTF-8"?>
<svg xmlns="http://www.w3.org/2000/svg" viewBox="0 -2048 2048 2048">
  <path d="M1301 938Q1274 921 1248.5 902.5Q1223 884 1200 861Q1111 941 999.5 982.5Q888 1024 768 1024Q634 1024 517.0 974.5Q400 925 313.5 838.5Q227 752 177.5 635.0Q128 518 128 384H0Q0 504 35.0 616.0Q70 728 135.0 822.5Q200 917 291.5 989.0Q383 1061 497 1103Q442 1138 397.5 1185.5Q353 1233 321.5 1289.0Q290 1345 273.0 1407.5Q256 1470 256 1536Q256 1642 296.5 1735.0Q337 1828 406.5 1897.5Q476 1967 569.0 2007.5Q662 2048 768 2048Q874 2048 967.0 2007.5Q1060 1967 1129.5 1897.5Q1199 1828 1239.5 1735.0Q1280 1642 1280 1536Q1280 1470 1263.0 1407.5Q1246 1345 1214.5 1289.0Q1183 1233 1138.5 1185.5Q1094 1138 1039 1103Q1113 1077 1178.5 1034.5Q1244 992 1301 938ZM384 1536Q384 1457 414.5 1387.0Q445 1317 497.0 1265.0Q549 1213 619.0 1182.5Q689 1152 768 1152Q847 1152 917.0 1182.5Q987 1213 1039.0 1265.0Q1091 1317 1121.5 1387.0Q1152 1457 1152 1536Q1152 1615 1121.5 1685.0Q1091 1755 1039.0 1807.0Q987 1859 917.0 1889.5Q847 1920 768 1920Q689 1920 619.0 1889.5Q549 1859 497.0 1807.0Q445 1755 414.5 1685.0Q384 1615 384 1536ZM1600 896Q1693 896 1774.5 860.5Q1856 825 1916.5 764.5Q1977 704 2012.5 622.5Q2048 541 2048 448Q2048 355 2012.5 273.5Q1977 192 1916.5 131.5Q1856 71 1774.5 35.5Q1693 0 1600 0Q1507 0 1425.5 35.5Q1344 71 1283.5 131.5Q1223 192 1187.5 273.5Q1152 355 1152 448Q1152 541 1187.5 622.5Q1223 704 1283.5 764.5Q1344 825 1425.5 860.5Q1507 896 1600 896ZM1600 128Q1647 128 1692.0 141.5Q1737 155 1776 181L1333 624Q1307 585 1293.5 540.0Q1280 495 1280 448Q1280 382 1305.5 324.0Q1331 266 1374.5 222.5Q1418 179 1476.0 153.5Q1534 128 1600 128ZM1867 272Q1893 311 1906.5 356.0Q1920 401 1920 448Q1920 514 1894.5 572.0Q1869 630 1825.5 673.5Q1782 717 1724.0 742.5Q1666 768 1600 768Q1553 768 1508.0 754.5Q1463 741 1424 715Z" transform="scale(1,-1)"/>
</svg>