<?xml version="1.0" encoding="UTF-8"?>
<svg xmlns="http://www.w3.org/2000/svg" viewBox="0 -2048 2047 2048">
  <path d="M1536 574Q1536 614 1521.5 649.0Q1507 684 1481.5 710.5Q1456 737 1421.0 752.5Q1386 768 1346 768H1092Q1051 768 1016.5 752.5Q982 737 956.5 711.0Q931 685 916.5 649.5Q902 614 902 574Q902 509 939.0 460.0Q976 411 1036 390Q1033 371 1031.0 353.0Q1029 335 1029 316Q1029 302 1030.5 287.0Q1032 272 1034 258Q977 269 929.0 298.0Q881 327 847.0 369.0Q813 411 794.0 463.5Q775 516 775 574Q775 640 799.5 698.5Q824 757 867.0 801.0Q910 845 968.0 871.0Q1026 897 1092 897H1346Q1412 897 1469.5 871.0Q1527 845 1570.0 800.5Q1613 756 1638.0 697.5Q1663 639 1663 574Q1663 518 1644.5 466.0Q1626 414 1592.0 371.5Q1558 329 1511.5 299.0Q1465 269 1409 259V393Q1466 416 1501.0 463.5Q1536 511 1536 574ZM2047 325Q2047 259 2022.0 199.5Q1997 140 1953.5 96.0Q1910 52 1852.0 26.0Q1794 0 1727 0H1471Q1405 0 1346.5 26.0Q1288 52 1244.5 96.5Q1201 141 1176.0 200.0Q1151 259 1151 325Q1151 381 1170.0 434.0Q1189 487 1223.0 530.0Q1257 573 1304.0 603.0Q1351 633 1407 644V510Q1378 499 1354.5 480.5Q1331 462 1314.5 437.5Q1298 413 1288.5 384.0Q1279 355 1279 325Q1279 285 1294.0 249.5Q1309 214 1335.0 187.0Q1361 160 1396.0 144.5Q1431 129 1471 129H1727Q1767 129 1802.0 145.0Q1837 161 1863.0 188.0Q1889 215 1904.0 250.5Q1919 286 1919 325Q1919 356 1909.0 386.0Q1899 416 1881.5 441.0Q1864 466 1839.0 484.5Q1814 503 1784 512Q1787 530 1789.0 548.5Q1791 567 1791 586Q1791 601 1789.0 615.5Q1787 630 1785 644Q1842 633 1890.5 603.5Q1939 574 1973.5 531.5Q2008 489 2027.5 436.0Q2047 383 2047 325ZM649 512Q654 477 663.0 445.5Q672 414 688 383H256V512ZM256 768H689Q681 756 674.5 740.0Q668 724 663.0 706.0Q658 688 654.5 670.5Q651 653 649 639H256ZM776 895H256V1024H1088Q997 1024 919.0 991.0Q841 958 776 895ZM256 1536H897V1407H256ZM256 1151V1280H1409V1151ZM1071 126Q1087 94 1107.0 64.5Q1127 35 1153 9V0H0V2048H1116L1665 1499V895H1655Q1629 921 1598.5 941.0Q1568 961 1536 978V1407H1024V1919H127V129Q143 129 196.0 129.0Q249 129 324.0 129.5Q399 130 488.0 130.0Q577 130 666 130Q744 130 815.5 130.0Q887 130 942.5 129.5Q998 129 1033.0 128.0Q1068 127 1071 126ZM1153 1829V1536H1446Z" transform="scale(1,-1)"/>
</svg>