<?xml version="1.0" encoding="UTF-8"?>
<svg xmlns="http://www.w3.org/2000/svg" viewBox="0 -2048 2048 2048">
  <path d="M896 1536H1024V1024H896ZM512 1280H0V1792H128V1518Q195 1641 291.0 1739.0Q387 1837 503.5 1905.5Q620 1974 752.0 2011.0Q884 2048 1024 2048Q1165 2048 1296.0 2011.5Q1427 1975 1541.0 1908.5Q1655 1842 1748.5 1748.5Q1842 1655 1908.5 1541.0Q1975 1427 2011.5 1296.0Q2048 1165 2048 1024H1920Q1920 1147 1888.0 1261.5Q1856 1376 1797.5 1475.5Q1739 1575 1657.0 1657.0Q1575 1739 1475.5 1797.5Q1376 1856 1261.5 1888.0Q1147 1920 1024 1920Q895 1920 773.0 1884.0Q651 1848 545.5 1781.0Q440 1714 355.0 1619.5Q270 1525 215 1408H512ZM1024 896H2048V768H1024ZM1024 512H2048V384H1024ZM1024 128H2048V0H1024ZM161 785Q197 656 266.5 546.0Q336 436 432.0 351.5Q528 267 646.0 212.0Q764 157 896 138V8Q742 29 604.0 91.0Q466 153 354.0 249.5Q242 346 160.5 473.5Q79 601 38 751Z" transform="scale(1,-1)"/>
</svg>