<?xml version="1.0" encoding="UTF-8"?>
<svg xmlns="http://www.w3.org/2000/svg" viewBox="0 -1920 2048 1792">
  <path d="M2048 1664 1920 1152H1664V128H384V1152H128L0 1664L768 1920Q768 1867 788.0 1820.5Q808 1774 843.0 1739.0Q878 1704 924.5 1684.0Q971 1664 1024 1664Q1077 1664 1123.5 1684.0Q1170 1704 1205.0 1739.0Q1240 1774 1260.0 1820.5Q1280 1867 1280 1920ZM228 1280H366L280 1623L153 1580ZM1536 256V384H512V256ZM1536 987Q1536 1021 1534.5 1049.5Q1533 1078 1532.5 1105.5Q1532 1133 1532.5 1161.0Q1533 1189 1536 1224Q1538 1246 1542.0 1263.5Q1546 1281 1551.0 1297.5Q1556 1314 1561.5 1331.5Q1567 1349 1573 1370L1646 1663L1371 1755Q1347 1705 1310.5 1664.5Q1274 1624 1229.0 1595.5Q1184 1567 1131.5 1551.5Q1079 1536 1024 1536Q968 1536 916.0 1551.5Q864 1567 819.0 1595.5Q774 1624 737.5 1664.5Q701 1705 677 1755L402 1663L475 1370Q481 1349 486.5 1331.5Q492 1314 497.0 1297.5Q502 1281 506.0 1263.5Q510 1246 512 1224Q515 1189 515.5 1161.0Q516 1133 515.5 1105.5Q515 1078 513.5 1049.5Q512 1021 512 987V512H1536ZM1895 1580 1768 1623 1682 1280H1820ZM1088 768H1216V640H832V768H960V1152H832V1280H1088Z" transform="scale(1,-1)"/>
</svg>