<?xml version="1.0" encoding="UTF-8"?>
<svg xmlns="http://www.w3.org/2000/svg" viewBox="256 -1920 1789 1918">
  <path d="M1024 1793Q918 1793 824.5 1752.5Q731 1712 661.5 1642.5Q592 1573 551.5 1479.5Q511 1386 511 1280V512H1219L1347 384H1280Q1280 331 1260.0 284.5Q1240 238 1205.0 203.0Q1170 168 1123.5 148.0Q1077 128 1024 128Q971 128 924.5 148.0Q878 168 843.0 203.0Q808 238 788.0 284.5Q768 331 768 384H256V512H385V1280Q385 1368 408.0 1450.0Q431 1532 472.5 1603.0Q514 1674 572.0 1732.5Q630 1791 701.0 1832.5Q772 1874 854.0 1897.0Q936 1920 1024 1920Q1112 1920 1194.0 1897.0Q1276 1874 1347.0 1832.5Q1418 1791 1476.5 1732.5Q1535 1674 1576.5 1603.0Q1618 1532 1641.0 1450.0Q1664 1368 1664 1280V701L1537 827V1280Q1537 1386 1496.5 1479.5Q1456 1573 1386.5 1642.5Q1317 1712 1223.5 1752.5Q1130 1793 1024 1793ZM904 384Q904 359 913.5 337.5Q923 316 939.5 299.5Q956 283 977.5 273.5Q999 264 1024 264Q1049 264 1070.5 273.5Q1092 283 1108.5 299.5Q1125 316 1134.5 337.5Q1144 359 1144 384ZM1819 320 2045 93 1955 3 1728 229 1501 2 1411 93 1638 320 1411 547 1501 637 1728 410 1955 637 2045 546Z" transform="scale(1,-1)"/>
</svg>