<?xml version="1.0" encoding="UTF-8"?>
<svg xmlns="http://www.w3.org/2000/svg" viewBox="0 -2048 2048 2048">
  <path d="M0.125 1713.0Q0.125 1647.0 25.12347412109375 1585.0Q50.1219482421875 1523.0 98.1190185546875 1475.0L1415.0386352539062 158.0L2048.0 0.0L1890.0096435546875 633.0L573.0900268554688 1950.0Q525.0929565429688 1998.0 463.09674072265625 2023.0Q401.10052490234375 2048.0 335.10455322265625 2048.0Q266.1087646484375 2048.0 205.11248779296875 2021.5Q144.1162109375 1995.0 98.61898803710938 1949.5Q53.12176513671875 1904.0 26.623382568359375 1843.0Q0.125 1782.0 0.125 1713.0ZM1722.0198974609375 620.0Q1616.0263671875 585.0 1539.5310363769531 508.5Q1463.0357055664062 432.0 1428.037841796875 326.0L347.10382080078125 1408.0L640.0859375 1701.0ZM1872.0107421875 176.0 1543.0308227539062 258.0Q1553.0302124023438 304.0 1575.5288391113281 345.0Q1598.0274658203125 386.0 1630.0255126953125 418.0Q1662.0235595703125 450.0 1703.0210571289062 472.5Q1744.0185546875 495.0 1790.0157470703125 505.0ZM256.109375 1499.0Q231.11090087890625 1524.0 208.1123046875 1546.0Q185.11370849609375 1568.0 167.11480712890625 1592.5Q149.11590576171875 1617.0 138.61654663085938 1645.5Q128.1171875 1674.0 128.1171875 1712.0Q128.1171875 1755.0 144.61618041992188 1792.5Q161.11517333984375 1830.0 189.61343383789062 1858.5Q218.1116943359375 1887.0 255.60940551757812 1903.5Q293.10711669921875 1920.0 336.1044921875 1920.0Q374.1021728515625 1920.0 402.6004333496094 1909.5Q431.09869384765625 1899.0 455.5971984863281 1881.0Q480.095703125 1863.0 502.0943603515625 1840.0Q524.093017578125 1817.0 549.0914916992188 1792.0Z" transform="scale(1,-1)"/>
</svg>