<?xml version="1.0" encoding="UTF-8"?>
<svg xmlns="http://www.w3.org/2000/svg" viewBox="384 -2048 1280 2048">
  <path d="M1024 2048Q1112 2048 1194.0 2025.0Q1276 2002 1347.0 1960.5Q1418 1919 1476.5 1860.5Q1535 1802 1576.5 1731.0Q1618 1660 1641.0 1578.0Q1664 1496 1664 1408Q1664 1339 1647.5 1276.5Q1631 1214 1600 1152L1024 0L448 1152Q417 1214 400.5 1276.5Q384 1339 384 1408Q384 1496 407.0 1578.0Q430 1660 471.5 1731.0Q513 1802 571.5 1860.5Q630 1919 701.0 1960.5Q772 2002 854.0 2025.0Q936 2048 1024 2048ZM1486 1211Q1510 1257 1523.0 1306.5Q1536 1356 1536 1408Q1536 1514 1496.0 1607.5Q1456 1701 1386.5 1770.5Q1317 1840 1223.5 1880.0Q1130 1920 1024 1920Q918 1920 824.5 1880.0Q731 1840 661.5 1770.5Q592 1701 552.0 1607.5Q512 1514 512 1408Q512 1356 525.0 1306.5Q538 1257 562 1211Q562 1210 562.5 1210.0Q563 1210 563 1209L1024 286L1486 1210ZM960 1024H1088V896H960ZM1024 1728Q1077 1728 1123.5 1708.0Q1170 1688 1205.0 1653.0Q1240 1618 1260.0 1571.5Q1280 1525 1280 1472Q1280 1422 1266.0 1385.5Q1252 1349 1230.5 1321.0Q1209 1293 1184.0 1270.0Q1159 1247 1137.5 1225.0Q1116 1203 1102.0 1178.0Q1088 1153 1088 1120H960Q960 1169 974.0 1205.5Q988 1242 1009.5 1270.5Q1031 1299 1056.0 1321.5Q1081 1344 1102.5 1367.0Q1124 1390 1138.0 1415.0Q1152 1440 1152 1472Q1152 1499 1142.0 1522.0Q1132 1545 1114.5 1562.5Q1097 1580 1074.0 1590.0Q1051 1600 1024 1600Q997 1600 974.0 1590.0Q951 1580 933.5 1562.5Q916 1545 906.0 1522.0Q896 1499 896 1472H768Q768 1525 788.0 1571.5Q808 1618 843.0 1653.0Q878 1688 924.5 1708.0Q971 1728 1024 1728Z" transform="scale(1,-1)"/>
</svg>