<?xml version="1.0" encoding="UTF-8"?>
<svg xmlns="http://www.w3.org/2000/svg" viewBox="128 -2048 1792 1920">
  <path d="M1408 256H1920V128H1280V429Q1395 470 1489.0 542.0Q1583 614 1650.5 709.0Q1718 804 1755.0 917.0Q1792 1030 1792 1152Q1792 1258 1764.5 1356.0Q1737 1454 1687.0 1539.5Q1637 1625 1567.0 1695.0Q1497 1765 1411.5 1815.0Q1326 1865 1228.0 1892.5Q1130 1920 1024 1920Q918 1920 820.0 1892.5Q722 1865 636.5 1815.0Q551 1765 481.0 1695.0Q411 1625 361.0 1539.5Q311 1454 283.5 1356.0Q256 1258 256 1152Q256 1030 293.0 917.0Q330 804 397.5 709.0Q465 614 559.0 542.0Q653 470 768 429V128H128V256H640V343Q523 399 428.5 484.0Q334 569 267.0 674.0Q200 779 164.0 900.5Q128 1022 128 1152Q128 1275 160.0 1389.5Q192 1504 250.5 1603.5Q309 1703 391.0 1785.0Q473 1867 572.5 1925.5Q672 1984 786.0 2016.0Q900 2048 1024 2048Q1147 2048 1261.5 2016.0Q1376 1984 1475.5 1925.5Q1575 1867 1657.0 1785.0Q1739 1703 1797.5 1603.5Q1856 1504 1888.0 1389.5Q1920 1275 1920 1152Q1920 1022 1884.0 900.5Q1848 779 1781.0 674.0Q1714 569 1619.5 484.0Q1525 399 1408 343Z" transform="scale(1,-1)"/>
</svg>