<?xml version="1.0" encoding="UTF-8"?>
<svg xmlns="http://www.w3.org/2000/svg" viewBox="0 -2048 2048 2048">
  <path d="M2048 1024V930Q2048 847 2047.0 765.5Q2046 684 2042 602Q2039 540 2029.5 482.0Q2020 424 2001.0 370.0Q1982 316 1951.5 266.5Q1921 217 1876 172Q1831 127 1781.5 96.5Q1732 66 1678.0 47.0Q1624 28 1566.0 18.5Q1508 9 1446 6Q1364 1 1282.5 0.5Q1201 0 1118 0H1024H930Q847 0 765.5 0.5Q684 1 602 6Q540 9 482.0 18.5Q424 28 370.0 47.0Q316 66 266.5 96.5Q217 127 172 172Q127 217 96.5 266.5Q66 316 47.0 370.0Q28 424 18.5 482.0Q9 540 6 602Q1 684 0.5 765.5Q0 847 0 930V1024V1118Q0 1201 0.5 1282.5Q1 1364 6 1446Q9 1508 18.5 1566.0Q28 1624 47.0 1678.0Q66 1732 96.5 1781.5Q127 1831 172 1876Q217 1921 266.5 1951.5Q316 1982 370.0 2001.0Q424 2020 482.0 2029.5Q540 2039 602 2042Q684 2047 765.5 2047.5Q847 2048 930 2048H1024H1118Q1201 2048 1282.5 2047.0Q1364 2046 1446 2042Q1508 2039 1566.0 2029.5Q1624 2020 1678.0 2001.0Q1732 1982 1781.5 1951.5Q1831 1921 1876 1876Q1921 1831 1951.5 1781.5Q1982 1732 2001.0 1678.0Q2020 1624 2029.5 1566.0Q2039 1508 2042 1446Q2047 1364 2047.5 1282.5Q2048 1201 2048 1118ZM1863 1024Q1863 1063 1863.5 1113.0Q1864 1163 1864 1220Q1864 1275 1862.5 1333.0Q1861 1391 1856.5 1445.0Q1852 1499 1843.5 1546.0Q1835 1593 1822 1628Q1808 1664 1791.0 1691.0Q1774 1718 1746 1746Q1718 1774 1691.0 1791.0Q1664 1808 1628 1822Q1593 1835 1546.0 1843.5Q1499 1852 1445.0 1856.5Q1391 1861 1333.0 1862.5Q1275 1864 1220 1864Q1163 1864 1113.0 1863.5Q1063 1863 1024 1863Q985 1863 934.5 1863.5Q884 1864 827 1864Q772 1864 714.5 1862.5Q657 1861 603.0 1856.5Q549 1852 502.0 1843.5Q455 1835 420 1822Q384 1808 357.0 1791.0Q330 1774 302 1746Q274 1718 257.0 1691.0Q240 1664 226 1628Q212 1593 203.5 1546.0Q195 1499 190.5 1445.0Q186 1391 184.5 1333.0Q183 1275 183 1220Q183 1163 184.0 1113.0Q185 1063 185 1024Q185 985 184.0 934.5Q183 884 183 827Q183 772 184.5 714.5Q186 657 190.5 603.0Q195 549 203.5 502.0Q212 455 226 420Q240 384 257.0 357.0Q274 330 302 302Q330 274 357.0 257.0Q384 240 420 226Q455 212 502.0 203.5Q549 195 603.0 190.5Q657 186 714.5 184.5Q772 183 827 183Q884 183 934.5 184.0Q985 185 1024 185Q1063 185 1113.0 184.0Q1163 183 1220 183Q1275 183 1333.0 184.5Q1391 186 1445.0 190.5Q1499 195 1546.0 203.5Q1593 212 1628 226Q1664 240 1691.0 257.0Q1718 274 1746 302Q1774 330 1791.0 357.0Q1808 384 1822 420Q1835 455 1843.5 502.0Q1852 549 1856.5 603.0Q1861 657 1862.5 714.5Q1864 772 1864 827Q1864 884 1863.5 934.5Q1863 985 1863 1024ZM1024 1550Q1133 1550 1228.5 1508.5Q1324 1467 1395.5 1395.5Q1467 1324 1508.5 1228.5Q1550 1133 1550 1024Q1550 915 1508.5 819.5Q1467 724 1395.5 652.5Q1324 581 1228.5 539.5Q1133 498 1024 498Q915 498 819.5 539.5Q724 581 652.5 652.5Q581 724 539.5 819.5Q498 915 498 1024Q498 1133 539.5 1228.5Q581 1324 652.5 1395.5Q724 1467 819.5 1508.5Q915 1550 1024 1550ZM1024 683Q1094 683 1156.5 710.0Q1219 737 1265.0 783.0Q1311 829 1338.0 891.0Q1365 953 1365 1024Q1365 1094 1338.0 1156.5Q1311 1219 1265.0 1265.0Q1219 1311 1156.5 1338.0Q1094 1365 1024 1365Q953 1365 891.0 1338.0Q829 1311 783.0 1265.0Q737 1219 710.0 1156.5Q683 1094 683 1024Q683 953 710.0 891.0Q737 829 783.0 783.0Q829 737 891.0 710.0Q953 683 1024 683ZM1571 1693Q1596 1693 1618.5 1683.5Q1641 1674 1657.5 1657.5Q1674 1641 1683.5 1618.5Q1693 1596 1693 1571Q1693 1546 1683.5 1523.5Q1674 1501 1657.5 1484.5Q1641 1468 1618.5 1458.0Q1596 1448 1571 1448Q1545 1448 1523.0 1457.5Q1501 1467 1484.0 1484.0Q1467 1501 1457.5 1523.0Q1448 1545 1448 1571Q1448 1596 1458.0 1618.5Q1468 1641 1484.5 1657.5Q1501 1674 1523.5 1683.5Q1546 1693 1571 1693Z" transform="scale(1,-1)"/>
</svg>