<?xml version="1.0" encoding="UTF-8"?>
<svg xmlns="http://www.w3.org/2000/svg" viewBox="0 -2048 2048 2048">
  <path d="M1024 2048Q1165 2048 1296.0 2011.5Q1427 1975 1541.0 1908.5Q1655 1842 1748.5 1748.5Q1842 1655 1908.5 1541.0Q1975 1427 2011.5 1296.0Q2048 1165 2048 1024Q2048 883 2011.5 752.0Q1975 621 1908.5 507.0Q1842 393 1748.5 299.5Q1655 206 1541.0 139.5Q1427 73 1296.0 36.5Q1165 0 1024 0Q852 0 693.5 55.0Q535 110 404.5 209.5Q274 309 178.5 447.0Q83 585 38 751L161 785Q201 640 284.5 519.5Q368 399 482.0 312.0Q596 225 735.0 176.5Q874 128 1024 128Q1147 128 1261.5 160.0Q1376 192 1475.5 250.5Q1575 309 1657.0 391.0Q1739 473 1797.5 572.5Q1856 672 1888.0 786.0Q1920 900 1920 1024Q1920 1147 1888.0 1261.5Q1856 1376 1797.5 1475.5Q1739 1575 1657.0 1657.0Q1575 1739 1475.5 1797.5Q1376 1856 1261.5 1888.0Q1147 1920 1024 1920Q895 1920 773.0 1884.0Q651 1848 545.5 1781.0Q440 1714 355.0 1619.5Q270 1525 215 1408H512V1280H0V1792H128V1518Q195 1641 291.0 1739.0Q387 1837 503.5 1905.5Q620 1974 752.0 2011.0Q884 2048 1024 2048Z" transform="scale(1,-1)"/>
</svg>