<?xml version="1.0" encoding="UTF-8"?>
<svg xmlns="http://www.w3.org/2000/svg" viewBox="0 -2048 1920 2048">
  <path d="M1603 1792 1817 1152H1920V1024H1898Q1878 967 1841.5 919.5Q1805 872 1757.5 838.5Q1710 805 1653.5 786.5Q1597 768 1536 768Q1475 768 1418.5 786.5Q1362 805 1314.5 838.5Q1267 872 1230.5 919.5Q1194 967 1174 1024H1152V1152H1255L1469 1792H1024V382Q1191 371 1340.5 306.5Q1490 242 1613 128H1792V0H128V128H307Q430 242 579.5 306.5Q729 371 896 382V1792H451L665 1152H768V1024H746Q726 967 689.5 919.5Q653 872 605.5 838.5Q558 805 501.5 786.5Q445 768 384 768Q323 768 266.5 786.5Q210 805 162.5 838.5Q115 872 78.5 919.5Q42 967 22 1024H0V1152H103L317 1792H0V1920H896V2048H1024V1920H1920V1792ZM384 1590 238 1152H530ZM384 896Q453 896 512.0 930.0Q571 964 606 1024H162Q197 964 256.0 930.0Q315 896 384 896ZM1404 128Q1304 191 1191.0 223.5Q1078 256 960 256Q842 256 729.0 223.5Q616 191 516 128ZM1536 1590 1390 1152H1682ZM1536 896Q1605 896 1664.0 930.0Q1723 964 1758 1024H1314Q1349 964 1408.0 930.0Q1467 896 1536 896Z" transform="scale(1,-1)"/>
</svg>