<?xml version="1.0" encoding="UTF-8"?>
<svg xmlns="http://www.w3.org/2000/svg" viewBox="0 -2048 2048 2048">
  <path d="M1472 896Q1565 896 1646.5 861.0Q1728 826 1789.0 765.0Q1850 704 1885.0 622.5Q1920 541 1920 448Q1920 355 1885.0 273.5Q1850 192 1789.0 131.0Q1728 70 1646.5 35.0Q1565 0 1472 0Q1379 0 1297.5 35.0Q1216 70 1155.0 131.0Q1094 192 1059.0 273.5Q1024 355 1024 448Q1024 541 1059.0 622.5Q1094 704 1155.0 765.0Q1216 826 1297.5 861.0Q1379 896 1472 896ZM1152 448Q1152 382 1177.0 323.5Q1202 265 1245.5 221.5Q1289 178 1347.5 153.0Q1406 128 1472 128Q1519 128 1564.0 141.5Q1609 155 1648 181L1205 624Q1179 585 1165.5 540.0Q1152 495 1152 448ZM1739 272Q1765 311 1778.5 356.0Q1792 401 1792 448Q1792 514 1766.5 572.0Q1741 630 1697.5 673.5Q1654 717 1596.0 742.5Q1538 768 1472 768Q1425 768 1380.0 754.5Q1335 741 1296 715ZM1712 2048Q1782 2048 1843.0 2021.5Q1904 1995 1949.5 1949.5Q1995 1904 2021.5 1843.0Q2048 1782 2048 1712Q2048 1646 2023.0 1584.5Q1998 1523 1950 1475L1499 1024H1317L1701 1408L1408 1701L326 620Q378 603 424.5 575.0Q471 547 509.0 509.0Q547 471 575.0 424.5Q603 378 620 326L896 603V421L633 158L0 0L158 633Q161 636 164.5 639.0Q168 642 171 645L1475 1950Q1523 1998 1584.5 2023.0Q1646 2048 1712 2048ZM505 258Q495 304 472.5 345.0Q450 386 418.0 418.0Q386 450 345.0 472.5Q304 495 258 505L176 176ZM1792 1499Q1817 1524 1840.0 1546.0Q1863 1568 1881.0 1592.5Q1899 1617 1909.5 1645.5Q1920 1674 1920 1712Q1920 1755 1903.5 1793.0Q1887 1831 1859.0 1859.0Q1831 1887 1793.0 1903.5Q1755 1920 1712 1920Q1674 1920 1645.5 1909.5Q1617 1899 1592.5 1881.0Q1568 1863 1546.0 1840.0Q1524 1817 1499 1792Z" transform="scale(1,-1)"/>
</svg>