<?xml version="1.0" encoding="UTF-8"?>
<svg xmlns="http://www.w3.org/2000/svg" viewBox="384 -2048 1280 2048">
  <path d="M1024 2048Q1112 2048 1194.0 2025.0Q1276 2002 1347.0 1960.5Q1418 1919 1476.5 1860.5Q1535 1802 1576.5 1731.0Q1618 1660 1641.0 1578.0Q1664 1496 1664 1408Q1664 1339 1647.5 1276.5Q1631 1214 1600 1152L1024 0L448 1152Q417 1214 400.5 1276.5Q384 1339 384 1408Q384 1496 407.0 1578.0Q430 1660 471.5 1731.0Q513 1802 571.5 1860.5Q630 1919 701.0 1960.5Q772 2002 854.0 2025.0Q936 2048 1024 2048ZM1486 1211Q1510 1257 1523.0 1306.5Q1536 1356 1536 1408Q1536 1514 1496.0 1607.5Q1456 1701 1386.5 1770.5Q1317 1840 1223.5 1880.0Q1130 1920 1024 1920Q918 1920 824.5 1880.0Q731 1840 661.5 1770.5Q592 1701 552.0 1607.5Q512 1514 512 1408Q512 1356 525.0 1306.5Q538 1257 562 1211Q562 1210 562.5 1210.0Q563 1210 563 1209L1024 286L1486 1210ZM1235 1581 1325 1491 960 1126 723 1363 813 1453 960 1306Z" transform="scale(1,-1)"/>
</svg>