<?xml version="1.0" encoding="UTF-8"?>
<svg xmlns="http://www.w3.org/2000/svg" viewBox="512 -1920 1536 1920">
  <path d="M2048 768V0H1024V768ZM1920 441 1536 248 1152 441V128H1920ZM1920 640H1152V583L1536 392L1920 583ZM640 256H896V128H512V1792Q512 1819 522.0 1842.0Q532 1865 549.5 1882.5Q567 1900 590.0 1910.0Q613 1920 640 1920H1408Q1435 1920 1458.0 1910.0Q1481 1900 1498.5 1882.5Q1516 1865 1526.0 1842.0Q1536 1819 1536 1792V896H1408V1792H640ZM768 1536V1664H1280V1536ZM768 768H896V640H768ZM768 512H896V384H768Z" transform="scale(1,-1)"/>
</svg>