<?xml version="1.0" encoding="UTF-8"?>
<svg xmlns="http://www.w3.org/2000/svg" viewBox="0 -2048 2048 2048">
  <path d="M128 1408H0V1536H128ZM128 1152H0V1280H128ZM128 896H0V1024H128ZM128 640H0V768H128ZM128 384H0V512H128ZM128 256V128H0V256ZM128 128H256V0H128ZM384 128H512V0H384ZM640 128H768V0H640ZM128 1920H0V2048H128ZM384 1920H256V2048H384ZM640 1920H512V2048H640ZM896 1920H768V2048H896ZM1152 1920H1024V2048H1152ZM1408 1920H1280V2048H1408ZM1408 1792V1920H1536V1792ZM128 1664H0V1792H128ZM2048 1280V0H896V1280H1216Q1216 1333 1236.0 1379.5Q1256 1426 1291.0 1461.0Q1326 1496 1372.5 1516.0Q1419 1536 1472 1536Q1525 1536 1571.5 1516.0Q1618 1496 1653.0 1461.0Q1688 1426 1708.0 1379.5Q1728 1333 1728 1280ZM1152 1024H1792V1152H1600V1280Q1600 1307 1590.0 1330.0Q1580 1353 1562.5 1370.5Q1545 1388 1522.0 1398.0Q1499 1408 1472 1408Q1445 1408 1422.0 1398.0Q1399 1388 1381.5 1370.5Q1364 1353 1354.0 1330.0Q1344 1307 1344 1280V1152H1152ZM1920 896H1024V128H1920Z" transform="scale(1,-1)"/>
</svg>