<?xml version="1.0" encoding="UTF-8"?>
<svg xmlns="http://www.w3.org/2000/svg" viewBox="0 -1920 2048 1664">
  <path d="M690 701Q690 724 705.0 739.0Q720 754 743 754Q755 754 766.0 748.0Q777 742 786.0 735.0Q795 728 802.5 722.0Q810 716 817 716Q827 716 843.5 731.5Q860 747 878.5 771.0Q897 795 917.0 824.5Q937 854 954.0 881.5Q971 909 983.0 931.5Q995 954 1000 965Q992 999 983.0 1032.0Q974 1065 966 1099Q958 1130 948.5 1153.5Q939 1177 924.5 1193.0Q910 1209 890.5 1217.5Q871 1226 843 1226Q833 1226 822.5 1225.0Q812 1224 801 1222V1247L985 1280Q1006 1257 1020.5 1233.5Q1035 1210 1044.5 1185.5Q1054 1161 1061.0 1134.5Q1068 1108 1076 1078Q1091 1100 1113.5 1134.5Q1136 1169 1164.5 1201.0Q1193 1233 1225.5 1256.5Q1258 1280 1292 1280Q1317 1280 1337.0 1266.5Q1357 1253 1357 1226Q1357 1172 1303 1172Q1283 1172 1266.0 1181.0Q1249 1190 1229 1190Q1210 1190 1189.0 1171.0Q1168 1152 1148.5 1126.0Q1129 1100 1113.0 1073.5Q1097 1047 1087 1032L1144 795Q1145 788 1148.0 775.5Q1151 763 1156.0 750.5Q1161 738 1168.0 728.5Q1175 719 1184 719Q1196 719 1211.5 730.5Q1227 742 1241.0 758.0Q1255 774 1266.5 790.5Q1278 807 1282 818L1306 806Q1298 787 1278.0 759.0Q1258 731 1232.5 704.5Q1207 678 1180.5 659.0Q1154 640 1132 640Q1110 640 1095.5 653.0Q1081 666 1070 683Q1061 699 1053.0 729.5Q1045 760 1038.0 794.5Q1031 829 1024.5 862.0Q1018 895 1011 915Q1000 895 984.5 867.0Q969 839 949.0 808.5Q929 778 906.0 747.5Q883 717 858.0 693.5Q833 670 807.5 655.0Q782 640 757 640Q731 640 710.5 657.0Q690 674 690 701ZM1516 640Q1570 709 1599.0 789.5Q1628 870 1628 958Q1628 1048 1599.0 1128.0Q1570 1208 1516 1280H1610Q1728 1141 1728 958Q1728 867 1699.5 788.0Q1671 709 1610 640ZM0 1920H2048V256H0ZM1920 384V1408H128V384ZM1920 1536V1792H128V1536ZM438 640Q376 708 348.0 787.5Q320 867 320 958Q320 1141 438 1280H531Q477 1210 448.5 1128.5Q420 1047 420 958Q420 871 448.5 790.0Q477 709 531 640Z" transform="scale(1,-1)"/>
</svg>