<?xml version="1.0" encoding="UTF-8"?>
<svg xmlns="http://www.w3.org/2000/svg" viewBox="0 -2048 2048 2046">
  <path d="M1280 1152H256V1792H1280ZM1152 1664H384V1280H1152ZM2048 1408V384H896V512H1920V1280H1536V896H768V640L640 768V896H0V2048H1536V1408ZM1408 1920H128V1024H1408ZM464 634 779 320 460 2 386 76 565 256H384Q304 256 234.5 286.0Q165 316 112.5 368.5Q60 421 30.0 490.5Q0 560 0 640H128Q128 587 148.0 540.5Q168 494 203.0 459.0Q238 424 284.5 404.0Q331 384 384 384H565L390 560Z" transform="scale(1,-1)"/>
</svg>