<?xml version="1.0" encoding="UTF-8"?>
<svg xmlns="http://www.w3.org/2000/svg" viewBox="0 -2048 2048 2048">
  <path d="M768 896V1024H896V896ZM1280 1408V1280H1152V1408ZM896 1408V1280H768V1408ZM1763 458Q1828 426 1881.0 377.5Q1934 329 1971.0 269.5Q2008 210 2028.0 141.5Q2048 73 2048 0H1920Q1920 79 1890.0 149.0Q1860 219 1807.5 271.5Q1755 324 1685.0 354.0Q1615 384 1536 384Q1456 384 1386.5 354.0Q1317 324 1264.5 271.5Q1212 219 1182.0 149.0Q1152 79 1152 0H1024Q1024 73 1044.0 141.5Q1064 210 1101.0 269.5Q1138 329 1191.0 377.5Q1244 426 1309 458Q1235 512 1193.5 593.5Q1152 675 1152 768Q1152 847 1182.0 917.0Q1212 987 1264.5 1039.5Q1317 1092 1386.5 1122.0Q1456 1152 1536 1152V1536H128V640H256V512H0V2048H1664V1130Q1718 1110 1764.0 1076.0Q1810 1042 1845 995Q1883 943 1901.0 885.5Q1919 828 1919 768Q1919 679 1879.5 597.0Q1840 515 1763 458ZM128 1664H1536V1920H128ZM1536 512Q1589 512 1635.5 532.0Q1682 552 1717.0 587.0Q1752 622 1772.0 668.5Q1792 715 1792 768Q1792 821 1772.0 867.5Q1752 914 1717.0 949.0Q1682 984 1635.5 1004.0Q1589 1024 1536 1024Q1483 1024 1436.5 1004.0Q1390 984 1355.0 949.0Q1320 914 1300.0 867.5Q1280 821 1280 768Q1280 715 1300.0 668.5Q1320 622 1355.0 587.0Q1390 552 1436.5 532.0Q1483 512 1536 512ZM1056 448 785 177 694 267 811 384H384V1163L267 1046L177 1137L448 1408L719 1137L629 1046L512 1163V512H811L694 629L785 719Z" transform="scale(1,-1)"/>
</svg>