<?xml version="1.0" encoding="UTF-8"?>
<svg xmlns="http://www.w3.org/2000/svg" viewBox="0 -1792 2048 1790">
  <path d="M896 640H1024V512H896ZM960 1600Q1026 1600 1084.0 1574.5Q1142 1549 1184.5 1505.5Q1227 1462 1251.5 1404.0Q1276 1346 1276 1280Q1276 1217 1257.5 1171.5Q1239 1126 1211.0 1091.0Q1183 1056 1150.0 1027.5Q1117 999 1089.0 970.0Q1061 941 1042.5 908.0Q1024 875 1024 832V768H896V832Q896 892 915.0 936.5Q934 981 962.5 1016.5Q991 1052 1024.0 1081.5Q1057 1111 1085.5 1140.5Q1114 1170 1133.0 1203.5Q1152 1237 1152 1280Q1152 1320 1137.0 1355.0Q1122 1390 1096.0 1416.0Q1070 1442 1035.0 1457.0Q1000 1472 960 1472Q920 1472 885.0 1457.0Q850 1442 824.0 1416.0Q798 1390 783.0 1355.0Q768 1320 768 1280H640Q640 1346 665.0 1404.0Q690 1462 733.5 1505.5Q777 1549 835.5 1574.5Q894 1600 960 1600ZM0 1792H512V1664H128V1280H0ZM2048 1792V1280H1920V1664H1536V1792ZM128 512H512V384H0V896H128ZM2045 546 1819 320 2045 93 1955 3 1728 229 1501 2 1411 93 1638 320 1411 547 1501 637 1728 410 1955 637Z" transform="scale(1,-1)"/>
</svg>