<?xml version="1.0" encoding="UTF-8"?>
<svg xmlns="http://www.w3.org/2000/svg" viewBox="0 -2048 2048 2048">
  <path d="M1152 1421V499Q1152 475 1143.0 454.5Q1134 434 1118.0 418.0Q1102 402 1081.5 393.0Q1061 384 1037 384H512V128H1137Q1129 96 1124.5 64.0Q1120 32 1120 0H512Q485 0 462.0 10.0Q439 20 421.5 37.5Q404 55 394.0 78.0Q384 101 384 128V384H115Q91 384 70.5 393.0Q50 402 34.0 418.0Q18 434 9.0 454.5Q0 475 0 499V1421Q0 1445 9.0 1465.5Q18 1486 34.0 1502.0Q50 1518 70.5 1527.0Q91 1536 115 1536H384V1920Q384 1947 394.0 1970.0Q404 1993 421.5 2010.5Q439 2028 462.0 2038.0Q485 2048 512 2048H1664Q1691 2048 1714.0 2038.0Q1737 2028 1754.5 2010.5Q1772 1993 1782.0 1970.0Q1792 1947 1792 1920V1792H1920Q1947 1792 1970.0 1782.0Q1993 1772 2010.5 1754.5Q2028 1737 2038.0 1714.0Q2048 1691 2048 1664V1280Q2048 1253 2038.0 1230.0Q2028 1207 2010.5 1189.5Q1993 1172 1970.0 1162.0Q1947 1152 1920 1152H1792V906Q1761 916 1729.0 922.0Q1697 928 1664 928V1280H1920V1664H1664V1920H512V1536H1037Q1061 1536 1081.5 1527.0Q1102 1518 1118.0 1502.0Q1134 1486 1143.0 1465.5Q1152 1445 1152 1421ZM912 598V1322H756Q756 1206 756.5 1090.5Q757 975 757 859L409 1322H240V598H396V1071Q402 1063 420.0 1039.0Q438 1015 464.0 981.5Q490 948 521.0 907.0Q552 866 583.5 824.5Q615 783 645.0 743.5Q675 704 698.5 672.5Q722 641 736.5 621.0Q751 601 752 598ZM1850 336Q1896 311 1932.5 275.0Q1969 239 1994.5 195.0Q2020 151 2034.0 101.5Q2048 52 2048 0H1920Q1920 53 1900.0 99.5Q1880 146 1845.0 181.0Q1810 216 1763.5 236.0Q1717 256 1664 256Q1611 256 1564.5 236.0Q1518 216 1483.0 181.0Q1448 146 1428.0 99.5Q1408 53 1408 0H1280Q1280 52 1294.0 101.5Q1308 151 1333.5 195.0Q1359 239 1395.5 275.0Q1432 311 1478 336Q1445 371 1426.5 417.0Q1408 463 1408 512Q1408 565 1428.0 611.5Q1448 658 1483.0 693.0Q1518 728 1564.5 748.0Q1611 768 1664 768Q1717 768 1763.5 748.0Q1810 728 1845.0 693.0Q1880 658 1900.0 611.5Q1920 565 1920 512Q1920 463 1901.5 417.0Q1883 371 1850 336ZM1536 512Q1536 485 1546.0 462.0Q1556 439 1573.5 421.5Q1591 404 1614.0 394.0Q1637 384 1664 384Q1691 384 1714.0 394.0Q1737 404 1754.5 421.5Q1772 439 1782.0 462.0Q1792 485 1792 512Q1792 539 1782.0 562.0Q1772 585 1754.5 602.5Q1737 620 1714.0 630.0Q1691 640 1664 640Q1637 640 1614.0 630.0Q1591 620 1573.5 602.5Q1556 585 1546.0 562.0Q1536 539 1536 512Z" transform="scale(1,-1)"/>
</svg>