<?xml version="1.0" encoding="UTF-8"?>
<svg xmlns="http://www.w3.org/2000/svg" viewBox="0 -2048 2048 2048">
  <path d="M768 896H640V1408H768ZM640 768H768V640H640ZM2048 0H896L1472 1152ZM1077 112H1867L1472 902ZM1536 640V320H1408V640ZM1408 256H1536V128H1408ZM128 128H817Q801 96 785.5 64.0Q770 32 753 0H0V2048H1536Q1563 2048 1586.0 2038.0Q1609 2028 1626.5 2010.5Q1644 1993 1654.0 1970.0Q1664 1947 1664 1920V1440Q1664 1377 1641.0 1325.5Q1618 1274 1577 1228L1512 1358Q1523 1377 1529.5 1397.5Q1536 1418 1536 1440V1920H1408V1440Q1408 1418 1414.5 1397.5Q1421 1377 1432 1358L1367 1228Q1326 1274 1303.0 1325.5Q1280 1377 1280 1440V1920H128Z" transform="scale(1,-1)"/>
</svg>