<?xml version="1.0" encoding="UTF-8"?>
<svg xmlns="http://www.w3.org/2000/svg" viewBox="0 -2048 2048 2048">
  <path d="M1206 912Q1202 903 1187.5 874.0Q1173 845 1154.0 806.0Q1135 767 1113.0 723.5Q1091 680 1072.5 642.5Q1054 605 1041.0 579.5Q1028 554 1026 551Q1007 526 989.0 507.5Q971 489 953.0 472.5Q935 456 916.0 439.0Q897 422 875 400L573 98Q525 50 463.5 25.0Q402 0 335 0Q266 0 205.0 26.5Q144 53 98.5 98.5Q53 144 26.5 205.0Q0 266 0 335Q0 402 25.0 463.5Q50 525 98 573L904 1379Q899 1402 897.5 1425.5Q896 1449 896 1472Q896 1591 941.5 1696.0Q987 1801 1065.0 1879.0Q1143 1957 1248.0 2002.5Q1353 2048 1472 2048Q1526 2048 1571.5 2039.5Q1617 2031 1659.0 2015.0Q1701 1999 1742.0 1977.5Q1783 1956 1828 1930L1434 1536L1536 1434L1930 1828Q1956 1783 1977.5 1742.0Q1999 1701 2015.0 1659.0Q2031 1617 2039.5 1571.5Q2048 1526 2048 1472Q2048 1389 2025.0 1310.5Q2002 1232 1959.0 1164.0Q1916 1096 1855.0 1041.5Q1794 987 1718 952L1661 1067Q1721 1095 1768.5 1137.0Q1816 1179 1850.0 1231.0Q1884 1283 1902.0 1344.0Q1920 1405 1920 1472Q1920 1545 1896 1613L1536 1254L1254 1536L1613 1896Q1545 1920 1472 1920Q1379 1920 1297.5 1884.5Q1216 1849 1155.5 1788.5Q1095 1728 1059.5 1646.5Q1024 1565 1024 1472Q1024 1437 1030.0 1404.0Q1036 1371 1044 1338L189 482Q160 453 144.0 415.0Q128 377 128 335Q128 293 144.5 255.0Q161 217 189.0 189.0Q217 161 255.0 144.5Q293 128 335 128Q377 128 415.0 144.0Q453 160 482 189ZM1408 640H1536V320H1408ZM1408 256H1536V128H1408ZM1472 1152 2048 0H896ZM1867 112 1472 902 1077 112Z" transform="scale(1,-1)"/>
</svg>