<?xml version="1.0" encoding="UTF-8"?>
<svg xmlns="http://www.w3.org/2000/svg" viewBox="0 -2048 1920 2048">
  <path d="M962 1050 1493 1581 1583 1491 962 870 597 1235 687 1325ZM1920 1856V0H320Q280 0 245.0 15.0Q210 30 184.0 56.0Q158 82 143.0 117.0Q128 152 128 192V512H98Q80 512 62.5 513.5Q45 515 31.0 521.5Q17 528 8.5 541.0Q0 554 0 576Q0 598 8.5 611.0Q17 624 31.0 630.5Q45 637 62.5 638.5Q80 640 98 640H128V896H98Q80 896 62.5 897.5Q45 899 31.0 905.5Q17 912 8.5 925.0Q0 938 0 960Q0 982 8.5 995.0Q17 1008 31.0 1014.5Q45 1021 62.5 1022.5Q80 1024 98 1024H128V1280H98Q80 1280 62.5 1281.5Q45 1283 31.0 1289.5Q17 1296 8.5 1309.0Q0 1322 0 1344Q0 1366 8.5 1379.0Q17 1392 31.0 1398.5Q45 1405 62.5 1406.5Q80 1408 98 1408H128V1664H98Q80 1664 62.5 1665.5Q45 1667 31.0 1673.5Q17 1680 8.5 1693.0Q0 1706 0 1728Q0 1750 8.5 1763.0Q17 1776 31.0 1782.5Q45 1789 62.5 1790.5Q80 1792 98 1792H128V1834Q128 1859 130.0 1883.0Q132 1907 143 1931Q166 1985 213.5 2016.5Q261 2048 320 2048H1728Q1768 2048 1803.0 2033.0Q1838 2018 1864.0 1992.0Q1890 1966 1905.0 1931.0Q1920 1896 1920 1856ZM1792 128V256H256V192Q256 166 275.0 147.0Q294 128 320 128ZM1792 384V1856Q1792 1882 1773.0 1901.0Q1754 1920 1728 1920H320Q298 1920 285.0 1911.5Q272 1903 265.5 1889.5Q259 1876 257.0 1859.5Q255 1843 255 1826Q255 1817 255.5 1808.5Q256 1800 256 1792H286Q303 1792 320.5 1790.5Q338 1789 352.0 1782.5Q366 1776 375.0 1763.0Q384 1750 384 1728Q384 1706 375.0 1693.0Q366 1680 352.0 1673.5Q338 1667 320.5 1665.5Q303 1664 286 1664H256V1408H286Q303 1408 320.5 1406.5Q338 1405 352.0 1398.5Q366 1392 375.0 1379.0Q384 1366 384 1344Q384 1322 375.0 1309.0Q366 1296 352.0 1289.5Q338 1283 320.5 1281.5Q303 1280 286 1280H256V1024H286Q303 1024 320.5 1022.5Q338 1021 352.0 1014.5Q366 1008 375.0 995.0Q384 982 384 960Q384 938 375.0 925.0Q366 912 352.0 905.5Q338 899 320.5 897.5Q303 896 286 896H256V640H286Q303 640 320.5 638.5Q338 637 352.0 630.5Q366 624 375.0 611.0Q384 598 384 576Q384 554 375.0 541.0Q366 528 352.0 521.5Q338 515 320.5 513.5Q303 512 286 512H256V384Z" transform="scale(1,-1)"/>
</svg>