<?xml version="1.0" encoding="UTF-8"?>
<svg xmlns="http://www.w3.org/2000/svg" viewBox="0 -2048 2048 2048">
  <path d="M2048 1573V640H1920V1536H1664Q1637 1536 1614.0 1546.0Q1591 1556 1573.5 1573.5Q1556 1591 1546.0 1614.0Q1536 1637 1536 1664V1920H640V1536H1037Q1061 1536 1081.5 1527.0Q1102 1518 1118.0 1502.0Q1134 1486 1143.0 1465.5Q1152 1445 1152 1421V499Q1152 475 1143.0 454.5Q1134 434 1118.0 418.0Q1102 402 1081.5 393.0Q1061 384 1037 384H640V128H1408V0H640Q613 0 590.0 10.0Q567 20 549.5 37.5Q532 55 522.0 78.0Q512 101 512 128V384H115Q91 384 70.5 393.0Q50 402 34.0 418.0Q18 434 9.0 454.5Q0 475 0 499V1421Q0 1445 9.0 1465.5Q18 1486 34.0 1502.0Q50 1518 70.5 1527.0Q91 1536 115 1536H512V1920Q512 1947 522.0 1970.0Q532 1993 549.5 2010.5Q567 2028 590.0 2038.0Q613 2048 640 2048H1573Q1599 2048 1622.5 2038.5Q1646 2029 1664 2011L2011 1664Q2029 1646 2038.5 1622.5Q2048 1599 2048 1573ZM911 1296H745L598 869Q593 853 587.5 838.0Q582 823 577 807Q536 930 494.5 1051.5Q453 1173 411 1296H241L489 634L493 624H656ZM1664 1829V1664H1829ZM1280 896H1408V768H1438L1280 610ZM1664 701 1536 829V1088L1408 1216L1600 1408L1792 1216L1664 1088ZM1920 219V512H2048V0H1536V128H1829L1427 531L1517 621Z" transform="scale(1,-1)"/>
</svg>