<?xml version="1.0" encoding="UTF-8"?>
<svg xmlns="http://www.w3.org/2000/svg" viewBox="49 -2035 1819 2035">
  <path d="M236 622 744 850Q741 830 738.5 809.5Q736 789 736 768Q736 753 738.0 738.0Q740 723 742 708L49 397L251 1213L49 2035L1868 1213L1715 1145L236 1810L366 1280H1103Q1044 1260 991.5 1228.0Q939 1196 895 1152H367ZM1507 459Q1572 426 1625.0 378.0Q1678 330 1715.0 270.0Q1752 210 1772.0 141.5Q1792 73 1792 0H1664Q1664 79 1634.0 149.0Q1604 219 1551.5 271.5Q1499 324 1429.0 354.0Q1359 384 1280 384Q1200 384 1130.5 354.0Q1061 324 1008.5 271.5Q956 219 926.0 149.0Q896 79 896 0H768Q768 73 788.0 141.5Q808 210 845.0 270.0Q882 330 935.0 378.0Q988 426 1053 459Q979 513 937.5 594.5Q896 676 896 768Q896 847 926.0 917.0Q956 987 1008.5 1039.5Q1061 1092 1130.5 1122.0Q1200 1152 1280 1152Q1359 1152 1429.0 1122.0Q1499 1092 1551.5 1039.5Q1604 987 1634.0 917.0Q1664 847 1664 768Q1664 676 1622.5 594.5Q1581 513 1507 459ZM1024 768Q1024 715 1044.0 668.5Q1064 622 1099.0 587.0Q1134 552 1180.5 532.0Q1227 512 1280 512Q1333 512 1379.5 532.0Q1426 552 1461.0 587.0Q1496 622 1516.0 668.5Q1536 715 1536 768Q1536 821 1516.0 867.5Q1496 914 1461.0 949.0Q1426 984 1379.5 1004.0Q1333 1024 1280 1024Q1227 1024 1180.5 1004.0Q1134 984 1099.0 949.0Q1064 914 1044.0 867.5Q1024 821 1024 768Z" transform="scale(1,-1)"/>
</svg>