<?xml version="1.0" encoding="UTF-8"?>
<svg xmlns="http://www.w3.org/2000/svg" viewBox="256 -1536 1536 1536">
  <path d="M1024 0Q1024 106 1051.5 204.0Q1079 302 1129.0 387.5Q1179 473 1249.0 543.0Q1319 613 1404.5 663.0Q1490 713 1588.0 740.5Q1686 768 1792 768V640Q1704 640 1622.0 617.0Q1540 594 1469.0 552.5Q1398 511 1339.5 452.5Q1281 394 1239.5 323.0Q1198 252 1175.0 170.0Q1152 88 1152 0ZM640 0Q640 159 681.0 306.5Q722 454 797.0 582.0Q872 710 977.0 815.0Q1082 920 1210.0 995.0Q1338 1070 1485.5 1111.0Q1633 1152 1792 1152V1024Q1651 1024 1520.5 987.5Q1390 951 1276.0 884.0Q1162 817 1068.5 723.5Q975 630 908.0 516.0Q841 402 804.5 271.5Q768 141 768 0ZM256 0Q256 212 311.0 408.0Q366 604 466.0 775.0Q566 946 706.0 1086.0Q846 1226 1017.0 1326.0Q1188 1426 1384.0 1481.0Q1580 1536 1792 1536V1408Q1598 1408 1418.5 1357.5Q1239 1307 1082.5 1215.5Q926 1124 797.0 995.0Q668 866 576.5 709.5Q485 553 434.5 373.5Q384 194 384 0ZM1600 384Q1640 384 1675.0 369.0Q1710 354 1736.0 328.0Q1762 302 1777.0 267.0Q1792 232 1792 192Q1792 152 1777.0 117.0Q1762 82 1736.0 56.0Q1710 30 1675.0 15.0Q1640 0 1600 0Q1560 0 1525.0 15.0Q1490 30 1464.0 56.0Q1438 82 1423.0 117.0Q1408 152 1408 192Q1408 232 1423.0 267.0Q1438 302 1464.0 328.0Q1490 354 1525.0 369.0Q1560 384 1600 384Z" transform="scale(1,-1)"/>
</svg>