<?xml version="1.0" encoding="UTF-8"?>
<svg xmlns="http://www.w3.org/2000/svg" viewBox="384 -2011 1280 2011">
  <path d="M1416 512Q1467 510 1512.5 489.5Q1558 469 1591.5 434.0Q1625 399 1644.5 353.0Q1664 307 1664 256Q1664 203 1643.5 156.5Q1623 110 1588.5 75.5Q1554 41 1507.0 20.5Q1460 0 1408 0Q1355 0 1308.5 20.5Q1262 41 1227.5 75.5Q1193 110 1172.5 156.5Q1152 203 1152 256Q1152 327 1188.5 388.0Q1225 449 1288 482L1022 1013L757 484Q789 467 814.5 443.0Q840 419 858.0 389.0Q876 359 886.0 325.5Q896 292 896 256Q896 203 875.5 156.5Q855 110 820.5 75.5Q786 41 739.0 20.5Q692 0 640 0Q587 0 540.5 20.5Q494 41 459.5 75.5Q425 110 404.5 156.5Q384 203 384 256Q384 307 403.0 352.5Q422 398 455.0 432.5Q488 467 532.5 488.0Q577 509 628 512L950 1158L611 1836L669 2011L1022 1303L1375 2011L1433 1836L1094 1158ZM640 128Q667 128 690.0 138.0Q713 148 730.5 165.5Q748 183 758.0 206.0Q768 229 768 256Q768 283 758.0 306.0Q748 329 730.5 346.5Q713 364 690.0 374.0Q667 384 640 384Q613 384 590.0 374.0Q567 364 549.5 346.5Q532 329 522.0 306.0Q512 283 512 256Q512 229 522.0 206.0Q532 183 549.5 165.5Q567 148 590.0 138.0Q613 128 640 128ZM1408 128Q1435 128 1458.0 138.0Q1481 148 1498.5 165.5Q1516 183 1526.0 206.0Q1536 229 1536 256Q1536 283 1526.0 306.0Q1516 329 1498.5 346.5Q1481 364 1458.0 374.0Q1435 384 1408 384Q1381 384 1358.0 374.0Q1335 364 1317.5 346.5Q1300 329 1290.0 306.0Q1280 283 1280 256Q1280 229 1290.0 206.0Q1300 183 1317.5 165.5Q1335 148 1358.0 138.0Q1381 128 1408 128Z" transform="scale(1,-1)"/>
</svg>