<?xml version="1.0" encoding="UTF-8"?>
<svg xmlns="http://www.w3.org/2000/svg" viewBox="128 -2048 1920 2048">
  <path d="M1258 478Q1263 451 1271.0 425.5Q1279 400 1288 374L1256 338Q1189 297 1113.5 276.5Q1038 256 960 256Q841 256 736.0 301.5Q631 347 553.0 425.0Q475 503 429.5 608.0Q384 713 384 832Q384 951 429.5 1056.0Q475 1161 553.0 1239.0Q631 1317 736.0 1362.5Q841 1408 960 1408Q1068 1408 1165.5 1370.0Q1263 1332 1339.5 1264.5Q1416 1197 1466.5 1105.0Q1517 1013 1531 905Q1502 894 1475.0 880.0Q1448 866 1424 847L1419 896H1213Q1214 880 1215.0 864.0Q1216 848 1216 832Q1216 816 1215.0 800.0Q1214 784 1213 768H1343Q1299 710 1276 640H1201Q1192 578 1175.5 518.5Q1159 459 1132 402Q1167 416 1198.5 435.0Q1230 454 1258 478ZM1381 1024Q1344 1105 1279.5 1166.5Q1215 1228 1133 1262Q1161 1207 1176.5 1145.5Q1192 1084 1201 1024ZM960 1296Q953 1296 945.5 1291.5Q938 1287 933 1282Q910 1261 893.0 1229.0Q876 1197 863.5 1161.0Q851 1125 842.5 1089.0Q834 1053 830 1024H1089Q1084 1054 1075.5 1089.0Q1067 1124 1054.5 1159.0Q1042 1194 1025.0 1225.5Q1008 1257 986 1279Q982 1283 974.5 1289.5Q967 1296 960 1296ZM496 832Q496 816 497.5 800.0Q499 784 501 768H707Q706 784 705.0 800.0Q704 816 704 832Q704 848 705.0 864.0Q706 880 707 896H501Q499 880 497.5 864.0Q496 848 496 832ZM539 640Q575 560 638.0 499.0Q701 438 782 404Q755 458 740.0 519.0Q725 580 717 640ZM718 1024Q726 1084 741.0 1145.5Q756 1207 783 1261Q702 1227 639.0 1165.5Q576 1104 539 1024ZM960 368Q977 368 993.0 385.0Q1009 402 1022.5 428.0Q1036 454 1047.0 486.0Q1058 518 1066.5 548.0Q1075 578 1080.5 603.0Q1086 628 1088 640H830Q834 611 842.0 575.5Q850 540 862.0 504.5Q874 469 890.5 437.5Q907 406 929 385Q935 379 943.5 373.5Q952 368 960 368ZM1101 768Q1104 799 1104 832Q1104 848 1103.0 864.0Q1102 880 1101 896H819Q818 880 817.0 864.0Q816 848 816 832Q816 816 817.0 800.0Q818 784 819 768ZM256 128H1164Q1152 65 1152 0H128V2048H1243L1792 1499V909Q1731 928 1664 928V1408H1152V1920H256ZM1280 1536H1573L1280 1829ZM1848 335Q1894 310 1931.0 274.0Q1968 238 1994.0 194.5Q2020 151 2034.0 101.5Q2048 52 2048 0H1920Q1920 53 1900.0 99.5Q1880 146 1845.0 181.0Q1810 216 1763.5 236.0Q1717 256 1664 256Q1611 256 1564.5 236.0Q1518 216 1483.0 181.0Q1448 146 1428.0 99.5Q1408 53 1408 0H1280Q1280 52 1294.0 101.5Q1308 151 1334.0 194.5Q1360 238 1397.0 274.0Q1434 310 1480 335Q1446 370 1427.0 416.0Q1408 462 1408 512Q1408 565 1428.0 611.5Q1448 658 1483.0 693.0Q1518 728 1564.5 748.0Q1611 768 1664 768Q1717 768 1763.5 748.0Q1810 728 1845.0 693.0Q1880 658 1900.0 611.5Q1920 565 1920 512Q1920 462 1901.0 416.0Q1882 370 1848 335ZM1664 384Q1691 384 1714.0 394.0Q1737 404 1754.5 421.5Q1772 439 1782.0 462.0Q1792 485 1792 512Q1792 539 1782.0 562.0Q1772 585 1754.5 602.5Q1737 620 1714.0 630.0Q1691 640 1664 640Q1637 640 1614.0 630.0Q1591 620 1573.5 602.5Q1556 585 1546.0 562.0Q1536 539 1536 512Q1536 485 1546.0 462.0Q1556 439 1573.5 421.5Q1591 404 1614.0 394.0Q1637 384 1664 384Z" transform="scale(1,-1)"/>
</svg>