<?xml version="1.0" encoding="UTF-8"?>
<svg xmlns="http://www.w3.org/2000/svg" viewBox="128 -2048 1920 2048">
  <path d="M256 128H768V0H128V2048H1243L1792 1499V1408H1152V1920H256ZM1280 1536H1573L1280 1829ZM1408 1280Q1541 1280 1657.5 1230.0Q1774 1180 1861.0 1093.0Q1948 1006 1998.0 889.5Q2048 773 2048 640Q2048 507 1998.0 390.5Q1948 274 1861.0 187.0Q1774 100 1657.5 50.0Q1541 0 1408 0Q1275 0 1158.5 50.0Q1042 100 955.0 187.0Q868 274 818.0 390.5Q768 507 768 640Q768 773 818.0 889.5Q868 1006 955.0 1093.0Q1042 1180 1158.5 1230.0Q1275 1280 1408 1280ZM1408 128Q1429 128 1445.0 142.5Q1461 157 1473.5 180.5Q1486 204 1494.5 233.0Q1503 262 1509.0 290.5Q1515 319 1518.5 343.5Q1522 368 1524 384H1294Q1296 370 1299.5 345.0Q1303 320 1309.5 291.5Q1316 263 1325.0 234.0Q1334 205 1346.0 181.5Q1358 158 1373.5 143.0Q1389 128 1408 128ZM1534 512Q1535 544 1535.5 576.0Q1536 608 1536 640Q1536 703 1533 768H1283Q1280 703 1280 640Q1280 576 1283 512ZM896 640Q896 608 900.0 576.0Q904 544 912 512H1155Q1152 576 1152 640Q1152 703 1155 768H912Q904 736 900.0 704.0Q896 672 896 640ZM1408 1152Q1389 1152 1374.0 1137.0Q1359 1122 1347.0 1098.0Q1335 1074 1326.0 1045.0Q1317 1016 1311.0 987.5Q1305 959 1301.0 934.5Q1297 910 1295 896H1520Q1518 909 1514.0 933.5Q1510 958 1503.0 986.5Q1496 1015 1487.0 1044.5Q1478 1074 1466.5 1098.0Q1455 1122 1440.0 1137.0Q1425 1152 1408 1152ZM1661 768Q1664 703 1664 640Q1664 608 1663.5 576.0Q1663 544 1662 512H1904Q1912 544 1916.0 576.0Q1920 608 1920 640Q1920 672 1916.0 704.0Q1912 736 1904 768ZM1851 896Q1808 971 1743.0 1027.0Q1678 1083 1598 1115Q1619 1063 1630.5 1007.5Q1642 952 1649 896ZM1214 1114Q1136 1082 1071.5 1026.0Q1007 970 965 896H1165Q1178 1007 1214 1114ZM965 384Q1007 311 1071.0 255.0Q1135 199 1213 167Q1192 218 1181.5 273.5Q1171 329 1165 384ZM1607 169Q1684 201 1746.5 256.5Q1809 312 1851 384H1653Q1648 333 1637.5 274.5Q1627 216 1607 169Z" transform="scale(1,-1)"/>
</svg>