<?xml version="1.0" encoding="UTF-8"?>
<svg xmlns="http://www.w3.org/2000/svg" viewBox="128 -1920 1664 1792">
  <path d="M1661 768Q1650 632 1590.0 515.0Q1530 398 1435.0 312.0Q1340 226 1218.0 177.0Q1096 128 960 128Q824 128 702.0 177.0Q580 226 485.0 312.0Q390 398 330.0 515.0Q270 632 259 768H128L320 1024L512 768H387Q398 668 441.5 580.0Q485 492 552.5 424.5Q620 357 708.0 313.5Q796 270 896 259V1280H704Q678 1280 659.0 1299.0Q640 1318 640 1344Q640 1370 659.0 1389.0Q678 1408 704 1408H896V1547Q867 1557 843.5 1575.0Q820 1593 803.0 1617.0Q786 1641 777.0 1669.5Q768 1698 768 1728Q768 1768 783.0 1803.0Q798 1838 824.0 1864.0Q850 1890 885.0 1905.0Q920 1920 960 1920Q1000 1920 1035.0 1905.0Q1070 1890 1096.0 1864.0Q1122 1838 1137.0 1803.0Q1152 1768 1152 1728Q1152 1698 1143.0 1669.5Q1134 1641 1117.0 1617.0Q1100 1593 1076.5 1575.0Q1053 1557 1024 1547V1408H1216Q1242 1408 1261.0 1389.0Q1280 1370 1280 1344Q1280 1318 1261.0 1299.0Q1242 1280 1216 1280H1024V259Q1124 270 1212.0 313.5Q1300 357 1367.5 424.5Q1435 492 1478.5 580.0Q1522 668 1533 768H1408L1600 1024L1792 768ZM960 1792Q934 1792 915.0 1773.0Q896 1754 896 1728Q896 1702 915.0 1683.0Q934 1664 960 1664Q986 1664 1005.0 1683.0Q1024 1702 1024 1728Q1024 1754 1005.0 1773.0Q986 1792 960 1792Z" transform="scale(1,-1)"/>
</svg>