<?xml version="1.0" encoding="UTF-8"?>
<svg xmlns="http://www.w3.org/2000/svg" viewBox="0 -2048 2048 2048">
  <path d="M640 1536V1833Q508 1770 404.0 1669.0Q300 1568 232 1439L113 1488Q183 1625 289.5 1735.0Q396 1845 530 1920H256V2048H768V1536ZM1816 1439Q1753 1560 1656.5 1656.5Q1560 1753 1439 1816L1488 1934Q1632 1860 1746.5 1746.0Q1861 1632 1935 1488ZM128 1024Q128 956 138.0 889.0Q148 822 169 757L51 708Q0 861 0 1024Q0 1187 51 1340L170 1291Q150 1226 139.0 1159.0Q128 1092 128 1024ZM231 609Q294 488 391.0 391.0Q488 294 609 231L560 112Q416 187 301.5 301.5Q187 416 112 560ZM1920 1024Q1920 1092 1909.0 1159.0Q1898 1226 1878 1291L1997 1340Q2048 1187 2048 1024Q2048 975 2042.5 927.0Q2037 879 2027 831Q2001 860 1973.0 885.0Q1945 910 1913 930Q1915 953 1917.5 977.0Q1920 1001 1920 1024ZM1118 135Q1138 103 1163.0 75.0Q1188 47 1217 21Q1169 11 1121.0 5.5Q1073 0 1024 0Q860 0 707 51L757 169Q822 148 889.0 138.0Q956 128 1024 128Q1047 128 1071.0 130.5Q1095 133 1118 135ZM1600 896Q1693 896 1774.5 861.0Q1856 826 1917.0 765.0Q1978 704 2013.0 622.5Q2048 541 2048 448Q2048 355 2013.0 273.5Q1978 192 1917.0 131.0Q1856 70 1774.5 35.0Q1693 0 1600 0Q1507 0 1425.5 35.0Q1344 70 1283.0 131.0Q1222 192 1187.0 273.5Q1152 355 1152 448Q1152 541 1187.0 622.5Q1222 704 1283.0 765.0Q1344 826 1425.5 861.0Q1507 896 1600 896ZM1280 448Q1280 382 1305.0 323.5Q1330 265 1373.5 221.5Q1417 178 1475.5 153.0Q1534 128 1600 128Q1647 128 1692.0 141.5Q1737 155 1776 181L1333 624Q1307 585 1293.5 540.0Q1280 495 1280 448ZM1867 272Q1893 311 1906.5 356.0Q1920 401 1920 448Q1920 514 1894.5 572.0Q1869 630 1825.5 673.5Q1782 717 1724.0 742.5Q1666 768 1600 768Q1553 768 1508.0 754.5Q1463 741 1424 715Z" transform="scale(1,-1)"/>
</svg>