<?xml version="1.0" encoding="UTF-8"?>
<svg xmlns="http://www.w3.org/2000/svg" viewBox="0 -1792 2048 1280">
  <path d="M1024 1280Q1103 1280 1173.0 1250.0Q1243 1220 1295.5 1167.5Q1348 1115 1378.0 1045.0Q1408 975 1408 896Q1408 816 1378.0 746.5Q1348 677 1295.5 624.5Q1243 572 1173.0 542.0Q1103 512 1024 512Q944 512 874.5 542.0Q805 572 752.5 624.5Q700 677 670.0 746.5Q640 816 640 896Q640 975 670.0 1045.0Q700 1115 752.5 1167.5Q805 1220 874.5 1250.0Q944 1280 1024 1280ZM1024 640Q1077 640 1123.5 660.0Q1170 680 1205.0 715.0Q1240 750 1260.0 796.5Q1280 843 1280 896Q1280 949 1260.0 995.5Q1240 1042 1205.0 1077.0Q1170 1112 1123.5 1132.0Q1077 1152 1024 1152Q971 1152 924.5 1132.0Q878 1112 843.0 1077.0Q808 1042 788.0 995.5Q768 949 768 896Q768 843 788.0 796.5Q808 750 843.0 715.0Q878 680 924.5 660.0Q971 640 1024 640ZM1024 1792Q1167 1792 1308.0 1756.5Q1449 1721 1574.0 1652.0Q1699 1583 1800.5 1481.5Q1902 1380 1966 1248Q2006 1165 2027.0 1076.5Q2048 988 2048 896H1920Q1920 1014 1884.0 1117.0Q1848 1220 1784.5 1305.0Q1721 1390 1635.0 1457.0Q1549 1524 1449.5 1570.0Q1350 1616 1241.0 1640.0Q1132 1664 1024 1664Q916 1664 807.0 1640.0Q698 1616 598.5 1570.0Q499 1524 413.0 1457.0Q327 1390 263.5 1305.0Q200 1220 164.0 1117.0Q128 1014 128 896H0Q0 988 21.0 1076.5Q42 1165 82 1248Q146 1380 247.5 1481.5Q349 1583 474.0 1652.0Q599 1721 740.0 1756.5Q881 1792 1024 1792Z" transform="scale(1,-1)"/>
</svg>