<?xml version="1.0" encoding="UTF-8"?>
<svg xmlns="http://www.w3.org/2000/svg" viewBox="0 -2048 2048 2048">
  <path d="M1280 1256Q1311 1267 1343.0 1273.5Q1375 1280 1408 1280V896H1792Q1792 830 1770.0 769.5Q1748 709 1707 658L1517 847L1280 610ZM1536 1408Q1615 1408 1685.0 1378.0Q1755 1348 1807.5 1295.5Q1860 1243 1890.0 1173.0Q1920 1103 1920 1024H1536ZM2048 1573V640H1920V1536H1664Q1637 1536 1614.0 1546.0Q1591 1556 1573.5 1573.5Q1556 1591 1546.0 1614.0Q1536 1637 1536 1664V1920H640V1536H1037Q1061 1536 1081.5 1527.0Q1102 1518 1118.0 1502.0Q1134 1486 1143.0 1465.5Q1152 1445 1152 1421V499Q1152 475 1143.0 454.5Q1134 434 1118.0 418.0Q1102 402 1081.5 393.0Q1061 384 1037 384H640V128H1408V0H640Q613 0 590.0 10.0Q567 20 549.5 37.5Q532 55 522.0 78.0Q512 101 512 128V384H115Q91 384 70.5 393.0Q50 402 34.0 418.0Q18 434 9.0 454.5Q0 475 0 499V1421Q0 1445 9.0 1465.5Q18 1486 34.0 1502.0Q50 1518 70.5 1527.0Q91 1536 115 1536H512V1920Q512 1947 522.0 1970.0Q532 1993 549.5 2010.5Q567 2028 590.0 2038.0Q613 2048 640 2048H1573Q1599 2048 1622.5 2038.5Q1646 2029 1664 2011L2011 1664Q2029 1646 2038.5 1622.5Q2048 1599 2048 1573ZM866 1080Q866 1136 848.5 1177.0Q831 1218 799.0 1244.5Q767 1271 723.0 1283.5Q679 1296 626 1296H368V624H518V850H618Q670 850 715.0 865.5Q760 881 793.5 911.0Q827 941 846.5 983.5Q866 1026 866 1080ZM1664 1664H1829L1664 1829ZM518 1165H608Q655 1165 682.0 1145.0Q709 1125 709 1075Q709 1023 681.0 1001.5Q653 980 604 980H518ZM1920 219V512H2048V0H1536V128H1829L1427 531L1517 621Z" transform="scale(1,-1)"/>
</svg>