<?xml version="1.0" encoding="UTF-8"?>
<svg xmlns="http://www.w3.org/2000/svg" viewBox="0 -2048 2048 2048">
  <path d="M1848 1152Q1890 1152 1926.5 1137.0Q1963 1122 1990.0 1095.0Q2017 1068 2032.5 1032.0Q2048 996 2048 954Q2048 914 2033.0 877.5Q2018 841 1990 813L1273 94L896 0L990 377L1707 1095Q1734 1122 1772.0 1137.0Q1810 1152 1848 1152ZM1899 903Q1920 924 1920 954Q1920 986 1900.0 1005.0Q1880 1024 1848 1024Q1834 1024 1821.0 1019.5Q1808 1015 1798 1005L1106 311L1072 176L1207 210ZM512 256H768V128H384V384H0V2048H859L1115 1792H1243L1664 1371V1280L1536 1152V1280H1152V1664H512ZM1280 1408H1445L1280 1573ZM384 1792H933L805 1920H128V512H384Z" transform="scale(1,-1)"/>
</svg>