<?xml version="1.0" encoding="UTF-8"?>
<svg xmlns="http://www.w3.org/2000/svg" viewBox="37 -1664 1974 1152">
  <path d="M219 1024 424 819 387 674 37 1024 467 1453 557 1363ZM2011 1024 1581 595 1491 685 1829 1024 1680 1173Q1706 1199 1727.0 1221.5Q1748 1244 1765 1269ZM1464 1664Q1506 1664 1542.5 1649.0Q1579 1634 1606.0 1607.0Q1633 1580 1648.5 1544.0Q1664 1508 1664 1466Q1664 1427 1649.0 1390.0Q1634 1353 1606 1325L889 606L512 512L606 889L1323 1607Q1351 1635 1388.0 1649.5Q1425 1664 1464 1664ZM1515 1415Q1536 1436 1536 1466Q1536 1497 1515.5 1516.5Q1495 1536 1464 1536Q1450 1536 1437.0 1531.5Q1424 1527 1414 1517L722 823L688 688L823 722Z" transform="scale(1,-1)"/>
</svg>