<?xml version="1.0" encoding="UTF-8"?>
<svg xmlns="http://www.w3.org/2000/svg" viewBox="0 -2048 1920 2048">
  <path d="M128 2048V1920H0V2048ZM128 1792V1664H0V1792ZM128 1536V1408H0V1536ZM128 1280V1152H0V1280ZM128 1024V896H0V1024ZM128 768V640H0V768ZM128 512V384H0V512ZM0 256H128V128H0ZM128 0V128H256V0ZM384 2048V1920H256V2048ZM384 0V128H512V0ZM640 0V128H768V0ZM640 2048V1920H512V2048ZM896 2048V1920H768V2048ZM1152 2048V1920H1024V2048ZM1408 2048V1920H1280V2048ZM1536 1792H1408V1920H1536ZM1536 1664V1536H1408V1664ZM1408 1280V1408H1536V1280ZM1408 1024V1152H1536V1024ZM1152 768V896H1664V768ZM1024 128H1920V0H896V1024H1024ZM1152 640H1536V512H1152ZM1152 256V384H1792V256Z" transform="scale(1,-1)"/>
</svg>