<?xml version="1.0" encoding="UTF-8"?>
<svg xmlns="http://www.w3.org/2000/svg" viewBox="0 -2048 2048 2048">
  <path d="M1024 2048Q1165 2048 1296.0 2011.5Q1427 1975 1541.0 1908.5Q1655 1842 1748.5 1748.5Q1842 1655 1908.5 1541.0Q1975 1427 2011.5 1296.0Q2048 1165 2048 1024Q2048 883 2011.5 752.0Q1975 621 1908.5 507.0Q1842 393 1748.5 299.5Q1655 206 1541.0 139.5Q1427 73 1296.0 36.5Q1165 0 1024 0Q971 0 924.5 20.5Q878 41 843.5 75.5Q809 110 788.5 156.5Q768 203 768 256Q768 305 777.5 341.5Q787 378 801.0 408.0Q815 438 832.0 464.0Q849 490 863.0 516.5Q877 543 886.5 572.5Q896 602 896 640Q896 692 875.5 739.0Q855 786 820.5 820.5Q786 855 739.0 875.5Q692 896 640 896Q602 896 572.5 886.5Q543 877 516.5 863.0Q490 849 464.0 832.0Q438 815 408.0 801.0Q378 787 341.0 777.5Q304 768 256 768Q203 768 156.5 788.5Q110 809 75.5 843.5Q41 878 20.5 924.5Q0 971 0 1024Q0 1165 36.5 1296.0Q73 1427 139.5 1541.0Q206 1655 299.5 1748.5Q393 1842 507.0 1908.5Q621 1975 751.5 2011.5Q882 2048 1024 2048ZM1024 128Q1147 128 1261.5 160.0Q1376 192 1475.5 250.5Q1575 309 1657.0 391.0Q1739 473 1797.5 572.5Q1856 672 1888.0 786.5Q1920 901 1920 1024Q1920 1147 1888.0 1261.5Q1856 1376 1797.5 1475.5Q1739 1575 1657.0 1657.0Q1575 1739 1475.5 1797.5Q1376 1856 1261.5 1888.0Q1147 1920 1024 1920Q901 1920 786.5 1888.0Q672 1856 572.5 1797.5Q473 1739 391.0 1657.0Q309 1575 250.5 1475.5Q192 1376 160.0 1261.5Q128 1147 128 1024Q128 997 138.0 974.0Q148 951 165.5 933.5Q183 916 206.0 906.0Q229 896 256 896Q294 896 323.5 905.5Q353 915 379.5 929.0Q406 943 431.5 960.0Q457 977 486.5 991.0Q516 1005 553.0 1014.5Q590 1024 640 1024Q720 1024 790.0 994.0Q860 964 912.0 912.0Q964 860 994.0 790.0Q1024 720 1024 640Q1024 591 1014.5 553.5Q1005 516 991.0 486.5Q977 457 960.0 431.5Q943 406 929.0 379.5Q915 353 905.5 323.5Q896 294 896 256Q896 229 906.0 206.0Q916 183 933.5 165.5Q951 148 974.0 138.0Q997 128 1024 128ZM512 1408Q539 1408 562.0 1398.0Q585 1388 602.5 1370.5Q620 1353 630.0 1330.0Q640 1307 640 1280Q640 1253 630.0 1230.0Q620 1207 602.5 1189.5Q585 1172 562.0 1162.0Q539 1152 512 1152Q485 1152 462.0 1162.0Q439 1172 421.5 1189.5Q404 1207 394.0 1230.0Q384 1253 384 1280Q384 1307 394.0 1330.0Q404 1353 421.5 1370.5Q439 1388 462.0 1398.0Q485 1408 512 1408ZM896 1664Q923 1664 946.0 1654.0Q969 1644 986.5 1626.5Q1004 1609 1014.0 1586.0Q1024 1563 1024 1536Q1024 1509 1014.0 1486.0Q1004 1463 986.5 1445.5Q969 1428 946.0 1418.0Q923 1408 896 1408Q869 1408 846.0 1418.0Q823 1428 805.5 1445.5Q788 1463 778.0 1486.0Q768 1509 768 1536Q768 1563 778.0 1586.0Q788 1609 805.5 1626.5Q823 1644 846.0 1654.0Q869 1664 896 1664ZM1408 1280Q1381 1280 1358.0 1290.0Q1335 1300 1317.5 1317.5Q1300 1335 1290.0 1358.0Q1280 1381 1280 1408Q1280 1435 1290.0 1458.0Q1300 1481 1317.5 1498.5Q1335 1516 1358.0 1526.0Q1381 1536 1408 1536Q1435 1536 1458.0 1526.0Q1481 1516 1498.5 1498.5Q1516 1481 1526.0 1458.0Q1536 1435 1536 1408Q1536 1381 1526.0 1358.0Q1516 1335 1498.5 1317.5Q1481 1300 1458.0 1290.0Q1435 1280 1408 1280ZM1536 1024Q1563 1024 1586.0 1014.0Q1609 1004 1626.5 986.5Q1644 969 1654.0 946.0Q1664 923 1664 896Q1664 869 1654.0 846.0Q1644 823 1626.5 805.5Q1609 788 1586.0 778.0Q1563 768 1536 768Q1509 768 1486.0 778.0Q1463 788 1445.5 805.5Q1428 823 1418.0 846.0Q1408 869 1408 896Q1408 923 1418.0 946.0Q1428 969 1445.5 986.5Q1463 1004 1486.0 1014.0Q1509 1024 1536 1024ZM1280 640Q1307 640 1330.0 630.0Q1353 620 1370.5 602.5Q1388 585 1398.0 562.0Q1408 539 1408 512Q1408 485 1398.0 462.0Q1388 439 1370.5 421.5Q1353 404 1330.0 394.0Q1307 384 1280 384Q1253 384 1230.0 394.0Q1207 404 1189.5 421.5Q1172 439 1162.0 462.0Q1152 485 1152 512Q1152 539 1162.0 562.0Q1172 585 1189.5 602.5Q1207 620 1230.0 630.0Q1253 640 1280 640Z" transform="scale(1,-1)"/>
</svg>