<?xml version="1.0" encoding="UTF-8"?>
<svg xmlns="http://www.w3.org/2000/svg" viewBox="0 -2048 2048 2048">
  <path d="M448 1152Q488 1152 523.0 1137.0Q558 1122 584.0 1096.0Q610 1070 625.0 1035.0Q640 1000 640 960Q640 920 625.0 885.0Q610 850 584.0 824.0Q558 798 523.0 783.0Q488 768 448 768H384V640H256V1152ZM384 1024V896H448Q474 896 493.0 915.0Q512 934 512 960Q512 986 493.0 1005.0Q474 1024 448 1024ZM896 1152Q949 1152 995.5 1132.0Q1042 1112 1077.0 1077.0Q1112 1042 1132.0 995.5Q1152 949 1152 896Q1152 843 1132.0 796.5Q1112 750 1077.0 715.0Q1042 680 995.5 660.0Q949 640 896 640H768V1152ZM1024 896Q1024 923 1014.0 946.0Q1004 969 986.5 986.5Q969 1004 946.0 1014.0Q923 1024 896 1024V768Q923 768 946.0 778.0Q969 788 986.5 805.5Q1004 823 1014.0 846.0Q1024 869 1024 896ZM1408 1024V896H1600V768H1280V1152H1600V1024ZM256 128H1376V0H128V384H0V1408H128V2048H1371L1792 1627V1408H1920V672H1792V1280H128V512H1219L1347 384H256ZM1408 1664H1573L1408 1829ZM256 1408H1664V1536H1280V1920H256ZM2048 512V0H1536V128H1829L1427 531L1517 621L1920 219V512Z" transform="scale(1,-1)"/>
</svg>