<?xml version="1.0" encoding="UTF-8"?>
<svg xmlns="http://www.w3.org/2000/svg" viewBox="0 -1792 2038 1782">
  <path d="M0 1792H512V256H0ZM128 384H384V1664H128ZM1920 448Q1920 417 1914 387L2038 336L1989 217L1865 269Q1830 218 1779 183L1831 59L1712 10L1661 134Q1631 128 1600 128Q1569 128 1539 134L1488 10L1369 59L1421 183Q1370 218 1335 269L1211 217L1162 336L1286 387Q1280 417 1280 448Q1280 479 1286 509L1162 560L1211 679L1335 627Q1370 678 1421 713L1369 837L1488 886L1539 762Q1569 768 1600 768Q1631 768 1661 762L1712 886L1831 837L1779 713Q1830 678 1865 627L1989 679L2038 560L1914 509Q1920 479 1920 448ZM1601 256Q1641 256 1675.5 271.0Q1710 286 1736.0 312.5Q1762 339 1777.0 374.0Q1792 409 1792 449Q1792 488 1777.0 523.0Q1762 558 1735.5 584.0Q1709 610 1674.0 625.0Q1639 640 1600 640Q1560 640 1525.0 624.5Q1490 609 1464.0 583.0Q1438 557 1423.0 521.5Q1408 486 1408 447Q1408 407 1423.0 372.5Q1438 338 1464.5 312.0Q1491 286 1526.0 271.0Q1561 256 1601 256ZM1408 1024H1280V1792H1792V1024H1664V1664H1408ZM640 1792H1152V896L1024 768V1664H768V384H1024V256H640Z" transform="scale(1,-1)"/>
</svg>