<?xml version="1.0" encoding="UTF-8"?>
<svg xmlns="http://www.w3.org/2000/svg" viewBox="512 -1920 1189 1664">
  <path d="M1255 1147Q1347 1147 1428.5 1112.0Q1510 1077 1570.5 1016.5Q1631 956 1666.0 875.0Q1701 794 1701 702Q1701 610 1666.0 528.5Q1631 447 1570.5 386.5Q1510 326 1428.5 291.0Q1347 256 1255 256H512V1920H1255Q1335 1920 1405.0 1889.5Q1475 1859 1527.5 1806.5Q1580 1754 1610.5 1684.0Q1641 1614 1641 1534Q1641 1454 1611.0 1383.5Q1581 1313 1528.5 1260.5Q1476 1208 1405.5 1177.5Q1335 1147 1255 1147ZM1047 1682H896V1207H1047Q1096 1207 1139.5 1226.0Q1183 1245 1215.0 1277.0Q1247 1309 1266.0 1352.5Q1285 1396 1285 1445Q1285 1494 1266.0 1537.0Q1247 1580 1215.0 1612.5Q1183 1645 1139.5 1663.5Q1096 1682 1047 1682ZM1106 494Q1155 494 1198.5 512.5Q1242 531 1274.0 563.5Q1306 596 1325.0 639.0Q1344 682 1344 731Q1344 780 1325.5 823.5Q1307 867 1274.5 899.5Q1242 932 1198.5 950.5Q1155 969 1106 969H896V494Z" transform="scale(1,-1)"/>
</svg>