<?xml version="1.0" encoding="UTF-8"?>
<svg xmlns="http://www.w3.org/2000/svg" viewBox="0 -2048 2048 2048">
  <path d="M1973 857Q2010 792 2029.0 720.0Q2048 648 2048 573Q2048 494 2027.5 421.0Q2007 348 1969.5 284.0Q1932 220 1880.0 168.0Q1828 116 1764.0 78.5Q1700 41 1627.0 20.5Q1554 0 1475 0Q1400 0 1328.0 19.0Q1256 38 1191 75Q1149 68 1107.5 64.5Q1066 61 1024 61Q891 61 768.0 95.5Q645 130 538.0 192.5Q431 255 343.0 343.0Q255 431 192.5 538.0Q130 645 95.5 768.0Q61 891 61 1024Q61 1066 64.5 1107.5Q68 1149 75 1191Q38 1256 19.0 1328.0Q0 1400 0 1475Q0 1554 20.5 1627.0Q41 1700 78.5 1764.0Q116 1828 168.0 1880.0Q220 1932 284.0 1969.5Q348 2007 421.0 2027.5Q494 2048 573 2048Q648 2048 720.0 2029.0Q792 2010 857 1973Q899 1980 940.5 1983.5Q982 1987 1024 1987Q1157 1987 1280.0 1952.5Q1403 1918 1510.0 1855.5Q1617 1793 1705.0 1705.0Q1793 1617 1855.5 1510.0Q1918 1403 1952.5 1280.0Q1987 1157 1987 1024Q1987 982 1983.5 940.5Q1980 899 1973 857ZM1475 146Q1563 146 1641.0 179.5Q1719 213 1777.0 271.0Q1835 329 1868.5 407.0Q1902 485 1902 573Q1902 612 1896.0 644.5Q1890 677 1879.5 707.5Q1869 738 1854.0 767.5Q1839 797 1820 830Q1829 879 1835.0 926.5Q1841 974 1841 1024Q1841 1137 1812.0 1241.0Q1783 1345 1729.5 1436.0Q1676 1527 1601.5 1601.5Q1527 1676 1436.0 1729.5Q1345 1783 1241.0 1812.0Q1137 1841 1024 1841Q974 1841 926.5 1835.0Q879 1829 830 1820Q797 1839 767.5 1854.0Q738 1869 707.5 1879.5Q677 1890 644.5 1896.0Q612 1902 573 1902Q485 1902 407.0 1868.5Q329 1835 271.0 1777.0Q213 1719 179.5 1641.0Q146 1563 146 1475Q146 1436 152.0 1403.5Q158 1371 168.5 1340.5Q179 1310 194.0 1280.5Q209 1251 228 1218Q219 1169 213.0 1121.5Q207 1074 207 1024Q207 911 236.0 807.0Q265 703 318.5 612.0Q372 521 446.5 446.5Q521 372 612.0 318.5Q703 265 807.0 236.0Q911 207 1024 207Q1074 207 1121.5 213.0Q1169 219 1218 228Q1251 209 1280.5 194.0Q1310 179 1340.5 168.5Q1371 158 1403.5 152.0Q1436 146 1475 146ZM807 1288Q807 1257 825.5 1235.5Q844 1214 871.0 1200.0Q898 1186 928.0 1177.5Q958 1169 982 1164L1199 1116Q1264 1101 1319.0 1075.5Q1374 1050 1414.0 1010.5Q1454 971 1476.5 917.0Q1499 863 1499 793Q1499 727 1480.0 675.0Q1461 623 1427.5 582.5Q1394 542 1349.0 513.5Q1304 485 1251.5 467.0Q1199 449 1142.0 440.5Q1085 432 1028 432Q970 432 907.0 440.5Q844 449 785.0 469.5Q726 490 674.5 523.5Q623 557 588 608Q571 633 560.0 661.5Q549 690 549 721Q549 745 558.0 764.5Q567 784 582.5 798.0Q598 812 618.5 819.5Q639 827 662 827Q697 827 719.5 811.5Q742 796 761.0 772.5Q780 749 799.5 722.0Q819 695 848.0 671.5Q877 648 920.0 632.5Q963 617 1028 617Q1062 617 1099.0 626.5Q1136 636 1167.5 655.0Q1199 674 1219.5 703.5Q1240 733 1240 773Q1240 798 1230.5 817.5Q1221 837 1205.0 851.5Q1189 866 1168.5 875.0Q1148 884 1126 890L834 964Q771 980 720.0 1005.0Q669 1030 632.5 1067.0Q596 1104 576.5 1155.0Q557 1206 557 1274Q557 1368 597.0 1433.5Q637 1499 701.0 1539.0Q765 1579 845.5 1597.0Q926 1615 1007 1615Q1042 1615 1088.5 1608.0Q1135 1601 1184.5 1587.5Q1234 1574 1281.5 1552.5Q1329 1531 1366.5 1502.0Q1404 1473 1427.0 1436.0Q1450 1399 1450 1354Q1450 1329 1440.0 1310.5Q1430 1292 1413.5 1279.5Q1397 1267 1375.5 1261.0Q1354 1255 1332 1255Q1303 1255 1282.5 1267.5Q1262 1280 1244.0 1298.5Q1226 1317 1206.5 1339.0Q1187 1361 1159.0 1379.5Q1131 1398 1090.5 1410.5Q1050 1423 991 1423Q959 1423 926.0 1416.0Q893 1409 866.5 1393.5Q840 1378 823.5 1352.0Q807 1326 807 1288Z" transform="scale(1,-1)"/>
</svg>