<?xml version="1.0" encoding="UTF-8"?>
<svg xmlns="http://www.w3.org/2000/svg" viewBox="0 -2048 2048 2046">
  <path d="M896 466V1024H128V256H828L796 128H0V2048H1920V1269Q1882 1277 1848 1277Q1834 1277 1820.0 1275.5Q1806 1274 1792 1272V1920H1024V1152H1583L1455 1024H1024V594ZM896 1152V1920H128V1152ZM1848 1149Q1888 1149 1924.5 1135.0Q1961 1121 1988.5 1096.0Q2016 1071 2032.0 1036.0Q2048 1001 2048 959Q2048 917 2034.0 880.0Q2020 843 1990 813L1273 96L896 2L990 379L1707 1095Q1735 1123 1772.0 1136.0Q1809 1149 1848 1149ZM1899 903Q1920 924 1920 954Q1920 986 1900.0 1004.5Q1880 1023 1848 1023Q1835 1023 1821.5 1019.0Q1808 1015 1798 1005L1106 313L1072 178L1207 212Z" transform="scale(1,-1)"/>
</svg>