<?xml version="1.0" encoding="UTF-8"?>
<svg xmlns="http://www.w3.org/2000/svg" viewBox="0 -2048 2048 2048">
  <path d="M640 384V640H768V384ZM1920 1024Q1947 1024 1970.0 1014.0Q1993 1004 2010.5 986.5Q2028 969 2038.0 946.0Q2048 923 2048 896V128Q2048 101 2038.0 78.0Q2028 55 2010.5 37.5Q1993 20 1970.0 10.0Q1947 0 1920 0H512Q485 0 462.0 10.0Q439 20 421.5 37.5Q404 55 394.0 78.0Q384 101 384 128V384H128Q101 384 78.0 394.0Q55 404 37.5 421.5Q20 439 10.0 462.0Q0 485 0 512V1920Q0 1947 10.0 1970.0Q20 1993 37.5 2010.5Q55 2028 78.0 2038.0Q101 2048 128 2048H896Q923 2048 946.0 2038.0Q969 2028 986.5 2010.5Q1004 1993 1014.0 1970.0Q1024 1947 1024 1920V1024H1231L1359 896H512V128H1920V896H1588L1716 1024ZM384 896Q384 923 394.0 946.0Q404 969 421.5 986.5Q439 1004 462.0 1014.0Q485 1024 512 1024H896V1920H128V512H384ZM1410 1402Q1410 1455 1390.0 1501.5Q1370 1548 1335.0 1583.0Q1300 1618 1253.5 1638.0Q1207 1658 1154 1658V1786Q1233 1786 1303.0 1755.5Q1373 1725 1425.0 1673.0Q1477 1621 1507.5 1551.0Q1538 1481 1538 1402V1221L1717 1401L1792 1326L1474 1008L1159 1322L1234 1397L1410 1221Z" transform="scale(1,-1)"/>
</svg>