<?xml version="1.0" encoding="UTF-8"?>
<svg xmlns="http://www.w3.org/2000/svg" viewBox="0 -1928 2048 1928">
  <path d="M2048 512H1920Q1920 565 1900.0 611.5Q1880 658 1845.0 693.0Q1810 728 1763.5 748.0Q1717 768 1664 768Q1626 768 1590.0 757.0Q1554 746 1523.0 725.5Q1492 705 1467.5 676.0Q1443 647 1428 612Q1412 574 1409.5 540.5Q1407 507 1403.5 474.0Q1400 441 1387.0 407.5Q1374 374 1338 336Q1383 310 1420.0 274.0Q1457 238 1482.5 194.5Q1508 151 1522.0 101.5Q1536 52 1536 0H1408Q1408 53 1388.0 99.5Q1368 146 1333.0 181.0Q1298 216 1251.5 236.0Q1205 256 1152 256Q1099 256 1052.5 236.0Q1006 216 971.0 181.0Q936 146 916.0 99.5Q896 53 896 0H768Q768 52 782.0 101.5Q796 151 821.5 194.5Q847 238 884.0 274.5Q921 311 966 336Q933 371 914.5 417.5Q896 464 896 512Q896 565 916.0 611.5Q936 658 971.0 693.0Q1006 728 1052.5 748.0Q1099 768 1152 768Q1201 768 1246.5 749.5Q1292 731 1328 698Q1383 793 1478 848Q1445 883 1426.5 929.5Q1408 976 1408 1024Q1408 1077 1428.0 1123.5Q1448 1170 1483.0 1205.0Q1518 1240 1564.5 1260.0Q1611 1280 1664 1280Q1717 1280 1763.5 1260.0Q1810 1240 1845.0 1205.0Q1880 1170 1900.0 1123.5Q1920 1077 1920 1024Q1920 976 1901.5 929.5Q1883 883 1850 848Q1895 822 1932.0 786.0Q1969 750 1994.5 706.5Q2020 663 2034.0 613.5Q2048 564 2048 512ZM1280 512Q1280 539 1270.0 562.0Q1260 585 1242.5 602.5Q1225 620 1202.0 630.0Q1179 640 1152 640Q1125 640 1102.0 630.0Q1079 620 1061.5 602.5Q1044 585 1034.0 562.0Q1024 539 1024 512Q1024 485 1034.0 462.0Q1044 439 1061.5 421.5Q1079 404 1102.0 394.0Q1125 384 1152 384Q1179 384 1202.0 394.0Q1225 404 1242.5 421.5Q1260 439 1270.0 462.0Q1280 485 1280 512ZM1792 1024Q1792 1051 1782.0 1074.0Q1772 1097 1754.5 1114.5Q1737 1132 1714.0 1142.0Q1691 1152 1664 1152Q1637 1152 1614.0 1142.0Q1591 1132 1573.5 1114.5Q1556 1097 1546.0 1074.0Q1536 1051 1536 1024Q1536 997 1546.0 974.0Q1556 951 1573.5 933.5Q1591 916 1614.0 906.0Q1637 896 1664 896Q1691 896 1714.0 906.0Q1737 916 1754.5 933.5Q1772 951 1782.0 974.0Q1792 997 1792 1024ZM128 1368V552L683 275Q666 247 654.0 217.5Q642 188 632 157L0 472V1512L832 1928L1664 1512V1440Q1561 1440 1471.5 1393.5Q1382 1347 1323 1262L896 1048V838Q873 819 855.0 801.0Q837 783 822.0 764.0Q807 745 794.0 723.0Q781 701 769 674L768 672V1048ZM832 1784 591 1664 1212 1350 1457 1472ZM448 1592 207 1472 832 1160 1070 1278Z" transform="scale(1,-1)"/>
</svg>