<?xml version="1.0" encoding="UTF-8"?>
<svg xmlns="http://www.w3.org/2000/svg" viewBox="0 -2048 2048 2048">
  <path d="M640 1536V1833Q508 1770 404.0 1669.0Q300 1568 232 1439L113 1488Q183 1625 289.5 1735.0Q396 1845 530 1920H256V2048H768V1536ZM1816 1439Q1753 1560 1656.5 1656.5Q1560 1753 1439 1816L1488 1934Q1632 1860 1746.5 1746.0Q1861 1632 1935 1488ZM128 1024Q128 956 138.0 889.0Q148 822 169 757L51 708Q0 861 0 1024Q0 1187 51 1340L170 1291Q150 1226 139.0 1159.0Q128 1092 128 1024ZM231 609Q294 488 391.0 391.0Q488 294 609 231L560 112Q416 187 301.5 301.5Q187 416 112 560ZM2048 1152V512H1536V768H1280V0H1152V1408H1664V1152ZM1536 1280H1280V896H1536ZM1920 1024H1664V640H1920ZM757 169Q822 148 889.0 138.0Q956 128 1024 128V0Q860 0 707 51Z" transform="scale(1,-1)"/>
</svg>