<?xml version="1.0" encoding="UTF-8"?>
<svg xmlns="http://www.w3.org/2000/svg" viewBox="0 -1920 2048 1792">
  <path d="M1152 1920Q1276 1920 1390.5 1888.0Q1505 1856 1604.5 1797.5Q1704 1739 1785.5 1657.5Q1867 1576 1925.5 1476.5Q1984 1377 2016.0 1262.5Q2048 1148 2048 1024Q2048 900 2016.0 785.5Q1984 671 1925.5 571.5Q1867 472 1785.5 390.5Q1704 309 1604.5 250.5Q1505 192 1390.5 160.0Q1276 128 1152 128Q1042 128 937.0 154.0Q832 180 737.5 229.5Q643 279 561.5 350.5Q480 422 417 512H85Q50 512 25.0 537.0Q0 562 0 597V1451Q0 1486 25.0 1511.0Q50 1536 85 1536H417Q480 1626 561.5 1697.5Q643 1769 737.5 1818.5Q832 1868 937.0 1894.0Q1042 1920 1152 1920ZM1216 1789V1088H1917Q1905 1228 1846.5 1350.5Q1788 1473 1694.5 1566.5Q1601 1660 1478.0 1718.5Q1355 1777 1216 1789ZM767 1143Q767 1201 747.5 1242.5Q728 1284 694.0 1310.0Q660 1336 614.0 1348.0Q568 1360 514 1360H243V689H400V923H506Q555 923 601.5 937.5Q648 952 685.0 979.5Q722 1007 744.5 1048.0Q767 1089 767 1143ZM1152 256Q1252 256 1345.0 280.5Q1438 305 1520.5 350.5Q1603 396 1672.0 459.5Q1741 523 1793.0 601.5Q1845 680 1877.0 771.0Q1909 862 1917 961H1089V1789Q941 1777 810.0 1711.5Q679 1646 580 1536H939Q974 1536 999.0 1511.0Q1024 1486 1024 1451V597Q1024 562 999.0 537.0Q974 512 939 512H580Q635 451 700.5 403.5Q766 356 839.0 323.0Q912 290 991.0 273.0Q1070 256 1152 256ZM496 1229Q545 1229 574.0 1209.5Q603 1190 603 1138Q603 1115 592.5 1100.5Q582 1086 566.0 1077.0Q550 1068 530.0 1064.5Q510 1061 492 1061H400V1229Z" transform="scale(1,-1)"/>
</svg>