<?xml version="1.0" encoding="UTF-8"?>
<svg xmlns="http://www.w3.org/2000/svg" viewBox="0 -1792 2048 1408">
  <path d="M2048 1536V640Q2048 587 2027.5 540.5Q2007 494 1972.5 459.5Q1938 425 1891.0 404.5Q1844 384 1792 384H249Q198 384 152.5 404.0Q107 424 73.5 457.5Q40 491 20.0 536.5Q0 582 0 633V1792H1792V1536ZM1920 1408H1792V704Q1792 678 1773.0 659.0Q1754 640 1728 640Q1702 640 1683.0 659.0Q1664 678 1664 704V1664H128V633Q128 608 137.5 586.0Q147 564 163.5 547.5Q180 531 202.0 521.5Q224 512 249 512H1792Q1819 512 1842.0 522.0Q1865 532 1882.5 549.5Q1900 567 1910.0 590.0Q1920 613 1920 640ZM1536 1408H256V1536H1536ZM1536 640H1024V768H1536ZM1536 896H1024V1024H1536ZM1536 1152H1024V1280H1536ZM896 640H256V1283H896ZM384 768H768V1155H384Z" transform="scale(1,-1)"/>
</svg>