<?xml version="1.0" encoding="UTF-8"?>
<svg xmlns="http://www.w3.org/2000/svg" viewBox="128 -2048 1920 2048">
  <path d="M1024 1280V1152H640V1280ZM256 1920V128H763L731 0H128V2048H1243L1792 1499V1305Q1725 1295 1664 1261V1408H1152V1920ZM1280 1829V1536H1573ZM640 896V1024H1024V896ZM512 1280V1152H384V1280ZM384 896V1024H512V896ZM1024 1536V1408H640V1536ZM512 1536V1408H384V1536ZM2048 954Q2048 915 2033.0 878.0Q2018 841 1990 813L1273 94L896 0L990 377L1707 1095Q1735 1123 1772.0 1137.5Q1809 1152 1848 1152Q1890 1152 1926.5 1137.0Q1963 1122 1990.0 1095.0Q2017 1068 2032.5 1032.0Q2048 996 2048 954ZM1920 954Q1920 986 1900.0 1005.0Q1880 1024 1848 1024Q1834 1024 1821.0 1019.5Q1808 1015 1798 1005L1106 311L1072 176L1207 210L1899 903Q1920 924 1920 954Z" transform="scale(1,-1)"/>
</svg>