<?xml version="1.0" encoding="UTF-8"?>
<svg xmlns="http://www.w3.org/2000/svg" viewBox="0 -1920 2048 1920">
  <path d="M2048 1920V1280H1920V1408H128V384H768V256H0V1920ZM1920 1792H128V1536H1920ZM1848 1152Q1890 1152 1926.5 1137.0Q1963 1122 1990.0 1095.0Q2017 1068 2032.5 1032.0Q2048 996 2048 954Q2048 915 2033.0 878.0Q2018 841 1990 813L1273 94L896 0L990 377L1707 1095Q1735 1123 1772.0 1137.5Q1809 1152 1848 1152ZM1899 903Q1920 924 1920 954Q1920 985 1899.5 1004.5Q1879 1024 1848 1024Q1834 1024 1821.0 1019.5Q1808 1015 1798 1005L1106 311L1072 176L1207 210Z" transform="scale(1,-1)"/>
</svg>