<?xml version="1.0" encoding="UTF-8"?>
<svg xmlns="http://www.w3.org/2000/svg" viewBox="0 -2048 2048 2048">
  <path d="M2048 2048V0H0V2048ZM1920 1920H128V128H1920ZM640 1408H256V1792H640ZM512 1664H384V1536H512ZM640 256H256V1280H640ZM512 1152H384V384H512ZM1792 1408H768V1792H1792ZM1664 1664H896V1536H1664ZM979 339 742 576 979 813 1069 723 987 640H1280Q1307 640 1330.0 650.0Q1353 660 1370.5 677.5Q1388 695 1398.0 718.0Q1408 741 1408 768V1061L1325 979L1235 1069L1472 1306L1709 1069L1619 979L1536 1061V768Q1536 715 1516.0 668.5Q1496 622 1461.0 587.0Q1426 552 1379.5 532.0Q1333 512 1280 512H987L1069 429Z" transform="scale(1,-1)"/>
</svg>