<?xml version="1.0" encoding="UTF-8"?>
<svg xmlns="http://www.w3.org/2000/svg" viewBox="0 -1920 2048 1792">
  <path d="M1920 768 2048 128H0L128 768H360Q309 856 282.5 953.0Q256 1050 256 1152Q256 1258 283.5 1356.0Q311 1454 361.0 1539.5Q411 1625 481.0 1695.0Q551 1765 636.5 1815.0Q722 1865 820.0 1892.5Q918 1920 1024 1920Q1130 1920 1228.0 1892.5Q1326 1865 1411.5 1815.0Q1497 1765 1567.0 1695.0Q1637 1625 1687.0 1539.5Q1737 1454 1764.5 1356.0Q1792 1258 1792 1152Q1792 1050 1765.5 953.0Q1739 856 1688 768ZM1664 1152Q1664 1184 1660.5 1216.0Q1657 1248 1651 1280H1402Q1408 1215 1408 1152Q1408 1088 1402 1024H1651Q1657 1056 1660.5 1088.0Q1664 1120 1664 1152ZM774 1024H1274Q1280 1088 1280 1152Q1280 1215 1274 1280H774Q768 1215 768 1152Q768 1088 774 1024ZM1256 896H792Q796 873 806.0 835.5Q816 798 831.5 755.0Q847 712 866.5 669.0Q886 626 910.5 591.0Q935 556 963.5 534.0Q992 512 1024 512Q1056 512 1084.5 534.0Q1113 556 1137.5 591.0Q1162 626 1181.5 669.0Q1201 712 1216.5 755.0Q1232 798 1241.5 835.5Q1251 873 1256 896ZM779 561Q733 637 705.0 723.0Q677 809 662 896H438Q462 843 498.0 792.5Q534 742 578.5 698.0Q623 654 674.0 618.5Q725 583 779 561ZM1386 896Q1370 810 1342.5 723.5Q1315 637 1270 561Q1324 585 1374.5 620.0Q1425 655 1469.5 698.5Q1514 742 1550.0 792.0Q1586 842 1610 896ZM1610 1408Q1559 1521 1471.5 1608.0Q1384 1695 1269 1743Q1315 1667 1342.5 1581.0Q1370 1495 1386 1408ZM1024 1792Q992 1792 963.5 1770.0Q935 1748 910.5 1713.0Q886 1678 866.5 1635.0Q847 1592 831.5 1549.0Q816 1506 806.0 1468.5Q796 1431 792 1408H1256Q1251 1431 1241.5 1468.5Q1232 1506 1216.5 1549.0Q1201 1592 1181.5 1635.0Q1162 1678 1137.5 1713.0Q1113 1748 1084.5 1770.0Q1056 1792 1024 1792ZM779 1743Q664 1695 576.5 1608.0Q489 1521 438 1408H662Q678 1495 705.5 1581.0Q733 1667 779 1743ZM397 1280Q391 1248 387.5 1216.0Q384 1184 384 1152Q384 1120 387.5 1088.0Q391 1056 397 1024H646Q640 1088 640 1152Q640 1215 646 1280ZM156 256H1892L1815 640H1595Q1541 579 1475.5 531.5Q1410 484 1337.0 451.0Q1264 418 1185.0 401.0Q1106 384 1024 384Q942 384 863.0 401.0Q784 418 711.0 451.0Q638 484 572.5 531.5Q507 579 453 640H233Z" transform="scale(1,-1)"/>
</svg>