<?xml version="1.0" encoding="UTF-8"?>
<svg xmlns="http://www.w3.org/2000/svg" viewBox="0 -1792 2047 1792">
  <path d="M1791.015625 579.0 1663.0234375 707.0V256.0H1791.015625ZM2047.0 323.0 1919.0078125 451.0V256.0H2047.0ZM1023.0625 445.0V963.0L895.0703125 850.0V573.0ZM1151.0546875 256.0H1279.046875V1091.0L1215.05078125 1155.0L1151.0546875 1091.0ZM1535.03125 835.0 1407.0390625 963.0V256.0H1535.03125ZM1215.05078125 1382.0 2047.0 549.0V731.0L1215.05078125 1562.0L895.0703125 1243.0L474.09600830078125 1664.0H767.078125V1792.0H255.109375V1280.0H383.1015625V1573.0L895.0703125 1061.0ZM383.1015625 1152.0Q304.10638427734375 1152.0 234.11065673828125 1122.0Q164.11492919921875 1092.0 112.11810302734375 1039.5Q60.12127685546875 987.0 30.12310791015625 917.0Q0.12493896484375 847.0 0.12493896484375 768.0Q0.12493896484375 688.0 30.12310791015625 618.5Q60.12127685546875 549.0 112.11810302734375 496.5Q164.11492919921875 444.0 234.11065673828125 414.0Q304.10638427734375 384.0 383.1015625 384.0Q443.097900390625 384.0 500.09442138671875 402.0Q557.0909423828125 420.0 605.0880126953125 455.0L1042.0613403320312 19.0Q1061.0601806640625 0.0 1087.05859375 0.0Q1113.0570068359375 0.0 1132.0558471679688 19.0Q1151.0546875 38.0 1151.0546875 64.0Q1151.0546875 90.0 1132.0558471679688 109.0L696.0824584960938 546.0Q731.080322265625 594.0 749.0792236328125 651.0Q767.078125 708.0 767.078125 768.0Q767.078125 847.0 737.0799560546875 917.0Q707.081787109375 987.0 654.5849914550781 1039.5Q602.0881958007812 1092.0 532.5924377441406 1122.0Q463.0966796875 1152.0 383.1015625 1152.0ZM383.1015625 512.0Q330.10479736328125 512.0 283.6076354980469 532.0Q237.1104736328125 552.0 202.11260986328125 587.0Q167.11474609375 622.0 147.115966796875 668.5Q127.1171875 715.0 127.1171875 768.0Q127.1171875 821.0 147.115966796875 867.5Q167.11474609375 914.0 202.11260986328125 949.0Q237.1104736328125 984.0 283.6076354980469 1004.0Q330.10479736328125 1024.0 383.1015625 1024.0Q436.09832763671875 1024.0 482.5954895019531 1004.0Q529.0926513671875 984.0 564.0905151367188 949.0Q599.08837890625 914.0 619.087158203125 867.5Q639.0859375 821.0 639.0859375 768.0Q639.0859375 715.0 619.087158203125 668.5Q599.08837890625 622.0 564.0905151367188 587.0Q529.0926513671875 552.0 482.5954895019531 532.0Q436.09832763671875 512.0 383.1015625 512.0Z" transform="scale(1,-1)"/>
</svg>