<?xml version="1.0" encoding="UTF-8"?>
<svg xmlns="http://www.w3.org/2000/svg" viewBox="128 -1792 1792 1792">
  <path d="M1530 741Q1569 741 1606.0 726.0Q1643 711 1671 683L1862 492Q1890 464 1905.0 427.0Q1920 390 1920 351Q1920 312 1905.0 275.0Q1890 238 1862 210L1766 114Q1704 53 1623.0 26.5Q1542 0 1457 0Q1348 0 1233.0 34.0Q1118 68 1004.0 128.0Q890 188 781.0 271.0Q672 354 574.5 452.0Q477 550 395.0 659.0Q313 768 254.0 881.5Q195 995 161.5 1108.5Q128 1222 128 1328Q128 1405 141.5 1459.0Q155 1513 181.5 1557.0Q208 1601 247.0 1642.0Q286 1683 338 1734Q366 1762 403.0 1777.0Q440 1792 479 1792Q518 1792 555.0 1777.0Q592 1762 620 1734L811 1543Q839 1515 854.0 1478.0Q869 1441 869 1402Q869 1363 856.0 1332.5Q843 1302 823.5 1276.5Q804 1251 781.5 1230.5Q759 1210 739.5 1191.0Q720 1172 707.0 1153.5Q694 1135 694 1115Q694 1086 715 1065L1193 587Q1214 566 1243 566Q1264 566 1282.5 579.0Q1301 592 1319.5 611.5Q1338 631 1358.5 653.5Q1379 676 1404.0 695.5Q1429 715 1459.5 728.0Q1490 741 1530 741ZM1457 128Q1518 128 1559.5 139.5Q1601 151 1634.0 173.0Q1667 195 1698.5 227.0Q1730 259 1771 300Q1792 321 1792 350Q1792 380 1771 401L1580 592Q1559 613 1530 613Q1509 613 1490.0 600.0Q1471 587 1452.5 567.5Q1434 548 1413.5 525.5Q1393 503 1368.0 483.5Q1343 464 1312.5 451.0Q1282 438 1243 438Q1203 438 1166.5 453.5Q1130 469 1102 497L625 974Q597 1002 581.5 1038.5Q566 1075 566 1115Q566 1154 579.0 1184.5Q592 1215 611.5 1240.0Q631 1265 653.5 1285.5Q676 1306 695.5 1325.0Q715 1344 728.0 1362.5Q741 1381 741 1402Q741 1431 720 1452L529 1643Q508 1664 479 1664Q449 1664 428 1643Q387 1602 355.0 1571.0Q323 1540 301.0 1506.5Q279 1473 267.5 1432.0Q256 1391 256 1331Q256 1235 287.0 1132.0Q318 1029 373.5 926.5Q429 824 505.0 725.0Q581 626 670.0 537.0Q759 448 858.5 373.0Q958 298 1060.0 243.5Q1162 189 1263.0 158.5Q1364 128 1457 128ZM1280 1152H1152V1792H1280ZM1664 1152H1536V1792H1664Z" transform="scale(1,-1)"/>
</svg>