<?xml version="1.0" encoding="UTF-8"?>
<svg xmlns="http://www.w3.org/2000/svg" viewBox="256 -2048 1408 2048">
  <path d="M960 2048Q1057 2048 1147.0 2023.0Q1237 1998 1315.5 1952.0Q1394 1906 1458.0 1842.0Q1522 1778 1568.0 1699.5Q1614 1621 1639.0 1531.0Q1664 1441 1664 1344Q1664 1199 1609.0 1075.0Q1554 951 1452 850Q1369 768 1324.5 667.0Q1280 566 1280 448V192Q1280 152 1265.0 117.0Q1250 82 1224.0 56.0Q1198 30 1163.0 15.0Q1128 0 1088 0H832Q792 0 757.0 15.0Q722 30 696.0 56.0Q670 82 655.0 117.0Q640 152 640 192V448Q640 566 595.5 667.0Q551 768 468 850Q366 951 311.0 1075.0Q256 1199 256 1344Q256 1441 281.0 1531.0Q306 1621 352.0 1699.5Q398 1778 462.0 1842.0Q526 1906 604.5 1952.0Q683 1998 773.0 2023.0Q863 2048 960 2048ZM1088 128Q1114 128 1133.0 147.0Q1152 166 1152 192V384H768V192Q768 166 787.0 147.0Q806 128 832 128ZM1155 512Q1168 641 1221.0 746.0Q1274 851 1364 942Q1447 1026 1491.5 1125.5Q1536 1225 1536 1344Q1536 1463 1490.5 1568.0Q1445 1673 1367.0 1751.0Q1289 1829 1184.0 1874.5Q1079 1920 960 1920Q841 1920 736.0 1874.5Q631 1829 553.0 1751.0Q475 1673 429.5 1568.0Q384 1463 384 1344Q384 1225 428.5 1125.5Q473 1026 556 942Q646 851 699.0 746.0Q752 641 765 512Z" transform="scale(1,-1)"/>
</svg>