<?xml version="1.0" encoding="UTF-8"?>
<svg xmlns="http://www.w3.org/2000/svg" viewBox="0 -2048 2048 2048">
  <path d="M1920 938Q1983 861 2015.5 768.5Q2048 676 2048 576Q2048 457 2002.5 352.0Q1957 247 1879.0 169.0Q1801 91 1696.0 45.5Q1591 0 1472 0Q1372 0 1279.5 32.5Q1187 65 1110 128H128V512H0V640H128V1408H0V1536H128V2048H1920ZM256 256H993Q955 313 931.0 378.0Q907 443 899 512H640V1408H1024V938Q1078 1006 1152 1055V1664H1536V1149Q1605 1141 1670.0 1117.0Q1735 1093 1792 1055V1920H256V1536H384V1408H256V640H384V512H256ZM1408 1536H1280V1119Q1341 1141 1408 1149ZM896 640V1280H768V640ZM1472 128Q1565 128 1646.5 163.0Q1728 198 1789.0 259.0Q1850 320 1885.0 401.5Q1920 483 1920 576Q1920 669 1885.0 750.5Q1850 832 1789.0 893.0Q1728 954 1646.5 989.0Q1565 1024 1472 1024Q1379 1024 1297.5 989.0Q1216 954 1155.0 893.0Q1094 832 1059.0 750.5Q1024 669 1024 576Q1024 483 1059.0 401.5Q1094 320 1155.0 259.0Q1216 198 1297.5 163.0Q1379 128 1472 128ZM1536 640H1728V512H1408V896H1536Z" transform="scale(1,-1)"/>
</svg>