<?xml version="1.0" encoding="UTF-8"?>
<svg xmlns="http://www.w3.org/2000/svg" viewBox="0 -2048 2048 1984">
  <path d="M1792 1407Q1792 1384 1804.0 1354.5Q1816 1325 1833.5 1295.0Q1851 1265 1870.0 1238.0Q1889 1211 1904 1194Q1976 1108 2012.0 1016.0Q2048 924 2048 810Q2048 702 2001.5 609.5Q1955 517 1879 443Q1841 406 1794.0 372.0Q1747 338 1695.5 309.5Q1644 281 1590.5 259.5Q1537 238 1485 225Q1371 197 1265.5 161.0Q1160 125 1055 72Q1039 64 1024 64Q1009 64 993 72Q888 125 782.5 161.0Q677 197 563 225Q511 238 457.5 259.5Q404 281 352.5 309.5Q301 338 254.0 372.0Q207 406 169 443Q93 517 46.5 609.5Q0 702 0 810Q0 924 36.0 1015.5Q72 1107 144 1194Q158 1211 177.5 1238.0Q197 1265 214.5 1295.0Q232 1325 244.0 1354.5Q256 1384 256 1407Q256 1473 229.0 1520.5Q202 1568 154 1610Q141 1621 135.0 1633.5Q129 1646 129 1663Q129 1688 147 1706L402 1965Q411 1974 423.5 1979.0Q436 1984 448 1984Q463 1984 473.0 1979.0Q483 1974 494 1964Q536 1926 581.5 1908.0Q627 1890 684 1890Q721 1890 762.0 1898.5Q803 1907 841.5 1923.5Q880 1940 913.5 1963.5Q947 1987 970 2018Q981 2032 993.5 2040.0Q1006 2048 1024 2048Q1042 2048 1054.5 2040.0Q1067 2032 1078 2018Q1100 1987 1134.0 1963.5Q1168 1940 1206.5 1923.5Q1245 1907 1286.0 1898.5Q1327 1890 1364 1890Q1421 1890 1466.5 1908.0Q1512 1926 1554 1964Q1565 1974 1575.0 1979.0Q1585 1984 1599 1984Q1627 1984 1646 1965L1901 1706Q1919 1688 1919 1663Q1919 1646 1913.0 1633.5Q1907 1621 1894 1610Q1846 1568 1819.0 1520.5Q1792 1473 1792 1407ZM1024 200Q1105 242 1189.5 272.5Q1274 303 1361 326Q1385 333 1409.0 338.0Q1433 343 1457 350Q1509 364 1563.5 387.5Q1618 411 1669.0 442.5Q1720 474 1766.0 513.5Q1812 553 1846.0 600.0Q1880 647 1900.0 701.0Q1920 755 1920 815Q1920 888 1904.5 938.0Q1889 988 1863.5 1029.5Q1838 1071 1805.0 1111.5Q1772 1152 1738 1206Q1724 1227 1711.0 1251.5Q1698 1276 1687.5 1302.0Q1677 1328 1670.5 1354.5Q1664 1381 1664 1407Q1664 1479 1689.5 1545.0Q1715 1611 1763 1664L1596 1833Q1545 1797 1485.5 1779.5Q1426 1762 1364 1762Q1323 1762 1276.0 1771.0Q1229 1780 1183.5 1796.0Q1138 1812 1096.0 1835.0Q1054 1858 1024 1886Q993 1858 951.5 1835.0Q910 1812 864.0 1796.0Q818 1780 771.5 1771.0Q725 1762 684 1762Q622 1762 562.5 1779.5Q503 1797 452 1833L285 1664Q333 1611 358.5 1545.0Q384 1479 384 1407Q384 1381 377.5 1354.5Q371 1328 360.5 1302.0Q350 1276 336.5 1251.5Q323 1227 310 1206Q276 1152 243.0 1111.5Q210 1071 184.5 1029.5Q159 988 143.5 938.0Q128 888 128 815Q128 755 148.0 701.0Q168 647 202.0 600.0Q236 553 282.0 513.5Q328 474 379.0 442.5Q430 411 484.5 387.5Q539 364 591 350Q615 343 639.0 338.0Q663 333 687 326Q774 303 858.5 272.5Q943 242 1024 200Z" transform="scale(1,-1)"/>
</svg>