<?xml version="1.0" encoding="UTF-8"?>
<svg xmlns="http://www.w3.org/2000/svg" viewBox="0 -2046 2048 2031">
  <path d="M1344 2046 2048 1694V909L1920 973V1551L1408 1295V1037L1280 973V1295L768 1551V1324L640 1388V1694ZM1344 1406 1521 1495 1058 1760 847 1654ZM1659 1563 1841 1654 1344 1903 1195 1828ZM1152 909 1024 845V846L640 654V199L1024 392V248L576 24L0 313V989L576 1277L1152 989ZM512 199V654L128 846V392ZM576 765 945 949 576 1134 207 949ZM1152 766 1600 990 2048 766V239L1600 15L1152 239ZM1536 190V495L1280 623V318ZM1920 318V623L1664 495V190ZM1600 606 1841 727 1600 847 1359 727Z" transform="scale(1,-1)"/>
</svg>