<?xml version="1.0" encoding="UTF-8"?>
<svg xmlns="http://www.w3.org/2000/svg" viewBox="128 -2048 1792 2048">
  <path d="M1920 1280V0H896V128H128V1792H640Q640 1844 660.5 1891.0Q681 1938 715.5 1972.5Q750 2007 796.5 2027.5Q843 2048 896 2048Q948 2048 995.0 2027.5Q1042 2007 1076.5 1972.5Q1111 1938 1131.5 1891.0Q1152 1844 1152 1792H1664V1280ZM512 1664V1536H1280V1664H1024Q1024 1680 1024.5 1697.5Q1025 1715 1025 1733Q1025 1767 1021.5 1800.5Q1018 1834 1004.5 1860.5Q991 1887 965.5 1903.5Q940 1920 896 1920Q852 1920 826.5 1903.5Q801 1887 787.5 1860.5Q774 1834 770.5 1800.5Q767 1767 767 1733Q767 1715 767.5 1697.5Q768 1680 768 1664ZM896 256V1280H1536V1664H1408V1408H384V1664H256V256ZM1792 1152H1024V128H1792Z" transform="scale(1,-1)"/>
</svg>