<?xml version="1.0" encoding="UTF-8"?>
<svg xmlns="http://www.w3.org/2000/svg" viewBox="256 -1920 1663 1664">
  <path d="M1720 1920Q1761 1920 1797.0 1904.0Q1833 1888 1860.0 1861.0Q1887 1834 1903.0 1797.5Q1919 1761 1919 1720Q1919 1683 1908.5 1654.5Q1898 1626 1880.0 1602.0Q1862 1578 1839.0 1556.0Q1816 1534 1792 1510V256H256V1792H1510Q1534 1816 1556.5 1839.0Q1579 1862 1603.0 1880.0Q1627 1898 1655.0 1909.0Q1683 1920 1720 1920ZM1720 1792Q1691 1792 1670 1771L722 823L688 688L823 722L1771 1670Q1792 1691 1792 1720Q1792 1750 1770.5 1771.0Q1749 1792 1720 1792ZM1664 1382 889 606 512 512 606 889 1382 1664H384V384H1664Z" transform="scale(1,-1)"/>
</svg>