<?xml version="1.0" encoding="UTF-8"?>
<svg xmlns="http://www.w3.org/2000/svg" viewBox="0 -2048 1920 1920">
  <path d="M960 2048Q1092 2048 1214.5 2013.5Q1337 1979 1444.0 1916.5Q1551 1854 1638.5 1766.5Q1726 1679 1788.5 1572.0Q1851 1465 1885.5 1342.5Q1920 1220 1920 1088Q1920 956 1885.5 833.5Q1851 711 1788.5 604.0Q1726 497 1638.5 409.5Q1551 322 1444.0 259.5Q1337 197 1214.5 162.5Q1092 128 960 128Q828 128 705.5 162.5Q583 197 476.0 259.5Q369 322 281.5 409.5Q194 497 131.5 604.0Q69 711 34.5 833.5Q0 956 0 1088Q0 1220 34.5 1342.5Q69 1465 131.5 1572.0Q194 1679 281.5 1766.5Q369 1854 476.0 1916.5Q583 1979 705.5 2013.5Q828 2048 960 2048ZM960 248Q1076 248 1183.0 278.0Q1290 308 1383.5 363.0Q1477 418 1553.5 494.5Q1630 571 1685.0 664.5Q1740 758 1770.0 865.0Q1800 972 1800 1088Q1800 1204 1770.0 1311.0Q1740 1418 1685.0 1511.5Q1630 1605 1553.5 1681.5Q1477 1758 1383.5 1813.0Q1290 1868 1183.0 1898.0Q1076 1928 960 1928Q844 1928 737.0 1898.0Q630 1868 536.5 1813.0Q443 1758 366.5 1681.5Q290 1605 235.0 1511.5Q180 1418 150.0 1311.0Q120 1204 120 1088Q120 972 150.0 865.0Q180 758 235.0 664.5Q290 571 366.5 494.5Q443 418 536.5 363.0Q630 308 737.0 278.0Q844 248 960 248ZM1152 1408H1536V896H1024V1152H768V512H640V1664H1152ZM1024 1536H768V1280H1024ZM1152 1280V1024H1408V1280Z" transform="scale(1,-1)"/>
</svg>