<?xml version="1.0" encoding="UTF-8"?>
<svg xmlns="http://www.w3.org/2000/svg" viewBox="0 -2048 2038 2038">
  <path d="M960 1408Q937 1408 915 1411L328 824Q302 798 266.0 783.0Q230 768 192 768Q152 768 117.0 783.0Q82 798 56.0 824.0Q30 850 15.0 885.0Q0 920 0 960Q0 998 15.0 1034.0Q30 1070 56 1096L643 1683Q640 1705 640 1728Q640 1794 665.0 1852.5Q690 1911 733.5 1954.5Q777 1998 835.5 2023.0Q894 2048 960 2048Q1026 2048 1084.0 2022.5Q1142 1997 1185.5 1953.5Q1229 1910 1254.5 1852.0Q1280 1794 1280 1728Q1280 1662 1255.0 1603.5Q1230 1545 1186.5 1501.5Q1143 1458 1084.5 1433.0Q1026 1408 960 1408ZM1152 1728Q1152 1769 1133 1810L987 1664H896V1755L1042 1901Q1001 1920 960 1920Q920 1920 885.0 1905.0Q850 1890 824.0 1864.0Q798 1838 783.0 1803.0Q768 1768 768 1728Q768 1687 787 1646L147 1005Q128 986 128 960Q128 934 147.0 915.0Q166 896 192 896Q218 896 237 915L878 1555Q919 1536 960 1536Q1000 1536 1035.0 1551.0Q1070 1566 1096.0 1592.0Q1122 1618 1137.0 1653.0Q1152 1688 1152 1728ZM768 1038V512H1024V384H640V910ZM1920 448Q1920 417 1914 387L2038 336L1989 217L1865 269Q1830 218 1779 183L1831 59L1712 10L1661 134Q1631 128 1600 128Q1569 128 1539 134L1488 10L1369 59L1421 183Q1370 218 1335 269L1211 217L1162 336L1286 387Q1280 417 1280 448Q1280 479 1286 509L1162 560L1211 679L1335 627Q1370 678 1421 713L1369 837L1488 886L1539 762Q1569 768 1600 768Q1631 768 1661 762L1712 886L1831 837L1779 713Q1830 678 1865 627L1989 679L2038 560L1914 509Q1920 479 1920 448ZM1792 448Q1792 488 1777.0 523.0Q1762 558 1736.0 584.0Q1710 610 1675.0 625.0Q1640 640 1600 640Q1560 640 1525.0 625.0Q1490 610 1464.0 584.0Q1438 558 1423.0 523.0Q1408 488 1408 448Q1408 408 1423.0 373.0Q1438 338 1464.0 312.0Q1490 286 1525.0 271.0Q1560 256 1600 256Q1640 256 1675.0 271.0Q1710 286 1736.0 312.0Q1762 338 1777.0 373.0Q1792 408 1792 448Z" transform="scale(1,-1)"/>
</svg>