<?xml version="1.0" encoding="UTF-8"?>
<svg xmlns="http://www.w3.org/2000/svg" viewBox="0 -2048 2048 2048">
  <path d="M1337 1024Q1293 966 1270 896H896V1664H1024V1024ZM128 1024Q128 901 160.0 786.5Q192 672 250.5 572.5Q309 473 391.0 391.0Q473 309 572.5 250.5Q672 192 786.0 160.0Q900 128 1024 128Q1056 128 1088.0 130.5Q1120 133 1152 138V9Q1120 5 1088.0 2.5Q1056 0 1024 0Q883 0 752.0 36.5Q621 73 507.5 140.0Q394 207 300.5 300.5Q207 394 140.0 507.5Q73 621 36.5 752.0Q0 883 0 1024Q0 1165 36.5 1296.0Q73 1427 140.0 1540.5Q207 1654 300.5 1747.5Q394 1841 507.5 1908.0Q621 1975 752.0 2011.5Q883 2048 1024 2048Q1165 2048 1296.0 2011.5Q1427 1975 1540.5 1908.0Q1654 1841 1747.5 1747.5Q1841 1654 1908.0 1540.5Q1975 1427 2011.5 1296.0Q2048 1165 2048 1024Q2048 1001 2046.5 979.5Q2045 958 2043 935Q2023 983 1992.0 1023.5Q1961 1064 1920 1096Q1911 1212 1873.0 1318.5Q1835 1425 1774.5 1516.5Q1714 1608 1632.5 1682.5Q1551 1757 1454.5 1810.0Q1358 1863 1249.0 1891.5Q1140 1920 1024 1920Q901 1920 786.5 1888.0Q672 1856 572.5 1797.5Q473 1739 391.0 1657.0Q309 1575 250.5 1475.5Q192 1376 160.0 1261.5Q128 1147 128 1024ZM1664 1024Q1717 1024 1763.5 1004.0Q1810 984 1845.0 949.0Q1880 914 1900.0 867.5Q1920 821 1920 768V640H2048V0H1280V640H1408V768Q1408 821 1428.0 867.5Q1448 914 1483.0 949.0Q1518 984 1564.5 1004.0Q1611 1024 1664 1024ZM1536 640H1792V768Q1792 795 1782.0 818.0Q1772 841 1754.5 858.5Q1737 876 1714.0 886.0Q1691 896 1664 896Q1637 896 1614.0 886.0Q1591 876 1573.5 858.5Q1556 841 1546.0 818.0Q1536 795 1536 768ZM1920 512H1408V128H1920Z" transform="scale(1,-1)"/>
</svg>