<?xml version="1.0" encoding="UTF-8"?>
<svg xmlns="http://www.w3.org/2000/svg" viewBox="0 -1664 2048 1536">
  <path d="M1629 1279Q1717 1273 1793.5 1236.0Q1870 1199 1926.5 1138.5Q1983 1078 2015.5 999.0Q2048 920 2048 832Q2048 739 2012.5 657.5Q1977 576 1916.5 515.5Q1856 455 1774.5 419.5Q1693 384 1600 384H1280V512H1600Q1666 512 1724.5 537.0Q1783 562 1826.5 605.5Q1870 649 1895.0 707.5Q1920 766 1920 832Q1920 898 1895.0 956.5Q1870 1015 1826.5 1058.5Q1783 1102 1724.5 1127.0Q1666 1152 1600 1152Q1582 1152 1564.5 1150.0Q1547 1148 1530 1144Q1520 1228 1481.0 1299.5Q1442 1371 1383.0 1423.5Q1324 1476 1248.0 1506.0Q1172 1536 1088 1536Q1018 1536 953.0 1515.0Q888 1494 833.5 1456.0Q779 1418 737.0 1364.5Q695 1311 670 1245Q595 1280 512 1280Q432 1280 362.5 1250.0Q293 1220 240.5 1167.5Q188 1115 158.0 1045.0Q128 975 128 896Q128 816 158.0 746.5Q188 677 240.5 624.5Q293 572 362.5 542.0Q432 512 512 512H896V384H512Q406 384 313.0 424.5Q220 465 150.5 534.5Q81 604 40.5 697.0Q0 790 0 896Q0 1002 40.5 1095.0Q81 1188 150.5 1257.5Q220 1327 313.0 1367.5Q406 1408 512 1408Q558 1408 605 1399Q645 1460 698.0 1509.0Q751 1558 813.0 1592.5Q875 1627 945.0 1645.5Q1015 1664 1088 1664Q1179 1664 1263.5 1636.0Q1348 1608 1419.5 1557.5Q1491 1507 1545.0 1436.0Q1599 1365 1629 1279ZM1299 659 1152 805V128H1024V805L877 659L787 749L1088 1050L1389 749Z" transform="scale(1,-1)"/>
</svg>