<?xml version="1.0" encoding="UTF-8"?>
<svg xmlns="http://www.w3.org/2000/svg" viewBox="0 -1997 2048 1997">
  <path d="M1152 1997V51L0 317V1731ZM863 606 648 1015 857 1417 681 1407 574 1169Q566 1153 562.0 1135.5Q558 1118 553 1101H551Q547 1113 544.0 1126.0Q541 1139 537 1152Q535 1156 534.0 1159.0Q533 1162 531 1166L439 1392L268 1383L450 1012L252 641L418 632L529 875Q530 878 532.5 885.5Q535 893 537.5 901.5Q540 910 542.0 917.5Q544 925 544 928H546Q546 925 547.5 917.0Q549 909 551.5 900.5Q554 892 556.0 885.0Q558 878 560 876L676 617ZM1408 896H1216V960H1408V1152H1216V1216H1408V1408H1216V1472H1408V1664H1216V1792H1852Q1860 1792 1872.0 1784.5Q1884 1777 1894.5 1766.5Q1905 1756 1912.5 1744.0Q1920 1732 1920 1724V629L1792 757V896H1472V768H1408ZM1472 1472H1792V1664H1472ZM1472 1216H1792V1408H1472ZM1472 960H1792V1152H1472ZM2048 320 1728 0 1638 91 1803 256H1664Q1584 256 1514.5 286.0Q1445 316 1392.5 368.5Q1340 421 1310.0 490.5Q1280 560 1280 640H1408Q1408 587 1428.0 540.5Q1448 494 1483.0 459.0Q1518 424 1564.5 404.0Q1611 384 1664 384H1803L1638 549L1728 640Z" transform="scale(1,-1)"/>
</svg>