<?xml version="1.0" encoding="UTF-8"?>
<svg xmlns="http://www.w3.org/2000/svg" viewBox="384 -2048 1395 2048">
  <path d="M1779 734Q1779 628 1741.0 531.0Q1703 434 1631 357L1653 384Q1630 352 1596.0 323.5Q1562 295 1523.5 269.5Q1485 244 1445.5 221.5Q1406 199 1373 179Q1320 147 1269.5 115.0Q1219 83 1166.5 57.5Q1114 32 1057.5 16.0Q1001 0 936 0Q830 0 736.5 37.5Q643 75 570.0 140.5Q497 206 449.0 295.0Q401 384 388 488Q386 499 385.0 511.0Q384 523 384 534V1966Q384 2000 408.0 2024.0Q432 2048 466 2048Q480 2048 490.5 2044.5Q501 2041 512 2034Q577 1993 640.0 1951.0Q703 1909 767 1867L765 1868Q766 1868 767 1867Q818 1831 846.0 1779.0Q874 1727 874 1664V392L873 391L874 392V394Q1022 479 1167.0 566.0Q1312 653 1459 740Q1470 747 1481.5 753.5Q1493 760 1505 767Q1445 792 1381.5 809.0Q1318 826 1258 851Q1223 866 1202.0 891.5Q1181 917 1166.5 948.0Q1152 979 1141.5 1013.0Q1131 1047 1117 1078Q1113 1087 1104.5 1107.5Q1096 1128 1086.0 1153.0Q1076 1178 1065.5 1205.5Q1055 1233 1046.0 1258.0Q1037 1283 1031.5 1302.5Q1026 1322 1026 1331Q1026 1363 1047.5 1385.5Q1069 1408 1102 1408Q1118 1408 1133 1402Q1161 1390 1188.5 1376.0Q1216 1362 1243 1348Q1277 1331 1327.5 1305.5Q1378 1280 1429.5 1251.5Q1481 1223 1527.5 1194.0Q1574 1165 1601 1141Q1687 1063 1733.0 956.5Q1779 850 1779 734Z" transform="scale(1,-1)"/>
</svg>