<?xml version="1.0" encoding="UTF-8"?>
<svg xmlns="http://www.w3.org/2000/svg" viewBox="0 -2048 2048 2048">
  <path d="M2048 512V384H1525L1736 173L1645 83L1280 448L1645 813L1736 723L1525 512H2048ZM512 640V768H1374L1246 640H512ZM1408 1024V896H512V1024H1408ZM1408 1280V1152H512V1280H1408ZM512 1536H896V1408H512V1536ZM128 128H1374L1502 0H0V2048H1115L1664 1499V1024H1536V1408H1024V1920H128V128ZM1152 1829V1536H1445L1152 1829ZM384 1536V1408H256V1536H384ZM384 1280V1152H256V1280H384ZM384 1024V896H256V1024H384ZM256 640V768H384V640H256Z" transform="scale(1,-1)"/>
</svg>