<?xml version="1.0" encoding="UTF-8"?>
<svg xmlns="http://www.w3.org/2000/svg" viewBox="0 -2048 1920 2048">
  <path d="M1196 647Q1231 647 1264.0 633.5Q1297 620 1322 595L1484 433Q1509 408 1522.5 375.0Q1536 342 1536 307Q1536 272 1522.5 239.0Q1509 206 1484 181Q1440 137 1404.5 103.0Q1369 69 1330.5 46.0Q1292 23 1246.0 11.5Q1200 0 1134 0Q1042 0 944.5 28.5Q847 57 750.0 108.0Q653 159 559.5 229.5Q466 300 383.0 383.5Q300 467 229.5 560.0Q159 653 108.0 750.5Q57 848 28.5 945.5Q0 1043 0 1135Q0 1200 12.0 1246.5Q24 1293 47.0 1331.0Q70 1369 103.5 1404.5Q137 1440 181 1484Q206 1509 239.0 1522.5Q272 1536 307 1536Q342 1536 375.0 1522.5Q408 1509 433 1484L595 1322Q620 1297 633.5 1264.0Q647 1231 647 1196Q647 1162 636.0 1135.0Q625 1108 608.5 1086.0Q592 1064 573.0 1046.5Q554 1029 537.5 1013.5Q521 998 510.0 983.5Q499 969 499 953Q499 933 514 918L918 514Q933 499 953 499Q969 499 983.5 510.0Q998 521 1013.5 537.5Q1029 554 1046.5 573.0Q1064 592 1085.5 608.5Q1107 625 1134.0 636.0Q1161 647 1196 647ZM1136 128Q1186 128 1219.5 137.5Q1253 147 1280.0 165.5Q1307 184 1333.0 210.5Q1359 237 1393 271Q1408 286 1408 307Q1408 327 1393 342L1231 504Q1217 518 1196 518Q1172 518 1150.0 495.0Q1128 472 1101.5 444.0Q1075 416 1040.0 393.0Q1005 370 953 370Q918 370 885.0 384.0Q852 398 827 423L423 827Q398 852 384.0 885.0Q370 918 370 953Q370 987 381.0 1014.5Q392 1042 408.5 1063.5Q425 1085 444.5 1102.5Q464 1120 480.5 1135.5Q497 1151 508.0 1165.5Q519 1180 519 1196Q519 1216 504 1231L342 1393Q327 1408 307 1408Q286 1408 271 1393Q237 1359 210.5 1333.0Q184 1307 165.5 1280.0Q147 1253 137.5 1219.5Q128 1186 128 1136Q128 1057 154.0 971.5Q180 886 226.0 800.5Q272 715 335.5 631.5Q399 548 473.5 473.5Q548 399 631.5 335.5Q715 272 800.5 226.0Q886 180 971.5 154.0Q1057 128 1136 128ZM1636 1355Q1701 1323 1753.5 1274.5Q1806 1226 1843.0 1166.0Q1880 1106 1900.0 1037.0Q1920 968 1920 896H1792Q1792 975 1762.0 1045.0Q1732 1115 1679.5 1167.5Q1627 1220 1557.0 1250.0Q1487 1280 1408 1280Q1328 1280 1258.5 1250.0Q1189 1220 1136.5 1167.5Q1084 1115 1054.0 1045.0Q1024 975 1024 896H896Q896 968 916.0 1037.0Q936 1106 973.0 1166.0Q1010 1226 1062.5 1274.5Q1115 1323 1180 1355Q1106 1410 1065.0 1491.0Q1024 1572 1024 1664Q1024 1743 1054.0 1813.0Q1084 1883 1136.5 1935.5Q1189 1988 1258.5 2018.0Q1328 2048 1408 2048Q1487 2048 1557.0 2018.0Q1627 1988 1679.5 1935.5Q1732 1883 1762.0 1813.0Q1792 1743 1792 1664Q1792 1572 1751.0 1491.0Q1710 1410 1636 1355ZM1152 1664Q1152 1611 1172.0 1564.5Q1192 1518 1227.0 1483.0Q1262 1448 1308.5 1428.0Q1355 1408 1408 1408Q1461 1408 1507.5 1428.0Q1554 1448 1589.0 1483.0Q1624 1518 1644.0 1564.5Q1664 1611 1664 1664Q1664 1717 1644.0 1763.5Q1624 1810 1589.0 1845.0Q1554 1880 1507.5 1900.0Q1461 1920 1408 1920Q1355 1920 1308.5 1900.0Q1262 1880 1227.0 1845.0Q1192 1810 1172.0 1763.5Q1152 1717 1152 1664Z" transform="scale(1,-1)"/>
</svg>