<?xml version="1.0" encoding="UTF-8"?>
<svg xmlns="http://www.w3.org/2000/svg" viewBox="0 -2048 2048 2048">
  <path d="M1190 1022 1132 907Q1052 964 959.5 994.0Q867 1024 768 1024Q680 1024 598.0 1001.0Q516 978 445.0 936.5Q374 895 315.5 836.5Q257 778 215.5 707.0Q174 636 151.0 554.0Q128 472 128 384H0Q0 504 35.5 615.0Q71 726 136.0 820.0Q201 914 292.5 987.0Q384 1060 496 1102Q383 1176 319.5 1288.0Q256 1400 256 1536Q256 1642 296.0 1735.5Q336 1829 405.5 1898.5Q475 1968 568.5 2008.0Q662 2048 768 2048Q874 2048 967.5 2008.0Q1061 1968 1130.5 1898.5Q1200 1829 1240.0 1735.5Q1280 1642 1280 1536Q1280 1470 1263.5 1407.0Q1247 1344 1216.0 1287.5Q1185 1231 1140.0 1183.5Q1095 1136 1039 1101Q1079 1085 1117.0 1065.5Q1155 1046 1190 1022ZM384 1536Q384 1456 414.0 1386.5Q444 1317 496.5 1264.5Q549 1212 618.5 1182.0Q688 1152 768 1152Q847 1152 917.0 1182.0Q987 1212 1039.5 1264.5Q1092 1317 1122.0 1386.5Q1152 1456 1152 1536Q1152 1615 1122.0 1685.0Q1092 1755 1039.5 1807.5Q987 1860 917.0 1890.0Q847 1920 768 1920Q688 1920 618.5 1890.0Q549 1860 496.5 1807.5Q444 1755 414.0 1685.0Q384 1615 384 1536ZM1779 896H2048L1376 0H1112L1368 512H1112L1499 1280H2017ZM1335 158 1792 768H1549L1787 1152H1578L1320 640H1576Z" transform="scale(1,-1)"/>
</svg>