<?xml version="1.0" encoding="UTF-8"?>
<svg xmlns="http://www.w3.org/2000/svg" viewBox="0 -1792 2048 1792">
  <path d="M960 1792Q1138 1792 1305 1723Q1377 1694 1449.5 1679.0Q1522 1664 1600 1664H2048V768H1631Q1566 768 1508.5 744.0Q1451 720 1405 674L783 53Q758 28 733.0 14.0Q708 0 672 0Q639 0 610.0 12.5Q581 25 559.0 47.0Q537 69 524.5 98.0Q512 127 512 160Q512 241 530.0 314.5Q548 388 583 460Q603 503 617.0 547.5Q631 592 636 640H192Q153 640 118.0 655.0Q83 670 56.5 696.0Q30 722 15.0 757.0Q0 792 0 832Q0 864 10 893L266 1661Q286 1720 336.0 1756.0Q386 1792 448 1792H960Z" transform="scale(1,-1)"/>
</svg>