<?xml version="1.0" encoding="UTF-8"?>
<svg xmlns="http://www.w3.org/2000/svg" viewBox="0 -2048 1920 1920">
  <path d="M960.05859375 2048.0Q827.0667114257812 2048.0 704.5741882324219 2014.0Q582.0816650390625 1980.0 475.08819580078125 1917.5Q368.0947265625 1855.0 280.6000671386719 1767.5Q193.10540771484375 1680.0 130.60922241210938 1573.0Q68.113037109375 1466.0 34.1151123046875 1343.5Q0.1171875 1221.0 0.1171875 1088.0Q0.1171875 955.0 34.1151123046875 832.5Q68.113037109375 710.0 130.60922241210938 603.0Q193.10540771484375 496.0 280.6000671386719 408.5Q368.0947265625 321.0 475.08819580078125 258.5Q582.0816650390625 196.0 704.5741882324219 162.0Q827.0667114257812 128.0 960.05859375 128.0Q1093.0504760742188 128.0 1215.5429992675781 162.0Q1338.0355224609375 196.0 1445.0289916992188 258.5Q1552.0224609375 321.0 1639.5171203613281 408.5Q1727.0117797851562 496.0 1789.5079650878906 603.0Q1852.004150390625 710.0 1886.0020751953125 832.5Q1920.0 955.0 1920.0 1088.0Q1920.0 1221.0 1886.0020751953125 1343.5Q1852.004150390625 1466.0 1789.5079650878906 1573.0Q1727.0117797851562 1680.0 1639.5171203613281 1767.5Q1552.0224609375 1855.0 1445.0289916992188 1917.5Q1338.0355224609375 1980.0 1215.5429992675781 2014.0Q1093.0504760742188 2048.0 960.05859375 2048.0ZM960.05859375 256.0Q845.0656127929688 256.0 739.0720825195312 286.0Q633.0785522460938 316.0 540.5841979980469 370.0Q448.08984375 424.0 372.094482421875 500.0Q296.09912109375 576.0 242.1024169921875 668.5Q188.105712890625 761.0 158.1075439453125 867.0Q128.109375 973.0 128.109375 1088.0Q128.109375 1203.0 158.1075439453125 1309.0Q188.105712890625 1415.0 242.1024169921875 1507.5Q296.09912109375 1600.0 372.094482421875 1676.0Q448.08984375 1752.0 540.5841979980469 1806.0Q633.0785522460938 1860.0 739.0720825195312 1890.0Q845.0656127929688 1920.0 960.05859375 1920.0Q1075.0515747070312 1920.0 1181.0451049804688 1890.0Q1287.0386352539062 1860.0 1379.5329895019531 1806.0Q1472.02734375 1752.0 1548.022705078125 1676.0Q1624.01806640625 1600.0 1678.0147705078125 1507.5Q1732.011474609375 1415.0 1762.0096435546875 1309.0Q1792.0078125 1203.0 1792.0078125 1088.0Q1792.0078125 973.0 1762.0096435546875 867.0Q1732.011474609375 761.0 1678.0147705078125 668.5Q1624.01806640625 576.0 1548.022705078125 500.0Q1472.02734375 424.0 1379.5329895019531 370.0Q1287.0386352539062 316.0 1181.0451049804688 286.0Q1075.0515747070312 256.0 960.05859375 256.0ZM1193.0443725585938 1152.0H512.0859375V1024.0H1193.0443725585938L915.0613403320312 750.0L1005.0558471679688 658.0L1439.0293579101562 1088.0L1005.0558471679688 1518.0L915.0613403320312 1426.0Z" transform="scale(1,-1)"/>
</svg>