<?xml version="1.0" encoding="UTF-8"?>
<svg xmlns="http://www.w3.org/2000/svg" viewBox="0 -1920 2048 1910">
  <path d="M2038 560 1914 509Q1920 479 1920 448Q1920 417 1914 387L2038 336L1989 217L1865 269Q1848 243 1826.5 221.5Q1805 200 1779 183L1831 59L1712 10L1661 134Q1631 128 1600 128Q1569 128 1539 134L1488 10L1369 59L1421 183Q1370 218 1335 269L1211 217L1162 336L1286 387Q1280 417 1280 448Q1280 479 1286 509L1162 560L1211 679L1335 627Q1370 678 1421 713L1369 837L1488 886L1539 762Q1569 768 1600 768Q1631 768 1661 762L1712 886L1831 837L1779 713Q1805 696 1826.5 674.5Q1848 653 1865 627L1989 679ZM1600 256Q1639 256 1674.0 271.0Q1709 286 1735.5 312.5Q1762 339 1777.0 374.0Q1792 409 1792 448Q1792 488 1777.0 523.0Q1762 558 1736.0 584.0Q1710 610 1675.0 625.0Q1640 640 1600 640Q1560 640 1525.0 625.0Q1490 610 1464.0 584.0Q1438 558 1423.0 523.0Q1408 488 1408 448Q1408 408 1423.0 373.0Q1438 338 1464.0 312.0Q1490 286 1525.0 271.0Q1560 256 1600 256ZM2048 1920V1024H1920V1408H128V384H1024V256H0V1920ZM1920 1536V1792H128V1536Z" transform="scale(1,-1)"/>
</svg>