<?xml version="1.0" encoding="UTF-8"?>
<svg xmlns="http://www.w3.org/2000/svg" viewBox="0 -2048 1943 1963">
  <path d="M1339 896H1152Q1069 959 970.5 991.5Q872 1024 768 1024Q680 1024 598.0 1001.0Q516 978 445.0 936.5Q374 895 315.5 836.5Q257 778 215.5 707.0Q174 636 151.0 554.0Q128 472 128 384H0Q0 504 35.5 615.0Q71 726 136.0 820.0Q201 914 292.5 987.0Q384 1060 496 1102Q440 1137 395.5 1184.5Q351 1232 320.0 1288.0Q289 1344 272.5 1407.0Q256 1470 256 1536Q256 1642 296.5 1735.0Q337 1828 406.5 1897.5Q476 1967 569.0 2007.5Q662 2048 768 2048Q874 2048 967.0 2007.5Q1060 1967 1129.5 1897.5Q1199 1828 1239.5 1735.0Q1280 1642 1280 1536Q1280 1470 1263.5 1407.0Q1247 1344 1216.0 1288.0Q1185 1232 1140.5 1184.5Q1096 1137 1040 1102Q1126 1070 1202.0 1017.5Q1278 965 1339 896ZM384 1536Q384 1456 414.0 1386.5Q444 1317 496.5 1264.5Q549 1212 618.5 1182.0Q688 1152 768 1152Q847 1152 917.0 1182.0Q987 1212 1039.5 1264.5Q1092 1317 1122.0 1386.5Q1152 1456 1152 1536Q1152 1615 1122.0 1685.0Q1092 1755 1039.5 1807.5Q987 1860 917.0 1890.0Q847 1920 768 1920Q688 1920 618.5 1890.0Q549 1860 496.5 1807.5Q444 1755 414.0 1685.0Q384 1615 384 1536ZM1152 768H1706L1621 853L1707 939L1943 704L1707 469L1621 555L1706 640H1152ZM1451 469 1366 384H1920V256H1366L1451 171L1365 85L1129 320L1365 555Z" transform="scale(1,-1)"/>
</svg>