<?xml version="1.0" encoding="UTF-8"?>
<svg xmlns="http://www.w3.org/2000/svg" viewBox="512 -2048 1408 1536">
  <path d="M1701 1562Q1695 1556 1690.5 1549.5Q1686 1543 1681 1536H1920V1408H1536V1472Q1536 1524 1555.0 1566.0Q1574 1608 1602.5 1643.0Q1631 1678 1664.0 1707.0Q1697 1736 1725.5 1761.0Q1754 1786 1773.0 1809.0Q1792 1832 1792 1856Q1792 1882 1773.0 1901.0Q1754 1920 1728 1920Q1702 1920 1683.0 1901.0Q1664 1882 1664 1856H1536Q1536 1896 1551.0 1931.0Q1566 1966 1592.0 1992.0Q1618 2018 1653.0 2033.0Q1688 2048 1728 2048Q1768 2048 1803.0 2033.0Q1838 2018 1864.0 1992.0Q1890 1966 1905.0 1931.0Q1920 1896 1920 1856Q1920 1818 1905.0 1782.5Q1890 1747 1864 1720H1863ZM1440 1536 1056 1024 1440 512H1280L976 917L672 512H512L896 1024L512 1536H672L976 1131L1280 1536Z" transform="scale(1,-1)"/>
</svg>