<?xml version="1.0" encoding="UTF-8"?>
<svg xmlns="http://www.w3.org/2000/svg" viewBox="0 -1920 2048 1792">
  <path d="M2048 1378V480Q2048 429 2025.5 388.0Q2003 347 1967.0 317.5Q1931 288 1885.0 272.0Q1839 256 1792 256Q1745 256 1699.0 272.0Q1653 288 1617.0 317.5Q1581 347 1558.5 388.0Q1536 429 1536 480Q1536 531 1558.5 572.5Q1581 614 1617.0 643.0Q1653 672 1699.0 688.0Q1745 704 1792 704Q1858 704 1920 673V1214L1280 1054V352Q1280 301 1257.5 260.0Q1235 219 1199.0 189.5Q1163 160 1117.0 144.0Q1071 128 1024 128Q977 128 931.0 144.0Q885 160 849.0 189.5Q813 219 790.5 260.0Q768 301 768 352Q768 403 790.5 444.5Q813 486 849.0 515.0Q885 544 931.0 560.0Q977 576 1024 576Q1090 576 1152 545V1154ZM1024 256Q1044 256 1066.5 262.0Q1089 268 1108.0 280.0Q1127 292 1139.5 310.0Q1152 328 1152 352Q1152 376 1139.5 394.0Q1127 412 1108.0 424.0Q1089 436 1066.5 442.0Q1044 448 1024 448Q1004 448 981.5 442.0Q959 436 940.0 424.0Q921 412 908.5 394.0Q896 376 896 352Q896 328 908.5 310.0Q921 292 940.0 280.0Q959 268 981.5 262.0Q1004 256 1024 256ZM1792 384Q1812 384 1834.5 390.0Q1857 396 1876.0 408.0Q1895 420 1907.5 438.0Q1920 456 1920 480Q1920 504 1907.5 522.0Q1895 540 1876.0 552.0Q1857 564 1834.5 570.0Q1812 576 1792 576Q1772 576 1749.5 570.0Q1727 564 1708.0 552.0Q1689 540 1676.5 522.0Q1664 504 1664 480Q1664 456 1676.5 438.0Q1689 420 1708.0 408.0Q1727 396 1749.5 390.0Q1772 384 1792 384ZM384 1408H256V1536H384ZM256 1280H384V1152H256ZM1152 1536H1280V1408H1152ZM1024 768H0V1920H1536V1408L1408 1376V1792H1280V1664H1152V1792H384V1664H256V1792H128V896H256V1024H384V896H1024Z" transform="scale(1,-1)"/>
</svg>