<?xml version="1.0" encoding="UTF-8"?>
<svg xmlns="http://www.w3.org/2000/svg" viewBox="0 -1920 2048 1920">
  <path d="M1920 1013Q1949 1003 1972.5 985.0Q1996 967 2013.0 943.0Q2030 919 2039.0 890.5Q2048 862 2048 832V576Q2048 457 2002.5 352.0Q1957 247 1879.0 169.0Q1801 91 1696.0 45.5Q1591 0 1472 0Q1362 0 1263.5 39.0Q1165 78 1088.0 147.0Q1011 216 961.0 309.5Q911 403 899 512H128Q101 512 78.0 522.0Q55 532 37.5 549.5Q20 567 10.0 590.0Q0 613 0 640V1792Q0 1819 10.0 1842.0Q20 1865 37.5 1882.5Q55 1900 78.0 1910.0Q101 1920 128 1920H1792Q1819 1920 1842.0 1910.0Q1865 1900 1882.5 1882.5Q1900 1865 1910.0 1842.0Q1920 1819 1920 1792ZM896 768Q896 821 916.0 867.5Q936 914 971.0 949.0Q1006 984 1052.5 1004.0Q1099 1024 1152 1024V1344Q1152 1384 1167.0 1419.0Q1182 1454 1208.0 1480.0Q1234 1506 1269.0 1521.0Q1304 1536 1344 1536Q1384 1536 1418.5 1521.0Q1453 1506 1479.0 1480.0Q1505 1454 1520.0 1419.0Q1535 1384 1535 1344Q1535 1263 1535.5 1184.0Q1536 1105 1536 1024H1792V1792H128V640H896ZM1920 832Q1920 858 1901.0 877.0Q1882 896 1856 896H1408V1344Q1408 1370 1389.0 1389.0Q1370 1408 1344 1408Q1318 1408 1299.0 1389.0Q1280 1370 1280 1344V576Q1280 550 1261.0 531.0Q1242 512 1216 512Q1190 512 1171.0 531.0Q1152 550 1152 576V896Q1125 896 1102.0 886.0Q1079 876 1061.5 858.5Q1044 841 1034.0 818.0Q1024 795 1024 768V576Q1024 483 1059.5 401.5Q1095 320 1155.5 259.5Q1216 199 1297.5 163.5Q1379 128 1472 128Q1565 128 1646.5 163.5Q1728 199 1788.5 259.5Q1849 320 1884.5 401.5Q1920 483 1920 576Z" transform="scale(1,-1)"/>
</svg>