<?xml version="1.0" encoding="UTF-8"?>
<svg xmlns="http://www.w3.org/2000/svg" viewBox="0 -1792 2048 1792">
  <path d="M1600 896Q1693 896 1774.5 861.0Q1856 826 1917.0 765.0Q1978 704 2013.0 622.5Q2048 541 2048 448Q2048 355 2013.0 273.5Q1978 192 1917.0 131.0Q1856 70 1774.5 35.0Q1693 0 1600 0Q1507 0 1425.5 35.0Q1344 70 1283.0 131.0Q1222 192 1187.0 273.5Q1152 355 1152 448Q1152 541 1187.0 622.5Q1222 704 1283.0 765.0Q1344 826 1425.5 861.0Q1507 896 1600 896ZM1280 448Q1280 382 1305.0 323.5Q1330 265 1373.5 221.5Q1417 178 1475.5 153.0Q1534 128 1600 128Q1647 128 1692.0 141.5Q1737 155 1776 181L1333 624Q1307 585 1293.5 540.0Q1280 495 1280 448ZM1867 272Q1893 311 1906.5 356.0Q1920 401 1920 448Q1920 514 1894.5 572.0Q1869 630 1825.5 673.5Q1782 717 1724.0 742.5Q1666 768 1600 768Q1553 768 1508.0 754.5Q1463 741 1424 715ZM1 1022 0 1019V1024ZM1911 1007Q1893 1111 1848.0 1200.0Q1803 1289 1737.0 1362.0Q1671 1435 1589.0 1491.0Q1507 1547 1414.0 1585.5Q1321 1624 1222.0 1644.0Q1123 1664 1024 1664Q915 1664 806.5 1640.0Q698 1616 598.5 1570.0Q499 1524 413.0 1457.0Q327 1390 263.5 1305.0Q200 1220 164.0 1117.0Q128 1014 128 896H0Q0 1032 40.5 1151.0Q81 1270 153.0 1369.5Q225 1469 322.5 1547.5Q420 1626 533.5 1680.5Q647 1735 772.0 1763.5Q897 1792 1024 1792Q1149 1792 1273.5 1763.5Q1398 1735 1511.0 1681.5Q1624 1628 1721.5 1550.5Q1819 1473 1891.0 1374.5Q1963 1276 2004.5 1158.0Q2046 1040 2048 905Q1987 964 1911 1007ZM1024 1152Q971 1152 924.5 1132.0Q878 1112 843.0 1077.0Q808 1042 788.0 995.5Q768 949 768 896Q768 848 785.0 804.5Q802 761 831.5 727.0Q861 693 901.5 670.5Q942 648 990 642Q970 578 964 517Q894 528 835.0 562.0Q776 596 732.5 646.5Q689 697 664.5 761.0Q640 825 640 896Q640 975 670.0 1045.0Q700 1115 752.5 1167.5Q805 1220 874.5 1250.0Q944 1280 1024 1280Q1081 1280 1135.0 1263.5Q1189 1247 1235.0 1216.5Q1281 1186 1317.5 1143.0Q1354 1100 1377 1048Q1315 1025 1262 991Q1247 1027 1223.0 1057.0Q1199 1087 1168.0 1108.0Q1137 1129 1100.0 1140.5Q1063 1152 1024 1152Z" transform="scale(1,-1)"/>
</svg>