<?xml version="1.0" encoding="UTF-8"?>
<svg xmlns="http://www.w3.org/2000/svg" viewBox="0 -2048 2048 2048">
  <path d="M1024 1280Q971 1280 924.5 1260.0Q878 1240 843.0 1205.0Q808 1170 788.0 1123.5Q768 1077 768 1024Q768 971 788.0 924.5Q808 878 843.0 843.0Q878 808 924.5 788.0Q971 768 1024 768V640Q932 640 850.5 682.0Q769 724 715 799L506 694Q512 667 512 639Q512 584 489.5 533.5Q467 483 425 446Q388 414 344.5 398.5Q301 383 256 383Q204 383 157.5 403.0Q111 423 76.0 458.0Q41 493 20.5 539.0Q0 585 0 638Q0 689 20.5 736.0Q41 783 76.0 818.0Q111 853 157.5 874.0Q204 895 256 895Q310 895 360.5 873.0Q411 851 449 808L658 914Q640 971 640 1029Q640 1098 665.0 1163.0Q690 1228 739 1280L617 1431Q566 1408 512 1408Q459 1408 412.5 1428.0Q366 1448 331.0 1483.0Q296 1518 276.0 1564.5Q256 1611 256 1664Q256 1717 276.0 1763.5Q296 1810 331.0 1845.0Q366 1880 412.5 1900.0Q459 1920 512 1920Q565 1920 612.0 1900.0Q659 1880 693.5 1845.0Q728 1810 748.0 1763.5Q768 1717 768 1664Q765 1578 711 1512L839 1358Q882 1383 929.0 1395.0Q976 1407 1025 1407Q1107 1407 1181 1373L1346 1622Q1314 1657 1297.5 1701.0Q1281 1745 1281 1792Q1281 1845 1301.0 1892.0Q1321 1939 1356.0 1973.5Q1391 2008 1437.5 2028.0Q1484 2048 1537 2048Q1590 2048 1637.0 2028.0Q1684 2008 1718.5 1973.0Q1753 1938 1773.0 1891.5Q1793 1845 1793 1792Q1793 1739 1773.0 1692.0Q1753 1645 1718.0 1610.5Q1683 1576 1636.0 1556.0Q1589 1536 1536 1536Q1515 1536 1494.0 1540.0Q1473 1544 1453 1551L1288 1303Q1293 1297 1297.5 1291.5Q1302 1286 1307 1280ZM1536 1920Q1510 1920 1486.5 1910.0Q1463 1900 1445.5 1882.5Q1428 1865 1418.0 1842.0Q1408 1819 1408 1792Q1408 1765 1418.0 1742.0Q1428 1719 1445.5 1701.5Q1463 1684 1486.5 1674.0Q1510 1664 1536 1664Q1563 1664 1586.0 1674.0Q1609 1684 1626.5 1701.5Q1644 1719 1654.0 1742.0Q1664 1765 1664 1792Q1664 1819 1654.0 1842.0Q1644 1865 1626.5 1882.5Q1609 1900 1586.0 1910.0Q1563 1920 1536 1920ZM512 1536Q539 1536 562.0 1546.0Q585 1556 602.5 1573.5Q620 1591 630.0 1614.0Q640 1637 640 1664Q640 1691 630.0 1714.0Q620 1737 602.5 1754.5Q585 1772 562.0 1782.0Q539 1792 512 1792Q486 1792 462.5 1782.0Q439 1772 421.5 1754.5Q404 1737 394.0 1714.0Q384 1691 384 1664Q384 1637 394.0 1614.0Q404 1591 421.5 1573.5Q439 1556 462.5 1546.0Q486 1536 512 1536ZM256 512Q283 512 306.0 522.0Q329 532 346.5 549.5Q364 567 374.0 590.0Q384 613 384 640Q384 667 374.0 690.0Q364 713 346.5 730.5Q329 748 306.0 758.0Q283 768 256 768Q230 768 206.5 758.0Q183 748 165.5 730.5Q148 713 138.0 690.0Q128 667 128 640Q128 613 138.0 590.0Q148 567 165.5 549.5Q183 532 206.5 522.0Q230 512 256 512ZM1664 896V512H1536V896ZM1664 384V256H1536V384ZM1152 1152H2048V0H1152ZM1920 128V1024H1280V128Z" transform="scale(1,-1)"/>
</svg>