<?xml version="1.0" encoding="UTF-8"?>
<svg xmlns="http://www.w3.org/2000/svg" viewBox="0 -1792 2048 1536">
  <path d="M1027 1600Q1148 1600 1254.0 1563.0Q1360 1526 1439.0 1456.0Q1518 1386 1563.5 1286.0Q1609 1186 1609 1060Q1609 994 1591.5 922.5Q1574 851 1537.5 792.5Q1501 734 1444.5 696.0Q1388 658 1310 658Q1224 658 1186.0 705.0Q1148 752 1147 834H1143Q1120 755 1068.5 706.5Q1017 658 931 658Q872 658 829.5 681.5Q787 705 759.5 743.5Q732 782 719.0 831.5Q706 881 706 934Q706 1004 724.5 1074.0Q743 1144 781.0 1199.0Q819 1254 877.5 1288.5Q936 1323 1016 1323Q1039 1323 1062.5 1317.0Q1086 1311 1107.0 1299.0Q1128 1287 1144.0 1269.0Q1160 1251 1168 1227V1232Q1170 1252 1171.5 1272.0Q1173 1292 1175 1312H1268L1244 1026Q1241 994 1237.0 961.0Q1233 928 1233 896Q1233 874 1235.5 847.5Q1238 821 1247.0 797.5Q1256 774 1273.5 758.5Q1291 743 1321 743Q1357 743 1385.0 758.5Q1413 774 1433.5 799.0Q1454 824 1468.0 856.5Q1482 889 1491.0 923.5Q1500 958 1503.5 992.0Q1507 1026 1507 1054Q1507 1164 1471.0 1250.0Q1435 1336 1370.5 1395.0Q1306 1454 1216.5 1485.0Q1127 1516 1021 1516Q906 1516 812.5 1473.0Q719 1430 652.5 1356.5Q586 1283 550.0 1185.0Q514 1087 514 976Q514 861 549.5 767.5Q585 674 651.0 608.0Q717 542 810.5 506.0Q904 470 1019 470Q1100 470 1179.5 483.0Q1259 496 1332 531V439Q1257 407 1175.0 395.5Q1093 384 1012 384Q879 384 769.0 425.5Q659 467 579.5 543.5Q500 620 456.0 729.0Q412 838 412 972Q412 1107 457.0 1222.0Q502 1337 583.0 1421.0Q664 1505 777.0 1552.5Q890 1600 1027 1600ZM949 745Q1010 745 1049.0 779.5Q1088 814 1110.0 865.0Q1132 916 1140.5 974.0Q1149 1032 1149 1079Q1149 1113 1142.0 1142.0Q1135 1171 1119.5 1192.0Q1104 1213 1078.0 1225.0Q1052 1237 1015 1237Q957 1237 918.0 1207.0Q879 1177 855.0 1132.0Q831 1087 820.5 1033.5Q810 980 810 933Q810 900 817.0 866.5Q824 833 840.0 806.0Q856 779 883.0 762.0Q910 745 949 745ZM0 1792H384V1664H128V384H384V256H0ZM2048 1792V256H1664V384H1920V1664H1664V1792Z" transform="scale(1,-1)"/>
</svg>