<?xml version="1.0" encoding="UTF-8"?>
<svg xmlns="http://www.w3.org/2000/svg" viewBox="128 -2048 1792 2048">
  <path d="M1920 2048V0H256V254H128V382H256V639H128V767H256V1279H128V1407H256V1663H128V1791H256V2048ZM1792 1920H384V128H1792ZM1664 1536H1024V1664H1664ZM1664 1280H1024V1408H1664ZM704 388Q665 388 630.5 402.5Q596 417 570.5 442.5Q545 468 530.5 502.5Q516 537 516 576Q516 615 530.5 649.0Q545 683 570.5 708.5Q596 734 630.5 749.0Q665 764 704 764Q743 764 777.0 749.0Q811 734 836.5 708.5Q862 683 877.0 649.0Q892 615 892 576Q892 537 877.0 502.5Q862 468 836.5 442.5Q811 417 777.0 402.5Q743 388 704 388ZM704 644Q675 644 655.5 624.5Q636 605 636 576Q636 547 655.5 527.5Q675 508 704 508Q733 508 752.5 527.5Q772 547 772 576Q772 605 752.5 624.5Q733 644 704 644ZM704 1284Q665 1284 630.5 1298.5Q596 1313 570.5 1338.5Q545 1364 530.5 1398.5Q516 1433 516 1472Q516 1511 530.5 1545.0Q545 1579 570.5 1604.5Q596 1630 630.5 1645.0Q665 1660 704 1660Q743 1660 777.0 1645.0Q811 1630 836.5 1604.5Q862 1579 877.0 1545.0Q892 1511 892 1472Q892 1433 877.0 1398.5Q862 1364 836.5 1338.5Q811 1313 777.0 1298.5Q743 1284 704 1284ZM704 1540Q675 1540 655.5 1520.5Q636 1501 636 1472Q636 1443 655.5 1423.5Q675 1404 704 1404Q733 1404 752.5 1423.5Q772 1443 772 1472Q772 1501 752.5 1520.5Q733 1540 704 1540ZM1664 640H1024V768H1664ZM1664 384H1024V512H1664Z" transform="scale(1,-1)"/>
</svg>