<?xml version="1.0" encoding="UTF-8"?>
<svg xmlns="http://www.w3.org/2000/svg" viewBox="0 -2045 2048 2042">
  <path d="M128 1024Q128 955 143.5 887.5Q159 820 187.5 757.5Q216 695 257.5 640.0Q299 585 352 540L261 449Q199 504 151.0 569.5Q103 635 69.0 708.5Q35 782 17.5 861.5Q0 941 0 1024Q0 1130 27.5 1228.0Q55 1326 105.0 1411.5Q155 1497 225.0 1567.0Q295 1637 380.5 1687.0Q466 1737 564.0 1764.5Q662 1792 768 1792H1414L1251 1955L1341 2045L1658 1728L1341 1411L1251 1501L1414 1664H768Q680 1664 598.0 1641.0Q516 1618 445.0 1576.5Q374 1535 315.5 1476.5Q257 1418 215.5 1347.0Q174 1276 151.0 1194.0Q128 1112 128 1024ZM1787 1598Q1849 1544 1897.5 1478.5Q1946 1413 1979.5 1339.5Q2013 1266 2030.5 1186.0Q2048 1106 2048 1024Q2048 918 2020.5 820.0Q1993 722 1943.0 636.5Q1893 551 1823.0 481.0Q1753 411 1667.5 361.0Q1582 311 1484.0 283.5Q1386 256 1280 256H634L797 93L707 3L390 320L707 637L797 547L634 384H1280Q1368 384 1450.0 407.0Q1532 430 1603.0 471.5Q1674 513 1732.5 571.5Q1791 630 1832.5 701.0Q1874 772 1897.0 854.0Q1920 936 1920 1024Q1920 1094 1905.0 1161.5Q1890 1229 1861.5 1291.0Q1833 1353 1791.5 1408.5Q1750 1464 1697 1509ZM1152 640H1024V1228Q995 1207 963.0 1193.5Q931 1180 896 1171V1302Q952 1321 1002.5 1347.5Q1053 1374 1101 1408H1152Z" transform="scale(1,-1)"/>
</svg>