<?xml version="1.0" encoding="UTF-8"?>
<svg xmlns="http://www.w3.org/2000/svg" viewBox="0 -1664 2048 1280">
  <path d="M1879 1495Q1961 1413 2004.5 1308.5Q2048 1204 2048 1088Q2048 1053 2046.0 1004.0Q2044 955 2037.5 898.0Q2031 841 2018.5 780.5Q2006 720 1986 662Q1956 576 1916.0 521.5Q1876 467 1833.0 436.5Q1790 406 1746.0 395.0Q1702 384 1664 384Q1631 384 1603.5 395.5Q1576 407 1551.5 425.0Q1527 443 1505.5 466.5Q1484 490 1463 514Q1442 538 1421.5 560.0Q1401 582 1379.0 599.5Q1357 617 1332.5 628.0Q1308 639 1279 640H769Q740 639 715.5 628.0Q691 617 669.0 599.5Q647 582 626.5 560.0Q606 538 585 514Q564 490 542.5 466.5Q521 443 496.5 425.0Q472 407 444.5 395.5Q417 384 384 384Q346 384 302.0 395.0Q258 406 215.0 436.5Q172 467 132.0 521.5Q92 576 62 662Q42 720 29.5 780.5Q17 841 10.5 898.0Q4 955 2.0 1004.0Q0 1053 0 1088Q0 1204 43.5 1308.5Q87 1413 169 1495Q250 1577 355.0 1620.5Q460 1664 576 1664H1472Q1588 1664 1692.5 1620.5Q1797 1577 1879 1495ZM1865 704Q1884 757 1895.0 814.0Q1906 871 1911.5 923.5Q1917 976 1918.5 1019.0Q1920 1062 1920 1088Q1920 1181 1884.5 1262.5Q1849 1344 1788.5 1404.5Q1728 1465 1646.5 1500.5Q1565 1536 1472 1536H576Q483 1536 401.5 1500.5Q320 1465 259.5 1404.5Q199 1344 163.5 1262.5Q128 1181 128 1088Q128 1062 129.5 1019.0Q131 976 136.5 923.5Q142 871 153.0 814.0Q164 757 183 704Q208 632 238.0 593.0Q268 554 296.5 536.0Q325 518 348.5 515.0Q372 512 384 512Q406 512 432.5 538.5Q459 565 488 598Q512 626 539.5 655.5Q567 685 600.5 709.5Q634 734 675.0 750.0Q716 766 766 768H767H1282Q1332 766 1373.0 750.0Q1414 734 1447.5 709.5Q1481 685 1508.5 655.5Q1536 626 1560 598Q1589 565 1615.5 538.5Q1642 512 1664 512Q1676 512 1699.5 515.0Q1723 518 1751.5 536.0Q1780 554 1810.0 593.0Q1840 632 1865 704ZM512 1152H640V1024H512V896H384V1024H256V1152H384V1280H512ZM1664 1024Q1691 1024 1714.0 1014.0Q1737 1004 1754.5 986.5Q1772 969 1782.0 946.0Q1792 923 1792 896Q1792 869 1782.0 846.0Q1772 823 1754.5 805.5Q1737 788 1714.0 778.0Q1691 768 1664 768Q1637 768 1614.0 778.0Q1591 788 1573.5 805.5Q1556 823 1546.0 846.0Q1536 869 1536 896Q1536 923 1546.0 946.0Q1556 969 1573.5 986.5Q1591 1004 1614.0 1014.0Q1637 1024 1664 1024ZM1408 1280Q1435 1280 1458.0 1270.0Q1481 1260 1498.5 1242.5Q1516 1225 1526.0 1202.0Q1536 1179 1536 1152Q1536 1125 1526.0 1102.0Q1516 1079 1498.5 1061.5Q1481 1044 1458.0 1034.0Q1435 1024 1408 1024Q1381 1024 1358.0 1034.0Q1335 1044 1317.5 1061.5Q1300 1079 1290.0 1102.0Q1280 1125 1280 1152Q1280 1179 1290.0 1202.0Q1300 1225 1317.5 1242.5Q1335 1260 1358.0 1270.0Q1381 1280 1408 1280Z" transform="scale(1,-1)"/>
</svg>