<?xml version="1.0" encoding="UTF-8"?>
<svg xmlns="http://www.w3.org/2000/svg" viewBox="0 -1920 1920 1792">
  <path d="M1920 1395V653Q1920 624 1909.0 598.5Q1898 573 1878.5 553.5Q1859 534 1833.5 523.0Q1808 512 1779 512H1152V269Q1152 237 1139.5 211.0Q1127 185 1105.5 166.5Q1084 148 1056.0 138.0Q1028 128 998 128H141Q109 128 83.0 140.5Q57 153 38.5 174.5Q20 196 10.0 224.0Q0 252 0 282V755Q0 784 11.0 809.5Q22 835 41.5 854.5Q61 874 86.5 885.0Q112 896 141 896H768V1152H141Q109 1152 83.0 1164.5Q57 1177 38.5 1198.5Q20 1220 10.0 1248.0Q0 1276 0 1306V1779Q0 1808 11.0 1833.5Q22 1859 41.5 1878.5Q61 1898 86.5 1909.0Q112 1920 141 1920H1011Q1040 1920 1065.5 1909.0Q1091 1898 1110.5 1878.5Q1130 1859 1141.0 1833.5Q1152 1808 1152 1779V1536H1779Q1808 1536 1833.5 1525.0Q1859 1514 1878.5 1494.5Q1898 1475 1909.0 1449.5Q1920 1424 1920 1395ZM141 1280H768V1395Q768 1424 779.0 1449.5Q790 1475 809.5 1494.5Q829 1514 854.5 1525.0Q880 1536 909 1536H1024V1779Q1019 1784 1012.0 1788.0Q1005 1792 998 1792H141L128 1779V1293ZM1024 269V512H909Q880 512 854.5 523.0Q829 534 809.5 553.5Q790 573 779.0 598.5Q768 624 768 653V768H141Q136 763 132.0 756.0Q128 749 128 742V269L141 256H1011ZM1792 653V1395Q1787 1400 1780.5 1404.0Q1774 1408 1766 1408H909L896 1395V653L909 640H1779Q1792 640 1792 653Z" transform="scale(1,-1)"/>
</svg>