<?xml version="1.0" encoding="UTF-8"?>
<svg xmlns="http://www.w3.org/2000/svg" viewBox="128 -1946 1664 1946">
  <path d="M1024 1408Q1024 1313 1051.0 1223.0Q1078 1133 1128.0 1056.0Q1178 979 1248.5 917.5Q1319 856 1406 817Q1421 810 1443.0 802.0Q1465 794 1489.0 786.5Q1513 779 1536.0 773.5Q1559 768 1575 768Q1593 767 1611.0 767.0Q1629 767 1647 767Q1683 767 1719.5 767.5Q1756 768 1792 768V0H1024V768H1240Q1148 830 1076.5 915.0Q1005 1000 960 1102Q915 1000 843.5 915.0Q772 830 680 768H896V0H128V768Q164 768 200.5 767.5Q237 767 273 767Q291 767 309.0 767.0Q327 767 345 768Q361 768 384.0 773.5Q407 779 431.0 786.5Q455 794 477.0 802.0Q499 810 514 817Q601 856 671.5 917.5Q742 979 792.0 1056.0Q842 1133 869.0 1223.0Q896 1313 896 1408V1701L605 1411L515 1501L960 1946L1405 1501L1315 1411L1024 1701ZM256 640V128H768V640ZM1664 640H1152V128H1664Z" transform="scale(1,-1)"/>
</svg>