<?xml version="1.0" encoding="UTF-8"?>
<svg xmlns="http://www.w3.org/2000/svg" viewBox="128 -1792 1919 1792">
  <path d="M128 1536H512V384H128ZM256 512H384V1408H256ZM1280 963Q1209 918 1152 856V1792H1536V1050Q1504 1046 1471.5 1039.5Q1439 1033 1408 1022V1664H1280ZM640 1280H1024V384H640ZM768 512H896V1152H768ZM1600 896Q1693 896 1774.0 860.5Q1855 825 1916.0 764.5Q1977 704 2012.0 622.5Q2047 541 2047 448Q2047 355 2012.0 273.5Q1977 192 1916.0 131.5Q1855 71 1774.0 35.5Q1693 0 1600 0Q1507 0 1425.5 35.5Q1344 71 1283.5 131.5Q1223 192 1187.5 273.5Q1152 355 1152 448Q1152 541 1187.5 622.5Q1223 704 1283.5 764.5Q1344 825 1425.5 860.5Q1507 896 1600 896ZM1600 128Q1647 128 1692.0 141.5Q1737 155 1776 181L1333 624Q1307 585 1293.5 540.0Q1280 495 1280 448Q1280 382 1305.0 323.5Q1330 265 1373.5 221.5Q1417 178 1475.5 153.0Q1534 128 1600 128ZM1867 272Q1893 311 1906.5 356.0Q1920 401 1920 448Q1920 514 1894.5 572.0Q1869 630 1825.5 673.5Q1782 717 1724.0 742.5Q1666 768 1600 768Q1553 768 1508.0 754.5Q1463 741 1424 715Z" transform="scale(1,-1)"/>
</svg>