<?xml version="1.0" encoding="UTF-8"?>
<svg xmlns="http://www.w3.org/2000/svg" viewBox="128 -2048 1920 2048">
  <path d="M1152 1408V1920H256V128H1152V0H128V2048H1243L1792 1499V1162Q1761 1172 1729.0 1178.0Q1697 1184 1664 1184V1408ZM1280 1536H1573L1280 1829ZM2048 640V0H1280V640H1408V768Q1408 821 1428.0 867.5Q1448 914 1483.0 949.0Q1518 984 1564.5 1004.0Q1611 1024 1664 1024Q1717 1024 1763.5 1004.0Q1810 984 1845.0 949.0Q1880 914 1900.0 867.5Q1920 821 1920 768V640ZM1536 640H1792V768Q1792 795 1782.0 818.0Q1772 841 1754.5 858.5Q1737 876 1714.0 886.0Q1691 896 1664 896Q1637 896 1614.0 886.0Q1591 876 1573.5 858.5Q1556 841 1546.0 818.0Q1536 795 1536 768ZM1920 512H1408V128H1920Z" transform="scale(1,-1)"/>
</svg>