<?xml version="1.0" encoding="UTF-8"?>
<svg xmlns="http://www.w3.org/2000/svg" viewBox="896 -1920 256 1792">
  <path d="M1024 384Q1051 384 1074.0 374.0Q1097 364 1114.5 346.5Q1132 329 1142.0 306.0Q1152 283 1152 256Q1152 229 1142.0 206.0Q1132 183 1114.5 165.5Q1097 148 1074.0 138.0Q1051 128 1024 128Q997 128 974.0 138.0Q951 148 933.5 165.5Q916 183 906.0 206.0Q896 229 896 256Q896 283 906.0 306.0Q916 329 933.5 346.5Q951 364 974.0 374.0Q997 384 1024 384ZM1024 1152Q1051 1152 1074.0 1142.0Q1097 1132 1114.5 1114.5Q1132 1097 1142.0 1074.0Q1152 1051 1152 1024Q1152 997 1142.0 974.0Q1132 951 1114.5 933.5Q1097 916 1074.0 906.0Q1051 896 1024 896Q997 896 974.0 906.0Q951 916 933.5 933.5Q916 951 906.0 974.0Q896 997 896 1024Q896 1051 906.0 1074.0Q916 1097 933.5 1114.5Q951 1132 974.0 1142.0Q997 1152 1024 1152ZM1024 1664Q997 1664 974.0 1674.0Q951 1684 933.5 1701.5Q916 1719 906.0 1742.0Q896 1765 896 1792Q896 1819 906.0 1842.0Q916 1865 933.5 1882.5Q951 1900 974.0 1910.0Q997 1920 1024 1920Q1051 1920 1074.0 1910.0Q1097 1900 1114.5 1882.5Q1132 1865 1142.0 1842.0Q1152 1819 1152 1792Q1152 1765 1142.0 1742.0Q1132 1719 1114.5 1701.5Q1097 1684 1074.0 1674.0Q1051 1664 1024 1664Z" transform="scale(1,-1)"/>
</svg>