<?xml version="1.0" encoding="UTF-8"?>
<svg xmlns="http://www.w3.org/2000/svg" viewBox="0 -2048 2048 2048">
  <path d="M2048 1573V640H1920V1536H1664Q1637 1536 1614.0 1546.0Q1591 1556 1573.5 1573.5Q1556 1591 1546.0 1614.0Q1536 1637 1536 1664V1920H640V1536H1037Q1061 1536 1081.5 1527.0Q1102 1518 1118.0 1502.0Q1134 1486 1143.0 1465.5Q1152 1445 1152 1421V499Q1152 475 1143.0 454.5Q1134 434 1118.0 418.0Q1102 402 1081.5 393.0Q1061 384 1037 384H640V128H1408V0H640Q613 0 590.0 10.0Q567 20 549.5 37.5Q532 55 522.0 78.0Q512 101 512 128V384H115Q91 384 70.5 393.0Q50 402 34.0 418.0Q18 434 9.0 454.5Q0 475 0 499V1421Q0 1445 9.0 1465.5Q18 1486 34.0 1502.0Q50 1518 70.5 1527.0Q91 1536 115 1536H512V1920Q512 1947 522.0 1970.0Q532 1993 549.5 2010.5Q567 2028 590.0 2038.0Q613 2048 640 2048H1573Q1599 2048 1622.5 2038.5Q1646 2029 1664 2011L2011 1664Q2029 1646 2038.5 1622.5Q2048 1599 2048 1573ZM886 1296H707Q676 1239 646.5 1182.0Q617 1125 584 1070Q555 1127 527.0 1183.0Q499 1239 470 1296H279L478 961L261 624H450Q452 628 462.5 647.0Q473 666 487.0 692.0Q501 718 516.5 747.0Q532 776 545.5 800.5Q559 825 568.5 841.5Q578 858 578 858Q605 799 638.5 740.0Q672 681 703 624H890L681 963ZM1664 1664H1829L1664 1829ZM1792 1280V1152H1280V1280ZM1280 896V1024H1792V896ZM1920 219V512H2048V0H1536V128H1829L1427 531L1517 621Z" transform="scale(1,-1)"/>
</svg>