<?xml version="1.0" encoding="UTF-8"?>
<svg xmlns="http://www.w3.org/2000/svg" viewBox="0 -1792 2047 1791">
  <path d="M128 1664V768H1024V384H640V512H896V640H0V1792H1920V1024H1792V1664ZM1748 869H1750ZM2047 448Q2047 355 2012.0 274.0Q1977 193 1916.5 132.0Q1856 71 1774.5 36.0Q1693 1 1601 1Q1508 1 1427.0 36.0Q1346 71 1285.0 131.5Q1224 192 1189.0 273.5Q1154 355 1154 447Q1154 538 1189.0 621.5Q1224 705 1289 768H1152V896H1536V512H1409V703Q1349 658 1315.5 590.0Q1282 522 1282 447Q1282 381 1307.0 322.5Q1332 264 1375.5 220.5Q1419 177 1477.5 152.0Q1536 127 1602 127Q1668 127 1726.0 152.0Q1784 177 1827.5 220.5Q1871 264 1896.0 322.5Q1921 381 1921 447Q1921 498 1905.5 545.0Q1890 592 1862.0 632.0Q1834 672 1794.5 702.0Q1755 732 1707 749L1750 869Q1817 845 1871.5 803.0Q1926 761 1965.0 705.5Q2004 650 2025.5 584.5Q2047 519 2047 448Z" transform="scale(1,-1)"/>
</svg>