<?xml version="1.0" encoding="UTF-8"?>
<svg xmlns="http://www.w3.org/2000/svg" viewBox="0 -2048 2048 2048">
  <path d="M2048 2048V1536Q1961 1536 1899.0 1516.5Q1837 1497 1793.5 1462.0Q1750 1427 1723.5 1379.5Q1697 1332 1683.0 1275.0Q1669 1218 1664.0 1155.0Q1659 1092 1659 1026Q1659 960 1661.5 895.0Q1664 830 1664 768H1408V384L640 0V768H384Q384 830 386.5 895.0Q389 960 389 1026Q389 1092 384.0 1155.0Q379 1218 365.0 1275.0Q351 1332 324.5 1379.5Q298 1427 254.5 1462.0Q211 1497 148.5 1516.5Q86 1536 0 1536V2048H128V1664H1920V2048ZM1280 768H768V207L1280 463ZM1536 896Q1536 941 1535.0 984.0Q1534 1027 1534 1070Q1534 1134 1539.0 1196.0Q1544 1258 1559.5 1316.5Q1575 1375 1605.5 1430.0Q1636 1485 1687 1536H361Q412 1485 442.5 1429.5Q473 1374 488.5 1315.5Q504 1257 509.0 1195.5Q514 1134 514 1070Q514 1027 513.0 984.0Q512 941 512 896Z" transform="scale(1,-1)"/>
</svg>