<?xml version="1.0" encoding="UTF-8"?>
<svg xmlns="http://www.w3.org/2000/svg" viewBox="128 -1920 1792 1792">
  <path d="M1920 1920V128H128V1920ZM256 1792V768H406L515 877Q534 896 560 896Q586 896 605 877L782 701L1026 1648Q1031 1669 1048.5 1682.5Q1066 1696 1088 1696Q1111 1696 1128.0 1682.5Q1145 1669 1150 1647L1252 1230H1408Q1430 1230 1447.5 1216.5Q1465 1203 1470 1182L1542 896H1792V1792ZM1792 256V768H1492Q1469 768 1452.0 781.5Q1435 795 1430 817L1358 1102H1202Q1179 1102 1162.0 1115.5Q1145 1129 1140 1151L1086 1369L878 560Q873 539 855.5 525.5Q838 512 816 512Q790 512 771 531L560 742L477 659Q458 640 432 640H256V256Z" transform="scale(1,-1)"/>
</svg>