<?xml version="1.0" encoding="UTF-8"?>
<svg xmlns="http://www.w3.org/2000/svg" viewBox="19 -2029 2029 2029">
  <path d="M256 832Q256 922 290.0 1004.0Q324 1086 387 1149L598 1360L1232 726L1021 515Q958 452 876.0 418.0Q794 384 704 384Q631 384 562.5 406.5Q494 429 436 473L109 147L19 237L345 564Q301 622 278.5 690.5Q256 759 256 832ZM704 509Q767 509 814.5 526.5Q862 544 902.0 574.0Q942 604 978.5 643.0Q1015 682 1057 724L596 1185Q555 1144 515.5 1107.0Q476 1070 445.0 1029.5Q414 989 395.5 941.5Q377 894 377 832Q377 763 402.5 704.0Q428 645 472.0 601.5Q516 558 576.0 533.5Q636 509 704 509ZM1664 1344Q1664 1255 1630.0 1172.5Q1596 1090 1533 1027L1321 816L688 1449L899 1661Q962 1724 1045.0 1756.0Q1128 1788 1216 1788Q1288 1788 1357.0 1766.5Q1426 1745 1484 1703L1811 2029L1901 1939L1575 1612Q1619 1554 1641.5 1485.5Q1664 1417 1664 1344ZM1324 990Q1365 1030 1404.5 1067.5Q1444 1105 1474.5 1145.5Q1505 1186 1524.0 1234.0Q1543 1282 1543 1344Q1543 1413 1517.5 1472.0Q1492 1531 1447.5 1574.5Q1403 1618 1343.5 1642.5Q1284 1667 1216 1667Q1153 1667 1105.5 1649.0Q1058 1631 1017.5 1601.5Q977 1572 940.5 1533.0Q904 1494 862 1452ZM2048 256H1792V0H1664V256H1408V384H1664V640H1792V384H2048Z" transform="scale(1,-1)"/>
</svg>