<?xml version="1.0" encoding="UTF-8"?>
<svg xmlns="http://www.w3.org/2000/svg" viewBox="0 -1916 2048 1916">
  <path d="M226 1347Q178 1395 153.0 1456.5Q128 1518 128 1584Q128 1655 154.0 1715.5Q180 1776 225.5 1820.5Q271 1865 332.0 1890.5Q393 1916 463 1916Q529 1916 591.5 1892.5Q654 1869 701 1822L1054 1469L963 1378L768 1573L475 1280L670 1085L579 994ZM464 1790Q421 1790 383.0 1774.5Q345 1759 317.0 1731.0Q289 1703 272.5 1665.5Q256 1628 256 1584Q256 1546 266.5 1517.5Q277 1489 295.0 1464.5Q313 1440 336.0 1418.0Q359 1396 384 1371L677 1664Q651 1689 629.5 1712.0Q608 1735 584.0 1752.5Q560 1770 531.5 1780.0Q503 1790 464 1790ZM2048 0 1415 158 1122 451 1213 542 1430 324Q1446 376 1474.5 422.5Q1503 469 1541.0 507.0Q1579 545 1625.0 573.0Q1671 601 1724 618L1506 835L1597 926L1890 633ZM1872 176 1790 505Q1743 495 1702.5 472.5Q1662 450 1629.5 418.0Q1597 386 1575.0 345.0Q1553 304 1543 258ZM1728 1856Q1781 1856 1827.5 1836.0Q1874 1816 1909.0 1781.0Q1944 1746 1964.0 1699.5Q1984 1653 1984 1600Q1984 1549 1964.5 1502.0Q1945 1455 1909 1419L763 273Q754 214 726.0 164.5Q698 115 656.0 78.0Q614 41 560.5 20.5Q507 0 448 0H0V128Q11 128 23.5 131.5Q36 135 45 140Q70 153 86.0 173.0Q102 193 111.5 217.0Q121 241 124.5 267.5Q128 294 128 320Q128 379 148.5 432.5Q169 486 206.0 528.0Q243 570 292.5 598.0Q342 626 401 635L1547 1781Q1583 1817 1630.0 1836.5Q1677 1856 1728 1856ZM448 128Q488 128 523.0 143.0Q558 158 584.0 184.0Q610 210 625.0 245.0Q640 280 640 320Q640 360 625.0 395.0Q610 430 584.0 456.0Q558 482 523.0 497.0Q488 512 448 512Q408 512 373.0 497.0Q338 482 312.0 456.0Q286 430 271.0 395.0Q256 360 256 320Q256 216 192 128ZM966 657Q934 720 891.0 763.0Q848 806 785 838L564 617Q626 593 673.5 545.5Q721 498 745 436ZM1818 1510Q1855 1547 1855 1600Q1855 1626 1845.0 1649.0Q1835 1672 1817.5 1689.5Q1800 1707 1777.0 1717.0Q1754 1727 1728 1727Q1675 1727 1638 1690L879 932Q940 896 982.0 854.0Q1024 812 1060 751Z" transform="scale(1,-1)"/>
</svg>