<?xml version="1.0" encoding="UTF-8"?>
<svg xmlns="http://www.w3.org/2000/svg" viewBox="0 -2048 2048 2048">
  <path d="M640 640H1408V512H640ZM1024 2048Q1165 2048 1296.0 2011.5Q1427 1975 1540.5 1908.0Q1654 1841 1747.5 1747.5Q1841 1654 1908.0 1540.5Q1975 1427 2011.5 1296.0Q2048 1165 2048 1024Q2048 883 2011.5 752.0Q1975 621 1908.5 507.0Q1842 393 1748.5 299.5Q1655 206 1541.0 139.5Q1427 73 1296.0 36.5Q1165 0 1024 0Q883 0 752.0 36.5Q621 73 507.0 139.5Q393 206 299.5 299.5Q206 393 139.5 507.0Q73 621 36.5 751.5Q0 882 0 1024Q0 1165 36.5 1296.0Q73 1427 139.5 1541.0Q206 1655 299.5 1748.5Q393 1842 507.0 1908.5Q621 1975 751.5 2011.5Q882 2048 1024 2048ZM1024 128Q1147 128 1261.5 160.0Q1376 192 1475.5 250.5Q1575 309 1657.0 391.0Q1739 473 1797.5 572.5Q1856 672 1888.0 786.0Q1920 900 1920 1024Q1920 1147 1888.0 1261.5Q1856 1376 1797.5 1475.5Q1739 1575 1657.0 1657.0Q1575 1739 1475.5 1797.5Q1376 1856 1261.5 1888.0Q1147 1920 1024 1920Q901 1920 786.5 1888.0Q672 1856 572.5 1797.5Q473 1739 391.0 1657.0Q309 1575 250.5 1475.5Q192 1376 160.0 1261.5Q128 1147 128 1024Q128 901 160.0 786.5Q192 672 250.5 572.5Q309 473 391.0 391.0Q473 309 572.5 250.5Q672 192 786.0 160.0Q900 128 1024 128ZM768 1152Q768 1125 758.0 1102.0Q748 1079 730.5 1061.5Q713 1044 690.0 1034.0Q667 1024 640 1024Q613 1024 590.0 1034.0Q567 1044 549.5 1061.5Q532 1079 522.0 1102.0Q512 1125 512 1152Q512 1179 522.0 1202.0Q532 1225 549.5 1242.5Q567 1260 590.0 1270.0Q613 1280 640 1280Q667 1280 690.0 1270.0Q713 1260 730.5 1242.5Q748 1225 758.0 1202.0Q768 1179 768 1152ZM1408 1280Q1435 1280 1458.0 1270.0Q1481 1260 1498.5 1242.5Q1516 1225 1526.0 1202.0Q1536 1179 1536 1152Q1536 1125 1526.0 1102.0Q1516 1079 1498.5 1061.5Q1481 1044 1458.0 1034.0Q1435 1024 1408 1024Q1381 1024 1358.0 1034.0Q1335 1044 1317.5 1061.5Q1300 1079 1290.0 1102.0Q1280 1125 1280 1152Q1280 1179 1290.0 1202.0Q1300 1225 1317.5 1242.5Q1335 1260 1358.0 1270.0Q1381 1280 1408 1280Z" transform="scale(1,-1)"/>
</svg>