<?xml version="1.0" encoding="UTF-8"?>
<svg xmlns="http://www.w3.org/2000/svg" viewBox="128 -2048 1920 2048">
  <path d="M1792 384H2048V256H1792V0H1664V256H1408V384H1664V640H1792ZM1536 570Q1427 667 1298.5 717.5Q1170 768 1024 768Q918 768 820.0 740.5Q722 713 636.5 663.0Q551 613 481.0 543.0Q411 473 361.0 387.5Q311 302 283.5 204.0Q256 106 256 0H128Q128 145 170.5 276.0Q213 407 291.0 516.0Q369 625 478.5 709.0Q588 793 722 844Q598 911 512 1024H470Q445 1024 420.5 1026.0Q396 1028 373 1039Q319 1062 287.5 1109.5Q256 1157 256 1216V1472Q256 1509 270.0 1543.5Q284 1578 308.5 1604.0Q333 1630 366.0 1646.0Q399 1662 437 1664Q476 1751 536.5 1822.0Q597 1893 673.5 1943.5Q750 1994 839.0 2021.0Q928 2048 1024 2048Q1120 2048 1209.5 2021.0Q1299 1994 1375.5 1944.0Q1452 1894 1512.0 1823.0Q1572 1752 1611 1664Q1649 1662 1682.0 1646.0Q1715 1630 1739.5 1604.0Q1764 1578 1778.0 1543.5Q1792 1509 1792 1472V1216Q1792 1176 1777.0 1141.0Q1762 1106 1736.0 1080.0Q1710 1054 1675.0 1039.0Q1640 1024 1600 1024Q1570 1024 1543 1033Q1498 973 1445.0 926.0Q1392 879 1326 844Q1383 823 1435.0 794.5Q1487 766 1536 731ZM1536 1472V1216Q1536 1190 1555.0 1171.0Q1574 1152 1600 1152Q1626 1152 1645.0 1171.0Q1664 1190 1664 1216V1472Q1664 1498 1645.0 1517.0Q1626 1536 1600 1536Q1574 1536 1555.0 1517.0Q1536 1498 1536 1472ZM512 1152V1472Q512 1498 493.0 1517.0Q474 1536 448 1536Q422 1536 403.0 1517.0Q384 1498 384 1472V1216Q384 1190 403.0 1171.0Q422 1152 448 1152ZM1440 1110Q1423 1133 1415.5 1160.5Q1408 1188 1408 1216V1472Q1408 1520 1428.5 1559.5Q1449 1599 1487 1627Q1455 1694 1406.5 1748.0Q1358 1802 1297.5 1840.5Q1237 1879 1167.5 1899.5Q1098 1920 1024 1920Q950 1920 880.5 1899.5Q811 1879 750.5 1840.5Q690 1802 641.0 1748.0Q592 1694 561 1627Q599 1599 619.5 1559.5Q640 1520 640 1472V1152H768Q768 1179 778.0 1202.0Q788 1225 805.5 1242.5Q823 1260 846.0 1270.0Q869 1280 896 1280Q923 1280 946.0 1270.0Q969 1260 986.5 1242.5Q1004 1225 1014.0 1202.0Q1024 1179 1024 1152Q1024 1125 1014.0 1102.0Q1004 1079 986.5 1061.5Q969 1044 946.0 1034.0Q923 1024 896 1024H685Q757 961 843.0 928.5Q929 896 1024 896Q1085 896 1144.5 910.5Q1204 925 1258.0 953.0Q1312 981 1358.5 1020.5Q1405 1060 1440 1110Z" transform="scale(1,-1)"/>
</svg>