<?xml version="1.0" encoding="UTF-8"?>
<svg xmlns="http://www.w3.org/2000/svg" viewBox="0 -2048 2048 2048">
  <path d="M2048 1792Q2048 1725 2028.0 1671.5Q2008 1618 1972 1563L1456 788Q1495 726 1515.5 655.5Q1536 585 1536 512Q1536 406 1496.0 312.5Q1456 219 1386.5 149.5Q1317 80 1223.5 40.0Q1130 0 1024 0Q918 0 824.5 40.0Q731 80 661.5 149.5Q592 219 552.0 312.5Q512 406 512 512Q512 585 532.5 655.5Q553 726 592 788L76 1563Q40 1618 20.0 1671.5Q0 1725 0 1792Q0 1845 20.0 1891.5Q40 1938 75.0 1973.0Q110 2008 156.5 2028.0Q203 2048 256 2048H1792Q1845 2048 1891.5 2028.0Q1938 2008 1973.0 1973.0Q2008 1938 2028.0 1891.5Q2048 1845 2048 1792ZM1576 1920H472L642 1664H1406ZM728 1536 1024 1091 1320 1536ZM128 1792Q128 1746 142.0 1710.0Q156 1674 181 1636L679 890Q730 937 791.5 968.5Q853 1000 922 1014L318 1920H256Q229 1920 206.0 1910.0Q183 1900 165.5 1882.5Q148 1865 138.0 1842.0Q128 1819 128 1792ZM1024 128Q1103 128 1173.0 158.0Q1243 188 1295.5 240.5Q1348 293 1378.0 362.5Q1408 432 1408 512Q1408 591 1378.0 661.0Q1348 731 1295.5 783.5Q1243 836 1173.0 866.0Q1103 896 1024 896Q944 896 874.5 866.0Q805 836 752.5 783.5Q700 731 670.0 661.0Q640 591 640 512Q640 432 670.0 362.5Q700 293 752.5 240.5Q805 188 874.5 158.0Q944 128 1024 128ZM1868 1638Q1893 1672 1906.5 1711.0Q1920 1750 1920 1792Q1920 1819 1910.0 1842.0Q1900 1865 1882.5 1882.5Q1865 1900 1842.0 1910.0Q1819 1920 1792 1920H1730L1126 1014Q1195 1000 1256.5 968.5Q1318 937 1369 890L1868 1637Z" transform="scale(1,-1)"/>
</svg>