<?xml version="1.0" encoding="UTF-8"?>
<svg xmlns="http://www.w3.org/2000/svg" viewBox="0 -2048 2048 2048">
  <path d="M2048 70Q2048 42 2031.0 21.0Q2014 0 1984 0Q1958 0 1939 19L1154 803Q1058 724 943.5 682.0Q829 640 704 640Q607 640 517.0 665.0Q427 690 349.0 736.0Q271 782 206.5 846.5Q142 911 96.0 989.0Q50 1067 25.0 1157.0Q0 1247 0 1344Q0 1441 25.0 1531.0Q50 1621 96.0 1699.0Q142 1777 206.5 1841.5Q271 1906 349.0 1952.0Q427 1998 517.0 2023.0Q607 2048 704 2048Q801 2048 891.0 2023.0Q981 1998 1059.0 1952.0Q1137 1906 1201.5 1841.5Q1266 1777 1312.0 1699.0Q1358 1621 1383.0 1531.0Q1408 1441 1408 1344Q1408 1219 1366.0 1104.5Q1324 990 1245 894Q1260 879 1302.5 837.0Q1345 795 1404.5 737.0Q1464 679 1534.5 609.5Q1605 540 1676.5 468.5Q1748 397 1815.0 329.0Q1882 261 1934.0 206.0Q1986 151 2017.0 114.5Q2048 78 2048 70ZM704 768Q823 768 928.0 813.5Q1033 859 1111.0 937.0Q1189 1015 1234.5 1120.0Q1280 1225 1280 1344Q1280 1463 1234.5 1568.0Q1189 1673 1111.0 1751.0Q1033 1829 928.0 1874.5Q823 1920 704 1920Q585 1920 480.0 1874.5Q375 1829 297.0 1751.0Q219 1673 173.5 1568.0Q128 1463 128 1344Q128 1225 173.5 1120.0Q219 1015 297.0 937.0Q375 859 480.0 813.5Q585 768 704 768ZM384 1408H1024V1280H384Z" transform="scale(1,-1)"/>
</svg>