<?xml version="1.0" encoding="UTF-8"?>
<svg xmlns="http://www.w3.org/2000/svg" viewBox="384 -2048 1280 2048">
  <path d="M1568 1664Q1608 1664 1636.0 1636.0Q1664 1608 1664 1568V96Q1664 56 1636.0 28.0Q1608 0 1568 0H480Q440 0 412.0 28.0Q384 56 384 96V1568Q384 1608 412.0 1636.0Q440 1664 480 1664H792L600 2048H744L936 1664H1112L1304 2048H1448L1256 1664ZM1536 1536H1000L1081 1373Q1088 1357 1088 1344Q1088 1318 1069.0 1299.0Q1050 1280 1024 1280Q1006 1280 990.5 1289.5Q975 1299 967 1315L856 1536H512V128H1536ZM768 896Q768 949 788.0 995.5Q808 1042 843.0 1077.0Q878 1112 924.5 1132.0Q971 1152 1024 1152Q1077 1152 1123.5 1132.0Q1170 1112 1205.0 1077.0Q1240 1042 1260.0 995.5Q1280 949 1280 896Q1280 847 1261.5 801.0Q1243 755 1210 720Q1256 695 1292.5 659.0Q1329 623 1354.5 579.0Q1380 535 1394.0 485.5Q1408 436 1408 384H1280Q1280 437 1260.0 483.5Q1240 530 1205.0 565.0Q1170 600 1123.5 620.0Q1077 640 1024 640Q971 640 924.5 620.0Q878 600 843.0 565.0Q808 530 788.0 483.5Q768 437 768 384H640Q640 436 654.0 485.5Q668 535 693.5 579.0Q719 623 755.5 659.0Q792 695 838 720Q805 755 786.5 801.0Q768 847 768 896ZM1152 896Q1152 923 1142.0 946.0Q1132 969 1114.5 986.5Q1097 1004 1074.0 1014.0Q1051 1024 1024 1024Q997 1024 974.0 1014.0Q951 1004 933.5 986.5Q916 969 906.0 946.0Q896 923 896 896Q896 869 906.0 846.0Q916 823 933.5 805.5Q951 788 974.0 778.0Q997 768 1024 768Q1051 768 1074.0 778.0Q1097 788 1114.5 805.5Q1132 823 1142.0 846.0Q1152 869 1152 896Z" transform="scale(1,-1)"/>
</svg>