<?xml version="1.0" encoding="UTF-8"?>
<svg xmlns="http://www.w3.org/2000/svg" viewBox="0 -1792 1920 1690">
  <path d="M960 1792Q1022 1792 1096.5 1785.0Q1171 1778 1250.0 1762.5Q1329 1747 1409.5 1722.5Q1490 1698 1564.5 1664.0Q1639 1630 1703.5 1586.0Q1768 1542 1816.5 1486.5Q1865 1431 1892.5 1363.5Q1920 1296 1920 1216V1088Q1920 1048 1905.0 1013.0Q1890 978 1864.0 952.0Q1838 926 1803.0 911.0Q1768 896 1728 896H1472Q1416 896 1381.0 912.5Q1346 929 1326.0 956.0Q1306 983 1297.5 1017.5Q1289 1052 1285.5 1088.0Q1282 1124 1280.5 1158.5Q1279 1193 1273.5 1220.0Q1268 1247 1255.0 1263.5Q1242 1280 1216 1280H704Q678 1280 665.0 1263.5Q652 1247 646.5 1220.0Q641 1193 639.5 1158.5Q638 1124 634.5 1088.0Q631 1052 622.5 1017.5Q614 983 594.0 956.0Q574 929 539.0 912.5Q504 896 448 896H192Q152 896 117.0 911.0Q82 926 56.0 952.0Q30 978 15.0 1013.0Q0 1048 0 1088V1216Q0 1296 27.5 1363.5Q55 1431 103.5 1486.5Q152 1542 216.5 1586.0Q281 1630 355.5 1664.0Q430 1698 510.5 1722.5Q591 1747 670.0 1762.5Q749 1778 823.5 1785.0Q898 1792 960 1792ZM1792 1216Q1792 1300 1748.0 1365.5Q1704 1431 1632.5 1481.0Q1561 1531 1471.0 1565.5Q1381 1600 1288.5 1622.0Q1196 1644 1109.5 1654.0Q1023 1664 960 1664Q897 1664 810.5 1654.0Q724 1644 631.5 1622.0Q539 1600 449.0 1565.5Q359 1531 287.5 1481.0Q216 1431 172.0 1365.5Q128 1300 128 1216V1088Q128 1062 147.0 1043.0Q166 1024 192 1024H448Q469 1024 482.5 1033.5Q496 1043 503.0 1059.0Q510 1075 512.5 1094.5Q515 1114 515 1135Q515 1158 513.5 1179.5Q512 1201 512 1216Q512 1256 527.0 1291.0Q542 1326 568.0 1352.0Q594 1378 629.0 1393.0Q664 1408 704 1408H1216Q1256 1408 1291.0 1393.0Q1326 1378 1352.0 1352.0Q1378 1326 1393.0 1291.0Q1408 1256 1408 1216Q1408 1201 1406.5 1179.5Q1405 1158 1405 1135Q1405 1114 1407.5 1094.5Q1410 1075 1417.0 1059.0Q1424 1043 1437.5 1033.5Q1451 1024 1472 1024H1728Q1754 1024 1773.0 1043.0Q1792 1062 1792 1088ZM1235 557 1325 467 960 102 595 467 685 557 896 347V1024H1024V347Z" transform="scale(1,-1)"/>
</svg>