<?xml version="1.0" encoding="UTF-8"?>
<svg xmlns="http://www.w3.org/2000/svg" viewBox="128 -1920 1792 1792">
  <path d="M1152 768H1536V640H1152ZM1024 1920Q1148 1920 1262.5 1888.0Q1377 1856 1476.5 1797.5Q1576 1739 1657.5 1657.5Q1739 1576 1797.5 1476.5Q1856 1377 1888.0 1262.5Q1920 1148 1920 1024Q1920 900 1888.0 785.5Q1856 671 1797.5 571.5Q1739 472 1657.5 390.5Q1576 309 1476.5 250.5Q1377 192 1262.5 160.0Q1148 128 1024 128Q900 128 785.5 160.0Q671 192 571.5 250.5Q472 309 390.5 390.5Q309 472 250.5 571.5Q192 671 160.0 785.5Q128 900 128 1024Q128 1148 160.0 1262.5Q192 1377 250.5 1476.5Q309 1576 390.5 1657.5Q472 1739 571.5 1797.5Q671 1856 785.5 1888.0Q900 1920 1024 1920ZM256 1024Q256 887 302.5 760.0Q349 633 437 528L1520 1611Q1415 1699 1288.0 1745.5Q1161 1792 1024 1792Q918 1792 820.0 1764.5Q722 1737 636.5 1687.0Q551 1637 481.0 1567.0Q411 1497 361.0 1411.5Q311 1326 283.5 1228.0Q256 1130 256 1024ZM1024 256Q1130 256 1228.0 283.5Q1326 311 1411.5 361.0Q1497 411 1567.0 481.0Q1637 551 1687.0 636.5Q1737 722 1764.5 820.0Q1792 918 1792 1024Q1792 1161 1745.5 1288.0Q1699 1415 1611 1520L528 437Q633 349 760.0 302.5Q887 256 1024 256ZM640 1152H512V1280H640V1408H768V1280H896V1152H768V1024H640Z" transform="scale(1,-1)"/>
</svg>