<?xml version="1.0" encoding="UTF-8"?>
<svg xmlns="http://www.w3.org/2000/svg" viewBox="0 -2048 2048 2048">
  <path d="M1536 1536H2048V0H512V512H0V2048H1536ZM975 1536H1201L817 1920H591ZM817 1536 433 1920H207L591 1536ZM512 1457 128 1841V1615L512 1231ZM128 1457V1231L512 847V1073ZM640 1408V640H1408V1408ZM1073 512H847L1231 128H1457ZM1231 512 1615 128H1841L1457 512ZM1536 817V591L1920 207V433ZM1536 975 1920 591V817L1536 1201ZM1920 1359V1408H1871ZM1713 1408H1536V1359L1920 975V1201ZM1359 1536H1408V1713L1201 1920H975ZM1408 1871V1920H1359ZM128 689V640H177ZM335 640H512V689L128 1073V847ZM689 512H640V335L847 128H1073ZM640 177V128H689Z" transform="scale(1,-1)"/>
</svg>