<?xml version="1.0" encoding="UTF-8"?>
<svg xmlns="http://www.w3.org/2000/svg" viewBox="128 -1920 1917 1918">
  <path d="M1024 1792Q886 1792 761.0 1745.5Q636 1699 535.5 1616.5Q435 1534 365.5 1420.0Q296 1306 270 1171L144 1196Q175 1353 256.0 1486.0Q337 1619 454.5 1715.5Q572 1812 718.0 1866.0Q864 1920 1024 1920Q1141 1920 1253.0 1889.5Q1365 1859 1464.5 1803.0Q1564 1747 1647.5 1666.5Q1731 1586 1792 1486V1792H1920V1280H1408V1408H1689Q1638 1496 1566.0 1567.5Q1494 1639 1407.5 1688.5Q1321 1738 1223.5 1765.0Q1126 1792 1024 1792ZM1384 348 1411 320 1253 161Q1196 147 1139.0 137.5Q1082 128 1024 128Q906 128 794.0 158.0Q682 188 582.5 244.0Q483 300 400.0 380.5Q317 461 256 562V256H128V768H640V640H359Q410 551 482.0 479.5Q554 408 640.0 358.5Q726 309 823.5 282.5Q921 256 1024 256Q1119 256 1209.5 279.5Q1300 303 1384 348ZM2045 546 1819 320 2045 93 1955 3 1728 229 1501 2 1411 93 1638 320 1411 547 1501 637 1728 410 1955 637Z" transform="scale(1,-1)"/>
</svg>