<?xml version="1.0" encoding="UTF-8"?>
<svg xmlns="http://www.w3.org/2000/svg" viewBox="0 -1664 2048 1664">
  <path d="M1152 928Q1152 883 1142.5 850.5Q1133 818 1119.0 792.5Q1105 767 1088.0 747.0Q1071 727 1057.0 706.5Q1043 686 1033.5 662.5Q1024 639 1024 608V128Q1024 101 1014.0 78.0Q1004 55 986.5 37.5Q969 20 946.0 10.0Q923 0 896 0H0V1280H1024Q1051 1280 1074.0 1270.0Q1097 1260 1114.5 1242.5Q1132 1225 1142.0 1202.0Q1152 1179 1152 1152ZM896 128V608Q896 639 886.5 662.5Q877 686 863.0 706.5Q849 727 832.0 747.0Q815 767 801.0 792.5Q787 818 777.5 850.5Q768 883 768 928V1152H128V128ZM1024 1152H896V928Q896 904 900.5 886.0Q905 868 913.5 852.0Q922 836 934.0 821.5Q946 807 960 790Q974 807 986.0 821.5Q998 836 1006.5 852.0Q1015 868 1019.5 886.0Q1024 904 1024 928ZM384 1024H512V640H384ZM384 512H512V384H384ZM0 1664H1664V1536H0ZM2048 1664V1536H1920V1664ZM1920 1280H2048V1152H1920ZM1280 1280H1664V1152H1280ZM1280 896H1664V768H1280ZM1920 896H2048V768H1920ZM1152 512H1664V384H1152ZM1920 512H2048V384H1920Z" transform="scale(1,-1)"/>
</svg>