<?xml version="1.0" encoding="UTF-8"?>
<svg xmlns="http://www.w3.org/2000/svg" viewBox="128 -1920 1792 1792">
  <path d="M1664 640Q1717 640 1763.5 620.0Q1810 600 1845.0 565.0Q1880 530 1900.0 483.5Q1920 437 1920 384Q1920 331 1900.0 284.5Q1880 238 1845.0 203.0Q1810 168 1763.5 148.0Q1717 128 1664 128Q1611 128 1564.5 148.0Q1518 168 1483.0 203.0Q1448 238 1428.0 284.5Q1408 331 1408 384Q1408 455 1443 514L1154 803Q1095 768 1024 768Q953 768 894 803L605 514Q640 455 640 384Q640 331 620.0 284.5Q600 238 565.0 203.0Q530 168 483.5 148.0Q437 128 384 128Q331 128 284.5 148.0Q238 168 203.0 203.0Q168 238 148.0 284.5Q128 331 128 384Q128 437 148.0 483.5Q168 530 203.0 565.0Q238 600 284.5 620.0Q331 640 384 640Q455 640 514 605L803 894Q768 953 768 1024Q768 1095 803 1154L514 1443Q455 1408 384 1408Q331 1408 284.5 1428.0Q238 1448 203.0 1483.0Q168 1518 148.0 1564.5Q128 1611 128 1664Q128 1717 148.0 1763.5Q168 1810 203.0 1845.0Q238 1880 284.5 1900.0Q331 1920 384 1920Q437 1920 483.5 1900.0Q530 1880 565.0 1845.0Q600 1810 620.0 1763.5Q640 1717 640 1664Q640 1593 605 1534L894 1245Q953 1280 1024 1280Q1095 1280 1154 1245L1443 1534Q1408 1593 1408 1664Q1408 1717 1428.0 1763.5Q1448 1810 1483.0 1845.0Q1518 1880 1564.5 1900.0Q1611 1920 1664 1920Q1717 1920 1763.5 1900.0Q1810 1880 1845.0 1845.0Q1880 1810 1900.0 1763.5Q1920 1717 1920 1664Q1920 1611 1900.0 1564.5Q1880 1518 1845.0 1483.0Q1810 1448 1763.5 1428.0Q1717 1408 1664 1408Q1593 1408 1534 1443L1245 1154Q1280 1095 1280 1024Q1280 953 1245 894L1534 605Q1593 640 1664 640ZM1664 1792Q1637 1792 1614.0 1782.0Q1591 1772 1573.5 1754.5Q1556 1737 1546.0 1714.0Q1536 1691 1536 1664Q1536 1637 1546.0 1614.0Q1556 1591 1573.5 1573.5Q1591 1556 1614.0 1546.0Q1637 1536 1664 1536Q1691 1536 1714.0 1546.0Q1737 1556 1754.5 1573.5Q1772 1591 1782.0 1614.0Q1792 1637 1792 1664Q1792 1691 1782.0 1714.0Q1772 1737 1754.5 1754.5Q1737 1772 1714.0 1782.0Q1691 1792 1664 1792ZM256 1664Q256 1637 266.0 1614.0Q276 1591 293.5 1573.5Q311 1556 334.0 1546.0Q357 1536 384 1536Q411 1536 434.0 1546.0Q457 1556 474.5 1573.5Q492 1591 502.0 1614.0Q512 1637 512 1664Q512 1691 502.0 1714.0Q492 1737 474.5 1754.5Q457 1772 434.0 1782.0Q411 1792 384 1792Q357 1792 334.0 1782.0Q311 1772 293.5 1754.5Q276 1737 266.0 1714.0Q256 1691 256 1664ZM384 256Q411 256 434.0 266.0Q457 276 474.5 293.5Q492 311 502.0 334.0Q512 357 512 384Q512 411 502.0 434.0Q492 457 474.5 474.5Q457 492 434.0 502.0Q411 512 384 512Q357 512 334.0 502.0Q311 492 293.5 474.5Q276 457 266.0 434.0Q256 411 256 384Q256 357 266.0 334.0Q276 311 293.5 293.5Q311 276 334.0 266.0Q357 256 384 256ZM1024 896Q1051 896 1074.0 906.0Q1097 916 1114.5 933.5Q1132 951 1142.0 974.0Q1152 997 1152 1024Q1152 1051 1142.0 1074.0Q1132 1097 1114.5 1114.5Q1097 1132 1074.0 1142.0Q1051 1152 1024 1152Q997 1152 974.0 1142.0Q951 1132 933.5 1114.5Q916 1097 906.0 1074.0Q896 1051 896 1024Q896 997 906.0 974.0Q916 951 933.5 933.5Q951 916 974.0 906.0Q997 896 1024 896ZM1664 256Q1691 256 1714.0 266.0Q1737 276 1754.5 293.5Q1772 311 1782.0 334.0Q1792 357 1792 384Q1792 411 1782.0 434.0Q1772 457 1754.5 474.5Q1737 492 1714.0 502.0Q1691 512 1664 512Q1637 512 1614.0 502.0Q1591 492 1573.5 474.5Q1556 457 1546.0 434.0Q1536 411 1536 384Q1536 357 1546.0 334.0Q1556 311 1573.5 293.5Q1591 276 1614.0 266.0Q1637 256 1664 256Z" transform="scale(1,-1)"/>
</svg>