<?xml version="1.0" encoding="UTF-8"?>
<svg xmlns="http://www.w3.org/2000/svg" viewBox="0 -2048 2038 2048">
  <path d="M896 1664H512V1792H896ZM512 1536H896V1408H512ZM384 1664H256V1792H384ZM256 1536H384V1408H256ZM1124 128Q1131 118 1138.5 109.0Q1146 100 1154 90V0H0V2048H1115L1664 1499V1024H1536V1408H1024V1920H128V128ZM1152 1536H1445L1152 1829ZM1914 509Q1920 479 1920 448Q1920 417 1914 387L2038 336L1989 217L1865 269Q1830 218 1779 183L1831 59L1712 10L1661 134Q1631 128 1600 128Q1569 128 1539 134L1488 10L1369 59L1421 183Q1370 218 1335 269L1211 217L1162 336L1286 387Q1280 417 1280 448Q1280 479 1286 509L1162 560L1211 679L1335 627Q1370 678 1421 713L1369 837L1488 886L1539 762Q1569 768 1600 768Q1631 768 1661 762L1712 886L1831 837L1779 713Q1830 678 1865 627L1989 679L2038 560ZM1600 256Q1640 256 1675.0 271.0Q1710 286 1736.0 312.0Q1762 338 1777.0 373.0Q1792 408 1792 448Q1792 488 1777.0 523.0Q1762 558 1736.0 584.0Q1710 610 1675.0 625.0Q1640 640 1600 640Q1560 640 1525.0 625.0Q1490 610 1464.0 584.0Q1438 558 1423.0 523.0Q1408 488 1408 448Q1408 408 1423.0 373.0Q1438 338 1464.0 312.0Q1490 286 1525.0 271.0Q1560 256 1600 256Z" transform="scale(1,-1)"/>
</svg>