<?xml version="1.0" encoding="UTF-8"?>
<svg xmlns="http://www.w3.org/2000/svg" viewBox="0 -2048 2048 2048">
  <path d="M1024 768Q1096 768 1173.0 752.0Q1250 736 1320.0 703.5Q1390 671 1448.0 621.0Q1506 571 1540 503L1425 446Q1399 497 1353.0 533.5Q1307 570 1251.5 594.0Q1196 618 1136.0 629.0Q1076 640 1024 640Q970 640 910.5 629.5Q851 619 795.5 595.5Q740 572 694.5 535.0Q649 498 623 446L508 503Q542 572 599.5 622.5Q657 673 727.0 705.0Q797 737 874.0 752.5Q951 768 1024 768ZM1024 2048Q1165 2048 1296.0 2011.5Q1427 1975 1540.5 1908.0Q1654 1841 1747.5 1747.5Q1841 1654 1908.0 1540.5Q1975 1427 2011.5 1296.0Q2048 1165 2048 1024Q2048 883 2011.5 752.0Q1975 621 1908.5 507.0Q1842 393 1748.5 299.5Q1655 206 1541.0 139.5Q1427 73 1296.0 36.5Q1165 0 1024 0Q883 0 752.0 36.5Q621 73 507.0 139.5Q393 206 299.5 299.5Q206 393 139.5 507.0Q73 621 36.5 751.5Q0 882 0 1024Q0 1165 36.5 1296.0Q73 1427 139.5 1541.0Q206 1655 299.5 1748.5Q393 1842 507.0 1908.5Q621 1975 751.5 2011.5Q882 2048 1024 2048ZM1024 128Q1147 128 1261.5 160.0Q1376 192 1475.5 250.5Q1575 309 1657.0 391.0Q1739 473 1797.5 572.5Q1856 672 1888.0 786.0Q1920 900 1920 1024Q1920 1147 1888.0 1261.5Q1856 1376 1797.5 1475.5Q1739 1575 1657.0 1657.0Q1575 1739 1475.5 1797.5Q1376 1856 1261.5 1888.0Q1147 1920 1024 1920Q901 1920 786.5 1888.0Q672 1856 572.5 1797.5Q473 1739 391.0 1657.0Q309 1575 250.5 1475.5Q192 1376 160.0 1261.5Q128 1147 128 1024Q128 901 160.0 786.5Q192 672 250.5 572.5Q309 473 391.0 391.0Q473 309 572.5 250.5Q672 192 786.0 160.0Q900 128 1024 128ZM767 1131Q720 1152 670 1152Q635 1152 601.5 1142.0Q568 1132 539.5 1113.5Q511 1095 488.5 1069.0Q466 1043 451 1011L334 1064Q356 1113 391.0 1153.0Q426 1193 470.0 1221.0Q514 1249 564.5 1264.5Q615 1280 669 1280Q749 1280 820 1247ZM1228 1247Q1263 1264 1301.5 1272.0Q1340 1280 1379 1280Q1433 1280 1483.5 1264.5Q1534 1249 1578.0 1221.0Q1622 1193 1656.5 1153.0Q1691 1113 1714 1064L1597 1011Q1582 1043 1559.5 1069.0Q1537 1095 1508.5 1113.5Q1480 1132 1446.5 1142.0Q1413 1152 1378 1152Q1326 1152 1280 1131Z" transform="scale(1,-1)"/>
</svg>