<?xml version="1.0" encoding="UTF-8"?>
<svg xmlns="http://www.w3.org/2000/svg" viewBox="0 -1664 2048 1664">
  <path d="M2048 1664V582Q2019 605 1987.0 621.5Q1955 638 1920 650V1465L1024 1016L128 1465V512H1152V384H0V1664ZM1024 1160 1777 1536H271ZM1499 512Q1549 512 1609.5 514.5Q1670 517 1731.0 514.0Q1792 511 1849.0 499.5Q1906 488 1950.5 459.5Q1995 431 2021.5 382.0Q2048 333 2048 256Q2048 203 2027.5 156.5Q2007 110 1972.5 75.5Q1938 41 1891.0 20.5Q1844 0 1792 0V128Q1819 128 1842.0 138.0Q1865 148 1882.5 165.5Q1900 183 1910.0 206.0Q1920 229 1920 256Q1920 283 1910.0 306.0Q1900 329 1882.5 346.5Q1865 364 1842.0 374.0Q1819 384 1792 384H1499L1661 221L1571 131L1254 448L1571 765L1661 675Z" transform="scale(1,-1)"/>
</svg>