<?xml version="1.0" encoding="UTF-8"?>
<svg xmlns="http://www.w3.org/2000/svg" viewBox="0 -2048 2048 2048">
  <path d="M1792 1408H1152V1536H1792ZM256 896Q256 948 270.0 998.0Q284 1048 309.5 1091.5Q335 1135 372.0 1171.0Q409 1207 455 1232Q421 1267 402.5 1313.0Q384 1359 384 1408Q384 1461 404.0 1507.5Q424 1554 459.0 1589.0Q494 1624 540.5 1644.0Q587 1664 640 1664Q693 1664 739.5 1644.0Q786 1624 821.0 1589.0Q856 1554 876.0 1507.5Q896 1461 896 1408Q896 1359 877.5 1313.0Q859 1267 825 1232Q871 1207 908.0 1171.0Q945 1135 970.5 1091.5Q996 1048 1010.0 998.0Q1024 948 1024 896H896Q896 949 876.0 995.5Q856 1042 821.0 1077.0Q786 1112 739.5 1132.0Q693 1152 640 1152Q587 1152 540.5 1132.0Q494 1112 459.0 1077.0Q424 1042 404.0 995.5Q384 949 384 896ZM640 1536Q613 1536 590.0 1526.0Q567 1516 549.5 1498.5Q532 1481 522.0 1458.0Q512 1435 512 1408Q512 1381 522.0 1358.0Q532 1335 549.5 1317.5Q567 1300 590.0 1290.0Q613 1280 640 1280Q667 1280 690.0 1290.0Q713 1300 730.5 1317.5Q748 1335 758.0 1358.0Q768 1381 768 1408Q768 1435 758.0 1458.0Q748 1481 730.5 1498.5Q713 1516 690.0 1526.0Q667 1536 640 1536ZM1152 1152H1329L1265 1024H1152ZM2048 2048V512H1935L1871 640H1920V1920H128V640H1073L1009 512H0V2048ZM1408 640H1536V320H1408ZM1408 256H1536V128H1408ZM1472 1152 2048 0H896ZM1867 112 1472 902 1077 112Z" transform="scale(1,-1)"/>
</svg>