<?xml version="1.0" encoding="UTF-8"?>
<svg xmlns="http://www.w3.org/2000/svg" viewBox="0 -1792 2048 1790">
  <path d="M897 512 846 460 827 384H0V1792H2048V1252Q2019 1271 1986.5 1283.0Q1954 1295 1920 1302V1664H128V512ZM1848 1152Q1890 1152 1926.5 1137.0Q1963 1122 1990.0 1095.5Q2017 1069 2032.5 1032.5Q2048 996 2048 954Q2048 915 2033.0 878.0Q2018 841 1990 813L1273 96L896 2L990 379L1707 1095Q1736 1124 1772.0 1138.0Q1808 1152 1848 1152ZM1899 903Q1920 924 1920 954Q1920 985 1899.5 1004.5Q1879 1024 1848 1024Q1834 1024 1821.0 1019.5Q1808 1015 1798 1005L1106 313L1072 178L1207 212Z" transform="scale(1,-1)"/>
</svg>