<?xml version="1.0" encoding="UTF-8"?>
<svg xmlns="http://www.w3.org/2000/svg" viewBox="0 -1664 2048 1152">
  <path d="M0 1664H2048V512H0ZM1920 640V1536H128V640ZM1792 1152V1024H768V1152ZM448 896Q408 896 373.0 911.0Q338 926 312.0 952.0Q286 978 271.0 1013.0Q256 1048 256 1088Q256 1128 271.0 1163.0Q286 1198 312.0 1224.0Q338 1250 373.0 1265.0Q408 1280 448 1280Q488 1280 523.0 1265.0Q558 1250 584.0 1224.0Q610 1198 625.0 1163.0Q640 1128 640 1088Q640 1048 625.0 1013.0Q610 978 584.0 952.0Q558 926 523.0 911.0Q488 896 448 896ZM448 1152Q422 1152 403.0 1133.0Q384 1114 384 1088Q384 1062 403.0 1043.0Q422 1024 448 1024Q474 1024 493.0 1043.0Q512 1062 512 1088Q512 1114 493.0 1133.0Q474 1152 448 1152Z" transform="scale(1,-1)"/>
</svg>