<?xml version="1.0" encoding="UTF-8"?>
<svg xmlns="http://www.w3.org/2000/svg" viewBox="384 -2048 1280 2048">
  <path d="M1664 896H1536V192Q1536 152 1521.0 117.0Q1506 82 1480.0 56.0Q1454 30 1419.0 15.0Q1384 0 1344 0Q1304 0 1269.0 15.0Q1234 30 1208.0 56.0Q1182 82 1167.0 117.0Q1152 152 1152 192V896H1024V1024H1280V1573L1152 1701V2048H1536V1701L1408 1573V1024H1664ZM1280 1755 1344 1690 1408 1755V1920H1280ZM1408 896H1280V192Q1280 166 1299.0 147.0Q1318 128 1344 128Q1370 128 1389.0 147.0Q1408 166 1408 192ZM704 2048Q770 2048 828.0 2022.5Q886 1997 929.5 1953.5Q973 1910 998.5 1852.0Q1024 1794 1024 1728Q1024 1653 990.0 1585.5Q956 1518 896 1473V192Q896 152 881.0 117.0Q866 82 840.0 56.0Q814 30 779.0 15.0Q744 0 704 0Q664 0 629.0 15.0Q594 30 568.0 56.0Q542 82 527.0 117.0Q512 152 512 192V1473Q452 1518 418.0 1585.5Q384 1653 384 1728Q384 1794 409.0 1852.0Q434 1910 477.5 1953.5Q521 1997 579.5 2022.5Q638 2048 704 2048ZM768 1544Q796 1560 819.5 1578.0Q843 1596 860.0 1617.5Q877 1639 886.5 1666.0Q896 1693 896 1728Q896 1758 886.5 1786.0Q877 1814 860.5 1838.0Q844 1862 820.0 1880.0Q796 1898 768 1908V1728L704 1664L640 1728V1908Q611 1898 587.5 1880.0Q564 1862 547.5 1838.0Q531 1814 521.5 1786.0Q512 1758 512 1728Q512 1693 521.5 1666.0Q531 1639 548.0 1617.5Q565 1596 588.5 1578.0Q612 1560 640 1544V192Q640 166 659.0 147.0Q678 128 704 128Q730 128 749.0 147.0Q768 166 768 192Z" transform="scale(1,-1)"/>
</svg>