<?xml version="1.0" encoding="UTF-8"?>
<svg xmlns="http://www.w3.org/2000/svg" viewBox="5 -1793 2043 1416">
  <path d="M2048 1664V1536H512V1664ZM512 1152H2048V1024H512ZM512 640H2048V512H512ZM135 1699Q121 1688 97.5 1677.5Q74 1667 55 1667V1736Q86 1747 114.0 1760.0Q142 1773 168 1793H217V1408H135ZM134 1279Q159 1279 181.5 1272.5Q204 1266 220.5 1252.5Q237 1239 246.5 1219.0Q256 1199 256 1172Q256 1141 244.0 1117.5Q232 1094 214.5 1075.5Q197 1057 176.0 1042.5Q155 1028 137.5 1015.5Q120 1003 108.0 990.5Q96 978 96 965H256V896H5Q5 919 5.5 937.0Q6 955 15 976Q30 1010 56.0 1033.5Q82 1057 107.5 1077.0Q133 1097 152.0 1117.0Q171 1137 171 1164Q171 1191 156.0 1202.0Q141 1213 116 1213Q90 1213 66.5 1202.0Q43 1191 23 1174V1247Q73 1279 134 1279ZM170 580Q206 575 231.0 553.0Q256 531 256 492Q256 461 243.5 439.0Q231 417 211.0 403.5Q191 390 164.5 383.5Q138 377 111 377Q87 377 62.5 381.0Q38 385 16 396V469Q35 455 57.5 448.0Q80 441 104 441Q130 441 150.5 452.0Q171 463 171 493Q171 515 158.0 525.5Q145 536 126.5 540.5Q108 545 88.0 545.0Q68 545 54 545V609Q68 609 86.0 609.0Q104 609 120.5 612.5Q137 616 148.5 626.0Q160 636 160 657Q160 683 143.5 693.0Q127 703 104 703Q65 703 30 679V747Q52 758 75.5 762.5Q99 767 123 767Q145 767 167.0 762.0Q189 757 206.0 745.5Q223 734 234.0 716.0Q245 698 245 673Q245 635 225.5 612.5Q206 590 170 581Z" transform="scale(1,-1)"/>
</svg>