<?xml version="1.0" encoding="UTF-8"?>
<svg xmlns="http://www.w3.org/2000/svg" viewBox="0 -2048 2029 2011">
  <path d="M1397 498Q1376 612 1318.5 708.0Q1261 804 1177.5 874.5Q1094 945 989.0 984.5Q884 1024 768 1024Q680 1024 598.0 1001.0Q516 978 445.0 936.5Q374 895 315.5 836.5Q257 778 215.5 707.0Q174 636 151.0 554.0Q128 472 128 384H0Q0 501 35.5 613.0Q71 725 136.5 820.5Q202 916 293.5 989.5Q385 1063 496 1102Q440 1138 395.5 1185.0Q351 1232 320.0 1288.0Q289 1344 272.5 1407.0Q256 1470 256 1536Q256 1642 296.0 1735.5Q336 1829 405.5 1898.5Q475 1968 568.5 2008.0Q662 2048 768 2048Q874 2048 967.5 2008.0Q1061 1968 1130.5 1898.5Q1200 1829 1240.0 1735.5Q1280 1642 1280 1536Q1280 1470 1263.5 1407.0Q1247 1344 1216.0 1288.0Q1185 1232 1140.5 1184.5Q1096 1137 1040 1102Q1139 1064 1223.0 1002.0Q1307 940 1370.5 859.0Q1434 778 1475.0 681.5Q1516 585 1529 480L1472 422ZM384 1536Q384 1456 414.0 1386.5Q444 1317 496.5 1264.5Q549 1212 618.5 1182.0Q688 1152 768 1152Q847 1152 917.0 1182.0Q987 1212 1039.5 1264.5Q1092 1317 1122.0 1386.5Q1152 1456 1152 1536Q1152 1615 1122.0 1685.0Q1092 1755 1039.5 1807.5Q987 1860 917.0 1890.0Q847 1920 768 1920Q688 1920 618.5 1890.0Q549 1860 496.5 1807.5Q444 1755 414.0 1685.0Q384 1615 384 1536ZM2029 595 1472 37 1203 307 1293 397 1472 219 1939 685Z" transform="scale(1,-1)"/>
</svg>