<?xml version="1.0" encoding="UTF-8"?>
<svg xmlns="http://www.w3.org/2000/svg" viewBox="0 -2048 2048 2048">
  <path d="M1920 768Q1947 768 1970.0 758.0Q1993 748 2010.5 730.5Q2028 713 2038.0 690.0Q2048 667 2048 641Q2048 630 2046.0 619.5Q2044 609 2041 599L1871 87Q1858 48 1824.0 24.0Q1790 0 1749 0H768V768H1035Q1061 768 1080 787L1408 1115Q1426 1133 1452.5 1142.5Q1479 1152 1504 1152Q1537 1152 1566.0 1139.5Q1595 1127 1617.0 1105.0Q1639 1083 1651.5 1054.0Q1664 1025 1664 992Q1664 986 1660.5 969.5Q1657 953 1651.5 931.0Q1646 909 1640.0 884.0Q1634 859 1628.0 836.0Q1622 813 1617.0 794.5Q1612 776 1610 768ZM1920 640H1446L1535 998Q1533 1009 1524.0 1016.5Q1515 1024 1504 1024Q1503 1024 1500.5 1023.0Q1498 1022 1497 1022L1171 696Q1144 669 1108.5 654.5Q1073 640 1035 640H896V128H1749ZM1013 1280Q987 1280 968 1261L640 933Q622 915 595.5 905.5Q569 896 544 896Q511 896 482.0 908.5Q453 921 431.0 943.0Q409 965 396.5 994.0Q384 1023 384 1056Q384 1065 391.5 1096.0Q399 1127 408.0 1164.0Q417 1201 426.0 1234.5Q435 1268 438 1280H128Q101 1280 78.0 1290.0Q55 1300 37.5 1317.0Q20 1334 10.0 1357.5Q0 1381 0 1407Q0 1418 2.0 1428.5Q4 1439 7 1449L177 1961Q190 2000 224.0 2024.0Q258 2048 299 2048H1280V1280ZM877 1352Q904 1379 939.5 1393.5Q975 1408 1013 1408H1152V1920H299L128 1408H602L513 1050Q515 1039 524.0 1031.5Q533 1024 544 1024Q545 1024 547.5 1025.0Q550 1026 551 1026Z" transform="scale(1,-1)"/>
</svg>