<?xml version="1.0" encoding="UTF-8"?>
<svg xmlns="http://www.w3.org/2000/svg" viewBox="0 -1920 1920 1792">
  <path d="M1398 944 1274 893Q1280 863 1280 832Q1280 801 1274 771L1398 720L1349 601L1225 653Q1208 627 1186.5 605.5Q1165 584 1139 567L1191 443L1072 394L1021 518Q991 512 961 512Q929 512 899 518L848 394L729 443L781 567Q755 584 733.5 605.5Q712 627 695 653L571 601L522 720L646 771Q640 801 640 832Q640 863 646 893L522 944L571 1063L695 1011Q712 1037 733.5 1058.5Q755 1080 781 1097L729 1221L848 1270L899 1146Q929 1152 960 1152Q991 1152 1021 1146L1072 1270L1191 1221L1139 1097Q1165 1080 1186.5 1058.5Q1208 1037 1225 1011L1349 1063ZM960 640Q999 640 1034.0 655.0Q1069 670 1095.5 696.5Q1122 723 1137.0 758.0Q1152 793 1152 832Q1152 871 1137.0 906.0Q1122 941 1095.5 967.5Q1069 994 1034.0 1009.0Q999 1024 960 1024Q921 1024 886.0 1009.0Q851 994 824.5 967.5Q798 941 783.0 906.0Q768 871 768 832Q768 793 783.0 758.0Q798 723 824.5 696.5Q851 670 886.0 655.0Q921 640 960 640ZM1920 1920V128H0V1920ZM128 1792V1536H1792V1792ZM1792 256V1408H128V256Z" transform="scale(1,-1)"/>
</svg>