<?xml version="1.0" encoding="UTF-8"?>
<svg xmlns="http://www.w3.org/2000/svg" viewBox="0 -1920 2048 1910">
  <path d="M2048 1920V856Q2020 887 1987.5 913.5Q1955 940 1920 963V1408H128V384H996Q999 351 1006.0 319.0Q1013 287 1024 256H0V1920ZM1920 1792H128V1536H1920ZM256 512V1280H896V512ZM384 640H768V1152H384ZM1408 1152H1024V1280H1408ZM1024 1022H1408Q1286 981 1192 896H1024ZM2038 560 1914 509Q1920 479 1920 450Q1920 418 1914 387L2038 336L1989 217L1865 269Q1848 244 1826.5 222.0Q1805 200 1779 183L1831 59L1712 10L1661 134Q1631 128 1600 128Q1585 128 1570.0 131.0Q1555 134 1540 137L1488 10L1369 59L1421 184Q1396 201 1375.5 223.0Q1355 245 1338 270L1211 217L1162 336L1286 387Q1280 417 1280 446Q1280 477 1286 509L1162 560L1211 679L1335 627Q1352 652 1373.5 674.0Q1395 696 1421 713L1369 837L1488 886L1539 762Q1569 768 1598 768Q1629 768 1661 762L1712 886L1831 837L1779 713Q1804 696 1826.0 674.5Q1848 653 1865 627L1989 679ZM1600 257Q1640 257 1675.0 272.0Q1710 287 1736.0 313.0Q1762 339 1777.0 374.0Q1792 409 1792 448Q1792 487 1777.0 522.0Q1762 557 1735.5 583.5Q1709 610 1674.0 625.0Q1639 640 1600 640Q1561 640 1526.0 625.0Q1491 610 1464.5 583.5Q1438 557 1423.0 522.0Q1408 487 1408 448Q1408 408 1423.0 373.5Q1438 339 1464.5 313.0Q1491 287 1526.0 272.0Q1561 257 1600 257Z" transform="scale(1,-1)"/>
</svg>