<?xml version="1.0" encoding="UTF-8"?>
<svg xmlns="http://www.w3.org/2000/svg" viewBox="77 -2042 1971 2042">
  <path d="M1153 0V127H1280V0ZM1409 256V383H2048V256ZM1409 0V127H2048V0ZM1409 639H2048V512H1409ZM1153 512V639H1280V512ZM1153 256V383H1280V256ZM1536 768V1144L1024 888V199V57L960 24L256 376V1237L77 1729L608 1464L908 1613L1051 2042L1807 1664L1665 1238V768ZM307 1471 372 1294 845 1057 780 1234ZM897 198V888L383 1145V455ZM996 1017 1457 1248 960 1496 751 1392 884 1326ZM1038 1601 1563 1326 1650 1599 1125 1862Z" transform="scale(1,-1)"/>
</svg>