<?xml version="1.0" encoding="UTF-8"?>
<svg xmlns="http://www.w3.org/2000/svg" viewBox="256 -1920 1792 1920">
  <path d="M384 1411V448Q384 428 397.0 413.0Q410 398 424 385Q465 347 533.5 322.0Q602 297 679.0 282.5Q756 268 831.0 262.0Q906 256 960 256Q992 256 1025 259Q1037 227 1050.0 195.0Q1063 163 1082 134Q1051 132 1021.0 130.0Q991 128 960 128Q899 128 838.5 132.5Q778 137 718 147Q679 153 630.0 164.5Q581 176 529.5 193.0Q478 210 429.0 233.0Q380 256 341.5 287.5Q303 319 279.5 359.0Q256 399 256 448V1600Q256 1668 294.5 1718.0Q333 1768 395.0 1803.5Q457 1839 535.0 1862.0Q613 1885 691.0 1897.5Q769 1910 840.0 1915.0Q911 1920 960 1920Q1009 1920 1080.0 1915.0Q1151 1910 1229.0 1897.5Q1307 1885 1385.0 1862.0Q1463 1839 1525.0 1803.5Q1587 1768 1625.5 1718.0Q1664 1668 1664 1600V1049Q1631 1053 1600.5 1054.5Q1570 1056 1536 1056V1411Q1478 1374 1406.0 1349.0Q1334 1324 1257.5 1308.5Q1181 1293 1104.0 1286.5Q1027 1280 960 1280Q892 1280 815.5 1286.5Q739 1293 662.5 1308.5Q586 1324 514.0 1349.0Q442 1374 384 1411ZM384 1600Q384 1580 397.0 1565.0Q410 1550 424 1537Q468 1499 536.0 1474.0Q604 1449 679.5 1434.5Q755 1420 829.5 1414.0Q904 1408 960 1408Q1020 1408 1093.0 1414.0Q1166 1420 1239.0 1434.5Q1312 1449 1379.0 1474.0Q1446 1499 1495 1537Q1509 1548 1522.5 1564.0Q1536 1580 1536 1600Q1536 1620 1522.5 1636.0Q1509 1652 1495 1663Q1447 1701 1380.0 1726.0Q1313 1751 1239.5 1765.5Q1166 1780 1093.0 1786.0Q1020 1792 960 1792Q904 1792 829.5 1786.0Q755 1780 679.5 1765.5Q604 1751 535.5 1726.0Q467 1701 424 1663Q410 1650 397.0 1635.0Q384 1620 384 1600ZM2048 448Q2048 355 2013.0 273.5Q1978 192 1917.0 131.0Q1856 70 1774.5 35.0Q1693 0 1600 0Q1507 0 1425.5 35.0Q1344 70 1283.0 131.0Q1222 192 1187.0 273.5Q1152 355 1152 448Q1152 539 1187.0 622.0Q1222 705 1288 768H1152V896H1536V512H1408V703Q1348 656 1314.0 590.5Q1280 525 1280 448Q1280 381 1305.0 323.0Q1330 265 1373.5 221.5Q1417 178 1475.0 153.0Q1533 128 1600 128Q1666 128 1724.5 153.0Q1783 178 1826.5 221.5Q1870 265 1895.0 323.5Q1920 382 1920 448Q1920 498 1904.5 545.0Q1889 592 1861.0 631.5Q1833 671 1793.5 701.5Q1754 732 1707 748L1749 869Q1816 845 1871.0 803.0Q1926 761 1965.5 706.0Q2005 651 2026.5 585.0Q2048 519 2048 448Z" transform="scale(1,-1)"/>
</svg>