<?xml version="1.0" encoding="UTF-8"?>
<svg xmlns="http://www.w3.org/2000/svg" viewBox="256 -2048 1536 2048">
  <path d="M1792 1792V0H256V1792H768Q768 1845 788.0 1891.5Q808 1938 843.0 1973.0Q878 2008 924.5 2028.0Q971 2048 1024 2048Q1077 2048 1123.5 2028.0Q1170 2008 1205.0 1973.0Q1240 1938 1260.0 1891.5Q1280 1845 1280 1792ZM640 1664V1536H1408V1664H1152V1792Q1152 1819 1142.0 1842.0Q1132 1865 1114.5 1882.5Q1097 1900 1074.0 1910.0Q1051 1920 1024 1920Q997 1920 974.0 1910.0Q951 1900 933.5 1882.5Q916 1865 906.0 1842.0Q896 1819 896 1792V1664ZM1664 1664H1536V1408H512V1664H384V128H1664ZM1259 1329Q1301 1329 1337.5 1313.5Q1374 1298 1401.0 1271.5Q1428 1245 1443.5 1209.0Q1459 1173 1459 1131Q1459 1092 1444.0 1055.0Q1429 1018 1401 990L875 459L517 391L592 742L1118 1272Q1146 1300 1183.0 1314.5Q1220 1329 1259 1329ZM1310 1080Q1331 1103 1331 1131Q1331 1162 1310.5 1181.5Q1290 1201 1259 1201Q1245 1201 1232.0 1196.5Q1219 1192 1209 1182L710 679L683 553L812 578Z" transform="scale(1,-1)"/>
</svg>