<?xml version="1.0" encoding="UTF-8"?>
<svg xmlns="http://www.w3.org/2000/svg" viewBox="256 -2048 1408 1920">
  <path d="M1115 2048 1664 1499V1408H1024V2048ZM1152 1536H1445L1152 1829ZM1536 1152V1280H1664V1152ZM1536 896V1024H1664V896ZM1536 640V768H1664V640ZM1536 384V512H1664V384ZM1536 128V256H1664V128ZM1280 128V256H1408V128ZM1024 128V256H1152V128ZM768 128V256H896V128ZM512 128V256H640V128ZM256 128V256H384V128ZM256 1152V1280H384V1152ZM256 1408V1536H384V1408ZM256 1664V1792H384V1664ZM256 1920V2048H384V1920ZM512 1920V2048H640V1920ZM768 1920V2048H896V1920ZM256 896V1024H384V896ZM256 640V768H384V640ZM256 384V512H384V384Z" transform="scale(1,-1)"/>
</svg>