<?xml version="1.0" encoding="UTF-8"?>
<svg xmlns="http://www.w3.org/2000/svg" viewBox="0 -2048 2048 1920">
  <path d="M768 1280H896V1152H768ZM1152 512H1280V384H1152ZM1536 1280H1664V1152H1536ZM1152 1280H1280V1152H1152ZM768 1024H896V896H768ZM384 1024H512V896H384ZM1536 1024H1664V896H1536ZM1152 1024H1280V896H1152ZM768 768H896V640H768ZM384 768H512V640H384ZM1536 768H1664V640H1536ZM1152 768H1280V640H1152ZM768 512H896V384H768ZM384 512H512V384H384ZM2048 1920V128H0V1920H384V2048H512V1920H1536V2048H1664V1920ZM128 1792V1536H1920V1792H1664V1664H1536V1792H512V1664H384V1792ZM1920 256V1408H128V256Z" transform="scale(1,-1)"/>
</svg>