<?xml version="1.0" encoding="UTF-8"?>
<svg xmlns="http://www.w3.org/2000/svg" viewBox="0 -2048 2048 2048">
  <path d="M1472 1152Q1591 1152 1696.0 1106.5Q1801 1061 1879.0 983.0Q1957 905 2002.5 800.0Q2048 695 2048 576Q2048 457 2002.5 352.0Q1957 247 1879.0 169.0Q1801 91 1696.0 45.5Q1591 0 1472 0Q1353 0 1248.0 45.5Q1143 91 1065.0 169.0Q987 247 941.5 352.0Q896 457 896 576Q896 695 941.5 800.0Q987 905 1065.0 983.0Q1143 1061 1248.0 1106.5Q1353 1152 1472 1152ZM1472 128Q1565 128 1646.5 163.5Q1728 199 1788.5 259.5Q1849 320 1884.5 401.5Q1920 483 1920 576Q1920 669 1884.5 750.5Q1849 832 1788.5 892.5Q1728 953 1646.5 988.5Q1565 1024 1472 1024Q1379 1024 1297.5 988.5Q1216 953 1155.5 892.5Q1095 832 1059.5 750.5Q1024 669 1024 576Q1024 483 1059.5 401.5Q1095 320 1155.5 259.5Q1216 199 1297.5 163.5Q1379 128 1472 128ZM1536 640H1728V512H1408V896H1536ZM128 1408H0V1536H128ZM128 1152H0V1280H128ZM128 896H0V1024H128ZM128 640H0V768H128ZM128 384H0V512H128ZM128 256V128H0V256ZM128 128H256V0H128ZM384 128H512V0H384ZM640 128H768V0H640ZM128 1920H0V2048H128ZM384 1920H256V2048H384ZM640 1920H512V2048H640ZM896 1920H768V2048H896ZM1152 1920H1024V2048H1152ZM1408 1920H1280V2048H1408ZM1408 1792V1920H1536V1792ZM1536 1536H1408V1664H1536ZM128 1664H0V1792H128ZM1408 1408H1536V1280H1408Z" transform="scale(1,-1)"/>
</svg>