<?xml version="1.0" encoding="UTF-8"?>
<svg xmlns="http://www.w3.org/2000/svg" viewBox="640 -2048 896 2048">
  <path d="M1536 1664V448Q1536 355 1500.5 273.5Q1465 192 1404.5 131.5Q1344 71 1262.5 35.5Q1181 0 1088 0Q995 0 913.5 35.5Q832 71 771.5 131.5Q711 192 675.5 273.5Q640 355 640 448V1728Q640 1794 665.5 1852.0Q691 1910 734.5 1953.5Q778 1997 836.0 2022.5Q894 2048 960 2048Q1026 2048 1084.0 2022.5Q1142 1997 1185.5 1953.5Q1229 1910 1254.5 1852.0Q1280 1794 1280 1728V448Q1280 408 1265.0 373.0Q1250 338 1224.0 312.0Q1198 286 1163.0 271.0Q1128 256 1088 256Q1048 256 1013.0 271.0Q978 286 952.0 312.0Q926 338 911.0 373.0Q896 408 896 448V1536H1024V448Q1024 422 1043.0 403.0Q1062 384 1088 384Q1114 384 1133.0 403.0Q1152 422 1152 448V1728Q1152 1768 1137.0 1803.0Q1122 1838 1096.0 1864.0Q1070 1890 1035.0 1905.0Q1000 1920 960 1920Q920 1920 885.0 1905.0Q850 1890 824.0 1864.0Q798 1838 783.0 1803.0Q768 1768 768 1728V448Q768 382 793.5 324.0Q819 266 862.5 222.5Q906 179 964.0 153.5Q1022 128 1088 128Q1154 128 1212.0 153.5Q1270 179 1313.5 222.5Q1357 266 1382.5 324.0Q1408 382 1408 448V1664Z" transform="scale(1,-1)"/>
</svg>