<?xml version="1.0" encoding="UTF-8"?>
<svg xmlns="http://www.w3.org/2000/svg" viewBox="0 -1920 2048 1536">
  <path d="M2048 1664V384H0V1664H640V1792Q640 1819 650.0 1842.0Q660 1865 677.5 1882.5Q695 1900 718.0 1910.0Q741 1920 768 1920H1280Q1307 1920 1330.0 1910.0Q1353 1900 1370.5 1882.5Q1388 1865 1398.0 1842.0Q1408 1819 1408 1792V1664ZM768 1664H1280V1792H768ZM128 1536V1351L768 1032V1152H1280V1032L1920 1351V1536ZM896 1024V896H1152V1024ZM1920 512V1209L1280 888V768H768V888L128 1209V512Z" transform="scale(1,-1)"/>
</svg>