<?xml version="1.0" encoding="UTF-8"?>
<svg xmlns="http://www.w3.org/2000/svg" viewBox="0 -1602 2048 1282">
  <path d="M0 1280Q14 1280 38.5 1279.0Q63 1278 86 1278Q97 1278 106.5 1278.5Q116 1279 122 1280L1920 1600Q1926 1601 1936.0 1601.5Q1946 1602 1958 1602Q1982 1602 2008.0 1601.0Q2034 1600 2048 1600V448Q2034 448 2009.0 447.5Q1984 447 1960 447Q1943 447 1930.0 447.0Q1917 447 1909 449L1146 585Q1136 528 1107.5 479.0Q1079 430 1037.0 395.0Q995 360 942.5 340.0Q890 320 832 320Q766 320 707.5 345.0Q649 370 605.5 413.5Q562 457 537.0 515.5Q512 574 512 640Q512 668 518 697L122 768Q114 769 104.5 769.5Q95 770 84 770Q62 770 39.5 769.0Q17 768 0 768ZM832 448Q867 448 899.0 460.0Q931 472 956.0 493.5Q981 515 998.0 544.0Q1015 573 1021 608L643 675Q640 657 640 640Q640 600 655.0 565.0Q670 530 696.0 504.0Q722 478 757.0 463.0Q792 448 832 448ZM1920 1471 128 1152V896Q135 896 139 895L1920 577Z" transform="scale(1,-1)"/>
</svg>