<?xml version="1.0" encoding="UTF-8"?>
<svg xmlns="http://www.w3.org/2000/svg" viewBox="0 -2048 2048 2048">
  <path d="M1930 1828Q1956 1783 1977.5 1742.0Q1999 1701 2015.0 1659.0Q2031 1617 2039.5 1571.5Q2048 1526 2048 1472Q2048 1393 2027.5 1319.5Q2007 1246 1969.5 1182.0Q1932 1118 1879.0 1065.0Q1826 1012 1762.0 974.5Q1698 937 1624.5 916.5Q1551 896 1472 896Q1449 896 1425.5 898.0Q1402 900 1379 904L573 98Q525 50 463.5 25.0Q402 0 335 0Q266 0 205.0 26.5Q144 53 98.5 98.5Q53 144 26.5 205.0Q0 266 0 335Q0 402 25.0 463.5Q50 525 98 573L904 1379Q900 1402 898.0 1425.5Q896 1449 896 1472Q896 1551 916.5 1624.5Q937 1698 974.5 1762.0Q1012 1826 1065.0 1879.0Q1118 1932 1182.0 1969.5Q1246 2007 1319.5 2027.5Q1393 2048 1472 2048Q1526 2048 1571.5 2039.5Q1617 2031 1659.0 2015.0Q1701 1999 1742.0 1977.5Q1783 1956 1828 1930L1434 1536L1536 1434ZM1472 1024Q1565 1024 1646.5 1059.5Q1728 1095 1788.5 1155.5Q1849 1216 1884.5 1297.5Q1920 1379 1920 1472Q1920 1545 1896 1613L1536 1254L1254 1536L1613 1896Q1545 1920 1472 1920Q1379 1920 1297.5 1884.5Q1216 1849 1155.5 1788.5Q1095 1728 1059.5 1646.5Q1024 1565 1024 1472Q1024 1437 1030.0 1404.0Q1036 1371 1044 1338L189 482Q160 453 144.0 415.0Q128 377 128 335Q128 293 144.5 255.0Q161 217 189.0 189.0Q217 161 255.0 144.5Q293 128 335 128Q377 128 415.0 144.0Q453 160 482 189L1338 1044Q1371 1036 1404.0 1030.0Q1437 1024 1472 1024Z" transform="scale(1,-1)"/>
</svg>