<?xml version="1.0" encoding="UTF-8"?>
<svg xmlns="http://www.w3.org/2000/svg" viewBox="128 -2048 1792 2048">
  <path d="M960 896H1088V768H960ZM1024 1664Q1077 1664 1123.5 1644.0Q1170 1624 1205.0 1589.0Q1240 1554 1260.0 1507.5Q1280 1461 1280 1408Q1280 1361 1266.0 1326.5Q1252 1292 1230.5 1264.0Q1209 1236 1184.0 1213.5Q1159 1191 1137.5 1169.0Q1116 1147 1102.0 1124.0Q1088 1101 1088 1072V1024H960V1072Q960 1118 974.0 1153.0Q988 1188 1009.5 1216.0Q1031 1244 1056.0 1266.5Q1081 1289 1102.5 1311.0Q1124 1333 1138.0 1356.0Q1152 1379 1152 1408Q1152 1435 1142.0 1458.0Q1132 1481 1114.5 1498.5Q1097 1516 1074.0 1526.0Q1051 1536 1024 1536Q997 1536 974.0 1526.0Q951 1516 933.5 1498.5Q916 1481 906.0 1458.0Q896 1435 896 1408H768Q768 1461 788.0 1507.5Q808 1554 843.0 1589.0Q878 1624 924.5 1644.0Q971 1664 1024 1664ZM1408 809Q1527 753 1622.0 669.0Q1717 585 1783.0 480.0Q1849 375 1884.5 253.0Q1920 131 1920 0H1792Q1792 124 1756.5 238.5Q1721 353 1655.0 448.0Q1589 543 1494.0 615.0Q1399 687 1280 727V967Q1339 1001 1386.5 1048.5Q1434 1096 1467.0 1153.0Q1500 1210 1518.0 1274.5Q1536 1339 1536 1408Q1536 1514 1495.5 1607.0Q1455 1700 1385.5 1769.5Q1316 1839 1223.0 1879.5Q1130 1920 1024 1920Q918 1920 825.0 1879.5Q732 1839 662.5 1769.5Q593 1700 552.5 1607.0Q512 1514 512 1408Q512 1339 530.0 1274.5Q548 1210 581.0 1153.0Q614 1096 661.5 1048.5Q709 1001 768 967V725Q649 684 554.0 613.0Q459 542 393.0 447.5Q327 353 291.5 239.0Q256 125 256 0H128Q128 131 163.5 253.0Q199 375 265.0 480.0Q331 585 426.0 669.0Q521 753 640 809V901Q580 946 532.5 1002.5Q485 1059 452.0 1124.0Q419 1189 401.5 1261.0Q384 1333 384 1408Q384 1496 407.0 1578.0Q430 1660 471.5 1731.0Q513 1802 571.5 1860.5Q630 1919 701.0 1960.5Q772 2002 854.0 2025.0Q936 2048 1024 2048Q1112 2048 1194.0 2025.0Q1276 2002 1347.0 1960.5Q1418 1919 1476.5 1860.5Q1535 1802 1576.5 1731.0Q1618 1660 1641.0 1578.0Q1664 1496 1664 1408Q1664 1333 1646.5 1261.0Q1629 1189 1596.0 1124.0Q1563 1059 1515.5 1002.5Q1468 946 1408 901Z" transform="scale(1,-1)"/>
</svg>