<?xml version="1.0" encoding="UTF-8"?>
<svg xmlns="http://www.w3.org/2000/svg" viewBox="128 -2048 1792 1920">
  <path d="M1632 586Q1698 553 1751.0 505.0Q1804 457 1841.5 398.0Q1879 339 1899.5 270.0Q1920 201 1920 128H1792Q1792 207 1762.0 277.0Q1732 347 1679.5 399.5Q1627 452 1557.0 482.0Q1487 512 1408 512Q1328 512 1258.5 482.0Q1189 452 1136.5 399.5Q1084 347 1054.0 277.0Q1024 207 1024 128H896Q896 201 916.5 270.0Q937 339 974.5 398.0Q1012 457 1065.0 505.0Q1118 553 1184 586Q1109 640 1066.5 721.0Q1024 802 1024 896Q1024 975 994.0 1045.0Q964 1115 911.5 1167.5Q859 1220 789.0 1250.0Q719 1280 640 1280Q560 1280 490.5 1250.0Q421 1220 368.5 1167.5Q316 1115 286.0 1045.0Q256 975 256 896H128Q128 969 148.5 1038.0Q169 1107 206.5 1166.0Q244 1225 297.0 1273.0Q350 1321 416 1354Q341 1408 298.5 1489.0Q256 1570 256 1664Q256 1743 286.0 1813.0Q316 1883 368.5 1935.5Q421 1988 490.5 2018.0Q560 2048 640 2048Q719 2048 789.0 2018.0Q859 1988 911.5 1935.5Q964 1883 994.0 1813.0Q1024 1743 1024 1664Q1024 1570 981.5 1489.0Q939 1408 864 1354Q940 1316 1000.0 1256.0Q1060 1196 1098 1120Q1152 1195 1233.0 1237.5Q1314 1280 1408 1280Q1487 1280 1557.0 1250.0Q1627 1220 1679.5 1167.5Q1732 1115 1762.0 1045.0Q1792 975 1792 896Q1792 802 1749.5 721.0Q1707 640 1632 586ZM640 1408Q693 1408 739.5 1428.0Q786 1448 821.0 1483.0Q856 1518 876.0 1564.5Q896 1611 896 1664Q896 1717 876.0 1763.5Q856 1810 821.0 1845.0Q786 1880 739.5 1900.0Q693 1920 640 1920Q587 1920 540.5 1900.0Q494 1880 459.0 1845.0Q424 1810 404.0 1763.5Q384 1717 384 1664Q384 1611 404.0 1564.5Q424 1518 459.0 1483.0Q494 1448 540.5 1428.0Q587 1408 640 1408ZM1408 640Q1461 640 1507.5 660.0Q1554 680 1589.0 715.0Q1624 750 1644.0 796.5Q1664 843 1664 896Q1664 949 1644.0 995.5Q1624 1042 1589.0 1077.0Q1554 1112 1507.5 1132.0Q1461 1152 1408 1152Q1355 1152 1308.5 1132.0Q1262 1112 1227.0 1077.0Q1192 1042 1172.0 995.5Q1152 949 1152 896Q1152 843 1172.0 796.5Q1192 750 1227.0 715.0Q1262 680 1308.5 660.0Q1355 640 1408 640ZM1536 1792H1152V1920H1664V1408H1536Z" transform="scale(1,-1)"/>
</svg>