<?xml version="1.0" encoding="UTF-8"?>
<svg xmlns="http://www.w3.org/2000/svg" viewBox="128 -1920 1792 1792">
  <path d="M1920 1920V128H1536Q1536 237 1497.0 330.5Q1458 424 1389.0 493.0Q1320 562 1226.5 601.0Q1133 640 1024 640Q917 640 823.5 600.0Q730 560 661.0 491.0Q592 422 552.0 328.5Q512 235 512 128H128V1920ZM1792 1792H256V256H396Q411 331 443.5 400.5Q476 470 523.0 529.0Q570 588 630.0 635.0Q690 682 761 713Q703 747 657.0 794.5Q611 842 578.5 899.5Q546 957 529.0 1021.0Q512 1085 512 1152Q512 1258 552.0 1351.5Q592 1445 661.5 1514.5Q731 1584 824.5 1624.0Q918 1664 1024 1664Q1130 1664 1223.5 1624.0Q1317 1584 1386.5 1514.5Q1456 1445 1496.0 1351.5Q1536 1258 1536 1152Q1536 1085 1519.0 1021.5Q1502 958 1470.0 901.0Q1438 844 1392.0 796.0Q1346 748 1289 714Q1360 682 1420.0 635.5Q1480 589 1526.5 530.0Q1573 471 1605.0 401.5Q1637 332 1652 256H1792ZM1024 768Q1103 768 1173.0 798.5Q1243 829 1295.0 881.0Q1347 933 1377.5 1003.0Q1408 1073 1408 1152Q1408 1231 1377.5 1301.0Q1347 1371 1295.0 1423.0Q1243 1475 1173.0 1505.5Q1103 1536 1024 1536Q945 1536 875.0 1505.5Q805 1475 753.0 1423.0Q701 1371 670.5 1301.0Q640 1231 640 1152Q640 1073 670.5 1003.0Q701 933 753.0 881.0Q805 829 875.0 798.5Q945 768 1024 768Z" transform="scale(1,-1)"/>
</svg>