<?xml version="1.0" encoding="UTF-8"?>
<svg xmlns="http://www.w3.org/2000/svg" viewBox="0 -2048 2048 2048">
  <path d="M640 1536V1833Q508 1770 404.0 1669.0Q300 1568 232 1439L113 1488Q183 1625 289.5 1735.0Q396 1845 530 1920H256V2048H768V1536ZM1816 1439Q1753 1560 1656.5 1656.5Q1560 1753 1439 1816L1488 1934Q1632 1860 1746.5 1746.0Q1861 1632 1935 1488ZM128 1024Q128 956 138.0 889.0Q148 822 169 757L51 708Q0 861 0 1024Q0 1187 51 1340L170 1291Q150 1226 139.0 1159.0Q128 1092 128 1024ZM1920 1024Q1920 1092 1909.0 1159.0Q1898 1226 1878 1291L1997 1340Q2048 1187 2048 1024Q2048 861 1997 708L1879 757Q1900 822 1910.0 889.0Q1920 956 1920 1024ZM1024 128Q1092 128 1159.0 138.0Q1226 148 1291 169L1341 51Q1188 0 1024 0Q860 0 707 51L757 169Q822 148 889.0 138.0Q956 128 1024 128ZM231 609Q294 488 391.0 391.0Q488 294 609 231L560 112Q416 187 301.5 301.5Q187 416 112 560ZM1115 1024 2029 109 1939 19 1024 933V512H896V1152H1536V1024Z" transform="scale(1,-1)"/>
</svg>