<?xml version="1.0" encoding="UTF-8"?>
<svg xmlns="http://www.w3.org/2000/svg" viewBox="128 -1920 1792 1792">
  <path d="M1696 674Q1732 660 1771.5 639.5Q1811 619 1844.0 591.5Q1877 564 1898.5 528.0Q1920 492 1920 448Q1920 398 1892.5 359.0Q1865 320 1824.5 290.5Q1784 261 1737.0 240.0Q1690 219 1651 206Q1587 184 1516.5 169.0Q1446 154 1373.0 145.0Q1300 136 1227.5 132.0Q1155 128 1088 128Q1020 128 948.0 132.0Q876 136 803.0 145.0Q730 154 659.5 169.0Q589 184 525 206Q486 219 439.0 240.0Q392 261 351.5 290.5Q311 320 283.5 359.0Q256 398 256 448Q256 499 284.5 538.5Q313 578 352 606Q316 620 276.5 640.5Q237 661 204.0 688.5Q171 716 149.5 752.0Q128 788 128 832Q128 876 149.5 912.0Q171 948 204.0 975.5Q237 1003 276.5 1023.5Q316 1044 352 1058Q313 1086 284.5 1125.5Q256 1165 256 1216Q256 1267 284.5 1306.5Q313 1346 352 1374Q316 1388 276.5 1408.5Q237 1429 204.0 1456.5Q171 1484 149.5 1520.0Q128 1556 128 1600Q128 1650 155.5 1689.0Q183 1728 223.5 1757.5Q264 1787 311.0 1807.5Q358 1828 397 1842Q461 1864 531.5 1879.0Q602 1894 675.0 1903.0Q748 1912 820.0 1916.0Q892 1920 960 1920Q1027 1920 1099.5 1916.0Q1172 1912 1245.0 1903.0Q1318 1894 1388.5 1879.0Q1459 1864 1523 1842Q1562 1828 1609.0 1807.5Q1656 1787 1696.5 1757.5Q1737 1728 1764.5 1689.0Q1792 1650 1792 1600Q1792 1549 1763.5 1509.5Q1735 1470 1696 1442Q1732 1428 1771.5 1407.5Q1811 1387 1844.0 1359.5Q1877 1332 1898.5 1296.0Q1920 1260 1920 1216Q1920 1172 1898.5 1136.0Q1877 1100 1844.0 1072.5Q1811 1045 1771.5 1024.5Q1732 1004 1696 990Q1735 962 1763.5 922.5Q1792 883 1792 832Q1792 781 1763.5 741.5Q1735 702 1696 674ZM1792 1216Q1792 1233 1775.5 1249.5Q1759 1266 1733.5 1281.0Q1708 1296 1677.0 1309.5Q1646 1323 1617.0 1333.0Q1588 1343 1563.5 1350.0Q1539 1357 1528 1360L1523 1358Q1459 1336 1388.5 1321.0Q1318 1306 1245.0 1297.0Q1172 1288 1099.5 1284.0Q1027 1280 960 1280Q851 1280 742.5 1290.0Q634 1300 528 1323Q516 1318 492.0 1307.0Q468 1296 444.0 1281.0Q420 1266 402.0 1249.0Q384 1232 384 1216Q384 1202 397.5 1188.5Q411 1175 420 1167Q453 1139 504.0 1117.5Q555 1096 615.0 1080.0Q675 1064 740.5 1053.0Q806 1042 869.0 1035.5Q932 1029 988.5 1026.5Q1045 1024 1088 1024Q1131 1024 1187.5 1026.5Q1244 1029 1307.0 1035.5Q1370 1042 1435.5 1053.0Q1501 1064 1561.0 1080.0Q1621 1096 1671.5 1117.5Q1722 1139 1756 1167Q1765 1175 1778.5 1188.5Q1792 1202 1792 1216ZM256 1600Q256 1586 269.0 1572.5Q282 1559 292 1551Q326 1523 377.0 1501.0Q428 1479 487.5 1463.0Q547 1447 612.0 1436.5Q677 1426 740.0 1419.5Q803 1413 859.5 1410.5Q916 1408 960 1408Q1003 1408 1060.0 1410.5Q1117 1413 1180.0 1419.5Q1243 1426 1308.0 1436.5Q1373 1447 1432.5 1463.0Q1492 1479 1543.0 1500.5Q1594 1522 1628 1551Q1638 1559 1651.0 1572.5Q1664 1586 1664 1600Q1664 1614 1651.0 1627.5Q1638 1641 1628 1649Q1594 1677 1543.0 1699.0Q1492 1721 1432.5 1737.0Q1373 1753 1308.0 1763.5Q1243 1774 1180.0 1780.5Q1117 1787 1060.0 1789.5Q1003 1792 960 1792Q917 1792 860.0 1789.5Q803 1787 740.0 1780.5Q677 1774 612.0 1763.5Q547 1753 487.5 1737.0Q428 1721 377.0 1699.0Q326 1677 292 1649Q282 1641 269.0 1627.5Q256 1614 256 1600ZM256 832Q256 818 269.5 804.5Q283 791 292 783Q325 755 376.0 733.5Q427 712 487.0 696.0Q547 680 612.5 669.0Q678 658 741.0 651.5Q804 645 860.5 642.5Q917 640 960 640Q1003 640 1059.5 642.5Q1116 645 1179.0 651.5Q1242 658 1307.5 669.0Q1373 680 1433.0 696.0Q1493 712 1543.5 733.5Q1594 755 1628 783Q1637 791 1650.5 804.5Q1664 818 1664 832Q1664 848 1646.0 865.0Q1628 882 1604.0 897.0Q1580 912 1556.0 923.0Q1532 934 1520 939Q1414 916 1305.5 906.0Q1197 896 1088 896Q1020 896 948.0 900.0Q876 904 803.0 913.0Q730 922 659.5 937.0Q589 952 525 974L520 976Q508 973 484.0 966.0Q460 959 431.0 949.0Q402 939 371.0 925.5Q340 912 314.5 897.0Q289 882 272.5 865.5Q256 849 256 832ZM1088 256Q1131 256 1187.5 258.5Q1244 261 1307.0 267.5Q1370 274 1435.5 285.0Q1501 296 1561.0 312.0Q1621 328 1671.5 349.5Q1722 371 1756 399Q1765 407 1778.5 420.5Q1792 434 1792 448Q1792 465 1775.5 481.5Q1759 498 1733.5 513.0Q1708 528 1677.0 541.5Q1646 555 1617.0 565.0Q1588 575 1563.5 582.0Q1539 589 1528 592L1523 590Q1459 568 1388.5 553.0Q1318 538 1245.0 529.0Q1172 520 1099.5 516.0Q1027 512 960 512Q851 512 742.5 522.0Q634 532 528 555Q516 550 492.0 539.0Q468 528 444.0 513.0Q420 498 402.0 481.0Q384 464 384 448Q384 434 397.5 420.5Q411 407 420 399Q453 371 504.0 349.5Q555 328 615.0 312.0Q675 296 740.5 285.0Q806 274 869.0 267.5Q932 261 988.5 258.5Q1045 256 1088 256Z" transform="scale(1,-1)"/>
</svg>