<?xml version="1.0" encoding="UTF-8"?>
<svg xmlns="http://www.w3.org/2000/svg" viewBox="0 -1792 2048 1536">
  <path d="M1792 1152H1152V1280H1792ZM1536 768H1152V896H1536ZM2048 1792V256H0V1792ZM1920 1664H128V384H1920ZM640 896Q587 896 540.5 876.0Q494 856 459.0 821.0Q424 786 404.0 739.5Q384 693 384 640H256Q256 692 270.0 741.5Q284 791 309.5 834.5Q335 878 371.5 914.0Q408 950 454 976Q421 1011 402.5 1057.0Q384 1103 384 1152Q384 1205 404.0 1251.5Q424 1298 459.0 1333.0Q494 1368 540.5 1388.0Q587 1408 640 1408Q693 1408 739.5 1388.0Q786 1368 821.0 1333.0Q856 1298 876.0 1251.5Q896 1205 896 1152Q896 1103 877.5 1057.0Q859 1011 826 976Q872 950 908.5 914.0Q945 878 970.5 834.5Q996 791 1010.0 741.5Q1024 692 1024 640H896Q896 693 876.0 739.5Q856 786 821.0 821.0Q786 856 739.5 876.0Q693 896 640 896ZM512 1152Q512 1125 522.0 1102.0Q532 1079 549.5 1061.5Q567 1044 590.0 1034.0Q613 1024 640 1024Q667 1024 690.0 1034.0Q713 1044 730.5 1061.5Q748 1079 758.0 1102.0Q768 1125 768 1152Q768 1179 758.0 1202.0Q748 1225 730.5 1242.5Q713 1260 690.0 1270.0Q667 1280 640 1280Q613 1280 590.0 1270.0Q567 1260 549.5 1242.5Q532 1225 522.0 1202.0Q512 1179 512 1152Z" transform="scale(1,-1)"/>
</svg>