<?xml version="1.0" encoding="UTF-8"?>
<svg xmlns="http://www.w3.org/2000/svg" viewBox="128 -2048 1920 2048">
  <path d="M1792 1055Q1852 1014 1899.5 961.5Q1947 909 1980.0 847.5Q2013 786 2030.5 717.0Q2048 648 2048 576Q2048 457 2002.5 352.0Q1957 247 1879.0 169.0Q1801 91 1696.0 45.5Q1591 0 1472 0Q1381 0 1296.0 27.5Q1211 55 1139.5 105.5Q1068 156 1013.5 227.0Q959 298 929 384H128V1920H384V2048H512V1920H1408V2048H1536V1920H1792ZM256 1792V1536H1664V1792H1536V1664H1408V1792H512V1664H384V1792ZM899 512Q896 543 896 576Q896 662 920.5 743.0Q945 824 993 896H896V1024H1024V938Q1065 989 1115.5 1028.5Q1166 1068 1223.5 1095.5Q1281 1123 1344.0 1137.5Q1407 1152 1472 1152Q1572 1152 1664 1119V1408H256V512ZM1472 128Q1565 128 1646.5 163.5Q1728 199 1788.5 259.5Q1849 320 1884.5 401.5Q1920 483 1920 576Q1920 669 1884.5 750.5Q1849 832 1788.5 892.5Q1728 953 1646.5 988.5Q1565 1024 1472 1024Q1379 1024 1297.5 988.5Q1216 953 1155.5 892.5Q1095 832 1059.5 750.5Q1024 669 1024 576Q1024 483 1059.5 401.5Q1095 320 1155.5 259.5Q1216 199 1297.5 163.5Q1379 128 1472 128ZM1536 640H1728V512H1408V896H1536ZM384 1024H512V896H384ZM640 1024H768V896H640ZM640 1280H768V1152H640ZM384 768H512V640H384ZM640 768H768V640H640ZM1024 1152H896V1280H1024ZM1280 1152H1152V1280H1280ZM1536 1152H1408V1280H1536Z" transform="scale(1,-1)"/>
</svg>