<?xml version="1.0" encoding="UTF-8"?>
<svg xmlns="http://www.w3.org/2000/svg" viewBox="128 -2048 1920 2048">
  <path d="M1600 896Q1693 896 1774.5 861.0Q1856 826 1917.0 765.0Q1978 704 2013.0 622.5Q2048 541 2048 448Q2048 355 2013.0 273.5Q1978 192 1917.0 131.0Q1856 70 1774.5 35.0Q1693 0 1600 0Q1507 0 1425.5 35.0Q1344 70 1283.0 131.0Q1222 192 1187.0 273.5Q1152 355 1152 448Q1152 541 1187.0 622.5Q1222 704 1283.0 765.0Q1344 826 1425.5 861.0Q1507 896 1600 896ZM1280 448Q1280 382 1305.0 323.5Q1330 265 1373.5 221.5Q1417 178 1475.5 153.0Q1534 128 1600 128Q1647 128 1692.0 141.5Q1737 155 1776 181L1333 624Q1307 585 1293.5 540.0Q1280 495 1280 448ZM1867 272Q1893 311 1906.5 356.0Q1920 401 1920 448Q1920 514 1894.5 572.0Q1869 630 1825.5 673.5Q1782 717 1724.0 742.5Q1666 768 1600 768Q1553 768 1508.0 754.5Q1463 741 1424 715ZM1084 128Q1127 57 1190 0H128V2048H1243L1792 1499V1024Q1761 1035 1729.0 1042.0Q1697 1049 1664 1052V1408H1152V1920H256V128ZM1280 1536H1573L1280 1829Z" transform="scale(1,-1)"/>
</svg>