<?xml version="1.0" encoding="UTF-8"?>
<svg xmlns="http://www.w3.org/2000/svg" viewBox="128 -2048 1664 2048">
  <path d="M1792 1664H1664V192Q1664 152 1649.0 117.0Q1634 82 1608.0 56.0Q1582 30 1547.0 15.0Q1512 0 1472 0H448Q408 0 373.0 15.0Q338 30 312.0 56.0Q286 82 271.0 117.0Q256 152 256 192V1664H128V1792H640V1920Q640 1947 650.0 1970.0Q660 1993 677.5 2010.5Q695 2028 718.0 2038.0Q741 2048 768 2048H1152Q1179 2048 1202.0 2038.0Q1225 2028 1242.5 2010.5Q1260 1993 1270.0 1970.0Q1280 1947 1280 1920V1792H1792ZM768 1792H1152V1920H768ZM1536 1664H384V192Q384 166 403.0 147.0Q422 128 448 128H1472Q1498 128 1517.0 147.0Q1536 166 1536 192ZM768 384H640V1408H768ZM1024 384H896V1408H1024ZM1280 384H1152V1408H1280Z" transform="scale(1,-1)"/>
</svg>