<?xml version="1.0" encoding="UTF-8"?>
<svg xmlns="http://www.w3.org/2000/svg" viewBox="0 -2048 2048 2048">
  <path d="M1024 2048Q1165 2048 1296.0 2011.5Q1427 1975 1541.0 1908.5Q1655 1842 1748.5 1748.5Q1842 1655 1908.5 1541.0Q1975 1427 2011.5 1296.0Q2048 1165 2048 1024Q2048 883 2011.5 752.0Q1975 621 1908.5 507.0Q1842 393 1748.5 299.5Q1655 206 1541.0 139.5Q1427 73 1296.0 36.5Q1165 0 1024 0Q883 0 752.0 36.5Q621 73 507.0 139.5Q393 206 299.5 299.5Q206 393 139.5 507.0Q73 621 36.5 751.5Q0 882 0 1024Q0 1165 36.5 1296.0Q73 1427 139.5 1541.0Q206 1655 299.5 1748.5Q393 1842 507.0 1908.5Q621 1975 751.5 2011.5Q882 2048 1024 2048ZM1024 128Q1147 128 1261.5 160.0Q1376 192 1475.5 250.5Q1575 309 1657.0 391.0Q1739 473 1797.5 572.5Q1856 672 1888.0 786.0Q1920 900 1920 1024Q1920 1147 1888.0 1261.5Q1856 1376 1797.5 1475.5Q1739 1575 1657.0 1657.0Q1575 1739 1475.5 1797.5Q1376 1856 1261.5 1888.0Q1147 1920 1024 1920Q901 1920 786.5 1888.0Q672 1856 572.5 1797.5Q473 1739 391.0 1657.0Q309 1575 250.5 1475.5Q192 1376 160.0 1261.5Q128 1147 128 1024Q128 901 160.0 786.5Q192 672 250.5 572.5Q309 473 391.0 391.0Q473 309 572.5 250.5Q672 192 786.0 160.0Q900 128 1024 128ZM1408 1024Q1461 1024 1507.5 1004.0Q1554 984 1589.0 949.0Q1624 914 1644.0 867.5Q1664 821 1664 768Q1664 715 1644.0 668.5Q1624 622 1589.0 587.0Q1554 552 1507.5 532.0Q1461 512 1408 512Q1355 512 1308.5 532.0Q1262 552 1227.0 587.0Q1192 622 1172.0 668.5Q1152 715 1152 768Q1152 821 1172.0 867.5Q1192 914 1227.0 949.0Q1262 984 1308.5 1004.0Q1355 1024 1408 1024ZM1408 640Q1435 640 1458.0 650.0Q1481 660 1498.5 677.5Q1516 695 1526.0 718.0Q1536 741 1536 768Q1536 795 1526.0 818.0Q1516 841 1498.5 858.5Q1481 876 1458.0 886.0Q1435 896 1408 896Q1381 896 1358.0 886.0Q1335 876 1317.5 858.5Q1300 841 1290.0 818.0Q1280 795 1280 768Q1280 741 1290.0 718.0Q1300 695 1317.5 677.5Q1335 660 1358.0 650.0Q1381 640 1408 640ZM896 1280Q896 1227 876.0 1180.5Q856 1134 821.0 1099.0Q786 1064 739.5 1044.0Q693 1024 640 1024Q587 1024 540.5 1044.0Q494 1064 459.0 1099.0Q424 1134 404.0 1180.5Q384 1227 384 1280Q384 1333 404.0 1379.5Q424 1426 459.0 1461.0Q494 1496 540.5 1516.0Q587 1536 640 1536Q693 1536 739.5 1516.0Q786 1496 821.0 1461.0Q856 1426 876.0 1379.5Q896 1333 896 1280ZM640 1152Q667 1152 690.0 1162.0Q713 1172 730.5 1189.5Q748 1207 758.0 1230.0Q768 1253 768 1280Q768 1307 758.0 1330.0Q748 1353 730.5 1370.5Q713 1388 690.0 1398.0Q667 1408 640 1408Q613 1408 590.0 1398.0Q567 1388 549.5 1370.5Q532 1353 522.0 1330.0Q512 1307 512 1280Q512 1253 522.0 1230.0Q532 1207 549.5 1189.5Q567 1172 590.0 1162.0Q613 1152 640 1152ZM1351 1536 839 512H697L1209 1536Z" transform="scale(1,-1)"/>
</svg>