<?xml version="1.0" encoding="UTF-8"?>
<svg xmlns="http://www.w3.org/2000/svg" viewBox="-1 -2048 2049 2049">
  <path d="M1472 2048Q1591 2048 1696.0 2002.5Q1801 1957 1879.0 1879.0Q1957 1801 2002.5 1696.0Q2048 1591 2048 1472Q2048 1353 2002.5 1248.0Q1957 1143 1879.0 1065.0Q1801 987 1696.0 941.5Q1591 896 1472 896Q1353 896 1248.0 941.5Q1143 987 1065.0 1065.0Q987 1143 941.5 1248.0Q896 1353 896 1472Q896 1591 941.5 1696.0Q987 1801 1065.0 1879.0Q1143 1957 1248.0 2002.5Q1353 2048 1472 2048ZM1024 1472Q1024 1379 1059.0 1297.5Q1094 1216 1155.0 1155.0Q1216 1094 1297.5 1059.0Q1379 1024 1472 1024Q1545 1024 1613.5 1046.5Q1682 1069 1740 1113L1113 1740Q1069 1682 1046.5 1613.5Q1024 1545 1024 1472ZM1831 1204Q1875 1262 1897.5 1330.5Q1920 1399 1920 1472Q1920 1565 1885.0 1646.5Q1850 1728 1789.0 1789.0Q1728 1850 1646.5 1885.0Q1565 1920 1472 1920Q1399 1920 1330.5 1897.5Q1262 1875 1204 1831ZM1196 648Q1232 648 1264.5 634.5Q1297 621 1323 595L1485 434Q1511 409 1524.0 375.5Q1537 342 1537 307Q1537 272 1523.5 239.0Q1510 206 1485 180Q1441 135 1405.0 101.5Q1369 68 1331.0 45.0Q1293 22 1246.5 10.5Q1200 -1 1134 -1Q1042 -1 944.0 27.5Q846 56 749.0 107.0Q652 158 558.5 228.5Q465 299 382.0 382.5Q299 466 228.5 559.5Q158 653 107.0 750.0Q56 847 27.5 945.0Q-1 1043 -1 1135Q-1 1200 10.5 1246.5Q22 1293 45.0 1331.5Q68 1370 102.0 1405.5Q136 1441 180 1485Q206 1510 239.0 1523.5Q272 1537 307 1537Q342 1537 375.5 1524.0Q409 1511 434 1485L595 1323Q621 1297 634.5 1264.5Q648 1232 648 1196Q648 1145 625.0 1109.5Q602 1074 574.0 1047.0Q546 1020 523.0 998.0Q500 976 500 953Q500 933 514 919L919 514Q933 500 953 500Q976 500 998.0 523.0Q1020 546 1047.0 574.0Q1074 602 1109.5 625.0Q1145 648 1196 648ZM1133 130Q1184 130 1218.0 139.0Q1252 148 1279.0 166.0Q1306 184 1331.5 210.5Q1357 237 1392 272Q1407 287 1407 307Q1407 326 1392 341L1231 503Q1217 517 1196 517Q1172 517 1151.0 494.0Q1130 471 1103.0 443.0Q1076 415 1040.5 392.0Q1005 369 953 369Q918 369 885.0 382.5Q852 396 826 422L422 826Q396 852 382.5 885.0Q369 918 369 953Q369 1005 392.0 1040.5Q415 1076 443.0 1103.0Q471 1130 494.0 1151.0Q517 1172 517 1196Q517 1217 503 1231L341 1392Q326 1407 307 1407Q287 1407 272 1392Q237 1357 210.5 1331.5Q184 1306 166.0 1279.0Q148 1252 139.0 1218.0Q130 1184 130 1133Q130 1028 175.5 913.5Q221 799 297.5 687.5Q374 576 475.0 475.0Q576 374 687.5 297.5Q799 221 913.5 175.5Q1028 130 1133 130Z" transform="scale(1,-1)"/>
</svg>