<?xml version="1.0" encoding="UTF-8"?>
<svg xmlns="http://www.w3.org/2000/svg" viewBox="0 -2048 2048 2046">
  <path d="M896 1152H768V1280H896ZM1280 1152H1152V1280H1280ZM768 1024H896V896H768ZM512 896H384V1024H512ZM1152 1024H1280V896H1152ZM768 768H896V640H768ZM512 640H384V768H512ZM384 512H512V384H384ZM896 466 875 444 860 384H768V512H896ZM1664 1224Q1641 1209 1622.0 1190.5Q1603 1172 1583 1152H1536V1280H1664ZM1152 768H1199L1152 721ZM2048 1920V1212Q1990 1255 1920 1270V1408H128V256H828L796 128H0V1920H384V2048H512V1920H1536V2048H1664V1920ZM1920 1792H1664V1664H1536V1792H512V1664H384V1792H128V1536H1920ZM1707 1095Q1735 1123 1772.5 1136.0Q1810 1149 1848 1149Q1890 1149 1926.5 1134.5Q1963 1120 1990.0 1094.0Q2017 1068 2032.5 1032.5Q2048 997 2048 954Q2048 915 2033.0 878.0Q2018 841 1990 813L1273 96L896 2L990 379ZM1899 903Q1920 924 1920 954Q1920 986 1900.0 1004.5Q1880 1023 1848 1023Q1835 1023 1821.5 1019.0Q1808 1015 1798 1005L1106 313L1072 178L1207 212Z" transform="scale(1,-1)"/>
</svg>