<?xml version="1.0" encoding="UTF-8"?>
<svg xmlns="http://www.w3.org/2000/svg" viewBox="128 -2048 1792 2048">
  <path d="M1639 1548Q1774 1412 1847.0 1250.5Q1920 1089 1920 896Q1920 772 1888.0 657.5Q1856 543 1797.5 443.5Q1739 344 1657.5 262.5Q1576 181 1476.5 122.5Q1377 64 1262.5 32.0Q1148 0 1024 0Q900 0 785.5 32.0Q671 64 571.5 122.5Q472 181 390.5 262.5Q309 344 250.5 443.5Q192 543 160.0 657.5Q128 772 128 896Q128 1007 154.5 1112.0Q181 1217 229.5 1310.0Q278 1403 347.0 1482.5Q416 1562 501.0 1623.5Q586 1685 686.0 1726.0Q786 1767 896 1783V1920H640V2048H1280V1920H1024V1792Q1163 1792 1294.5 1751.0Q1426 1710 1539 1629L1747 1837L1837 1747ZM1024 128Q1183 128 1322.5 188.5Q1462 249 1566.5 353.5Q1671 458 1731.5 597.5Q1792 737 1792 896Q1792 1055 1731.5 1194.5Q1671 1334 1566.5 1438.5Q1462 1543 1322.5 1603.5Q1183 1664 1024 1664Q865 1664 725.5 1603.5Q586 1543 481.5 1438.5Q377 1334 316.5 1194.5Q256 1055 256 896Q256 737 316.5 597.5Q377 458 481.5 353.5Q586 249 725.5 188.5Q865 128 1024 128ZM1664 1024V896Q1664 763 1614.0 646.5Q1564 530 1477.0 443.0Q1390 356 1273.5 306.0Q1157 256 1024 256Q891 256 774.5 306.0Q658 356 571.0 442.5Q484 529 434.0 645.5Q384 762 384 895Q384 983 407.0 1065.0Q430 1147 471.5 1218.0Q513 1289 571.5 1347.5Q630 1406 701.0 1448.0Q772 1490 853.5 1513.0Q935 1536 1024 1536H1152V1024ZM1024 384Q1130 384 1223.5 424.0Q1317 464 1386.5 533.5Q1456 603 1496.0 696.5Q1536 790 1536 896H1024V1408Q917 1408 824.0 1367.5Q731 1327 661.5 1257.5Q592 1188 552.0 1094.0Q512 1000 512 894Q512 788 552.5 695.0Q593 602 662.5 533.0Q732 464 825.0 424.0Q918 384 1024 384Z" transform="scale(1,-1)"/>
</svg>