<?xml version="1.0" encoding="UTF-8"?>
<svg xmlns="http://www.w3.org/2000/svg" viewBox="128 -2048 1792 2048">
  <path d="M896 768Q896 686 862.5 611.5Q829 537 768 482V24L512 152L256 24V482Q195 537 161.5 611.5Q128 686 128 768Q128 847 158.0 917.0Q188 987 240.5 1039.5Q293 1092 362.5 1122.0Q432 1152 512 1152Q591 1152 661.0 1121.5Q731 1091 783.0 1039.0Q835 987 865.5 917.0Q896 847 896 768ZM512 512Q565 512 611.5 532.0Q658 552 693.0 587.0Q728 622 748.0 668.5Q768 715 768 768Q768 821 748.0 867.5Q728 914 693.0 949.0Q658 984 611.5 1004.0Q565 1024 512 1024Q459 1024 412.5 1004.0Q366 984 331.0 949.0Q296 914 276.0 867.5Q256 821 256 768Q256 715 276.0 668.5Q296 622 331.0 587.0Q366 552 412.5 532.0Q459 512 512 512ZM640 406Q579 384 517 384Q447 384 384 406V232L512 296L640 232ZM1920 1499V0H896V128H1792V1408H1280V1920H384V1296Q351 1288 318.5 1276.0Q286 1264 256 1248V2048H1371ZM1701 1536 1408 1829V1536Z" transform="scale(1,-1)"/>
</svg>