<?xml version="1.0" encoding="UTF-8"?>
<svg xmlns="http://www.w3.org/2000/svg" viewBox="0 -2048 2048 2048">
  <path d="M1728 1152Q1794 1152 1852.0 1126.5Q1910 1101 1953.5 1057.5Q1997 1014 2022.5 956.0Q2048 898 2048 832Q2048 766 2022.5 707.5Q1997 649 1953.5 605.5Q1910 562 1852.0 537.0Q1794 512 1728 512Q1705 512 1683 515L1224 56Q1197 29 1161.5 14.5Q1126 0 1088 0Q1048 0 1013.0 15.0Q978 30 952.0 56.0Q926 82 911.0 117.0Q896 152 896 192Q896 230 910.5 265.5Q925 301 952 328L1411 787Q1408 809 1408 832Q1408 898 1433.0 956.0Q1458 1014 1501.5 1057.5Q1545 1101 1603.5 1126.5Q1662 1152 1728 1152ZM1728 640Q1768 640 1803.0 655.0Q1838 670 1864.0 696.0Q1890 722 1905.0 757.0Q1920 792 1920 832Q1920 873 1901 914L1755 768H1664V859L1810 1005Q1769 1024 1728 1024Q1688 1024 1653.0 1009.0Q1618 994 1592.0 968.0Q1566 942 1551.0 907.0Q1536 872 1536 832Q1536 791 1555 750L1043 237Q1024 218 1024 192Q1024 166 1043.0 147.0Q1062 128 1088 128Q1114 128 1133 147L1646 659Q1687 640 1728 640ZM896 498Q863 465 836.0 436.5Q809 408 788.5 376.5Q768 345 755.5 308.0Q743 271 739 223L0 593V1632L832 2048L1664 1632V1306Q1631 1301 1599.0 1293.0Q1567 1285 1536 1271V1489L896 1169ZM591 1784 1212 1470 1457 1593 832 1905ZM768 1169 128 1489V672L768 352ZM1070 1399 448 1713 207 1593 832 1280Z" transform="scale(1,-1)"/>
</svg>