<?xml version="1.0" encoding="UTF-8"?>
<svg xmlns="http://www.w3.org/2000/svg" viewBox="0 -2048 2048 2048">
  <path d="M1024 2048Q1165 2048 1296.0 2011.5Q1427 1975 1541.0 1908.5Q1655 1842 1748.5 1748.5Q1842 1655 1908.5 1541.0Q1975 1427 2011.5 1296.0Q2048 1165 2048 1024Q2048 883 2011.5 752.0Q1975 621 1908.5 507.0Q1842 393 1748.5 299.5Q1655 206 1541.0 139.5Q1427 73 1296.0 36.5Q1165 0 1024 0Q883 0 752.0 36.5Q621 73 507.0 139.5Q393 206 299.5 299.5Q206 393 139.5 507.0Q73 621 36.5 751.5Q0 882 0 1024Q0 1165 36.5 1296.0Q73 1427 139.5 1541.0Q206 1655 299.5 1748.5Q393 1842 507.0 1908.5Q621 1975 751.5 2011.5Q882 2048 1024 2048ZM1833 1408Q1795 1489 1741.0 1560.5Q1687 1632 1621.0 1691.0Q1555 1750 1478.0 1796.0Q1401 1842 1317 1871Q1353 1821 1382.0 1765.0Q1411 1709 1433.5 1649.5Q1456 1590 1472.0 1529.0Q1488 1468 1500 1408ZM1920 1024Q1920 1157 1883 1280H1520Q1528 1216 1532.0 1152.5Q1536 1089 1536 1024Q1536 959 1532.0 895.5Q1528 832 1520 768H1883Q1920 891 1920 1024ZM1024 128Q1073 128 1115.5 155.0Q1158 182 1194.0 226.0Q1230 270 1258.5 325.5Q1287 381 1309.0 438.0Q1331 495 1346.0 548.0Q1361 601 1369 640H679Q687 601 702.0 548.0Q717 495 739.0 438.0Q761 381 789.5 325.5Q818 270 854.0 226.0Q890 182 932.5 155.0Q975 128 1024 128ZM1391 768Q1399 832 1403.5 895.5Q1408 959 1408 1024Q1408 1089 1403.5 1152.5Q1399 1216 1391 1280H657Q649 1216 644.5 1152.5Q640 1089 640 1024Q640 959 644.5 895.5Q649 832 657 768ZM128 1024Q128 891 165 768H528Q520 832 516.0 895.5Q512 959 512 1024Q512 1089 516.0 1152.5Q520 1216 528 1280H165Q128 1157 128 1024ZM1024 1920Q975 1920 932.5 1893.0Q890 1866 854.0 1822.0Q818 1778 789.5 1722.5Q761 1667 739.0 1610.0Q717 1553 702.0 1500.0Q687 1447 679 1408H1369Q1361 1447 1346.0 1500.0Q1331 1553 1309.0 1610.0Q1287 1667 1258.5 1722.5Q1230 1778 1194.0 1822.0Q1158 1866 1115.5 1893.0Q1073 1920 1024 1920ZM731 1871Q647 1842 570.0 1796.0Q493 1750 427.0 1691.0Q361 1632 307.0 1560.5Q253 1489 215 1408H548Q560 1468 576.0 1529.0Q592 1590 614.5 1649.5Q637 1709 666.0 1765.0Q695 1821 731 1871ZM215 640Q253 559 307.0 487.5Q361 416 427.0 357.0Q493 298 570.0 252.0Q647 206 731 177Q695 227 666.0 283.0Q637 339 614.5 398.5Q592 458 576.0 519.0Q560 580 548 640ZM1317 177Q1401 206 1478.0 252.0Q1555 298 1621.0 357.0Q1687 416 1741.0 487.5Q1795 559 1833 640H1500Q1488 580 1472.0 519.0Q1456 458 1433.5 398.5Q1411 339 1382.0 283.0Q1353 227 1317 177Z" transform="scale(1,-1)"/>
</svg>