<?xml version="1.0" encoding="UTF-8"?>
<svg xmlns="http://www.w3.org/2000/svg" viewBox="0 -1920 2048 1792">
  <path d="M1856 1280Q1896 1280 1931.0 1265.0Q1966 1250 1992.0 1224.0Q2018 1198 2033.0 1163.0Q2048 1128 2048 1088V704Q2048 585 2002.5 480.0Q1957 375 1879.0 297.0Q1801 219 1696.0 173.5Q1591 128 1472 128Q1331 128 1205.5 183.5Q1080 239 978 340L659 658L387 522L249 799L0 549V1883L896 987V1728Q896 1768 911.0 1803.0Q926 1838 952.0 1864.0Q978 1890 1013.0 1905.0Q1048 1920 1088 1920Q1128 1920 1163.0 1905.0Q1198 1890 1224.0 1864.0Q1250 1838 1265.0 1803.0Q1280 1768 1280 1728V1397Q1307 1407 1339 1407Q1388 1407 1434.0 1383.5Q1480 1360 1506 1319Q1550 1344 1600 1344Q1651 1344 1693.5 1320.0Q1736 1296 1762 1255Q1806 1280 1856 1280ZM424 1088H614L128 1573V859L284 1015L445 694L586 765ZM1920 1088Q1920 1114 1901.0 1133.0Q1882 1152 1856 1152Q1830 1152 1811.0 1133.0Q1792 1114 1792 1088V960Q1792 934 1773.0 915.0Q1754 896 1728 896Q1702 896 1683.0 915.0Q1664 934 1664 960V1152Q1664 1178 1645.0 1197.0Q1626 1216 1600 1216Q1574 1216 1555.0 1197.0Q1536 1178 1536 1152V1024Q1536 998 1517.0 979.0Q1498 960 1472 960Q1446 960 1427.0 979.0Q1408 998 1408 1024V1216Q1408 1242 1389.0 1261.0Q1370 1280 1344 1280Q1318 1280 1299.0 1261.0Q1280 1242 1280 1216V1088Q1280 1062 1261.0 1043.0Q1242 1024 1216 1024Q1190 1024 1171.0 1043.0Q1152 1062 1152 1088V1728Q1152 1754 1133.0 1773.0Q1114 1792 1088 1792Q1062 1792 1043.0 1773.0Q1024 1754 1024 1728V941Q1024 908 1006.0 880.5Q988 853 957 840Q938 832 915 832Q871 832 837 864L762 939Q741 960 712 960Q682 960 661 939Q650 928 645.0 915.0Q640 902 640 888Q640 858 661 837L1069 429Q1150 344 1253.5 300.0Q1357 256 1472 256Q1565 256 1646.5 291.5Q1728 327 1788.5 387.5Q1849 448 1884.5 529.5Q1920 611 1920 704Z" transform="scale(1,-1)"/>
</svg>