<?xml version="1.0" encoding="UTF-8"?>
<svg xmlns="http://www.w3.org/2000/svg" viewBox="384 -2048 1152 2048">
  <path d="M896 128H1024V0H896ZM960 2048Q1039 2048 1112.5 2027.5Q1186 2007 1250.0 1969.5Q1314 1932 1367.0 1879.0Q1420 1826 1457.5 1762.0Q1495 1698 1515.5 1624.5Q1536 1551 1536 1472Q1536 1388 1514.0 1320.0Q1492 1252 1456.0 1195.5Q1420 1139 1374.0 1091.0Q1328 1043 1280.0 998.0Q1232 953 1186.0 908.5Q1140 864 1104.0 814.0Q1068 764 1046.0 706.0Q1024 648 1024 576V384H896V576Q896 660 918.0 728.0Q940 796 976.0 852.5Q1012 909 1058.0 956.5Q1104 1004 1152.0 1049.0Q1200 1094 1246.0 1139.0Q1292 1184 1328.0 1234.0Q1364 1284 1386.0 1342.0Q1408 1400 1408 1472Q1408 1565 1372.5 1646.5Q1337 1728 1276.5 1788.5Q1216 1849 1134.5 1884.5Q1053 1920 960 1920Q867 1920 785.5 1884.5Q704 1849 643.5 1788.5Q583 1728 547.5 1646.5Q512 1565 512 1472H384Q384 1551 404.5 1624.5Q425 1698 462.5 1762.0Q500 1826 553.0 1879.0Q606 1932 670.0 1969.5Q734 2007 807.5 2027.5Q881 2048 960 2048Z" transform="scale(1,-1)"/>
</svg>