<?xml version="1.0" encoding="UTF-8"?>
<svg xmlns="http://www.w3.org/2000/svg" viewBox="64 -1984 1920 1920">
  <path d="M1905 845Q1944 784 1964.0 714.5Q1984 645 1984 573Q1984 468 1944.0 375.0Q1904 282 1835.0 213.0Q1766 144 1673.0 104.0Q1580 64 1475 64Q1397 64 1333.5 84.0Q1270 104 1203 142Q1112 125 1024 125Q900 125 785.0 157.0Q670 189 570.5 247.5Q471 306 388.5 388.5Q306 471 247.5 570.5Q189 670 157.0 785.0Q125 900 125 1024Q125 1112 142 1203Q104 1270 84.0 1333.5Q64 1397 64 1475Q64 1580 104.0 1673.0Q144 1766 213.0 1835.0Q282 1904 375.0 1944.0Q468 1984 573 1984Q651 1984 714.5 1964.0Q778 1944 845 1906Q936 1923 1024 1923Q1148 1923 1263.0 1891.0Q1378 1859 1477.5 1800.5Q1577 1742 1659.5 1659.5Q1742 1577 1800.5 1477.5Q1859 1378 1891.0 1263.0Q1923 1148 1923 1024Q1923 979 1919.5 933.5Q1916 888 1905 845Z" transform="scale(1,-1)"/>
</svg>