<?xml version="1.0" encoding="UTF-8"?>
<svg xmlns="http://www.w3.org/2000/svg" viewBox="0 -1792 2048 1536">
  <path d="M608 1792Q653 1792 685.5 1782.5Q718 1773 743.5 1759.0Q769 1745 789.0 1728.0Q809 1711 829.5 1697.0Q850 1683 873.5 1673.5Q897 1664 928 1664H1920Q1947 1664 1970.0 1654.0Q1993 1644 2010.5 1626.5Q2028 1609 2038.0 1586.0Q2048 1563 2048 1536V256H0V1664Q0 1691 10.0 1714.0Q20 1737 37.5 1754.5Q55 1772 78.0 1782.0Q101 1792 128 1792ZM128 1664V1536H608Q632 1536 650.0 1540.5Q668 1545 683.0 1553.5Q698 1562 712.5 1573.5Q727 1585 744 1600Q727 1615 712.5 1626.5Q698 1638 683.0 1646.5Q668 1655 650.0 1659.5Q632 1664 608 1664ZM1920 1536H928Q897 1536 873.5 1526.5Q850 1517 829.5 1503.0Q809 1489 789.0 1472.0Q769 1455 743.5 1441.0Q718 1427 685.5 1417.5Q653 1408 608 1408H128V384H1920Z" transform="scale(1,-1)"/>
</svg>