<?xml version="1.0" encoding="UTF-8"?>
<svg xmlns="http://www.w3.org/2000/svg" viewBox="0 -2048 2048 2048">
  <path d="M1024 1536V987L1389 621L1299 531L896 933V1536ZM1536 1408H1833Q1777 1525 1692.5 1619.5Q1608 1714 1502.5 1781.0Q1397 1848 1275.0 1884.0Q1153 1920 1024 1920Q901 1920 786.5 1888.0Q672 1856 572.5 1797.5Q473 1739 391.0 1657.0Q309 1575 250.5 1475.5Q192 1376 160.0 1261.5Q128 1147 128 1024Q128 901 160.0 786.5Q192 672 250.5 572.5Q309 473 391.0 391.0Q473 309 572.5 250.5Q672 192 786.0 160.0Q900 128 1024 128Q1174 128 1313.0 176.5Q1452 225 1566.0 312.0Q1680 399 1763.5 519.5Q1847 640 1887 785L2010 751Q1965 585 1869.5 447.0Q1774 309 1643.5 209.5Q1513 110 1354.5 55.0Q1196 0 1024 0Q883 0 752.0 36.5Q621 73 507.0 139.5Q393 206 299.5 299.5Q206 393 139.5 507.0Q73 621 36.5 751.5Q0 882 0 1024Q0 1165 36.5 1296.0Q73 1427 139.5 1541.0Q206 1655 299.5 1748.5Q393 1842 507.0 1908.5Q621 1975 751.5 2011.5Q882 2048 1024 2048Q1164 2048 1296.0 2011.0Q1428 1974 1544.5 1905.5Q1661 1837 1756.5 1739.0Q1852 1641 1920 1518V1792H2048V1280H1536Z" transform="scale(1,-1)"/>
</svg>