<?xml version="1.0" encoding="UTF-8"?>
<svg xmlns="http://www.w3.org/2000/svg" viewBox="0 -1984 2047 1920">
  <path d="M640 300Q669 283 686.5 254.5Q704 226 704 192Q704 165 694.0 142.0Q684 119 666.5 101.5Q649 84 626.0 74.0Q603 64 576 64Q549 64 526.0 74.0Q503 84 485.5 101.5Q468 119 458.0 142.0Q448 165 448 192Q448 226 465.5 254.5Q483 283 512 300V384Q406 384 313.0 424.5Q220 465 150.5 534.5Q81 604 40.5 697.0Q0 790 0 896Q0 1002 40.5 1095.0Q81 1188 150.5 1257.5Q220 1327 313.0 1367.5Q406 1408 512 1408Q558 1408 605 1399Q645 1460 698.0 1509.0Q751 1558 813.0 1592.5Q875 1627 945.0 1645.5Q1015 1664 1088 1664Q1136 1664 1176.0 1657.5Q1216 1651 1253.5 1639.0Q1291 1627 1328.5 1610.0Q1366 1593 1408 1573V1024H640ZM512 1024Q512 1051 522.0 1074.0Q532 1097 549.5 1114.5Q567 1132 590.0 1142.0Q613 1152 640 1152H1280V1492Q1189 1536 1088 1536Q1018 1536 953.0 1515.0Q888 1494 833.5 1456.0Q779 1418 737.0 1364.5Q695 1311 670 1245Q595 1280 512 1280Q432 1280 362.5 1250.0Q293 1220 240.5 1167.5Q188 1115 158.0 1045.0Q128 975 128 896Q128 816 158.0 746.5Q188 677 240.5 624.5Q293 572 362.5 542.0Q432 512 512 512ZM1664 1152Q1743 1152 1813.0 1122.0Q1883 1092 1935.0 1039.5Q1987 987 2017.0 917.0Q2047 847 2047 768Q2047 688 2017.0 618.5Q1987 549 1935.0 496.5Q1883 444 1813.0 414.0Q1743 384 1664 384H768V896H1536V1748Q1507 1765 1489.5 1793.5Q1472 1822 1472 1856Q1472 1883 1482.0 1906.0Q1492 1929 1509.5 1946.5Q1527 1964 1550.0 1974.0Q1573 1984 1600 1984Q1627 1984 1650.0 1974.0Q1673 1964 1690.5 1946.5Q1708 1929 1718.0 1906.0Q1728 1883 1728 1856Q1728 1822 1710.5 1793.5Q1693 1765 1664 1748ZM1664 512Q1717 512 1763.5 532.0Q1810 552 1845.0 587.0Q1880 622 1900.0 668.5Q1920 715 1920 768Q1920 821 1900.0 867.5Q1880 914 1845.0 949.0Q1810 984 1763.5 1004.0Q1717 1024 1664 1024V896Q1664 869 1654.0 846.0Q1644 823 1626.5 805.5Q1609 788 1586.0 778.0Q1563 768 1536 768H896V512Z" transform="scale(1,-1)"/>
</svg>