<?xml version="1.0" encoding="UTF-8"?>
<svg xmlns="http://www.w3.org/2000/svg" viewBox="0 -2048 2048 2048">
  <path d="M918 167Q908 129 902.5 89.5Q897 50 896 10Q768 25 652.0 70.0Q536 115 436.5 185.5Q337 256 256.5 347.5Q176 439 119.0 547.0Q62 655 31.0 775.5Q0 896 0 1024Q0 1165 36.5 1296.0Q73 1427 139.5 1541.0Q206 1655 299.5 1748.5Q393 1842 507.0 1908.5Q621 1975 751.5 2011.5Q882 2048 1024 2048Q1165 2048 1295.5 2011.5Q1426 1975 1540.0 1908.0Q1654 1841 1747.5 1747.5Q1841 1654 1908.0 1540.0Q1975 1426 2011.5 1295.5Q2048 1165 2048 1024H1977Q1963 1047 1947.5 1069.0Q1932 1091 1913 1111Q1907 1198 1882 1280H657Q649 1216 644.5 1152.5Q640 1089 640 1024Q640 959 644.5 895.5Q649 832 657 768H1024Q1024 736 1029.0 704.0Q1034 672 1042 640H679Q691 583 711.5 515.0Q732 447 761.5 381.5Q791 316 830.0 259.5Q869 203 918 167ZM1833 1408Q1794 1489 1740.5 1560.0Q1687 1631 1621.0 1690.5Q1555 1750 1478.5 1795.5Q1402 1841 1317 1870Q1353 1820 1381.5 1764.0Q1410 1708 1432.5 1648.5Q1455 1589 1471.0 1528.5Q1487 1468 1499 1408ZM1024 1920Q974 1920 931.5 1893.0Q889 1866 853.5 1822.0Q818 1778 789.5 1722.5Q761 1667 739.0 1610.0Q717 1553 702.0 1500.0Q687 1447 679 1408H1369Q1361 1447 1346.0 1500.0Q1331 1553 1309.0 1610.0Q1287 1667 1258.5 1722.5Q1230 1778 1194.5 1822.0Q1159 1866 1116.0 1893.0Q1073 1920 1024 1920ZM732 1871Q647 1842 570.0 1796.5Q493 1751 427.0 1691.5Q361 1632 307.0 1560.5Q253 1489 215 1408H549Q560 1463 576.5 1525.5Q593 1588 616.0 1649.5Q639 1711 668.0 1768.5Q697 1826 732 1871ZM128 1024Q128 891 165 768H528Q520 832 516.0 895.5Q512 959 512 1024Q512 1089 516.0 1152.5Q520 1216 528 1280H165Q128 1157 128 1024ZM213 640Q252 559 305.5 487.5Q359 416 425.5 357.0Q492 298 569.0 252.5Q646 207 731 178Q695 228 666.5 284.0Q638 340 615.5 399.0Q593 458 576.5 519.0Q560 580 548 640ZM1762 459Q1827 426 1880.0 378.0Q1933 330 1970.5 270.0Q2008 210 2028.0 141.5Q2048 73 2048 0H1920Q1920 79 1890.0 149.0Q1860 219 1807.5 271.5Q1755 324 1685.0 354.0Q1615 384 1536 384Q1456 384 1386.5 354.0Q1317 324 1264.5 271.5Q1212 219 1182.0 149.0Q1152 79 1152 0H1024Q1024 73 1044.0 141.5Q1064 210 1101.0 270.0Q1138 330 1191.0 378.0Q1244 426 1309 459Q1234 513 1193.0 594.5Q1152 676 1152 768Q1152 847 1182.0 917.0Q1212 987 1264.5 1039.5Q1317 1092 1386.5 1122.0Q1456 1152 1536 1152Q1615 1152 1685.0 1122.0Q1755 1092 1807.5 1039.5Q1860 987 1890.0 917.0Q1920 847 1920 768Q1920 676 1878.5 594.5Q1837 513 1762 459ZM1536 512Q1589 512 1635.5 532.0Q1682 552 1717.0 587.0Q1752 622 1772.0 668.5Q1792 715 1792 768Q1792 821 1772.0 867.5Q1752 914 1717.0 949.0Q1682 984 1635.5 1004.0Q1589 1024 1536 1024Q1483 1024 1436.5 1004.0Q1390 984 1355.0 949.0Q1320 914 1300.0 867.5Q1280 821 1280 768Q1280 715 1300.0 668.5Q1320 622 1355.0 587.0Q1390 552 1436.5 532.0Q1483 512 1536 512Z" transform="scale(1,-1)"/>
</svg>