<?xml version="1.0" encoding="UTF-8"?>
<svg xmlns="http://www.w3.org/2000/svg" viewBox="0 -1920 2048 1911">
  <path d="M0 1152H128V1024H0ZM0 1536H128V1408H0ZM384 1536H2048V1408H384ZM0 1920H128V1792H0ZM2048 1920V1792H384V1920ZM1024 1024H384V1152H1024ZM2043 748 1906 691Q1920 635 1920 580Q1920 526 1906 470L2043 413L1995 295L1857 352Q1828 304 1788.5 264.0Q1749 224 1701 195L1758 58L1639 9L1583 146Q1556 139 1528.0 136.0Q1500 133 1472 133Q1444 133 1416.0 136.0Q1388 139 1361 146L1305 9L1186 58L1243 195Q1195 224 1155.5 264.0Q1116 304 1087 352L949 295L901 413L1038 470Q1024 526 1024 580Q1024 635 1038 691L901 748L949 866L1087 809Q1116 857 1155.5 897.0Q1195 937 1243 966L1186 1103L1305 1152L1361 1015Q1417 1029 1472 1029Q1527 1029 1583 1015L1639 1152L1758 1103L1701 966Q1749 937 1788.5 897.0Q1828 857 1857 809L1995 866ZM1472 261Q1538 261 1596.0 286.0Q1654 311 1697.5 354.5Q1741 398 1766.5 456.0Q1792 514 1792 580Q1792 646 1766.5 704.5Q1741 763 1697.5 806.5Q1654 850 1596.0 875.5Q1538 901 1472 901Q1406 901 1347.5 875.5Q1289 850 1245.5 806.5Q1202 763 1177.0 704.5Q1152 646 1152 580Q1152 514 1177.0 456.0Q1202 398 1245.5 354.5Q1289 311 1347.5 286.0Q1406 261 1472 261Z" transform="scale(1,-1)"/>
</svg>