<?xml version="1.0" encoding="UTF-8"?>
<svg xmlns="http://www.w3.org/2000/svg" viewBox="128 -2048 1920 2048">
  <path d="M1920 1280Q1947 1280 1970.0 1270.0Q1993 1260 2010.5 1242.5Q2028 1225 2038.0 1202.0Q2048 1179 2048 1152V0H933L768 165V1152Q768 1179 778.0 1202.0Q788 1225 805.5 1242.5Q823 1260 846.0 1270.0Q869 1280 896 1280ZM1152 768H1664V1152H1152ZM1664 384H1152V128H1280V256H1408V128H1664ZM1920 1152H1792V640H1024V1152H896V219L987 128H1024V512H1792V128H1920ZM579 128 707 0H128V2048H1243L1792 1499V1408H1152V1920H256V128ZM1280 1536H1573L1280 1829Z" transform="scale(1,-1)"/>
</svg>