<?xml version="1.0" encoding="UTF-8"?>
<svg xmlns="http://www.w3.org/2000/svg" viewBox="0 -1875 2048 1602">
  <path d="M2048 896V768H1973Q1963 668 1928.0 578.5Q1893 489 1833.0 421.0Q1773 353 1689.0 313.0Q1605 273 1497 273Q1273 273 1161 470H1157V298H1024V768H896V298H763V487H759Q707 386 618.0 329.5Q529 273 414 273Q344 273 283.0 292.5Q222 312 177.0 350.5Q132 389 106.0 446.0Q80 503 80 577Q80 628 92.5 677.0Q105 726 135 768H0V896H332Q334 896 348.5 899.0Q363 902 381.5 906.0Q400 910 417.0 914.0Q434 918 440 919L763 966Q763 1027 752.0 1082.5Q741 1138 714.0 1180.5Q687 1223 641.0 1248.0Q595 1273 525 1273Q426 1273 340.0 1236.5Q254 1200 179 1137V1282Q215 1307 259.0 1327.0Q303 1347 350.0 1360.5Q397 1374 444.5 1381.0Q492 1388 536 1388Q632 1388 700.5 1360.0Q769 1332 812.5 1280.0Q856 1228 876.0 1155.0Q896 1082 896 991V896H1024V1875H1157V1159H1161Q1221 1270 1319.0 1329.0Q1417 1388 1544 1388Q1653 1388 1733.0 1348.5Q1813 1309 1866.0 1241.5Q1919 1174 1946.5 1084.5Q1974 995 1977 896ZM763 768H314Q257 739 237.0 692.0Q217 645 217 585Q217 536 234.5 499.0Q252 462 282.0 437.5Q312 413 352.5 400.5Q393 388 438 388Q492 388 538.5 403.5Q585 419 623.0 447.0Q661 475 690.5 515.0Q720 555 738 604Q754 646 758.5 684.5Q763 723 763 768ZM1157 896H1840Q1837 969 1817.0 1037.0Q1797 1105 1757.5 1157.5Q1718 1210 1658.5 1241.5Q1599 1273 1517 1273Q1435 1273 1369.5 1243.5Q1304 1214 1258.0 1163.0Q1212 1112 1186.0 1043.0Q1160 974 1157 896ZM1835 768H1157V741Q1157 669 1181.5 604.5Q1206 540 1250.0 492.0Q1294 444 1355.5 416.0Q1417 388 1492 388Q1574 388 1634.5 420.0Q1695 452 1737.0 505.0Q1779 558 1803.0 626.5Q1827 695 1835 768Z" transform="scale(1,-1)"/>
</svg>