<?xml version="1.0" encoding="UTF-8"?>
<svg xmlns="http://www.w3.org/2000/svg" viewBox="0 -2048 2048 2048">
  <path d="M2048 896V0H768V896ZM1152 128V256H896V128ZM1152 384V512H896V384ZM1536 128V256H1280V128ZM1536 384V512H1280V384ZM1920 128V256H1664V128ZM1920 384V512H1664V384ZM1920 640V768H896V640ZM1152 1280H731L256 805V1280H0V2048H1152ZM1024 1920H128V1408H384V1115L677 1408H1024ZM1280 1792H1536Q1587 1792 1634.0 1772.5Q1681 1753 1717 1717Q1753 1681 1772.5 1634.0Q1792 1587 1792 1536V1243L1955 1405L2045 1315L1728 998L1411 1315L1501 1405L1664 1243V1536Q1664 1563 1654.0 1586.0Q1644 1609 1626.5 1626.5Q1609 1644 1586.0 1654.0Q1563 1664 1536 1664H1280Z" transform="scale(1,-1)"/>
</svg>