<?xml version="1.0" encoding="UTF-8"?>
<svg xmlns="http://www.w3.org/2000/svg" viewBox="0 -1792 2048 1408">
  <path d="M896 640H1024V512H896ZM960 1600Q1026 1600 1084.0 1574.5Q1142 1549 1185.5 1505.5Q1229 1462 1254.5 1404.0Q1280 1346 1280 1280Q1280 1220 1261.0 1175.5Q1242 1131 1213.5 1095.0Q1185 1059 1152.0 1029.5Q1119 1000 1090.5 970.5Q1062 941 1043.0 907.5Q1024 874 1024 832V768H896V832Q896 892 915.0 936.5Q934 981 962.5 1017.0Q991 1053 1024.0 1082.5Q1057 1112 1085.5 1141.5Q1114 1171 1133.0 1204.0Q1152 1237 1152 1280Q1152 1320 1137.0 1355.0Q1122 1390 1096.0 1416.0Q1070 1442 1035.0 1457.0Q1000 1472 960 1472Q920 1472 885.0 1457.0Q850 1442 824.0 1416.0Q798 1390 783.0 1355.0Q768 1320 768 1280H640Q640 1346 665.0 1404.0Q690 1462 733.5 1505.5Q777 1549 835.5 1574.5Q894 1600 960 1600ZM0 1792H512V1664H128V1280H0ZM2048 1792V1280H1920V1664H1536V1792ZM1920 896H2048V384H1536V512H1920ZM128 512H512V384H0V896H128Z" transform="scale(1,-1)"/>
</svg>