<?xml version="1.0" encoding="UTF-8"?>
<svg xmlns="http://www.w3.org/2000/svg" viewBox="256 -1920 1408 1792">
  <path d="M960 1920Q1032 1920 1119.5 1912.0Q1207 1904 1294.5 1884.5Q1382 1865 1461.0 1831.0Q1540 1797 1594 1746Q1625 1717 1644.5 1680.0Q1664 1643 1664 1600V448Q1664 403 1644.5 367.5Q1625 332 1594 302Q1542 251 1462.5 217.5Q1383 184 1294.5 164.0Q1206 144 1118.0 136.0Q1030 128 960 128Q888 128 800.5 136.0Q713 144 625.5 163.5Q538 183 459.0 217.0Q380 251 326 302Q295 331 275.5 368.0Q256 405 256 448V1600Q256 1645 275.5 1680.5Q295 1716 326 1746Q378 1797 457.5 1830.5Q537 1864 625.5 1884.0Q714 1904 802.0 1912.0Q890 1920 960 1920ZM960 1792Q909 1792 853.5 1788.5Q798 1785 742.0 1776.5Q686 1768 632.5 1754.5Q579 1741 531 1722Q516 1716 491.0 1703.5Q466 1691 442.0 1675.0Q418 1659 401.0 1639.5Q384 1620 384 1600Q384 1592 387.0 1585.0Q390 1578 395 1571Q416 1539 455.5 1515.0Q495 1491 544.5 1473.0Q594 1455 650.0 1442.5Q706 1430 761.5 1422.5Q817 1415 868.5 1411.5Q920 1408 960 1408Q1000 1408 1051.5 1411.5Q1103 1415 1158.5 1422.5Q1214 1430 1270.0 1442.5Q1326 1455 1375.5 1473.0Q1425 1491 1464.0 1515.0Q1503 1539 1525 1571Q1530 1578 1533.0 1585.0Q1536 1592 1536 1600Q1536 1620 1519.0 1639.5Q1502 1659 1478.0 1675.0Q1454 1691 1429.0 1703.5Q1404 1716 1389 1722Q1341 1741 1287.5 1754.5Q1234 1768 1178.0 1776.5Q1122 1785 1066.5 1788.5Q1011 1792 960 1792ZM960 256Q1011 256 1066.5 259.5Q1122 263 1178.0 271.5Q1234 280 1287.5 293.0Q1341 306 1389 326Q1404 332 1429.0 344.5Q1454 357 1478.0 373.0Q1502 389 1519.0 408.5Q1536 428 1536 448V1410Q1479 1373 1407.0 1348.0Q1335 1323 1257.5 1308.0Q1180 1293 1103.0 1286.5Q1026 1280 960 1280Q894 1280 816.5 1286.5Q739 1293 662.0 1308.0Q585 1323 513.0 1348.0Q441 1373 384 1410V448Q384 428 401.0 408.5Q418 389 442.0 373.0Q466 357 491.0 344.5Q516 332 531 326Q579 306 632.5 293.0Q686 280 742.0 271.5Q798 263 853.5 259.5Q909 256 960 256Z" transform="scale(1,-1)"/>
</svg>