<?xml version="1.0" encoding="UTF-8"?>
<svg xmlns="http://www.w3.org/2000/svg" viewBox="0 -2048 2038 2048">
  <path d="M832 1536V1408H512V1792H640V1536ZM1085 128Q1130 57 1192 0H128V1114Q66 1191 33.0 1281.5Q0 1372 0 1472Q0 1551 20.5 1624.5Q41 1698 78.5 1762.0Q116 1826 169.0 1879.0Q222 1932 286.0 1969.5Q350 2007 423.5 2027.5Q497 2048 576 2048H1792V1022Q1731 1043 1664 1049V1920H934Q1037 1836 1094.5 1721.0Q1152 1606 1152 1472Q1152 1393 1131.5 1319.5Q1111 1246 1073.5 1182.0Q1036 1118 983.0 1065.0Q930 1012 866.0 974.5Q802 937 728.5 916.5Q655 896 576 896Q491 896 409.0 920.5Q327 945 256 993V128ZM128 1472Q128 1379 163.5 1297.5Q199 1216 259.5 1155.5Q320 1095 401.5 1059.5Q483 1024 576 1024Q669 1024 750.5 1059.5Q832 1095 892.5 1155.5Q953 1216 988.5 1297.5Q1024 1379 1024 1472Q1024 1565 988.5 1646.5Q953 1728 892.5 1788.5Q832 1849 750.5 1884.5Q669 1920 576 1920Q483 1920 401.5 1884.5Q320 1849 259.5 1788.5Q199 1728 163.5 1646.5Q128 1565 128 1472ZM1920 448Q1920 417 1914 387L2038 336L1989 217L1865 269Q1830 218 1779 183L1831 59L1712 10L1661 134Q1631 128 1600 128Q1569 128 1539 134L1488 10L1369 59L1421 183Q1370 218 1335 269L1211 217L1162 336L1286 387Q1280 417 1280 448Q1280 479 1286 509L1162 560L1211 679L1335 627Q1370 678 1421 713L1369 837L1488 886L1539 762Q1569 768 1600 768Q1631 768 1661 762L1712 886L1831 837L1779 713Q1830 678 1865 627L1989 679L2038 560L1914 509Q1920 479 1920 448ZM1792 448Q1792 488 1777.0 523.0Q1762 558 1736.0 584.0Q1710 610 1675.0 625.0Q1640 640 1600 640Q1560 640 1525.0 625.0Q1490 610 1464.0 584.0Q1438 558 1423.0 523.0Q1408 488 1408 448Q1408 408 1423.0 373.0Q1438 338 1464.0 312.0Q1490 286 1525.0 271.0Q1560 256 1600 256Q1640 256 1675.0 271.0Q1710 286 1736.0 312.0Q1762 338 1777.0 373.0Q1792 408 1792 448Z" transform="scale(1,-1)"/>
</svg>