<?xml version="1.0" encoding="UTF-8"?>
<svg xmlns="http://www.w3.org/2000/svg" viewBox="0 -2048 2048 2048">
  <path d="M2048 1536V0L896 160V1376ZM1792 344 1566 772 1786 1192 1601 1181 1489 933Q1481 916 1476.5 897.5Q1472 879 1467 862H1465Q1463 879 1456.5 896.5Q1450 914 1444 930L1348 1167L1169 1157L1359 768L1152 381L1326 371L1442 625Q1443 628 1445.5 636.0Q1448 644 1451.0 653.0Q1454 662 1456.0 670.0Q1458 678 1458 681H1460Q1462 667 1465.5 652.5Q1469 638 1474 626L1595 355ZM640 1408H768V1280H640V1024H768V896H640V629L512 757V896H128V704H0V2048H1664V1612L1536 1594V1664H1152V1541L1024 1523V1664H640ZM512 1280H128V1024H512ZM512 1664H128V1408H512ZM512 576 768 320 512 64H331L523 256H320Q254 256 195.5 281.0Q137 306 93.5 349.5Q50 393 25.0 451.5Q0 510 0 576H128Q128 536 143.0 501.0Q158 466 184.0 440.0Q210 414 245.0 399.0Q280 384 320 384H523L331 576Z" transform="scale(1,-1)"/>
</svg>