<?xml version="1.0" encoding="UTF-8"?>
<svg xmlns="http://www.w3.org/2000/svg" viewBox="0 -1664 2048 1664">
  <path d="M0 1664H128V1536H0ZM0 1280H128V1152H0ZM0 896H128V768H0ZM384 896H768V768H384ZM0 512H128V384H0ZM384 512H768V384H384ZM384 1280H768V1152H384ZM2048 1664V1536H384V1664ZM1920 1280Q1947 1280 1970.0 1270.0Q1993 1260 2010.5 1242.5Q2028 1225 2038.0 1202.0Q2048 1179 2048 1152V928Q2048 883 2038.5 850.5Q2029 818 2015.0 792.5Q2001 767 1984.0 747.0Q1967 727 1953.0 706.5Q1939 686 1929.5 662.5Q1920 639 1920 608V128Q1920 101 1910.0 78.0Q1900 55 1882.5 37.5Q1865 20 1842.0 10.0Q1819 0 1792 0H896V1280ZM1792 128V608Q1792 639 1782.5 662.5Q1773 686 1759.0 706.5Q1745 727 1728.0 747.0Q1711 767 1697.0 792.5Q1683 818 1673.5 850.5Q1664 883 1664 928V1152H1024V128ZM1920 1152H1792V928Q1792 904 1796.5 886.0Q1801 868 1809.5 852.0Q1818 836 1830.0 821.5Q1842 807 1856 790Q1870 807 1882.0 821.5Q1894 836 1902.5 852.0Q1911 868 1915.5 886.0Q1920 904 1920 928ZM1280 1024H1408V640H1280ZM1280 512H1408V384H1280Z" transform="scale(1,-1)"/>
</svg>