<?xml version="1.0" encoding="UTF-8"?>
<svg xmlns="http://www.w3.org/2000/svg" viewBox="14 -1664 2034 1280">
  <path d="M512 1024H1408V384H512ZM640 512H1280V896H640ZM2048 1536V1024H1536V1152H1846Q1765 1239 1671.5 1310.0Q1578 1381 1474.5 1431.0Q1371 1481 1258.0 1508.5Q1145 1536 1024 1536Q885 1536 756.5 1500.0Q628 1464 513.5 1399.5Q399 1335 298.5 1245.5Q198 1156 114 1049L14 1127Q106 1246 218.0 1345.0Q330 1444 457.5 1515.0Q585 1586 727.5 1625.0Q870 1664 1024 1664Q1153 1664 1276.0 1635.5Q1399 1607 1512.5 1554.5Q1626 1502 1728.5 1427.0Q1831 1352 1920 1260V1536Z" transform="scale(1,-1)"/>
</svg>