<?xml version="1.0" encoding="UTF-8"?>
<svg xmlns="http://www.w3.org/2000/svg" viewBox="0 -2048 2048 1909">
  <path d="M1726 499Q1753 434 1776.5 381.0Q1800 328 1833.5 290.5Q1867 253 1917.5 232.5Q1968 212 2048 212V139H1304V212Q1332 212 1366.5 211.5Q1401 211 1430.5 218.5Q1460 226 1480.0 246.0Q1500 266 1500 307Q1500 333 1487.0 380.5Q1474 428 1456.5 480.0Q1439 532 1420.5 580.0Q1402 628 1391 655Q1379 684 1368.0 716.0Q1357 748 1342 775H600Q583 731 554.5 669.0Q526 607 498.0 541.5Q470 476 449.5 414.0Q429 352 429 308Q429 269 449.5 250.0Q470 231 500.0 223.0Q530 215 564.0 214.0Q598 213 625 212V139H0V212Q56 222 95.0 235.5Q134 249 160.5 267.5Q187 286 205.5 309.0Q224 332 238.5 362.5Q253 393 268.0 431.0Q283 469 303 517L953 2048H1089ZM1244 988 951 1619 671 988Z" transform="scale(1,-1)"/>
</svg>