<?xml version="1.0" encoding="UTF-8"?>
<svg xmlns="http://www.w3.org/2000/svg" viewBox="128 -2048 1920 2046">
  <path d="M1664 1920H128V2048H1664ZM896 512 768 384H128V512ZM1664 1536H128V1664H1664ZM1536 1152H128V1280H1664ZM1152 768H128V896H1280ZM1848 1149Q1890 1149 1926.5 1134.5Q1963 1120 1990.0 1094.0Q2017 1068 2032.5 1032.5Q2048 997 2048 954Q2048 915 2033.0 878.0Q2018 841 1990 813L1273 96L896 2L990 379L1707 1095Q1735 1123 1772.5 1136.0Q1810 1149 1848 1149ZM1899 903Q1920 924 1920 954Q1920 986 1900.0 1004.5Q1880 1023 1848 1023Q1835 1023 1821.5 1019.0Q1808 1015 1798 1005L1106 313L1072 178L1207 212Z" transform="scale(1,-1)"/>
</svg>