<?xml version="1.0" encoding="UTF-8"?>
<svg xmlns="http://www.w3.org/2000/svg" viewBox="0 -1490 2048 932">
  <path d="M1582 1490Q1678 1490 1763.0 1453.0Q1848 1416 1911.0 1353.0Q1974 1290 2011.0 1205.0Q2048 1120 2048 1024Q2048 928 2011.0 843.0Q1974 758 1911.0 695.0Q1848 632 1763.0 595.0Q1678 558 1582 558H466Q370 558 285.0 595.0Q200 632 137.0 695.0Q74 758 37.0 843.0Q0 928 0 1024Q0 1120 37.0 1205.0Q74 1290 137.0 1353.0Q200 1416 285.0 1453.0Q370 1490 466 1490ZM1582 652Q1659 652 1727.0 681.5Q1795 711 1845.5 761.5Q1896 812 1925.5 879.5Q1955 947 1955 1024Q1955 1101 1925.5 1168.5Q1896 1236 1845.5 1286.5Q1795 1337 1727.0 1366.5Q1659 1396 1582 1396H466Q389 1396 321.0 1366.5Q253 1337 202.5 1286.5Q152 1236 122.5 1168.5Q93 1101 93 1024Q93 947 122.5 879.5Q152 812 202.5 761.5Q253 711 321.0 681.5Q389 652 466 652Z" transform="scale(1,-1)"/>
</svg>