<?xml version="1.0" encoding="UTF-8"?>
<svg xmlns="http://www.w3.org/2000/svg" viewBox="128 -2048 1920 2048">
  <path d="M1850 336Q1896 311 1932.5 275.0Q1969 239 1994.5 195.0Q2020 151 2034.0 101.5Q2048 52 2048 0H1920Q1920 53 1900.0 99.5Q1880 146 1845.0 181.0Q1810 216 1763.5 236.0Q1717 256 1664 256Q1611 256 1564.5 236.0Q1518 216 1483.0 181.0Q1448 146 1428.0 99.5Q1408 53 1408 0H1280Q1280 52 1294.0 101.5Q1308 151 1333.5 195.0Q1359 239 1395.5 275.0Q1432 311 1478 336Q1445 371 1426.5 417.0Q1408 463 1408 512Q1408 565 1428.0 611.5Q1448 658 1483.0 693.0Q1518 728 1564.5 748.0Q1611 768 1664 768Q1717 768 1763.5 748.0Q1810 728 1845.0 693.0Q1880 658 1900.0 611.5Q1920 565 1920 512Q1920 463 1901.5 417.0Q1883 371 1850 336ZM1536 512Q1536 485 1546.0 462.0Q1556 439 1573.5 421.5Q1591 404 1614.0 394.0Q1637 384 1664 384Q1691 384 1714.0 394.0Q1737 404 1754.5 421.5Q1772 439 1782.0 462.0Q1792 485 1792 512Q1792 539 1782.0 562.0Q1772 585 1754.5 602.5Q1737 620 1714.0 630.0Q1691 640 1664 640Q1637 640 1614.0 630.0Q1591 620 1573.5 602.5Q1556 585 1546.0 562.0Q1536 539 1536 512ZM1164 128Q1152 65 1152 0H128V2048H1664Q1691 2048 1714.0 2038.0Q1737 2028 1754.5 2010.5Q1772 1993 1782.0 1970.0Q1792 1947 1792 1920V1440Q1792 1395 1782.5 1362.5Q1773 1330 1759.0 1304.5Q1745 1279 1728.0 1259.0Q1711 1239 1697.0 1218.5Q1683 1198 1673.5 1174.5Q1664 1151 1664 1120V928Q1599 928 1536 908V1120Q1536 1151 1526.5 1174.5Q1517 1198 1503.0 1218.5Q1489 1239 1472.0 1259.0Q1455 1279 1441.0 1304.5Q1427 1330 1417.5 1362.5Q1408 1395 1408 1440V1920H256V128ZM1664 1920H1536V1440Q1536 1416 1540.5 1398.0Q1545 1380 1553.5 1365.0Q1562 1350 1573.5 1335.5Q1585 1321 1600 1304Q1615 1321 1626.5 1335.5Q1638 1350 1646.5 1365.0Q1655 1380 1659.5 1398.0Q1664 1416 1664 1440Z" transform="scale(1,-1)"/>
</svg>