<?xml version="1.0" encoding="UTF-8"?>
<svg xmlns="http://www.w3.org/2000/svg" viewBox="0 -1792 2048 1755">
  <path d="M2048 1792V512H731L256 37V512H0V1792ZM1920 1664H128V640H384V347L677 640H1920ZM512 1024Q485 1024 462.0 1034.0Q439 1044 421.5 1061.5Q404 1079 394.0 1102.0Q384 1125 384 1152Q384 1179 394.0 1202.0Q404 1225 421.5 1242.5Q439 1260 462.0 1270.0Q485 1280 512 1280Q539 1280 562.0 1270.0Q585 1260 602.5 1242.5Q620 1225 630.0 1202.0Q640 1179 640 1152Q640 1125 630.0 1102.0Q620 1079 602.5 1061.5Q585 1044 562.0 1034.0Q539 1024 512 1024ZM1024 1024Q997 1024 974.0 1034.0Q951 1044 933.5 1061.5Q916 1079 906.0 1102.0Q896 1125 896 1152Q896 1179 906.0 1202.0Q916 1225 933.5 1242.5Q951 1260 974.0 1270.0Q997 1280 1024 1280Q1051 1280 1074.0 1270.0Q1097 1260 1114.5 1242.5Q1132 1225 1142.0 1202.0Q1152 1179 1152 1152Q1152 1125 1142.0 1102.0Q1132 1079 1114.5 1061.5Q1097 1044 1074.0 1034.0Q1051 1024 1024 1024ZM1536 1024Q1509 1024 1486.0 1034.0Q1463 1044 1445.5 1061.5Q1428 1079 1418.0 1102.0Q1408 1125 1408 1152Q1408 1179 1418.0 1202.0Q1428 1225 1445.5 1242.5Q1463 1260 1486.0 1270.0Q1509 1280 1536 1280Q1563 1280 1586.0 1270.0Q1609 1260 1626.5 1242.5Q1644 1225 1654.0 1202.0Q1664 1179 1664 1152Q1664 1125 1654.0 1102.0Q1644 1079 1626.5 1061.5Q1609 1044 1586.0 1034.0Q1563 1024 1536 1024Z" transform="scale(1,-1)"/>
</svg>