<?xml version="1.0" encoding="UTF-8"?>
<svg xmlns="http://www.w3.org/2000/svg" viewBox="7 -1920 2013 1664">
  <path d="M2020 1088Q2020 1032 1983 990L1386 307Q1365 283 1335.0 269.5Q1305 256 1273 256H156Q125 256 98.0 268.0Q71 280 50.5 300.0Q30 320 18.5 347.5Q7 375 7 406Q7 462 44 504L555 1088L44 1672Q7 1714 7 1770Q7 1801 18.5 1828.5Q30 1856 50.5 1876.0Q71 1896 98.0 1908.0Q125 1920 156 1920H1273Q1305 1920 1335.0 1906.5Q1365 1893 1386 1869L1983 1186Q2020 1144 2020 1088ZM640 1185 1167 1792H156Q147 1792 141.0 1785.5Q135 1779 135 1770Q135 1764 140 1757ZM156 384H633L1581 1451L1310 1761Q1018 1425 725.5 1089.5Q433 754 140 419Q135 412 135 406Q135 397 141.0 390.5Q147 384 156 384ZM1892 1088Q1892 1095 1887 1102L1666 1354L804 384H1273Q1282 384 1289 391L1887 1074Q1892 1081 1892 1088Z" transform="scale(1,-1)"/>
</svg>