<?xml version="1.0" encoding="UTF-8"?>
<svg xmlns="http://www.w3.org/2000/svg" viewBox="0 -2048 2048 2048">
  <path d="M1472 896Q1449 896 1425.5 897.5Q1402 899 1379 904L573 98Q525 50 464.0 25.0Q403 0 335 0Q266 0 205.0 26.5Q144 53 98.5 98.5Q53 144 26.5 205.0Q0 266 0 335Q0 402 25.0 463.5Q50 525 98 573L904 1379Q899 1402 897.5 1425.5Q896 1449 896 1472Q896 1591 941.5 1696.0Q987 1801 1065.0 1879.0Q1143 1957 1248.0 2002.5Q1353 2048 1472 2048Q1527 2048 1572.0 2039.5Q1617 2031 1659.0 2015.0Q1701 1999 1741.5 1977.5Q1782 1956 1828 1930L1434 1536L1536 1434L1930 1828Q1956 1783 1977.5 1742.0Q1999 1701 2015.0 1659.0Q2031 1617 2039.5 1571.5Q2048 1526 2048 1472Q2048 1393 2027.5 1319.5Q2007 1246 1969.5 1182.0Q1932 1118 1879.0 1065.0Q1826 1012 1762.0 974.5Q1698 937 1624.5 916.5Q1551 896 1472 896ZM1338 1044Q1371 1036 1404.0 1030.0Q1437 1024 1472 1024Q1565 1024 1646.5 1059.5Q1728 1095 1788.5 1155.5Q1849 1216 1884.5 1297.5Q1920 1379 1920 1472Q1920 1545 1896 1613L1536 1254L1254 1536L1613 1896Q1545 1920 1472 1920Q1379 1920 1297.5 1884.5Q1216 1849 1155.5 1788.5Q1095 1728 1059.5 1646.5Q1024 1565 1024 1472Q1024 1437 1030.0 1404.0Q1036 1371 1044 1338L189 482Q160 453 144.0 415.0Q128 377 128 335Q128 293 144.5 255.0Q161 217 189.0 189.0Q217 161 255.0 144.5Q293 128 335 128Q377 128 415.0 144.0Q453 160 482 189ZM1792 640V384H2048V256H1792V0H1664V256H1408V384H1664V640Z" transform="scale(1,-1)"/>
</svg>