<?xml version="1.0" encoding="UTF-8"?>
<svg xmlns="http://www.w3.org/2000/svg" viewBox="0 -1536 2048 896">
  <path d="M1600 1536Q1693 1536 1774.5 1500.5Q1856 1465 1916.5 1404.5Q1977 1344 2012.5 1262.5Q2048 1181 2048 1088Q2048 995 2012.5 913.5Q1977 832 1916.5 771.5Q1856 711 1774.5 675.5Q1693 640 1600 640H448Q355 640 273.5 675.5Q192 711 131.5 771.5Q71 832 35.5 913.5Q0 995 0 1088Q0 1181 35.5 1262.5Q71 1344 131.5 1404.5Q192 1465 273.5 1500.5Q355 1536 448 1536Q541 1536 622.5 1500.5Q704 1465 764.5 1404.5Q825 1344 860.5 1262.5Q896 1181 896 1088Q896 1067 891.5 1037.5Q887 1008 879.0 976.5Q871 945 859.0 912.5Q847 880 832.0 851.5Q817 823 799.0 801.0Q781 779 761 768H1287Q1267 779 1249.0 801.0Q1231 823 1216.0 851.5Q1201 880 1189.0 912.5Q1177 945 1169.0 976.5Q1161 1008 1156.5 1037.0Q1152 1066 1152 1088Q1152 1181 1187.5 1262.5Q1223 1344 1283.5 1404.5Q1344 1465 1425.5 1500.5Q1507 1536 1600 1536ZM128 1088Q128 1022 153.5 964.0Q179 906 222.5 862.5Q266 819 324.0 793.5Q382 768 448 768Q514 768 572.0 793.5Q630 819 673.5 862.5Q717 906 742.5 964.0Q768 1022 768 1088Q768 1154 742.5 1212.0Q717 1270 673.5 1313.5Q630 1357 572.0 1382.5Q514 1408 448 1408Q382 1408 324.0 1382.5Q266 1357 222.5 1313.5Q179 1270 153.5 1212.0Q128 1154 128 1088ZM1600 768Q1666 768 1724.0 793.5Q1782 819 1825.5 862.5Q1869 906 1894.5 964.0Q1920 1022 1920 1088Q1920 1154 1894.5 1212.0Q1869 1270 1825.5 1313.5Q1782 1357 1724.0 1382.5Q1666 1408 1600 1408Q1534 1408 1476.0 1382.5Q1418 1357 1374.5 1313.5Q1331 1270 1305.5 1212.0Q1280 1154 1280 1088Q1280 1022 1305.5 964.0Q1331 906 1374.5 862.5Q1418 819 1476.0 793.5Q1534 768 1600 768Z" transform="scale(1,-1)"/>
</svg>