<?xml version="1.0" encoding="UTF-8"?>
<svg xmlns="http://www.w3.org/2000/svg" viewBox="0 -2048 2048 2048">
  <path d="M1972 1062 2016 895 1024 640 980 807ZM1024 640H2048V128Q2048 101 2038.0 78.0Q2028 55 2010.5 37.5Q1993 20 1970.0 10.0Q1947 0 1920 0H1152Q1126 0 1102.5 10.0Q1079 20 1061.5 37.5Q1044 55 1034.0 78.5Q1024 102 1024 128ZM1920 128V512H1152V128ZM1280 1536Q1280 1430 1239.5 1337.0Q1199 1244 1129.5 1174.5Q1060 1105 967.0 1064.5Q874 1024 768 1024Q680 1024 598.0 1001.0Q516 978 445.0 936.5Q374 895 315.5 836.5Q257 778 215.5 707.0Q174 636 151.0 554.0Q128 472 128 384H0Q0 504 36.0 615.5Q72 727 137.5 821.0Q203 915 295.0 987.5Q387 1060 499 1102Q443 1137 398.0 1184.5Q353 1232 321.5 1288.0Q290 1344 273.0 1407.0Q256 1470 256 1536Q256 1642 296.5 1735.0Q337 1828 406.5 1897.5Q476 1967 569.0 2007.5Q662 2048 768 2048Q874 2048 967.0 2007.5Q1060 1967 1129.5 1897.5Q1199 1828 1239.5 1735.0Q1280 1642 1280 1536ZM768 1152Q847 1152 917.0 1182.0Q987 1212 1039.5 1264.5Q1092 1317 1122.0 1386.5Q1152 1456 1152 1536Q1152 1615 1122.0 1685.0Q1092 1755 1039.5 1807.5Q987 1860 917.0 1890.0Q847 1920 768 1920Q688 1920 618.5 1890.0Q549 1860 496.5 1807.5Q444 1755 414.0 1685.0Q384 1615 384 1536Q384 1456 414.0 1386.5Q444 1317 496.5 1264.5Q549 1212 618.5 1182.0Q688 1152 768 1152Z" transform="scale(1,-1)"/>
</svg>