<?xml version="1.0" encoding="UTF-8"?>
<svg xmlns="http://www.w3.org/2000/svg" viewBox="0 -2048 1920 1920">
  <path d="M960 2048Q1092 2048 1214.5 2013.5Q1337 1979 1444.0 1916.5Q1551 1854 1638.5 1766.5Q1726 1679 1788.5 1572.0Q1851 1465 1885.5 1342.5Q1920 1220 1920 1088Q1920 956 1885.5 833.5Q1851 711 1788.5 604.0Q1726 497 1638.5 409.5Q1551 322 1444.0 259.5Q1337 197 1214.5 162.5Q1092 128 960 128Q828 128 705.5 162.5Q583 197 476.0 259.5Q369 322 281.5 409.5Q194 497 131.5 604.0Q69 711 34.5 833.5Q0 956 0 1088Q0 1220 34.5 1342.5Q69 1465 131.5 1572.0Q194 1679 281.5 1766.5Q369 1854 476.0 1916.5Q583 1979 705.5 2013.5Q828 2048 960 2048ZM960 256Q1075 256 1181.0 286.0Q1287 316 1379.5 370.0Q1472 424 1548.0 500.0Q1624 576 1678.0 668.5Q1732 761 1762.0 867.0Q1792 973 1792 1088Q1792 1203 1762.0 1309.0Q1732 1415 1678.0 1507.5Q1624 1600 1548.0 1676.0Q1472 1752 1379.5 1806.0Q1287 1860 1181.0 1890.0Q1075 1920 960 1920Q845 1920 739.0 1890.0Q633 1860 540.5 1806.0Q448 1752 372.0 1676.0Q296 1600 242.0 1507.5Q188 1415 158.0 1309.0Q128 1203 128 1088Q128 973 158.0 867.0Q188 761 242.0 668.5Q296 576 372.0 500.0Q448 424 540.5 370.0Q633 316 739.0 286.0Q845 256 960 256ZM1132 1172Q1152 1132 1152 1088Q1152 1048 1137.0 1013.0Q1122 978 1096.0 952.0Q1070 926 1035.0 911.0Q1000 896 960 896Q920 896 885.0 911.0Q850 926 824.0 952.0Q798 978 783.0 1013.0Q768 1048 768 1088Q768 1128 783.0 1163.0Q798 1198 824.0 1224.0Q850 1250 885.0 1265.0Q920 1280 960 1280Q1004 1280 1044 1260L1043 1261L1411 1629L1501 1539L1133 1171ZM960 1024Q986 1024 1005.0 1043.0Q1024 1062 1024 1088Q1024 1114 1005.0 1133.0Q986 1152 960 1152Q934 1152 915.0 1133.0Q896 1114 896 1088Q896 1062 915.0 1043.0Q934 1024 960 1024ZM1600 1376Q1631 1308 1646.5 1235.5Q1662 1163 1662 1088Q1662 948 1609.5 818.5Q1557 689 1458 590L1367 681Q1448 762 1492.0 866.0Q1536 970 1536 1085Q1536 1209 1484 1324ZM1196 1612Q1081 1664 957 1664Q878 1664 805.0 1643.5Q732 1623 668.0 1585.0Q604 1547 552.0 1494.5Q500 1442 462.5 1378.0Q425 1314 404.5 1240.5Q384 1167 384 1088Q384 973 428.0 867.5Q472 762 553 681L462 590Q362 690 309.0 818.5Q256 947 256 1088Q256 1185 281.0 1275.0Q306 1365 352.0 1443.0Q398 1521 462.0 1585.0Q526 1649 604.0 1694.5Q682 1740 772.0 1765.0Q862 1790 960 1790Q1035 1790 1107.5 1774.5Q1180 1759 1248 1728Z" transform="scale(1,-1)"/>
</svg>