<?xml version="1.0" encoding="UTF-8"?>
<svg xmlns="http://www.w3.org/2000/svg" viewBox="0 -1920 2048 1920">
  <path d="M1792 1024V768H2048V0H1024V768H1280V1024ZM1408 896V768H1664V896ZM1920 128V384H1792V256H1664V384H1408V256H1280V384H1152V128ZM1920 640H1152V512H1920ZM1907 1920Q1936 1920 1961.5 1909.0Q1987 1898 2006.5 1878.5Q2026 1859 2037.0 1833.5Q2048 1808 2048 1779V1293Q2048 1272 2042.0 1246.0Q2036 1220 2022 1203L1920 1084V1152H1810L1920 1280V1779Q1915 1784 1908.0 1788.0Q1901 1792 1894 1792H1382L1113 1472L1404 1152H1233L1024 1382L525 832L896 401V221L38 1203Q18 1225 9.0 1243.5Q0 1262 0 1293V1779Q0 1808 11.0 1833.5Q22 1859 41.5 1878.5Q61 1898 86.5 1909.0Q112 1920 141 1920H640Q677 1920 703.5 1908.0Q730 1896 755 1869L1024 1574L1306 1869Q1319 1882 1329.0 1892.0Q1339 1902 1349.5 1908.0Q1360 1914 1374.0 1917.0Q1388 1920 1408 1920ZM448 922 934 1485 653 1792H141L128 1779V1293Z" transform="scale(1,-1)"/>
</svg>