<?xml version="1.0" encoding="UTF-8"?>
<svg xmlns="http://www.w3.org/2000/svg" viewBox="0 -2048 2048 2048">
  <path d="M1024 2048Q1165 2048 1296.0 2011.5Q1427 1975 1541.0 1908.5Q1655 1842 1748.5 1748.5Q1842 1655 1908.5 1541.0Q1975 1427 2011.5 1296.0Q2048 1165 2048 1024Q2048 883 2011.5 752.0Q1975 621 1908.5 507.0Q1842 393 1748.5 299.5Q1655 206 1541.0 139.5Q1427 73 1296.0 36.5Q1165 0 1024 0Q883 0 752.0 36.5Q621 73 507.0 139.5Q393 206 299.5 299.5Q206 393 139.5 507.0Q73 621 36.5 751.5Q0 882 0 1024Q0 1165 36.5 1296.0Q73 1427 139.5 1541.0Q206 1655 299.5 1748.5Q393 1842 507.0 1908.5Q621 1975 751.5 2011.5Q882 2048 1024 2048ZM1920 1024Q1920 1096 1908.5 1167.0Q1897 1238 1874 1307Q1813 1287 1752.5 1267.0Q1692 1247 1631 1227Q1664 1129 1664 1024Q1664 918 1631 821L1874 741Q1897 810 1908.5 881.0Q1920 952 1920 1024ZM128 1024Q128 952 139.5 881.0Q151 810 174 741Q235 761 295.5 781.0Q356 801 417 821Q384 918 384 1024Q384 1129 417 1227L174 1307Q151 1238 139.5 1167.0Q128 1096 128 1024ZM512 1024Q512 918 552.5 825.0Q593 732 662.5 662.5Q732 593 825.0 552.5Q918 512 1024 512Q1130 512 1223.0 552.5Q1316 593 1385.5 662.5Q1455 732 1495.5 825.0Q1536 918 1536 1024Q1536 1130 1495.5 1223.0Q1455 1316 1385.5 1385.5Q1316 1455 1223.0 1495.5Q1130 1536 1024 1536Q918 1536 825.0 1495.5Q732 1455 662.5 1385.5Q593 1316 552.5 1223.0Q512 1130 512 1024ZM1307 1874Q1238 1897 1167.0 1908.5Q1096 1920 1024 1920Q952 1920 881.0 1908.5Q810 1897 741 1874Q761 1813 781.0 1752.5Q801 1692 821 1631Q918 1664 1024 1664Q1129 1664 1227 1631ZM741 174Q810 151 881.0 139.5Q952 128 1024 128Q1096 128 1167.0 139.5Q1238 151 1307 174Q1287 235 1267.0 295.5Q1247 356 1227 417Q1129 384 1024 384Q918 384 821 417Z" transform="scale(1,-1)"/>
</svg>