<?xml version="1.0" encoding="UTF-8"?>
<svg xmlns="http://www.w3.org/2000/svg" viewBox="128 -1920 1792 1792">
  <path d="M1024 256Q1123 256 1218.5 281.0Q1314 306 1400 355L1463 244Q1362 187 1251.0 157.5Q1140 128 1024 128Q886 128 755.5 169.5Q625 211 512 289V128H384V512H768V384H600Q694 321 802.0 288.5Q910 256 1024 256ZM1920 1024Q1920 886 1878.5 755.5Q1837 625 1759 512H1920V384H1536V768H1664V600Q1727 694 1759.5 802.0Q1792 910 1792 1024Q1792 1123 1767.0 1218.5Q1742 1314 1693 1400L1804 1463Q1861 1362 1890.5 1251.0Q1920 1140 1920 1024ZM384 1447Q321 1353 288.5 1245.0Q256 1137 256 1024Q256 925 281.0 829.5Q306 734 355 648L244 585Q187 686 157.5 797.0Q128 908 128 1024Q128 1162 169.5 1292.5Q211 1423 290 1536H128V1664H512V1280H384ZM1024 1792Q923 1792 827.0 1766.5Q731 1741 643 1690L580 1801Q682 1859 794.0 1889.5Q906 1920 1024 1920Q1162 1920 1292.5 1878.5Q1423 1837 1536 1759V1920H1664V1536H1280V1664H1448Q1354 1727 1246.0 1759.5Q1138 1792 1024 1792Z" transform="scale(1,-1)"/>
</svg>