<?xml version="1.0" encoding="UTF-8"?>
<svg xmlns="http://www.w3.org/2000/svg" viewBox="64 -1992 1920 1936">
  <path d="M1280 768H1536V384H1280ZM1984 1664V1216H1600V1664ZM1280 1664H1536V832H1280ZM1600 1152H1984V384H1600ZM761 1042Q761 999 752.5 951.5Q744 904 723.0 864.5Q702 825 667.0 799.5Q632 774 578 774Q559 774 540.5 774.5Q522 775 503 776V1286Q522 1288 540.5 1289.0Q559 1290 579 1290Q631 1290 666.0 1267.5Q701 1245 722.0 1209.5Q743 1174 752.0 1130.0Q761 1086 761 1042ZM64 1785 1216 1992V56L64 257ZM376 639Q433 634 490.0 628.5Q547 623 604 623Q661 623 706.5 641.0Q752 659 786.5 689.5Q821 720 845.5 761.5Q870 803 886.0 850.0Q902 897 909.0 947.0Q916 997 916 1045Q916 1121 903.0 1192.5Q890 1264 856.5 1319.5Q823 1375 765.5 1408.5Q708 1442 620 1442Q559 1442 497.5 1434.5Q436 1427 376 1422Z" transform="scale(1,-1)"/>
</svg>