<?xml version="1.0" encoding="UTF-8"?>
<svg xmlns="http://www.w3.org/2000/svg" viewBox="11 -2037 2026 1870">
  <path d="M2037 1792Q2037 1744 2019.0 1699.0Q2001 1654 1966 1619L1627 1280L1747 1160Q1774 1133 1788.5 1097.5Q1803 1062 1803 1024Q1803 986 1788.5 950.5Q1774 915 1747 888Q1721 862 1694.5 834.0Q1668 806 1640 783L888 167L11 1191L114 1214Q197 1233 261.0 1251.5Q325 1270 377.5 1292.0Q430 1314 474.0 1341.5Q518 1369 561.0 1406.0Q604 1443 649.0 1490.5Q694 1538 748 1601Q781 1639 816.5 1675.0Q852 1711 888 1747Q915 1774 950.5 1788.5Q986 1803 1024 1803Q1062 1803 1097.5 1788.5Q1133 1774 1160 1747L1280 1627L1619 1966Q1654 2001 1699.0 2019.0Q1744 2037 1792 2037Q1843 2037 1887.5 2018.0Q1932 1999 1965.5 1965.5Q1999 1932 2018.0 1887.5Q2037 1843 2037 1792ZM244 1115 331 1013 1318 684 1505 837 835 1506Q786 1449 743.5 1404.0Q701 1359 660.0 1322.0Q619 1285 576.5 1255.5Q534 1226 484.5 1201.5Q435 1177 376.5 1156.0Q318 1135 244 1115ZM493 824 904 345 1201 588ZM1909 1792Q1909 1816 1899.5 1837.5Q1890 1859 1874.5 1874.5Q1859 1890 1837.5 1899.5Q1816 1909 1792 1909Q1744 1909 1710 1875L1280 1445L1069 1656Q1050 1675 1024 1675Q1008 1675 994.0 1667.0Q980 1659 967.0 1647.0Q954 1635 943.0 1622.0Q932 1609 922 1600L1600 922Q1609 932 1622.0 943.0Q1635 954 1647.0 967.0Q1659 980 1667.0 994.0Q1675 1008 1675 1024Q1675 1050 1656 1069L1445 1280L1875 1710Q1909 1744 1909 1792Z" transform="scale(1,-1)"/>
</svg>