<?xml version="1.0" encoding="UTF-8"?>
<svg xmlns="http://www.w3.org/2000/svg" viewBox="0 -2047 2048 2047">
  <path d="M1174 1502 1336 1664H256V640H0V768H128V1792H1336L1172 1956L1262 2047L1581 1728L1264 1411ZM1601 895 2048 448 1600 0 1510 90 1803 384H1279Q1200 384 1130.0 414.0Q1060 444 1008.0 496.0Q956 548 926.0 618.0Q896 688 896 767V896H1024V767Q1024 714 1044.0 667.5Q1064 621 1098.5 586.5Q1133 552 1179.5 532.0Q1226 512 1279 512H1803L1511 805ZM1152 768V1152H768V768H640V1024H384V1536H1024V1280H1280V768ZM896 1280V1408H512V1152H640V1280Z" transform="scale(1,-1)"/>
</svg>