<?xml version="1.0" encoding="UTF-8"?>
<svg xmlns="http://www.w3.org/2000/svg" viewBox="0 -2048 2048 2048">
  <path d="M1031 2048Q1174 2048 1305.0 2011.5Q1436 1975 1549.0 1908.5Q1662 1842 1754.0 1748.0Q1846 1654 1911.5 1540.0Q1977 1426 2012.5 1295.0Q2048 1164 2048 1022Q2048 882 2011.5 752.0Q1975 622 1909.0 508.5Q1843 395 1750.0 301.0Q1657 207 1544.0 140.5Q1431 74 1301.0 37.0Q1171 0 1031 0Q891 0 760.0 36.5Q629 73 514.5 140.0Q400 207 305.5 300.5Q211 394 143.0 507.5Q75 621 37.5 751.0Q0 881 0 1022Q0 1165 37.0 1296.5Q74 1428 141.0 1542.0Q208 1656 302.0 1749.0Q396 1842 510.5 1908.5Q625 1975 756.5 2011.5Q888 2048 1031 2048Z" transform="scale(1,-1)"/>
</svg>