<?xml version="1.0" encoding="UTF-8"?>
<svg xmlns="http://www.w3.org/2000/svg" viewBox="0 -2048 2048 1792">
  <path d="M1856 1408Q1895 1408 1930.0 1393.0Q1965 1378 1991.5 1352.0Q2018 1326 2033.0 1291.0Q2048 1256 2048 1216Q2048 1184 2038 1155L1782 387Q1772 358 1754.0 333.5Q1736 309 1712.0 292.0Q1688 275 1659.5 265.5Q1631 256 1600 256H1088Q909 256 743 325Q671 354 598.5 369.0Q526 384 448 384H0V1280H417Q482 1280 539.5 1304.0Q597 1328 643 1374L1265 1995Q1290 2020 1315.0 2034.0Q1340 2048 1376 2048Q1409 2048 1438.0 2035.5Q1467 2023 1489.0 2001.0Q1511 1979 1523.5 1950.0Q1536 1921 1536 1888Q1536 1807 1518.0 1733.5Q1500 1660 1465 1588Q1445 1545 1431.0 1500.5Q1417 1456 1412 1408ZM1600 384Q1620 384 1637.0 396.0Q1654 408 1661 428Q1666 442 1679.5 482.0Q1693 522 1712.0 578.5Q1731 635 1754.0 702.5Q1777 770 1800.0 839.0Q1823 908 1844.5 973.5Q1866 1039 1883.0 1091.5Q1900 1144 1910.0 1177.5Q1920 1211 1920 1216Q1920 1242 1901.0 1261.0Q1882 1280 1856 1280H1280Q1280 1333 1282.5 1378.5Q1285 1424 1292.5 1467.0Q1300 1510 1314.0 1553.0Q1328 1596 1351 1644Q1379 1702 1393.5 1762.5Q1408 1823 1408 1888Q1408 1902 1399.0 1911.0Q1390 1920 1376 1920Q1370 1920 1365.5 1915.5Q1361 1911 1357 1907L734 1283Q702 1251 665.5 1227.0Q629 1203 588 1186Q508 1152 417 1152H128V512H448Q626 512 793 443Q937 384 1088 384Z" transform="scale(1,-1)"/>
</svg>