<?xml version="1.0" encoding="UTF-8"?>
<svg xmlns="http://www.w3.org/2000/svg" viewBox="128 -1920 1792 1792">
  <path d="M128 1562 794 896 128 230ZM256 538 614 896 256 1254ZM1792 1792V256H1920V128H1280V256H1408V1024H1216Q1123 1024 1041.5 1059.0Q960 1094 899.0 1155.0Q838 1216 803.0 1297.5Q768 1379 768 1472Q768 1565 803.0 1646.5Q838 1728 899.0 1789.0Q960 1850 1041.5 1885.0Q1123 1920 1216 1920H1920V1792ZM1408 1152V1792H1216Q1150 1792 1091.5 1766.5Q1033 1741 989.5 1697.5Q946 1654 921.0 1596.0Q896 1538 896 1472Q896 1406 921.0 1347.5Q946 1289 989.5 1245.5Q1033 1202 1091.5 1177.0Q1150 1152 1216 1152ZM1664 256V1792H1536V256Z" transform="scale(1,-1)"/>
</svg>