<?xml version="1.0" encoding="UTF-8"?>
<svg xmlns="http://www.w3.org/2000/svg" viewBox="0 -1664 2048 1664">
  <path d="M2048 1664V896Q2036 919 2021.5 945.0Q2007 971 1990.5 996.5Q1974 1022 1956.0 1046.0Q1938 1070 1920 1088V1408L1024 960L128 1408V512H1088L1152 384H0V1664ZM1905 1536H143L1024 1095ZM1808 461Q1863 432 1907.5 389.5Q1952 347 1983.5 295.5Q2015 244 2031.5 185.5Q2048 127 2048 64V0H1920V64Q1920 130 1894.5 188.0Q1869 246 1825.5 289.5Q1782 333 1724.0 358.5Q1666 384 1600 384Q1534 384 1475.5 358.5Q1417 333 1373.5 289.5Q1330 246 1305.0 188.0Q1280 130 1280 64V0H1152V64Q1152 127 1168.5 185.5Q1185 244 1216.5 295.5Q1248 347 1292.0 389.5Q1336 432 1392 461Q1338 507 1309.0 570.5Q1280 634 1280 704Q1280 770 1305.0 828.0Q1330 886 1373.5 929.5Q1417 973 1475.5 998.5Q1534 1024 1600 1024Q1666 1024 1724.0 998.5Q1782 973 1825.5 929.5Q1869 886 1894.5 828.0Q1920 770 1920 704Q1920 634 1891.0 570.5Q1862 507 1808 461ZM1408 704Q1408 664 1423.0 629.0Q1438 594 1464.0 568.0Q1490 542 1525.0 527.0Q1560 512 1600 512Q1640 512 1675.0 527.0Q1710 542 1736.0 568.0Q1762 594 1777.0 629.0Q1792 664 1792 704Q1792 744 1777.0 779.0Q1762 814 1736.0 840.0Q1710 866 1675.0 881.0Q1640 896 1600 896Q1560 896 1525.0 881.0Q1490 866 1464.0 840.0Q1438 814 1423.0 779.0Q1408 744 1408 704Z" transform="scale(1,-1)"/>
</svg>