<?xml version="1.0" encoding="UTF-8"?>
<svg xmlns="http://www.w3.org/2000/svg" viewBox="0 -1792 2048 1792">
  <path d="M1920 938Q1983 861 2015.5 768.5Q2048 676 2048 576Q2048 457 2002.5 352.0Q1957 247 1879.0 169.0Q1801 91 1696.0 45.5Q1591 0 1472 0Q1353 0 1248.0 45.5Q1143 91 1065.0 169.0Q987 247 941.5 352.0Q896 457 896 576Q896 676 929 768H0V1792H256V1664H128V1408H896V1664H768V1792H1152V1664H1024V1408H1792V1664H1664V1792H1920ZM993 896Q1033 956 1086.0 1003.5Q1139 1051 1200.5 1084.0Q1262 1117 1331.0 1134.5Q1400 1152 1472 1152Q1558 1152 1639.0 1127.5Q1720 1103 1792 1055V1280H128V896ZM1472 128Q1565 128 1646.5 163.5Q1728 199 1788.5 259.5Q1849 320 1884.5 401.5Q1920 483 1920 576Q1920 669 1884.5 750.5Q1849 832 1788.5 892.5Q1728 953 1646.5 988.5Q1565 1024 1472 1024Q1379 1024 1297.5 988.5Q1216 953 1155.5 892.5Q1095 832 1059.5 750.5Q1024 669 1024 576Q1024 483 1059.5 401.5Q1095 320 1155.5 259.5Q1216 199 1297.5 163.5Q1379 128 1472 128ZM1536 640H1728V512H1408V896H1536Z" transform="scale(1,-1)"/>
</svg>