<?xml version="1.0" encoding="UTF-8"?>
<svg xmlns="http://www.w3.org/2000/svg" viewBox="0 -1664 1920 1664">
  <path d="M576 1152Q695 1152 800.0 1106.5Q905 1061 983.0 983.0Q1061 905 1106.5 800.0Q1152 695 1152 576Q1152 457 1106.5 352.0Q1061 247 983.0 169.0Q905 91 800.0 45.5Q695 0 576 0Q457 0 352.0 45.5Q247 91 169.0 169.0Q91 247 45.5 352.0Q0 457 0 576Q0 695 45.5 800.0Q91 905 169.0 983.0Q247 1061 352.0 1106.5Q457 1152 576 1152ZM1040 576Q1040 672 1003.5 756.5Q967 841 904.0 904.0Q841 967 756.5 1003.5Q672 1040 576 1040Q480 1040 395.5 1003.5Q311 967 248.0 904.0Q185 841 148.5 756.5Q112 672 112 576Q112 480 148.5 395.5Q185 311 248.0 248.0Q311 185 395.5 148.5Q480 112 576 112Q672 112 756.5 148.5Q841 185 904.0 248.0Q967 311 1003.5 395.5Q1040 480 1040 576ZM845 755 666 576 845 397 755 307 576 485 397 307 307 397 485 576 307 755 397 845 576 666 755 845ZM1728 512Q1768 512 1803.0 497.0Q1838 482 1864.0 456.0Q1890 430 1905.0 395.0Q1920 360 1920 320Q1920 280 1905.0 245.0Q1890 210 1864.0 184.0Q1838 158 1803.0 143.0Q1768 128 1728 128Q1688 128 1653.0 143.0Q1618 158 1592.0 184.0Q1566 210 1551.0 245.0Q1536 280 1536 320Q1536 360 1551.0 395.0Q1566 430 1592.0 456.0Q1618 482 1653.0 497.0Q1688 512 1728 512ZM873 1249Q980 1349 1102.0 1426.0Q1224 1503 1357.0 1556.0Q1490 1609 1631.5 1636.5Q1773 1664 1920 1664V1536Q1661 1536 1423.0 1445.0Q1185 1354 991 1183Q935 1223 873 1249ZM1240 892Q1226 921 1209.5 949.5Q1193 978 1174 1004Q1331 1138 1522.0 1209.0Q1713 1280 1920 1280V1152Q1731 1152 1556.5 1085.0Q1382 1018 1240 892ZM1311 594Q1366 665 1434.0 721.0Q1502 777 1580.0 816.0Q1658 855 1744.0 875.5Q1830 896 1920 896V768Q1832 768 1750.0 745.0Q1668 722 1597.0 680.5Q1526 639 1467.5 580.5Q1409 522 1367.5 451.0Q1326 380 1303.0 298.0Q1280 216 1280 128H1159Q1234 225 1273.0 339.5Q1312 454 1312 576Q1312 581 1311.5 585.0Q1311 589 1311 594Z" transform="scale(1,-1)"/>
</svg>