<?xml version="1.0" encoding="UTF-8"?>
<svg xmlns="http://www.w3.org/2000/svg" viewBox="384 -2048 1280 2048">
  <path d="M1024 2048Q1112 2048 1194.0 2025.0Q1276 2002 1347.0 1960.5Q1418 1919 1476.5 1860.5Q1535 1802 1576.5 1731.0Q1618 1660 1641.0 1578.0Q1664 1496 1664 1408Q1664 1339 1647.5 1276.5Q1631 1214 1600 1152L1024 0L448 1152Q417 1214 400.5 1276.5Q384 1339 384 1408Q384 1496 407.0 1578.0Q430 1660 471.5 1731.0Q513 1802 571.5 1860.5Q630 1919 701.0 1960.5Q772 2002 854.0 2025.0Q936 2048 1024 2048ZM1486 1211Q1510 1257 1523.0 1306.5Q1536 1356 1536 1408Q1536 1514 1496.0 1607.5Q1456 1701 1386.5 1770.5Q1317 1840 1223.5 1880.0Q1130 1920 1024 1920Q918 1920 824.5 1880.0Q731 1840 661.5 1770.5Q592 1701 552.0 1607.5Q512 1514 512 1408Q512 1356 525.0 1306.5Q538 1257 562 1211Q562 1210 562.5 1210.0Q563 1210 563 1209L1024 286L1486 1210ZM1024 1792Q1103 1792 1173.0 1762.0Q1243 1732 1295.5 1679.5Q1348 1627 1378.0 1557.0Q1408 1487 1408 1408Q1408 1328 1378.0 1258.5Q1348 1189 1295.5 1136.5Q1243 1084 1173.0 1054.0Q1103 1024 1024 1024Q944 1024 874.5 1054.0Q805 1084 752.5 1136.5Q700 1189 670.0 1258.5Q640 1328 640 1408Q640 1487 670.0 1557.0Q700 1627 752.5 1679.5Q805 1732 874.5 1762.0Q944 1792 1024 1792ZM1024 1152Q1077 1152 1123.5 1172.0Q1170 1192 1205.0 1227.0Q1240 1262 1260.0 1308.5Q1280 1355 1280 1408Q1280 1461 1260.0 1507.5Q1240 1554 1205.0 1589.0Q1170 1624 1123.5 1644.0Q1077 1664 1024 1664Q971 1664 924.5 1644.0Q878 1624 843.0 1589.0Q808 1554 788.0 1507.5Q768 1461 768 1408Q768 1355 788.0 1308.5Q808 1262 843.0 1227.0Q878 1192 924.5 1172.0Q971 1152 1024 1152Z" transform="scale(1,-1)"/>
</svg>