<?xml version="1.0" encoding="UTF-8"?>
<svg xmlns="http://www.w3.org/2000/svg" viewBox="256 -2048 1536 2048">
  <path d="M1280 1984Q1280 1805 1346.0 1654.0Q1412 1503 1536 1376Q1660 1249 1726.0 1098.0Q1792 947 1792 768Q1792 662 1764.5 564.0Q1737 466 1687.0 380.5Q1637 295 1567.0 225.0Q1497 155 1411.5 105.0Q1326 55 1228.0 27.5Q1130 0 1024 0Q918 0 820.0 27.5Q722 55 636.5 105.0Q551 155 481.0 225.0Q411 295 361.0 380.5Q311 466 283.5 564.0Q256 662 256 768Q256 852 274.0 933.0Q292 1014 326.0 1088.5Q360 1163 410.0 1229.0Q460 1295 523 1350Q530 1312 542.0 1271.5Q554 1231 570.5 1191.5Q587 1152 608.0 1115.5Q629 1079 654 1049Q674 1024 706 1024Q733 1024 751.5 1043.0Q770 1062 770 1089Q770 1100 766.5 1109.0Q763 1118 757 1127Q729 1168 707.5 1208.0Q686 1248 671.0 1290.0Q656 1332 648.0 1377.0Q640 1422 640 1472Q640 1591 685.5 1696.0Q731 1801 809.0 1879.0Q887 1957 992.0 2002.5Q1097 2048 1216 2048H1280ZM1024 128Q1157 128 1273.5 178.0Q1390 228 1477.0 315.0Q1564 402 1614.0 518.5Q1664 635 1664 768Q1664 919 1608.0 1049.0Q1552 1179 1446 1285Q1316 1416 1241.5 1574.0Q1167 1732 1154 1916Q1071 1905 1000.5 1865.5Q930 1826 878.0 1766.5Q826 1707 797.0 1631.5Q768 1556 768 1472Q768 1394 791.0 1330.5Q814 1267 859 1205Q878 1179 888.5 1150.5Q899 1122 899 1089Q899 1049 883.5 1014.0Q868 979 842.0 952.5Q816 926 781.0 911.0Q746 896 706 896Q660 896 625.0 913.5Q590 931 563.0 959.5Q536 988 514.5 1024.0Q493 1060 475 1096Q429 1023 406.5 938.5Q384 854 384 768Q384 635 434.0 518.5Q484 402 571.0 315.0Q658 228 774.5 178.0Q891 128 1024 128Z" transform="scale(1,-1)"/>
</svg>