<?xml version="1.0" encoding="UTF-8"?>
<svg xmlns="http://www.w3.org/2000/svg" viewBox="0 -2048 2048 2048">
  <path d="M896 2048V1920H768V2048ZM128 1792V1664H0V1792ZM128 2048V1920H0V2048ZM1536 1792H1408V1920H1536ZM128 1280V1152H0V1280ZM640 768Q640 856 663.0 938.0Q686 1020 727.5 1091.0Q769 1162 827.5 1220.5Q886 1279 957.0 1320.5Q1028 1362 1110.0 1385.0Q1192 1408 1280 1408V768ZM1152 1264Q1084 1246 1025.0 1212.0Q966 1178 918.0 1130.0Q870 1082 836.0 1022.5Q802 963 784 896H1152ZM1408 1536V1664H1536V1536ZM1152 2048V1920H1024V2048ZM1408 2048V1920H1280V2048ZM128 1536V1408H0V1536ZM384 0V128H512V0ZM640 2048V1920H512V2048ZM1408 1280Q1496 1280 1578.0 1257.0Q1660 1234 1731.0 1192.5Q1802 1151 1860.5 1092.5Q1919 1034 1960.5 963.0Q2002 892 2025.0 810.0Q2048 728 2048 640Q2048 552 2025.0 470.0Q2002 388 1960.5 317.0Q1919 246 1860.5 187.5Q1802 129 1731.0 87.5Q1660 46 1578.0 23.0Q1496 0 1408 0Q1320 0 1238.0 23.0Q1156 46 1085.0 87.5Q1014 129 955.5 187.5Q897 246 855.5 317.0Q814 388 791.0 470.0Q768 552 768 640H1408ZM1408 128Q1514 128 1607.0 168.5Q1700 209 1769.5 278.5Q1839 348 1879.5 441.0Q1920 534 1920 640Q1920 727 1892.0 807.5Q1864 888 1813.0 953.5Q1762 1019 1691.5 1066.5Q1621 1114 1536 1136V512H912Q934 427 981.5 356.5Q1029 286 1094.5 235.0Q1160 184 1240.5 156.0Q1321 128 1408 128ZM384 2048V1920H256V2048ZM640 0V128H768V0ZM128 768V640H0V768ZM0 256H128V128H0ZM128 1024V896H0V1024ZM128 512V384H0V512ZM128 0V128H256V0Z" transform="scale(1,-1)"/>
</svg>