<?xml version="1.0" encoding="UTF-8"?>
<svg xmlns="http://www.w3.org/2000/svg" viewBox="0 -2048 2048 2048">
  <path d="M1728 896Q1754 896 1773.0 877.0Q1792 858 1792 832Q1792 806 1773.0 787.0Q1754 768 1728 768Q1702 768 1683.0 787.0Q1664 806 1664 832Q1664 858 1683.0 877.0Q1702 896 1728 896ZM1125 915Q1046 969 955.0 996.5Q864 1024 768 1024Q680 1024 598.0 1001.0Q516 978 445.0 936.5Q374 895 315.5 836.5Q257 778 215.5 707.0Q174 636 151.0 554.0Q128 472 128 384H0Q0 501 35.5 613.0Q71 725 136.5 820.5Q202 916 293.5 989.5Q385 1063 496 1102Q440 1138 395.5 1185.0Q351 1232 320.0 1288.0Q289 1344 272.5 1406.5Q256 1469 256 1536Q256 1642 296.0 1735.5Q336 1829 405.5 1898.5Q475 1968 568.5 2008.0Q662 2048 768 2048Q874 2048 967.5 2008.0Q1061 1968 1130.5 1898.5Q1200 1829 1240.0 1735.5Q1280 1642 1280 1536Q1280 1469 1263.5 1406.5Q1247 1344 1216.0 1288.0Q1185 1232 1140.5 1185.0Q1096 1138 1040 1102Q1121 1073 1196 1022ZM384 1536Q384 1456 414.0 1386.5Q444 1317 496.5 1264.5Q549 1212 618.5 1182.0Q688 1152 768 1152Q847 1152 917.0 1182.0Q987 1212 1039.5 1264.5Q1092 1317 1122.0 1386.5Q1152 1456 1152 1536Q1152 1615 1122.0 1685.0Q1092 1755 1039.5 1807.5Q987 1860 917.0 1890.0Q847 1920 768 1920Q688 1920 618.5 1890.0Q549 1860 496.5 1807.5Q444 1755 414.0 1685.0Q384 1615 384 1536ZM1664 1152Q1743 1152 1813.0 1122.0Q1883 1092 1935.5 1039.5Q1988 987 2018.0 917.0Q2048 847 2048 768Q2048 688 2018.0 618.5Q1988 549 1935.5 496.5Q1883 444 1813.0 414.0Q1743 384 1664 384Q1599 384 1536 407V256H1408V128H1280V0H896V282L1291 678Q1280 724 1280 768Q1280 847 1310.0 917.0Q1340 987 1392.5 1039.5Q1445 1092 1514.5 1122.0Q1584 1152 1664 1152ZM1664 512Q1717 512 1763.5 532.0Q1810 552 1845.0 587.0Q1880 622 1900.0 668.5Q1920 715 1920 768Q1920 821 1900.0 867.5Q1880 914 1845.0 949.0Q1810 984 1763.5 1004.0Q1717 1024 1664 1024Q1611 1024 1564.5 1004.0Q1518 984 1483.0 949.0Q1448 914 1428.0 867.5Q1408 821 1408 768Q1408 733 1417.0 704.0Q1426 675 1438 643L1024 230V128H1152V256H1280V384H1408V475L1501 567Q1541 544 1578.0 528.0Q1615 512 1664 512Z" transform="scale(1,-1)"/>
</svg>