<?xml version="1.0" encoding="UTF-8"?>
<svg xmlns="http://www.w3.org/2000/svg" viewBox="0 -2048 2048 2048">
  <path d="M1664 768 1760 288 1280 384 1024 0 768 384 288 288 384 768 0 1024 384 1280 288 1760 768 1664 1024 2048 1280 1664 1760 1760 1664 1280 2048 1024ZM1221 526Q1316 509 1409.5 490.0Q1503 471 1597 451Q1577 545 1558.0 638.5Q1539 732 1522 827Q1597 876 1670.0 925.0Q1743 974 1817 1024Q1743 1074 1670.0 1123.0Q1597 1172 1522 1221Q1540 1316 1559.0 1409.5Q1578 1503 1597 1597Q1503 1577 1409.5 1558.0Q1316 1539 1221 1522Q1172 1597 1123.0 1670.0Q1074 1743 1024 1817Q974 1743 925.0 1670.0Q876 1597 827 1522Q732 1539 638.5 1558.0Q545 1577 451 1597Q471 1503 490.0 1409.5Q509 1316 526 1221Q451 1172 378.0 1123.0Q305 1074 231 1024Q305 974 378.0 925.0Q451 876 526 827Q508 732 489.0 638.5Q470 545 451 451Q545 471 638.5 490.0Q732 509 827 526Q876 451 925.0 378.0Q974 305 1024 231Q1074 305 1123.0 378.0Q1172 451 1221 526Z" transform="scale(1,-1)"/>
</svg>