<?xml version="1.0" encoding="UTF-8"?>
<svg xmlns="http://www.w3.org/2000/svg" viewBox="0 -2048 2048 2046">
  <path d="M1243 812Q1198 863 1143.5 902.5Q1089 942 1028.0 969.0Q967 996 901.5 1010.0Q836 1024 768 1024Q680 1024 598.0 1001.0Q516 978 445.0 936.5Q374 895 315.5 836.5Q257 778 215.5 707.0Q174 636 151.0 554.0Q128 472 128 384H0Q0 504 35.5 615.0Q71 726 136.0 820.0Q201 914 292.5 987.0Q384 1060 496 1102Q383 1176 319.5 1288.0Q256 1400 256 1536Q256 1642 296.0 1735.5Q336 1829 405.5 1898.5Q475 1968 568.5 2008.0Q662 2048 768 2048Q874 2048 967.5 2008.0Q1061 1968 1130.5 1898.5Q1200 1829 1240.0 1735.5Q1280 1642 1280 1536Q1280 1470 1263.5 1407.0Q1247 1344 1216.0 1288.0Q1185 1232 1140.5 1184.5Q1096 1137 1040 1102Q1124 1070 1198.0 1019.5Q1272 969 1333 903ZM384 1536Q384 1456 414.0 1386.5Q444 1317 496.5 1264.5Q549 1212 618.5 1182.0Q688 1152 768 1152Q847 1152 917.0 1182.0Q987 1212 1039.5 1264.5Q1092 1317 1122.0 1386.5Q1152 1456 1152 1536Q1152 1615 1122.0 1685.0Q1092 1755 1039.5 1807.5Q987 1860 917.0 1890.0Q847 1920 768 1920Q688 1920 618.5 1890.0Q549 1860 496.5 1807.5Q444 1755 414.0 1685.0Q384 1615 384 1536ZM1848 1152Q1890 1152 1926.5 1137.0Q1963 1122 1990.0 1095.5Q2017 1069 2032.5 1032.5Q2048 996 2048 954Q2048 915 2033.0 878.0Q2018 841 1990 813L1273 96L896 2L990 379L1707 1095Q1736 1124 1772.0 1138.0Q1808 1152 1848 1152ZM1899 903Q1920 924 1920 954Q1920 985 1899.5 1004.5Q1879 1024 1848 1024Q1834 1024 1821.0 1019.5Q1808 1015 1798 1005L1106 313L1072 178L1207 212Z" transform="scale(1,-1)"/>
</svg>