<?xml version="1.0" encoding="UTF-8"?>
<svg xmlns="http://www.w3.org/2000/svg" viewBox="128 -2048 1920 2048">
  <path d="M2048 640V0H1408V640ZM1920 512H1536V128H1920ZM1413 768Q1368 830 1310.0 878.0Q1252 926 1185.5 958.5Q1119 991 1045.5 1007.5Q972 1024 896 1024Q762 1024 645.0 974.5Q528 925 441.5 838.5Q355 752 305.5 635.0Q256 518 256 384H128Q128 504 163.0 616.0Q198 728 263.0 822.5Q328 917 419.5 989.0Q511 1061 625 1103Q570 1138 525.5 1185.5Q481 1233 449.5 1289.0Q418 1345 401.0 1407.5Q384 1470 384 1536Q384 1642 424.5 1735.0Q465 1828 534.5 1897.5Q604 1967 697.0 2007.5Q790 2048 896 2048Q1002 2048 1095.0 2007.5Q1188 1967 1257.5 1897.5Q1327 1828 1367.5 1735.0Q1408 1642 1408 1536Q1408 1470 1391.0 1407.5Q1374 1345 1342.5 1289.0Q1311 1233 1266.5 1185.5Q1222 1138 1167 1103Q1292 1057 1394.0 970.5Q1496 884 1562 768ZM512 1536Q512 1457 542.5 1387.0Q573 1317 625.0 1265.0Q677 1213 747.0 1182.5Q817 1152 896 1152Q975 1152 1045.0 1182.5Q1115 1213 1167.0 1265.0Q1219 1317 1249.5 1387.0Q1280 1457 1280 1536Q1280 1615 1249.5 1685.0Q1219 1755 1167.0 1807.0Q1115 1859 1045.0 1889.5Q975 1920 896 1920Q817 1920 747.0 1889.5Q677 1859 625.0 1807.0Q573 1755 542.5 1685.0Q512 1615 512 1536Z" transform="scale(1,-1)"/>
</svg>