<?xml version="1.0" encoding="UTF-8"?>
<svg xmlns="http://www.w3.org/2000/svg" viewBox="0 -2048 2048 2048">
  <path d="M640 1600Q640 1481 685.5 1376.0Q731 1271 809.0 1193.0Q887 1115 992.0 1069.5Q1097 1024 1216 1024H2048V896H1472Q1355 896 1251.0 852.5Q1147 809 1065 727Q983 645 939.5 541.0Q896 437 896 320V0H768V320Q768 405 788.5 487.5Q809 570 847.0 644.5Q885 719 940.5 783.0Q996 847 1067 896H0V1024H811Q734 1077 673 1152H0V1280H589Q551 1352 531.5 1435.0Q512 1518 512 1600V2048H640ZM896 1708Q896 1619 929.5 1541.0Q963 1463 1021.0 1405.0Q1079 1347 1157.0 1313.5Q1235 1280 1324 1280H2048V1152H1324Q1209 1152 1107.5 1195.5Q1006 1239 930.5 1314.5Q855 1390 811.5 1491.5Q768 1593 768 1708V2048H896ZM2048 768V640H1580Q1494 640 1415.5 607.5Q1337 575 1277 515Q1217 455 1184.5 376.5Q1152 298 1152 212V0H1024V212Q1024 327 1067.5 428.5Q1111 530 1186.5 605.5Q1262 681 1363.5 724.5Q1465 768 1580 768Z" transform="scale(1,-1)"/>
</svg>