<?xml version="1.0" encoding="UTF-8"?>
<svg xmlns="http://www.w3.org/2000/svg" viewBox="0 -2048 2048 2048">
  <path d="M621 877 877 621 787 531 531 787ZM1216 2048Q1331 2048 1437.5 2018.5Q1544 1989 1636.5 1934.5Q1729 1880 1804.5 1804.5Q1880 1729 1934.5 1636.5Q1989 1544 2018.5 1437.5Q2048 1331 2048 1216Q2048 1070 2000.0 937.0Q1952 804 1865.5 696.0Q1779 588 1660.0 512.0Q1541 436 1399 404Q1408 330 1408 256Q1408 203 1388.0 156.5Q1368 110 1333.0 75.0Q1298 40 1251.5 20.0Q1205 0 1152 0Q993 0 845.5 41.0Q698 82 570.0 157.0Q442 232 337.0 337.0Q232 442 157.0 570.0Q82 698 41.0 845.5Q0 993 0 1152Q0 1205 20.0 1251.5Q40 1298 75.0 1333.0Q110 1368 156.5 1388.0Q203 1408 256 1408Q330 1408 404 1399Q436 1541 512.0 1660.0Q588 1779 696.0 1865.5Q804 1952 937.0 2000.0Q1070 2048 1216 2048ZM1570 1479Q1618 1444 1675.0 1426.0Q1732 1408 1792 1408Q1842 1408 1890 1420Q1870 1488 1836.0 1550.0Q1802 1612 1757 1666ZM1666 1757Q1612 1802 1550.0 1836.0Q1488 1870 1420 1890Q1408 1842 1408 1792Q1408 1732 1426.0 1675.0Q1444 1618 1479 1570ZM1295 1915Q1275 1918 1255.5 1919.0Q1236 1920 1216 1920Q1092 1920 976.5 1877.5Q861 1835 766 1756L1216 1306L1388 1478Q1335 1545 1307.5 1625.5Q1280 1706 1280 1792Q1280 1855 1295 1915ZM675 1666Q622 1603 585.0 1529.5Q548 1456 530 1375Q667 1343 793.0 1276.0Q919 1209 1024 1115L1126 1216ZM1152 128Q1179 128 1202.0 138.0Q1225 148 1242.5 165.5Q1260 183 1270.0 206.0Q1280 229 1280 256Q1280 397 1243.5 528.0Q1207 659 1140.0 772.5Q1073 886 979.5 979.5Q886 1073 772.5 1140.0Q659 1207 528.0 1243.5Q397 1280 256 1280Q229 1280 206.0 1270.0Q183 1260 165.5 1242.5Q148 1225 138.0 1202.0Q128 1179 128 1152Q128 1011 164.5 880.0Q201 749 268.0 635.5Q335 522 428.5 428.5Q522 335 635.5 268.0Q749 201 880.0 164.5Q1011 128 1152 128ZM1115 1024Q1209 919 1276.0 793.0Q1343 667 1375 530Q1456 548 1529.5 585.0Q1603 622 1666 675L1216 1126ZM1756 766Q1835 861 1877.5 976.5Q1920 1092 1920 1216Q1920 1236 1919.0 1255.5Q1918 1275 1915 1295Q1855 1280 1792 1280Q1706 1280 1625.5 1307.5Q1545 1335 1478 1388L1306 1216Z" transform="scale(1,-1)"/>
</svg>