<?xml version="1.0" encoding="UTF-8"?>
<svg xmlns="http://www.w3.org/2000/svg" viewBox="0 -1664 2048 1662">
  <path d="M1707 1095Q1735 1123 1772.5 1136.0Q1810 1149 1848 1149Q1890 1149 1926.0 1134.5Q1962 1120 1988.5 1094.0Q2015 1068 2030.5 1032.0Q2046 996 2046 954Q2046 915 2031.0 878.0Q2016 841 1988 813L1273 96L896 2L990 379ZM1899 903Q1920 924 1920 954Q1920 986 1899.5 1004.5Q1879 1023 1848 1023Q1834 1023 1821.0 1019.0Q1808 1015 1798 1005L1106 313L1072 178L1207 212ZM2048 1664V1214Q2019 1235 1987.0 1248.5Q1955 1262 1920 1270V1400L1024 953L128 1400V512H942L814 384H0V1664ZM1024 1095 1905 1536H143Z" transform="scale(1,-1)"/>
</svg>