<?xml version="1.0" encoding="UTF-8"?>
<svg xmlns="http://www.w3.org/2000/svg" viewBox="128 -1920 1792 1792">
  <path d="M1792 1792H1920V1280H1408V1408H1689Q1638 1496 1566.5 1567.0Q1495 1638 1408.5 1688.0Q1322 1738 1224.5 1765.0Q1127 1792 1024 1792Q886 1792 761.0 1745.5Q636 1699 535.5 1616.5Q435 1534 365.5 1420.0Q296 1306 270 1171L144 1196Q164 1301 207.5 1395.0Q251 1489 313.5 1569.5Q376 1650 454.5 1715.0Q533 1780 624.0 1825.5Q715 1871 816.0 1895.5Q917 1920 1024 1920Q1142 1920 1254.0 1889.5Q1366 1859 1465.5 1802.5Q1565 1746 1648.5 1666.0Q1732 1586 1792 1486ZM1024 256Q1162 256 1287.0 302.5Q1412 349 1512.5 431.5Q1613 514 1682.5 627.5Q1752 741 1778 876L1903 852Q1873 694 1792.0 561.5Q1711 429 1594.0 332.5Q1477 236 1330.5 182.0Q1184 128 1024 128Q905 128 792.5 158.5Q680 189 581.0 245.0Q482 301 399.0 381.5Q316 462 256 562V256H128V768H640V640H359Q410 551 481.5 480.0Q553 409 639.0 359.5Q725 310 822.5 283.0Q920 256 1024 256Z" transform="scale(1,-1)"/>
</svg>