<?xml version="1.0" encoding="UTF-8"?>
<svg xmlns="http://www.w3.org/2000/svg" viewBox="128 -2048 1920 2048">
  <path d="M1243 2048 1792 1499V1280H1664V1408H1152V1920H256V128H1024V0H128V2048ZM1280 1536H1573L1280 1829ZM1920 128H2048V0H1920ZM1664 128H1792V0H1664ZM1408 128H1536V0H1408ZM1664 1152H1792V1024H1664ZM1408 1152H1536V1024H1408ZM1152 128H1280V0H1152ZM1920 384H2048V256H1920ZM1152 384H1280V256H1152ZM1920 640H2048V512H1920ZM1152 640H1280V512H1152ZM1920 896H2048V768H1920ZM1152 896H1280V768H1152ZM2048 1152V1024H1920V1152ZM1152 1152H1280V1024H1152Z" transform="scale(1,-1)"/>
</svg>