<?xml version="1.0" encoding="UTF-8"?>
<svg xmlns="http://www.w3.org/2000/svg" viewBox="0 -2048 2048 2048">
  <path d="M2048 1108V192L1531 266Q1522 209 1493.0 160.5Q1464 112 1421.5 76.0Q1379 40 1326.0 20.0Q1273 0 1216 0Q1167 0 1122.0 13.5Q1077 27 1039.0 52.5Q1001 78 970.5 114.0Q940 150 921 195Q906 230 902.0 261.0Q898 292 898 327V356Q868 361 830.5 367.5Q793 374 754.0 380.0Q715 386 678.0 390.5Q641 395 612 396H598Q576 396 554.5 395.0Q533 394 512 394V906Q540 906 567.0 905.0Q594 904 622 904Q627 904 631.0 904.5Q635 905 640 906ZM1404 284 1026 338Q1024 333 1024.0 329.0Q1024 325 1024 320Q1024 280 1039.0 245.0Q1054 210 1080.0 184.0Q1106 158 1141.0 143.0Q1176 128 1216 128Q1250 128 1281.5 139.5Q1313 151 1338.0 172.0Q1363 193 1380.5 221.5Q1398 250 1404 284ZM1920 340V960L640 778V522ZM128 2048V1920H0V2048ZM128 1792V1664H0V1792ZM128 1536V1408H0V1536ZM128 1280V1152H0V1280ZM128 1024V896H0V1024ZM128 768V640H0V768ZM128 512V384H0V512ZM0 256H128V128H0ZM128 0V128H256V0ZM384 2048V1920H256V2048ZM384 0V128H512V0ZM640 0V128H768V0ZM640 2048V1920H512V2048ZM896 2048V1920H768V2048ZM1152 2048V1920H1024V2048ZM1408 2048V1920H1280V2048ZM1536 1792H1408V1920H1536ZM1536 1664V1536H1408V1664ZM1408 1280V1408H1536V1280Z" transform="scale(1,-1)"/>
</svg>