<?xml version="1.0" encoding="UTF-8"?>
<svg xmlns="http://www.w3.org/2000/svg" viewBox="0 -2048 2048 2048">
  <path d="M2031 511 1765 314 1867 1 1600 194 1334 0 1435 314 1169 511H1504L1601 821L1696 511ZM679 640Q687 603 702.0 551.0Q717 499 739.0 442.0Q761 385 790.0 329.0Q819 273 854.5 228.0Q890 183 932.5 155.5Q975 128 1024 128Q1060 128 1093.0 145.0Q1126 162 1152 186V8Q1120 4 1088.0 2.0Q1056 0 1024 0Q883 0 752.0 36.5Q621 73 507.5 140.0Q394 207 300.5 300.5Q207 394 140.0 507.5Q73 621 36.5 752.0Q0 883 0 1024Q0 1165 36.5 1296.0Q73 1427 140.0 1540.5Q207 1654 300.5 1747.5Q394 1841 507.5 1908.0Q621 1975 752.0 2011.5Q883 2048 1024 2048Q1165 2048 1296.0 2011.5Q1427 1975 1540.5 1908.0Q1654 1841 1747.5 1747.5Q1841 1654 1908.0 1540.5Q1975 1427 2011.5 1296.0Q2048 1165 2048 1024Q2048 925 2029.0 828.5Q2010 732 1973 640H1792V768H1883Q1920 891 1920 1024Q1920 1157 1883 1280H1520Q1521 1268 1525.0 1232.0Q1529 1196 1532.0 1155.5Q1535 1115 1536.5 1081.5Q1538 1048 1536 1041L1410 640ZM1391 768Q1400 832 1404.0 895.5Q1408 959 1408 1024Q1408 1089 1404.0 1152.5Q1400 1216 1391 1280H657Q648 1216 644.0 1152.5Q640 1089 640 1024Q640 959 644.0 895.5Q648 832 657 768ZM1833 1408Q1795 1489 1741.0 1561.0Q1687 1633 1621.0 1692.0Q1555 1751 1477.5 1796.5Q1400 1842 1315 1871Q1351 1822 1380.5 1766.0Q1410 1710 1432.5 1650.0Q1455 1590 1471.5 1529.0Q1488 1468 1500 1408ZM1024 1920Q975 1920 932.5 1892.5Q890 1865 854.5 1820.0Q819 1775 790.0 1719.0Q761 1663 739.0 1606.0Q717 1549 702.0 1497.0Q687 1445 679 1408H1369Q1361 1445 1346.0 1497.0Q1331 1549 1309.0 1606.0Q1287 1663 1258.0 1719.0Q1229 1775 1193.5 1820.0Q1158 1865 1115.5 1892.5Q1073 1920 1024 1920ZM733 1871Q648 1842 570.5 1796.5Q493 1751 427.0 1692.0Q361 1633 307.0 1561.0Q253 1489 215 1408H548Q560 1468 576.5 1529.0Q593 1590 615.5 1650.0Q638 1710 667.5 1766.0Q697 1822 733 1871ZM128 1024Q128 891 165 768H528Q520 832 516.0 895.5Q512 959 512 1024Q512 1089 516.0 1152.5Q520 1216 528 1280H165Q128 1157 128 1024ZM215 640Q253 559 307.0 487.0Q361 415 427.0 356.0Q493 297 570.5 251.5Q648 206 733 177Q697 226 667.5 282.0Q638 338 615.5 398.0Q593 458 576.5 519.0Q560 580 548 640Z" transform="scale(1,-1)"/>
</svg>