<?xml version="1.0" encoding="UTF-8"?>
<svg xmlns="http://www.w3.org/2000/svg" viewBox="0 -1536 2048 896">
  <path d="M1024 1536Q1099 1536 1183.5 1528.0Q1268 1520 1354.0 1502.5Q1440 1485 1525.5 1458.5Q1611 1432 1689.0 1394.5Q1767 1357 1834.5 1308.5Q1902 1260 1953 1200Q1996 1149 2022.0 1088.5Q2048 1028 2048 960V832Q2048 792 2033.0 757.0Q2018 722 1992.0 696.0Q1966 670 1931.0 655.0Q1896 640 1856 640H1600Q1560 640 1525.0 655.0Q1490 670 1464.0 696.0Q1438 722 1423.0 757.0Q1408 792 1408 832V960Q1408 986 1389.0 1005.0Q1370 1024 1344 1024H704Q678 1024 659.0 1005.0Q640 986 640 960V832Q640 792 625.0 757.0Q610 722 584.0 696.0Q558 670 523.0 655.0Q488 640 448 640H192Q152 640 117.0 655.0Q82 670 56.0 696.0Q30 722 15.0 757.0Q0 792 0 832V960Q0 1028 26.0 1088.5Q52 1149 95 1200Q146 1260 213.5 1308.5Q281 1357 359.0 1394.5Q437 1432 522.5 1458.5Q608 1485 694.0 1502.5Q780 1520 864.0 1528.0Q948 1536 1024 1536ZM1920 960Q1920 1012 1895.0 1058.5Q1870 1105 1831.5 1143.5Q1793 1182 1747.0 1212.5Q1701 1243 1660 1265Q1590 1302 1511.5 1329.0Q1433 1356 1351.0 1373.5Q1269 1391 1186.0 1399.5Q1103 1408 1024 1408Q945 1408 862.0 1399.5Q779 1391 697.0 1373.5Q615 1356 536.5 1329.0Q458 1302 388 1265Q347 1243 301.0 1212.5Q255 1182 216.5 1143.5Q178 1105 153.0 1058.5Q128 1012 128 960V832Q128 806 147.0 787.0Q166 768 192 768H448Q474 768 493.0 787.0Q512 806 512 832V960Q512 1000 527.0 1035.0Q542 1070 568.0 1096.0Q594 1122 629.0 1137.0Q664 1152 704 1152H1344Q1384 1152 1419.0 1137.0Q1454 1122 1480.0 1096.0Q1506 1070 1521.0 1035.0Q1536 1000 1536 960V832Q1536 806 1555.0 787.0Q1574 768 1600 768H1856Q1882 768 1901.0 787.0Q1920 806 1920 832Z" transform="scale(1,-1)"/>
</svg>