<?xml version="1.0" encoding="UTF-8"?>
<svg xmlns="http://www.w3.org/2000/svg" viewBox="0 -1920 2048 1920">
  <path d="M1472 1536Q1591 1536 1696.0 1490.5Q1801 1445 1879.0 1367.0Q1957 1289 2002.5 1184.0Q2048 1079 2048 960Q2048 841 2002.5 736.0Q1957 631 1879.0 553.0Q1801 475 1696.0 429.5Q1591 384 1472 384Q1382 384 1296.5 411.5Q1211 439 1138 490L676 28Q648 0 608 0Q568 0 540.0 28.0Q512 56 512 96Q512 136 540 164L1002 626Q951 699 923.5 784.5Q896 870 896 960Q896 1079 941.5 1184.0Q987 1289 1065.0 1367.0Q1143 1445 1248.0 1490.5Q1353 1536 1472 1536ZM1248 572Q1287 549 1330.0 535.0Q1373 521 1418 515Q1440 542 1440 576Q1440 616 1412.0 644.0Q1384 672 1344 672Q1304 672 1276.0 644.0Q1248 616 1248 576ZM1792 647Q1854 710 1887.0 791.0Q1920 872 1920 960Q1920 1053 1884.5 1134.5Q1849 1216 1788.5 1276.5Q1728 1337 1646.5 1372.5Q1565 1408 1472 1408Q1384 1408 1303.0 1375.0Q1222 1342 1159 1280H1280V896H1152V1273Q1090 1210 1057.0 1129.0Q1024 1048 1024 960Q1024 874 1056.0 793.5Q1088 713 1148 651Q1152 647 1155.5 644.5Q1159 642 1162 637Q1182 696 1232.0 732.0Q1282 768 1344 768Q1384 768 1419.0 753.0Q1454 738 1480.0 712.0Q1506 686 1521.0 651.0Q1536 616 1536 576Q1536 544 1526 515Q1562 520 1596.5 530.0Q1631 540 1664 555V768H1792ZM535 384H64Q37 384 18.5 402.5Q0 421 0 448V1856Q0 1883 18.5 1901.5Q37 1920 64 1920H1856Q1883 1920 1901.5 1901.5Q1920 1883 1920 1856V1542Q1891 1565 1859.0 1585.5Q1827 1606 1792 1622V1664H128V512H662ZM1600 1280Q1640 1280 1675.0 1265.0Q1710 1250 1736.0 1224.0Q1762 1198 1777.0 1163.0Q1792 1128 1792 1088Q1792 1048 1777.0 1013.0Q1762 978 1736.0 952.0Q1710 926 1675.0 911.0Q1640 896 1600 896Q1560 896 1525.0 911.0Q1490 926 1464.0 952.0Q1438 978 1423.0 1013.0Q1408 1048 1408 1088Q1408 1128 1423.0 1163.0Q1438 1198 1464.0 1224.0Q1490 1250 1525.0 1265.0Q1560 1280 1600 1280ZM1600 992Q1640 992 1668.0 1020.0Q1696 1048 1696 1088Q1696 1128 1668.0 1156.0Q1640 1184 1600 1184Q1560 1184 1532.0 1156.0Q1504 1128 1504 1088Q1504 1048 1532.0 1020.0Q1560 992 1600 992ZM891 1408Q868 1379 847.5 1347.0Q827 1315 812 1280H256V1408ZM763 1152Q743 1089 740 1024H256V1152ZM740 896Q743 831 763 768H256V896Z" transform="scale(1,-1)"/>
</svg>