<?xml version="1.0" encoding="UTF-8"?>
<svg xmlns="http://www.w3.org/2000/svg" viewBox="0 -2048 2048 2048">
  <path d="M2048 1175Q2048 1044 2047.5 914.5Q2047 785 2047 654Q2047 582 2019.5 518.0Q1992 454 1945.0 407.0Q1898 360 1834.0 332.5Q1770 305 1698 305Q1648 305 1603 318Q1566 245 1511.5 186.0Q1457 127 1390.5 86.0Q1324 45 1247.0 22.5Q1170 0 1088 0Q996 0 911.5 27.5Q827 55 755.5 105.5Q684 156 629.5 227.0Q575 298 545 384H128Q102 384 78.5 394.0Q55 404 37.5 421.5Q20 439 10.0 462.5Q0 486 0 512V1536Q0 1562 10.0 1585.5Q20 1609 37.5 1626.5Q55 1644 78.5 1654.0Q102 1664 128 1664H768Q768 1743 798.0 1813.0Q828 1883 880.5 1935.5Q933 1988 1002.5 2018.0Q1072 2048 1152 2048Q1231 2048 1301.0 2018.0Q1371 1988 1423.5 1935.5Q1476 1883 1506.0 1813.0Q1536 1743 1536 1664Q1536 1603 1517.5 1546.5Q1499 1490 1465.5 1442.5Q1432 1395 1384.5 1358.5Q1337 1322 1280 1302V1280H1943Q1965 1280 1984.0 1271.5Q2003 1263 2017.0 1249.0Q2031 1235 2039.5 1216.0Q2048 1197 2048 1175ZM1152 1920Q1099 1920 1052.5 1900.0Q1006 1880 971.0 1845.0Q936 1810 916.0 1763.5Q896 1717 896 1664H1152Q1178 1664 1201.5 1654.0Q1225 1644 1242.5 1626.5Q1260 1609 1270.0 1585.5Q1280 1562 1280 1536V1442Q1340 1477 1374.0 1536.0Q1408 1595 1408 1664Q1408 1717 1388.0 1763.5Q1368 1810 1333.0 1845.0Q1298 1880 1251.5 1900.0Q1205 1920 1152 1920ZM608 608H800V1248H1056V1440H352V1248H608ZM1536 576V1152H1280V512Q1280 486 1270.0 462.5Q1260 439 1242.5 421.5Q1225 404 1201.5 394.0Q1178 384 1152 384H683Q711 325 753.5 278.0Q796 231 849.0 197.5Q902 164 962.5 146.0Q1023 128 1088 128Q1181 128 1262.5 163.5Q1344 199 1404.5 259.5Q1465 320 1500.5 401.5Q1536 483 1536 576ZM1920 654V1152H1664V576Q1664 508 1647 438Q1675 433 1698 433Q1744 433 1784.5 450.5Q1825 468 1855.0 498.0Q1885 528 1902.5 568.0Q1920 608 1920 654ZM1792 1408Q1739 1408 1692.5 1428.0Q1646 1448 1611.0 1483.0Q1576 1518 1556.0 1564.5Q1536 1611 1536 1664Q1536 1717 1556.0 1763.5Q1576 1810 1611.0 1845.0Q1646 1880 1692.5 1900.0Q1739 1920 1792 1920Q1845 1920 1891.5 1900.0Q1938 1880 1973.0 1845.0Q2008 1810 2028.0 1763.5Q2048 1717 2048 1664Q2048 1611 2028.0 1564.5Q2008 1518 1973.0 1483.0Q1938 1448 1891.5 1428.0Q1845 1408 1792 1408ZM1792 1792Q1765 1792 1742.0 1782.0Q1719 1772 1701.5 1754.5Q1684 1737 1674.0 1714.0Q1664 1691 1664 1664Q1664 1637 1674.0 1614.0Q1684 1591 1701.5 1573.5Q1719 1556 1742.0 1546.0Q1765 1536 1792 1536Q1819 1536 1842.0 1546.0Q1865 1556 1882.5 1573.5Q1900 1591 1910.0 1614.0Q1920 1637 1920 1664Q1920 1691 1910.0 1714.0Q1900 1737 1882.5 1754.5Q1865 1772 1842.0 1782.0Q1819 1792 1792 1792Z" transform="scale(1,-1)"/>
</svg>