<?xml version="1.0" encoding="UTF-8"?>
<svg xmlns="http://www.w3.org/2000/svg" viewBox="128 -2048 1664 2048">
  <path d="M1792 1499V0H128V2048H1243ZM1280 1536H1573L1280 1829ZM1664 128V1408H1152V1920H256V128ZM1040 1103Q1094 1049 1123.0 978.5Q1152 908 1152 832Q1152 756 1123.0 685.5Q1094 615 1040 561L949 651Q985 687 1004.5 734.0Q1024 781 1024 832Q1024 883 1004.5 930.0Q985 977 949 1013ZM1221 1285Q1312 1194 1360.0 1077.0Q1408 960 1408 832Q1408 704 1360.0 587.0Q1312 470 1221 379L1130 470Q1203 543 1241.5 636.0Q1280 729 1280 832Q1280 935 1241.5 1028.0Q1203 1121 1130 1194ZM805 1280H896V384H805L549 640H384V1024H549ZM768 1061 603 896H512V768H603L768 603Z" transform="scale(1,-1)"/>
</svg>