<?xml version="1.0" encoding="UTF-8"?>
<svg xmlns="http://www.w3.org/2000/svg" viewBox="0 -2048 2048 2048">
  <path d="M1152 896H2048V768H1984Q1984 720 1972.0 673.5Q1960 627 1938.0 586.0Q1916 545 1884.0 510.0Q1852 475 1812 448Q1852 421 1884.0 386.0Q1916 351 1938.0 309.5Q1960 268 1972.0 222.0Q1984 176 1984 128H2048V0H1152V128H1216Q1216 176 1228.0 222.0Q1240 268 1262.0 309.5Q1284 351 1316.0 386.0Q1348 421 1388 448Q1348 475 1316.0 510.0Q1284 545 1262.0 586.0Q1240 627 1228.0 673.5Q1216 720 1216 768H1152ZM1344 768Q1344 693 1380.0 636.5Q1416 580 1480 542Q1506 526 1521.0 502.5Q1536 479 1536 448Q1536 417 1521.0 393.5Q1506 370 1480 354Q1416 316 1380.0 259.5Q1344 203 1344 128H1856Q1856 203 1820.0 259.5Q1784 316 1720 354Q1694 370 1679.0 393.5Q1664 417 1664 448Q1664 479 1679.0 502.5Q1694 526 1720 542Q1784 580 1820.0 636.5Q1856 693 1856 768ZM189 482Q160 453 144.0 415.0Q128 377 128 335Q128 292 144.5 254.5Q161 217 189.0 189.5Q217 162 254.5 146.0Q292 130 335 130Q377 130 415.0 145.0Q453 160 482 189L1024 731V549L573 98Q525 50 463.5 25.0Q402 0 335 0Q266 0 205.0 26.5Q144 53 98.5 98.5Q53 144 26.5 205.0Q0 266 0 335Q0 402 25.0 463.5Q50 525 98 573L904 1379Q900 1402 898.0 1425.5Q896 1449 896 1472Q896 1591 941.5 1696.0Q987 1801 1065.0 1879.0Q1143 1957 1248.0 2002.5Q1353 2048 1472 2048Q1526 2048 1571.0 2039.5Q1616 2031 1658.0 2015.0Q1700 1999 1741.0 1977.5Q1782 1956 1828 1930L1434 1536L1536 1434L1930 1828Q1956 1782 1977.5 1741.0Q1999 1700 2015.0 1658.0Q2031 1616 2039.5 1571.0Q2048 1526 2048 1472Q2048 1354 2004.5 1252.0Q1961 1150 1879 1065L1839 1024H1658Q1711 1076 1758.5 1123.0Q1806 1170 1842.0 1221.0Q1878 1272 1899.0 1332.0Q1920 1392 1920 1472Q1920 1545 1896 1613L1536 1254L1254 1536L1613 1896Q1545 1920 1472 1920Q1379 1920 1297.5 1884.5Q1216 1849 1155.5 1788.5Q1095 1728 1059.5 1646.5Q1024 1565 1024 1472Q1024 1437 1030.0 1404.0Q1036 1371 1044 1338Z" transform="scale(1,-1)"/>
</svg>