<?xml version="1.0" encoding="UTF-8"?>
<svg xmlns="http://www.w3.org/2000/svg" viewBox="0 -2048 2048 2048">
  <path d="M2048 640H1536V805L1371 640L1536 475V512H2048V0H1536V293L1280 549V384H768V896H1280V731L1536 987V1152H2048ZM1664 1024V768H1920V1024ZM1152 512V768H896V512ZM1664 384V128H1920V384ZM1280 2048V1152H512V768H0V2048ZM384 896V1152H128V896ZM384 1280V1536H128V1280ZM384 1664V1920H128V1664ZM768 1280V1536H512V1280ZM768 1664V1920H512V1664ZM1152 1280V1536H896V1280ZM1152 1664V1920H896V1664Z" transform="scale(1,-1)"/>
</svg>