<?xml version="1.0" encoding="UTF-8"?>
<svg xmlns="http://www.w3.org/2000/svg" viewBox="128 -2048 1920 2048">
  <path d="M1536 512H1523Q1500 624 1442.0 718.0Q1384 812 1300.5 880.0Q1217 948 1113.5 986.0Q1010 1024 896 1024Q808 1024 726.0 1001.0Q644 978 573.0 936.5Q502 895 443.5 836.5Q385 778 343.5 707.0Q302 636 279.0 554.0Q256 472 256 384H128Q128 504 163.5 615.0Q199 726 264.0 820.0Q329 914 420.5 987.0Q512 1060 624 1102Q511 1176 447.5 1288.0Q384 1400 384 1536Q384 1642 424.0 1735.5Q464 1829 533.5 1898.5Q603 1968 696.5 2008.0Q790 2048 896 2048Q1002 2048 1095.5 2008.0Q1189 1968 1258.5 1898.5Q1328 1829 1368.0 1735.5Q1408 1642 1408 1536Q1408 1470 1391.5 1407.0Q1375 1344 1344.0 1288.0Q1313 1232 1268.5 1184.5Q1224 1137 1168 1102Q1280 1059 1374.5 983.5Q1469 908 1536 808ZM512 1536Q512 1456 542.0 1386.5Q572 1317 624.5 1264.5Q677 1212 746.5 1182.0Q816 1152 896 1152Q975 1152 1045.0 1182.0Q1115 1212 1167.5 1264.5Q1220 1317 1250.0 1386.5Q1280 1456 1280 1536Q1280 1615 1250.0 1685.0Q1220 1755 1167.5 1807.5Q1115 1860 1045.0 1890.0Q975 1920 896 1920Q816 1920 746.5 1890.0Q677 1860 624.5 1807.5Q572 1755 542.0 1685.0Q512 1615 512 1536ZM1792 384H2048V256H1792V0H1664V256H1408V384H1664V640H1792Z" transform="scale(1,-1)"/>
</svg>