<?xml version="1.0" encoding="UTF-8"?>
<svg xmlns="http://www.w3.org/2000/svg" viewBox="0 -2048 2048 2048">
  <path d="M128 1408H0V1536H128ZM128 1152H0V1280H128ZM128 896H0V1024H128ZM128 640H0V768H128ZM128 384H0V512H128ZM128 256V128H0V256ZM128 128H256V0H128ZM384 128H512V0H384ZM640 128H768V0H640ZM896 128H1024V0H896ZM128 1920H0V2048H128ZM384 1920H256V2048H384ZM640 1920H512V2048H640ZM896 1920H768V2048H896ZM1152 1920H1024V2048H1152ZM1408 1920H1280V2048H1408ZM1408 1792V1920H1536V1792ZM1536 1536H1408V1664H1536ZM128 1664H0V1792H128ZM1536 1280H1408V1408H1536ZM1536 1024H1477Q1474 1058 1463.0 1090.5Q1452 1123 1435 1152H1536ZM1412 793Q1430 816 1444.0 842.0Q1458 868 1466 896H1536V768H1437ZM1758 552Q1790 552 1818.0 540.0Q1846 528 1869 506L2002 374Q2024 352 2036.0 323.0Q2048 294 2048 263Q2048 231 2036.0 202.5Q2024 174 2002 151Q1966 114 1936.0 86.0Q1906 58 1873.0 39.0Q1840 20 1801.0 10.0Q1762 0 1708 0Q1631 0 1550.0 23.5Q1469 47 1388.5 89.0Q1308 131 1230.5 189.0Q1153 247 1084.0 316.0Q1015 385 957.0 462.5Q899 540 857.0 620.5Q815 701 791.5 782.0Q768 863 768 940Q768 994 778.0 1033.5Q788 1073 807.0 1105.0Q826 1137 854.0 1167.5Q882 1198 919 1234Q942 1256 970.5 1268.0Q999 1280 1031 1280Q1062 1280 1091.0 1268.0Q1120 1256 1142 1234L1274 1101Q1320 1055 1320 990Q1320 947 1301.0 916.5Q1282 886 1259.5 863.5Q1237 841 1218.0 824.0Q1199 807 1199 792Q1199 780 1208 771L1539 440Q1548 431 1560 431Q1575 431 1592.0 450.0Q1609 469 1631.5 491.5Q1654 514 1684.5 533.0Q1715 552 1758 552ZM1708 128Q1748 128 1774.5 135.5Q1801 143 1822.5 158.0Q1844 173 1864.0 194.0Q1884 215 1911 242Q1920 251 1920 263Q1920 275 1911 284L1779 416Q1770 425 1758 425Q1743 425 1726.0 406.0Q1709 387 1686.0 364.0Q1663 341 1632.5 322.0Q1602 303 1560 303Q1529 303 1499.5 315.5Q1470 328 1448 350L1118 680Q1096 702 1083.5 731.5Q1071 761 1071 792Q1071 834 1090.0 864.5Q1109 895 1131.5 917.5Q1154 940 1173.0 957.0Q1192 974 1192 990Q1192 1003 1184 1011L1051 1143Q1042 1152 1031 1152Q1018 1152 1009 1143Q982 1116 961.0 1095.5Q940 1075 925.5 1054.0Q911 1033 903.5 1006.5Q896 980 896 940Q896 856 932.5 762.5Q969 669 1031.0 579.0Q1093 489 1175.0 407.0Q1257 325 1347.0 263.0Q1437 201 1530.0 164.5Q1623 128 1708 128Z" transform="scale(1,-1)"/>
</svg>