<?xml version="1.0" encoding="UTF-8"?>
<svg xmlns="http://www.w3.org/2000/svg" viewBox="0 -1920 2048 1792">
  <path d="M496 1229Q545 1229 574.0 1209.5Q603 1190 603 1138Q603 1115 592.5 1100.5Q582 1086 566.0 1077.0Q550 1068 530.0 1064.5Q510 1061 492 1061H400V1229ZM2048 683V213Q2048 178 2023.0 153.0Q1998 128 1963 128H789Q754 128 729.0 153.0Q704 178 704 213V512H85Q50 512 25.0 537.0Q0 562 0 597V1451Q0 1486 25.0 1511.0Q50 1536 85 1536H256V1835Q256 1870 281.0 1895.0Q306 1920 341 1920H1259Q1294 1920 1319.0 1895.0Q1344 1870 1344 1835V1344H1579Q1614 1344 1639.0 1319.0Q1664 1294 1664 1259V768H1963Q1998 768 2023.0 743.0Q2048 718 2048 683ZM1536 1216H1024V768H1536ZM767 1143Q767 1201 747.5 1242.5Q728 1284 694.0 1310.0Q660 1336 614.0 1348.0Q568 1360 514 1360H243V689H400V923H506Q555 923 601.5 937.5Q648 952 685.0 979.5Q722 1007 744.5 1048.0Q767 1089 767 1143ZM384 1536H939Q974 1536 999.0 1511.0Q1024 1486 1024 1451V1344H1216V1792H384ZM1920 256V640H1024V597Q1024 562 999.0 537.0Q974 512 939 512H832V256Z" transform="scale(1,-1)"/>
</svg>