<?xml version="1.0" encoding="UTF-8"?>
<svg xmlns="http://www.w3.org/2000/svg" viewBox="0 -1664 2050 1664">
  <path d="M2048 384Q2050 306 2018.0 238.0Q1986 170 1932.0 118.5Q1878 67 1808.0 36.0Q1738 5 1664 1H1655L1653 0H1642Q1533 0 1438.0 43.5Q1343 87 1280 179V0H1152V384H1536V256H1384Q1403 227 1430.0 203.5Q1457 180 1488.5 163.0Q1520 146 1554.0 137.0Q1588 128 1623 128Q1679 128 1728.0 142.5Q1777 157 1815.5 186.0Q1854 215 1880.5 257.5Q1907 300 1918 356L1919 358V369L1920 371V384ZM1920 896H2048V512H1664V640H1816Q1797 669 1770.0 692.5Q1743 716 1711.5 733.0Q1680 750 1645.5 759.0Q1611 768 1577 768Q1521 768 1472.0 753.5Q1423 739 1384.5 710.0Q1346 681 1319.5 638.5Q1293 596 1282 540L1281 538V527L1280 525V512H1152Q1150 590 1181.5 658.0Q1213 726 1267.0 777.5Q1321 829 1391.5 860.0Q1462 891 1536 895H1545L1547 896H1558Q1667 896 1762.0 852.5Q1857 809 1920 717ZM2048 1664V1024H1920V1400L1024 953L128 1400V512H1024V384H0V1664ZM1024 1095 1905 1536H143Z" transform="scale(1,-1)"/>
</svg>