<?xml version="1.0" encoding="UTF-8"?>
<svg xmlns="http://www.w3.org/2000/svg" viewBox="0 -2048 2032 2048">
  <path d="M601 896 899 0H765L679 256H345L259 0H125L423 896ZM637 384 512 758 387 384ZM640 1792V1408H896V1280H512V1792ZM257 899Q197 944 149.0 1001.0Q101 1058 68.0 1123.0Q35 1188 17.5 1260.5Q0 1333 0 1408Q0 1496 23.0 1578.0Q46 1660 87.5 1731.0Q129 1802 187.5 1860.5Q246 1919 317.0 1960.5Q388 2002 470.0 2025.0Q552 2048 640 2048Q728 2048 810.0 2025.0Q892 2002 963.0 1960.5Q1034 1919 1092.5 1860.5Q1151 1802 1192.5 1731.0Q1234 1660 1257.0 1578.0Q1280 1496 1280 1408Q1280 1376 1276.5 1344.0Q1273 1312 1267 1280H1134Q1142 1312 1147.0 1344.0Q1152 1376 1152 1408Q1152 1514 1111.5 1607.0Q1071 1700 1001.5 1769.5Q932 1839 839.0 1879.5Q746 1920 640 1920Q534 1920 441.0 1879.5Q348 1839 278.5 1769.5Q209 1700 168.5 1607.0Q128 1514 128 1408Q128 1298 173.5 1199.5Q219 1101 300 1028ZM2030 606Q2032 598 2032 593V497Q2032 493 2030 485Q2022 483 2017 483Q1977 484 1938.0 485.0Q1899 486 1859 486H1538V453Q1538 401 1539.0 349.0Q1540 297 1542 245V241Q1542 217 1533.0 193.0Q1524 169 1504 155Q1490 145 1464.5 139.5Q1439 134 1410.0 131.5Q1381 129 1353.5 128.5Q1326 128 1310 128Q1304 128 1291.0 128.5Q1278 129 1273 134Q1270 137 1266.0 150.0Q1262 163 1260 168Q1253 194 1243.5 216.5Q1234 239 1220 262Q1254 258 1288.0 256.5Q1322 255 1356 255Q1380 255 1392.5 262.5Q1405 270 1405 296V486H1086Q1046 486 1006.0 485.0Q966 484 926 483Q918 483 914 486Q912 492 912 497V593Q912 596 912.5 600.5Q913 605 915 607Q921 609 926 609Q966 608 1006.0 607.0Q1046 606 1086 606H1405Q1403 632 1402.5 658.5Q1402 685 1397 711Q1417 709 1436.5 707.5Q1456 706 1476 704Q1478 704 1479.5 703.5Q1481 703 1483 703Q1518 728 1550.0 756.0Q1582 784 1614 813H1306Q1264 813 1222.5 812.0Q1181 811 1139 810Q1131 810 1127 813Q1125 819 1125 824V919Q1125 923 1127 931Q1135 933 1139 933Q1181 932 1222.5 931.0Q1264 930 1306 930H1679Q1695 930 1709.0 934.5Q1723 939 1734 939Q1742 939 1757.0 927.0Q1772 915 1787.0 899.0Q1802 883 1813.5 866.5Q1825 850 1825 842Q1825 832 1818.5 826.5Q1812 821 1804 817Q1790 810 1777.0 799.0Q1764 788 1752 778Q1700 735 1647.5 694.5Q1595 654 1538 617V606H1859Q1899 606 1938.0 607.0Q1977 608 2017 609Q2024 609 2030 606ZM1391 1159Q1391 1189 1390.0 1220.0Q1389 1251 1382 1280Q1451 1280 1519 1274Q1525 1273 1531.5 1271.0Q1538 1269 1538 1261Q1538 1256 1535.0 1249.0Q1532 1242 1530 1237Q1528 1231 1526.5 1221.0Q1525 1211 1524.5 1199.5Q1524 1188 1524.0 1177.5Q1524 1167 1524 1161V1148H1820Q1862 1148 1903.5 1149.0Q1945 1150 1987 1151Q1994 1151 2000 1148Q2003 1143 2003 1138Q2002 1121 2001.0 1102.5Q2000 1084 2000 1067V1009Q2000 973 2001.0 936.5Q2002 900 2003 864Q2003 861 2002.5 857.0Q2002 853 2000 851Q1992 849 1987 849Q1982 849 1962.0 848.5Q1942 848 1921 848Q1902 848 1887.0 849.0Q1872 850 1870 852Q1868 860 1867.5 876.0Q1867 892 1867 912Q1867 945 1868.0 980.0Q1869 1015 1869 1032H1067Q1067 1028 1067.0 1017.5Q1067 1007 1067.5 992.5Q1068 978 1068.0 961.5Q1068 945 1068 928Q1068 899 1067.0 875.5Q1066 852 1064 850Q1056 848 1051 848H949Q938 848 936.0 851.0Q934 854 934 864Q935 904 935.0 943.0Q935 982 935 1022Q935 1051 935.0 1080.0Q935 1109 934 1138Q934 1143 936 1149Q944 1151 949 1151Q991 1150 1032.5 1149.0Q1074 1148 1116 1148H1391Z" transform="scale(1,-1)"/>
</svg>