<?xml version="1.0" encoding="UTF-8"?>
<svg xmlns="http://www.w3.org/2000/svg" viewBox="0 -2048 2048 2048">
  <path d="M1024 2048H2048V1536H1408L1153 1280V1536H1024ZM1920 1664V1920H1152V1664H1281V1590L1355 1664ZM1283 0H1155Q1155 107 1115.0 200.0Q1075 293 1005.0 362.0Q935 431 841.5 470.5Q748 510 641 510Q534 510 441.0 470.5Q348 431 278.0 362.0Q208 293 168.0 200.0Q128 107 128 0H0Q0 97 29.0 189.0Q58 281 111.0 359.5Q164 438 238.5 498.5Q313 559 404 593Q334 647 295.0 727.0Q256 807 256 896Q256 975 286.5 1045.0Q317 1115 369.0 1167.0Q421 1219 491.0 1249.5Q561 1280 640 1280Q719 1280 789.0 1249.5Q859 1219 911.0 1167.0Q963 1115 993.5 1045.0Q1024 975 1024 896Q1024 808 985.0 728.0Q946 648 877 594Q970 550 1045.0 492.0Q1120 434 1173.0 360.0Q1226 286 1254.5 196.5Q1283 107 1283 0ZM384 896Q384 843 404.0 796.5Q424 750 459.0 715.0Q494 680 540.5 660.0Q587 640 640 640Q693 640 739.5 660.0Q786 680 821.0 715.0Q856 750 876.0 796.5Q896 843 896 896Q896 949 876.0 995.5Q856 1042 821.0 1077.0Q786 1112 739.5 1132.0Q693 1152 640 1152Q587 1152 540.5 1132.0Q494 1112 459.0 1077.0Q424 1042 404.0 995.5Q384 949 384 896Z" transform="scale(1,-1)"/>
</svg>