<?xml version="1.0" encoding="UTF-8"?>
<svg xmlns="http://www.w3.org/2000/svg" viewBox="0 -2048 2048 2048">
  <path d="M384 512H1152V384H256Q229 384 205.5 374.0Q182 364 165.0 347.0Q148 330 138.0 306.5Q128 283 128 256Q128 229 138.0 205.5Q148 182 165.0 165.0Q182 148 205.5 138.0Q229 128 256 128H1152V0H256Q203 0 156.5 20.0Q110 40 75.0 75.0Q40 110 20.0 156.5Q0 203 0 256Q0 309 20.0 355.5Q40 402 75.0 437.0Q110 472 156.5 492.0Q203 512 256 512V1792Q256 1845 276.0 1891.5Q296 1938 331.0 1973.0Q366 2008 412.5 2028.0Q459 2048 512 2048H1792Q1845 2048 1891.5 2028.0Q1938 2008 1973.0 1973.0Q2008 1938 2028.0 1891.5Q2048 1845 2048 1792Q2048 1739 2028.0 1692.5Q2008 1646 1973.0 1611.0Q1938 1576 1891.5 1556.0Q1845 1536 1792 1536H1664V832L1536 896V1792Q1536 1862 1570 1920H512Q485 1920 462.0 1910.0Q439 1900 421.5 1882.5Q404 1865 394.0 1842.0Q384 1819 384 1792ZM1920 1792Q1920 1819 1910.0 1842.0Q1900 1865 1882.5 1882.5Q1865 1900 1842.0 1910.0Q1819 1920 1792 1920Q1765 1920 1742.0 1910.0Q1719 1900 1701.5 1882.5Q1684 1865 1674.0 1842.0Q1664 1819 1664 1792V1664H1792Q1819 1664 1842.0 1674.0Q1865 1684 1882.5 1701.5Q1900 1719 1910.0 1742.0Q1920 1765 1920 1792ZM1280 896 2048 453 1280 9ZM1408 231 1792 453 1408 674Z" transform="scale(1,-1)"/>
</svg>