<?xml version="1.0" encoding="UTF-8"?>
<svg xmlns="http://www.w3.org/2000/svg" viewBox="128 -1920 1920 1918">
  <path d="M1848 1152Q1890 1152 1926.5 1137.0Q1963 1122 1990.0 1095.5Q2017 1069 2032.5 1032.5Q2048 996 2048 954Q2048 915 2033.0 878.0Q2018 841 1990 813L1273 96L896 2L990 379L1707 1095Q1736 1124 1772.0 1138.0Q1808 1152 1848 1152ZM1899 903Q1920 924 1920 954Q1920 985 1899.5 1004.5Q1879 1024 1848 1024Q1834 1024 1821.0 1019.5Q1808 1015 1798 1005L1106 313L1072 178L1207 212ZM768 512H896L768 384H293L128 549V1792Q128 1819 138.0 1842.0Q148 1865 165.5 1882.5Q183 1900 206.0 1910.0Q229 1920 256 1920H1536Q1563 1920 1586.0 1910.0Q1609 1900 1626.5 1882.5Q1644 1865 1654.0 1842.0Q1664 1819 1664 1792V1280L1536 1152V1792H1408V1152H384V1792H256V603L347 512H384V1024H1280V896L1152 768V896H512V512H640V768H768ZM512 1280H1280V1792H512Z" transform="scale(1,-1)"/>
</svg>