<?xml version="1.0" encoding="UTF-8"?>
<svg xmlns="http://www.w3.org/2000/svg" viewBox="128 -1920 1917 1918">
  <path d="M1819 320 2045 93 1955 3 1728 229 1501 2 1411 93 1638 320 1411 547 1501 637 1728 410 1955 637 2045 546ZM1024 256Q1155 256 1280 301V166Q1220 144 1154.0 136.0Q1088 128 1024 128Q901 128 787.0 160.0Q673 192 573.0 251.0Q473 310 391.5 391.5Q310 473 251.0 573.0Q192 673 160.0 787.0Q128 901 128 1024Q128 1147 160.0 1261.0Q192 1375 251.0 1475.0Q310 1575 391.5 1656.5Q473 1738 573.0 1797.0Q673 1856 787.0 1888.0Q901 1920 1024 1920Q1147 1920 1261.0 1888.0Q1375 1856 1475.0 1797.0Q1575 1738 1656.5 1656.5Q1738 1575 1797.0 1475.0Q1856 1375 1888.0 1261.0Q1920 1147 1920 1024Q1920 960 1912.0 894.0Q1904 828 1882 768H1746Q1770 830 1781.0 894.0Q1792 958 1792 1024Q1792 1129 1764.5 1227.0Q1737 1325 1687.0 1410.5Q1637 1496 1566.5 1566.0Q1496 1636 1410.5 1686.5Q1325 1737 1227.0 1764.5Q1129 1792 1024 1792Q918 1792 820.5 1764.5Q723 1737 637.5 1687.0Q552 1637 482.0 1566.5Q412 1496 361.5 1410.5Q311 1325 283.5 1227.0Q256 1129 256 1024Q256 918 283.5 820.5Q311 723 361.5 637.5Q412 552 482.0 482.0Q552 412 637.5 361.5Q723 311 821.0 283.5Q919 256 1024 256ZM1536 1024Q1536 918 1495.5 825.0Q1455 732 1385.5 662.5Q1316 593 1223.0 552.5Q1130 512 1024 512Q918 512 825.0 552.5Q732 593 662.5 662.5Q593 732 552.5 825.0Q512 918 512 1024Q512 1130 552.5 1223.0Q593 1316 662.5 1385.5Q732 1455 825.0 1495.5Q918 1536 1024 1536Q1130 1536 1223.0 1495.5Q1316 1455 1385.5 1385.5Q1455 1316 1495.5 1223.0Q1536 1130 1536 1024ZM1408 1024Q1408 1103 1377.5 1173.0Q1347 1243 1295.0 1295.5Q1243 1348 1173.0 1378.0Q1103 1408 1024 1408Q944 1408 874.5 1378.0Q805 1348 752.5 1295.5Q700 1243 670.0 1173.0Q640 1103 640 1024Q640 944 670.0 874.5Q700 805 752.5 752.5Q805 700 874.5 670.0Q944 640 1024 640Q1103 640 1173.0 670.0Q1243 700 1295.5 752.5Q1348 805 1378.0 874.5Q1408 944 1408 1024ZM1152 1024Q1152 997 1142.0 974.0Q1132 951 1114.5 933.5Q1097 916 1074.0 906.0Q1051 896 1024 896Q997 896 974.0 906.0Q951 916 933.5 933.5Q916 951 906.0 974.0Q896 997 896 1024Q896 1051 906.0 1074.0Q916 1097 933.5 1114.5Q951 1132 974.0 1142.0Q997 1152 1024 1152Q1051 1152 1074.0 1142.0Q1097 1132 1114.5 1114.5Q1132 1097 1142.0 1074.0Q1152 1051 1152 1024Z" transform="scale(1,-1)"/>
</svg>