<?xml version="1.0" encoding="UTF-8"?>
<svg xmlns="http://www.w3.org/2000/svg" viewBox="128 -1920 1792 1792">
  <path d="M1024 1920Q1148 1920 1262.5 1888.0Q1377 1856 1476.5 1797.5Q1576 1739 1657.5 1657.5Q1739 1576 1797.5 1476.5Q1856 1377 1888.0 1262.5Q1920 1148 1920 1024Q1920 900 1888.0 785.5Q1856 671 1797.5 571.5Q1739 472 1657.5 390.5Q1576 309 1476.5 250.5Q1377 192 1262.5 160.0Q1148 128 1024 128Q900 128 785.5 160.0Q671 192 571.5 250.5Q472 309 390.5 390.5Q309 472 250.5 571.5Q192 671 160.0 785.5Q128 900 128 1024Q128 1148 160.0 1262.5Q192 1377 250.5 1476.5Q309 1576 390.5 1657.5Q472 1739 571.5 1797.5Q671 1856 785.5 1888.0Q900 1920 1024 1920ZM1024 256Q1130 256 1228.0 283.5Q1326 311 1411.5 361.0Q1497 411 1567.0 481.0Q1637 551 1687.0 636.5Q1737 722 1764.5 820.0Q1792 918 1792 1024Q1792 1130 1764.5 1228.0Q1737 1326 1687.0 1411.5Q1637 1497 1567.0 1567.0Q1497 1637 1411.5 1687.0Q1326 1737 1228.0 1764.5Q1130 1792 1024 1792Q918 1792 820.0 1764.5Q722 1737 636.5 1687.0Q551 1637 481.0 1567.0Q411 1497 361.0 1411.5Q311 1326 283.5 1228.0Q256 1130 256 1024Q256 918 283.5 820.0Q311 722 361.0 636.5Q411 551 481.0 481.0Q551 411 636.5 361.0Q722 311 820.0 283.5Q918 256 1024 256ZM1024 1536Q1130 1536 1223.5 1496.0Q1317 1456 1386.5 1386.5Q1456 1317 1496.0 1223.5Q1536 1130 1536 1024Q1536 918 1496.0 824.5Q1456 731 1386.5 661.5Q1317 592 1223.5 552.0Q1130 512 1024 512Q918 512 824.5 552.0Q731 592 661.5 661.5Q592 731 552.0 824.5Q512 918 512 1024Q512 1130 552.0 1223.5Q592 1317 661.5 1386.5Q731 1456 824.5 1496.0Q918 1536 1024 1536ZM1024 640Q1103 640 1173.0 670.0Q1243 700 1295.5 752.5Q1348 805 1378.0 874.5Q1408 944 1408 1024Q1408 1103 1378.0 1173.0Q1348 1243 1295.5 1295.5Q1243 1348 1173.0 1378.0Q1103 1408 1024 1408Q944 1408 874.5 1378.0Q805 1348 752.5 1295.5Q700 1243 670.0 1173.0Q640 1103 640 1024Q640 944 670.0 874.5Q700 805 752.5 752.5Q805 700 874.5 670.0Q944 640 1024 640ZM1024 1152Q1051 1152 1074.0 1142.0Q1097 1132 1114.5 1114.5Q1132 1097 1142.0 1074.0Q1152 1051 1152 1024Q1152 997 1142.0 974.0Q1132 951 1114.5 933.5Q1097 916 1074.0 906.0Q1051 896 1024 896Q997 896 974.0 906.0Q951 916 933.5 933.5Q916 951 906.0 974.0Q896 997 896 1024Q896 1051 906.0 1074.0Q916 1097 933.5 1114.5Q951 1132 974.0 1142.0Q997 1152 1024 1152Z" transform="scale(1,-1)"/>
</svg>