<?xml version="1.0" encoding="UTF-8"?>
<svg xmlns="http://www.w3.org/2000/svg" viewBox="0 -1920 2048 1793">
  <path d="M1889 1761Q1942 1708 1977.5 1645.0Q2013 1582 2030.5 1514.0Q2048 1446 2048.0 1375.5Q2048 1305 2030.5 1237.5Q2013 1170 1977.5 1107.0Q1942 1044 1889 991L1024 127L159 991Q106 1044 70.5 1107.0Q35 1170 17.5 1237.5Q0 1305 0.0 1375.5Q0 1446 17.5 1514.0Q35 1582 70.5 1645.0Q106 1708 159 1761Q237 1838 336.0 1879.0Q435 1920 544 1920Q653 1920 752.0 1879.0Q851 1838 929 1761L1024 1665L1119 1761Q1197 1838 1296.0 1879.0Q1395 1920 1504 1920Q1613 1920 1712.0 1879.0Q1811 1838 1889 1761Z" transform="scale(1,-1)"/>
</svg>