<?xml version="1.0" encoding="UTF-8"?>
<svg xmlns="http://www.w3.org/2000/svg" viewBox="0 -2048 1984 1792">
  <path d="M1408 512 1536 640V256H0V1536H128V384H1408ZM1280 1024Q1152 1024 1029.5 998.5Q907 973 793.0 923.5Q679 874 575.5 802.5Q472 731 384 640V768Q384 892 416.0 1006.5Q448 1121 506.5 1220.5Q565 1320 646.5 1401.5Q728 1483 827.5 1541.5Q927 1600 1041.5 1632.0Q1156 1664 1280 1664V2048L1984 1344L1280 640ZM1381 1536Q1325 1536 1276.0 1535.0Q1227 1534 1179.0 1528.5Q1131 1523 1083.0 1510.5Q1035 1498 981 1476Q894 1440 819.5 1384.0Q745 1328 686.5 1256.5Q628 1185 587.5 1101.5Q547 1018 528 926Q696 1038 887.0 1095.0Q1078 1152 1280 1152H1408V949L1803 1344L1408 1739V1536Z" transform="scale(1,-1)"/>
</svg>