<?xml version="1.0" encoding="UTF-8"?>
<svg xmlns="http://www.w3.org/2000/svg" viewBox="0 -2048 2048 2048">
  <path d="M1024 2048Q1165 2048 1296.0 2011.5Q1427 1975 1540.5 1908.0Q1654 1841 1747.5 1747.5Q1841 1654 1908.0 1540.5Q1975 1427 2011.5 1296.0Q2048 1165 2048 1024Q2048 883 2011.5 752.0Q1975 621 1908.0 507.5Q1841 394 1747.5 300.5Q1654 207 1540.5 140.0Q1427 73 1296.0 36.5Q1165 0 1024 0Q883 0 752.0 36.5Q621 73 507.5 140.0Q394 207 300.5 300.5Q207 394 140.0 507.5Q73 621 36.5 752.0Q0 883 0 1024Q0 1165 36.5 1296.0Q73 1427 140.0 1540.5Q207 1654 300.5 1747.5Q394 1841 507.5 1908.0Q621 1975 752.0 2011.5Q883 2048 1024 2048ZM1024 490Q1101 490 1173.5 511.5Q1246 533 1309.0 573.0Q1372 613 1423.0 669.5Q1474 726 1507 795L1351 869Q1328 822 1294.0 784.0Q1260 746 1217.0 719.0Q1174 692 1125.0 677.0Q1076 662 1024 662Q952 662 886.5 690.0Q821 718 770 768H896V896H512V512H640V654Q715 576 815.0 533.0Q915 490 1024 490ZM1536 1152V1536H1408V1394Q1333 1472 1233.0 1515.0Q1133 1558 1024 1558Q947 1558 874.5 1536.5Q802 1515 739.0 1475.0Q676 1435 625.0 1378.5Q574 1322 541 1253L697 1179Q719 1226 753.5 1264.0Q788 1302 831.0 1329.0Q874 1356 923.0 1371.0Q972 1386 1024 1386Q1096 1386 1161.5 1358.0Q1227 1330 1278 1280H1152V1152Z" transform="scale(1,-1)"/>
</svg>