<?xml version="1.0" encoding="UTF-8"?>
<svg xmlns="http://www.w3.org/2000/svg" viewBox="0 -2048 2048 2048">
  <path d="M1024 0Q882 0 751.5 36.5Q621 73 507.0 139.5Q393 206 299.5 299.5Q206 393 139.5 507.0Q73 621 36.5 752.0Q0 883 0 1024Q0 1165 36.5 1296.0Q73 1427 139.5 1541.0Q206 1655 299.5 1748.5Q393 1842 507.0 1908.5Q621 1975 752.0 2011.5Q883 2048 1024 2048Q1165 2048 1296.0 2011.5Q1427 1975 1541.0 1908.5Q1655 1842 1748.5 1748.5Q1842 1655 1908.5 1541.0Q1975 1427 2011.5 1296.0Q2048 1165 2048 1024Q2048 882 2011.5 751.5Q1975 621 1908.5 507.0Q1842 393 1748.5 299.5Q1655 206 1541.0 139.5Q1427 73 1296.0 36.5Q1165 0 1024 0ZM1024 1920Q901 1920 786.5 1888.0Q672 1856 572.5 1797.5Q473 1739 391.0 1657.0Q309 1575 250.5 1475.5Q192 1376 160.0 1261.5Q128 1147 128 1024Q128 901 160.0 786.5Q192 672 250.5 572.5Q309 473 391.0 391.0Q473 309 572.5 250.5Q672 192 786.5 160.0Q901 128 1024 128Q1147 128 1261.5 160.0Q1376 192 1475.5 250.5Q1575 309 1657.0 391.0Q1739 473 1797.5 572.5Q1856 672 1888.0 786.5Q1920 901 1920 1024Q1920 1147 1888.0 1261.5Q1856 1376 1797.5 1475.5Q1739 1575 1657.0 1657.0Q1575 1739 1475.5 1797.5Q1376 1856 1261.5 1888.0Q1147 1920 1024 1920ZM1024 1024V1664H896V896H1408V1024Z" transform="scale(1,-1)"/>
</svg>