<?xml version="1.0" encoding="UTF-8"?>
<svg xmlns="http://www.w3.org/2000/svg" viewBox="1 -2052 2044 2051">
  <path d="M513 768Q460 768 413.5 788.0Q367 808 332.0 842.5Q297 877 276.5 924.0Q256 971 256 1024Q256 1077 276.5 1124.0Q297 1171 332.0 1205.5Q367 1240 413.5 1260.0Q460 1280 513 1280V1664H896V1504Q896 1478 906.0 1454.5Q916 1431 933.5 1413.5Q951 1396 974.5 1386.0Q998 1376 1024 1376Q1051 1376 1074.0 1386.0Q1097 1396 1114.5 1413.5Q1132 1431 1142.0 1454.0Q1152 1477 1152 1504V1664H1534V1280Q1589 1280 1636.0 1260.5Q1683 1241 1717.0 1207.0Q1751 1173 1770.5 1126.0Q1790 1079 1790 1024Q1790 969 1770.5 922.0Q1751 875 1717.0 841.0Q1683 807 1636.0 787.5Q1589 768 1534 768V384H1152V544Q1152 571 1142.0 594.0Q1132 617 1114.5 634.5Q1097 652 1074.0 662.0Q1051 672 1024 672Q998 672 974.5 662.0Q951 652 933.5 634.5Q916 617 906.0 593.5Q896 570 896 544V384H513ZM512 1152Q486 1152 462.5 1142.0Q439 1132 421.5 1114.5Q404 1097 394.0 1073.5Q384 1050 384 1024Q384 998 394.0 974.5Q404 951 421.5 933.5Q439 916 462.5 906.0Q486 896 512 896H641V512H768V544Q768 597 788.0 643.5Q808 690 843.0 725.0Q878 760 924.5 780.0Q971 800 1024 800Q1077 800 1123.5 780.0Q1170 760 1205.0 725.0Q1240 690 1260.0 643.5Q1280 597 1280 544V512H1406V896H1541Q1568 896 1590.5 906.0Q1613 916 1628.5 933.5Q1644 951 1653.0 974.5Q1662 998 1662 1024Q1662 1050 1653.0 1073.5Q1644 1097 1628.5 1114.5Q1613 1132 1590.5 1142.0Q1568 1152 1541 1152H1406V1536H1280V1504Q1280 1451 1260.0 1404.5Q1240 1358 1205.0 1323.0Q1170 1288 1123.5 1268.0Q1077 1248 1024 1248Q971 1248 924.5 1268.0Q878 1288 843.0 1323.0Q808 1358 788.0 1404.5Q768 1451 768 1504V1536H641V1152ZM2045 2052V1H1V2052ZM1917 1924H129V129H1917Z" transform="scale(1,-1)"/>
</svg>