<?xml version="1.0" encoding="UTF-8"?>
<svg xmlns="http://www.w3.org/2000/svg" viewBox="0 -2048 2048 2048">
  <path d="M896 2048V1152H0Q0 1275 32.0 1389.5Q64 1504 122.5 1603.5Q181 1703 263.0 1785.0Q345 1867 444.5 1925.5Q544 1984 658.5 2016.0Q773 2048 896 2048ZM768 1280V1910Q647 1889 541.0 1833.5Q435 1778 352.5 1695.5Q270 1613 214.5 1507.0Q159 1401 138 1280ZM1792 640V384H2048V256H1792V0H1664V256H1408V384H1664V640ZM1152 1790V933L547 328Q662 230 799.5 179.0Q937 128 1088 128Q1137 128 1184.5 134.5Q1232 141 1280 152V21Q1232 11 1184.5 5.5Q1137 0 1088 0Q893 0 720.0 71.5Q547 143 409 281L364 326L1024 987V1920Q1108 1920 1191.0 1912.5Q1274 1905 1355 1883Q1382 1875 1409.0 1865.5Q1436 1856 1462 1845Q1595 1789 1703.5 1697.5Q1812 1606 1888.5 1490.5Q1965 1375 2006.5 1239.5Q2048 1104 2048 960Q2048 911 2042.5 863.5Q2037 816 2027 768H1896Q1907 816 1913.5 863.5Q1920 911 1920 960Q1920 1068 1893.0 1169.0Q1866 1270 1817.0 1360.0Q1768 1450 1698.0 1525.5Q1628 1601 1543.0 1657.5Q1458 1714 1359.0 1748.0Q1260 1782 1152 1790ZM0 1024H864L240 400Q121 528 60.5 689.0Q0 850 0 1024ZM252 593 555 896H138Q152 815 179.5 738.5Q207 662 252 593Z" transform="scale(1,-1)"/>
</svg>