<?xml version="1.0" encoding="UTF-8"?>
<svg xmlns="http://www.w3.org/2000/svg" viewBox="0 -2048 2048 2048">
  <path d="M2038 560 1914 509Q1920 479 1920 448Q1920 417 1914 387L2038 336L1989 217L1865 269Q1850 244 1827.0 221.5Q1804 199 1779 183L1831 59L1712 10L1661 134Q1631 128 1600 128Q1569 128 1539 134L1488 10L1369 59L1421 183Q1370 218 1335 269L1211 217L1162 336L1286 387Q1280 417 1280 448Q1280 479 1286 509L1162 560L1211 679L1335 627Q1369 679 1421 713L1369 837L1488 886L1539 762Q1553 764 1566.5 765.5Q1580 767 1594 767Q1611 767 1627.0 765.0Q1643 763 1660 760L1712 886L1831 837L1778 711Q1804 694 1826.0 673.5Q1848 653 1865 627L1989 679ZM1601 256Q1640 256 1674.5 271.5Q1709 287 1735.5 313.0Q1762 339 1777.0 374.0Q1792 409 1792 448Q1792 488 1777.0 523.0Q1762 558 1736.0 584.0Q1710 610 1675.0 625.0Q1640 640 1600 640Q1561 640 1526.0 625.0Q1491 610 1464.5 583.5Q1438 557 1423.0 522.0Q1408 487 1408 448Q1408 408 1423.5 373.0Q1439 338 1465.0 312.0Q1491 286 1526.5 271.0Q1562 256 1601 256ZM1472 1920Q1379 1920 1297.5 1884.5Q1216 1849 1155.5 1788.5Q1095 1728 1059.5 1646.5Q1024 1565 1024 1472Q1024 1437 1030.0 1404.0Q1036 1371 1044 1338L189 482Q160 453 144.0 415.0Q128 377 128 335Q128 292 144.5 254.5Q161 217 189.0 189.5Q217 162 254.5 146.0Q292 130 335 130Q377 130 415.0 145.0Q453 160 482 189L1024 731V549L573 98Q525 50 464.0 25.0Q403 0 335 0Q266 0 205.0 26.5Q144 53 98.5 98.5Q53 144 26.5 205.0Q0 266 0 335Q0 402 25.0 463.5Q50 525 98 573L904 1379Q899 1402 897.5 1425.5Q896 1449 896 1472Q896 1551 916.5 1624.5Q937 1698 974.5 1762.0Q1012 1826 1065.0 1879.0Q1118 1932 1182.0 1969.5Q1246 2007 1319.5 2027.5Q1393 2048 1472 2048Q1525 2048 1568.5 2040.0Q1612 2032 1652.0 2017.0Q1692 2002 1731.0 1982.0Q1770 1962 1814 1938Q1818 1936 1821.0 1934.0Q1824 1932 1828 1930L1434 1536L1536 1434L1930 1828Q1932 1824 1934.0 1820.5Q1936 1817 1938 1813Q1962 1770 1982.0 1731.0Q2002 1692 2016.5 1652.0Q2031 1612 2039.5 1568.0Q2048 1524 2048 1472Q2048 1354 2004.0 1251.5Q1960 1149 1879 1065L1839 1024H1658Q1710 1076 1757.5 1122.5Q1805 1169 1841.0 1220.0Q1877 1271 1898.5 1331.5Q1920 1392 1920 1472Q1920 1545 1896 1613L1536 1254L1254 1536L1613 1896Q1545 1920 1472 1920Z" transform="scale(1,-1)"/>
</svg>