<?xml version="1.0" encoding="UTF-8"?>
<svg xmlns="http://www.w3.org/2000/svg" viewBox="0 -1990 1990 1990">
  <path d="M1990 1300Q1957 1267 1925.5 1239.5Q1894 1212 1860.0 1193.0Q1826 1174 1786.5 1163.5Q1747 1153 1698 1153Q1664 1153 1633 1159L1254 780Q1267 742 1273.0 702.0Q1279 662 1279 622Q1279 557 1266.0 503.5Q1253 450 1228.5 403.5Q1204 357 1169.0 314.5Q1134 272 1090 228L704 614L136 45L0 0L45 136L614 704L228 1090Q272 1134 314.5 1169.0Q357 1204 403.5 1228.5Q450 1253 503.5 1266.0Q557 1279 622 1279Q662 1279 702.0 1273.0Q742 1267 780 1254L1159 1633Q1153 1664 1153 1698Q1153 1747 1163.5 1786.5Q1174 1826 1193.0 1860.0Q1212 1894 1239.5 1925.5Q1267 1957 1300 1990Z" transform="scale(1,-1)"/>
</svg>