<?xml version="1.0" encoding="UTF-8"?>
<svg xmlns="http://www.w3.org/2000/svg" viewBox="0 -2048 2048 1920">
  <path d="M1408 2048Q1448 2048 1486.0 2035.5Q1524 2023 1556.0 2000.0Q1588 1977 1612.5 1945.5Q1637 1914 1650 1876L2013 788Q2048 685 2048 576Q2048 483 2012.5 401.5Q1977 320 1916.5 259.5Q1856 199 1774.5 163.5Q1693 128 1600 128Q1511 128 1428.5 162.0Q1346 196 1283 259Q1220 322 1186.0 404.5Q1152 487 1152 576V1024H896V576Q896 487 862.0 404.5Q828 322 765 259Q702 196 619.5 162.0Q537 128 448 128Q355 128 273.5 163.5Q192 199 131.5 259.5Q71 320 35.5 401.5Q0 483 0 576Q0 685 35 788Q40 802 58.0 856.5Q76 911 102.5 990.5Q129 1070 161.5 1166.5Q194 1263 227.0 1361.5Q260 1460 291.0 1553.5Q322 1647 346.0 1719.0Q370 1791 384.5 1835.0Q399 1879 399 1879Q414 1916 438.0 1947.5Q462 1979 493.5 2001.0Q525 2023 562.0 2035.5Q599 2048 640 2048Q714 2048 761.5 2024.0Q809 2000 837.5 1959.5Q866 1919 879.0 1866.5Q892 1814 895.5 1757.0Q899 1700 897.5 1642.5Q896 1585 896 1536H1152Q1152 1585 1150.5 1642.5Q1149 1700 1152.5 1757.0Q1156 1814 1169.0 1866.5Q1182 1919 1210.5 1959.5Q1239 2000 1286.5 2024.0Q1334 2048 1408 2048ZM448 256Q514 256 572.0 281.5Q630 307 673.5 350.5Q717 394 742.5 452.0Q768 510 768 576Q768 642 742.5 700.0Q717 758 673.5 801.5Q630 845 572.0 870.5Q514 896 448 896Q382 896 324.0 870.5Q266 845 222.5 801.5Q179 758 153.5 700.0Q128 642 128 576Q128 510 153.5 452.0Q179 394 222.5 350.5Q266 307 324.0 281.5Q382 256 448 256ZM768 1792Q768 1819 758.0 1842.0Q748 1865 730.5 1882.5Q713 1900 690.0 1910.0Q667 1920 640 1920Q601 1920 566.5 1896.0Q532 1872 519 1834L230 968Q281 995 336.0 1009.5Q391 1024 448 1024Q481 1024 528.5 1014.5Q576 1005 623.5 987.5Q671 970 710.5 945.0Q750 920 768 889ZM1152 1152V1408H896V1152ZM1280 889Q1298 920 1337.5 945.0Q1377 970 1424.5 987.5Q1472 1005 1519.5 1014.5Q1567 1024 1600 1024Q1657 1024 1712.0 1009.5Q1767 995 1818 968L1529 1834Q1516 1872 1481.5 1896.0Q1447 1920 1408 1920Q1381 1920 1358.0 1910.0Q1335 1900 1317.5 1882.5Q1300 1865 1290.0 1842.0Q1280 1819 1280 1792ZM1600 256Q1666 256 1724.0 281.5Q1782 307 1825.5 350.5Q1869 394 1894.5 452.0Q1920 510 1920 576Q1920 642 1894.5 700.0Q1869 758 1825.5 801.5Q1782 845 1724.0 870.5Q1666 896 1600 896Q1534 896 1476.0 870.5Q1418 845 1374.5 801.5Q1331 758 1305.5 700.0Q1280 642 1280 576Q1280 510 1305.5 452.0Q1331 394 1374.5 350.5Q1418 307 1476.0 281.5Q1534 256 1600 256Z" transform="scale(1,-1)"/>
</svg>