<?xml version="1.0" encoding="UTF-8"?>
<svg xmlns="http://www.w3.org/2000/svg" viewBox="0 -2048 2048 2048">
  <path d="M1024 2048Q1165 2048 1296.0 2011.5Q1427 1975 1540.5 1908.0Q1654 1841 1747.5 1747.5Q1841 1654 1908.0 1540.5Q1975 1427 2011.5 1296.0Q2048 1165 2048 1024Q2048 883 2011.5 752.0Q1975 621 1908.0 507.5Q1841 394 1747.5 300.5Q1654 207 1540.5 140.0Q1427 73 1296.0 36.5Q1165 0 1024 0Q883 0 752.0 36.5Q621 73 507.0 139.5Q393 206 299.5 299.5Q206 393 139.5 507.0Q73 621 36.5 751.5Q0 882 0 1024Q0 1165 36.5 1296.0Q73 1427 140.0 1540.5Q207 1654 300.5 1747.5Q394 1841 507.5 1908.0Q621 1975 752.0 2011.5Q883 2048 1024 2048ZM1024 128Q1148 128 1262.5 160.0Q1377 192 1476.5 250.5Q1576 309 1657.5 390.5Q1739 472 1797.5 571.5Q1856 671 1888.0 785.5Q1920 900 1920 1024Q1920 1148 1888.0 1262.5Q1856 1377 1797.5 1476.5Q1739 1576 1657.5 1657.5Q1576 1739 1476.5 1797.5Q1377 1856 1262.5 1888.0Q1148 1920 1024 1920Q900 1920 785.5 1888.0Q671 1856 571.5 1797.5Q472 1739 390.5 1657.5Q309 1576 250.5 1476.5Q192 1377 160.0 1262.5Q128 1148 128 1024Q128 900 160.0 785.5Q192 671 250.0 571.5Q308 472 390.0 390.0Q472 308 571.5 250.0Q671 192 785.5 160.0Q900 128 1024 128ZM1088 1089H1536V961H1088V512H960V961H512V1089H960V1536H1088Z" transform="scale(1,-1)"/>
</svg>