<?xml version="1.0" encoding="UTF-8"?>
<svg xmlns="http://www.w3.org/2000/svg" viewBox="0 -1664 2048 1664">
  <path d="M640 256H1152L896 0ZM2048 975V512H1524Q1514 483 1496.0 459.5Q1478 436 1454.5 419.5Q1431 403 1402.5 393.5Q1374 384 1344 384Q1314 384 1285.5 393.5Q1257 403 1233.5 419.5Q1210 436 1192.0 459.5Q1174 483 1164 512H628Q618 483 600.0 459.5Q582 436 558.5 419.5Q535 403 506.5 393.5Q478 384 448 384Q418 384 389.5 393.5Q361 403 337.5 419.5Q314 436 296.0 459.5Q278 483 268 512H0V1664H1408V1536H1768ZM448 512Q474 512 493.0 531.0Q512 550 512 576Q512 602 493.0 621.0Q474 640 448 640Q422 640 403.0 621.0Q384 602 384 576Q384 550 403.0 531.0Q422 512 448 512ZM1164 640Q1178 681 1208.5 711.5Q1239 742 1280 756V1536H128V640H268Q278 668 296.0 692.0Q314 716 337.5 732.5Q361 749 389.5 758.5Q418 768 448 768Q478 768 506.5 758.5Q535 749 558.5 732.5Q582 716 600.0 692.0Q618 668 628 640ZM1344 512Q1370 512 1389.0 531.0Q1408 550 1408 576Q1408 602 1389.0 621.0Q1370 640 1344 640Q1318 640 1299.0 621.0Q1280 602 1280 576Q1280 550 1299.0 531.0Q1318 512 1344 512ZM1920 945 1688 1408H1408V756Q1449 742 1479.5 711.5Q1510 681 1524 640H1920Z" transform="scale(1,-1)"/>
</svg>