<?xml version="1.0" encoding="UTF-8"?>
<svg xmlns="http://www.w3.org/2000/svg" viewBox="0 -1920 2048 1920">
  <path d="M1408 1600Q1408 1626 1427.0 1645.0Q1446 1664 1472 1664Q1498 1664 1517.0 1645.0Q1536 1626 1536 1600Q1536 1574 1517.0 1555.0Q1498 1536 1472 1536Q1446 1536 1427.0 1555.0Q1408 1574 1408 1600ZM2048 512V0H1536V128H1829L1427 531L1517 621L1920 219V512ZM922 960 1274 608 1178 512H0V1920H1792V584L1664 707V1792H128V1371L320 1562L832 1050L1088 1306L1531 863L1440 773L1088 1126ZM320 1382 128 1189V640H1061Z" transform="scale(1,-1)"/>
</svg>