<?xml version="1.0" encoding="UTF-8"?>
<svg xmlns="http://www.w3.org/2000/svg" viewBox="0 -1792 2047 1792">
  <path d="M256 579 384 707V256H256ZM0 323 128 451V256H0ZM1024 445V963L1152 850V573ZM896 256H768V1091L832 1155L896 1091ZM512 835 640 963V256H512ZM832 1382 0 549V731L832 1562L1152 1243L1573 1664H1280V1792H1792V1280H1664V1573L1152 1061ZM1664 1152Q1743 1152 1813.0 1122.0Q1883 1092 1935.0 1039.5Q1987 987 2017.0 917.0Q2047 847 2047 768Q2047 688 2017.0 618.5Q1987 549 1935.0 496.5Q1883 444 1813.0 414.0Q1743 384 1664 384Q1604 384 1547.0 402.0Q1490 420 1442 455L1005 19Q986 0 960 0Q934 0 915.0 19.0Q896 38 896 64Q896 90 915 109L1351 546Q1316 594 1298.0 651.0Q1280 708 1280 768Q1280 847 1310.0 917.0Q1340 987 1392.5 1039.5Q1445 1092 1514.5 1122.0Q1584 1152 1664 1152ZM1664 512Q1717 512 1763.5 532.0Q1810 552 1845.0 587.0Q1880 622 1900.0 668.5Q1920 715 1920 768Q1920 821 1900.0 867.5Q1880 914 1845.0 949.0Q1810 984 1763.5 1004.0Q1717 1024 1664 1024Q1611 1024 1564.5 1004.0Q1518 984 1483.0 949.0Q1448 914 1428.0 867.5Q1408 821 1408 768Q1408 715 1428.0 668.5Q1448 622 1483.0 587.0Q1518 552 1564.5 532.0Q1611 512 1664 512Z" transform="scale(1,-1)"/>
</svg>