<?xml version="1.0" encoding="UTF-8"?>
<svg xmlns="http://www.w3.org/2000/svg" viewBox="0 -2048 2048 2048">
  <path d="M128 1408H0V1536H128ZM128 1152H0V1280H128ZM128 896H0V1024H128ZM128 640H0V768H128ZM128 384H0V512H128ZM128 256V128H0V256ZM128 128H256V0H128ZM384 128H512V0H384ZM128 1920H0V2048H128ZM384 1920H256V2048H384ZM640 1920H512V2048H640ZM896 1920H768V2048H896ZM1152 1920H1024V2048H1152ZM1408 1920H1280V2048H1408ZM1408 1792V1920H1536V1792ZM1536 1536H1408V1664H1536ZM128 1664H0V1792H128ZM1536 1280H1408V1408H1536ZM1408 1152H1536V1024H1408ZM2048 896V0H640V896ZM837 768 1344 506 1851 768ZM1920 128V667L1344 370L768 667V128Z" transform="scale(1,-1)"/>
</svg>