<?xml version="1.0" encoding="UTF-8"?>
<svg xmlns="http://www.w3.org/2000/svg" viewBox="120 -1920 1800 1801">
  <path d="M1772 1920Q1802 1920 1829.0 1908.5Q1856 1897 1876.5 1876.5Q1897 1856 1908.5 1829.0Q1920 1802 1920 1772V268Q1920 238 1908.0 210.5Q1896 183 1876.0 163.0Q1856 143 1829.0 131.0Q1802 119 1771 119Q1742 119 1714.0 131.0Q1686 143 1666 163L1536 293V268Q1536 238 1524.0 210.5Q1512 183 1492.0 163.0Q1472 143 1445.0 131.0Q1418 119 1387 119Q1358 119 1330.0 131.0Q1302 143 1282 163L1152 293V268Q1152 238 1140.0 210.5Q1128 183 1108.0 163.0Q1088 143 1061.0 131.0Q1034 119 1003 119Q974 119 946.0 131.0Q918 143 898 163L163 898Q142 919 131.0 946.5Q120 974 120 1003Q120 1034 131.5 1061.0Q143 1088 163.0 1108.0Q183 1128 210.0 1140.0Q237 1152 268 1152H293L163 1282Q142 1303 131.0 1330.5Q120 1358 120 1387Q120 1418 131.5 1445.0Q143 1472 163.0 1492.0Q183 1512 210.0 1524.0Q237 1536 268 1536H293L163 1666Q142 1687 131.0 1714.5Q120 1742 120 1771Q120 1802 131.5 1829.0Q143 1856 163.0 1876.0Q183 1896 210.0 1908.0Q237 1920 268 1920ZM1024 268V1004Q1024 1012 1018.0 1018.0Q1012 1024 1004 1024H268Q259 1024 253.5 1018.0Q248 1012 248 1004Q248 995 254 989L989 254Q995 248 1004 248Q1012 248 1018.0 253.5Q1024 259 1024 268ZM1408 268V1388Q1408 1396 1402.0 1402.0Q1396 1408 1388 1408H268Q259 1408 253.5 1402.0Q248 1396 248 1388Q248 1379 254 1373L475 1152H1004Q1034 1152 1061.0 1140.5Q1088 1129 1108.5 1108.5Q1129 1088 1140.5 1061.0Q1152 1034 1152 1004V475L1373 254Q1379 248 1388 248Q1396 248 1402.0 253.5Q1408 259 1408 268ZM1792 268V1772Q1792 1780 1786.0 1786.0Q1780 1792 1772 1792H268Q259 1792 253.5 1786.0Q248 1780 248 1772Q248 1763 254 1757L475 1536H1388Q1418 1536 1445.0 1524.5Q1472 1513 1492.5 1492.5Q1513 1472 1524.5 1445.0Q1536 1418 1536 1388V475L1757 254Q1763 248 1772 248Q1780 248 1786.0 253.5Q1792 259 1792 268Z" transform="scale(1,-1)"/>
</svg>