<?xml version="1.0" encoding="UTF-8"?>
<svg xmlns="http://www.w3.org/2000/svg" viewBox="0 -2048 2048 2046">
  <path d="M942 512H896V1024H1024V594ZM128 256H828L796 128H0V1920H384V2048H512V1920H1536V2048H1664V1920H2048V1280H1920V1408H128ZM128 1792V1536H1920V1792H1664V1664H1536V1792H512V1664H384V1792ZM1848 1152Q1890 1152 1926.5 1137.0Q1963 1122 1990.0 1095.5Q2017 1069 2032.5 1032.5Q2048 996 2048 954Q2048 915 2033.0 878.0Q2018 841 1990 813L1273 96L896 2L990 379L1707 1095Q1736 1124 1772.0 1138.0Q1808 1152 1848 1152ZM1899 903Q1920 924 1920 954Q1920 985 1899.5 1004.5Q1879 1024 1848 1024Q1834 1024 1821.0 1019.5Q1808 1015 1798 1005L1106 313L1072 178L1207 212ZM896 1216Q896 1242 915.0 1261.0Q934 1280 960 1280Q986 1280 1005.0 1261.0Q1024 1242 1024 1216Q1024 1190 1005.0 1171.0Q986 1152 960 1152Q934 1152 915.0 1171.0Q896 1190 896 1216Z" transform="scale(1,-1)"/>
</svg>