<?xml version="1.0" encoding="UTF-8"?>
<svg xmlns="http://www.w3.org/2000/svg" viewBox="0 -2048 1920 1920">
  <path d="M960 128Q827 128 704.5 162.0Q582 196 475.0 258.5Q368 321 280.5 408.5Q193 496 130.5 603.0Q68 710 34.0 832.5Q0 955 0 1088Q0 1221 34.0 1343.5Q68 1466 130.5 1573.0Q193 1680 280.5 1767.5Q368 1855 475.0 1917.5Q582 1980 704.5 2014.0Q827 2048 960 2048Q1093 2048 1215.5 2014.0Q1338 1980 1445.0 1917.5Q1552 1855 1639.5 1767.5Q1727 1680 1789.5 1573.0Q1852 1466 1886.0 1343.5Q1920 1221 1920 1088Q1920 955 1886.0 832.5Q1852 710 1789.5 603.0Q1727 496 1639.5 408.5Q1552 321 1445.0 258.5Q1338 196 1215.5 162.0Q1093 128 960 128ZM960 1920Q845 1920 739.0 1890.0Q633 1860 540.5 1806.0Q448 1752 372.0 1676.0Q296 1600 242.0 1507.5Q188 1415 158.0 1308.5Q128 1202 128 1088Q128 974 158.0 867.5Q188 761 242.0 668.5Q296 576 372.0 500.0Q448 424 540.5 370.0Q633 316 739.0 286.0Q845 256 960 256Q1074 256 1180.5 286.0Q1287 316 1379.5 370.0Q1472 424 1548.0 500.0Q1624 576 1678.0 668.5Q1732 761 1762.0 867.0Q1792 973 1792 1088Q1792 1202 1762.0 1308.5Q1732 1415 1678.0 1507.5Q1624 1600 1548.0 1676.0Q1472 1752 1379.5 1806.0Q1287 1860 1180.5 1890.0Q1074 1920 960 1920ZM896 1280H1024V640H896ZM896 1536H1024V1408H896Z" transform="scale(1,-1)"/>
</svg>