<?xml version="1.0" encoding="UTF-8"?>
<svg xmlns="http://www.w3.org/2000/svg" viewBox="0 -2048 2048 2048">
  <path d="M896 1280V640H768V1280ZM384 384V1280H512V384ZM1642 594Q1733 558 1808.0 497.5Q1883 437 1936.5 359.5Q1990 282 2019.0 190.5Q2048 99 2048 0H1920Q1920 106 1879.5 199.0Q1839 292 1769.5 361.5Q1700 431 1607.0 471.5Q1514 512 1408 512Q1302 512 1209.0 471.5Q1116 431 1046.5 361.5Q977 292 936.5 199.0Q896 106 896 0H768Q768 99 797.0 190.5Q826 282 879.5 359.5Q933 437 1007.5 497.5Q1082 558 1174 594Q1103 648 1063.5 727.0Q1024 806 1024 896Q1024 975 1054.0 1045.0Q1084 1115 1136.5 1167.5Q1189 1220 1258.5 1250.0Q1328 1280 1408 1280Q1487 1280 1557.0 1250.0Q1627 1220 1679.5 1167.5Q1732 1115 1762.0 1045.0Q1792 975 1792 896Q1792 806 1752.5 727.0Q1713 648 1642 594ZM1152 896Q1152 843 1172.0 796.5Q1192 750 1227.0 715.0Q1262 680 1308.5 660.0Q1355 640 1408 640Q1461 640 1507.5 660.0Q1554 680 1589.0 715.0Q1624 750 1644.0 796.5Q1664 843 1664 896Q1664 949 1644.0 995.5Q1624 1042 1589.0 1077.0Q1554 1112 1507.5 1132.0Q1461 1152 1408 1152Q1355 1152 1308.5 1132.0Q1262 1112 1227.0 1077.0Q1192 1042 1172.0 995.5Q1152 949 1152 896ZM2048 1920V459Q1994 542 1920 608V1408H128V256H641Q619 195 608 128H0V1920H384V2048H512V1920H1536V2048H1664V1920ZM1920 1792H1664V1664H1536V1792H512V1664H384V1792H128V1536H1920Z" transform="scale(1,-1)"/>
</svg>