<?xml version="1.0" encoding="UTF-8"?>
<svg xmlns="http://www.w3.org/2000/svg" viewBox="0 -1792 2040 1408">
  <path d="M1703 1536H1273Q1280 1565 1280 1600Q1280 1635 1273 1664H1832ZM1792 512V934L1920 1063V384H0V1664H647Q640 1635 640 1600Q640 1565 647 1536H128V512ZM960 1408Q920 1408 885.0 1423.0Q850 1438 824.0 1464.0Q798 1490 783.0 1525.0Q768 1560 768 1600Q768 1640 783.0 1675.0Q798 1710 824.0 1736.0Q850 1762 885.0 1777.0Q920 1792 960 1792Q1000 1792 1035.0 1777.0Q1070 1762 1096.0 1736.0Q1122 1710 1137.0 1675.0Q1152 1640 1152 1600Q1152 1560 1137.0 1525.0Q1122 1490 1096.0 1464.0Q1070 1438 1035.0 1423.0Q1000 1408 960 1408ZM1286 769 1382 990 1921 1527 2040 1408Q1933 1301 1856.5 1224.0Q1780 1147 1726.5 1092.5Q1673 1038 1638.5 1002.5Q1604 967 1579.5 943.0Q1555 919 1538.0 902.5Q1521 886 1502 870Q1502 870 1487.0 863.0Q1472 856 1449.0 845.0Q1426 834 1399.0 821.5Q1372 809 1348.5 798.0Q1325 787 1307.5 779.0Q1290 771 1286 769Z" transform="scale(1,-1)"/>
</svg>