<?xml version="1.0" encoding="UTF-8"?>
<svg xmlns="http://www.w3.org/2000/svg" viewBox="0 -1664 2048 1658">
  <path d="M1280 512H832Q806 512 787.0 530.5Q768 549 768 576Q768 588 776.5 614.0Q785 640 796.5 670.0Q808 700 819.5 727.0Q831 754 836 768H448Q422 768 403.0 786.5Q384 805 384 832Q384 844 392.5 870.0Q401 896 412.5 926.0Q424 956 435.5 983.0Q447 1010 452 1024H64Q38 1024 19.0 1042.5Q0 1061 0 1088Q0 1096 11.5 1130.5Q23 1165 40.5 1212.5Q58 1260 79.0 1315.5Q100 1371 119.0 1421.0Q138 1471 153.0 1509.5Q168 1548 174 1562Q191 1607 231.5 1635.5Q272 1664 320 1664H960Q984 1664 1007.0 1656.0Q1030 1648 1049.0 1634.5Q1068 1621 1082.5 1601.5Q1097 1582 1106 1560L1164 1408H1344Q1368 1408 1391.0 1400.0Q1414 1392 1433.0 1378.5Q1452 1365 1466.5 1345.5Q1481 1326 1490 1304L1548 1152H1728Q1778 1152 1817.0 1122.5Q1856 1093 1874 1048L1884 1024H1088Q1081 1024 1073.0 1018.0Q1065 1012 1063 1006L924 640H1280ZM500 1152 558 1306Q575 1351 615.5 1379.5Q656 1408 704 1408H1027L986 1517Q984 1523 975.5 1529.5Q967 1536 960 1536H320Q313 1536 305.0 1530.0Q297 1524 295 1518L156 1152ZM884 896 942 1050Q959 1095 999.5 1123.5Q1040 1152 1088 1152H1411L1370 1261Q1368 1267 1359.5 1273.5Q1351 1280 1344 1280H704Q697 1280 689.0 1274.0Q681 1268 679 1262L540 896ZM1728 896Q1794 896 1852.0 870.5Q1910 845 1953.5 801.5Q1997 758 2022.5 700.0Q2048 642 2048 576Q2048 510 2022.5 451.5Q1997 393 1953.5 349.5Q1910 306 1852.0 281.0Q1794 256 1728 256Q1681 256 1636.0 269.5Q1591 283 1552 309L1248 6L1158 96L1461 400Q1435 439 1421.5 484.0Q1408 529 1408 576Q1408 642 1433.0 700.0Q1458 758 1501.5 801.5Q1545 845 1603.5 870.5Q1662 896 1728 896ZM1728 384Q1768 384 1803.0 399.0Q1838 414 1864.0 440.0Q1890 466 1905.0 501.0Q1920 536 1920 576Q1920 616 1905.0 651.0Q1890 686 1864.0 712.0Q1838 738 1803.0 753.0Q1768 768 1728 768Q1688 768 1653.0 753.0Q1618 738 1592.0 712.0Q1566 686 1551.0 651.0Q1536 616 1536 576Q1536 536 1551.0 501.0Q1566 466 1592.0 440.0Q1618 414 1653.0 399.0Q1688 384 1728 384Z" transform="scale(1,-1)"/>
</svg>