<?xml version="1.0" encoding="UTF-8"?>
<svg xmlns="http://www.w3.org/2000/svg" viewBox="128 -1920 1792 1792">
  <path d="M1024 1920Q1147 1920 1261.5 1888.0Q1376 1856 1475.5 1797.5Q1575 1739 1657.0 1657.0Q1739 1575 1797.5 1475.5Q1856 1376 1888.0 1261.5Q1920 1147 1920 1024Q1920 901 1888.0 786.5Q1856 672 1797.5 572.5Q1739 473 1657.0 391.0Q1575 309 1475.5 250.5Q1376 192 1261.5 160.0Q1147 128 1024 128Q901 128 786.5 160.0Q672 192 572.5 250.5Q473 309 391.0 391.0Q309 473 250.5 572.5Q192 672 160.0 786.0Q128 900 128 1024Q128 1147 160.0 1261.5Q192 1376 250.5 1475.5Q309 1575 391.0 1657.0Q473 1739 572.5 1797.5Q672 1856 786.0 1888.0Q900 1920 1024 1920ZM1152 1518Q1236 1496 1306.5 1449.0Q1377 1402 1428.0 1336.5Q1479 1271 1507.5 1191.0Q1536 1111 1536 1024H1792Q1792 1164 1744.0 1291.0Q1696 1418 1610.5 1519.0Q1525 1620 1407.5 1688.5Q1290 1757 1152 1781ZM1408 1024Q1408 1103 1378.0 1173.0Q1348 1243 1295.5 1295.5Q1243 1348 1173.0 1378.0Q1103 1408 1024 1408Q944 1408 874.5 1378.0Q805 1348 752.5 1295.5Q700 1243 670.0 1173.0Q640 1103 640 1024Q640 944 670.0 874.5Q700 805 752.5 752.5Q805 700 874.5 670.0Q944 640 1024 640Q1103 640 1173.0 670.0Q1243 700 1295.5 752.5Q1348 805 1378.0 874.5Q1408 944 1408 1024ZM1024 256Q1164 256 1291.0 304.0Q1418 352 1519.0 437.5Q1620 523 1688.5 640.5Q1757 758 1781 896H1518Q1496 812 1449.0 741.5Q1402 671 1336.5 620.0Q1271 569 1191.0 540.5Q1111 512 1024 512Q918 512 825.0 552.5Q732 593 662.5 662.5Q593 732 552.5 825.0Q512 918 512 1024Q512 1130 552.5 1223.0Q593 1316 662.5 1385.5Q732 1455 825.0 1495.5Q918 1536 1024 1536V1792Q918 1792 820.0 1764.5Q722 1737 636.5 1687.0Q551 1637 481.0 1567.0Q411 1497 361.0 1411.5Q311 1326 283.5 1228.0Q256 1130 256 1024Q256 918 283.5 820.0Q311 722 361.0 636.5Q411 551 481.0 481.0Q551 411 636.5 361.0Q722 311 820.0 283.5Q918 256 1024 256Z" transform="scale(1,-1)"/>
</svg>