<?xml version="1.0" encoding="UTF-8"?>
<svg xmlns="http://www.w3.org/2000/svg" viewBox="128 -2048 1920 2048">
  <path d="M1398 952 1273 900Q1276 883 1278.0 866.0Q1280 849 1280 832Q1280 818 1278.5 805.0Q1277 792 1275 778L1397 728L1299 630L1229 659Q1212 633 1191.0 611.0Q1170 589 1145 571L1198 443L1080 394L1028 519Q1011 516 994.0 514.0Q977 512 960 512Q946 512 933.0 513.5Q920 515 906 517L855 394L737 443L787 563Q729 601 691 659L571 609L522 727L645 778Q643 792 641.5 805.0Q640 818 640 832Q640 849 642.0 866.0Q644 883 647 900L522 952L571 1070L699 1017Q717 1042 739.0 1063.0Q761 1084 787 1101L737 1221L855 1270L906 1147Q920 1149 933.0 1150.5Q946 1152 960 1152Q977 1152 994.0 1150.0Q1011 1148 1028 1145L1080 1270L1198 1221L1145 1093Q1189 1061 1221 1017L1349 1070ZM960 640Q1000 640 1035.0 655.0Q1070 670 1096.0 696.0Q1122 722 1137.0 757.0Q1152 792 1152 832Q1152 872 1137.0 907.0Q1122 942 1096.0 968.0Q1070 994 1035.0 1009.0Q1000 1024 960 1024Q920 1024 885.0 1009.0Q850 994 824.0 968.0Q798 942 783.0 907.0Q768 872 768 832Q768 792 783.0 757.0Q798 722 824.0 696.0Q850 670 885.0 655.0Q920 640 960 640ZM2048 512V0H1536V128H1829L1427 531L1517 621L1920 219V512ZM256 128H1408V0H128V2048H1243L1792 1499V573L1664 701V1408H1152V1920H256ZM1280 1536H1573L1280 1829Z" transform="scale(1,-1)"/>
</svg>