<?xml version="1.0" encoding="UTF-8"?>
<svg xmlns="http://www.w3.org/2000/svg" viewBox="0 -2048 2048 2048">
  <path d="M1280 896V1024H1792V896ZM1792 1280V1152H1280V1280ZM2048 1573V669Q2027 719 1994.5 762.5Q1962 806 1920 839V1536H1664Q1637 1536 1614.0 1546.0Q1591 1556 1573.5 1573.5Q1556 1591 1546.0 1614.0Q1536 1637 1536 1664V1920H640V1536H1037Q1061 1536 1081.5 1527.0Q1102 1518 1118.0 1502.0Q1134 1486 1143.0 1465.5Q1152 1445 1152 1421V499Q1152 475 1143.0 454.5Q1134 434 1118.0 418.0Q1102 402 1081.5 393.0Q1061 384 1037 384H640V128H1137Q1129 96 1124.5 64.0Q1120 32 1120 0H640Q613 0 590.0 10.0Q567 20 549.5 37.5Q532 55 522.0 78.0Q512 101 512 128V384H115Q91 384 70.5 393.0Q50 402 34.0 418.0Q18 434 9.0 454.5Q0 475 0 499V1421Q0 1445 9.0 1465.5Q18 1486 34.0 1502.0Q50 1518 70.5 1527.0Q91 1536 115 1536H512V1920Q512 1947 522.0 1970.0Q532 1993 549.5 2010.5Q567 2028 590.0 2038.0Q613 2048 640 2048H1573Q1599 2048 1622.5 2038.5Q1646 2029 1664 2011L2011 1664Q2029 1646 2038.5 1622.5Q2048 1599 2048 1573ZM754 858 654 1296H502L406 856L320 1296H170L320 624H481Q483 632 490.5 667.0Q498 702 508.0 750.5Q518 799 529.5 853.5Q541 908 551.0 954.0Q561 1000 567.5 1030.0Q574 1060 575 1061Q575 1061 582.0 1030.5Q589 1000 599.5 954.0Q610 908 622.0 853.5Q634 799 645.0 750.5Q656 702 664.0 666.5Q672 631 674 624H834L982 1296H834ZM1664 1664H1829L1664 1829ZM1850 336Q1896 311 1932.5 275.0Q1969 239 1994.5 195.0Q2020 151 2034.0 101.5Q2048 52 2048 0H1920Q1920 53 1900.0 99.5Q1880 146 1845.0 181.0Q1810 216 1763.5 236.0Q1717 256 1664 256Q1611 256 1564.5 236.0Q1518 216 1483.0 181.0Q1448 146 1428.0 99.5Q1408 53 1408 0H1280Q1280 52 1294.0 101.5Q1308 151 1333.5 195.0Q1359 239 1395.5 275.0Q1432 311 1478 336Q1445 371 1426.5 417.0Q1408 463 1408 512Q1408 565 1428.0 611.5Q1448 658 1483.0 693.0Q1518 728 1564.5 748.0Q1611 768 1664 768Q1717 768 1763.5 748.0Q1810 728 1845.0 693.0Q1880 658 1900.0 611.5Q1920 565 1920 512Q1920 463 1901.5 417.0Q1883 371 1850 336ZM1536 512Q1536 485 1546.0 462.0Q1556 439 1573.5 421.5Q1591 404 1614.0 394.0Q1637 384 1664 384Q1691 384 1714.0 394.0Q1737 404 1754.5 421.5Q1772 439 1782.0 462.0Q1792 485 1792 512Q1792 539 1782.0 562.0Q1772 585 1754.5 602.5Q1737 620 1714.0 630.0Q1691 640 1664 640Q1637 640 1614.0 630.0Q1591 620 1573.5 602.5Q1556 585 1546.0 562.0Q1536 539 1536 512Z" transform="scale(1,-1)"/>
</svg>