<?xml version="1.0" encoding="UTF-8"?>
<svg xmlns="http://www.w3.org/2000/svg" viewBox="0 -1990 1990 1990">
  <path d="M1990 1300Q1957 1267 1925.5 1239.5Q1894 1212 1860.5 1193.0Q1827 1174 1787.5 1163.5Q1748 1153 1698 1153Q1664 1153 1633 1159L1254 780Q1267 742 1273.0 702.0Q1279 662 1279 622Q1279 557 1266.0 504.0Q1253 451 1228.5 404.0Q1204 357 1169.0 314.5Q1134 272 1090 228L704 614L136 45L0 0L45 136L614 704L228 1090L273 1135Q343 1205 433.5 1242.0Q524 1279 623 1279Q705 1279 780 1254L1159 1633Q1153 1664 1153 1698Q1153 1747 1163.5 1786.5Q1174 1826 1193.0 1860.0Q1212 1894 1239.5 1925.5Q1267 1957 1300 1990ZM1698 1281Q1753 1281 1802 1307L1307 1802Q1281 1753 1281 1698Q1281 1670 1287.5 1645.5Q1294 1621 1302 1595L810 1104Q785 1114 763.0 1123.0Q741 1132 719.0 1138.0Q697 1144 673.5 1147.5Q650 1151 623 1151Q566 1151 512.5 1134.5Q459 1118 413 1086L1086 413Q1118 459 1135.0 512.5Q1152 566 1152 622Q1152 649 1148.5 672.5Q1145 696 1138.5 718.5Q1132 741 1123.0 763.0Q1114 785 1104 810L1595 1302Q1621 1294 1645.5 1287.5Q1670 1281 1698 1281Z" transform="scale(1,-1)"/>
</svg>