<?xml version="1.0" encoding="UTF-8"?>
<svg xmlns="http://www.w3.org/2000/svg" viewBox="256 -1916 1782 1906">
  <path d="M960 252Q1008 252 1058 255Q1083 189 1120 132Q1080 128 1040.0 126.0Q1000 124 960 124Q826 124 698 146Q661 152 614.0 163.5Q567 175 518.0 192.5Q469 210 422.0 233.5Q375 257 338.0 288.0Q301 319 278.5 357.5Q256 396 256 444V1596Q256 1641 275.5 1676.5Q295 1712 326 1742Q360 1776 407.5 1802.0Q455 1828 510.0 1847.5Q565 1867 625.0 1880.0Q685 1893 744.0 1901.0Q803 1909 858.0 1912.5Q913 1916 960 1916Q1032 1916 1119.5 1908.0Q1207 1900 1294.5 1880.5Q1382 1861 1461.0 1827.0Q1540 1793 1594 1742Q1625 1713 1644.5 1676.0Q1664 1639 1664 1596V1024H1536V1406Q1476 1369 1404.5 1344.0Q1333 1319 1257.5 1304.0Q1182 1289 1105.5 1282.5Q1029 1276 960 1276Q891 1276 814.5 1282.5Q738 1289 662.0 1304.0Q586 1319 515.0 1344.0Q444 1369 384 1406V444Q384 424 398.5 407.0Q413 390 427 379Q474 342 541.5 317.5Q609 293 683.0 278.5Q757 264 830.0 258.0Q903 252 960 252ZM960 1788Q909 1788 853.5 1784.5Q798 1781 742.0 1772.5Q686 1764 632.0 1750.5Q578 1737 531 1718Q516 1712 491.0 1699.5Q466 1687 442.0 1671.0Q418 1655 401.0 1636.0Q384 1617 384 1596Q384 1588 387.0 1581.0Q390 1574 395 1567Q417 1535 458.0 1510.0Q499 1485 550.0 1467.0Q601 1449 658.5 1437.0Q716 1425 771.0 1417.5Q826 1410 875.5 1407.0Q925 1404 960 1404Q995 1404 1044.5 1407.0Q1094 1410 1149.0 1417.5Q1204 1425 1261.5 1437.0Q1319 1449 1370.0 1467.0Q1421 1485 1461.5 1509.5Q1502 1534 1525 1567Q1530 1574 1533.0 1581.0Q1536 1588 1536 1596Q1536 1617 1519.0 1636.0Q1502 1655 1478.0 1671.0Q1454 1687 1429.0 1699.5Q1404 1712 1389 1718Q1342 1737 1288.0 1750.5Q1234 1764 1178.0 1772.5Q1122 1781 1066.5 1784.5Q1011 1788 960 1788ZM1914 509Q1920 479 1920 448Q1920 417 1914 387L2038 336L1989 217L1865 269Q1830 218 1779 183L1831 59L1712 10L1661 134Q1631 128 1600 128Q1569 128 1539 134L1488 10L1369 59L1421 183Q1370 218 1335 269L1211 217L1162 336L1286 387Q1280 417 1280 448Q1280 479 1286 509L1162 560L1211 679L1335 627Q1370 678 1421 713L1369 837L1488 886L1539 762Q1569 768 1600 768Q1631 768 1661 762L1712 886L1831 837L1779 713Q1830 678 1865 627L1989 679L2038 560ZM1600 256Q1640 256 1675.0 271.0Q1710 286 1736.0 312.0Q1762 338 1777.0 373.0Q1792 408 1792 448Q1792 488 1777.0 523.0Q1762 558 1736.0 584.0Q1710 610 1675.0 625.0Q1640 640 1600 640Q1560 640 1525.0 625.0Q1490 610 1464.0 584.0Q1438 558 1423.0 523.0Q1408 488 1408 448Q1408 408 1423.0 373.0Q1438 338 1464.0 312.0Q1490 286 1525.0 271.0Q1560 256 1600 256Z" transform="scale(1,-1)"/>
</svg>