<?xml version="1.0" encoding="UTF-8"?>
<svg xmlns="http://www.w3.org/2000/svg" viewBox="0 -2048 2048 2048">
  <path d="M740 587Q805 554 857.5 505.5Q910 457 947.0 397.5Q984 338 1004.0 269.5Q1024 201 1024 128H896Q896 207 866.0 277.0Q836 347 783.5 399.5Q731 452 661.0 482.0Q591 512 512 512Q432 512 362.5 482.0Q293 452 240.5 399.5Q188 347 158.0 277.0Q128 207 128 128H0Q0 201 20.0 269.5Q40 338 77.0 397.5Q114 457 166.5 505.5Q219 554 284 587Q210 642 169.0 723.0Q128 804 128 896Q128 975 158.0 1045.0Q188 1115 240.5 1167.5Q293 1220 362.5 1250.0Q432 1280 512 1280Q604 1280 685.0 1239.0Q766 1198 821 1124Q859 1199 918.0 1258.0Q977 1317 1052 1355Q978 1410 937.0 1491.0Q896 1572 896 1664Q896 1743 926.0 1813.0Q956 1883 1008.5 1935.5Q1061 1988 1130.5 2018.0Q1200 2048 1280 2048Q1359 2048 1429.0 2018.0Q1499 1988 1551.5 1935.5Q1604 1883 1634.0 1813.0Q1664 1743 1664 1664Q1664 1572 1623.0 1491.0Q1582 1410 1508 1355Q1573 1322 1625.5 1273.5Q1678 1225 1715.0 1165.5Q1752 1106 1772.0 1037.5Q1792 969 1792 896H1664Q1664 975 1634.0 1045.0Q1604 1115 1551.5 1167.5Q1499 1220 1429.0 1250.0Q1359 1280 1280 1280Q1200 1280 1130.5 1250.0Q1061 1220 1008.5 1167.5Q956 1115 926.0 1045.0Q896 975 896 896Q896 804 855.0 723.0Q814 642 740 587ZM1024 1664Q1024 1611 1044.0 1564.5Q1064 1518 1099.0 1483.0Q1134 1448 1180.5 1428.0Q1227 1408 1280 1408Q1333 1408 1379.5 1428.0Q1426 1448 1461.0 1483.0Q1496 1518 1516.0 1564.5Q1536 1611 1536 1664Q1536 1717 1516.0 1763.5Q1496 1810 1461.0 1845.0Q1426 1880 1379.5 1900.0Q1333 1920 1280 1920Q1227 1920 1180.5 1900.0Q1134 1880 1099.0 1845.0Q1064 1810 1044.0 1763.5Q1024 1717 1024 1664ZM256 896Q256 843 276.0 796.5Q296 750 331.0 715.0Q366 680 412.5 660.0Q459 640 512 640Q565 640 611.5 660.0Q658 680 693.0 715.0Q728 750 748.0 796.5Q768 843 768 896Q768 949 748.0 995.5Q728 1042 693.0 1077.0Q658 1112 611.5 1132.0Q565 1152 512 1152Q459 1152 412.5 1132.0Q366 1112 331.0 1077.0Q296 1042 276.0 995.5Q256 949 256 896ZM1280 640H2048V512H1280ZM1280 256V384H2048V256ZM1280 0V128H2048V0Z" transform="scale(1,-1)"/>
</svg>