<?xml version="1.0" encoding="UTF-8"?>
<svg xmlns="http://www.w3.org/2000/svg" viewBox="0 -1792 2048 1755">
  <path d="M1472 219 1939 685 2029 595 1472 37 1203 307 1293 397ZM931 1434H1033V1140H1034Q1059 1183 1097.5 1206.0Q1136 1229 1186 1229Q1234 1229 1268.5 1210.5Q1303 1192 1325.0 1161.0Q1347 1130 1357.0 1090.0Q1367 1050 1367 1007Q1367 959 1355.5 914.5Q1344 870 1320.0 835.5Q1296 801 1258.0 780.5Q1220 760 1166 760Q1080 760 1034 835H1033V770H931ZM1032 1013V958Q1032 934 1040.0 912.5Q1048 891 1062.5 875.0Q1077 859 1097.0 849.5Q1117 840 1142 840Q1176 840 1199.5 855.0Q1223 870 1237.0 894.0Q1251 918 1257.0 948.0Q1263 978 1263 1007Q1263 1034 1257.0 1059.0Q1251 1084 1238.0 1104.0Q1225 1124 1203.5 1136.0Q1182 1148 1152 1148Q1123 1148 1100.5 1137.0Q1078 1126 1063.0 1107.5Q1048 1089 1040.0 1064.5Q1032 1040 1032 1013ZM283 770 518 1398H635L869 770H754L698 930H451L397 770ZM478 1015H671L583 1265Q580 1275 578.5 1285.0Q577 1295 575 1305H573Q571 1295 569.5 1285.0Q568 1275 565 1265ZM0 1792H2048V802L1920 930V1664H128V512H1182L1054 384H0ZM2048 384H2044L2048 387ZM1546 990Q1546 924 1582.5 882.0Q1619 840 1688 840Q1718 840 1743.5 850.0Q1769 860 1792 879V791Q1763 774 1730.5 767.0Q1698 760 1664 760Q1614 760 1573.0 776.5Q1532 793 1503.0 822.5Q1474 852 1458.0 893.0Q1442 934 1442 984Q1442 1039 1459.0 1084.0Q1476 1129 1507.5 1161.5Q1539 1194 1583.5 1211.5Q1628 1229 1684 1229Q1739 1229 1792 1208V1113Q1771 1128 1744.5 1138.0Q1718 1148 1692 1148Q1658 1148 1631.0 1135.5Q1604 1123 1585.0 1101.5Q1566 1080 1556.0 1051.5Q1546 1023 1546 990Z" transform="scale(1,-1)"/>
</svg>