<?xml version="1.0" encoding="UTF-8"?>
<svg xmlns="http://www.w3.org/2000/svg" viewBox="0 -2048 2048 2048">
  <path d="M384 256V1024H256V1345Q256 1439 205.0 1487.5Q154 1536 63 1536H0V2048H128V1664H1408V2048H1536V1536H1471Q1382 1536 1331.0 1484.5Q1280 1433 1280 1344V1024H1152V640ZM1024 1024H512V463L1024 719ZM330 1536Q359 1495 371.5 1447.0Q384 1399 384 1350V1152H1152V1345Q1152 1395 1165.5 1444.5Q1179 1494 1208 1536ZM2048 0H1917L1811 287H1384L1283 0H1152L1538 1024H1660ZM1772 395 1614 831Q1613 833 1610.5 844.0Q1608 855 1605.5 867.5Q1603 880 1600.5 890.0Q1598 900 1598 900Q1596 899 1596 891Q1596 890 1595.5 889.5Q1595 889 1595 888Q1592 874 1589.0 859.5Q1586 845 1580 831L1423 395Z" transform="scale(1,-1)"/>
</svg>