<?xml version="1.0" encoding="UTF-8"?>
<svg xmlns="http://www.w3.org/2000/svg" viewBox="0 -1920 1920 1792">
  <path d="M1152 1920V1792H1024V256H1152V128H512V256H640V1024H448Q355 1024 273.5 1059.0Q192 1094 131.0 1155.0Q70 1216 35.0 1297.5Q0 1379 0 1472Q0 1565 35.0 1646.5Q70 1728 131.0 1789.0Q192 1850 273.5 1885.0Q355 1920 448 1920ZM640 1152V1792H448Q382 1792 323.5 1766.5Q265 1741 221.5 1697.5Q178 1654 153.0 1596.0Q128 1538 128 1472Q128 1406 153.0 1347.5Q178 1289 221.5 1245.5Q265 1202 323.5 1177.0Q382 1152 448 1152ZM896 256V1792H768V256ZM1920 1562V230L1254 896ZM1792 1254 1434 896 1792 538Z" transform="scale(1,-1)"/>
</svg>