<?xml version="1.0" encoding="UTF-8"?>
<svg xmlns="http://www.w3.org/2000/svg" viewBox="0 -2048 2048 2036">
  <path d="M1024 2048Q1165 2048 1296.0 2011.5Q1427 1975 1540.5 1908.0Q1654 1841 1747.5 1747.5Q1841 1654 1908.0 1540.5Q1975 1427 2011.5 1296.0Q2048 1165 2048 1024Q2048 898 2018.5 779.5Q1989 661 1934.5 555.0Q1880 449 1802.5 358.5Q1725 268 1629.0 197.5Q1533 127 1420.5 79.5Q1308 32 1184 12V728H1423L1468 1024H1184V1216Q1184 1271 1202.0 1303.0Q1220 1335 1250.0 1351.5Q1280 1368 1318.5 1372.5Q1357 1377 1397 1377Q1418 1377 1439.0 1376.5Q1460 1376 1480 1376V1628Q1424 1638 1366.0 1643.0Q1308 1648 1251 1648Q1158 1648 1086.0 1620.0Q1014 1592 964.5 1540.0Q915 1488 889.5 1414.5Q864 1341 864 1250V1024H604V728H864V12Q739 31 627.0 79.0Q515 127 419.0 197.5Q323 268 245.5 358.5Q168 449 113.5 555.0Q59 661 29.5 779.5Q0 898 0 1024Q0 1165 36.5 1296.0Q73 1427 140.0 1540.5Q207 1654 300.5 1747.5Q394 1841 507.5 1908.0Q621 1975 752.0 2011.5Q883 2048 1024 2048Z" transform="scale(1,-1)"/>
</svg>