<?xml version="1.0" encoding="UTF-8"?>
<svg xmlns="http://www.w3.org/2000/svg" viewBox="256 -2048 1792 2048">
  <path d="M1792 928Q1792 897 1801.5 873.5Q1811 850 1825.0 829.5Q1839 809 1856.0 789.0Q1873 769 1887.0 743.5Q1901 718 1910.5 685.5Q1920 653 1920 608V128Q1920 101 1910.0 78.0Q1900 55 1882.5 37.5Q1865 20 1842.0 10.0Q1819 0 1792 0H256V2048H1664Q1691 2048 1714.0 2038.0Q1737 2028 1754.5 2010.5Q1772 1993 1782.0 1970.0Q1792 1947 1792 1920V1536H1664V1920H384V128H1536V608Q1536 653 1545.5 685.5Q1555 718 1569.0 743.5Q1583 769 1600.0 789.0Q1617 809 1631.0 829.5Q1645 850 1654.5 873.5Q1664 897 1664 928V1152H1792ZM1792 608Q1792 632 1787.5 650.0Q1783 668 1774.5 683.0Q1766 698 1754.5 712.5Q1743 727 1728 744Q1713 727 1701.5 712.5Q1690 698 1681.5 683.0Q1673 668 1668.5 650.0Q1664 632 1664 608V128H1792ZM2048 1408V1280H1371L1533 1117L1443 1027L1126 1344L1443 1661L1533 1571L1371 1408Z" transform="scale(1,-1)"/>
</svg>