<?xml version="1.0" encoding="UTF-8"?>
<svg xmlns="http://www.w3.org/2000/svg" viewBox="0 -1920 2048 1920">
  <path d="M1472 1216Q1532 1216 1580.0 1201.0Q1628 1186 1678 1154Q1763 1100 1855.5 1076.0Q1948 1052 2048 1052V779Q2048 691 2025.0 610.0Q2002 529 1962.0 455.5Q1922 382 1867.0 317.0Q1812 252 1748.0 194.5Q1684 137 1613.5 88.5Q1543 40 1472 0Q1400 40 1330.0 88.5Q1260 137 1196.0 194.5Q1132 252 1077.0 317.0Q1022 382 982.0 455.5Q942 529 919.0 610.0Q896 691 896 779V1052Q996 1052 1088.5 1076.0Q1181 1100 1266 1154Q1316 1186 1364.0 1201.0Q1412 1216 1472 1216ZM1920 933Q1837 945 1756.5 973.0Q1676 1001 1606 1048Q1545 1088 1472 1088Q1399 1088 1338 1048Q1268 1001 1187.5 973.0Q1107 945 1024 933V779Q1024 675 1063.0 582.5Q1102 490 1165.5 410.5Q1229 331 1309.5 265.0Q1390 199 1472 148Q1554 199 1634.5 265.0Q1715 331 1778.5 410.5Q1842 490 1881.0 582.5Q1920 675 1920 779ZM2048 1920V1244Q2016 1244 1984.0 1248.0Q1952 1252 1920 1259V1408H128V384H802Q819 351 839.0 319.0Q859 287 881 256H0V1920ZM1920 1792H128V1536H1920Z" transform="scale(1,-1)"/>
</svg>