<?xml version="1.0" encoding="UTF-8"?>
<svg xmlns="http://www.w3.org/2000/svg" viewBox="0 -1792 2048 1792">
  <path d="M960 1792Q1138 1792 1305 1723Q1377 1694 1449.5 1679.0Q1522 1664 1600 1664H2048V768H1631Q1566 768 1508.5 744.0Q1451 720 1405 674L783 53Q758 28 733.0 14.0Q708 0 672 0Q639 0 610.0 12.5Q581 25 559.0 47.0Q537 69 524.5 98.0Q512 127 512 160Q512 241 530.0 314.5Q548 388 583 460Q603 503 617.0 547.5Q631 592 636 640H192Q153 640 118.0 655.0Q83 670 56.5 696.0Q30 722 15.0 757.0Q0 792 0 832Q0 864 10 893L266 1661Q286 1720 336.0 1756.0Q386 1792 448 1792ZM1920 1536H1600Q1421 1536 1255 1605Q1111 1664 960 1664H448Q428 1664 411.0 1652.0Q394 1640 387 1620Q382 1606 368.5 1566.0Q355 1526 336.0 1469.5Q317 1413 294.0 1345.5Q271 1278 248.0 1209.0Q225 1140 203.5 1074.5Q182 1009 165.0 956.5Q148 904 138.0 870.5Q128 837 128 832Q128 806 147.0 787.0Q166 768 192 768H768Q768 715 765.5 669.5Q763 624 755.5 581.0Q748 538 734.0 495.0Q720 452 697 404Q669 346 654.5 285.5Q640 225 640 160Q640 146 649.0 137.0Q658 128 672 128Q678 128 682.5 132.5Q687 137 691 141L1314 765Q1346 797 1382.5 821.0Q1419 845 1460 862Q1540 896 1631 896H1920Z" transform="scale(1,-1)"/>
</svg>