<?xml version="1.0" encoding="UTF-8"?>
<svg xmlns="http://www.w3.org/2000/svg" viewBox="0 -2048 2048 2048">
  <path d="M2048 475V0H1536V256H1280V512H1024V719Q950 680 869.0 660.0Q788 640 704 640Q607 640 517.0 665.0Q427 690 349.0 736.0Q271 782 206.5 846.5Q142 911 96.0 989.0Q50 1067 25.0 1157.0Q0 1247 0 1344Q0 1441 25.0 1531.0Q50 1621 96.0 1699.0Q142 1777 206.5 1841.5Q271 1906 349.0 1952.0Q427 1998 517.0 2023.0Q607 2048 704 2048Q801 2048 891.0 2023.0Q981 1998 1059.0 1952.0Q1137 1906 1201.5 1841.5Q1266 1777 1312.0 1699.0Q1358 1621 1383.0 1531.0Q1408 1441 1408 1344Q1408 1293 1400.0 1243.0Q1392 1193 1377 1145ZM1920 421 1230 1111Q1252 1168 1266.0 1225.5Q1280 1283 1280 1344Q1280 1463 1234.5 1568.0Q1189 1673 1111.0 1751.0Q1033 1829 928.0 1874.5Q823 1920 704 1920Q585 1920 480.0 1874.5Q375 1829 297.0 1751.0Q219 1673 173.5 1568.0Q128 1463 128 1344Q128 1225 173.5 1120.0Q219 1015 297.0 937.0Q375 859 480.0 813.5Q585 768 704 768Q801 768 894.5 801.0Q988 834 1063 896H1152V640H1408V384H1664V128H1920ZM512 1664Q539 1664 562.0 1654.0Q585 1644 602.5 1626.5Q620 1609 630.0 1586.0Q640 1563 640 1536Q640 1509 630.0 1486.0Q620 1463 602.5 1445.5Q585 1428 562.0 1418.0Q539 1408 512 1408Q485 1408 462.0 1418.0Q439 1428 421.5 1445.5Q404 1463 394.0 1486.0Q384 1509 384 1536Q384 1563 394.0 1586.0Q404 1609 421.5 1626.5Q439 1644 462.0 1654.0Q485 1664 512 1664Z" transform="scale(1,-1)"/>
</svg>