<?xml version="1.0" encoding="UTF-8"?>
<svg xmlns="http://www.w3.org/2000/svg" viewBox="0 -1792 2048 1536">
  <path d="M256.109375 1152.0H896.0703125V1280.0H256.109375ZM512.09375 768.0H896.0703125V896.0H512.09375ZM0.125 1792.0V256.0H2048.0V1792.0ZM128.1171875 1664.0H1920.0078125V384.0H128.1171875ZM1408.0390625 896.0Q1461.0358276367188 896.0 1507.5329895019531 876.0Q1554.0301513671875 856.0 1589.0280151367188 821.0Q1624.02587890625 786.0 1644.024658203125 739.5Q1664.0234375 693.0 1664.0234375 640.0H1792.015625Q1792.015625 692.0 1778.0164794921875 741.5Q1764.017333984375 791.0 1738.5188903808594 834.5Q1713.0204467773438 878.0 1676.5226745605469 914.0Q1640.02490234375 950.0 1594.0277099609375 976.0Q1627.0256958007812 1011.0 1645.5245666503906 1057.0Q1664.0234375 1103.0 1664.0234375 1152.0Q1664.0234375 1205.0 1644.024658203125 1251.5Q1624.02587890625 1298.0 1589.0280151367188 1333.0Q1554.0301513671875 1368.0 1507.5329895019531 1388.0Q1461.0358276367188 1408.0 1408.0390625 1408.0Q1355.0422973632812 1408.0 1308.5451354980469 1388.0Q1262.0479736328125 1368.0 1227.0501098632812 1333.0Q1192.05224609375 1298.0 1172.053466796875 1251.5Q1152.0546875 1205.0 1152.0546875 1152.0Q1152.0546875 1103.0 1170.5535583496094 1057.0Q1189.0524291992188 1011.0 1222.0504150390625 976.0Q1176.05322265625 950.0 1139.5554504394531 914.0Q1103.0576782226562 878.0 1077.5592346191406 834.5Q1052.060791015625 791.0 1038.0616455078125 741.5Q1024.0625 692.0 1024.0625 640.0H1152.0546875Q1152.0546875 693.0 1172.053466796875 739.5Q1192.05224609375 786.0 1227.0501098632812 821.0Q1262.0479736328125 856.0 1308.5451354980469 876.0Q1355.0422973632812 896.0 1408.0390625 896.0ZM1536.03125 1152.0Q1536.03125 1125.0 1526.0318603515625 1102.0Q1516.032470703125 1079.0 1498.5335388183594 1061.5Q1481.0346069335938 1044.0 1458.0360107421875 1034.0Q1435.0374145507812 1024.0 1408.0390625 1024.0Q1381.0407104492188 1024.0 1358.0421142578125 1034.0Q1335.0435180664062 1044.0 1317.5445861816406 1061.5Q1300.045654296875 1079.0 1290.0462646484375 1102.0Q1280.046875 1125.0 1280.046875 1152.0Q1280.046875 1179.0 1290.0462646484375 1202.0Q1300.045654296875 1225.0 1317.5445861816406 1242.5Q1335.0435180664062 1260.0 1358.0421142578125 1270.0Q1381.0407104492188 1280.0 1408.0390625 1280.0Q1435.0374145507812 1280.0 1458.0360107421875 1270.0Q1481.0346069335938 1260.0 1498.5335388183594 1242.5Q1516.032470703125 1225.0 1526.0318603515625 1202.0Q1536.03125 1179.0 1536.03125 1152.0Z" transform="scale(1,-1)"/>
</svg>