<?xml version="1.0" encoding="UTF-8"?>
<svg xmlns="http://www.w3.org/2000/svg" viewBox="0 -2048 2048 2048">
  <path d="M2048 1025V1016Q2048 978 2045.5 935.0Q2043 892 2030.0 854.5Q2017 817 1989.0 792.5Q1961 768 1910 768H1782Q1766 658 1725.5 558.0Q1685 458 1623.5 373.0Q1562 288 1482.5 219.0Q1403 150 1309.5 101.5Q1216 53 1111.5 26.5Q1007 0 896 0Q772 0 657.5 32.0Q543 64 443.5 122.5Q344 181 262.5 262.5Q181 344 122.5 443.5Q64 543 32.0 657.5Q0 772 0 896Q0 1007 26.5 1111.5Q53 1216 101.5 1309.5Q150 1403 219.0 1482.5Q288 1562 373.0 1623.5Q458 1685 558.0 1725.5Q658 1766 768 1782V1910Q768 1961 792.5 1989.0Q817 2017 854.5 2030.0Q892 2043 935.0 2045.5Q978 2048 1016 2048H1025Q1166 2048 1296.5 2011.5Q1427 1975 1540.5 1908.0Q1654 1841 1747.5 1747.5Q1841 1654 1908.0 1540.5Q1975 1427 2011.5 1296.5Q2048 1166 2048 1025ZM1280 896V1248Q1280 1262 1271.0 1271.0Q1262 1280 1248 1280H896V896ZM896 128Q1035 128 1162.0 176.5Q1289 225 1390.5 310.5Q1492 396 1560.5 513.0Q1629 630 1653 768H768V1653Q630 1629 513.0 1560.5Q396 1492 310.5 1390.5Q225 1289 176.5 1162.0Q128 1035 128 896Q128 790 155.5 692.0Q183 594 233.0 508.5Q283 423 353.0 353.0Q423 283 508.5 233.0Q594 183 692.0 155.5Q790 128 896 128ZM1911 896Q1920 959 1920 1023Q1920 1147 1888.0 1261.5Q1856 1376 1797.5 1475.5Q1739 1575 1657.0 1657.0Q1575 1739 1475.5 1797.5Q1376 1856 1261.5 1888.0Q1147 1920 1023 1920Q959 1920 896 1911V1408H1248Q1281 1408 1310.0 1395.5Q1339 1383 1361.0 1361.0Q1383 1339 1395.5 1310.0Q1408 1281 1408 1248V896Z" transform="scale(1,-1)"/>
</svg>