<?xml version="1.0" encoding="UTF-8"?>
<svg xmlns="http://www.w3.org/2000/svg" viewBox="0 -1664 2048 1662">
  <path d="M1707 1095Q1735 1123 1772.5 1136.0Q1810 1149 1848 1149Q1890 1149 1926.5 1134.5Q1963 1120 1990.0 1094.0Q2017 1068 2032.5 1032.5Q2048 997 2048 954Q2048 915 2033.0 878.0Q2018 841 1990 813L1273 96L896 2L990 379ZM1899 903Q1920 924 1920 954Q1920 986 1900.0 1004.5Q1880 1023 1848 1023Q1835 1023 1821.5 1019.0Q1808 1015 1798 1005L1106 313L1072 178L1207 212ZM2048 1664V1252Q1990 1289 1920 1303V1536H603L1050 1088L603 640H1025L897 512H0V1664ZM421 1536H128V640H421L870 1088Z" transform="scale(1,-1)"/>
</svg>