<?xml version="1.0" encoding="UTF-8"?>
<svg xmlns="http://www.w3.org/2000/svg" viewBox="128 -2048 1920 2048">
  <path d="M1280 1536H640V1664H1280ZM1280 1280H640V1408H1280ZM896 1024H640V1152H1024ZM768 768H640V896H768ZM640 640H768V512H640ZM512 1536H384V1664H512ZM512 1280H384V1408H512ZM512 1024H384V1152H512ZM512 768H384V896H512ZM384 640H512V512H384ZM1792 1055Q1852 1014 1899.5 961.5Q1947 909 1980.0 847.5Q2013 786 2030.5 717.0Q2048 648 2048 576Q2048 457 2002.5 352.0Q1957 247 1879.0 169.0Q1801 91 1696.0 45.5Q1591 0 1472 0Q1439 0 1408 3V0H128V2048H1280V1920H256V128H1110Q1059 169 1019.5 219.5Q980 270 952.5 328.0Q925 386 910.5 448.5Q896 511 896 576Q896 695 941.5 800.0Q987 905 1065.0 983.0Q1143 1061 1248.0 1106.5Q1353 1152 1472 1152Q1572 1152 1664 1119V1280H1792ZM1472 128Q1565 128 1646.5 163.0Q1728 198 1789.0 259.0Q1850 320 1885.0 401.5Q1920 483 1920 576Q1920 669 1885.0 750.5Q1850 832 1789.0 893.0Q1728 954 1646.5 989.0Q1565 1024 1472 1024Q1379 1024 1297.5 989.0Q1216 954 1155.0 893.0Q1094 832 1059.0 750.5Q1024 669 1024 576Q1024 483 1059.0 401.5Q1094 320 1155.0 259.0Q1216 198 1297.5 163.0Q1379 128 1472 128ZM1536 640H1728V512H1408V896H1536ZM1408 1499 1635 1725 1408 1952 1499 2043 1725 1816 1952 2042 2042 1952 1816 1725 2042 1499 1952 1408 1725 1635 1499 1408Z" transform="scale(1,-1)"/>
</svg>