<?xml version="1.0" encoding="UTF-8"?>
<svg xmlns="http://www.w3.org/2000/svg" viewBox="0 -2048 2048 2048">
  <path d="M448 1152Q488 1152 523.0 1137.0Q558 1122 584.0 1096.0Q610 1070 625.0 1035.0Q640 1000 640 960Q640 920 625.0 885.0Q610 850 584.0 824.0Q558 798 523.0 783.0Q488 768 448 768H384V640H256V1152ZM384 1024V896H448Q474 896 493.0 915.0Q512 934 512 960Q512 986 493.0 1005.0Q474 1024 448 1024ZM896 1152Q949 1152 995.5 1132.0Q1042 1112 1077.0 1077.0Q1112 1042 1132.0 995.5Q1152 949 1152 896Q1152 843 1132.0 796.5Q1112 750 1077.0 715.0Q1042 680 995.5 660.0Q949 640 896 640H768V1152ZM1024 896Q1024 923 1014.0 946.0Q1004 969 986.5 986.5Q969 1004 946.0 1014.0Q923 1024 896 1024V768Q923 768 946.0 778.0Q969 788 986.5 805.5Q1004 823 1014.0 846.0Q1024 869 1024 896ZM256 128H1164Q1152 65 1152 0H128V384H0V1408H128V2048H1371L1792 1627V1408H1920V842Q1862 886 1792 909V1280H128V512H1256Q1256 479 1264.5 447.0Q1273 415 1284 384H256ZM1408 1664H1573L1408 1829ZM256 1408H1664V1536H1280V1920H256ZM1408 1024V896H1509Q1428 862 1368.5 798.0Q1309 734 1280 652V1152H1600V1024ZM1848 335Q1894 310 1931.0 274.0Q1968 238 1994.0 194.5Q2020 151 2034.0 101.5Q2048 52 2048 0H1920Q1920 53 1900.0 99.5Q1880 146 1845.0 181.0Q1810 216 1763.5 236.0Q1717 256 1664 256Q1611 256 1564.5 236.0Q1518 216 1483.0 181.0Q1448 146 1428.0 99.5Q1408 53 1408 0H1280Q1280 52 1294.0 101.5Q1308 151 1334.0 194.5Q1360 238 1397.0 274.0Q1434 310 1480 335Q1446 370 1427.0 416.0Q1408 462 1408 512Q1408 565 1428.0 611.5Q1448 658 1483.0 693.0Q1518 728 1564.5 748.0Q1611 768 1664 768Q1717 768 1763.5 748.0Q1810 728 1845.0 693.0Q1880 658 1900.0 611.5Q1920 565 1920 512Q1920 462 1901.0 416.0Q1882 370 1848 335ZM1664 384Q1691 384 1714.0 394.0Q1737 404 1754.5 421.5Q1772 439 1782.0 462.0Q1792 485 1792 512Q1792 539 1782.0 562.0Q1772 585 1754.5 602.5Q1737 620 1714.0 630.0Q1691 640 1664 640Q1637 640 1614.0 630.0Q1591 620 1573.5 602.5Q1556 585 1546.0 562.0Q1536 539 1536 512Q1536 485 1546.0 462.0Q1556 439 1573.5 421.5Q1591 404 1614.0 394.0Q1637 384 1664 384Z" transform="scale(1,-1)"/>
</svg>