<?xml version="1.0" encoding="UTF-8"?>
<svg xmlns="http://www.w3.org/2000/svg" viewBox="0 -1664 2048 1664">
  <path d="M128 512H1152V384H0V1664H1920V1107Q1888 1118 1856.0 1125.5Q1824 1133 1792 1138V1483L960 948L128 1483ZM282 1536 960 1100 1638 1536ZM1665 1024Q1693 1024 1732.5 1021.0Q1772 1018 1815.0 1009.5Q1858 1001 1899.5 987.5Q1941 974 1974.0 952.5Q2007 931 2027.5 901.5Q2048 872 2048 832V214Q2048 173 2028.0 141.0Q2008 109 1976.0 85.0Q1944 61 1902.5 45.0Q1861 29 1818.5 19.0Q1776 9 1735.5 4.5Q1695 0 1664 0Q1633 0 1592.5 4.0Q1552 8 1509.0 18.0Q1466 28 1425.0 44.0Q1384 60 1352.0 83.5Q1320 107 1300.0 139.5Q1280 172 1280 214V832Q1280 872 1300.5 901.5Q1321 931 1354.5 952.5Q1388 974 1430.0 987.5Q1472 1001 1514.5 1009.5Q1557 1018 1596.5 1021.0Q1636 1024 1665 1024ZM1920 684Q1861 660 1794.5 650.0Q1728 640 1665 640Q1602 640 1534.5 650.0Q1467 660 1408 684V214Q1408 207 1414.5 200.5Q1421 194 1426 190Q1447 172 1477.0 160.5Q1507 149 1539.5 141.5Q1572 134 1604.5 131.0Q1637 128 1664 128Q1691 128 1723.5 131.0Q1756 134 1788.5 141.5Q1821 149 1851.0 160.5Q1881 172 1902 190Q1907 194 1913.5 200.5Q1920 207 1920 214ZM1665 768Q1682 768 1720.5 771.5Q1759 775 1800.5 782.5Q1842 790 1876.5 803.0Q1911 816 1920 835Q1908 852 1873.5 863.5Q1839 875 1798.5 882.5Q1758 890 1720.5 893.0Q1683 896 1665 896Q1653 896 1631.5 894.5Q1610 893 1583.0 889.5Q1556 886 1528.0 881.0Q1500 876 1475.0 868.5Q1450 861 1431.5 851.0Q1413 841 1407 828Q1421 811 1456.0 800.0Q1491 789 1531.0 781.5Q1571 774 1608.5 771.0Q1646 768 1665 768Z" transform="scale(1,-1)"/>
</svg>