<?xml version="1.0" encoding="UTF-8"?>
<svg xmlns="http://www.w3.org/2000/svg" viewBox="0 -2048 1920 1792">
  <path d="M1536 1664Q1615 1664 1685.0 1634.0Q1755 1604 1807.5 1551.5Q1860 1499 1890.0 1429.0Q1920 1359 1920 1280V256H0V1280Q0 1359 30.0 1429.0Q60 1499 112.5 1551.5Q165 1604 234.5 1634.0Q304 1664 384 1664H768V1792H384V2048H896V1664ZM1152 1280Q1152 1351 1177.0 1417.0Q1202 1483 1250 1536H896V1024H768V1536H384Q331 1536 284.5 1516.0Q238 1496 203.0 1461.0Q168 1426 148.0 1379.5Q128 1333 128 1280V384H1152ZM1792 1280Q1792 1333 1772.0 1379.5Q1752 1426 1717.0 1461.0Q1682 1496 1635.5 1516.0Q1589 1536 1536 1536Q1483 1536 1436.5 1516.0Q1390 1496 1355.0 1461.0Q1320 1426 1300.0 1379.5Q1280 1333 1280 1280V384H1792ZM1408 1280H1664V1152H1408Z" transform="scale(1,-1)"/>
</svg>