<?xml version="1.0" encoding="UTF-8"?>
<svg xmlns="http://www.w3.org/2000/svg" viewBox="128 -2048 1920 2048">
  <path d="M1536 1120Q1536 1151 1526.5 1174.5Q1517 1198 1503.0 1218.5Q1489 1239 1472.0 1259.0Q1455 1279 1441.0 1304.5Q1427 1330 1417.5 1362.5Q1408 1395 1408 1440V1920H256V128H1408V0H128V2048H1664Q1691 2048 1714.0 2038.0Q1737 2028 1754.5 2010.5Q1772 1993 1782.0 1970.0Q1792 1947 1792 1920V1440Q1792 1395 1782.5 1362.5Q1773 1330 1759.0 1304.5Q1745 1279 1728.0 1259.0Q1711 1239 1697.0 1218.5Q1683 1198 1673.5 1174.5Q1664 1151 1664 1120V704L1536 832ZM1664 1920H1536V1440Q1536 1416 1540.5 1398.0Q1545 1380 1553.5 1365.0Q1562 1350 1573.5 1335.5Q1585 1321 1600 1304Q1615 1321 1626.5 1335.5Q1638 1350 1646.5 1365.0Q1655 1380 1659.5 1398.0Q1664 1416 1664 1440ZM2048 512V0H1536V128H1829L1427 531L1517 621L1920 219V512Z" transform="scale(1,-1)"/>
</svg>