<?xml version="1.0" encoding="UTF-8"?>
<svg xmlns="http://www.w3.org/2000/svg" viewBox="0 -1773 2011 1498">
  <path d="M1765 1408Q1638 1404 1524.5 1372.5Q1411 1341 1309.5 1285.5Q1208 1230 1117.0 1153.0Q1026 1076 945 983Q911 944 877.0 907.0Q843 870 805 835Q637 682 433.0 597.0Q229 512 0 512V640Q131 640 248.5 670.5Q366 701 471.0 756.5Q576 812 669.5 890.5Q763 969 847 1065Q882 1106 917.5 1144.0Q953 1182 993 1218Q1074 1290 1163.5 1348.0Q1253 1406 1350.5 1447.0Q1448 1488 1552.5 1510.5Q1657 1533 1766 1536L1619 1683L1709 1773L2011 1472L1709 1171L1619 1261ZM805 1212Q783 1188 762.5 1163.5Q742 1139 719 1115Q645 1183 561.5 1237.5Q478 1292 387.0 1330.0Q296 1368 199.0 1388.0Q102 1408 0 1408V1536Q229 1536 433.0 1450.5Q637 1365 805 1212ZM1709 877 2011 576 1709 275 1619 365 1766 512Q1656 515 1550.5 538.0Q1445 561 1347.0 602.5Q1249 644 1158.5 703.0Q1068 762 987 836Q1009 860 1029.5 884.5Q1050 909 1073 933Q1145 867 1225.0 814.0Q1305 761 1392.5 723.0Q1480 685 1573.5 664.0Q1667 643 1765 640L1619 787Z" transform="scale(1,-1)"/>
</svg>