<?xml version="1.0" encoding="UTF-8"?>
<svg xmlns="http://www.w3.org/2000/svg" viewBox="256 -2048 1536 2048">
  <path d="M1792 1792V0H256V1792H768Q768 1845 788.0 1891.5Q808 1938 843.0 1973.0Q878 2008 924.5 2028.0Q971 2048 1024 2048Q1077 2048 1123.5 2028.0Q1170 2008 1205.0 1973.0Q1240 1938 1260.0 1891.5Q1280 1845 1280 1792ZM640 1536H1408V1664H1152V1792Q1152 1819 1142.0 1842.0Q1132 1865 1114.5 1882.5Q1097 1900 1074.0 1910.0Q1051 1920 1024 1920Q997 1920 974.0 1910.0Q951 1900 933.5 1882.5Q916 1865 906.0 1842.0Q896 1819 896 1792V1664H640ZM1664 1664H1536V1408H512V1664H384V128H1664ZM1521 905 1398 854Q1408 814 1408 768Q1408 722 1398 682L1521 631L1473 513L1349 564Q1303 489 1228 443L1279 319L1161 271L1110 394Q1070 384 1024 384Q978 384 938 394L887 271L769 319L820 443Q745 489 699 564L575 513L527 631L650 682Q640 722 640 768Q640 814 650 854L527 905L575 1023L699 972Q745 1047 820 1093L769 1217L887 1265L938 1142Q978 1152 1024 1152Q1070 1152 1110 1142L1161 1265L1279 1217L1228 1093Q1303 1047 1349 972L1473 1023ZM1024 512Q1077 512 1123.5 532.0Q1170 552 1205.0 587.0Q1240 622 1260.0 668.5Q1280 715 1280 768Q1280 821 1260.0 867.5Q1240 914 1205.0 949.0Q1170 984 1123.5 1004.0Q1077 1024 1024 1024Q971 1024 924.5 1004.0Q878 984 843.0 949.0Q808 914 788.0 867.5Q768 821 768 768Q768 715 788.0 668.5Q808 622 843.0 587.0Q878 552 924.5 532.0Q971 512 1024 512Z" transform="scale(1,-1)"/>
</svg>