<?xml version="1.0" encoding="UTF-8"?>
<svg xmlns="http://www.w3.org/2000/svg" viewBox="102 -1901 1946 1773">
  <path d="M1408 1408Q1536 1408 1653.0 1360.0Q1770 1312 1861 1221Q1952 1130 2000.0 1013.0Q2048 896 2048 768Q2048 635 1998.0 518.5Q1948 402 1861.0 315.0Q1774 228 1657.5 178.0Q1541 128 1408 128V256Q1514 256 1607.0 296.5Q1700 337 1769.5 406.5Q1839 476 1879.5 569.0Q1920 662 1920 768Q1920 874 1879.5 967.0Q1839 1060 1769.5 1129.5Q1700 1199 1607.0 1239.5Q1514 1280 1408 1280H859L1261 877L1171 787L614 1344L1171 1901L1261 1811L859 1408ZM282 1344 749 877 659 787 102 1344 659 1901 749 1811Z" transform="scale(1,-1)"/>
</svg>