<?xml version="1.0" encoding="UTF-8"?>
<svg xmlns="http://www.w3.org/2000/svg" viewBox="256 -2048 1792 2048">
  <path d="M897 128 1024 0H256V2048H1792Q1819 2048 1842.0 2038.0Q1865 2028 1882.5 2010.5Q1900 1993 1910.0 1970.0Q1920 1947 1920 1920V1440Q1920 1395 1910.5 1362.5Q1901 1330 1887.0 1304.5Q1873 1279 1856.0 1259.0Q1839 1239 1825.0 1218.5Q1811 1198 1801.5 1174.5Q1792 1151 1792 1120V1024H1664V1120Q1664 1151 1654.5 1174.5Q1645 1198 1631.0 1218.5Q1617 1239 1600.0 1259.0Q1583 1279 1569.0 1304.5Q1555 1330 1545.5 1362.5Q1536 1395 1536 1440V1920H384V128ZM1664 1440Q1664 1416 1668.5 1398.0Q1673 1380 1681.5 1364.0Q1690 1348 1702.0 1333.5Q1714 1319 1728 1302Q1742 1319 1754.0 1333.5Q1766 1348 1774.5 1364.0Q1783 1380 1787.5 1398.0Q1792 1416 1792 1440V1920H1664ZM1024 1408H1152V896H1024ZM1024 768H1152V640H1024ZM1728 896Q1794 896 1852.0 870.5Q1910 845 1953.5 801.5Q1997 758 2022.5 700.0Q2048 642 2048 576Q2048 510 2022.5 451.5Q1997 393 1953.5 349.5Q1910 306 1852.0 281.0Q1794 256 1728 256Q1681 256 1636.0 269.5Q1591 283 1552 309L1248 6L1158 96L1461 400Q1435 439 1421.5 484.0Q1408 529 1408 576Q1408 642 1433.0 700.0Q1458 758 1501.5 801.5Q1545 845 1603.5 870.5Q1662 896 1728 896ZM1728 384Q1768 384 1803.0 399.0Q1838 414 1864.0 440.0Q1890 466 1905.0 501.0Q1920 536 1920 576Q1920 616 1905.0 651.0Q1890 686 1864.0 712.0Q1838 738 1803.0 753.0Q1768 768 1728 768Q1688 768 1653.0 753.0Q1618 738 1592.0 712.0Q1566 686 1551.0 651.0Q1536 616 1536 576Q1536 536 1551.0 501.0Q1566 466 1592.0 440.0Q1618 414 1653.0 399.0Q1688 384 1728 384Z" transform="scale(1,-1)"/>
</svg>