<?xml version="1.0" encoding="UTF-8"?>
<svg xmlns="http://www.w3.org/2000/svg" viewBox="0 -2048 2048 2048">
  <path d="M1600 896Q1693 896 1774.5 861.0Q1856 826 1917.0 765.0Q1978 704 2013.0 622.5Q2048 541 2048 448Q2048 355 2013.0 273.5Q1978 192 1917.0 131.0Q1856 70 1774.5 35.0Q1693 0 1600 0Q1507 0 1425.5 35.0Q1344 70 1283.0 131.0Q1222 192 1187.0 273.5Q1152 355 1152 448Q1152 541 1187.0 622.5Q1222 704 1283.0 765.0Q1344 826 1425.5 861.0Q1507 896 1600 896ZM1280 448Q1280 382 1305.0 323.5Q1330 265 1373.5 221.5Q1417 178 1475.5 153.0Q1534 128 1600 128Q1647 128 1692.0 141.5Q1737 155 1776 181L1333 624Q1307 585 1293.5 540.0Q1280 495 1280 448ZM1867 272Q1893 311 1906.5 356.0Q1920 401 1920 448Q1920 514 1894.5 572.0Q1869 630 1825.5 673.5Q1782 717 1724.0 742.5Q1666 768 1600 768Q1553 768 1508.0 754.5Q1463 741 1424 715ZM1093 147Q1115 111 1141.0 78.0Q1167 45 1198 16Q1155 8 1111.5 4.0Q1068 0 1024 0Q883 0 752.0 36.5Q621 73 507.5 140.0Q394 207 300.5 300.5Q207 394 140.0 507.5Q73 621 36.5 752.0Q0 883 0 1024Q0 1165 36.5 1296.0Q73 1427 140.0 1540.5Q207 1654 300.5 1747.5Q394 1841 507.5 1908.0Q621 1975 752.0 2011.5Q883 2048 1024 2048Q1165 2048 1296.0 2011.5Q1427 1975 1540.5 1908.0Q1654 1841 1747.5 1747.5Q1841 1654 1908.0 1540.5Q1975 1427 2011.5 1296.0Q2048 1165 2048 1024Q2048 980 2044.0 936.5Q2040 893 2032 850Q1978 909 1914 948Q1916 967 1918.0 986.0Q1920 1005 1920 1024Q1920 1154 1882 1280H1520Q1528 1218 1531.5 1157.0Q1535 1096 1536 1033Q1503 1030 1471.0 1023.0Q1439 1016 1407 1005V1044Q1407 1104 1403.0 1162.5Q1399 1221 1391 1280H657Q648 1216 644.0 1152.5Q640 1089 640 1024Q640 959 644.0 895.5Q648 832 657 768H1103Q1066 709 1043 640H679Q687 603 702.0 551.0Q717 499 739.0 442.0Q761 385 790.0 329.0Q819 273 854.5 228.0Q890 183 932.5 155.5Q975 128 1024 128Q1042 128 1059.5 133.5Q1077 139 1093 147ZM1832 1408Q1794 1489 1740.5 1560.5Q1687 1632 1621.0 1691.0Q1555 1750 1478.0 1795.5Q1401 1841 1316 1870Q1352 1821 1380.5 1765.0Q1409 1709 1431.5 1649.5Q1454 1590 1471.0 1528.5Q1488 1467 1500 1408ZM1024 1920Q975 1920 932.5 1892.5Q890 1865 854.5 1820.0Q819 1775 790.0 1719.0Q761 1663 739.0 1606.0Q717 1549 702.0 1497.0Q687 1445 679 1408H1369Q1361 1445 1346.0 1497.0Q1331 1549 1309.0 1606.0Q1287 1663 1258.0 1719.0Q1229 1775 1193.5 1820.0Q1158 1865 1115.5 1892.5Q1073 1920 1024 1920ZM732 1870Q647 1841 570.0 1795.5Q493 1750 427.0 1691.0Q361 1632 307.5 1560.5Q254 1489 216 1408H548Q560 1467 576.5 1528.5Q593 1590 615.5 1649.5Q638 1709 667.0 1765.0Q696 1821 732 1870ZM128 1024Q128 894 166 768H528Q520 832 516.0 895.5Q512 959 512 1024Q512 1089 516.0 1152.5Q520 1216 528 1280H166Q128 1154 128 1024ZM216 640Q254 559 307.5 487.5Q361 416 427.0 357.0Q493 298 570.0 252.5Q647 207 732 178Q696 227 667.0 283.0Q638 339 615.5 398.5Q593 458 576.5 519.5Q560 581 548 640Z" transform="scale(1,-1)"/>
</svg>