<?xml version="1.0" encoding="UTF-8"?>
<svg xmlns="http://www.w3.org/2000/svg" viewBox="128 -2048 1664 2048">
  <path d="M1792 1499V0H128V2048H1243ZM1280 1536H1573L1280 1829ZM1664 128V1408H1152V1920H256V128ZM1398 944 1274 893Q1280 863 1280 832Q1280 801 1274 771L1398 720L1349 601L1225 653Q1190 602 1139 567L1191 443L1072 394L1021 518Q991 512 960 512Q929 512 899 518L848 394L729 443L781 567Q730 602 695 653L571 601L522 720L646 771Q640 801 640 832Q640 863 646 893L522 944L571 1063L695 1011Q730 1062 781 1097L729 1221L848 1270L899 1146Q929 1152 960 1152Q991 1152 1021 1146L1072 1270L1191 1221L1139 1097Q1190 1062 1225 1011L1349 1063ZM960 640Q1000 640 1035.0 655.0Q1070 670 1096.0 696.0Q1122 722 1137.0 757.0Q1152 792 1152 832Q1152 872 1137.0 907.0Q1122 942 1096.0 968.0Q1070 994 1035.0 1009.0Q1000 1024 960 1024Q920 1024 885.0 1009.0Q850 994 824.0 968.0Q798 942 783.0 907.0Q768 872 768 832Q768 793 783.0 758.0Q798 723 824.5 696.5Q851 670 886.0 655.0Q921 640 960 640Z" transform="scale(1,-1)"/>
</svg>