<?xml version="1.0" encoding="UTF-8"?>
<svg xmlns="http://www.w3.org/2000/svg" viewBox="0 -1536 2048 1405">
  <path d="M1725 765 2042 448 1725 131 1635 221 1798 384H1280V512H1798L1635 675ZM1547 768H384Q304 768 234.5 798.0Q165 828 112.5 880.5Q60 933 30.0 1002.5Q0 1072 0 1152Q0 1231 30.0 1301.0Q60 1371 112.5 1423.5Q165 1476 234.5 1506.0Q304 1536 384 1536Q463 1536 533.0 1506.0Q603 1476 655.5 1423.5Q708 1371 738.0 1301.0Q768 1231 768 1152Q768 1080 742.0 1014.5Q716 949 668 896H1380Q1332 949 1306.0 1014.5Q1280 1080 1280 1152Q1280 1231 1310.0 1301.0Q1340 1371 1392.5 1423.5Q1445 1476 1514.5 1506.0Q1584 1536 1664 1536Q1743 1536 1813.0 1506.0Q1883 1476 1935.5 1423.5Q1988 1371 2018.0 1301.0Q2048 1231 2048 1152Q2048 1100 2034.0 1051.0Q2020 1002 1994.5 959.0Q1969 916 1933.0 880.0Q1897 844 1852 819L1757 914Q1793 929 1823.0 953.0Q1853 977 1874.5 1008.0Q1896 1039 1908.0 1076.0Q1920 1113 1920 1152Q1920 1205 1900.0 1251.5Q1880 1298 1845.0 1333.0Q1810 1368 1763.5 1388.0Q1717 1408 1664 1408Q1611 1408 1564.5 1388.0Q1518 1368 1483.0 1333.0Q1448 1298 1428.0 1251.5Q1408 1205 1408 1152Q1408 1099 1428.0 1052.5Q1448 1006 1483.0 971.0Q1518 936 1564.5 916.0Q1611 896 1664 896Q1667 896 1670.0 896.5Q1673 897 1676 897ZM384 896Q437 896 483.5 916.0Q530 936 565.0 971.0Q600 1006 620.0 1052.5Q640 1099 640 1152Q640 1205 620.0 1251.5Q600 1298 565.0 1333.0Q530 1368 483.5 1388.0Q437 1408 384 1408Q331 1408 284.5 1388.0Q238 1368 203.0 1333.0Q168 1298 148.0 1251.5Q128 1205 128 1152Q128 1099 148.0 1052.5Q168 1006 203.0 971.0Q238 936 284.5 916.0Q331 896 384 896Z" transform="scale(1,-1)"/>
</svg>