<?xml version="1.0" encoding="UTF-8"?>
<svg xmlns="http://www.w3.org/2000/svg" viewBox="0 -2048 2048 2048">
  <path d="M1152 1280V1024H1024V1280ZM512 1664Q459 1664 412.5 1644.0Q366 1624 331.0 1589.0Q296 1554 276.0 1507.5Q256 1461 256 1408H128Q128 1487 158.0 1557.0Q188 1627 240.5 1679.5Q293 1732 362.5 1762.0Q432 1792 512 1792H693L514 1972L588 2046L907 1728L592 1414L518 1488L693 1664ZM1920 2048Q1947 2048 1970.0 2038.0Q1993 2028 2010.5 2010.5Q2028 1993 2038.0 1970.0Q2048 1947 2048 1920V384Q2048 357 2038.0 334.0Q2028 311 2010.5 293.5Q1993 276 1970.0 266.0Q1947 256 1920 256H1792V128Q1792 101 1782.0 78.0Q1772 55 1754.5 37.5Q1737 20 1714.0 10.0Q1691 0 1664 0H128Q101 0 78.0 10.0Q55 20 37.5 37.5Q20 55 10.0 78.0Q0 101 0 128V1152Q0 1179 10.0 1202.0Q20 1225 37.5 1242.5Q55 1260 78.0 1270.0Q101 1280 128 1280H768V1363L896 1491V384H1920V1920H941L832 2029Q846 2037 862.5 2042.5Q879 2048 896 2048ZM1664 256H896Q869 256 846.0 266.0Q823 276 805.5 293.5Q788 311 778.0 334.0Q768 357 768 384V1152H128V128H1664Z" transform="scale(1,-1)"/>
</svg>