<?xml version="1.0" encoding="UTF-8"?>
<svg xmlns="http://www.w3.org/2000/svg" viewBox="0 -2048 2048 2048">
  <path d="M1024 1536V987L1389 621L1299 531L896 933V1536ZM1968 1423Q2048 1231 2048 1024Q2048 817 1968 625Q1890 442 1748 300Q1606 158 1423 80Q1231 0 1024 0Q850 0 688 57Q530 112 399 213Q269 314 176 451Q129 520 94.5 595.0Q60 670 38 751L161 785Q201 640 284.5 519.0Q368 398 482.0 311.0Q596 224 735.0 176.0Q874 128 1024 128Q1147 128 1261.5 160.0Q1376 192 1475.5 250.5Q1575 309 1657.0 391.0Q1739 473 1797.5 572.5Q1856 672 1888.0 786.0Q1920 900 1920 1024Q1920 1147 1888.0 1261.5Q1856 1376 1797.5 1475.5Q1739 1575 1657.0 1657.0Q1575 1739 1475.5 1797.5Q1376 1856 1261.5 1888.0Q1147 1920 1024 1920Q894 1920 772.0 1883.5Q650 1847 544.5 1780.0Q439 1713 354.5 1618.5Q270 1524 215 1408H512V1280H0V1792H128V1518Q145 1550 165.0 1580.5Q185 1611 207 1640Q301 1765 427 1856Q559 1950 710.0 1999.0Q861 2048 1024 2048Q1231 2048 1423 1968Q1606 1890 1748 1748Q1890 1606 1968 1423Z" transform="scale(1,-1)"/>
</svg>