<?xml version="1.0" encoding="UTF-8"?>
<svg xmlns="http://www.w3.org/2000/svg" viewBox="0 -2048 2048 2048">
  <path d="M1152 1280Q1179 1280 1202.0 1270.0Q1225 1260 1242.5 1242.5Q1260 1225 1270.0 1202.0Q1280 1179 1280 1152V0H165L0 165V1152Q0 1179 10.0 1202.0Q20 1225 37.5 1242.5Q55 1260 78.0 1270.0Q101 1280 128 1280ZM384 768H896V1152H384ZM896 384H384V128H512V256H640V128H896ZM1152 1152H1024V640H256V1152H128V219L219 128H256V512H1024V128H1152ZM768 1664H384V1792H768ZM512 1408V1536H768V1408ZM2048 1627V768H1408V896H1920V1536H1536V1920H1024V1408H896V2048H1627ZM1829 1664 1664 1829V1664Z" transform="scale(1,-1)"/>
</svg>