<?xml version="1.0" encoding="UTF-8"?>
<svg xmlns="http://www.w3.org/2000/svg" viewBox="256 -2048 1792 2048">
  <path d="M384 128H1536V0H256V1792H768Q768 1845 788.0 1891.5Q808 1938 843.0 1973.0Q878 2008 924.5 2028.0Q971 2048 1024 2048Q1077 2048 1123.5 2028.0Q1170 2008 1205.0 1973.0Q1240 1938 1260.0 1891.5Q1280 1845 1280 1792H1792V768H1664V1664H1536V1408H512V1664H384ZM640 1664V1536H1408V1664H1152V1792Q1152 1819 1142.0 1842.0Q1132 1865 1114.5 1882.5Q1097 1900 1074.0 1910.0Q1051 1920 1024 1920Q997 1920 974.0 1910.0Q951 1900 933.5 1882.5Q916 1865 906.0 1842.0Q896 1819 896 1792V1664ZM1107 1261Q1135 1289 1172.0 1303.5Q1209 1318 1248 1318Q1289 1318 1325.5 1302.5Q1362 1287 1389.0 1260.5Q1416 1234 1432.0 1198.0Q1448 1162 1448 1120Q1448 1080 1432.5 1044.0Q1417 1008 1389 979L863 448L506 380L581 731ZM1320 1120Q1320 1151 1299.0 1170.5Q1278 1190 1248 1190Q1234 1190 1220.5 1185.5Q1207 1181 1197 1171L699 668L672 542L801 566L1299 1069Q1320 1090 1320 1120ZM2048 384V256H1792V0H1664V256H1408V384H1664V640H1792V384Z" transform="scale(1,-1)"/>
</svg>