<?xml version="1.0" encoding="UTF-8"?>
<svg xmlns="http://www.w3.org/2000/svg" viewBox="0 -1792 2033 1792">
  <path d="M1790 331Q1888 283 1952.5 195.5Q2017 108 2033 0H1923Q1912 57 1882.0 106.0Q1852 155 1809.0 190.5Q1766 226 1712.0 246.0Q1658 266 1600 266Q1541 266 1487.5 246.0Q1434 226 1391.0 190.5Q1348 155 1318.0 106.0Q1288 57 1277 0H1167Q1183 108 1247.5 195.5Q1312 283 1410 331Q1353 376 1321.5 440.0Q1290 504 1290 576Q1290 621 1302.5 663.5Q1315 706 1338.5 742.5Q1362 779 1395.0 808.5Q1428 838 1469 857Q1442 896 1407.0 926.5Q1372 957 1331.0 979.0Q1290 1001 1244.5 1012.5Q1199 1024 1152 1024Q1072 1024 999.0 992.5Q926 961 872 902Q896 837 896 768Q896 676 855.0 595.0Q814 514 740 459Q805 426 857.5 377.5Q910 329 947.0 269.5Q984 210 1004.0 141.5Q1024 73 1024 0H896Q896 79 866.0 149.0Q836 219 783.5 271.5Q731 324 661.0 354.0Q591 384 512 384Q432 384 362.5 354.0Q293 324 240.5 271.5Q188 219 158.0 149.0Q128 79 128 0H0Q0 73 20.0 141.5Q40 210 77.0 269.5Q114 329 166.5 377.5Q219 426 284 459Q210 514 169.0 595.0Q128 676 128 768Q128 847 158.0 917.0Q188 987 240.5 1039.5Q293 1092 362.5 1122.0Q432 1152 512 1152Q597 1152 673.5 1116.0Q750 1080 805 1016Q831 1041 861.5 1061.5Q892 1082 924 1099Q850 1154 809.0 1235.0Q768 1316 768 1408Q768 1487 798.0 1557.0Q828 1627 880.5 1679.5Q933 1732 1002.5 1762.0Q1072 1792 1152 1792Q1231 1792 1301.0 1762.0Q1371 1732 1423.5 1679.5Q1476 1627 1506.0 1557.0Q1536 1487 1536 1408Q1536 1316 1495.0 1235.0Q1454 1154 1380 1099Q1450 1062 1506.5 1009.0Q1563 956 1601 886Q1665 886 1721.5 861.5Q1778 837 1820.0 795.0Q1862 753 1886.0 696.5Q1910 640 1910 576Q1910 504 1878.5 440.0Q1847 376 1790 331ZM512 512Q565 512 611.5 532.0Q658 552 693.0 587.0Q728 622 748.0 668.5Q768 715 768 768Q768 821 748.0 867.5Q728 914 693.0 949.0Q658 984 611.5 1004.0Q565 1024 512 1024Q459 1024 412.5 1004.0Q366 984 331.0 949.0Q296 914 276.0 867.5Q256 821 256 768Q256 715 276.0 668.5Q296 622 331.0 587.0Q366 552 412.5 532.0Q459 512 512 512ZM896 1408Q896 1355 916.0 1308.5Q936 1262 971.0 1227.0Q1006 1192 1052.5 1172.0Q1099 1152 1152 1152Q1205 1152 1251.5 1172.0Q1298 1192 1333.0 1227.0Q1368 1262 1388.0 1308.5Q1408 1355 1408 1408Q1408 1461 1388.0 1507.5Q1368 1554 1333.0 1589.0Q1298 1624 1251.5 1644.0Q1205 1664 1152 1664Q1099 1664 1052.5 1644.0Q1006 1624 971.0 1589.0Q936 1554 916.0 1507.5Q896 1461 896 1408ZM1600 778Q1558 778 1521.5 762.0Q1485 746 1457.5 718.5Q1430 691 1414.0 654.5Q1398 618 1398 576Q1398 534 1414.0 497.5Q1430 461 1457.5 433.5Q1485 406 1521.5 390.0Q1558 374 1600 374Q1642 374 1678.5 390.0Q1715 406 1742.5 433.5Q1770 461 1786.0 497.5Q1802 534 1802 576Q1802 618 1786.0 654.5Q1770 691 1742.5 718.5Q1715 746 1678.5 762.0Q1642 778 1600 778Z" transform="scale(1,-1)"/>
</svg>