<?xml version="1.0" encoding="UTF-8"?>
<svg xmlns="http://www.w3.org/2000/svg" viewBox="0 -2048 2048 2048">
  <path d="M1664 1472Q1664 1353 1618.5 1248.0Q1573 1143 1495.0 1065.0Q1417 987 1312.0 941.5Q1207 896 1088 896Q989 896 898.0 929.0Q807 962 731 1024L109 403Q90 384 64 384Q38 384 19.0 403.0Q0 422 0 448Q0 474 19 493L640 1115Q578 1191 545.5 1282.0Q513 1373 513 1472Q513 1551 533.5 1625.0Q554 1699 591.5 1763.0Q629 1827 681.5 1879.5Q734 1932 797.5 1969.5Q861 2007 934.5 2027.5Q1008 2048 1088 2048Q1207 2048 1312.0 2002.5Q1417 1957 1495.0 1879.0Q1573 1801 1618.5 1696.0Q1664 1591 1664 1472ZM1088 1024Q1181 1024 1262.5 1059.5Q1344 1095 1404.5 1155.5Q1465 1216 1500.5 1297.5Q1536 1379 1536 1472Q1536 1565 1500.5 1646.5Q1465 1728 1404.5 1788.5Q1344 1849 1262.5 1884.5Q1181 1920 1088 1920Q995 1920 913.5 1884.5Q832 1849 771.5 1788.5Q711 1728 675.5 1646.5Q640 1565 640 1472Q640 1379 675.5 1297.5Q711 1216 771.5 1155.5Q832 1095 913.5 1059.5Q995 1024 1088 1024ZM2048 768V616L1792 328V0H1408V328L1152 616V768ZM1898 640H1302L1536 376V128H1664V376Z" transform="scale(1,-1)"/>
</svg>