<?xml version="1.0" encoding="UTF-8"?>
<svg xmlns="http://www.w3.org/2000/svg" viewBox="0 -2048 2048 2048">
  <path d="M2048 896Q2048 789 2007.5 695.5Q1967 602 1896.5 533.0Q1826 464 1732.0 424.0Q1638 384 1531 384Q1519 301 1479.5 231.0Q1440 161 1381.0 109.5Q1322 58 1246.5 29.0Q1171 0 1088 0Q1005 0 929.5 29.0Q854 58 795.0 109.5Q736 161 696.5 231.0Q657 301 645 384H128Q102 384 78.5 394.0Q55 404 37.5 421.5Q20 439 10.0 462.5Q0 486 0 512V1536Q0 1562 10.0 1585.5Q20 1609 37.5 1626.5Q55 1644 78.5 1654.0Q102 1664 128 1664H417Q447 1750 501.5 1820.5Q556 1891 627.5 1941.5Q699 1992 784.0 2020.0Q869 2048 960 2048Q1079 2048 1184.0 2002.5Q1289 1957 1367.0 1879.0Q1445 1801 1490.5 1696.0Q1536 1591 1536 1472Q1536 1456 1535.0 1440.0Q1534 1424 1532 1408Q1638 1408 1732.0 1368.0Q1826 1328 1896.5 1259.0Q1967 1190 2007.5 1096.5Q2048 1003 2048 896ZM960 1920Q895 1920 834.5 1902.0Q774 1884 721.0 1850.5Q668 1817 625.5 1769.5Q583 1722 555 1664H1152Q1178 1664 1201.5 1654.0Q1225 1644 1242.5 1626.5Q1260 1609 1270.0 1585.5Q1280 1562 1280 1536V1339Q1309 1355 1338.5 1368.0Q1368 1381 1400 1390Q1408 1433 1408 1472Q1408 1565 1372.5 1646.5Q1337 1728 1276.5 1788.5Q1216 1849 1134.5 1884.5Q1053 1920 960 1920ZM624 608Q684 608 739.5 620.5Q795 633 838.5 662.0Q882 691 908.0 738.0Q934 785 934 853Q934 908 917.5 947.5Q901 987 872.0 1016.0Q843 1045 804.0 1066.5Q765 1088 719 1107Q708 1115 684.0 1124.0Q660 1133 634.5 1144.0Q609 1155 590.0 1169.5Q571 1184 571 1204Q571 1222 583.5 1232.5Q596 1243 614.0 1249.0Q632 1255 651.0 1257.0Q670 1259 683 1259Q719 1259 746.5 1254.5Q774 1250 798.5 1240.5Q823 1231 847.0 1217.0Q871 1203 901 1184V1402Q846 1425 792.5 1432.5Q739 1440 679 1440Q622 1440 564.5 1427.0Q507 1414 461.5 1384.5Q416 1355 387.0 1308.5Q358 1262 358 1196Q358 1132 385.0 1088.0Q412 1044 452.5 1013.5Q493 983 540.0 962.5Q587 942 627.5 924.0Q668 906 695.0 888.0Q722 870 722 845Q722 826 710.0 815.0Q698 804 681.0 798.0Q664 792 645.5 790.5Q627 789 613 789Q589 789 561.5 793.5Q534 798 507.0 806.5Q480 815 455.0 826.5Q430 838 411 853L360 893V662Q422 630 488.5 619.0Q555 608 624 608ZM1088 128Q1154 128 1212.0 153.0Q1270 178 1313.5 221.5Q1357 265 1382.5 323.5Q1408 382 1408 448Q1408 524 1374.5 591.0Q1341 658 1280 704V512Q1280 486 1270.0 462.5Q1260 439 1242.5 421.5Q1225 404 1201.5 394.0Q1178 384 1152 384H774Q786 328 815.0 281.0Q844 234 885.5 200.0Q927 166 979.0 147.0Q1031 128 1088 128ZM1536 512Q1615 512 1685.0 542.0Q1755 572 1807.5 624.5Q1860 677 1890.0 746.5Q1920 816 1920 896Q1920 975 1890.0 1045.0Q1860 1115 1807.5 1167.5Q1755 1220 1685.0 1250.0Q1615 1280 1536 1280Q1465 1280 1399.0 1254.5Q1333 1229 1280 1181V853Q1331 829 1373.5 793.5Q1416 758 1448.5 714.0Q1481 670 1502.0 618.5Q1523 567 1531 512Z" transform="scale(1,-1)"/>
</svg>