<?xml version="1.0" encoding="UTF-8"?>
<svg xmlns="http://www.w3.org/2000/svg" viewBox="512 -1920 1517 1883">
  <path d="M2029 595 1472 37 1203 307 1293 397 1472 219 1939 685ZM1073 256 1201 128H512V1792Q512 1819 522.0 1842.0Q532 1865 549.5 1882.5Q567 1900 590.0 1910.0Q613 1920 640 1920H1408Q1435 1920 1458.0 1910.0Q1481 1900 1498.5 1882.5Q1516 1865 1526.0 1842.0Q1536 1819 1536 1792V463L1472 400L1408 463V1792H640V256ZM1280 1536H768V1664H1280ZM1280 640H768V768H1280ZM768 512H1227L1099 384H768Z" transform="scale(1,-1)"/>
</svg>