<?xml version="1.0" encoding="UTF-8"?>
<svg xmlns="http://www.w3.org/2000/svg" viewBox="256 -2048 1536 2048">
  <path d="M1632 2048Q1665 2048 1694.0 2035.5Q1723 2023 1745.0 2001.0Q1767 1979 1779.5 1950.0Q1792 1921 1792 1888V160Q1792 127 1779.5 98.0Q1767 69 1745.0 47.0Q1723 25 1694.0 12.5Q1665 0 1632 0H416Q383 0 354.0 12.5Q325 25 303.0 47.0Q281 69 268.5 98.0Q256 127 256 160V1888Q256 1921 268.5 1950.0Q281 1979 303.0 2001.0Q325 2023 354.0 2035.5Q383 2048 416 2048ZM1664 1888Q1664 1902 1655.0 1911.0Q1646 1920 1632 1920H416Q402 1920 393.0 1911.0Q384 1902 384 1888V160Q384 146 393.0 137.0Q402 128 416 128H1632Q1646 128 1655.0 137.0Q1664 146 1664 160ZM512 1152H640V896H512Z" transform="scale(1,-1)"/>
</svg>