<?xml version="1.0" encoding="UTF-8"?>
<svg xmlns="http://www.w3.org/2000/svg" viewBox="0 -1792 2048 1536">
  <path d="M1920 1280Q1946 1280 1969.5 1270.0Q1993 1260 2010.5 1242.5Q2028 1225 2038.0 1202.0Q2048 1179 2048 1153Q2048 1123 2034 1095L1615 256H0V1664Q0 1691 10.0 1714.0Q20 1737 37.5 1754.5Q55 1772 78.0 1782.0Q101 1792 128 1792H480Q525 1792 557.5 1782.5Q590 1773 615.5 1759.0Q641 1745 661.0 1728.0Q681 1711 701.5 1697.0Q722 1683 745.5 1673.5Q769 1664 800 1664H1536Q1563 1664 1586.0 1654.0Q1609 1644 1626.5 1626.5Q1644 1609 1654.0 1586.0Q1664 1563 1664 1536V1280ZM128 591 437 1209Q454 1242 484.5 1261.0Q515 1280 552 1280H1536V1536H800Q755 1536 722.5 1545.5Q690 1555 664.5 1569.0Q639 1583 619.0 1600.0Q599 1617 578.5 1631.0Q558 1645 534.5 1654.5Q511 1664 480 1664H128ZM1920 1152H552L168 384H1536Z" transform="scale(1,-1)"/>
</svg>