<?xml version="1.0" encoding="UTF-8"?>
<svg xmlns="http://www.w3.org/2000/svg" viewBox="128 -1920 1792 1792">
  <path d="M384 1408V1664H640V1408ZM128 1152V1920H896V1152ZM256 1792V1280H768V1792ZM384 384V640H640V384ZM128 128V896H896V128ZM256 768V256H768V768ZM1664 1664V1408H1408V1664ZM1152 1920H1920V1152H1152ZM1792 1280V1792H1280V1280ZM1152 512H1280V384H1152ZM1408 768H1280V640H1152V896H1408ZM1664 896V768H1536V896ZM1536 768V512H1280V640H1408V768ZM1280 384H1536V256H1408V128H1152V256H1280ZM1536 128V256H1792V128ZM1920 256H1792V512H1920ZM1792 768V896H1920V640H1792V512H1664V768ZM1536 384V512H1664V384Z" transform="scale(1,-1)"/>
</svg>