<?xml version="1.0" encoding="UTF-8"?>
<svg xmlns="http://www.w3.org/2000/svg" viewBox="0 -2048 2048 2048">
  <path d="M256 1280V1408H384V1280ZM640 1408V1280H512V1408ZM768 1408H896V1280H768ZM1024 1408H1152V1280H1024ZM1408 1408V1280H1280V1408ZM1664 1408V1280H1536V1408ZM512 384V512H640V384ZM768 384V512H896V384ZM1152 384H1024V512H1152ZM1792 2048Q1845 2048 1891.5 2028.0Q1938 2008 1973.0 1973.0Q2008 1938 2028.0 1891.5Q2048 1845 2048 1792V512H1920V1280H1792V1408H1920V1570Q1880 1547 1837.5 1541.0Q1795 1535 1750 1535Q1729 1535 1707.0 1535.5Q1685 1536 1664 1536H320Q280 1536 245.0 1521.0Q210 1506 184.0 1480.0Q158 1454 143.0 1419.0Q128 1384 128 1344Q128 1304 143.0 1269.0Q158 1234 184.0 1208.0Q210 1182 245.0 1167.0Q280 1152 320 1152H384V256H1280V128H384V0H256V6Q200 18 153.0 47.0Q106 76 72.0 117.5Q38 159 19.0 211.0Q0 263 0 320V1344Q0 1410 25.0 1468.5Q50 1527 93.5 1570.5Q137 1614 195.5 1639.0Q254 1664 320 1664H1664V2048ZM256 1030Q221 1038 189.0 1052.0Q157 1066 128 1088V320Q128 290 137.0 261.5Q146 233 163.0 209.0Q180 185 203.5 167.0Q227 149 256 139ZM1792 1664Q1819 1664 1842.0 1674.0Q1865 1684 1882.5 1701.5Q1900 1719 1910.0 1742.0Q1920 1765 1920 1792Q1920 1819 1910.0 1842.0Q1900 1865 1882.5 1882.5Q1865 1900 1842.0 1910.0Q1819 1920 1792 1920ZM768 1216 1344 896 768 581ZM896 999V797L1079 897ZM1792 640V384H2048V256H1792V0H1664V256H1408V384H1664V640Z" transform="scale(1,-1)"/>
</svg>