<?xml version="1.0" encoding="UTF-8"?>
<svg xmlns="http://www.w3.org/2000/svg" viewBox="0 -2048 2048 2048">
  <path d="M1896 2048Q1927 2048 1954.5 2036.5Q1982 2025 2003.0 2005.0Q2024 1985 2036.0 1958.0Q2048 1931 2048 1900V148Q2048 117 2036.0 90.0Q2024 63 2003.0 43.0Q1982 23 1954.5 11.5Q1927 0 1896 0H151Q120 0 92.5 11.5Q65 23 44.5 43.0Q24 63 12.0 90.0Q0 117 0 148V1900Q0 1931 12.0 1958.0Q24 1985 44.5 2005.0Q65 2025 92.5 2036.5Q120 2048 151 2048ZM607 320V1280H303V320ZM455 1414Q491 1414 523.5 1427.5Q556 1441 580.0 1465.0Q604 1489 618.0 1521.0Q632 1553 632 1590Q632 1627 618.0 1659.0Q604 1691 580.0 1715.0Q556 1739 523.5 1752.5Q491 1766 455 1766Q419 1766 387.0 1752.0Q355 1738 331.0 1714.0Q307 1690 293.0 1658.0Q279 1626 279 1590Q279 1554 293.0 1522.0Q307 1490 331.0 1466.0Q355 1442 387.0 1428.0Q419 1414 455 1414ZM1745 320V839Q1745 938 1731.0 1023.0Q1717 1108 1677.5 1170.5Q1638 1233 1567.0 1268.5Q1496 1304 1381 1304Q1338 1304 1295.5 1294.0Q1253 1284 1215.0 1264.0Q1177 1244 1145.5 1215.0Q1114 1186 1093 1147H1089V1280H798V320H1101V786Q1101 834 1107.5 879.5Q1114 925 1133.5 960.0Q1153 995 1188.5 1016.0Q1224 1037 1283 1037Q1341 1037 1373.0 1013.0Q1405 989 1420.0 951.5Q1435 914 1438.0 868.0Q1441 822 1441 778V320Z" transform="scale(1,-1)"/>
</svg>