<?xml version="1.0" encoding="UTF-8"?>
<svg xmlns="http://www.w3.org/2000/svg" viewBox="0 -1792 2048 1408">
  <path d="M2048 1792V384H0V1792ZM1920 1664H128V512H1920ZM397 770H283L518 1398H635L869 770H754L698 930H451ZM573 1305Q571 1295 569.5 1285.0Q568 1275 565 1265L478 1015H671L583 1265Q580 1274 578.5 1284.5Q577 1295 575 1305ZM1033 770H931V1434H1033V1140H1034Q1060 1183 1097.5 1206.0Q1135 1229 1186 1229Q1234 1229 1268.5 1210.5Q1303 1192 1325.0 1161.0Q1347 1130 1357.0 1090.0Q1367 1050 1367 1007Q1367 959 1355.5 914.5Q1344 870 1320.0 835.5Q1296 801 1258.0 780.5Q1220 760 1166 760Q1080 760 1034 835H1033ZM1032 958Q1032 934 1040.0 912.5Q1048 891 1062.0 875.0Q1076 859 1096.5 849.5Q1117 840 1142 840Q1177 840 1200.0 855.0Q1223 870 1237.0 894.0Q1251 918 1257.0 948.0Q1263 978 1263 1007Q1263 1033 1257.0 1058.5Q1251 1084 1238.0 1104.0Q1225 1124 1203.5 1136.0Q1182 1148 1152 1148Q1123 1148 1100.5 1137.0Q1078 1126 1063.0 1107.5Q1048 1089 1040.0 1064.5Q1032 1040 1032 1013ZM1664 760Q1614 760 1573.0 776.5Q1532 793 1503.0 822.5Q1474 852 1458.0 893.0Q1442 934 1442 984Q1442 1039 1459.0 1084.0Q1476 1129 1507.5 1161.5Q1539 1194 1583.5 1211.5Q1628 1229 1684 1229Q1712 1229 1739.0 1224.0Q1766 1219 1792 1208V1113Q1770 1129 1744.5 1138.5Q1719 1148 1692 1148Q1657 1148 1630.0 1135.5Q1603 1123 1584.5 1102.0Q1566 1081 1556.0 1052.0Q1546 1023 1546 990Q1546 924 1583.0 882.0Q1620 840 1688 840Q1717 840 1743.0 850.5Q1769 861 1792 879V791Q1763 774 1730.0 767.0Q1697 760 1664 760Z" transform="scale(1,-1)"/>
</svg>