<?xml version="1.0" encoding="UTF-8"?>
<svg xmlns="http://www.w3.org/2000/svg" viewBox="0 -1792 2048 1783">
  <path d="M2048 1152V768Q2048 598 1960 440Q1892 319 1770 209Q1722 165 1675.5 131.0Q1629 97 1592.0 74.0Q1555 51 1530.0 38.0Q1505 25 1499 22L1472 9Q1452 19 1448.5 21.0Q1445 23 1444 23Q1438 26 1413.5 38.5Q1389 51 1351.5 74.0Q1314 97 1267.5 130.5Q1221 164 1173 208Q1113 263 1066.0 320.5Q1019 378 984 440Q896 598 896 768V1152H960Q1022 1152 1067.0 1158.0Q1112 1164 1146.5 1173.5Q1181 1183 1207.5 1195.5Q1234 1208 1258 1221Q1279 1232 1301.5 1242.5Q1324 1253 1349.5 1261.5Q1375 1270 1405.0 1275.0Q1435 1280 1472 1280Q1509 1280 1539.0 1275.0Q1569 1270 1594.5 1261.5Q1620 1253 1642.5 1242.5Q1665 1232 1686 1221Q1710 1208 1736.5 1195.5Q1763 1183 1797.5 1173.5Q1832 1164 1877.0 1158.0Q1922 1152 1984 1152ZM1920 1026Q1863 1029 1819.0 1037.5Q1775 1046 1740.0 1057.5Q1705 1069 1678.0 1082.0Q1651 1095 1627 1107Q1608 1117 1591.0 1125.0Q1574 1133 1556.0 1139.0Q1538 1145 1517.5 1148.5Q1497 1152 1472 1152Q1446 1152 1426.0 1148.5Q1406 1145 1388.0 1139.0Q1370 1133 1353.0 1125.0Q1336 1117 1317 1107Q1293 1095 1266.0 1082.0Q1239 1069 1204.0 1057.5Q1169 1046 1125.0 1037.5Q1081 1029 1024 1026V768Q1024 681 1050.0 606.0Q1076 531 1117.5 467.0Q1159 403 1210.0 351.0Q1261 299 1311.0 259.5Q1361 220 1404.0 193.0Q1447 166 1472 152Q1488 161 1511.5 175.0Q1535 189 1563.5 208.5Q1592 228 1624.0 252.5Q1656 277 1688 306Q1920 517 1920 768ZM128 896H768V768H0V1792H1792V1380Q1781 1384 1771.0 1388.0Q1761 1392 1752 1397Q1732 1411 1710.0 1421.0Q1688 1431 1664 1440V1664H128Z" transform="scale(1,-1)"/>
</svg>