<?xml version="1.0" encoding="UTF-8"?>
<svg xmlns="http://www.w3.org/2000/svg" viewBox="0 -2048 2048 1920">
  <path d="M1344 2048Q1370 2048 1389 2029L2029 1389Q2048 1370 2048 1344Q2048 1318 2029 1299L1786 1056Q1811 1031 1835.0 1008.0Q1859 985 1877.5 960.5Q1896 936 1907.5 907.0Q1919 878 1919 840Q1919 800 1904.0 764.0Q1889 728 1863.0 701.0Q1837 674 1802.0 658.0Q1767 642 1727 641Q1725 600 1710.0 565.5Q1695 531 1669.5 505.5Q1644 480 1609.5 465.0Q1575 450 1535 449Q1534 409 1518.0 374.0Q1502 339 1475.0 312.5Q1448 286 1412.0 271.0Q1376 256 1336 256Q1304 256 1271 267Q1260 236 1241.5 210.5Q1223 185 1198.0 166.5Q1173 148 1143.0 138.0Q1113 128 1080 128Q1054 128 1034.0 132.5Q1014 137 996.5 146.0Q979 155 962.5 168.0Q946 181 928 197Q893 165 859.5 146.5Q826 128 776 128Q736 128 700.0 143.0Q664 158 637.0 184.0Q610 210 594.0 245.0Q578 280 577 321Q538 322 503.0 337.0Q468 352 442.0 378.0Q416 404 401.0 439.0Q386 474 385 513Q345 514 310.5 529.0Q276 544 250.5 570.0Q225 596 209.5 631.0Q194 666 193 705Q152 706 117.0 722.0Q82 738 56.0 765.0Q30 792 15.0 827.5Q0 863 0 903Q0 944 15.5 980.0Q31 1016 59 1045L165 1152L19 1299Q0 1318 0 1344Q0 1370 19 1389L659 2029Q678 2048 704 2048Q730 2048 749 2029L881 1897Q894 1901 931.5 1914.0Q969 1927 1018.0 1943.5Q1067 1960 1121.5 1978.5Q1176 1997 1223.5 2012.5Q1271 2028 1304.0 2038.0Q1337 2048 1344 2048ZM312 1088Q283 1088 262 1067L149 955Q128 934 128 904Q128 874 148.5 853.5Q169 833 199 833Q230 833 250 853L363 965Q384 986 384 1016Q384 1046 363.0 1067.0Q342 1088 312 1088ZM504 896Q490 896 476.5 890.5Q463 885 453 875L341 762Q320 741 320 711Q320 682 341.0 661.5Q362 641 392 641Q406 641 419.5 646.0Q433 651 443 661L555 774Q576 795 576 824Q576 854 555.0 875.0Q534 896 504 896ZM696 704Q667 704 646 683L533 571Q512 550 512 520Q512 490 532.5 469.5Q553 449 583 449Q614 449 634 469L747 581Q768 602 768 632Q768 662 747.0 683.0Q726 704 696 704ZM704 327Q704 298 725.0 277.5Q746 257 776 257Q790 257 803.5 262.0Q817 267 827 277L939 390Q960 411 960 440Q960 470 938.5 491.0Q917 512 888 512Q874 512 860.5 506.5Q847 501 837 491L725 378Q704 357 704 327ZM1720 768Q1749 768 1770.5 789.0Q1792 810 1792 839Q1792 869 1771 890L1139 1523Q1136 1526 1129.0 1528.5Q1122 1531 1114.5 1532.5Q1107 1534 1099.5 1535.0Q1092 1536 1088 1536Q1062 1536 1038.5 1526.0Q1015 1516 997.5 1498.5Q980 1481 970.0 1457.5Q960 1434 960 1408Q960 1355 940.0 1308.5Q920 1262 885.0 1227.0Q850 1192 803.5 1172.0Q757 1152 704 1152Q664 1152 629.0 1167.0Q594 1182 568.0 1208.0Q542 1234 527.0 1269.0Q512 1304 512 1344Q512 1368 517.0 1397.5Q522 1427 533 1449L720 1824Q729 1840 747 1850L704 1893L154 1344L289 1210Q334 1215 374.0 1203.5Q414 1192 444.0 1166.5Q474 1141 492.0 1103.5Q510 1066 511 1021Q551 1019 586.0 1004.5Q621 990 646.5 964.5Q672 939 687.0 904.5Q702 870 703 829Q743 827 778.0 812.5Q813 798 838.5 772.5Q864 747 879.0 712.5Q894 678 895 637Q936 635 971.0 620.0Q1006 605 1032.0 578.5Q1058 552 1073.0 517.0Q1088 482 1088 440Q1088 395 1070.0 356.0Q1052 317 1018 288Q1033 274 1045.5 265.0Q1058 256 1080 256Q1109 256 1130.5 277.0Q1152 298 1152 327Q1152 357 1131 378L1221 469L1286 405Q1309 384 1336 384Q1365 384 1386.5 405.0Q1408 426 1408 455Q1408 485 1387 506L1274 619L1365 709L1477 597Q1498 576 1528 576Q1558 576 1579.0 597.0Q1600 618 1600 648Q1600 678 1579 699L1466 811L1557 902L1670 789Q1691 768 1720 768ZM1893 1344 1327 1911 823 1743 649 1395Q644 1386 642.0 1370.0Q640 1354 640 1344Q640 1318 659.0 1299.0Q678 1280 704 1280Q731 1280 754.0 1290.0Q777 1300 794.5 1317.5Q812 1335 822.0 1358.0Q832 1381 832 1408Q832 1461 852.0 1507.5Q872 1554 907.0 1589.0Q942 1624 988.5 1644.0Q1035 1664 1088 1664Q1104 1664 1122.5 1661.0Q1141 1658 1160.0 1652.5Q1179 1647 1195.5 1638.5Q1212 1630 1224 1618L1696 1146Z" transform="scale(1,-1)"/>
</svg>