<?xml version="1.0" encoding="UTF-8"?>
<svg xmlns="http://www.w3.org/2000/svg" viewBox="0 -1408 2048 640">
  <path d="M2048 1024H890Q878 968 849.0 921.0Q820 874 778.5 840.0Q737 806 685.0 787.0Q633 768 576 768Q519 768 467.0 787.0Q415 806 373.5 840.0Q332 874 303.0 921.0Q274 968 262 1024H0V1152H262Q274 1208 303.0 1255.0Q332 1302 373.5 1336.0Q415 1370 467.0 1389.0Q519 1408 576 1408Q633 1408 685.0 1389.0Q737 1370 778.5 1336.0Q820 1302 849.0 1255.0Q878 1208 890 1152H2048ZM576 896Q616 896 651.0 911.0Q686 926 712.0 952.0Q738 978 753.0 1013.0Q768 1048 768 1088Q768 1128 753.0 1163.0Q738 1198 712.0 1224.0Q686 1250 651.0 1265.0Q616 1280 576 1280Q536 1280 501.0 1265.0Q466 1250 440.0 1224.0Q414 1198 399.0 1163.0Q384 1128 384 1088Q384 1048 399.0 1013.0Q414 978 440.0 952.0Q466 926 501.0 911.0Q536 896 576 896Z" transform="scale(1,-1)"/>
</svg>