<?xml version="1.0" encoding="UTF-8"?>
<svg xmlns="http://www.w3.org/2000/svg" viewBox="0 -2048 2048 2048">
  <path d="M1536 640H1728V512H1408V896H1536ZM1153 1535H1793V1407H1153ZM2048 2048V576Q2048 457 2002.5 352.0Q1957 247 1879.0 169.0Q1801 91 1696.0 45.5Q1591 0 1472 0Q1362 0 1263.5 39.0Q1165 78 1088.0 147.0Q1011 216 961.5 309.5Q912 403 899 512H0V2048ZM1472 128Q1565 128 1646.5 163.5Q1728 199 1788.5 259.5Q1849 320 1884.5 401.5Q1920 483 1920 576Q1920 669 1884.5 750.5Q1849 832 1788.5 892.5Q1728 953 1646.5 988.5Q1565 1024 1472 1024Q1379 1024 1297.5 988.5Q1216 953 1155.5 892.5Q1095 832 1059.5 750.5Q1024 669 1024 576Q1024 483 1059.5 401.5Q1095 320 1155.5 259.5Q1216 199 1297.5 163.5Q1379 128 1472 128ZM1472 1152Q1537 1152 1599.5 1137.5Q1662 1123 1720.0 1095.5Q1778 1068 1828.5 1028.5Q1879 989 1920 938V1920H128V640H899Q912 749 962.0 842.5Q1012 936 1088.5 1005.0Q1165 1074 1263.5 1113.0Q1362 1152 1472 1152ZM824 1231Q873 1204 912.0 1164.5Q951 1125 977 1076Q951 1050 928.5 1022.5Q906 995 886 965Q874 1006 850.0 1040.5Q826 1075 793.5 1099.5Q761 1124 722.0 1138.0Q683 1152 640 1152Q587 1152 540.5 1132.0Q494 1112 459.0 1077.0Q424 1042 404.0 995.5Q384 949 384 896H256Q256 948 270.0 997.5Q284 1047 310.0 1090.5Q336 1134 373.0 1170.0Q410 1206 456 1231Q422 1266 403.0 1312.0Q384 1358 384 1408Q384 1461 404.0 1507.5Q424 1554 459.0 1589.0Q494 1624 540.5 1644.0Q587 1664 640 1664Q693 1664 739.5 1644.0Q786 1624 821.0 1589.0Q856 1554 876.0 1507.5Q896 1461 896 1408Q896 1358 877.0 1312.0Q858 1266 824 1231ZM640 1280Q667 1280 690.0 1290.0Q713 1300 730.5 1317.5Q748 1335 758.0 1358.0Q768 1381 768 1408Q768 1435 758.0 1458.0Q748 1481 730.5 1498.5Q713 1516 690.0 1526.0Q667 1536 640 1536Q613 1536 590.0 1526.0Q567 1516 549.5 1498.5Q532 1481 522.0 1458.0Q512 1435 512 1408Q512 1381 522.0 1358.0Q532 1335 549.5 1317.5Q567 1300 590.0 1290.0Q613 1280 640 1280Z" transform="scale(1,-1)"/>
</svg>