<?xml version="1.0" encoding="UTF-8"?>
<svg xmlns="http://www.w3.org/2000/svg" viewBox="128 -2048 1920 2048">
  <path d="M256 512H1024V384H128V1920H384V2048H512V1920H1408V2048H1536V1920H1792V1024H1664V1408H256ZM256 1792V1536H1664V1792H1536V1664H1408V1792H512V1664H384V1792ZM2048 896V512H1664V640H1854Q1809 700 1742.0 734.0Q1675 768 1600 768Q1541 768 1488.5 748.0Q1436 728 1394.0 692.5Q1352 657 1324.0 608.0Q1296 559 1286 501L1159 523Q1173 604 1213.0 672.0Q1253 740 1311.5 790.0Q1370 840 1444.0 868.0Q1518 896 1600 896Q1691 896 1774.0 860.5Q1857 825 1920 759V896ZM1600 128Q1658 128 1711.0 148.0Q1764 168 1806.0 203.5Q1848 239 1876.0 288.0Q1904 337 1914 395L2041 373Q2027 292 1987.0 224.0Q1947 156 1888.5 106.0Q1830 56 1756.0 28.0Q1682 0 1600 0Q1509 0 1426.0 35.5Q1343 71 1280 137V0H1152V384H1536V256H1346Q1391 196 1458.0 162.0Q1525 128 1600 128Z" transform="scale(1,-1)"/>
</svg>