<?xml version="1.0" encoding="UTF-8"?>
<svg xmlns="http://www.w3.org/2000/svg" viewBox="384 -2048 1280 2048">
  <path d="M1536 2048Q1563 2048 1586.0 2038.0Q1609 2028 1626.5 2010.5Q1644 1993 1654.0 1970.0Q1664 1947 1664 1920V128Q1664 101 1654.0 78.0Q1644 55 1626.5 37.5Q1609 20 1586.0 10.0Q1563 0 1536 0H512Q485 0 462.0 10.0Q439 20 421.5 37.5Q404 55 394.0 78.0Q384 101 384 128V1920Q384 1947 394.0 1970.0Q404 1993 421.5 2010.5Q439 2028 462.0 2038.0Q485 2048 512 2048ZM1536 1920H512V128H1536ZM896 384H1152V256H896Z" transform="scale(1,-1)"/>
</svg>