<?xml version="1.0" encoding="UTF-8"?>
<svg xmlns="http://www.w3.org/2000/svg" viewBox="0 -2048 2048 2048">
  <path d="M896 576Q896 510 932.5 462.0Q969 414 1030 393Q1024 357 1024 320Q1024 306 1024.5 291.0Q1025 276 1028 262Q972 271 924.0 300.0Q876 329 841.5 371.5Q807 414 787.5 467.0Q768 520 768 576Q768 643 793.0 701.0Q818 759 861.5 802.5Q905 846 963.0 871.0Q1021 896 1088 896H1344Q1410 896 1468.0 870.5Q1526 845 1569.5 801.5Q1613 758 1638.5 700.0Q1664 642 1664 576Q1664 522 1643.5 470.5Q1623 419 1588.0 377.0Q1553 335 1506.5 304.5Q1460 274 1408 262V395Q1449 404 1474.0 418.5Q1499 433 1513.0 455.0Q1527 477 1531.5 507.0Q1536 537 1536 576Q1536 616 1521.0 651.0Q1506 686 1480.0 712.0Q1454 738 1419.0 753.0Q1384 768 1344 768H1088Q1048 768 1013.0 753.0Q978 738 952.0 712.0Q926 686 911.0 651.0Q896 616 896 576ZM2048 320Q2048 253 2023.0 195.0Q1998 137 1954.5 93.5Q1911 50 1853.0 25.0Q1795 0 1728 0H1472Q1405 0 1347.0 25.0Q1289 50 1245.5 93.5Q1202 137 1177.0 195.0Q1152 253 1152 320Q1152 378 1171.0 429.5Q1190 481 1224.0 522.5Q1258 564 1305.0 593.0Q1352 622 1408 634V501Q1348 480 1314.0 431.5Q1280 383 1280 320Q1280 280 1295.0 245.0Q1310 210 1336.0 184.0Q1362 158 1397.0 143.0Q1432 128 1472 128H1728Q1768 128 1803.0 143.0Q1838 158 1864.0 184.0Q1890 210 1905.0 245.0Q1920 280 1920 320Q1920 386 1883.5 434.0Q1847 482 1786 503Q1792 539 1792 576Q1792 590 1791.0 605.0Q1790 620 1788 634Q1845 622 1892.5 593.5Q1940 565 1974.5 523.5Q2009 482 2028.5 430.0Q2048 378 2048 320ZM256 2048H2048V768H1773Q1772 768 1768.0 769.0Q1764 770 1759.5 771.0Q1755 772 1750.5 773.0Q1746 774 1745 774Q1710 844 1658.0 894.0Q1606 944 1536 979V1536H128V640H384V437Q435 488 484.5 539.0Q534 590 587 640H640V512L256 128V512H0V1664H256ZM1920 896V1920H384V1664H1664V896Z" transform="scale(1,-1)"/>
</svg>