<?xml version="1.0" encoding="UTF-8"?>
<svg xmlns="http://www.w3.org/2000/svg" viewBox="0 -2048 2048 2048">
  <path d="M256 640V896H0V2048H1536V1792H1792V1280H1664V1664H384V768H1152V640ZM256 1024V1792H1408V1920H128V1024ZM1536 1408H512V1536H1536ZM1280 1152H512V1280H1280ZM512 1024H1152V896H512ZM1664 1152Q1743 1152 1813.0 1122.0Q1883 1092 1935.5 1039.5Q1988 987 2018.0 917.0Q2048 847 2048 768Q2048 688 2018.0 618.5Q1988 549 1935.5 496.5Q1883 444 1813.0 414.0Q1743 384 1664 384Q1604 384 1547.0 402.0Q1490 420 1442 455L1005 19Q986 0 960 0Q934 0 915.0 19.0Q896 38 896 64Q896 90 915 109L1351 546Q1316 594 1298.0 651.0Q1280 708 1280 768Q1280 847 1310.0 917.0Q1340 987 1392.5 1039.5Q1445 1092 1514.5 1122.0Q1584 1152 1664 1152ZM1664 512Q1717 512 1763.5 532.0Q1810 552 1845.0 587.0Q1880 622 1900.0 668.5Q1920 715 1920 768Q1920 821 1900.0 867.5Q1880 914 1845.0 949.0Q1810 984 1763.5 1004.0Q1717 1024 1664 1024Q1611 1024 1564.5 1004.0Q1518 984 1483.0 949.0Q1448 914 1428.0 867.5Q1408 821 1408 768Q1408 715 1428.0 668.5Q1448 622 1483.0 587.0Q1518 552 1564.5 532.0Q1611 512 1664 512Z" transform="scale(1,-1)"/>
</svg>