<?xml version="1.0" encoding="UTF-8"?>
<svg xmlns="http://www.w3.org/2000/svg" viewBox="0 -1920 2048 1664">
  <path d="M2048 1792V256H0V1792H549L677 1920H1371L1499 1792ZM1920 1664H1445L1317 1792H731L603 1664H128V384H1920ZM1024 1536Q1130 1536 1223.5 1496.0Q1317 1456 1386.5 1386.5Q1456 1317 1496.0 1223.5Q1536 1130 1536 1024Q1536 918 1496.0 824.5Q1456 731 1386.5 661.5Q1317 592 1223.5 552.0Q1130 512 1024 512Q918 512 824.5 552.0Q731 592 661.5 661.5Q592 731 552.0 824.5Q512 918 512 1024Q512 1130 552.0 1223.5Q592 1317 661.5 1386.5Q731 1456 824.5 1496.0Q918 1536 1024 1536ZM1024 640Q1103 640 1173.0 670.5Q1243 701 1295.0 753.0Q1347 805 1377.5 875.0Q1408 945 1408 1024Q1408 1103 1377.5 1173.0Q1347 1243 1295.0 1295.0Q1243 1347 1173.0 1377.5Q1103 1408 1024 1408Q945 1408 875.0 1377.5Q805 1347 753.0 1295.0Q701 1243 670.5 1173.0Q640 1103 640 1024Q640 945 670.5 875.0Q701 805 753.0 753.0Q805 701 875.0 670.5Q945 640 1024 640ZM320 1536Q346 1536 365.0 1517.0Q384 1498 384 1472Q384 1446 365.0 1427.0Q346 1408 320 1408Q294 1408 275.0 1427.0Q256 1446 256 1472Q256 1498 275.0 1517.0Q294 1536 320 1536Z" transform="scale(1,-1)"/>
</svg>