<?xml version="1.0" encoding="UTF-8"?>
<svg xmlns="http://www.w3.org/2000/svg" viewBox="0 -2048 2048 1920">
  <path d="M1280.046875 1280.0H1152.0546875V1152.0H1280.046875ZM896.0703125 512.0H768.078125V384.0H896.0703125ZM512.09375 1280.0H384.1015625V1152.0H512.09375ZM896.0703125 1280.0H768.078125V1152.0H896.0703125ZM1280.046875 1024.0H1152.0546875V896.0H1280.046875ZM1664.0234375 1024.0H1536.03125V896.0H1664.0234375ZM512.09375 1024.0H384.1015625V896.0H512.09375ZM896.0703125 1024.0H768.078125V896.0H896.0703125ZM1280.046875 768.0H1152.0546875V640.0H1280.046875ZM1664.0234375 768.0H1536.03125V640.0H1664.0234375ZM512.09375 768.0H384.1015625V640.0H512.09375ZM896.0703125 768.0H768.078125V640.0H896.0703125ZM1280.046875 512.0H1152.0546875V384.0H1280.046875ZM1664.0234375 512.0H1536.03125V384.0H1664.0234375ZM0.125 1920.0V128.0H2048.0V1920.0H1664.0234375V2048.0H1536.03125V1920.0H512.09375V2048.0H384.1015625V1920.0ZM1920.0078125 1792.0V1536.0H128.1171875V1792.0H384.1015625V1664.0H512.09375V1792.0H1536.03125V1664.0H1664.0234375V1792.0ZM128.1171875 256.0V1408.0H1920.0078125V256.0Z" transform="scale(1,-1)"/>
</svg>