<?xml version="1.0" encoding="UTF-8"?>
<svg xmlns="http://www.w3.org/2000/svg" viewBox="128 -2048 1920 2048">
  <path d="M1792 512Q1845 512 1891.5 492.0Q1938 472 1973.0 437.0Q2008 402 2028.0 355.5Q2048 309 2048 256Q2048 203 2028.0 156.5Q2008 110 1973.0 75.0Q1938 40 1891.5 20.0Q1845 0 1792 0V128Q1819 128 1842.0 138.0Q1865 148 1882.5 165.5Q1900 183 1910.0 206.0Q1920 229 1920 256Q1920 283 1910.0 306.0Q1900 329 1882.5 346.5Q1865 364 1842.0 374.0Q1819 384 1792 384H1499L1661 221L1571 131L1254 448L1571 765L1661 675L1499 512ZM1347 128 1475 0H128V2048H1243L1792 1499V770L1664 898V1408H1152V1920H256V128ZM1280 1536H1573L1280 1829Z" transform="scale(1,-1)"/>
</svg>