<?xml version="1.0" encoding="UTF-8"?>
<svg xmlns="http://www.w3.org/2000/svg" viewBox="0 -2048 2038 2038">
  <path d="M1408 1280H1664V1152H1408ZM1152 1280Q1152 1351 1177.0 1417.0Q1202 1483 1250 1536H896V1024H768V1536H384Q331 1536 284.5 1516.0Q238 1496 203.0 1461.0Q168 1426 148.0 1379.5Q128 1333 128 1280V384H1003L1056 256H0V1280Q0 1359 30.0 1429.0Q60 1499 112.5 1551.5Q165 1604 234.5 1634.0Q304 1664 384 1664H768V1792H384V2048H896V1664H1536Q1615 1664 1685.0 1634.0Q1755 1604 1807.5 1551.5Q1860 1499 1890.0 1429.0Q1920 1359 1920 1280V939L1792 992V1280Q1792 1333 1772.0 1379.5Q1752 1426 1717.0 1461.0Q1682 1496 1635.5 1516.0Q1589 1536 1536 1536Q1483 1536 1436.5 1516.0Q1390 1496 1355.0 1461.0Q1320 1426 1300.0 1379.5Q1280 1333 1280 1280V938L1152 885ZM1914 509Q1920 479 1920 448Q1920 417 1914 387L2038 336L1989 217L1865 269Q1848 243 1826.5 221.5Q1805 200 1779 183L1831 59L1712 10L1661 134Q1631 128 1600 128Q1569 128 1539 134L1488 10L1369 59L1421 183Q1369 217 1335 269L1211 217L1162 336L1286 387Q1280 417 1280 448Q1280 479 1286 509L1162 560L1211 679L1335 627Q1352 653 1373.5 674.5Q1395 696 1421 713L1369 837L1488 886L1539 762Q1553 764 1566.5 765.5Q1580 767 1594 767Q1611 767 1627.0 765.0Q1643 763 1660 760L1712 886L1831 837L1778 711Q1804 694 1826.0 673.5Q1848 653 1865 627L1989 679L2038 560ZM1601 256Q1640 256 1675.0 271.5Q1710 287 1736.0 313.0Q1762 339 1777.0 374.0Q1792 409 1792 448Q1792 488 1777.0 523.0Q1762 558 1736.0 584.0Q1710 610 1675.0 625.0Q1640 640 1600 640Q1561 640 1526.0 625.0Q1491 610 1464.5 583.5Q1438 557 1423.0 522.0Q1408 487 1408 448Q1408 408 1423.5 373.0Q1439 338 1465.0 312.0Q1491 286 1526.5 271.0Q1562 256 1601 256Z" transform="scale(1,-1)"/>
</svg>