<?xml version="1.0" encoding="UTF-8"?>
<svg xmlns="http://www.w3.org/2000/svg" viewBox="0 -1664 2048 1664">
  <path d="M128 1483V512H960V384H0V1664H1920V963Q1890 982 1858.0 996.5Q1826 1011 1792 1022V1483L960 948ZM282 1536 960 1100 1638 1536ZM1600 896Q1693 896 1774.5 860.5Q1856 825 1916.5 764.5Q1977 704 2012.5 622.5Q2048 541 2048 448Q2048 355 2012.5 273.5Q1977 192 1916.5 131.5Q1856 71 1774.5 35.5Q1693 0 1600 0Q1507 0 1425.5 35.5Q1344 71 1283.5 131.5Q1223 192 1187.5 273.5Q1152 355 1152 448Q1152 541 1187.5 622.5Q1223 704 1283.5 764.5Q1344 825 1425.5 860.5Q1507 896 1600 896ZM1600 128Q1666 128 1724.0 153.0Q1782 178 1825.5 221.5Q1869 265 1894.5 323.5Q1920 382 1920 448Q1920 514 1894.5 572.0Q1869 630 1825.5 673.5Q1782 717 1724.0 742.5Q1666 768 1600 768Q1534 768 1475.5 742.5Q1417 717 1373.5 673.5Q1330 630 1305.0 572.0Q1280 514 1280 448Q1280 382 1305.0 323.5Q1330 265 1373.5 221.5Q1417 178 1475.5 153.0Q1534 128 1600 128ZM1783 554 1677 448 1783 342 1706 265 1600 371 1494 265 1417 342 1523 448 1417 554 1494 631 1600 525 1706 631Z" transform="scale(1,-1)"/>
</svg>