<?xml version="1.0" encoding="UTF-8"?>
<svg xmlns="http://www.w3.org/2000/svg" viewBox="0 -2048 2048 2011">
  <path d="M1664 1920H2048V896H1920V1408H128V256H1024V128H0V1920H384V2048H512V1920H1536V2048H1664ZM1920 1536V1792H1664V1664H1536V1792H512V1664H384V1792H128V1536ZM1472 219 1939 685 2029 595 1472 37 1203 307 1293 397ZM512 768Q512 810 534 846Q507 858 480.0 875.0Q453 892 432.0 914.5Q411 937 397.5 964.5Q384 992 384 1024Q384 1078 416.0 1117.5Q448 1157 499.5 1185.5Q551 1214 615.0 1232.5Q679 1251 743.0 1261.5Q807 1272 864.5 1276.0Q922 1280 960 1280Q998 1280 1055.5 1276.0Q1113 1272 1177.0 1261.5Q1241 1251 1305.0 1232.5Q1369 1214 1420.5 1185.5Q1472 1157 1504.0 1117.5Q1536 1078 1536 1024Q1536 1004 1530.0 984.0Q1524 964 1513 947Q1540 934 1567.0 917.0Q1594 900 1615.5 877.5Q1637 855 1650.5 828.0Q1664 801 1664 768Q1664 714 1632.0 674.5Q1600 635 1548.5 606.5Q1497 578 1433.0 559.5Q1369 541 1305.0 530.5Q1241 520 1183.5 516.0Q1126 512 1088 512Q1050 512 992.5 516.0Q935 520 871.0 530.5Q807 541 743.0 559.5Q679 578 627.5 606.5Q576 635 544.0 674.5Q512 714 512 768ZM1536 768Q1536 781 1518.0 795.0Q1500 809 1477.5 821.0Q1455 833 1432.5 841.5Q1410 850 1401 853Q1355 829 1300.0 812.5Q1245 796 1186.5 786.5Q1128 777 1069.5 772.5Q1011 768 960 768Q885 768 811.0 776.0Q737 784 664 801Q656 796 648.0 787.5Q640 779 640 768Q652 742 683.0 722.0Q714 702 755.0 688.0Q796 674 843.5 664.5Q891 655 937.0 649.5Q983 644 1023.0 642.0Q1063 640 1088 640Q1113 640 1153.0 642.0Q1193 644 1239.0 649.5Q1285 655 1332.5 664.5Q1380 674 1421.0 688.0Q1462 702 1493.0 722.0Q1524 742 1536 768ZM512 1024Q524 998 555.0 978.0Q586 958 627.0 944.0Q668 930 715.5 920.5Q763 911 809.0 905.5Q855 900 894.5 898.0Q934 896 960 896Q985 896 1025.0 898.0Q1065 900 1111.0 905.5Q1157 911 1204.5 920.5Q1252 930 1293.0 944.0Q1334 958 1365.0 978.0Q1396 998 1408 1024Q1396 1050 1365.0 1070.0Q1334 1090 1293.0 1104.0Q1252 1118 1204.5 1127.5Q1157 1137 1111.0 1142.5Q1065 1148 1025.0 1150.0Q985 1152 960 1152Q934 1152 894.5 1150.0Q855 1148 809.0 1142.5Q763 1137 715.5 1127.5Q668 1118 627.0 1104.0Q586 1090 555.0 1070.0Q524 1050 512 1024Z" transform="scale(1,-1)"/>
</svg>