<?xml version="1.0" encoding="UTF-8"?>
<svg xmlns="http://www.w3.org/2000/svg" viewBox="0 -2048 1920 2048">
  <path d="M768 384H896V256H768ZM1024 384H1152V256H1024ZM512 384H640V256H512ZM1664 1280H1536V1408H1664ZM1920 1664V0H256V640H0V2048H731L1115 1664ZM768 1664H933L768 1829ZM1024 768V1536H640V1920H128V768ZM1792 1536H1152V640H640V512H512V640H384V128H1792ZM1408 256H1280V384H1408ZM1664 256H1536V384H1664ZM1664 1024H1536V1152H1664ZM1408 1280H1280V1408H1408ZM1664 768H1536V896H1664ZM1664 512H1536V640H1664Z" transform="scale(1,-1)"/>
</svg>