<?xml version="1.0" encoding="UTF-8"?>
<svg xmlns="http://www.w3.org/2000/svg" viewBox="0 -1664 2048 1152">
  <path d="M1728 1152Q1752 1152 1775.0 1144.0Q1798 1136 1817.0 1122.5Q1836 1109 1850.5 1089.5Q1865 1070 1874 1048Q1879 1034 1894.5 995.5Q1910 957 1929.0 907.5Q1948 858 1969.0 803.0Q1990 748 2007.5 700.0Q2025 652 2036.5 618.0Q2048 584 2048 576Q2048 549 2029.0 530.5Q2010 512 1984 512H832Q806 512 787.0 530.5Q768 549 768 576Q768 588 776.5 614.0Q785 640 796.5 670.0Q808 700 819.5 727.0Q831 754 836 768H448Q422 768 403.0 786.5Q384 805 384 832Q384 844 392.5 870.0Q401 896 412.5 926.0Q424 956 435.5 983.0Q447 1010 452 1024H64Q38 1024 19.0 1042.5Q0 1061 0 1088Q0 1096 11.5 1130.5Q23 1165 40.5 1212.5Q58 1260 79.0 1315.5Q100 1371 119.0 1421.0Q138 1471 153.0 1509.5Q168 1548 174 1562Q191 1607 231.5 1635.5Q272 1664 320 1664H960Q984 1664 1007.0 1656.0Q1030 1648 1049.0 1634.5Q1068 1621 1082.5 1601.5Q1097 1582 1106 1560L1164 1408H1344Q1368 1408 1391.0 1400.0Q1414 1392 1433.0 1378.5Q1452 1365 1466.5 1345.5Q1481 1326 1490 1304L1548 1152ZM500 1152 558 1306Q575 1351 615.5 1379.5Q656 1408 704 1408H1027L986 1517Q984 1523 975.5 1529.5Q967 1536 960 1536H320Q313 1536 305.0 1530.0Q297 1524 295 1518L156 1152ZM884 896 942 1050Q959 1095 999.5 1123.5Q1040 1152 1088 1152H1411L1370 1261Q1368 1267 1359.5 1273.5Q1351 1280 1344 1280H704Q697 1280 689.0 1274.0Q681 1268 679 1262Q644 1170 609.5 1079.0Q575 988 540 896ZM1892 640 1754 1005Q1752 1011 1743.5 1017.5Q1735 1024 1728 1024H1088Q1081 1024 1073.0 1018.0Q1065 1012 1063 1006L1021 896Q997 832 973.0 768.0Q949 704 924 640Z" transform="scale(1,-1)"/>
</svg>