<?xml version="1.0" encoding="UTF-8"?>
<svg xmlns="http://www.w3.org/2000/svg" viewBox="256 -2048 1792 2048">
  <path d="M2048 832Q2048 766 2023.0 707.5Q1998 649 1954.5 605.5Q1911 562 1852.5 537.0Q1794 512 1728 512Q1705 512 1683 515L1224 56Q1198 30 1162.0 15.0Q1126 0 1088 0Q1048 0 1013.0 15.0Q978 30 952.0 56.0Q926 82 911.0 117.0Q896 152 896 192Q896 230 911.0 266.0Q926 302 952 328L1411 787Q1408 809 1408 832Q1408 898 1433.0 956.5Q1458 1015 1501.5 1058.5Q1545 1102 1603.5 1127.0Q1662 1152 1728 1152Q1794 1152 1852.0 1126.5Q1910 1101 1953.5 1057.5Q1997 1014 2022.5 956.0Q2048 898 2048 832ZM1920 832Q1920 873 1901 914L1755 768H1664V859L1810 1005Q1769 1024 1728 1024Q1688 1024 1653.0 1009.0Q1618 994 1592.0 968.0Q1566 942 1551.0 907.0Q1536 872 1536 832Q1536 791 1555 750L1043 237Q1024 218 1024 192Q1024 166 1043.0 147.0Q1062 128 1088 128Q1114 128 1133 147L1646 659Q1687 640 1728 640Q1768 640 1803.0 655.0Q1838 670 1864.0 696.0Q1890 722 1905.0 757.0Q1920 792 1920 832ZM774 128Q782 94 796.5 60.5Q811 27 832 0H256V1792H768Q768 1845 788.0 1891.5Q808 1938 843.0 1973.0Q878 2008 924.5 2028.0Q971 2048 1024 2048Q1077 2048 1123.5 2028.0Q1170 2008 1205.0 1973.0Q1240 1938 1260.0 1891.5Q1280 1845 1280 1792H1792V1275Q1776 1277 1760.0 1278.5Q1744 1280 1728 1280Q1712 1280 1696.0 1278.5Q1680 1277 1664 1275V1664H1536V1408H512V1664H384V128ZM640 1664V1536H1408V1664H1152V1792Q1152 1832 1131.0 1862.5Q1110 1893 1074 1910Q1051 1920 1024 1920Q997 1920 974 1910Q938 1893 917.0 1862.5Q896 1832 896 1792V1664Z" transform="scale(1,-1)"/>
</svg>