<?xml version="1.0" encoding="UTF-8"?>
<svg xmlns="http://www.w3.org/2000/svg" viewBox="128 -2048 1664 2048">
  <path d="M960 1408Q1079 1408 1184.0 1362.5Q1289 1317 1367.0 1239.0Q1445 1161 1490.5 1056.0Q1536 951 1536 832Q1536 713 1490.5 608.0Q1445 503 1367.0 425.0Q1289 347 1184.0 301.5Q1079 256 960 256Q841 256 736.0 301.5Q631 347 553.0 425.0Q475 503 429.5 608.0Q384 713 384 832Q384 951 429.5 1056.0Q475 1161 553.0 1239.0Q631 1317 736.0 1362.5Q841 1408 960 1408ZM1382 1024Q1345 1105 1280.0 1167.0Q1215 1229 1133 1263Q1161 1206 1177.5 1146.0Q1194 1086 1203 1024ZM1424 832Q1424 848 1423.0 864.0Q1422 880 1420 896H1215Q1215 864 1215.5 832.0Q1216 800 1214 768H1420Q1422 784 1423.0 800.0Q1424 816 1424 832ZM960 368Q969 368 977.0 374.0Q985 380 991 386Q1011 405 1027.0 437.0Q1043 469 1055.0 505.0Q1067 541 1075.0 577.0Q1083 613 1088 640H829Q836 591 848.5 542.5Q861 494 884 449Q888 441 896.5 427.0Q905 413 915.5 400.0Q926 387 937.5 377.5Q949 368 960 368ZM1102 768Q1103 784 1103.5 800.0Q1104 816 1104 832Q1104 848 1103.5 864.0Q1103 880 1102 896H817Q817 880 816.5 864.0Q816 848 816 832Q816 816 816.0 800.0Q816 784 817 768ZM496 832Q496 816 497.0 800.0Q498 784 500 768H705Q703 800 704.0 832.0Q705 864 705 896H500Q498 880 497.0 864.0Q496 848 496 832ZM960 1296Q949 1296 937.5 1286.0Q926 1276 915.5 1262.5Q905 1249 896.5 1235.0Q888 1221 884 1213Q863 1172 850.0 1120.5Q837 1069 829 1024H1090Q1082 1072 1069.0 1119.0Q1056 1166 1034 1209Q1031 1215 1022.5 1229.5Q1014 1244 1003.0 1259.0Q992 1274 980.5 1285.0Q969 1296 960 1296ZM783 1261Q702 1227 638.0 1166.0Q574 1105 538 1024H716Q725 1084 740.5 1145.0Q756 1206 783 1261ZM538 640Q574 560 637.0 499.0Q700 438 781 404Q755 459 739.5 519.5Q724 580 716 640ZM1134 402Q1217 435 1281.0 497.0Q1345 559 1382 640H1202Q1192 580 1176.0 518.5Q1160 457 1134 402ZM1792 1499V0H128V2048H1243ZM1280 1536H1573L1280 1829ZM1664 128V1408H1152V1920H256V128Z" transform="scale(1,-1)"/>
</svg>