<?xml version="1.0" encoding="UTF-8"?>
<svg xmlns="http://www.w3.org/2000/svg" viewBox="4 -2044 1912 1912">
  <path d="M960 2044Q1092 2044 1214.0 2010.0Q1336 1976 1442.5 1913.5Q1549 1851 1636.0 1764.0Q1723 1677 1785.5 1570.5Q1848 1464 1882.0 1342.0Q1916 1220 1916 1088Q1916 956 1882.0 834.0Q1848 712 1785.5 605.5Q1723 499 1636.0 412.0Q1549 325 1442.5 262.5Q1336 200 1214.0 166.0Q1092 132 960 132Q828 132 706.0 166.0Q584 200 477.5 262.5Q371 325 284.0 412.0Q197 499 134.5 605.5Q72 712 38.0 834.0Q4 956 4 1088Q4 1220 38.0 1342.0Q72 1464 134.5 1570.5Q197 1677 284.0 1764.0Q371 1851 477.5 1913.5Q584 1976 706.0 2010.0Q828 2044 960 2044ZM960 252Q1075 252 1182.0 282.0Q1289 312 1382.0 366.5Q1475 421 1551.0 497.0Q1627 573 1681.5 666.0Q1736 759 1766.0 866.0Q1796 973 1796 1088Q1796 1203 1766.0 1310.0Q1736 1417 1681.5 1510.0Q1627 1603 1551.0 1679.0Q1475 1755 1382.0 1809.5Q1289 1864 1182.0 1894.0Q1075 1924 960 1924Q845 1924 738.0 1894.0Q631 1864 538.0 1809.5Q445 1755 369.0 1679.0Q293 1603 238.5 1510.0Q184 1417 154.0 1310.0Q124 1203 124 1088Q124 973 154.0 866.0Q184 759 238.5 666.0Q293 573 369.0 497.0Q445 421 538.0 366.5Q631 312 738.0 282.0Q845 252 960 252ZM896 640H1024V512H896ZM960 1600Q1026 1600 1084.0 1574.5Q1142 1549 1185.5 1505.5Q1229 1462 1254.5 1404.0Q1280 1346 1280 1280Q1280 1220 1261.0 1175.5Q1242 1131 1213.5 1095.0Q1185 1059 1152.0 1029.5Q1119 1000 1090.5 970.5Q1062 941 1043.0 907.5Q1024 874 1024 832V768H896V832Q896 892 915.0 936.5Q934 981 962.5 1017.0Q991 1053 1024.0 1082.5Q1057 1112 1085.5 1141.5Q1114 1171 1133.0 1204.0Q1152 1237 1152 1280Q1152 1320 1137.0 1355.0Q1122 1390 1096.0 1416.0Q1070 1442 1035.0 1457.0Q1000 1472 960 1472Q920 1472 885.0 1457.0Q850 1442 824.0 1416.0Q798 1390 783.0 1355.0Q768 1320 768 1280H640Q640 1346 665.0 1404.0Q690 1462 733.5 1505.5Q777 1549 835.5 1574.5Q894 1600 960 1600Z" transform="scale(1,-1)"/>
</svg>