<?xml version="1.0" encoding="UTF-8"?>
<svg xmlns="http://www.w3.org/2000/svg" viewBox="19 -2029 1882 1882">
  <path d="M256 832Q256 921 290.0 1003.5Q324 1086 387 1149L614 1375L1247 742L1021 515Q958 452 875.5 418.0Q793 384 704 384Q631 384 562.5 406.5Q494 429 436 473L109 147L19 237L345 564Q301 622 278.5 690.5Q256 759 256 832ZM704 512Q768 512 826.5 536.5Q885 561 930 606L1066 742L614 1194L478 1058Q433 1013 408.5 954.5Q384 896 384 832Q384 766 409.0 707.5Q434 649 477.5 605.5Q521 562 579.5 537.0Q638 512 704 512ZM1575 1612Q1619 1554 1641.5 1485.5Q1664 1417 1664 1344Q1664 1255 1630.0 1172.5Q1596 1090 1533 1027L1306 801L673 1434L899 1661Q962 1724 1044.5 1758.0Q1127 1792 1216 1792Q1289 1792 1357.5 1769.5Q1426 1747 1484 1703L1811 2029L1901 1939ZM1442 1118Q1487 1163 1511.5 1221.5Q1536 1280 1536 1344Q1536 1410 1510.5 1468.0Q1485 1526 1441.5 1569.5Q1398 1613 1340.0 1638.5Q1282 1664 1216 1664Q1152 1664 1093.5 1639.5Q1035 1615 990 1570L854 1434L1306 982Z" transform="scale(1,-1)"/>
</svg>