<?xml version="1.0" encoding="UTF-8"?>
<svg xmlns="http://www.w3.org/2000/svg" viewBox="0 -2048 2044 2044">
  <path d="M1852 1281Q1941 1173 1992.5 1042.0Q2044 911 2044 770Q2044 665 2016.5 567.0Q1989 469 1939.0 384.0Q1889 299 1819.0 229.0Q1749 159 1664.0 109.0Q1579 59 1481.0 31.5Q1383 4 1278 4Q1213 4 1148.5 13.0Q1084 22 1022 42Q960 22 896.0 13.0Q832 4 767 4Q662 4 564.0 31.5Q466 59 381.0 109.0Q296 159 225.5 229.0Q155 299 105.0 384.0Q55 469 27.5 567.0Q0 665 0 770Q0 864 23.0 954.0Q46 1044 88.5 1124.5Q131 1205 192.5 1274.0Q254 1343 332 1397Q351 1538 418.5 1657.0Q486 1776 587.0 1863.0Q688 1950 816.5 1999.0Q945 2048 1086 2048Q1193 2048 1291.5 2021.0Q1390 1994 1475.0 1944.5Q1560 1895 1629.5 1825.0Q1699 1755 1748.5 1670.0Q1798 1585 1825.0 1486.5Q1852 1388 1852 1281ZM447 1281Q447 1197 471.0 1115.5Q495 1034 537 962Q576 1101 650.5 1207.0Q725 1313 843 1397Q885 1426 929.5 1454.0Q974 1482 1022 1499Q1081 1520 1148.5 1528.5Q1216 1537 1278 1537Q1399 1537 1506.0 1501.5Q1613 1466 1712 1397Q1692 1509 1634.5 1604.5Q1577 1700 1492.5 1770.0Q1408 1840 1303.5 1880.0Q1199 1920 1086 1920Q981 1920 884.0 1887.5Q787 1855 707.0 1796.0Q627 1737 566.5 1655.0Q506 1573 473 1473Q457 1425 452.0 1378.0Q447 1331 447 1281ZM1405 770Q1405 865 1378.0 954.5Q1351 1044 1300.5 1120.5Q1250 1197 1179.5 1258.0Q1109 1319 1022 1358Q939 1324 872.0 1269.0Q805 1214 756.0 1144.0Q707 1074 677.5 992.0Q648 910 639 822Q683 778 735.0 744.5Q787 711 844.5 688.5Q902 666 963.0 654.5Q1024 643 1086 643Q1172 643 1251.0 668.5Q1330 694 1405 732ZM843 145Q861 145 885.0 146.5Q909 148 933.5 151.5Q958 155 981.5 159.5Q1005 164 1022 170Q1040 177 1058.5 187.5Q1077 198 1094 209Q1190 268 1262.0 356.0Q1334 444 1367 553Q1298 533 1228.0 517.5Q1158 502 1086 502Q966 502 857.0 538.0Q748 574 651 643Q612 671 576.5 701.5Q541 732 511 770Q431 871 380.0 985.5Q329 1100 319 1230Q274 1185 238.5 1131.5Q203 1078 178.5 1019.0Q154 960 141.0 897.0Q128 834 128 770Q128 636 177.5 519.5Q227 403 313.5 317.0Q400 231 516.5 181.5Q633 132 767 132Q788 132 805.5 134.0Q823 136 843 145ZM1278 132Q1412 132 1528.5 181.5Q1645 231 1731.0 317.0Q1817 403 1866.5 519.5Q1916 636 1916 770Q1916 856 1892.0 935.5Q1868 1015 1827 1090Q1785 1166 1727.0 1225.5Q1669 1285 1598.0 1326.0Q1527 1367 1446.0 1388.0Q1365 1409 1278 1409Q1257 1409 1239.0 1407.5Q1221 1406 1201 1397Q1365 1288 1449.0 1127.0Q1533 966 1533 770Q1533 742 1528.0 713.0Q1523 684 1520 656Q1512 581 1484.5 507.5Q1457 434 1414.5 367.5Q1372 301 1317.0 244.0Q1262 187 1201 145Q1221 135 1239.0 133.5Q1257 132 1278 132Z" transform="scale(1,-1)"/>
</svg>