<?xml version="1.0" encoding="UTF-8"?>
<svg xmlns="http://www.w3.org/2000/svg" viewBox="128 -2048 1920 2048">
  <path d="M1328 757Q1290 704 1269 642L1229 659Q1212 633 1191.0 611.0Q1170 589 1145 571L1198 443L1080 394L1028 519Q1011 516 994.0 514.0Q977 512 960 512Q946 512 933.0 513.5Q920 515 906 517L855 394L737 443L787 563Q729 601 691 659L571 609L522 727L645 778Q643 792 641.5 805.0Q640 818 640 832Q640 849 642.0 866.0Q644 883 647 900L522 952L571 1070L699 1017Q717 1042 739.0 1063.0Q761 1084 787 1101L737 1221L855 1270L906 1147Q920 1149 933.0 1150.5Q946 1152 960 1152Q977 1152 994.0 1150.0Q1011 1148 1028 1145L1080 1270L1198 1221L1145 1093Q1189 1061 1221 1017L1349 1070L1398 952L1273 900Q1276 883 1278.0 866.0Q1280 849 1280 832Q1280 818 1278.5 805.0Q1277 792 1275 778ZM960 640Q1000 640 1035.0 655.0Q1070 670 1096.0 696.0Q1122 722 1137.0 757.0Q1152 792 1152 832Q1152 872 1137.0 907.0Q1122 942 1096.0 968.0Q1070 994 1035.0 1009.0Q1000 1024 960 1024Q920 1024 885.0 1009.0Q850 994 824.0 968.0Q798 942 783.0 907.0Q768 872 768 832Q768 792 783.0 757.0Q798 722 824.0 696.0Q850 670 885.0 655.0Q920 640 960 640ZM1848 335Q1894 310 1931.0 274.0Q1968 238 1994.0 194.5Q2020 151 2034.0 101.5Q2048 52 2048 0H1920Q1920 53 1900.0 99.5Q1880 146 1845.0 181.0Q1810 216 1763.5 236.0Q1717 256 1664 256Q1611 256 1564.5 236.0Q1518 216 1483.0 181.0Q1448 146 1428.0 99.5Q1408 53 1408 0H1280Q1280 52 1294.0 101.5Q1308 151 1334.0 194.5Q1360 238 1397.0 274.0Q1434 310 1480 335Q1446 370 1427.0 416.0Q1408 462 1408 512Q1408 565 1428.0 611.5Q1448 658 1483.0 693.0Q1518 728 1564.5 748.0Q1611 768 1664 768Q1717 768 1763.5 748.0Q1810 728 1845.0 693.0Q1880 658 1900.0 611.5Q1920 565 1920 512Q1920 462 1901.0 416.0Q1882 370 1848 335ZM1664 384Q1691 384 1714.0 394.0Q1737 404 1754.5 421.5Q1772 439 1782.0 462.0Q1792 485 1792 512Q1792 539 1782.0 562.0Q1772 585 1754.5 602.5Q1737 620 1714.0 630.0Q1691 640 1664 640Q1637 640 1614.0 630.0Q1591 620 1573.5 602.5Q1556 585 1546.0 562.0Q1536 539 1536 512Q1536 485 1546.0 462.0Q1556 439 1573.5 421.5Q1591 404 1614.0 394.0Q1637 384 1664 384ZM256 128H1136Q1128 96 1124.0 64.0Q1120 32 1120 0H128V2048H1243L1792 1499V908Q1729 928 1664 928V1408H1152V1920H256ZM1280 1536H1573L1280 1829Z" transform="scale(1,-1)"/>
</svg>