<?xml version="1.0" encoding="UTF-8"?>
<svg xmlns="http://www.w3.org/2000/svg" viewBox="128 -2048 1901 1946">
  <path d="M2029 531 1600 102 1171 531 1261 621 1536 347V1152H1664V347L1939 621ZM576 384Q642 384 700.0 409.0Q758 434 801.5 477.5Q845 521 870.5 579.5Q896 638 896 704V1664H1024V704Q1024 611 988.5 529.5Q953 448 892.5 387.5Q832 327 750.5 291.5Q669 256 576 256Q483 256 401.5 291.5Q320 327 259.5 387.5Q199 448 163.5 529.5Q128 611 128 704V1728Q128 1794 153.0 1852.0Q178 1910 221.5 1953.5Q265 1997 323.5 2022.5Q382 2048 448 2048Q514 2048 572.0 2022.5Q630 1997 673.5 1953.5Q717 1910 742.5 1852.0Q768 1794 768 1728V768Q768 728 753.0 693.0Q738 658 712.0 632.0Q686 606 651.0 591.0Q616 576 576 576Q536 576 501.0 591.0Q466 606 440.0 632.0Q414 658 399.0 693.0Q384 728 384 768V1536H512V768Q512 742 531.0 723.0Q550 704 576 704Q602 704 621.0 723.0Q640 742 640 768V1728Q640 1768 625.0 1803.0Q610 1838 584.0 1864.0Q558 1890 523.0 1905.0Q488 1920 448 1920Q408 1920 373.0 1905.0Q338 1890 312.0 1864.0Q286 1838 271.0 1803.0Q256 1768 256 1728V704Q256 638 281.0 579.5Q306 521 349.5 477.5Q393 434 451.5 409.0Q510 384 576 384Z" transform="scale(1,-1)"/>
</svg>