<?xml version="1.0" encoding="UTF-8"?>
<svg xmlns="http://www.w3.org/2000/svg" viewBox="0 -2048 2048 2048">
  <path d="M2048 2048V0H0V2048ZM1920 1920H128V128H1920ZM397 1154H283L518 1782H635L869 1154H754L698 1314H451ZM573 1689Q571 1679 569.5 1669.0Q568 1659 565 1649L478 1399H671L583 1649Q580 1658 578.5 1668.5Q577 1679 575 1689ZM1033 1154H931V1818H1033V1524H1034Q1060 1567 1097.5 1590.0Q1135 1613 1186 1613Q1234 1613 1268.5 1594.5Q1303 1576 1325.0 1545.0Q1347 1514 1357.0 1474.0Q1367 1434 1367 1391Q1367 1343 1355.5 1298.5Q1344 1254 1320.0 1219.5Q1296 1185 1258.0 1164.5Q1220 1144 1166 1144Q1080 1144 1034 1219H1033ZM1032 1342Q1032 1318 1040.0 1296.5Q1048 1275 1062.0 1259.0Q1076 1243 1096.5 1233.5Q1117 1224 1142 1224Q1177 1224 1200.0 1239.0Q1223 1254 1237.0 1278.0Q1251 1302 1257.0 1332.0Q1263 1362 1263 1391Q1263 1417 1257.0 1442.5Q1251 1468 1238.0 1488.0Q1225 1508 1203.5 1520.0Q1182 1532 1152 1532Q1123 1532 1100.5 1521.0Q1078 1510 1063.0 1491.5Q1048 1473 1040.0 1448.5Q1032 1424 1032 1397ZM1664 1144Q1614 1144 1573.0 1160.5Q1532 1177 1503.0 1206.5Q1474 1236 1458.0 1277.0Q1442 1318 1442 1368Q1442 1423 1459.0 1468.0Q1476 1513 1507.5 1545.5Q1539 1578 1583.5 1595.5Q1628 1613 1684 1613Q1712 1613 1739.0 1608.0Q1766 1603 1792 1592V1497Q1770 1513 1744.5 1522.5Q1719 1532 1692 1532Q1657 1532 1630.0 1519.5Q1603 1507 1584.5 1486.0Q1566 1465 1556.0 1436.0Q1546 1407 1546 1374Q1546 1308 1583.0 1266.0Q1620 1224 1688 1224Q1717 1224 1743.0 1234.5Q1769 1245 1792 1263V1175Q1763 1158 1730.0 1151.0Q1697 1144 1664 1144ZM438 256Q390 256 355.5 275.0Q321 294 299.0 325.5Q277 357 266.5 397.0Q256 437 256 480Q256 527 267.5 571.0Q279 615 304.0 649.5Q329 684 366.5 704.5Q404 725 457 725Q500 725 534.0 707.5Q568 690 589 652H591V930H692V266H591V343H589Q539 256 438 256ZM482 644Q447 644 423.5 630.0Q400 616 386.0 593.5Q372 571 366.0 542.5Q360 514 360 484Q360 457 366.0 430.5Q372 404 386.0 383.0Q400 362 421.5 349.0Q443 336 475 336Q503 336 525.0 347.0Q547 358 562.0 377.0Q577 396 584.5 420.5Q592 445 592 471V530Q592 578 561.5 611.0Q531 644 482 644ZM1012 725Q1063 725 1099.0 707.5Q1135 690 1158.5 660.0Q1182 630 1193.0 589.0Q1204 548 1204 502V463H899Q901 400 938.0 366.5Q975 333 1037 333Q1073 333 1106.5 344.5Q1140 356 1169 376V295Q1133 272 1091.0 264.0Q1049 256 1007 256Q953 256 913.5 273.5Q874 291 848.0 322.0Q822 353 809.0 395.5Q796 438 796 489Q796 537 811.0 579.5Q826 622 854.0 654.5Q882 687 922.0 706.0Q962 725 1012 725ZM1106 535Q1106 558 1100.5 579.0Q1095 600 1083.5 615.5Q1072 631 1053.5 640.5Q1035 650 1010 650Q986 650 966.5 640.5Q947 631 933.0 615.0Q919 599 910.5 578.0Q902 557 899 535ZM1332 787Q1332 823 1344.5 851.0Q1357 879 1379.0 899.0Q1401 919 1430.5 929.5Q1460 940 1495 940Q1510 940 1525.0 938.0Q1540 936 1554 931V847Q1533 859 1507 859Q1466 859 1449.5 836.0Q1433 813 1433 775V715H1537V635H1434V266H1332V635H1256V715H1332Z" transform="scale(1,-1)"/>
</svg>