<?xml version="1.0" encoding="UTF-8"?>
<svg xmlns="http://www.w3.org/2000/svg" viewBox="128 -1920 1792 1792">
  <path d="M1024 128Q900 128 785.5 160.0Q671 192 571.5 250.5Q472 309 390.5 390.5Q309 472 250.5 571.5Q192 671 160.0 785.5Q128 900 128 1024Q128 1148 160.0 1262.5Q192 1377 250.5 1476.5Q309 1576 390.5 1657.5Q472 1739 571.5 1797.5Q671 1856 785.5 1888.0Q900 1920 1024 1920Q1148 1920 1262.5 1888.0Q1377 1856 1476.5 1797.5Q1576 1739 1657.5 1657.5Q1739 1576 1797.5 1476.5Q1856 1377 1888.0 1262.5Q1920 1148 1920 1024Q1920 900 1888.0 785.5Q1856 671 1797.5 571.5Q1739 472 1657.5 390.5Q1576 309 1476.5 250.5Q1377 192 1262.5 160.0Q1148 128 1024 128ZM1024 1792Q918 1792 820.0 1764.5Q722 1737 636.5 1687.0Q551 1637 481.0 1567.0Q411 1497 361.0 1411.5Q311 1326 283.5 1228.0Q256 1130 256 1024Q256 918 283.5 820.0Q311 722 361.0 636.5Q411 551 481.0 481.0Q551 411 636.5 361.0Q722 311 820.0 283.5Q918 256 1024 256Q1130 256 1228.0 283.5Q1326 311 1411.5 361.0Q1497 411 1567.0 481.0Q1637 551 1687.0 636.5Q1737 722 1764.5 820.0Q1792 918 1792 1024Q1792 1130 1764.5 1228.0Q1737 1326 1687.0 1411.5Q1637 1497 1567.0 1567.0Q1497 1637 1411.5 1687.0Q1326 1737 1228.0 1764.5Q1130 1792 1024 1792ZM1408 960H640V1088H1408Z" transform="scale(1,-1)"/>
</svg>