<?xml version="1.0" encoding="UTF-8"?>
<svg xmlns="http://www.w3.org/2000/svg" viewBox="0 -2048 2048 2024">
  <path d="M1664 960Q1730 960 1788.5 935.0Q1847 910 1890.5 866.5Q1934 823 1959.0 764.5Q1984 706 1984 640Q1984 588 1967.5 539.0Q1951 490 1920 448V24L1664 152L1408 24V448Q1377 490 1360.5 539.0Q1344 588 1344 640Q1344 706 1369.0 764.5Q1394 823 1437.5 866.5Q1481 910 1539.5 935.0Q1598 960 1664 960ZM1664 832Q1624 832 1589.0 817.0Q1554 802 1528.0 776.0Q1502 750 1487.0 715.0Q1472 680 1472 640Q1472 600 1487.0 565.0Q1502 530 1528.0 504.0Q1554 478 1589.0 463.0Q1624 448 1664 448Q1704 448 1739.0 463.0Q1774 478 1800.0 504.0Q1826 530 1841.0 565.0Q1856 600 1856 640Q1856 680 1841.0 715.0Q1826 750 1800.0 776.0Q1774 802 1739.0 817.0Q1704 832 1664 832ZM1792 232V347Q1732 320 1664 320Q1596 320 1536 347V232L1664 296ZM1664 1536Q1611 1536 1564.5 1516.0Q1518 1496 1483.0 1461.0Q1448 1426 1428.0 1379.5Q1408 1333 1408 1280Q1408 1188 1366.5 1106.5Q1325 1025 1251 970Q1270 961 1287.5 950.0Q1305 939 1322 927L1247 823Q1198 858 1141.0 877.0Q1084 896 1024 896Q944 896 874.5 866.0Q805 836 752.5 783.5Q700 731 670.0 661.0Q640 591 640 512H512Q512 585 532.0 653.5Q552 722 589.0 781.5Q626 841 678.5 889.5Q731 938 796 971Q722 1026 681.0 1107.0Q640 1188 640 1280Q640 1333 620.0 1379.5Q600 1426 565.0 1461.0Q530 1496 483.5 1516.0Q437 1536 384 1536Q331 1536 284.5 1516.0Q238 1496 203.0 1461.0Q168 1426 148.0 1379.5Q128 1333 128 1280H0Q0 1332 14.0 1381.5Q28 1431 53.5 1474.5Q79 1518 115.5 1554.0Q152 1590 198 1616Q165 1651 146.5 1697.0Q128 1743 128 1792Q128 1845 148.0 1891.5Q168 1938 203.0 1973.0Q238 2008 284.5 2028.0Q331 2048 384 2048Q437 2048 483.5 2028.0Q530 2008 565.0 1973.0Q600 1938 620.0 1891.5Q640 1845 640 1792Q640 1743 621.5 1697.0Q603 1651 570 1616Q652 1571 704 1492Q731 1532 766.0 1564.0Q801 1596 842.0 1618.0Q883 1640 929.5 1652.0Q976 1664 1024 1664Q1072 1664 1118.0 1652.0Q1164 1640 1205.5 1618.0Q1247 1596 1282.0 1564.0Q1317 1532 1344 1492Q1396 1571 1478 1616Q1445 1651 1426.5 1697.0Q1408 1743 1408 1792Q1408 1845 1428.0 1891.5Q1448 1938 1483.0 1973.0Q1518 2008 1564.5 2028.0Q1611 2048 1664 2048Q1717 2048 1763.5 2028.0Q1810 2008 1845.0 1973.0Q1880 1938 1900.0 1891.5Q1920 1845 1920 1792Q1920 1743 1901.5 1697.0Q1883 1651 1850 1616Q1896 1590 1932.5 1554.0Q1969 1518 1994.5 1474.5Q2020 1431 2034.0 1381.5Q2048 1332 2048 1280H1920Q1920 1333 1900.0 1379.5Q1880 1426 1845.0 1461.0Q1810 1496 1763.5 1516.0Q1717 1536 1664 1536ZM1536 1792Q1536 1765 1546.0 1742.0Q1556 1719 1573.5 1701.5Q1591 1684 1614.0 1674.0Q1637 1664 1664 1664Q1691 1664 1714.0 1674.0Q1737 1684 1754.5 1701.5Q1772 1719 1782.0 1742.0Q1792 1765 1792 1792Q1792 1819 1782.0 1842.0Q1772 1865 1754.5 1882.5Q1737 1900 1714.0 1910.0Q1691 1920 1664 1920Q1637 1920 1614.0 1910.0Q1591 1900 1573.5 1882.5Q1556 1865 1546.0 1842.0Q1536 1819 1536 1792ZM256 1792Q256 1765 266.0 1742.0Q276 1719 293.5 1701.5Q311 1684 334.0 1674.0Q357 1664 384 1664Q411 1664 434.0 1674.0Q457 1684 474.5 1701.5Q492 1719 502.0 1742.0Q512 1765 512 1792Q512 1819 502.0 1842.0Q492 1865 474.5 1882.5Q457 1900 434.0 1910.0Q411 1920 384 1920Q357 1920 334.0 1910.0Q311 1900 293.5 1882.5Q276 1865 266.0 1842.0Q256 1819 256 1792ZM768 1280Q768 1227 788.0 1180.5Q808 1134 843.0 1099.0Q878 1064 924.5 1044.0Q971 1024 1024 1024Q1077 1024 1123.5 1044.0Q1170 1064 1205.0 1099.0Q1240 1134 1260.0 1180.5Q1280 1227 1280 1280Q1280 1333 1260.0 1379.5Q1240 1426 1205.0 1461.0Q1170 1496 1123.5 1516.0Q1077 1536 1024 1536Q971 1536 924.5 1516.0Q878 1496 843.0 1461.0Q808 1426 788.0 1379.5Q768 1333 768 1280Z" transform="scale(1,-1)"/>
</svg>