<?xml version="1.0" encoding="UTF-8"?>
<svg xmlns="http://www.w3.org/2000/svg" viewBox="0 -2048 2048 2048">
  <path d="M1536 1536H2048V0H512V512H0V2048H1536ZM640 561V335L847 128H1073ZM128 1231 1231 128H1457L128 1457ZM128 1615 1615 128H1841L128 1841ZM1920 207V433L433 1920H207ZM591 1920 1920 591V817L817 1920ZM1408 1487V1713L1201 1920H975ZM1920 1359V1408H1871ZM1713 1408H1487L1920 975V1201ZM1408 1871V1920H1359ZM128 689V640H177ZM335 640H561L128 1073V847ZM640 177V128H689Z" transform="scale(1,-1)"/>
</svg>