<?xml version="1.0" encoding="UTF-8"?>
<svg xmlns="http://www.w3.org/2000/svg" viewBox="384 -1920 1280 1920">
  <path d="M1011 256Q850 256 737.0 302.5Q624 349 552.5 435.5Q481 522 448.0 644.5Q415 767 415 919V1920H607V932Q607 823 628.5 731.0Q650 639 699.5 571.5Q749 504 830.0 466.0Q911 428 1031 428Q1146 428 1224.5 464.5Q1303 501 1351.0 565.5Q1399 630 1420.0 719.5Q1441 809 1441 914V1920H1633V945Q1633 787 1598.5 659.5Q1564 532 1489.5 442.5Q1415 353 1297.0 304.5Q1179 256 1011 256ZM384 128H1664V0H384Z" transform="scale(1,-1)"/>
</svg>