<?xml version="1.0" encoding="UTF-8"?>
<svg xmlns="http://www.w3.org/2000/svg" viewBox="5 -1924 2038 1920">
  <path d="M1023 1412Q1105 1412 1175.0 1382.5Q1245 1353 1296.5 1301.5Q1348 1250 1377.5 1180.0Q1407 1110 1407 1028Q1407 946 1377.5 876.0Q1348 806 1296.5 754.5Q1245 703 1175.0 673.5Q1105 644 1023 644Q941 644 871.0 673.5Q801 703 749.5 754.5Q698 806 668.5 876.0Q639 946 639 1028Q639 1110 668.5 1180.0Q698 1250 749.5 1301.5Q801 1353 871.0 1382.5Q941 1412 1023 1412ZM1023 772Q1076 772 1122.5 792.0Q1169 812 1204.0 847.0Q1239 882 1259.0 928.5Q1279 975 1279 1028Q1279 1081 1259.0 1127.5Q1239 1174 1204.0 1209.0Q1169 1244 1122.5 1264.0Q1076 1284 1023 1284Q970 1284 923.5 1264.0Q877 1244 842.0 1209.0Q807 1174 787.0 1127.5Q767 1081 767 1028Q767 975 787.0 928.5Q807 882 842.0 847.0Q877 812 923.5 792.0Q970 772 1023 772ZM2043 1012Q2043 1008 2042.0 997.0Q2041 986 2040.0 974.0Q2039 962 2037.0 951.5Q2035 941 2034 938L1689 324Q1669 287 1636.5 267.0Q1604 247 1561 247Q1527 247 1501.0 262.5Q1475 278 1454.0 301.0Q1433 324 1415.0 351.0Q1397 378 1381 401L1151 68Q1142 55 1127.0 43.5Q1112 32 1094.0 23.0Q1076 14 1057.5 9.0Q1039 4 1023 4Q1008 4 989.0 9.0Q970 14 952.0 23.0Q934 32 919.0 43.5Q904 55 895 68L665 414Q647 389 630.0 362.0Q613 335 592.5 312.5Q572 290 546.0 275.0Q520 260 485 260Q454 260 425.0 273.0Q396 286 379 314Q376 319 374.5 325.5Q373 332 370 337L25 951Q15 968 10.0 988.0Q5 1008 5 1028Q5 1048 10.0 1068.0Q15 1088 25 1105L434 1847Q454 1884 487.0 1904.0Q520 1924 562 1924H1484Q1526 1924 1559.0 1904.0Q1592 1884 1612 1847L2021 1105Q2032 1084 2037.5 1060.0Q2043 1036 2043 1012ZM1036 145 1458 772Q1496 828 1514.5 894.5Q1533 961 1533 1027Q1533 1085 1517.5 1146.0Q1502 1207 1474.0 1263.5Q1446 1320 1406.0 1368.5Q1366 1417 1317 1450Q1288 1469 1251.5 1485.5Q1215 1502 1176.0 1514.0Q1137 1526 1097.0 1533.0Q1057 1540 1023 1540Q988 1540 948.5 1533.0Q909 1526 870.0 1514.0Q831 1502 794.0 1485.5Q757 1469 729 1450Q679 1416 639.5 1367.5Q600 1319 571.5 1262.0Q543 1205 528.0 1144.0Q513 1083 513 1024Q513 992 518.0 956.5Q523 921 532.5 886.0Q542 851 556.0 818.5Q570 786 588 759L1010 145Q1010 143 1009.5 142.0Q1009 141 1009 140Q1009 134 1012.5 133.0Q1016 132 1023 132Q1029 132 1032.5 133.0Q1036 134 1036 140ZM1919 1015V1041L1509 1783Q1501 1796 1484 1796H562Q545 1796 537 1783L127 1041V1015L485 388Q485 386 484.5 385.0Q484 384 484 383Q484 377 487.5 376.0Q491 375 498 375Q503 375 507.0 378.5Q511 382 511 387V388L601 516Q569 561 537.0 605.5Q505 650 473 695Q450 727 432.5 770.0Q415 813 403.0 859.0Q391 905 384.5 951.0Q378 997 378 1036Q378 1125 401.5 1206.0Q425 1287 467.5 1357.5Q510 1428 569.5 1485.0Q629 1542 700.5 1583.0Q772 1624 854.0 1646.0Q936 1668 1023 1668Q1067 1668 1116.5 1661.0Q1166 1654 1215.5 1641.0Q1265 1628 1311.0 1609.0Q1357 1590 1394 1566Q1458 1525 1509.0 1467.0Q1560 1409 1595.0 1341.5Q1630 1274 1649.0 1199.0Q1668 1124 1668 1049Q1668 967 1651.5 900.5Q1635 834 1606.5 774.0Q1578 714 1540.0 655.0Q1502 596 1458 529L1548 401Q1548 399 1547.5 398.0Q1547 397 1547 396Q1547 390 1550.5 389.0Q1554 388 1561 388Q1573 388 1573 401Z" transform="scale(1,-1)"/>
</svg>