<?xml version="1.0" encoding="UTF-8"?>
<svg xmlns="http://www.w3.org/2000/svg" viewBox="0 -2050 2048 1858">
  <path d="M1920 1472Q1929 1473 1946.0 1473.5Q1963 1474 1982.5 1473.5Q2002 1473 2019.5 1472.5Q2037 1472 2048 1472V320Q2037 320 2017.5 319.5Q1998 319 1977.0 319.0Q1956 319 1937.0 319.0Q1918 319 1909 321L1146 457Q1136 400 1107.5 351.0Q1079 302 1037.0 267.0Q995 232 942.5 212.0Q890 192 832 192Q766 192 707.5 217.0Q649 242 605.5 285.5Q562 329 537.0 387.5Q512 446 512 512Q512 540 518 569L254 616Q235 620 219.0 623.0Q203 626 188.0 629.0Q173 632 157.0 634.5Q141 637 122 640Q110 641 94.5 641.5Q79 642 62.0 641.5Q45 641 28.5 640.5Q12 640 0 640V1152Q10 1152 27.0 1151.5Q44 1151 62.5 1150.5Q81 1150 97.0 1150.0Q113 1150 122 1152ZM832 320Q867 320 899.0 332.0Q931 344 956.0 365.5Q981 387 998.0 416.0Q1015 445 1021 480L643 547Q640 529 640 512Q640 472 655.0 437.0Q670 402 696.0 376.0Q722 350 757.0 335.0Q792 320 832 320ZM1920 1343 128 1024V768Q135 768 139 767L1920 449ZM320 1669Q280 1669 245.0 1654.0Q210 1639 184.0 1613.0Q158 1587 143.0 1552.0Q128 1517 128 1477H0Q0 1543 25.0 1601.0Q50 1659 93.5 1702.5Q137 1746 195.5 1771.5Q254 1797 320 1797H677L515 1960L605 2050L922 1733L605 1416L515 1506L677 1669Z" transform="scale(1,-1)"/>
</svg>