<?xml version="1.0" encoding="UTF-8"?>
<svg xmlns="http://www.w3.org/2000/svg" viewBox="0 -2048 2048 2048">
  <path d="M960 1408Q937 1408 915 1411L328 824Q302 798 266.0 783.0Q230 768 192 768Q152 768 117.0 783.0Q82 798 56.0 824.0Q30 850 15.0 885.0Q0 920 0 960Q0 998 15.0 1034.0Q30 1070 56 1096L643 1683Q640 1705 640 1728Q640 1794 665.0 1852.5Q690 1911 733.5 1954.5Q777 1998 835.5 2023.0Q894 2048 960 2048Q1026 2048 1084.0 2022.5Q1142 1997 1185.5 1953.5Q1229 1910 1254.5 1852.0Q1280 1794 1280 1728Q1280 1662 1255.0 1603.5Q1230 1545 1186.5 1501.5Q1143 1458 1084.5 1433.0Q1026 1408 960 1408ZM878 1555Q919 1536 960 1536Q1000 1536 1035.0 1551.0Q1070 1566 1096.0 1592.0Q1122 1618 1137.0 1653.0Q1152 1688 1152 1728Q1152 1769 1133 1810L987 1664H896V1755L1042 1901Q1001 1920 960 1920Q920 1920 885.0 1905.0Q850 1890 824.0 1864.0Q798 1838 783.0 1803.0Q768 1768 768 1728Q768 1687 787 1646L147 1005Q128 986 128 960Q128 934 147.0 915.0Q166 896 192 896Q218 896 237 915ZM1408 640H2048V0H1408V256H1085L1021 320L1085 384H1408ZM1920 128V512H1536V128ZM1021 546 795 320 1021 93 931 3 704 229 477 2 387 93 614 320 387 547 477 637 704 410 931 637ZM704 636 640 700V910L768 1038V700Z" transform="scale(1,-1)"/>
</svg>