<?xml version="1.0" encoding="UTF-8"?>
<svg xmlns="http://www.w3.org/2000/svg" viewBox="128 -2048 1792 2048">
  <path d="M1920 1536H1800L1351 640H1279Q1278 612 1275.5 569.5Q1273 527 1267.5 476.5Q1262 426 1252.5 371.5Q1243 317 1229.5 264.0Q1216 211 1197.0 163.0Q1178 115 1153.0 79.0Q1128 43 1096.0 21.5Q1064 0 1024 0Q971 0 932.0 37.0Q893 74 865.0 132.5Q837 191 818.5 263.5Q800 336 789.5 407.5Q779 479 774.5 540.5Q770 602 769 640H697L248 1536H128V2048H256V1664H1792V2048H1920ZM1024 128Q1047 140 1065.0 175.5Q1083 211 1097.0 260.0Q1111 309 1120.5 365.0Q1130 421 1136.5 474.0Q1143 527 1146.5 571.0Q1150 615 1151 640H897Q898 615 901.5 571.0Q905 527 911.5 474.0Q918 421 927.5 365.0Q937 309 951.0 260.0Q965 211 983.0 175.5Q1001 140 1024 128ZM1656 1536H392L776 768H1272Z" transform="scale(1,-1)"/>
</svg>