<?xml version="1.0" encoding="UTF-8"?>
<svg xmlns="http://www.w3.org/2000/svg" viewBox="64 -2048 1856 2048">
  <path d="M1792 2048Q1819 2048 1842.0 2038.0Q1865 2028 1882.5 2010.5Q1900 1993 1910.0 1970.0Q1920 1947 1920 1920V1440Q1920 1395 1910.5 1362.5Q1901 1330 1887.0 1305.0Q1873 1280 1856.0 1260.0Q1839 1240 1825.0 1219.5Q1811 1199 1801.5 1175.5Q1792 1152 1792 1120V0H768V128H1664V1120Q1664 1150 1654.5 1173.5Q1645 1197 1631.0 1218.0Q1617 1239 1600.0 1259.0Q1583 1279 1569.0 1302.5Q1555 1326 1545.5 1354.0Q1536 1382 1536 1420V1920H384V1152H256V2048ZM1792 1920H1664V1440Q1664 1416 1668.5 1398.0Q1673 1380 1681.5 1364.0Q1690 1348 1702.0 1333.5Q1714 1319 1728 1302Q1742 1319 1754.0 1333.5Q1766 1348 1774.5 1364.0Q1783 1380 1787.5 1398.0Q1792 1416 1792 1440ZM384 1024Q450 1024 508.0 998.5Q566 973 609.5 929.5Q653 886 678.5 828.0Q704 770 704 704Q704 653 687.5 604.0Q671 555 640 514V0L384 128L128 0V514Q97 555 80.5 604.0Q64 653 64 704Q64 770 89.0 828.0Q114 886 157.5 929.5Q201 973 259.5 998.5Q318 1024 384 1024ZM512 411Q452 384 384 384Q316 384 256 411V207Q288 223 320.0 238.5Q352 254 384 271Q416 254 448.0 238.5Q480 223 512 207ZM384 512Q424 512 459.0 527.0Q494 542 520.0 568.0Q546 594 561.0 629.0Q576 664 576 704Q576 744 561.0 779.0Q546 814 520.0 840.0Q494 866 459.0 881.0Q424 896 384 896Q344 896 309.0 881.0Q274 866 248.0 840.0Q222 814 207.0 779.0Q192 744 192 704Q192 664 207.0 629.0Q222 594 248.0 568.0Q274 542 309.0 527.0Q344 512 384 512Z" transform="scale(1,-1)"/>
</svg>