<?xml version="1.0" encoding="UTF-8"?>
<svg xmlns="http://www.w3.org/2000/svg" viewBox="0 -1792 1920 1408">
  <path d="M256 1280V1408H896V1280ZM1536 1152V1024H897V1152ZM1280 768V896H1792V768ZM0 1408V1536H128V1408ZM0 1152V1280H128V1152ZM0 896V1024H128V896ZM0 640V768H128V640ZM1793 896V1024H1920V896ZM1793 640V768H1920V640ZM1793 1152V1280H1920V1152ZM1793 1408V1536H1920V1408ZM640 1792V1664H512V1792ZM384 1792V1664H256V1792ZM0 1664V1792H128V1664ZM1664 1792V1664H1536V1792ZM1792 1792H1920V1664H1792ZM1408 1664H1407H1280V1792H1408ZM1152 1792V1664H1024V1792ZM768 1664V1792H896V1664ZM768 384V511H896V384ZM1280 512 1407 511H1408V384H1280V511ZM1536 384V511H1664V384ZM1024 384V511H1152V384ZM512 384V511H640V384ZM1792 384V511H1920V384ZM0 384V512H128V511V384ZM256 384V511H384V384Z" transform="scale(1,-1)"/>
</svg>