<?xml version="1.0" encoding="UTF-8"?>
<svg xmlns="http://www.w3.org/2000/svg" viewBox="256 -2048 1536 2048">
  <path d="M1792 1152V0H256V1152H1408V1536Q1408 1618 1378.5 1688.0Q1349 1758 1297.5 1809.5Q1246 1861 1176.0 1890.5Q1106 1920 1024 1920Q942 1920 872.0 1890.5Q802 1861 750.5 1809.5Q699 1758 669.5 1688.0Q640 1618 640 1536H512Q512 1645 551.0 1738.5Q590 1832 659.0 1901.0Q728 1970 821.5 2009.0Q915 2048 1024 2048Q1133 2048 1226.5 2009.0Q1320 1970 1389.0 1901.0Q1458 1832 1497.0 1738.5Q1536 1645 1536 1536V1152ZM1664 1024H384V128H1664Z" transform="scale(1,-1)"/>
</svg>