<?xml version="1.0" encoding="UTF-8"?>
<svg xmlns="http://www.w3.org/2000/svg" viewBox="0 -1664 2048 1664">
  <path d="M1088 768Q1048 768 1013.0 753.0Q978 738 952.0 712.0Q926 686 911.0 651.0Q896 616 896 576Q896 544 906.0 515.5Q916 487 933.5 463.0Q951 439 976.0 421.0Q1001 403 1031 393Q1028 375 1026.0 356.5Q1024 338 1024 320Q1024 306 1026.0 291.0Q1028 276 1030 262Q973 272 925.0 300.5Q877 329 842.0 371.0Q807 413 787.5 465.5Q768 518 768 576Q768 642 793.0 700.0Q818 758 861.5 801.5Q905 845 963.5 870.5Q1022 896 1088 896H1344Q1410 896 1468.0 870.5Q1526 845 1569.5 801.5Q1613 758 1638.5 700.0Q1664 642 1664 576Q1664 519 1645.0 467.0Q1626 415 1592.0 373.5Q1558 332 1511.0 303.0Q1464 274 1408 263V396Q1436 406 1460.0 424.0Q1484 442 1500.5 465.5Q1517 489 1526.5 517.5Q1536 546 1536 576Q1536 616 1521.0 651.0Q1506 686 1480.0 712.0Q1454 738 1419.0 753.0Q1384 768 1344 768ZM1786 639Q1843 628 1891.0 599.0Q1939 570 1974.0 528.0Q2009 486 2028.5 433.5Q2048 381 2048 323Q2048 257 2023.0 198.5Q1998 140 1954.5 95.5Q1911 51 1852.5 25.5Q1794 0 1728 0H1472Q1406 0 1347.5 25.5Q1289 51 1245.5 95.5Q1202 140 1177.0 198.5Q1152 257 1152 323Q1152 380 1171.0 432.0Q1190 484 1224.0 526.5Q1258 569 1305.0 598.5Q1352 628 1408 639V506Q1379 496 1355.5 477.5Q1332 459 1315.5 434.5Q1299 410 1289.5 381.5Q1280 353 1280 323Q1280 284 1295.0 248.5Q1310 213 1336.0 186.0Q1362 159 1397.0 143.5Q1432 128 1472 128H1728Q1768 128 1803.0 143.5Q1838 159 1864.0 186.0Q1890 213 1905.0 248.5Q1920 284 1920 323Q1920 354 1910.0 383.5Q1900 413 1882.5 437.5Q1865 462 1840.0 480.5Q1815 499 1785 508Q1788 526 1790.0 544.5Q1792 563 1792 581Q1792 595 1790.0 610.0Q1788 625 1786 639ZM2048 1664V636Q2020 665 1988.0 688.5Q1956 712 1920 729V1465L1024 1016L128 1465V512H646Q651 479 661.0 446.5Q671 414 685 384H0V1664ZM1024 1160 1777 1536H271Z" transform="scale(1,-1)"/>
</svg>