<?xml version="1.0" encoding="UTF-8"?>
<svg xmlns="http://www.w3.org/2000/svg" viewBox="0 -1792 2048 1536">
  <path d="M1888 1792Q1921 1792 1950.0 1779.5Q1979 1767 2001.0 1745.0Q2023 1723 2035.5 1694.0Q2048 1665 2048 1632V416Q2048 383 2035.5 354.0Q2023 325 2001.0 303.0Q1979 281 1950.0 268.5Q1921 256 1888 256H160Q127 256 98.0 268.5Q69 281 47.0 303.0Q25 325 12.5 354.0Q0 383 0 416V1632Q0 1665 12.5 1694.0Q25 1723 47.0 1745.0Q69 1767 98.0 1779.5Q127 1792 160 1792ZM1920 416V1632Q1920 1646 1911.0 1655.0Q1902 1664 1888 1664H160Q146 1664 137.0 1655.0Q128 1646 128 1632V416Q128 402 137.0 393.0Q146 384 160 384H1888Q1902 384 1911.0 393.0Q1920 402 1920 416ZM896 512V640H1152V512Z" transform="scale(1,-1)"/>
</svg>