<?xml version="1.0" encoding="UTF-8"?>
<svg xmlns="http://www.w3.org/2000/svg" viewBox="0 -2048 2048 2048">
  <path d="M384 1536H2048V0H384V1536ZM896 128V384H512V128H896ZM896 512V768H512V512H896ZM896 896V1152H512V896H896ZM1408 128V384H1024V128H1408ZM1408 512V768H1024V512H1408ZM1408 896V1152H1024V896H1408ZM1920 128V384H1536V128H1920ZM1920 512V768H1536V512H1920ZM1920 896V1152H1536V896H1920ZM1920 1280V1408H512V1280H1920ZM128 1664V1408H256V1280H128V1024H256V896H128V640H256V512H0V2048H1664V1664H128ZM128 1920V1792H1536V1920H128Z" transform="scale(1,-1)"/>
</svg>