<?xml version="1.0" encoding="UTF-8"?>
<svg xmlns="http://www.w3.org/2000/svg" viewBox="26 -1783 1996 1390">
  <path d="M465 1783Q555 1783 620.0 1751.0Q685 1719 730.0 1665.5Q775 1612 802.5 1541.5Q830 1471 845.0 1394.5Q860 1318 865.0 1240.5Q870 1163 870 1094Q870 1023 863.0 943.5Q856 864 838.0 786.5Q820 709 789.5 637.5Q759 566 710.5 512.0Q662 458 594.5 425.5Q527 393 436 393Q350 393 286.0 424.0Q222 455 176.5 506.5Q131 558 101.5 626.0Q72 694 55.5 768.5Q39 843 32.5 918.0Q26 993 26 1060Q26 1133 32.0 1215.0Q38 1297 55.0 1377.5Q72 1458 102.5 1531.5Q133 1605 182.0 1661.0Q231 1717 300.5 1750.0Q370 1783 465 1783ZM449 498Q516 498 564.5 527.5Q613 557 646.0 605.5Q679 654 699.0 716.0Q719 778 729.5 843.0Q740 908 743.0 969.5Q746 1031 746 1080Q746 1128 743.5 1190.5Q741 1253 731.5 1319.5Q722 1386 703.5 1450.5Q685 1515 653.0 1565.5Q621 1616 573.0 1647.0Q525 1678 457 1678Q386 1678 336.0 1647.0Q286 1616 252.0 1565.5Q218 1515 197.5 1450.0Q177 1385 166.5 1317.5Q156 1250 153.0 1185.5Q150 1121 150 1070Q150 1020 153.0 958.5Q156 897 166.5 833.5Q177 770 196.5 709.5Q216 649 249.5 602.0Q283 555 331.5 526.5Q380 498 449 498ZM1023 614Q1067 614 1096.5 584.5Q1126 555 1126 511Q1126 490 1118.0 471.5Q1110 453 1095.5 439.5Q1081 426 1062.5 418.0Q1044 410 1023 410Q979 410 950.5 438.5Q922 467 922 511Q922 555 950.0 584.5Q978 614 1023 614ZM1617 1783Q1707 1783 1772.0 1751.0Q1837 1719 1882.0 1665.5Q1927 1612 1954.5 1541.5Q1982 1471 1997.0 1394.5Q2012 1318 2017.0 1240.5Q2022 1163 2022 1094Q2022 1023 2015.0 943.5Q2008 864 1990.0 786.5Q1972 709 1941.5 637.5Q1911 566 1862.5 512.0Q1814 458 1746.5 425.5Q1679 393 1588 393Q1502 393 1438.0 424.0Q1374 455 1328.5 506.5Q1283 558 1253.5 626.0Q1224 694 1207.5 768.5Q1191 843 1184.5 918.0Q1178 993 1178 1060Q1178 1133 1184.0 1215.0Q1190 1297 1207.0 1377.5Q1224 1458 1254.5 1531.5Q1285 1605 1334.0 1661.0Q1383 1717 1452.5 1750.0Q1522 1783 1617 1783ZM1601 498Q1668 498 1716.5 527.5Q1765 557 1798.0 605.5Q1831 654 1851.0 716.0Q1871 778 1881.5 843.0Q1892 908 1895.0 969.5Q1898 1031 1898 1080Q1898 1128 1895.5 1190.5Q1893 1253 1883.5 1319.5Q1874 1386 1855.5 1450.5Q1837 1515 1805.0 1565.5Q1773 1616 1725.0 1647.0Q1677 1678 1609 1678Q1538 1678 1488.0 1647.0Q1438 1616 1404.0 1565.5Q1370 1515 1349.5 1450.0Q1329 1385 1318.5 1317.5Q1308 1250 1305.0 1185.5Q1302 1121 1302 1070Q1302 1020 1305.0 958.5Q1308 897 1318.5 833.5Q1329 770 1348.5 709.5Q1368 649 1401.5 602.0Q1435 555 1483.5 526.5Q1532 498 1601 498Z" transform="scale(1,-1)"/>
</svg>