<?xml version="1.0" encoding="UTF-8"?>
<svg xmlns="http://www.w3.org/2000/svg" viewBox="0 -2048 2048 2048">
  <path d="M2048 1024Q2048 882 2011.5 751.5Q1975 621 1908.5 507.0Q1842 393 1748.5 299.5Q1655 206 1541.0 139.5Q1427 73 1296.0 36.5Q1165 0 1024 0Q882 0 751.5 36.5Q621 73 507.0 139.5Q393 206 299.5 299.5Q206 393 139.5 507.0Q73 621 36.5 752.0Q0 883 0 1024Q0 1165 36.5 1296.0Q73 1427 139.5 1541.0Q206 1655 299.5 1748.5Q393 1842 507.0 1908.5Q621 1975 752.0 2011.5Q883 2048 1024 2048Q1165 2048 1296.0 2011.5Q1427 1975 1541.0 1908.5Q1655 1842 1748.5 1748.5Q1842 1655 1908.5 1541.0Q1975 1427 2011.5 1296.0Q2048 1165 2048 1024ZM1701 1610 438 347Q528 269 637 216L1832 1411Q1779 1520 1701 1610ZM1280 1883Q1157 1920 1024 1920Q1014 1920 1005.0 1920.0Q996 1920 986 1919L129 1062Q128 1052 128.0 1043.0Q128 1034 128 1024Q128 891 165 768ZM768 1883Q660 1851 564.0 1793.5Q468 1736 390.0 1658.0Q312 1580 254.5 1484.0Q197 1388 165 1280ZM216 637Q269 528 347 438L1610 1701Q1520 1779 1411 1832ZM768 165Q891 128 1024 128Q1034 128 1043.0 128.0Q1052 128 1062 129L1919 986Q1920 996 1920.0 1005.0Q1920 1014 1920 1024Q1920 1157 1883 1280ZM1280 165Q1388 197 1484.0 254.5Q1580 312 1658.0 390.0Q1736 468 1793.5 564.0Q1851 660 1883 768Z" transform="scale(1,-1)"/>
</svg>