<?xml version="1.0" encoding="UTF-8"?>
<svg xmlns="http://www.w3.org/2000/svg" viewBox="0 -2048 2048 2048">
  <path d="M1920 1280Q1946 1280 1969.5 1270.0Q1993 1260 2010.5 1242.5Q2028 1225 2038.0 1201.5Q2048 1178 2048 1152V256H1536V0H512V256H0V1152Q0 1178 10.0 1201.5Q20 1225 37.5 1242.5Q55 1260 78.5 1270.0Q102 1280 128 1280H512V2048H1536V1280ZM640 1280H1408V1920H640ZM1408 640H640V128H1408ZM1920 1152H128V384H512V768H1536V384H1920ZM320 1024Q346 1024 365.0 1005.0Q384 986 384 960Q384 934 365.0 915.0Q346 896 320 896Q294 896 275.0 915.0Q256 934 256 960Q256 986 275.0 1005.0Q294 1024 320 1024Z" transform="scale(1,-1)"/>
</svg>