<?xml version="1.0" encoding="UTF-8"?>
<svg xmlns="http://www.w3.org/2000/svg" viewBox="128 -1920 1920 1920">
  <path d="M1024 1792Q886 1792 761.0 1745.5Q636 1699 535.5 1616.5Q435 1534 365.5 1420.0Q296 1306 270 1171L144 1196Q175 1353 256.0 1486.0Q337 1619 454.5 1715.5Q572 1812 718.0 1866.0Q864 1920 1024 1920Q1141 1920 1253.0 1889.5Q1365 1859 1464.5 1803.0Q1564 1747 1647.5 1666.5Q1731 1586 1792 1486V1792H1920V1280H1408V1408H1689Q1638 1496 1566.0 1567.5Q1494 1639 1407.5 1688.5Q1321 1738 1223.5 1765.0Q1126 1792 1024 1792ZM359 640Q432 512 547.0 421.5Q662 331 803 289L772 165Q610 212 477.0 314.5Q344 417 256 562V256H128V768H640V640ZM2048 954Q2048 915 2033.0 878.0Q2018 841 1990 813L1273 94L896 0L990 377L1707 1095Q1735 1123 1772.0 1137.5Q1809 1152 1848 1152Q1890 1152 1926.5 1137.0Q1963 1122 1990.0 1095.0Q2017 1068 2032.5 1032.0Q2048 996 2048 954ZM1920 954Q1920 985 1899.5 1004.5Q1879 1024 1848 1024Q1834 1024 1821.0 1019.5Q1808 1015 1798 1005L1106 311L1072 176L1207 210L1899 903Q1920 924 1920 954Z" transform="scale(1,-1)"/>
</svg>