<?xml version="1.0" encoding="UTF-8"?>
<svg xmlns="http://www.w3.org/2000/svg" viewBox="0 -2048 2048 2048">
  <path d="M1777 1461Q1847 1348 1883.5 1221.0Q1920 1094 1920 960Q1920 828 1885.5 705.5Q1851 583 1788.5 476.0Q1726 369 1638.5 281.5Q1551 194 1444.0 131.5Q1337 69 1214.5 34.5Q1092 0 960 0Q828 0 705.5 34.5Q583 69 476.0 131.5Q369 194 281.5 281.5Q194 369 131.5 476.0Q69 583 34.5 705.5Q0 828 0 960Q0 1092 34.5 1214.5Q69 1337 131.5 1444.0Q194 1551 281.5 1638.5Q369 1726 476.0 1788.5Q583 1851 705.5 1885.5Q828 1920 960 1920Q1094 1920 1221.0 1883.5Q1348 1847 1461 1777L1368 1684Q1274 1738 1171.0 1765.0Q1068 1792 960 1792Q845 1792 739.0 1762.0Q633 1732 540.5 1678.0Q448 1624 372.0 1548.0Q296 1472 242.0 1379.5Q188 1287 158.0 1181.0Q128 1075 128 960Q128 845 158.0 739.0Q188 633 242.0 540.5Q296 448 372.0 372.0Q448 296 540.5 242.0Q633 188 739.0 158.0Q845 128 960 128Q1075 128 1181.0 158.0Q1287 188 1379.5 242.0Q1472 296 1548.0 372.0Q1624 448 1678.0 540.5Q1732 633 1762.0 739.0Q1792 845 1792 960Q1792 1068 1765.0 1171.0Q1738 1274 1684 1368ZM2048 2048V1536H1920V1829L768 677L454 991L545 1082L768 859L1829 1920H1536V2048Z" transform="scale(1,-1)"/>
</svg>