<?xml version="1.0" encoding="UTF-8"?>
<svg xmlns="http://www.w3.org/2000/svg" viewBox="128 -2048 1920 2048">
  <path d="M1357 997Q1337 971 1323.0 941.5Q1309 912 1299 880Q1213 950 1110.0 987.0Q1007 1024 896 1024Q808 1024 726.0 1001.0Q644 978 573.0 936.5Q502 895 443.5 836.5Q385 778 343.5 707.0Q302 636 279.0 554.0Q256 472 256 384H128Q128 504 163.5 615.0Q199 726 264.0 820.0Q329 914 420.5 987.0Q512 1060 624 1102Q568 1137 523.5 1184.5Q479 1232 448.0 1288.0Q417 1344 400.5 1407.0Q384 1470 384 1536Q384 1642 424.5 1735.0Q465 1828 534.5 1897.5Q604 1967 697.0 2007.5Q790 2048 896 2048Q1002 2048 1095.0 2007.5Q1188 1967 1257.5 1897.5Q1327 1828 1367.5 1735.0Q1408 1642 1408 1536Q1408 1470 1391.5 1407.0Q1375 1344 1344.0 1288.0Q1313 1232 1268.0 1184.5Q1223 1137 1167 1102Q1271 1062 1357 997ZM512 1536Q512 1456 542.0 1386.5Q572 1317 624.5 1264.5Q677 1212 746.5 1182.0Q816 1152 896 1152Q975 1152 1045.0 1182.0Q1115 1212 1167.5 1264.5Q1220 1317 1250.0 1386.5Q1280 1456 1280 1536Q1280 1615 1250.0 1685.0Q1220 1755 1167.5 1807.5Q1115 1860 1045.0 1890.0Q975 1920 896 1920Q816 1920 746.5 1890.0Q677 1860 624.5 1807.5Q572 1755 542.0 1685.0Q512 1615 512 1536ZM2048 640V0H1280V640H1408V768Q1408 821 1428.0 867.5Q1448 914 1483.0 949.0Q1518 984 1564.5 1004.0Q1611 1024 1664 1024Q1717 1024 1763.5 1004.0Q1810 984 1845.0 949.0Q1880 914 1900.0 867.5Q1920 821 1920 768V640ZM1536 640H1792V768Q1792 795 1782.0 818.0Q1772 841 1754.5 858.5Q1737 876 1714.0 886.0Q1691 896 1664 896Q1637 896 1614.0 886.0Q1591 876 1573.5 858.5Q1556 841 1546.0 818.0Q1536 795 1536 768ZM1920 512H1408V128H1920Z" transform="scale(1,-1)"/>
</svg>