<?xml version="1.0" encoding="UTF-8"?>
<svg xmlns="http://www.w3.org/2000/svg" viewBox="0 -2048 2048 2048">
  <path d="M1536 640H1728V512H1408V896H1536ZM1280 1536H256V1664H1280ZM1472 1152Q1591 1152 1696.0 1106.5Q1801 1061 1879.0 983.0Q1957 905 2002.5 800.0Q2048 695 2048 576Q2048 457 2002.5 352.0Q1957 247 1879.0 169.0Q1801 91 1696.0 45.5Q1591 0 1472 0Q1353 0 1248.0 45.5Q1143 91 1065.0 169.0Q987 247 941.5 352.0Q896 457 896 576Q896 695 941.5 800.0Q987 905 1065.0 983.0Q1143 1061 1248.0 1106.5Q1353 1152 1472 1152ZM1472 128Q1565 128 1646.5 163.5Q1728 199 1788.5 259.5Q1849 320 1884.5 401.5Q1920 483 1920 576Q1920 669 1884.5 750.5Q1849 832 1788.5 892.5Q1728 953 1646.5 988.5Q1565 1024 1472 1024Q1379 1024 1297.5 988.5Q1216 953 1155.5 892.5Q1095 832 1059.5 750.5Q1024 669 1024 576Q1024 483 1059.5 401.5Q1095 320 1155.5 259.5Q1216 199 1297.5 163.5Q1379 128 1472 128ZM1166 1280Q1057 1232 966 1152H256V1280ZM775 896Q761 865 749.5 833.0Q738 801 729 768H256V896ZM256 512H707Q710 480 715.5 448.0Q721 416 729 384H256ZM850 128Q900 57 966 0H0V2048H1536V1341Q1520 1342 1504.0 1343.0Q1488 1344 1472 1344Q1456 1344 1440.0 1343.0Q1424 1342 1408 1341V1920H128V128Z" transform="scale(1,-1)"/>
</svg>