<?xml version="1.0" encoding="UTF-8"?>
<svg xmlns="http://www.w3.org/2000/svg" viewBox="30 -2026 1988 1988">
  <path d="M1024 2026Q1162 2026 1289.5 1993.5Q1417 1961 1527.0 1900.5Q1637 1840 1728.0 1754.0Q1819 1668 1883.0 1561.0Q1947 1454 1982.5 1328.0Q2018 1202 2018 1062Q2018 922 1982.5 796.0Q1947 670 1883.0 563.0Q1819 456 1728.0 370.0Q1637 284 1527.0 223.5Q1417 163 1289.5 130.5Q1162 98 1024 98Q949 98 878.5 108.0Q808 118 736 136Q725 139 716 139Q690 139 655.5 123.0Q621 107 584.5 88.5Q548 70 513.5 54.0Q479 38 454 38Q420 38 398.0 60.5Q376 83 374 115Q370 159 370.5 203.5Q371 248 369 292Q368 309 361.0 323.0Q354 337 342 349Q317 375 292.0 399.0Q267 423 244 451Q137 582 83.5 738.0Q30 894 30 1062Q30 1202 65.5 1328.0Q101 1454 165.0 1561.0Q229 1668 320.0 1754.0Q411 1840 521.0 1900.5Q631 1961 758.5 1993.5Q886 2026 1024 2026ZM1629 1310Q1629 1329 1614.5 1343.0Q1600 1357 1581 1357Q1565 1357 1552 1347L1239 1109Q1224 1097 1203 1097Q1182 1097 1167 1109L935 1283Q894 1313 846 1313Q808 1313 773.5 1294.0Q739 1275 719 1243L427 780Q419 767 419 755Q419 735 433.5 721.0Q448 707 468 707Q483 707 496 717L809 955Q824 967 845 967Q866 967 881 955L1113 781Q1154 751 1202 751Q1240 751 1274.5 770.0Q1309 789 1329 821L1621 1284Q1629 1297 1629 1310Z" transform="scale(1,-1)"/>
</svg>