<?xml version="1.0" encoding="UTF-8"?>
<svg xmlns="http://www.w3.org/2000/svg" viewBox="128 -1792 1920 1792">
  <path d="M1600 896Q1693 896 1774.5 860.5Q1856 825 1916.5 764.5Q1977 704 2012.5 622.5Q2048 541 2048 448Q2048 355 2012.5 273.5Q1977 192 1916.5 131.5Q1856 71 1774.5 35.5Q1693 0 1600 0Q1507 0 1425.5 35.5Q1344 71 1283.5 131.5Q1223 192 1187.5 273.5Q1152 355 1152 448Q1152 541 1187.5 622.5Q1223 704 1283.5 764.5Q1344 825 1425.5 860.5Q1507 896 1600 896ZM1600 128Q1647 128 1692.0 141.5Q1737 155 1776 181L1333 624Q1307 585 1293.5 540.0Q1280 495 1280 448Q1280 382 1305.0 323.5Q1330 265 1373.5 221.5Q1417 178 1475.5 153.0Q1534 128 1600 128ZM1867 272Q1893 311 1906.5 356.0Q1920 401 1920 448Q1920 514 1894.5 572.0Q1869 630 1825.5 673.5Q1782 717 1724.0 742.5Q1666 768 1600 768Q1553 768 1508.0 754.5Q1463 741 1424 715ZM128 1408H256V1280H128ZM1920 1280H512V1408H1920ZM128 1792H256V1664H128ZM1920 1664H512V1792H1920Z" transform="scale(1,-1)"/>
</svg>