<?xml version="1.0" encoding="UTF-8"?>
<svg xmlns="http://www.w3.org/2000/svg" viewBox="0 -1602 2048 1565">
  <path d="M1920 1600Q1929 1601 1946.0 1601.5Q1963 1602 1982.5 1601.5Q2002 1601 2019.5 1600.5Q2037 1600 2048 1600V757L1939 866L1920 847V1471L128 1152V896Q135 896 139 895L1690 618L1580 508L1146 585Q1136 528 1107.5 479.0Q1079 430 1037.0 395.0Q995 360 942.5 340.0Q890 320 832 320Q766 320 707.5 345.0Q649 370 605.5 413.5Q562 457 537.0 515.5Q512 574 512 640Q512 668 518 697L254 744Q235 748 219.0 751.0Q203 754 188.0 757.0Q173 760 157.0 762.5Q141 765 122 768Q110 769 94.5 769.5Q79 770 62.0 769.5Q45 769 28.5 768.5Q12 768 0 768V1280Q10 1280 27.0 1279.5Q44 1279 62.5 1278.5Q81 1278 97.0 1278.0Q113 1278 122 1280ZM643 675Q640 657 640 640Q640 600 655.0 565.0Q670 530 696.0 504.0Q722 478 757.0 463.0Q792 448 832 448Q867 448 899.0 460.0Q931 472 956.0 493.5Q981 515 998.0 544.0Q1015 573 1021 608ZM1939 685 2029 595 1472 37 1203 307 1293 397 1472 219Z" transform="scale(1,-1)"/>
</svg>