<?xml version="1.0" encoding="UTF-8"?>
<svg xmlns="http://www.w3.org/2000/svg" viewBox="0 -2048 1984 1920">
  <path d="M1984 1451V661Q1984 626 1959.0 601.0Q1934 576 1899 576H1470Q1464 481 1424.0 399.5Q1384 318 1319.5 257.5Q1255 197 1170.5 162.5Q1086 128 992 128Q908 128 830.0 157.0Q752 186 689.0 237.0Q626 288 582.0 358.5Q538 429 523 512H85Q50 512 25.0 537.0Q0 562 0 597V1451Q0 1486 25.0 1511.0Q50 1536 85 1536H518Q512 1551 512 1568Q512 1603 537 1628L932 2023Q957 2048 992 2048Q1027 2048 1052 2023L1447 1628Q1472 1603 1472 1568Q1472 1551 1466 1536H1899Q1934 1536 1959.0 1511.0Q1984 1486 1984 1451ZM992 1902 658 1568 690 1536H939Q974 1536 999.0 1511.0Q1024 1486 1024 1451V1266L1326 1568ZM592 688 847 1360H681Q639 1237 596.0 1116.0Q553 995 513 871Q472 994 431.0 1115.5Q390 1237 348 1360H178L429 688ZM992 256Q1065 256 1129.0 283.5Q1193 311 1241.0 359.0Q1289 407 1316.5 471.0Q1344 535 1344 608Q1344 675 1319.0 736.0Q1294 797 1251.0 845.0Q1208 893 1149.5 923.0Q1091 953 1024 958V597Q1024 562 999.0 537.0Q974 512 939 512H655Q672 456 704.0 409.0Q736 362 780.0 328.0Q824 294 878.0 275.0Q932 256 992 256ZM1856 704V1408H1347Q1336 1397 1310.5 1370.5Q1285 1344 1251.5 1310.5Q1218 1277 1181.5 1240.0Q1145 1203 1113.0 1172.0Q1081 1141 1056.5 1119.0Q1032 1097 1024 1094V1086Q1104 1083 1176.5 1052.0Q1249 1021 1307.0 969.5Q1365 918 1405.0 850.0Q1445 782 1461 704Z" transform="scale(1,-1)"/>
</svg>