<?xml version="1.0" encoding="UTF-8"?>
<svg xmlns="http://www.w3.org/2000/svg" viewBox="0 -1929 2047 1810">
  <path d="M1673 1929Q1763 1839 1832.5 1734.0Q1902 1629 1950.0 1513.5Q1998 1398 2022.5 1274.5Q2047 1151 2047 1024Q2047 897 2022.5 773.5Q1998 650 1950.0 534.5Q1902 419 1832.5 314.0Q1763 209 1673 119L1583 209Q1664 290 1726.5 384.5Q1789 479 1832.0 583.0Q1875 687 1897.5 798.5Q1920 910 1920 1024Q1920 1138 1897.5 1249.5Q1875 1361 1832.0 1465.0Q1789 1569 1726.5 1663.5Q1664 1758 1583 1839ZM1402 1658Q1465 1595 1513.5 1521.5Q1562 1448 1595.5 1367.0Q1629 1286 1646.5 1199.0Q1664 1112 1664 1024Q1664 935 1646.5 848.5Q1629 762 1595.5 681.0Q1562 600 1513.5 526.5Q1465 453 1402 390L1311 481Q1419 589 1477.5 730.0Q1536 871 1536 1024Q1536 1177 1477.5 1318.0Q1419 1459 1311 1567ZM1130 1386Q1202 1314 1241.0 1220.0Q1280 1126 1280 1024Q1280 922 1241.0 828.0Q1202 734 1130 662L1040 752Q1094 806 1123.0 876.5Q1152 947 1152 1024Q1152 1101 1123.0 1171.5Q1094 1242 1040 1296ZM677 1792H768V256H677L293 640H0V1408H293ZM640 1573 347 1280H128V768H347L640 475Z" transform="scale(1,-1)"/>
</svg>