<?xml version="1.0" encoding="UTF-8"?>
<svg xmlns="http://www.w3.org/2000/svg" viewBox="0 -1792 2048 1792">
  <path d="M1664 1472Q1664 1446 1645.0 1427.0Q1626 1408 1600 1408Q1574 1408 1555.0 1427.0Q1536 1446 1536 1472Q1536 1498 1555.0 1517.0Q1574 1536 1600 1536Q1626 1536 1645.0 1517.0Q1664 1498 1664 1472ZM2048 1792V1153Q2020 1181 1987.5 1203.5Q1955 1226 1920 1245V1664H128V987L576 1434L1132 879Q1120 825 1120 768Q1120 752 1122.0 736.0Q1124 720 1126 704L576 1254L128 805V384H963L835 256H0V1792ZM1664 1152Q1743 1152 1813.0 1122.0Q1883 1092 1935.5 1039.5Q1988 987 2018.0 917.0Q2048 847 2048 768Q2048 688 2018.0 618.5Q1988 549 1935.5 496.5Q1883 444 1813.0 414.0Q1743 384 1664 384Q1604 384 1547.5 402.5Q1491 421 1442 456L1005 19Q986 0 960 0Q934 0 915.0 19.0Q896 38 896 64Q896 90 915 109L1352 546Q1317 595 1298.5 651.5Q1280 708 1280 768Q1280 847 1310.0 917.0Q1340 987 1392.5 1039.5Q1445 1092 1514.5 1122.0Q1584 1152 1664 1152ZM1664 512Q1717 512 1763.5 532.0Q1810 552 1845.0 587.0Q1880 622 1900.0 668.5Q1920 715 1920 768Q1920 821 1900.0 867.5Q1880 914 1845.0 949.0Q1810 984 1763.5 1004.0Q1717 1024 1664 1024Q1611 1024 1564.5 1004.0Q1518 984 1483.0 949.0Q1448 914 1428.0 867.5Q1408 821 1408 768Q1408 715 1428.0 668.5Q1448 622 1483.0 587.0Q1518 552 1564.5 532.0Q1611 512 1664 512Z" transform="scale(1,-1)"/>
</svg>