<?xml version="1.0" encoding="UTF-8"?>
<svg xmlns="http://www.w3.org/2000/svg" viewBox="0 -2048 2048 2048">
  <path d="M256.109375 1408.0H896.0703125V1536.0H256.109375ZM1792.015625 896.0Q1792.015625 948.0 1778.0164794921875 998.0Q1764.017333984375 1048.0 1738.5188903808594 1091.5Q1713.0204467773438 1135.0 1676.022705078125 1171.0Q1639.0249633789062 1207.0 1593.0277709960938 1232.0Q1627.0256958007812 1267.0 1645.5245666503906 1313.0Q1664.0234375 1359.0 1664.0234375 1408.0Q1664.0234375 1461.0 1644.024658203125 1507.5Q1624.02587890625 1554.0 1589.0280151367188 1589.0Q1554.0301513671875 1624.0 1507.5329895019531 1644.0Q1461.0358276367188 1664.0 1408.0390625 1664.0Q1355.0422973632812 1664.0 1308.5451354980469 1644.0Q1262.0479736328125 1624.0 1227.0501098632812 1589.0Q1192.05224609375 1554.0 1172.053466796875 1507.5Q1152.0546875 1461.0 1152.0546875 1408.0Q1152.0546875 1359.0 1170.5535583496094 1313.0Q1189.0524291992188 1267.0 1223.0503540039062 1232.0Q1177.0531616210938 1207.0 1140.055419921875 1171.0Q1103.0576782226562 1135.0 1077.5592346191406 1091.5Q1052.060791015625 1048.0 1038.0616455078125 998.0Q1024.0625 948.0 1024.0625 896.0H1152.0546875Q1152.0546875 949.0 1172.053466796875 995.5Q1192.05224609375 1042.0 1227.0501098632812 1077.0Q1262.0479736328125 1112.0 1308.5451354980469 1132.0Q1355.0422973632812 1152.0 1408.0390625 1152.0Q1461.0358276367188 1152.0 1507.5329895019531 1132.0Q1554.0301513671875 1112.0 1589.0280151367188 1077.0Q1624.02587890625 1042.0 1644.024658203125 995.5Q1664.0234375 949.0 1664.0234375 896.0ZM1408.0390625 1536.0Q1435.0374145507812 1536.0 1458.0360107421875 1526.0Q1481.0346069335938 1516.0 1498.5335388183594 1498.5Q1516.032470703125 1481.0 1526.0318603515625 1458.0Q1536.03125 1435.0 1536.03125 1408.0Q1536.03125 1381.0 1526.0318603515625 1358.0Q1516.032470703125 1335.0 1498.5335388183594 1317.5Q1481.0346069335938 1300.0 1458.0360107421875 1290.0Q1435.0374145507812 1280.0 1408.0390625 1280.0Q1381.0407104492188 1280.0 1358.0421142578125 1290.0Q1335.0435180664062 1300.0 1317.5445861816406 1317.5Q1300.045654296875 1335.0 1290.0462646484375 1358.0Q1280.046875 1381.0 1280.046875 1408.0Q1280.046875 1435.0 1290.0462646484375 1458.0Q1300.045654296875 1481.0 1317.5445861816406 1498.5Q1335.0435180664062 1516.0 1358.0421142578125 1526.0Q1381.0407104492188 1536.0 1408.0390625 1536.0ZM896.0703125 1152.0H719.0811157226562L783.0772094726562 1024.0H896.0703125ZM0.125 2048.0V512.0H113.11810302734375L177.11419677734375 640.0H128.1171875V1920.0H1920.0078125V640.0H975.0654907226562L1039.0615844726562 512.0H2048.0V2048.0ZM640.0859375 640.0H512.09375V320.0H640.0859375ZM640.0859375 256.0H512.09375V128.0H640.0859375ZM576.08984375 1152.0 0.125 0.0H1152.0546875ZM181.11395263671875 112.0 576.08984375 902.0 971.0657348632812 112.0Z" transform="scale(1,-1)"/>
</svg>