<?xml version="1.0" encoding="UTF-8"?>
<svg xmlns="http://www.w3.org/2000/svg" viewBox="0 -2048 2029 2011">
  <path d="M2029 595 1472 37 1203 307 1293 397 1472 219 1939 685ZM736 586Q802 553 855.0 505.0Q908 457 945.5 398.0Q983 339 1003.5 270.0Q1024 201 1024 128H896Q896 207 866.0 277.0Q836 347 783.5 399.5Q731 452 661.0 482.0Q591 512 512 512Q432 512 362.5 482.0Q293 452 240.5 399.5Q188 347 158.0 277.0Q128 207 128 128H0Q0 201 20.5 270.0Q41 339 78.5 398.0Q116 457 169.0 505.0Q222 553 288 586Q213 640 170.5 721.0Q128 802 128 896Q128 975 158.0 1045.0Q188 1115 240.5 1167.5Q293 1220 362.5 1250.0Q432 1280 512 1280Q606 1280 687.0 1237.5Q768 1195 822 1120Q860 1196 920.0 1256.0Q980 1316 1056 1354Q981 1408 938.5 1489.0Q896 1570 896 1664Q896 1743 926.0 1813.0Q956 1883 1008.5 1935.5Q1061 1988 1130.5 2018.0Q1200 2048 1280 2048Q1359 2048 1429.0 2018.0Q1499 1988 1551.5 1935.5Q1604 1883 1634.0 1813.0Q1664 1743 1664 1664Q1664 1570 1621.5 1489.0Q1579 1408 1504 1354Q1570 1321 1623.0 1273.0Q1676 1225 1713.5 1166.0Q1751 1107 1771.5 1038.0Q1792 969 1792 896H1664Q1664 975 1634.0 1045.0Q1604 1115 1551.5 1167.5Q1499 1220 1429.0 1250.0Q1359 1280 1280 1280Q1200 1280 1130.5 1250.0Q1061 1220 1008.5 1167.5Q956 1115 926.0 1045.0Q896 975 896 896Q896 802 853.5 721.0Q811 640 736 586ZM1024 1664Q1024 1611 1044.0 1564.5Q1064 1518 1099.0 1483.0Q1134 1448 1180.5 1428.0Q1227 1408 1280 1408Q1333 1408 1379.5 1428.0Q1426 1448 1461.0 1483.0Q1496 1518 1516.0 1564.5Q1536 1611 1536 1664Q1536 1717 1516.0 1763.5Q1496 1810 1461.0 1845.0Q1426 1880 1379.5 1900.0Q1333 1920 1280 1920Q1227 1920 1180.5 1900.0Q1134 1880 1099.0 1845.0Q1064 1810 1044.0 1763.5Q1024 1717 1024 1664ZM256 896Q256 843 276.0 796.5Q296 750 331.0 715.0Q366 680 412.5 660.0Q459 640 512 640Q565 640 611.5 660.0Q658 680 693.0 715.0Q728 750 748.0 796.5Q768 843 768 896Q768 949 748.0 995.5Q728 1042 693.0 1077.0Q658 1112 611.5 1132.0Q565 1152 512 1152Q459 1152 412.5 1132.0Q366 1112 331.0 1077.0Q296 1042 276.0 995.5Q256 949 256 896Z" transform="scale(1,-1)"/>
</svg>