<?xml version="1.0" encoding="UTF-8"?>
<svg xmlns="http://www.w3.org/2000/svg" viewBox="0 -2048 1920 1920">
  <path d="M0 1920V2048H128V1920ZM0 1664V1792H128V1664ZM0 1408V1536H128V1408ZM0 1152V1280H128V1152ZM0 896V1024H128V896ZM0 640V768H128V640ZM0 384V512H128V384ZM0 128V256H128V128ZM1792 1664V1792H1920V1664ZM1792 1408V1536H1920V1408ZM1792 1152V1280H1920V1152ZM1792 896V1024H1920V896ZM1792 640V768H1920V640ZM1792 384V512H1920V384ZM1792 128V256H1920V128ZM384 2048V1920H256V2048ZM640 2048V1920H512V2048ZM896 2048V1920H768V2048ZM1152 2048V1920H1024V2048ZM1408 2048V1920H1280V2048ZM1536 1920V2048H1664V1920ZM256 128V256H384V128ZM512 128V256H640V128ZM768 128V256H896V128ZM1024 128V256H1152V128ZM1280 128V256H1408V128ZM1536 128V256H1664V128ZM1792 2048H1920V1920H1792ZM1536 1664V512H384V1664ZM1408 1152V1536H1024V1152ZM896 1536H512V1152H896ZM512 1024V640H896V1024ZM1024 640H1408V1024H1024Z" transform="scale(1,-1)"/>
</svg>