<?xml version="1.0" encoding="UTF-8"?>
<svg xmlns="http://www.w3.org/2000/svg" viewBox="0 -2048 2048 2048">
  <path d="M0 64Q0 90 19 109L1235 1325Q1254 1344 1280 1344Q1306 1344 1325.0 1325.0Q1344 1306 1344 1280Q1344 1254 1325 1235L109 19Q90 0 64 0Q38 0 19.0 19.0Q0 38 0 64ZM1408 2048H1536V1792H1408ZM1201 1653 1019 1834 1110 1925 1291 1743ZM1152 1408H896V1536H1152ZM1408 1152H1536V896H1408ZM1743 1291 1925 1110 1834 1019 1653 1201ZM2048 1536V1408H1792V1536ZM1743 1653 1653 1743 1834 1925 1925 1834ZM1472 1536Q1498 1536 1517.0 1517.0Q1536 1498 1536 1472Q1536 1446 1517.0 1427.0Q1498 1408 1472 1408Q1446 1408 1427.0 1427.0Q1408 1446 1408 1472Q1408 1498 1427.0 1517.0Q1446 1536 1472 1536Z" transform="scale(1,-1)"/>
</svg>