<?xml version="1.0" encoding="UTF-8"?>
<svg xmlns="http://www.w3.org/2000/svg" viewBox="0 -2048 2048 2048">
  <path d="M128 2048V1920H0V2048ZM128 1536V1408H0V1536ZM128 1280V1152H0V1280ZM128 1024V896H0V1024ZM128 768V640H0V768ZM128 512V384H0V512ZM0 256H128V128H0ZM128 0V128H256V0ZM384 0V128H512V0ZM384 2048V1920H256V2048ZM640 2048V1920H512V2048ZM896 2048V1920H768V2048ZM1152 2048V1920H1024V2048ZM1408 2048V1920H1280V2048ZM1536 1792H1408V1920H1536ZM1408 1536V1664H1536V1536ZM128 1792V1664H0V1792ZM640 0V128H768V0ZM896 0V128H1024V0ZM1627 1280 2048 859V0H1152V1280ZM1664 1061V896H1829ZM1280 128H1920V768H1536V1152H1280ZM1408 512V640H1792V512ZM1408 256V384H1792V256Z" transform="scale(1,-1)"/>
</svg>