<?xml version="1.0" encoding="UTF-8"?>
<svg xmlns="http://www.w3.org/2000/svg" viewBox="138 -1920 1782 1782">
  <path d="M1029 1792Q924 1792 826.5 1764.5Q729 1737 644.0 1687.5Q559 1638 489.5 1568.5Q420 1499 370.5 1414.0Q321 1329 293.5 1231.5Q266 1134 266 1029Q266 924 293.5 826.5Q321 729 370.5 644.0Q420 559 489.5 489.5Q559 420 644.0 370.5Q729 321 826.5 293.5Q924 266 1029 266Q1134 266 1231.5 293.5Q1329 321 1414.0 370.5Q1499 420 1568.5 489.5Q1638 559 1687.5 644.0Q1737 729 1764.5 826.5Q1792 924 1792 1029Q1792 1134 1764.5 1231.5Q1737 1329 1687.5 1413.5Q1638 1498 1568.0 1568.0Q1498 1638 1413.5 1687.5Q1329 1737 1231.5 1764.5Q1134 1792 1029 1792ZM1029 1920Q1152 1920 1265.5 1888.0Q1379 1856 1478.0 1798.0Q1577 1740 1658.5 1658.5Q1740 1577 1798.0 1478.0Q1856 1379 1888.0 1265.5Q1920 1152 1920 1029Q1920 906 1888.0 792.5Q1856 679 1798.0 580.0Q1740 481 1658.5 399.5Q1577 318 1478.0 260.0Q1379 202 1265.5 170.0Q1152 138 1029 138Q906 138 792.5 170.0Q679 202 580.0 260.0Q481 318 399.5 399.5Q318 481 260.0 580.0Q202 679 170.0 792.5Q138 906 138 1029Q138 1152 170.0 1265.5Q202 1379 260.0 1478.0Q318 1577 399.5 1658.5Q481 1740 580.0 1798.0Q679 1856 792.5 1888.0Q906 1920 1029 1920ZM941 563 851 653 1221 1024 851 1395 941 1485 1402 1024Z" transform="scale(1,-1)"/>
</svg>