<?xml version="1.0" encoding="UTF-8"?>
<svg xmlns="http://www.w3.org/2000/svg" viewBox="5 -2040 1915 2040">
  <path d="M128 512Q269 512 400.0 548.5Q531 585 644.5 652.0Q758 719 851.5 812.5Q945 906 1012.0 1019.5Q1079 1133 1115.5 1264.0Q1152 1395 1152 1536Q1152 1669 1118.0 1797.0Q1084 1925 1019 2040Q1147 2024 1264.0 1979.0Q1381 1934 1481.0 1864.0Q1581 1794 1662.0 1702.5Q1743 1611 1800.5 1503.5Q1858 1396 1889.0 1274.5Q1920 1153 1920 1024Q1920 883 1883.5 752.0Q1847 621 1780.0 507.5Q1713 394 1619.5 300.5Q1526 207 1412.5 140.0Q1299 73 1168.0 36.5Q1037 0 896 0Q758 0 627.0 36.0Q496 72 380.5 139.5Q265 207 169.0 303.5Q73 400 5 520Q36 516 66.5 514.0Q97 512 128 512ZM896 128Q1020 128 1134.5 160.0Q1249 192 1348.5 250.5Q1448 309 1529.5 390.5Q1611 472 1669.5 571.5Q1728 671 1760.0 785.5Q1792 900 1792 1024Q1792 1160 1752.0 1287.5Q1712 1415 1639.5 1523.5Q1567 1632 1464.0 1717.0Q1361 1802 1235 1853Q1280 1698 1280 1536Q1280 1390 1245.0 1253.5Q1210 1117 1145.0 995.5Q1080 874 988.0 770.5Q896 667 783.0 588.5Q670 510 538.5 459.5Q407 409 262 392Q390 264 552.5 196.0Q715 128 896 128Z" transform="scale(1,-1)"/>
</svg>