<?xml version="1.0" encoding="UTF-8"?>
<svg xmlns="http://www.w3.org/2000/svg" viewBox="0 -2048 2048 2048">
  <path d="M496 1165Q509 1165 525.0 1160.5Q541 1156 557.5 1150.0Q574 1144 589.5 1137.0Q605 1130 618 1125Q610 1124 601.5 1123.0Q593 1122 585 1122Q568 1122 554.0 1127.5Q540 1133 527.5 1140.0Q515 1147 503.5 1152.5Q492 1158 482 1158Q472 1158 464.0 1154.0Q456 1150 448 1145Q448 1149 441 1149Q448 1156 467.0 1160.5Q486 1165 496 1165ZM631 1120Q672 1120 706 1106Q692 1101 678.0 1097.5Q664 1094 649 1094Q629 1094 613 1098Q618 1106 623.0 1108.5Q628 1111 631 1120ZM1024 2048Q1165 2048 1295.5 2011.0Q1426 1974 1539.5 1907.5Q1653 1841 1747.0 1747.0Q1841 1653 1907.5 1539.5Q1974 1426 2011.0 1295.5Q2048 1165 2048 1024Q2048 883 2011.0 752.5Q1974 622 1907.5 508.5Q1841 395 1747.0 301.0Q1653 207 1539.5 140.5Q1426 74 1295.5 37.0Q1165 0 1024 0Q883 0 752.5 37.0Q622 74 508.5 140.5Q395 207 301.0 301.0Q207 395 140.5 508.5Q74 622 37.0 752.5Q0 883 0 1024Q0 1165 37.0 1295.5Q74 1426 140.5 1539.5Q207 1653 301.0 1747.0Q395 1841 508.5 1907.5Q622 1974 752.5 2011.0Q883 2048 1024 2048ZM1786 1493Q1772 1515 1758.0 1535.5Q1744 1556 1729 1576Q1727 1567 1723.5 1563.0Q1720 1559 1720 1545Q1720 1536 1727.5 1527.5Q1735 1519 1745.5 1512.0Q1756 1505 1767.0 1500.0Q1778 1495 1786 1493ZM1717 1591Q1717 1583 1714 1580H1720Q1724 1580 1726 1579ZM1024 128Q1138 128 1247.0 157.0Q1356 186 1453.5 239.5Q1551 293 1633.5 369.5Q1716 446 1778 541Q1765 571 1753.0 602.0Q1741 633 1741 666Q1741 702 1744.5 724.5Q1748 747 1751.0 763.0Q1754 779 1755.5 792.5Q1757 806 1752.0 823.0Q1747 840 1734.5 864.0Q1722 888 1698 926Q1699 933 1701.5 945.0Q1704 957 1705.0 970.0Q1706 983 1705.5 994.5Q1705 1006 1701 1013Q1675 1016 1646.5 1024.0Q1618 1032 1597 1048L1603 1053Q1590 1050 1577.0 1044.5Q1564 1039 1551.5 1034.0Q1539 1029 1526.0 1025.5Q1513 1022 1499 1022L1483 1024L1486 1031Q1472 1027 1455.5 1021.0Q1439 1015 1425 1015Q1415 1015 1396.0 1022.0Q1377 1029 1357.5 1039.0Q1338 1049 1323.5 1061.0Q1309 1073 1309 1084L1311 1087Q1306 1093 1298.0 1098.0Q1290 1103 1282.5 1108.0Q1275 1113 1270.0 1119.0Q1265 1125 1265 1133L1276 1142L1253 1145L1245 1175Q1247 1170 1254.5 1171.0Q1262 1172 1265 1175L1229 1194L1254 1258Q1240 1310 1247.5 1338.0Q1255 1366 1274.0 1384.5Q1293 1403 1318.5 1420.5Q1344 1438 1367 1469L1364 1481L1430 1561L1445 1563Q1473 1563 1508.0 1565.5Q1543 1568 1579.0 1572.5Q1615 1577 1650.0 1582.5Q1685 1588 1714 1595Q1682 1633 1646.5 1667.0Q1611 1701 1572 1732Q1561 1728 1544.5 1720.5Q1528 1713 1513.0 1702.5Q1498 1692 1487.5 1679.0Q1477 1666 1477 1652L1483 1633Q1465 1604 1443.0 1596.5Q1421 1589 1397.5 1588.5Q1374 1588 1349.5 1589.0Q1325 1590 1302 1580L1286 1614L1301 1672L1284 1697L1457 1751Q1446 1779 1420.5 1793.0Q1395 1807 1366 1807V1817L1422 1826Q1329 1872 1228.5 1896.0Q1128 1920 1024 1920Q937 1920 852.0 1903.0Q767 1886 687.5 1853.5Q608 1821 535.0 1774.0Q462 1727 400 1666Q426 1666 440.5 1652.5Q455 1639 466.5 1623.5Q478 1608 491.0 1594.5Q504 1581 526 1581L542 1593L540 1615L573 1662L547 1736Q552 1739 562.5 1746.0Q573 1753 579 1753Q609 1753 625.5 1750.0Q642 1747 653.0 1738.5Q664 1730 674.0 1715.5Q684 1701 702 1678L738 1706Q748 1702 770.5 1692.5Q793 1683 815.0 1670.5Q837 1658 854.0 1644.0Q871 1630 871 1618Q871 1603 859.5 1594.0Q848 1585 831.0 1579.0Q814 1573 793.5 1569.5Q773 1566 756.0 1562.0Q739 1558 727.0 1551.5Q715 1545 715 1535L773 1516Q753 1499 729.5 1484.5Q706 1470 682 1459L686 1442L594 1406V1378L587 1375L592 1410L588 1411Q581 1411 579.5 1408.0Q578 1405 579.0 1401.0Q580 1397 581.5 1393.0Q583 1389 582 1387L569 1394L571 1390Q571 1387 574.5 1381.0Q578 1375 582.5 1369.5Q587 1364 590.5 1359.5Q594 1355 594 1355Q594 1352 589.5 1349.0Q585 1346 580.0 1344.5Q575 1343 572.0 1342.0Q569 1341 572 1341Q586 1341 577.5 1339.0Q569 1337 553.0 1329.0Q537 1321 521.5 1305.5Q506 1290 506 1262Q506 1245 507.5 1229.0Q509 1213 506 1196Q492 1234 464.0 1254.0Q436 1274 396 1274L353 1270L374 1256Q357 1258 338.5 1260.0Q320 1262 302.0 1260.5Q284 1259 267.5 1252.5Q251 1246 238 1232L232 1187Q232 1155 246.5 1134.5Q261 1114 295 1114Q325 1114 354.0 1123.5Q383 1133 411 1144Q402 1122 391.0 1101.5Q380 1081 375 1058L388 1052Q412 1068 432.0 1057.0Q452 1046 471.0 1025.0Q490 1004 510.0 981.5Q530 959 553 950L519 932L439 977Q440 975 441.5 968.0Q443 961 440 965L404 1026Q372 1027 335.5 1036.5Q299 1046 263.0 1060.5Q227 1075 193.5 1093.5Q160 1112 135 1131L128 1024Q128 902 161.0 786.0Q194 670 254.5 568.0Q315 466 401.0 381.5Q487 297 594 239Q589 260 593.0 281.0Q597 302 603.5 323.0Q610 344 616.5 365.5Q623 387 623 408Q623 440 613.0 475.5Q603 511 588.5 546.5Q574 582 558.0 617.0Q542 652 530.5 683.5Q519 715 515.0 741.5Q511 768 521 788L506 795Q512 809 522.5 822.0Q533 835 543.0 848.5Q553 862 560.0 876.0Q567 890 567 906Q567 916 562.5 927.5Q558 939 556 948L577 943Q594 982 623.5 996.5Q653 1011 696 1011Q701 1011 717.0 1006.5Q733 1002 751.0 996.0Q769 990 785.5 984.5Q802 979 809 977Q809 970 817.5 967.5Q826 965 826 961L824 953Q827 952 838.5 945.5Q850 939 862.5 931.0Q875 923 885.5 915.0Q896 907 899 904Q917 904 948.5 892.0Q980 880 1016.0 861.5Q1052 843 1089.5 818.5Q1127 794 1157.0 768.5Q1187 743 1206.5 718.5Q1226 694 1226 675L1192 639Q1196 588 1184.5 560.5Q1173 533 1150.5 516.0Q1128 499 1097.5 486.0Q1067 473 1033 452Q1033 432 1023.0 408.5Q1013 385 997.5 364.5Q982 344 961.5 330.0Q941 316 920 316L878 348Q880 346 877.5 340.5Q875 335 873 339Q883 320 878.0 295.0Q873 270 861.0 244.0Q849 218 834.0 194.5Q819 171 807 156Q861 142 915.0 135.0Q969 128 1024 128Z" transform="scale(1,-1)"/>
</svg>