<?xml version="1.0" encoding="UTF-8"?>
<svg xmlns="http://www.w3.org/2000/svg" viewBox="128 -2048 1920 2048">
  <path d="M256 128H1376V0H128V2048H1243L1792 1499V605L1664 701V1408H1152V1920H256ZM1280 1536H1573L1280 1829ZM1201 640Q1192 578 1175.5 518.5Q1159 459 1132 402Q1201 430 1255 476L1336 396Q1258 328 1161.0 292.0Q1064 256 960 256Q841 256 736.0 301.5Q631 347 553.0 425.0Q475 503 429.5 608.0Q384 713 384 832Q384 951 429.5 1056.0Q475 1161 553.0 1239.0Q631 1317 736.0 1362.5Q841 1408 960 1408Q1079 1408 1184.0 1362.5Q1289 1317 1367.0 1239.0Q1445 1161 1490.5 1056.0Q1536 951 1536 832V829L1517 847L1310 640ZM960 1296Q953 1296 945.5 1291.5Q938 1287 933 1282Q910 1261 893.0 1229.0Q876 1197 863.5 1161.0Q851 1125 842.5 1089.0Q834 1053 830 1024H1089Q1084 1054 1075.5 1089.0Q1067 1124 1054.5 1159.0Q1042 1194 1025.0 1225.5Q1008 1257 986 1279Q982 1283 974.5 1289.5Q967 1296 960 1296ZM496 832Q496 816 497.5 800.0Q499 784 501 768H707Q706 784 705.0 800.0Q704 816 704 832Q704 848 705.0 864.0Q706 880 707 896H501Q499 880 497.5 864.0Q496 848 496 832ZM539 640Q575 560 638.0 499.0Q701 438 782 404Q755 458 740.0 519.0Q725 580 717 640ZM718 1024Q726 1084 741.0 1145.5Q756 1207 783 1261Q702 1227 639.0 1165.5Q576 1104 539 1024ZM960 368Q977 368 993.0 385.0Q1009 402 1022.5 428.0Q1036 454 1047.0 486.0Q1058 518 1066.5 548.0Q1075 578 1080.5 603.0Q1086 628 1088 640H830Q834 611 842.0 575.5Q850 540 862.0 504.5Q874 469 890.5 437.5Q907 406 929 385Q935 379 943.5 373.5Q952 368 960 368ZM1101 768Q1104 799 1104 832Q1104 848 1103.0 864.0Q1102 880 1101 896H819Q818 880 817.0 864.0Q816 848 816 832Q816 816 817.0 800.0Q818 784 819 768ZM1424 832Q1424 848 1422.5 864.0Q1421 880 1419 896H1213Q1214 880 1215.0 864.0Q1216 848 1216 832Q1216 816 1215.0 800.0Q1214 784 1213 768H1419Q1421 784 1422.5 800.0Q1424 816 1424 832ZM1381 1024Q1344 1105 1279.5 1166.5Q1215 1228 1133 1262Q1161 1207 1176.5 1145.5Q1192 1084 1201 1024ZM2048 512V0H1536V128H1829L1427 531L1517 621L1920 219V512Z" transform="scale(1,-1)"/>
</svg>