<?xml version="1.0" encoding="UTF-8"?>
<svg xmlns="http://www.w3.org/2000/svg" viewBox="0 -2048 2048 1920">
  <path d="M2048 1920V128H0V1920H384V2048H512V1920H1536V2048H1664V1920ZM128 1792V1536H1920V1792H1664V1664H1536V1792H512V1664H384V1792ZM1920 256V1408H128V256ZM1408 1152V512H1280V998Q1253 984 1218.0 972.0Q1183 960 1152 960V1088Q1164 1088 1183.0 1094.0Q1202 1100 1222.0 1109.5Q1242 1119 1258.0 1130.0Q1274 1141 1280 1151V1152ZM1024 960Q1024 921 1012.5 889.5Q1001 858 982.0 831.5Q963 805 938.0 781.0Q913 757 887.0 734.5Q861 712 835.5 689.0Q810 666 789 640H1024V512H640Q640 529 639.5 548.0Q639 567 639.5 586.5Q640 606 643.0 624.5Q646 643 653 660Q664 687 686.5 713.5Q709 740 736.0 766.0Q763 792 791.0 817.0Q819 842 842.5 866.0Q866 890 881.0 913.5Q896 937 896 960Q896 987 877.0 1005.5Q858 1024 832 1024Q809 1024 791.5 1010.0Q774 996 769 973L644 999Q650 1032 667.5 1060.0Q685 1088 711.0 1108.5Q737 1129 768.0 1140.5Q799 1152 832 1152Q872 1152 907.0 1137.0Q942 1122 968.0 1096.0Q994 1070 1009.0 1035.0Q1024 1000 1024 960Z" transform="scale(1,-1)"/>
</svg>