<?xml version="1.0" encoding="UTF-8"?>
<svg xmlns="http://www.w3.org/2000/svg" viewBox="512 -2048 1152 2048">
  <path d="M1237 2048Q1257 2048 1271 2034L1650 1655Q1664 1641 1664 1622Q1664 1602 1650.5 1588.0Q1637 1574 1617 1574Q1611 1574 1593.0 1578.0Q1575 1582 1550.0 1588.0Q1525 1594 1496.0 1601.5Q1467 1609 1441.0 1616.0Q1415 1623 1394.5 1628.5Q1374 1634 1365 1636V1024H768V512H1365V0H1109V256H512V1280H1109V1636Q1101 1634 1080.5 1628.5Q1060 1623 1033.5 1616.0Q1007 1609 978.5 1601.5Q950 1594 925.0 1588.0Q900 1582 881.5 1578.0Q863 1574 858 1574Q838 1574 824.5 1588.0Q811 1602 811 1622Q811 1641 825 1655L1204 2034Q1218 2048 1237 2048ZM1195 597V939H1280V597Z" transform="scale(1,-1)"/>
</svg>