<?xml version="1.0" encoding="UTF-8"?>
<svg xmlns="http://www.w3.org/2000/svg" viewBox="0 -2048 2048 2048">
  <path d="M1503 1503Q1624 1466 1724.5 1394.0Q1825 1322 1897.0 1225.0Q1969 1128 2008.5 1011.5Q2048 895 2048 768Q2048 662 2020.5 564.0Q1993 466 1943.0 380.5Q1893 295 1823.0 225.0Q1753 155 1667.5 105.0Q1582 55 1484.0 27.5Q1386 0 1280 0Q1153 0 1036.5 39.5Q920 79 823.0 151.0Q726 223 654.0 323.5Q582 424 545 545Q424 582 323.5 654.0Q223 726 151.0 823.0Q79 920 39.5 1036.5Q0 1153 0 1280Q0 1386 27.5 1484.0Q55 1582 105.0 1667.5Q155 1753 225.0 1823.0Q295 1893 380.5 1943.0Q466 1993 564.0 2020.5Q662 2048 768 2048Q895 2048 1011.5 2008.5Q1128 1969 1225.0 1897.0Q1322 1825 1394.0 1724.5Q1466 1624 1503 1503ZM516 692Q514 711 513.0 730.0Q512 749 512 768Q512 874 539.5 972.0Q567 1070 617.0 1155.5Q667 1241 737.0 1311.0Q807 1381 892.5 1431.0Q978 1481 1076.0 1508.5Q1174 1536 1280 1536Q1299 1536 1318.0 1535.0Q1337 1534 1356 1532Q1318 1620 1257.5 1691.5Q1197 1763 1120.0 1814.0Q1043 1865 953.5 1892.5Q864 1920 768 1920Q680 1920 598.0 1897.0Q516 1874 445.0 1832.5Q374 1791 315.5 1732.5Q257 1674 215.5 1603.0Q174 1532 151.0 1450.0Q128 1368 128 1280Q128 1184 155.5 1094.5Q183 1005 234.0 928.0Q285 851 356.5 790.5Q428 730 516 692ZM640 768Q640 739 643.5 710.0Q647 681 652 652Q681 647 710.0 643.5Q739 640 768 640Q856 640 938.0 663.0Q1020 686 1091.0 727.5Q1162 769 1220.5 827.5Q1279 886 1320.5 957.0Q1362 1028 1385.0 1110.0Q1408 1192 1408 1280Q1408 1309 1404.5 1338.0Q1401 1367 1396 1396Q1367 1401 1338.0 1404.5Q1309 1408 1280 1408Q1192 1408 1110.0 1385.0Q1028 1362 957.0 1320.5Q886 1279 827.5 1220.5Q769 1162 727.5 1091.0Q686 1020 663.0 938.0Q640 856 640 768ZM1280 128Q1368 128 1450.0 151.0Q1532 174 1603.0 215.5Q1674 257 1732.5 315.5Q1791 374 1832.5 445.0Q1874 516 1897.0 598.0Q1920 680 1920 768Q1920 864 1892.5 953.5Q1865 1043 1814.0 1120.0Q1763 1197 1691.5 1257.5Q1620 1318 1532 1356Q1534 1337 1535.0 1318.0Q1536 1299 1536 1280Q1536 1174 1508.5 1076.0Q1481 978 1431.0 892.5Q1381 807 1311.0 737.0Q1241 667 1155.5 617.0Q1070 567 972.0 539.5Q874 512 768 512Q749 512 730.0 513.0Q711 514 692 516Q730 428 790.5 356.5Q851 285 928.0 234.0Q1005 183 1094.5 155.5Q1184 128 1280 128Z" transform="scale(1,-1)"/>
</svg>