<?xml version="1.0" encoding="UTF-8"?>
<svg xmlns="http://www.w3.org/2000/svg" viewBox="0 -2048 2048 2048">
  <path d="M2048 1344V0H1088Q1048 0 1013.0 15.0Q978 30 952.0 56.0Q926 82 911.0 117.0Q896 152 896 192V1344Q896 1381 912.0 1415.5Q928 1450 955.0 1477.0Q982 1504 1016.5 1520.0Q1051 1536 1088 1536H1856Q1893 1536 1927.5 1520.0Q1962 1504 1989.0 1477.0Q2016 1450 2032.0 1415.5Q2048 1381 2048 1344ZM1920 128V256H1024V192Q1024 166 1043.0 147.0Q1062 128 1088 128ZM1920 384V1344Q1920 1355 1914.0 1366.5Q1908 1378 1899.0 1387.0Q1890 1396 1878.5 1402.0Q1867 1408 1856 1408H1088Q1077 1408 1065.5 1402.0Q1054 1396 1045.0 1387.0Q1036 1378 1030.0 1366.5Q1024 1355 1024 1344V384ZM128 2048V1920H0V2048ZM128 1792V1664H0V1792ZM128 1536V1408H0V1536ZM128 1280V1152H0V1280ZM128 1024V896H0V1024ZM128 768V640H0V768ZM128 512V384H0V512ZM0 256H128V128H0ZM128 0V128H256V0ZM384 2048V1920H256V2048ZM384 0V128H512V0ZM640 2048V1920H512V2048ZM640 0V128H768V0ZM896 2048V1920H768V2048ZM1152 2048V1920H1024V2048ZM1408 2048V1920H1280V2048ZM1536 1792H1408V1920H1536ZM1344 794 1747 1197 1837 1107 1344 614 1107 851 1197 941Z" transform="scale(1,-1)"/>
</svg>