<?xml version="1.0" encoding="UTF-8"?>
<svg xmlns="http://www.w3.org/2000/svg" viewBox="192 -2048 1642 2011">
  <path d="M547 1260Q518 1209 475.5 1180.5Q433 1152 373 1152Q333 1152 299.5 1163.5Q266 1175 242.0 1197.0Q218 1219 205.0 1251.5Q192 1284 192 1325Q192 1370 205.5 1403.5Q219 1437 243.5 1460.5Q268 1484 302.5 1498.5Q337 1513 379 1519L549 1544Q549 1574 543.5 1601.5Q538 1629 525.0 1649.5Q512 1670 489.0 1682.5Q466 1695 432 1695Q379 1695 332.5 1676.0Q286 1657 247 1622V1720Q263 1732 287.5 1742.0Q312 1752 339.5 1759.5Q367 1767 393.5 1771.5Q420 1776 440 1776Q494 1776 532.0 1760.5Q570 1745 594.0 1716.0Q618 1687 629.0 1646.0Q640 1605 640 1554V1167H549V1260ZM394 1233Q431 1233 459.5 1247.5Q488 1262 508.0 1286.5Q528 1311 538.5 1342.5Q549 1374 549 1408V1468L412 1447Q384 1442 360.5 1436.0Q337 1430 320.5 1417.5Q304 1405 294.5 1385.0Q285 1365 285 1332Q285 1284 317.0 1258.5Q349 1233 394 1233ZM859 1252V1167H768V2048H859V1657H861Q894 1716 948.5 1746.0Q1003 1776 1069 1776Q1132 1776 1176.0 1750.5Q1220 1725 1248.0 1683.5Q1276 1642 1289.0 1589.5Q1302 1537 1302 1482Q1302 1421 1287.5 1362.0Q1273 1303 1242.0 1256.5Q1211 1210 1161.5 1181.0Q1112 1152 1043 1152Q986 1152 938.0 1177.0Q890 1202 861 1252ZM859 1493V1410Q859 1371 871.5 1338.5Q884 1306 907.0 1282.5Q930 1259 962.0 1246.0Q994 1233 1033 1233Q1084 1233 1118.0 1256.5Q1152 1280 1172.0 1316.0Q1192 1352 1200.5 1396.5Q1209 1441 1209 1483Q1209 1522 1200.5 1560.0Q1192 1598 1172.5 1628.0Q1153 1658 1122.0 1676.5Q1091 1695 1046 1695Q1001 1695 966.0 1679.5Q931 1664 907.0 1637.0Q883 1610 871.0 1573.0Q859 1536 859 1493ZM1699 1695Q1649 1695 1611.5 1675.0Q1574 1655 1549.5 1622.0Q1525 1589 1513.0 1546.0Q1501 1503 1501 1458Q1501 1413 1512.5 1372.0Q1524 1331 1547.5 1300.0Q1571 1269 1607.5 1251.0Q1644 1233 1694 1233Q1732 1233 1767.5 1247.5Q1803 1262 1833 1285V1194Q1798 1171 1759.0 1161.5Q1720 1152 1678 1152Q1613 1152 1563.0 1175.5Q1513 1199 1478.5 1239.5Q1444 1280 1426.0 1334.5Q1408 1389 1408 1450Q1408 1519 1427.0 1578.5Q1446 1638 1483.0 1682.0Q1520 1726 1575.5 1751.0Q1631 1776 1703 1776Q1737 1776 1770.5 1769.0Q1804 1762 1834 1746V1649Q1804 1671 1770.0 1683.0Q1736 1695 1699 1695ZM895 219 1619 941 1709 851 895 37 467 467 557 557Z" transform="scale(1,-1)"/>
</svg>