<?xml version="1.0" encoding="UTF-8"?>
<svg xmlns="http://www.w3.org/2000/svg" viewBox="256 -2048 1536 2048">
  <path d="M1792 1152V0H256V1152H512V1526Q512 1634 551.0 1729.0Q590 1824 659.0 1895.0Q728 1966 821.5 2007.0Q915 2048 1024 2048Q1133 2048 1226.5 2007.0Q1320 1966 1389.0 1895.0Q1458 1824 1497.0 1729.0Q1536 1634 1536 1526V1152ZM640 1152H1408V1526Q1408 1607 1379.0 1678.5Q1350 1750 1298.5 1804.0Q1247 1858 1176.5 1889.0Q1106 1920 1024 1920Q942 1920 871.5 1889.0Q801 1858 749.5 1804.0Q698 1750 669.0 1678.5Q640 1607 640 1526ZM1664 1024H384V128H1664Z" transform="scale(1,-1)"/>
</svg>