<?xml version="1.0" encoding="UTF-8"?>
<svg xmlns="http://www.w3.org/2000/svg" viewBox="0 -2048 2048 2040">
  <path d="M1280 1536Q1280 1430 1240.0 1336.5Q1200 1243 1130.5 1173.5Q1061 1104 967.5 1064.0Q874 1024 768 1024Q680 1024 598.0 1001.0Q516 978 445.0 936.5Q374 895 315.5 836.5Q257 778 215.5 707.0Q174 636 151.0 554.0Q128 472 128 384H0Q0 505 35.5 616.0Q71 727 135.5 820.5Q200 914 291.5 986.0Q383 1058 495 1102Q439 1138 394.5 1185.5Q350 1233 319.5 1288.5Q289 1344 272.5 1406.5Q256 1469 256 1536Q256 1642 296.0 1735.5Q336 1829 405.5 1898.5Q475 1968 568.5 2008.0Q662 2048 768 2048Q874 2048 967.5 2008.0Q1061 1968 1130.5 1898.5Q1200 1829 1240.0 1735.5Q1280 1642 1280 1536ZM768 1152Q847 1152 917.0 1182.0Q987 1212 1039.5 1264.5Q1092 1317 1122.0 1386.5Q1152 1456 1152 1536Q1152 1615 1122.0 1685.0Q1092 1755 1039.5 1807.5Q987 1860 917.0 1890.0Q847 1920 768 1920Q688 1920 618.5 1890.0Q549 1860 496.5 1807.5Q444 1755 414.0 1685.0Q384 1615 384 1536Q384 1456 414.0 1386.5Q444 1317 496.5 1264.5Q549 1212 618.5 1182.0Q688 1152 768 1152ZM2048 989V664Q2048 559 2010.0 465.5Q1972 372 1908.5 292.5Q1845 213 1763.5 149.0Q1682 85 1595 39L1536 8L1476 39Q1389 84 1307.5 148.5Q1226 213 1163.0 293.0Q1100 373 1062.0 466.5Q1024 560 1024 664V989Q1059 989 1099.5 988.0Q1140 987 1180.5 989.0Q1221 991 1259.5 999.5Q1298 1008 1330 1027Q1380 1056 1429.0 1069.5Q1478 1083 1536 1083Q1595 1083 1644.0 1069.0Q1693 1055 1744 1026Q1775 1008 1813.5 999.5Q1852 991 1892.5 989.0Q1933 987 1973.0 988.0Q2013 989 2048 989ZM1920 664V861Q1854 861 1793.0 873.0Q1732 885 1675 918Q1641 938 1608.5 946.5Q1576 955 1536 955Q1498 955 1465.0 946.5Q1432 938 1399 919Q1341 886 1279.5 873.5Q1218 861 1152 861V664Q1152 578 1185.5 501.5Q1219 425 1273.5 359.5Q1328 294 1396.5 241.5Q1465 189 1536 152Q1606 189 1675.0 241.5Q1744 294 1798.5 359.5Q1853 425 1886.5 501.5Q1920 578 1920 664Z" transform="scale(1,-1)"/>
</svg>