<?xml version="1.0" encoding="UTF-8"?>
<svg xmlns="http://www.w3.org/2000/svg" viewBox="0 -2048 2048 2048">
  <path d="M2048 1664V1280Q2048 1253 2038.0 1230.0Q2028 1207 2010.5 1189.5Q1993 1172 1970.0 1162.0Q1947 1152 1920 1152H1792V128Q1792 101 1782.0 78.0Q1772 55 1754.5 37.5Q1737 20 1714.0 10.0Q1691 0 1664 0H512Q485 0 462.0 10.0Q439 20 421.5 37.5Q404 55 394.0 78.0Q384 101 384 128V384H115Q91 384 70.5 393.0Q50 402 34.0 418.0Q18 434 9.0 454.5Q0 475 0 499V1421Q0 1445 9.0 1465.5Q18 1486 34.0 1502.0Q50 1518 70.5 1527.0Q91 1536 115 1536H384V1920Q384 1947 394.0 1970.0Q404 1993 421.5 2010.5Q439 2028 462.0 2038.0Q485 2048 512 2048H1664Q1691 2048 1714.0 2038.0Q1737 2028 1754.5 2010.5Q1772 1993 1782.0 1970.0Q1792 1947 1792 1920V1792H1920Q1947 1792 1970.0 1782.0Q1993 1772 2010.5 1754.5Q2028 1737 2038.0 1714.0Q2048 1691 2048 1664ZM240 1322V598H396V1071Q402 1063 420.0 1039.0Q438 1015 464.0 981.5Q490 948 521.0 907.0Q552 866 583.5 824.5Q615 783 645.0 743.5Q675 704 698.5 672.5Q722 641 736.5 621.0Q751 601 752 598H912V1322H756Q756 1206 756.5 1090.5Q757 975 757 859L409 1322ZM1920 1280V1664H1664V1920H512V1536H1037Q1061 1536 1081.5 1527.0Q1102 1518 1118.0 1502.0Q1134 1486 1143.0 1465.5Q1152 1445 1152 1421V499Q1152 475 1143.0 454.5Q1134 434 1118.0 418.0Q1102 402 1081.5 393.0Q1061 384 1037 384H512V128H1664V1280Z" transform="scale(1,-1)"/>
</svg>