<?xml version="1.0" encoding="UTF-8"?>
<svg xmlns="http://www.w3.org/2000/svg" viewBox="260 -2048 1532 2029">
  <path d="M1152 1536H1573Q1502 1608 1437.5 1676.0Q1373 1744 1303.0 1797.5Q1233 1851 1150.5 1883.5Q1068 1916 960 1916Q843 1916 739.0 1870.5Q635 1825 557.0 1747.0Q479 1669 433.5 1565.0Q388 1461 388 1344Q388 1232 431.0 1128.5Q474 1025 553 946L1389 109L1299 19L462 855Q365 952 312.5 1079.5Q260 1207 260 1344Q260 1440 285.0 1529.0Q310 1618 356.0 1696.0Q402 1774 466.0 1838.0Q530 1902 608.0 1948.0Q686 1994 775.0 2019.0Q864 2044 960 2044Q1044 2044 1113.5 2028.5Q1183 2013 1242.5 1985.5Q1302 1958 1354.5 1919.5Q1407 1881 1457.5 1834.5Q1508 1788 1558.0 1735.5Q1608 1683 1664 1627V2048H1792V1408H1152Z" transform="scale(1,-1)"/>
</svg>