<?xml version="1.0" encoding="UTF-8"?>
<svg xmlns="http://www.w3.org/2000/svg" viewBox="128 -2048 1920 2048">
  <path d="M1408 1024H512V1152H1408ZM512 896H1408V840Q1367 808 1336 768H512ZM512 640H1268Q1248 577 1248 512H512ZM256 128H1136Q1120 67 1120 0H128V2048H1243L1792 1499V908Q1729 928 1664 928V1408H1152V1920H256ZM1280 1536H1573L1280 1829ZM1848 335Q1894 310 1931.0 274.0Q1968 238 1994.0 194.5Q2020 151 2034.0 101.5Q2048 52 2048 0H1920Q1920 53 1900.0 99.5Q1880 146 1845.0 181.0Q1810 216 1763.5 236.0Q1717 256 1664 256Q1611 256 1564.5 236.0Q1518 216 1483.0 181.0Q1448 146 1428.0 99.5Q1408 53 1408 0H1280Q1280 52 1294.0 101.5Q1308 151 1334.0 194.5Q1360 238 1397.0 274.0Q1434 310 1480 335Q1446 370 1427.0 416.0Q1408 462 1408 512Q1408 565 1428.0 611.5Q1448 658 1483.0 693.0Q1518 728 1564.5 748.0Q1611 768 1664 768Q1717 768 1763.5 748.0Q1810 728 1845.0 693.0Q1880 658 1900.0 611.5Q1920 565 1920 512Q1920 462 1901.0 416.0Q1882 370 1848 335ZM1664 384Q1691 384 1714.0 394.0Q1737 404 1754.5 421.5Q1772 439 1782.0 462.0Q1792 485 1792 512Q1792 539 1782.0 562.0Q1772 585 1754.5 602.5Q1737 620 1714.0 630.0Q1691 640 1664 640Q1637 640 1614.0 630.0Q1591 620 1573.5 602.5Q1556 585 1546.0 562.0Q1536 539 1536 512Q1536 485 1546.0 462.0Q1556 439 1573.5 421.5Q1591 404 1614.0 394.0Q1637 384 1664 384Z" transform="scale(1,-1)"/>
</svg>