<?xml version="1.0" encoding="UTF-8"?>
<svg xmlns="http://www.w3.org/2000/svg" viewBox="0 -2048 1920 2048">
  <path d="M768 768Q768 686 734.5 611.5Q701 537 640 482V24L384 152L128 24V482Q67 537 33.5 611.5Q0 686 0 768Q0 847 30.0 917.0Q60 987 112.5 1039.5Q165 1092 234.5 1122.0Q304 1152 384 1152Q463 1152 533.0 1122.0Q603 1092 655.5 1039.5Q708 987 738.0 917.0Q768 847 768 768ZM512 406Q448 384 384 384Q320 384 256 406V232L384 296L512 232ZM384 512Q437 512 483.5 532.0Q530 552 565.0 587.0Q600 622 620.0 668.5Q640 715 640 768Q640 821 620.0 867.5Q600 914 565.0 949.0Q530 984 483.5 1004.0Q437 1024 384 1024Q331 1024 284.5 1004.0Q238 984 203.0 949.0Q168 914 148.0 867.5Q128 821 128 768Q128 715 148.0 668.5Q168 622 203.0 587.0Q238 552 284.5 532.0Q331 512 384 512ZM1920 1243V0H768V128H1792V1152H1280V1664H512V1263Q447 1280 384 1280V1792H1371L1536 1627V1920H256V1262Q189 1244 128 1209V2048H1664V1499ZM1701 1280 1408 1573V1280Z" transform="scale(1,-1)"/>
</svg>