<?xml version="1.0" encoding="UTF-8"?>
<svg xmlns="http://www.w3.org/2000/svg" viewBox="128 -2048 1914 2048">
  <path d="M256 256H768V128H128V1792H640Q640 1845 660.0 1891.5Q680 1938 715.0 1973.0Q750 2008 796.5 2028.0Q843 2048 896 2048Q949 2048 995.5 2028.0Q1042 2008 1077.0 1973.0Q1112 1938 1132.0 1891.5Q1152 1845 1152 1792H1664V1152H1536V1664H1408V1408H384V1664H256ZM512 1664V1536H1280V1664H1024V1792Q1024 1819 1014.0 1842.0Q1004 1865 986.5 1882.5Q969 1900 946.0 1910.0Q923 1920 896 1920Q869 1920 846.0 1910.0Q823 1900 805.5 1882.5Q788 1865 778.0 1842.0Q768 1819 768 1792V1664ZM1037 723 827 512 1037 301 947 211 646 512 947 813ZM2042 512 1741 211 1651 301 1861 512 1651 723 1741 813ZM1493 1024H1621L1280 0H1152Z" transform="scale(1,-1)"/>
</svg>