<?xml version="1.0" encoding="UTF-8"?>
<svg xmlns="http://www.w3.org/2000/svg" viewBox="128 -2048 1920 2048">
  <path d="M1788 634Q1844 623 1892.0 594.5Q1940 566 1974.5 524.0Q2009 482 2028.5 429.5Q2048 377 2048 320Q2048 254 2022.5 195.5Q1997 137 1953.5 93.5Q1910 50 1852.0 25.0Q1794 0 1728 0H1472Q1406 0 1347.5 25.0Q1289 50 1245.5 93.5Q1202 137 1177.0 195.5Q1152 254 1152 320Q1152 377 1171.0 429.0Q1190 481 1224.0 522.5Q1258 564 1305.0 593.0Q1352 622 1408 634V501Q1379 491 1355.5 473.0Q1332 455 1315.0 431.0Q1298 407 1289.0 378.5Q1280 350 1280 320Q1280 280 1295.0 245.0Q1310 210 1336.0 184.0Q1362 158 1397.0 143.0Q1432 128 1472 128H1728Q1768 128 1803.0 143.0Q1838 158 1864.0 184.0Q1890 210 1905.0 245.0Q1920 280 1920 320Q1920 351 1910.5 380.0Q1901 409 1883.0 433.0Q1865 457 1840.5 475.0Q1816 493 1786 503Q1792 539 1792 576Q1792 590 1791.0 605.0Q1790 620 1788 634ZM1408 395Q1451 404 1476.0 418.5Q1501 433 1514.5 455.0Q1528 477 1532.0 507.0Q1536 537 1536 576Q1536 616 1521.0 651.0Q1506 686 1480.0 712.0Q1454 738 1419.0 753.0Q1384 768 1344 768H1088Q1048 768 1013.0 753.0Q978 738 952.0 712.0Q926 686 911.0 651.0Q896 616 896 576Q896 544 905.5 515.5Q915 487 933.0 463.0Q951 439 975.5 421.0Q1000 403 1030 393Q1024 357 1024 320Q1024 306 1025.0 291.0Q1026 276 1028 262Q972 272 924.0 301.0Q876 330 841.5 372.0Q807 414 787.5 466.5Q768 519 768 576Q768 642 793.0 700.0Q818 758 861.5 801.5Q905 845 963.5 870.5Q1022 896 1088 896H1344Q1410 896 1468.0 870.5Q1526 845 1569.5 801.5Q1613 758 1638.5 700.0Q1664 642 1664 576Q1664 522 1643.5 470.5Q1623 419 1588.0 377.0Q1553 335 1506.5 304.5Q1460 274 1408 262ZM1069 128Q1086 93 1108.5 60.5Q1131 28 1159 0H384V256H128V2048H1664V1499L1920 1243V723Q1888 738 1857.5 747.5Q1827 757 1792 764V1152H1280V1664H512V128ZM1701 1280 1408 1573V1280ZM384 384V1792H1371L1536 1627V1920H256V384Z" transform="scale(1,-1)"/>
</svg>