<?xml version="1.0" encoding="UTF-8"?>
<svg xmlns="http://www.w3.org/2000/svg" viewBox="0 -1664 2048 1152">
  <path d="M1308.045166015625 971.0Q1243.0491333007812 938.0 1190.5523376464844 889.5Q1138.0555419921875 841.0 1101.0578002929688 781.5Q1064.06005859375 722.0 1044.061279296875 653.5Q1024.0625 585.0 1024.0625 512.0H1152.0546875Q1152.0546875 591.0 1182.5528259277344 661.0Q1213.0509643554688 731.0 1265.0477905273438 783.0Q1317.0446166992188 835.0 1387.0403442382812 865.5Q1457.0360717773438 896.0 1536.03125 896.0Q1615.0264282226562 896.0 1685.0221557617188 865.5Q1755.0178833007812 835.0 1807.0147094726562 783.0Q1859.0115356445312 731.0 1889.5096740722656 661.0Q1920.0078125 591.0 1920.0078125 512.0H2048.0Q2048.0 585.0 2028.001220703125 653.5Q2008.00244140625 722.0 1971.0046997070312 781.5Q1934.0069580078125 841.0 1881.5101623535156 889.5Q1829.0133666992188 938.0 1764.017333984375 971.0Q1837.0128784179688 1025.0 1878.5103454589844 1107.0Q1920.0078125 1189.0 1920.0078125 1280.0Q1920.0078125 1359.0 1889.5096740722656 1429.0Q1859.0115356445312 1499.0 1807.0147094726562 1551.0Q1755.0178833007812 1603.0 1685.0221557617188 1633.5Q1615.0264282226562 1664.0 1536.03125 1664.0Q1457.0360717773438 1664.0 1387.0403442382812 1633.5Q1317.0446166992188 1603.0 1265.0477905273438 1551.0Q1213.0509643554688 1499.0 1182.5528259277344 1429.0Q1152.0546875 1359.0 1152.0546875 1280.0Q1152.0546875 1189.0 1193.5521545410156 1107.0Q1235.0496215820312 1025.0 1308.045166015625 971.0ZM1792.015625 1280.0Q1792.015625 1227.0 1771.5168762207031 1180.5Q1751.0181274414062 1134.0 1716.5202331542969 1099.5Q1682.0223388671875 1065.0 1635.5251770019531 1044.5Q1589.0280151367188 1024.0 1536.03125 1024.0Q1484.034423828125 1024.0 1437.0372924804688 1044.5Q1390.0401611328125 1065.0 1355.5422668457031 1099.5Q1321.0443725585938 1134.0 1300.5456237792969 1180.5Q1280.046875 1227.0 1280.046875 1280.0Q1280.046875 1332.0 1300.5456237792969 1379.0Q1321.0443725585938 1426.0 1355.5422668457031 1460.5Q1390.0401611328125 1495.0 1437.0372924804688 1515.5Q1484.034423828125 1536.0 1536.03125 1536.0Q1589.0280151367188 1536.0 1635.5251770019531 1515.5Q1682.0223388671875 1495.0 1716.5202331542969 1460.5Q1751.0181274414062 1426.0 1771.5168762207031 1379.0Q1792.015625 1332.0 1792.015625 1280.0ZM0.125 1664.0V1536.0H896.0703125V1664.0ZM896.0703125 1152.0H0.125V1024.0H896.0703125ZM896.0703125 640.0H0.125V512.0H896.0703125Z" transform="scale(1,-1)"/>
</svg>