<?xml version="1.0" encoding="UTF-8"?>
<svg xmlns="http://www.w3.org/2000/svg" viewBox="0 -2048 2048 2048">
  <path d="M2048 1920V901Q1989 958 1920 998V1408H128V256H993Q1014 189 1049 128H0V1920H384V2048H512V1920H1536V2048H1664V1920ZM1920 1536V1792H1664V1664H1536V1792H512V1664H384V1792H128V1536ZM1749 869Q1816 845 1871.0 803.0Q1926 761 1965.5 706.0Q2005 651 2026.5 585.5Q2048 520 2048 448Q2048 355 2013.0 273.5Q1978 192 1917.0 131.0Q1856 70 1774.5 35.0Q1693 0 1600 0Q1507 0 1425.5 35.0Q1344 70 1283.0 131.0Q1222 192 1187.0 273.5Q1152 355 1152 448Q1152 539 1187.0 622.0Q1222 705 1288 768H1152V896H1536V512H1408V703Q1348 657 1314.0 590.5Q1280 524 1280 448Q1280 382 1305.0 323.5Q1330 265 1373.5 221.5Q1417 178 1475.5 153.0Q1534 128 1600 128Q1666 128 1724.0 153.0Q1782 178 1825.5 221.5Q1869 265 1894.5 323.5Q1920 382 1920 448Q1920 499 1904.5 545.5Q1889 592 1861.0 631.5Q1833 671 1793.5 701.0Q1754 731 1707 748Z" transform="scale(1,-1)"/>
</svg>