<?xml version="1.0" encoding="UTF-8"?>
<svg xmlns="http://www.w3.org/2000/svg" viewBox="0 -1837 2029 1837">
  <path d="M1402 741Q1441 741 1478.0 726.0Q1515 711 1543 683L1734 492Q1762 464 1777.0 427.0Q1792 390 1792 351Q1792 312 1777.0 275.0Q1762 238 1734 210L1638 114Q1575 52 1495.0 26.0Q1415 0 1329 0Q1222 0 1107.5 33.5Q993 67 879.5 127.0Q766 187 656.5 269.0Q547 351 449.5 448.5Q352 546 269.5 655.5Q187 765 127.0 878.5Q67 992 33.5 1106.0Q0 1220 0 1328Q0 1405 13.5 1459.0Q27 1513 53.5 1557.0Q80 1601 119.0 1642.0Q158 1683 210 1734Q238 1762 275.0 1777.0Q312 1792 351 1792Q390 1792 427.0 1777.0Q464 1762 492 1734L683 1543Q711 1515 726.0 1478.0Q741 1441 741 1402Q741 1363 728.0 1332.5Q715 1302 695.5 1276.5Q676 1251 653.5 1230.5Q631 1210 611.5 1191.0Q592 1172 579.0 1153.5Q566 1135 566 1115Q566 1086 587 1065L1065 587Q1086 566 1115 566Q1136 566 1154.5 579.0Q1173 592 1191.5 611.5Q1210 631 1230.5 653.5Q1251 676 1276.0 695.5Q1301 715 1331.5 728.0Q1362 741 1402 741ZM1329 128Q1390 128 1431.0 139.5Q1472 151 1505.0 172.5Q1538 194 1569.5 226.0Q1601 258 1643 300Q1664 321 1664 350Q1664 380 1643 401L1452 592Q1431 613 1401 613Q1380 613 1361.5 600.0Q1343 587 1324.5 567.5Q1306 548 1285.5 525.5Q1265 503 1240.0 483.5Q1215 464 1184.5 451.0Q1154 438 1115 438Q1075 438 1038.5 453.5Q1002 469 974 497L497 974Q469 1002 453.5 1038.5Q438 1075 438 1115Q438 1154 451.0 1184.5Q464 1215 483.5 1240.0Q503 1265 525.5 1285.5Q548 1306 567.5 1325.0Q587 1344 600.0 1362.5Q613 1381 613 1402Q613 1431 592 1452L401 1643Q380 1664 351 1664Q321 1664 300 1643Q258 1601 226.0 1569.5Q194 1538 172.5 1505.0Q151 1472 139.5 1431.0Q128 1390 128 1329Q128 1235 159.0 1133.0Q190 1031 245.0 929.0Q300 827 375.5 728.0Q451 629 540.0 540.0Q629 451 728.0 375.5Q827 300 929.0 245.0Q1031 190 1133.0 159.0Q1235 128 1329 128ZM1344 1061 979 1427 1069 1517 1344 1243 1939 1837 2029 1747Z" transform="scale(1,-1)"/>
</svg>