<?xml version="1.0" encoding="UTF-8"?>
<svg xmlns="http://www.w3.org/2000/svg" viewBox="0 -2048 2048 2048">
  <path d="M1024 2048Q1165 2048 1296.0 2011.5Q1427 1975 1541.0 1908.5Q1655 1842 1748.5 1748.5Q1842 1655 1908.5 1541.0Q1975 1427 2011.5 1296.0Q2048 1165 2048 1024Q2048 883 2011.5 752.0Q1975 621 1908.5 507.0Q1842 393 1748.5 299.5Q1655 206 1541.0 139.5Q1427 73 1296.0 36.5Q1165 0 1024 0Q883 0 752.0 36.5Q621 73 507.0 139.5Q393 206 299.5 299.5Q206 393 139.5 507.0Q73 621 36.5 751.5Q0 882 0 1024Q0 1165 36.5 1296.0Q73 1427 139.5 1541.0Q206 1655 299.5 1748.5Q393 1842 507.0 1908.5Q621 1975 751.5 2011.5Q882 2048 1024 2048ZM1024 128Q1147 128 1261.5 160.0Q1376 192 1475.5 250.5Q1575 309 1657.0 391.0Q1739 473 1797.5 572.5Q1856 672 1888.0 786.0Q1920 900 1920 1024Q1920 1147 1888.0 1261.5Q1856 1376 1797.5 1475.5Q1739 1575 1657.0 1657.0Q1575 1739 1475.5 1797.5Q1376 1856 1261.5 1888.0Q1147 1920 1024 1920Q901 1920 786.5 1888.0Q672 1856 572.5 1797.5Q473 1739 391.0 1657.0Q309 1575 250.5 1475.5Q192 1376 160.0 1261.5Q128 1147 128 1024Q128 901 160.0 786.5Q192 672 250.5 572.5Q309 473 391.0 391.0Q473 309 572.5 250.5Q672 192 786.0 160.0Q900 128 1024 128ZM1024 1696Q1117 1696 1202.5 1672.0Q1288 1648 1363.0 1604.0Q1438 1560 1499.0 1499.0Q1560 1438 1604.0 1363.0Q1648 1288 1672.0 1202.5Q1696 1117 1696 1024Q1696 931 1672.0 845.5Q1648 760 1604.0 685.0Q1560 610 1499.0 549.0Q1438 488 1363.0 444.0Q1288 400 1202.5 376.0Q1117 352 1024 352Q931 352 845.5 376.0Q760 400 685.0 444.0Q610 488 549.0 549.0Q488 610 444.0 685.0Q400 760 376.0 845.5Q352 931 352 1024Q352 1117 376.0 1202.5Q400 1288 444.0 1363.0Q488 1438 549.0 1499.0Q610 1560 685.0 1604.0Q760 1648 845.5 1672.0Q931 1696 1024 1696Z" transform="scale(1,-1)"/>
</svg>