<?xml version="1.0" encoding="UTF-8"?>
<svg xmlns="http://www.w3.org/2000/svg" viewBox="0 -2048 2048 2048">
  <path d="M1664 256V640H1792V256ZM1536 256H1408V768H1536ZM1280 1024V128H2048V0H1152V1024ZM1920 896H2048V256H1920ZM832 1536V1408H512V1792H640V1536ZM256 993V128H1024V0H128V1114Q66 1191 33.0 1282.0Q0 1373 0 1472Q0 1591 45.5 1696.0Q91 1801 169.0 1879.0Q247 1957 352.0 2002.5Q457 2048 576 2048H1792V1152H1664V1920H934Q1037 1837 1094.5 1721.0Q1152 1605 1152 1472Q1152 1353 1106.5 1248.0Q1061 1143 983.0 1065.0Q905 987 800.0 941.5Q695 896 576 896Q491 896 409.5 920.5Q328 945 256 993ZM576 1920Q483 1920 401.5 1884.5Q320 1849 259.5 1788.5Q199 1728 163.5 1646.5Q128 1565 128 1472Q128 1379 163.5 1297.5Q199 1216 259.5 1155.5Q320 1095 401.5 1059.5Q483 1024 576 1024Q669 1024 750.5 1059.5Q832 1095 892.5 1155.5Q953 1216 988.5 1297.5Q1024 1379 1024 1472Q1024 1565 988.5 1646.5Q953 1728 892.5 1788.5Q832 1849 750.5 1884.5Q669 1920 576 1920Z" transform="scale(1,-1)"/>
</svg>