<?xml version="1.0" encoding="UTF-8"?>
<svg xmlns="http://www.w3.org/2000/svg" viewBox="0 -2048 2048 2042">
  <path d="M768 1408 1008 1568 948 1868 1248 1808 1408 2048 1568 1808 1868 1868 1808 1568 2048 1408 1808 1248 1850 1038Q1820 1046 1789.5 1051.0Q1759 1056 1728 1056Q1614 1056 1513.5 1005.0Q1413 954 1345 863Q1320 899 1296.0 935.0Q1272 971 1248 1008L948 948L1008 1248ZM1150 1509 999 1408 1150 1307 1111 1111 1307 1150 1408 999 1509 1150 1705 1111 1666 1307 1817 1408 1666 1509 1705 1705 1509 1666 1408 1817 1307 1666 1111 1705ZM371 953Q371 1005 394.0 1041.0Q417 1077 445.0 1103.0Q473 1129 496.0 1150.5Q519 1172 519 1196Q519 1216 504 1231L342 1393Q327 1408 307 1408Q286 1408 271 1393Q237 1359 210.5 1333.5Q184 1308 165.5 1280.5Q147 1253 137.0 1219.0Q127 1185 127 1135Q127 1047 158.5 955.0Q190 863 240.0 776.0Q290 689 351.5 611.0Q413 533 473 473Q525 421 585.0 372.0Q645 323 710.0 281.0Q775 239 845.0 205.5Q915 172 986 152L883 50Q783 86 678.5 150.0Q574 214 476.0 298.0Q378 382 291.5 482.0Q205 582 140.0 690.0Q75 798 37.5 911.0Q0 1024 0 1134Q0 1199 11.5 1245.5Q23 1292 46.0 1330.5Q69 1369 103.0 1404.5Q137 1440 181 1484Q206 1509 239.0 1522.5Q272 1536 307 1536Q342 1536 375.0 1522.5Q408 1509 433 1484L595 1322Q620 1297 633.5 1264.0Q647 1231 647 1196Q647 1145 624.0 1109.5Q601 1074 573.0 1047.0Q545 1020 522.0 998.5Q499 977 499 953Q499 933 514 918L918 514Q933 499 953 499Q969 499 983.5 509.5Q998 520 1013.0 536.0Q1028 552 1045.0 571.0Q1062 590 1083.0 606.0Q1104 622 1130.5 632.5Q1157 643 1192 643Q1239 643 1280 622V455Q1272 463 1262.5 474.0Q1253 485 1242.0 495.0Q1231 505 1219.0 512.0Q1207 519 1195 519Q1179 519 1165.0 508.0Q1151 497 1136.0 481.0Q1121 465 1103.5 446.0Q1086 427 1064.5 411.0Q1043 395 1015.5 384.0Q988 373 953 373Q918 373 885.0 385.5Q852 398 827 423L423 827Q398 852 384.5 885.0Q371 918 371 953ZM1728 896Q1794 896 1852.0 870.5Q1910 845 1953.5 801.5Q1997 758 2022.5 700.0Q2048 642 2048 576Q2048 510 2022.5 451.5Q1997 393 1953.5 349.5Q1910 306 1852.0 281.0Q1794 256 1728 256Q1681 256 1636.0 269.5Q1591 283 1552 309L1248 6L1158 96L1461 400Q1435 439 1421.5 484.0Q1408 529 1408 576Q1408 642 1433.0 700.0Q1458 758 1501.5 801.5Q1545 845 1603.5 870.5Q1662 896 1728 896ZM1728 384Q1768 384 1803.0 399.0Q1838 414 1864.0 440.0Q1890 466 1905.0 501.0Q1920 536 1920 576Q1920 616 1905.0 651.0Q1890 686 1864.0 712.0Q1838 738 1803.0 753.0Q1768 768 1728 768Q1688 768 1653.0 753.0Q1618 738 1592.0 712.0Q1566 686 1551.0 651.0Q1536 616 1536 576Q1536 536 1551.0 501.0Q1566 466 1592.0 440.0Q1618 414 1653.0 399.0Q1688 384 1728 384Z" transform="scale(1,-1)"/>
</svg>