<?xml version="1.0" encoding="UTF-8"?>
<svg xmlns="http://www.w3.org/2000/svg" viewBox="0 -2048 2048 2048">
  <path d="M1024 1920Q1082 1920 1137.5 1917.0Q1193 1914 1247.0 1905.5Q1301 1897 1354.5 1882.5Q1408 1868 1462 1845Q1595 1788 1703.5 1697.0Q1812 1606 1888.5 1490.5Q1965 1375 2006.5 1240.0Q2048 1105 2048 960Q2048 827 2014.0 704.5Q1980 582 1917.5 475.0Q1855 368 1767.5 280.5Q1680 193 1573.0 130.5Q1466 68 1343.5 34.0Q1221 0 1088 0Q893 0 720.0 72.0Q547 144 409 281L364 326L1024 987ZM1088 128Q1203 128 1309.0 158.0Q1415 188 1507.5 242.0Q1600 296 1676.0 372.0Q1752 448 1806.0 540.5Q1860 633 1890.0 739.0Q1920 845 1920 960Q1920 1068 1893.0 1169.5Q1866 1271 1817.0 1360.5Q1768 1450 1698.0 1525.5Q1628 1601 1543.0 1657.0Q1458 1713 1359.0 1747.5Q1260 1782 1152 1790V933L547 328Q661 230 799.5 179.0Q938 128 1088 128ZM896 1152H0Q0 1276 32.0 1390.5Q64 1505 122.5 1604.5Q181 1704 262.5 1785.5Q344 1867 443.5 1925.5Q543 1984 657.5 2016.0Q772 2048 896 2048ZM768 1910Q647 1889 541.5 1833.5Q436 1778 353.0 1695.0Q270 1612 214.5 1506.5Q159 1401 138 1280H768ZM864 1024 240 400Q122 528 61.0 689.0Q0 850 0 1024ZM138 896Q151 815 179.0 738.5Q207 662 252 593L555 896Z" transform="scale(1,-1)"/>
</svg>