<?xml version="1.0" encoding="UTF-8"?>
<svg xmlns="http://www.w3.org/2000/svg" viewBox="256 -2048 1408 2048">
  <path d="M1664 1024H1536V0H384V1024H256V1152H517Q524 1205 544.0 1254.5Q564 1304 594.0 1346.5Q624 1389 664.0 1424.5Q704 1460 752 1485Q698 1531 669.0 1594.5Q640 1658 640 1728Q640 1794 665.0 1852.0Q690 1910 733.5 1953.5Q777 1997 835.5 2022.5Q894 2048 960 2048Q1026 2048 1084.0 2022.5Q1142 1997 1185.5 1953.5Q1229 1910 1254.5 1852.0Q1280 1794 1280 1728Q1280 1658 1251.0 1594.5Q1222 1531 1168 1485Q1216 1460 1256.0 1424.5Q1296 1389 1326.0 1346.5Q1356 1304 1376.0 1254.5Q1396 1205 1403 1152H1664ZM768 1728Q768 1688 783.0 1653.0Q798 1618 824.0 1592.0Q850 1566 885.0 1551.0Q920 1536 960 1536Q1000 1536 1035.0 1551.0Q1070 1566 1096.0 1592.0Q1122 1618 1137.0 1653.0Q1152 1688 1152 1728Q1152 1768 1137.0 1803.0Q1122 1838 1096.0 1864.0Q1070 1890 1035.0 1905.0Q1000 1920 960 1920Q920 1920 885.0 1905.0Q850 1890 824.0 1864.0Q798 1838 783.0 1803.0Q768 1768 768 1728ZM960 1408Q903 1408 851.0 1389.0Q799 1370 757.5 1336.0Q716 1302 687.0 1255.0Q658 1208 646 1152H1274Q1262 1208 1233.0 1255.0Q1204 1302 1162.5 1336.0Q1121 1370 1069.0 1389.0Q1017 1408 960 1408ZM1408 1024H512V128H1408Z" transform="scale(1,-1)"/>
</svg>