<?xml version="1.0" encoding="UTF-8"?>
<svg xmlns="http://www.w3.org/2000/svg" viewBox="0 -2048 2048 2048">
  <path d="M1099 896 971 768H512Q406 768 312.5 808.0Q219 848 149.5 917.5Q80 987 40.0 1080.5Q0 1174 0 1280Q0 1386 40.0 1479.5Q80 1573 149.5 1642.5Q219 1712 312.5 1752.0Q406 1792 512 1792Q558 1792 605 1783Q688 1909 812.0 1978.5Q936 2048 1088 2048Q1199 2048 1297.5 2009.0Q1396 1970 1472.0 1901.5Q1548 1833 1597.5 1739.5Q1647 1646 1661 1536Q1721 1536 1778.5 1518.0Q1836 1500 1884.5 1466.5Q1933 1433 1969.5 1385.5Q2006 1338 2025 1280H1884Q1858 1324 1827.5 1349.5Q1797 1375 1762.0 1388.0Q1727 1401 1688.0 1404.5Q1649 1408 1606 1408H1536V1422Q1536 1452 1535.5 1480.0Q1535 1508 1531.5 1535.0Q1528 1562 1521.0 1589.5Q1514 1617 1501 1647Q1474 1709 1432.0 1759.5Q1390 1810 1336.0 1845.5Q1282 1881 1219.0 1900.5Q1156 1920 1088 1920Q1019 1920 954.0 1899.0Q889 1878 833.5 1839.5Q778 1801 736.0 1747.5Q694 1694 670 1629Q594 1664 512 1664Q432 1664 362.0 1634.0Q292 1604 240.0 1552.0Q188 1500 158.0 1430.0Q128 1360 128 1280Q128 1200 158.0 1130.0Q188 1060 240.0 1008.0Q292 956 362.0 926.0Q432 896 512 896ZM1536 1152H2048V640L1408 0L896 512ZM1920 692V1024H1588L1076 512L1408 180ZM1728 768Q1702 768 1683.0 787.0Q1664 806 1664 832Q1664 858 1683.0 877.0Q1702 896 1728 896Q1754 896 1773.0 877.0Q1792 858 1792 832Q1792 806 1773.0 787.0Q1754 768 1728 768Z" transform="scale(1,-1)"/>
</svg>