<?xml version="1.0" encoding="UTF-8"?>
<svg xmlns="http://www.w3.org/2000/svg" viewBox="0 -1792 2048 1792">
  <path d="M1764 459Q1829 426 1881.5 377.5Q1934 329 1971.0 269.5Q2008 210 2028.0 141.5Q2048 73 2048 0H1920Q1920 79 1889.5 149.0Q1859 219 1807.0 271.0Q1755 323 1685.0 353.5Q1615 384 1536 384Q1457 384 1387.0 353.5Q1317 323 1265.0 271.0Q1213 219 1182.5 149.0Q1152 79 1152 0H1024Q1024 73 1044.0 141.5Q1064 210 1101.0 269.5Q1138 329 1190.5 377.5Q1243 426 1308 459Q1235 513 1193.5 595.0Q1152 677 1152 768Q1152 847 1182.5 917.0Q1213 987 1265.0 1039.0Q1317 1091 1387.0 1121.5Q1457 1152 1536 1152Q1615 1152 1685.0 1121.5Q1755 1091 1807.0 1039.0Q1859 987 1889.5 917.0Q1920 847 1920 768Q1920 677 1878.5 595.0Q1837 513 1764 459ZM1536 512Q1588 512 1635.0 532.5Q1682 553 1716.5 587.5Q1751 622 1771.5 668.5Q1792 715 1792 768Q1792 820 1771.5 867.0Q1751 914 1716.5 948.5Q1682 983 1635.0 1003.5Q1588 1024 1536 1024Q1483 1024 1436.5 1003.5Q1390 983 1355.5 948.5Q1321 914 1300.5 867.0Q1280 820 1280 768Q1280 715 1300.5 668.5Q1321 622 1355.5 587.5Q1390 553 1436.5 532.5Q1483 512 1536 512ZM1024 768H0V1792H1792V1241Q1731 1276 1664 1294V1664H128V896H1024Z" transform="scale(1,-1)"/>
</svg>