<?xml version="1.0" encoding="UTF-8"?>
<svg xmlns="http://www.w3.org/2000/svg" viewBox="128 -2048 1792 2048">
  <path d="M1920 0H1792Q1792 106 1764.5 204.0Q1737 302 1687.0 387.5Q1637 473 1567.0 543.0Q1497 613 1411.5 663.0Q1326 713 1228.0 740.5Q1130 768 1024 768Q918 768 820.0 740.5Q722 713 636.5 663.0Q551 613 481.0 543.0Q411 473 361.0 387.5Q311 302 283.5 204.0Q256 106 256 0H128Q128 145 170.5 276.0Q213 407 291.0 516.5Q369 626 478.5 709.5Q588 793 722 844Q598 911 512 1024H448Q408 1024 373.0 1039.0Q338 1054 312.0 1080.0Q286 1106 271.0 1141.0Q256 1176 256 1216V1472Q256 1510 270.0 1544.0Q284 1578 308.5 1604.0Q333 1630 366.0 1646.0Q399 1662 437 1664Q476 1752 536.5 1823.0Q597 1894 673.5 1944.0Q750 1994 839.0 2021.0Q928 2048 1024 2048Q1120 2048 1209.0 2021.0Q1298 1994 1374.5 1944.0Q1451 1894 1511.5 1823.0Q1572 1752 1611 1664Q1649 1662 1682.0 1646.0Q1715 1630 1739.5 1604.0Q1764 1578 1778.0 1544.0Q1792 1510 1792 1472V1216Q1792 1176 1777.0 1141.0Q1762 1106 1736.0 1080.0Q1710 1054 1675.0 1039.0Q1640 1024 1600 1024Q1570 1024 1543 1033Q1500 974 1445.5 926.0Q1391 878 1326 844Q1460 793 1569.5 709.5Q1679 626 1757.0 516.5Q1835 407 1877.5 276.0Q1920 145 1920 0ZM1664 1472Q1664 1498 1645.0 1517.0Q1626 1536 1600 1536Q1574 1536 1555.0 1517.0Q1536 1498 1536 1472V1216Q1536 1190 1555.0 1171.0Q1574 1152 1600 1152Q1626 1152 1645.0 1171.0Q1664 1190 1664 1216ZM384 1216Q384 1190 403.0 1171.0Q422 1152 448 1152H512V1472Q512 1498 493.0 1517.0Q474 1536 448 1536Q422 1536 403.0 1517.0Q384 1498 384 1472ZM685 1024Q755 962 842.5 929.0Q930 896 1024 896Q1086 896 1145.0 910.5Q1204 925 1257.5 952.5Q1311 980 1357.5 1019.5Q1404 1059 1440 1110Q1424 1133 1416.0 1160.5Q1408 1188 1408 1216V1472Q1408 1518 1428.5 1559.0Q1449 1600 1487 1627Q1455 1694 1406.5 1748.0Q1358 1802 1298.0 1840.5Q1238 1879 1168.0 1899.5Q1098 1920 1024 1920Q950 1920 880.0 1899.5Q810 1879 750.0 1840.5Q690 1802 641.5 1748.0Q593 1694 561 1627Q599 1600 619.5 1559.0Q640 1518 640 1472V1152H768Q768 1179 778.0 1202.0Q788 1225 805.5 1242.5Q823 1260 846.0 1270.0Q869 1280 896 1280Q923 1280 946.0 1270.0Q969 1260 986.5 1242.5Q1004 1225 1014.0 1202.0Q1024 1179 1024 1152Q1024 1125 1014.0 1102.0Q1004 1079 986.5 1061.5Q969 1044 946.0 1034.0Q923 1024 896 1024Z" transform="scale(1,-1)"/>
</svg>