<?xml version="1.0" encoding="UTF-8"?>
<svg xmlns="http://www.w3.org/2000/svg" viewBox="160 -1920 1888 1920">
  <path d="M651 1152 992 128H853L768 384H384L299 128H160L501 1152ZM725 512 576 960 427 512ZM1410 1126Q1409 1066 1410.5 1005.5Q1412 945 1414 885Q1415 860 1406.0 835.0Q1397 810 1376 795Q1362 785 1336.5 779.5Q1311 774 1282.0 771.5Q1253 769 1225.5 768.5Q1198 768 1182 768Q1176 768 1163.0 768.5Q1150 769 1145 774Q1142 777 1138.0 790.0Q1134 803 1132 808Q1125 834 1115.5 856.5Q1106 879 1092 902Q1126 898 1160.0 896.5Q1194 895 1228 895Q1252 895 1264.5 902.5Q1277 910 1277 936V1126H958Q918 1126 878.0 1125.0Q838 1124 798 1123Q790 1123 786 1126Q784 1132 784 1137V1233Q784 1236 784.5 1240.5Q785 1245 787 1247Q793 1249 798 1249Q838 1248 878.0 1247.0Q918 1246 958 1246H1277Q1275 1272 1274.5 1298.5Q1274 1325 1269 1351Q1291 1349 1312.0 1347.0Q1333 1345 1355 1343Q1390 1368 1422.0 1396.0Q1454 1424 1486 1453H1178Q1136 1453 1094.5 1452.0Q1053 1451 1011 1450Q1003 1450 999 1453Q997 1459 997 1464V1559Q997 1563 999 1571Q1007 1573 1011 1573Q1053 1572 1094.5 1571.0Q1136 1570 1178 1570H1551Q1567 1570 1581.0 1574.5Q1595 1579 1606 1579Q1614 1579 1629.0 1567.0Q1644 1555 1659.0 1539.0Q1674 1523 1685.5 1506.5Q1697 1490 1697 1482Q1697 1472 1690.5 1466.5Q1684 1461 1676 1457Q1662 1450 1649.0 1439.0Q1636 1428 1624 1418Q1572 1375 1519.5 1334.5Q1467 1294 1410 1257V1246H1731Q1771 1246 1810.0 1247.0Q1849 1248 1889 1249Q1896 1249 1902 1246Q1904 1238 1904 1233V1137Q1904 1133 1902 1125Q1894 1123 1889 1123Q1849 1124 1810.0 1125.0Q1771 1126 1731 1126ZM806 1504Q807 1573 807.5 1641.0Q808 1709 806 1778Q806 1783 808 1789Q816 1791 821 1791Q863 1790 904.5 1789.0Q946 1788 988 1788H1263Q1263 1820 1262.5 1854.0Q1262 1888 1254 1920Q1323 1920 1391 1914Q1397 1913 1403.5 1911.0Q1410 1909 1410 1901Q1410 1895 1407.0 1889.0Q1404 1883 1402 1877Q1400 1872 1398.5 1861.5Q1397 1851 1396.5 1839.5Q1396 1828 1396.0 1817.5Q1396 1807 1396 1801V1788H1692Q1734 1788 1775.5 1789.0Q1817 1790 1859 1791Q1866 1791 1872 1788Q1875 1783 1875 1778Q1874 1761 1873.0 1742.5Q1872 1724 1872 1707V1649Q1872 1613 1873.0 1576.5Q1874 1540 1875 1504Q1875 1501 1874.5 1497.0Q1874 1493 1872 1491Q1864 1489 1859 1489Q1854 1489 1836.0 1488.5Q1818 1488 1798.0 1488.0Q1778 1488 1761.5 1488.5Q1745 1489 1742 1492Q1740 1503 1739.5 1527.5Q1739 1552 1739.5 1579.5Q1740 1607 1740.5 1632.5Q1741 1658 1741 1672H939Q939 1667 939.5 1652.0Q940 1637 940.0 1617.5Q940 1598 940.0 1576.0Q940 1554 940.0 1535.5Q940 1517 939.0 1504.5Q938 1492 936 1490Q928 1488 923 1488H821Q810 1488 808.0 1491.0Q806 1494 806 1504ZM2048 384V256H1792V0H1664V256H1408V384H1664V640H1792V384Z" transform="scale(1,-1)"/>
</svg>