<?xml version="1.0" encoding="UTF-8"?>
<svg xmlns="http://www.w3.org/2000/svg" viewBox="0 -2048 2048 2048">
  <path d="M1196 647Q1231 647 1264.0 633.5Q1297 620 1322 595L1484 433Q1509 408 1522.5 375.0Q1536 342 1536 307Q1536 272 1522.5 239.0Q1509 206 1484 181Q1440 137 1404.5 103.0Q1369 69 1330.5 46.0Q1292 23 1246.0 11.5Q1200 0 1134 0Q1042 0 944.5 28.5Q847 57 750.0 108.0Q653 159 559.5 229.5Q466 300 383.0 383.5Q300 467 229.5 560.0Q159 653 108.0 750.5Q57 848 28.5 945.5Q0 1043 0 1135Q0 1200 12.0 1246.5Q24 1293 47.0 1331.0Q70 1369 103.5 1404.5Q137 1440 181 1484Q206 1509 239.0 1522.5Q272 1536 307 1536Q342 1536 375.0 1522.5Q408 1509 433 1484L595 1322Q620 1297 633.5 1264.0Q647 1231 647 1196Q647 1162 636.0 1135.0Q625 1108 608.5 1086.0Q592 1064 573.0 1046.5Q554 1029 537.5 1013.5Q521 998 510.0 983.5Q499 969 499 953Q499 933 514 918L918 514Q933 499 953 499Q969 499 983.5 510.0Q998 521 1013.5 537.5Q1029 554 1046.5 573.0Q1064 592 1085.5 608.5Q1107 625 1134.0 636.0Q1161 647 1196 647ZM1136 128Q1186 128 1219.5 137.5Q1253 147 1280.0 165.5Q1307 184 1333.0 210.5Q1359 237 1393 271Q1408 286 1408 307Q1408 327 1393 342L1231 504Q1217 518 1196 518Q1172 518 1150.0 495.0Q1128 472 1101.5 444.0Q1075 416 1040.0 393.0Q1005 370 953 370Q918 370 885.0 384.0Q852 398 827 423L423 827Q398 852 384.0 885.0Q370 918 370 953Q370 987 381.0 1014.5Q392 1042 408.5 1063.5Q425 1085 444.5 1102.5Q464 1120 480.5 1135.5Q497 1151 508.0 1165.5Q519 1180 519 1196Q519 1216 504 1231L342 1393Q327 1408 307 1408Q286 1408 271 1393Q237 1359 210.5 1333.0Q184 1307 165.5 1280.0Q147 1253 137.5 1219.5Q128 1186 128 1136Q128 1057 154.0 971.5Q180 886 226.0 800.5Q272 715 335.5 631.5Q399 548 473.5 473.5Q548 399 631.5 335.5Q715 272 800.5 226.0Q886 180 971.5 154.0Q1057 128 1136 128ZM1808 1248 1868 948 1568 1008 1408 768 1248 1008 948 948 1008 1248 768 1408 1008 1568 948 1868 1248 1808 1408 2048 1568 1808 1868 1868 1808 1568 2048 1408ZM1705 1111Q1694 1160 1684.5 1208.5Q1675 1257 1666 1307Q1704 1333 1741.5 1358.0Q1779 1383 1817 1408Q1779 1433 1741.5 1458.0Q1704 1483 1666 1509Q1675 1558 1685.0 1607.0Q1695 1656 1705 1705Q1656 1694 1607.5 1684.5Q1559 1675 1509 1666Q1483 1704 1458.0 1741.5Q1433 1779 1408 1817Q1383 1779 1358.0 1741.5Q1333 1704 1307 1666Q1257 1675 1208.5 1684.5Q1160 1694 1111 1705Q1122 1656 1131.5 1607.5Q1141 1559 1150 1509Q1112 1483 1074.5 1458.0Q1037 1433 999 1408Q1037 1383 1074.5 1358.0Q1112 1333 1150 1307Q1141 1258 1131.0 1209.0Q1121 1160 1111 1111Q1160 1122 1208.5 1131.5Q1257 1141 1307 1150Q1333 1112 1358.0 1074.5Q1383 1037 1408 999Q1433 1037 1458.0 1074.5Q1483 1112 1509 1150Q1559 1141 1607.5 1131.5Q1656 1122 1705 1111Z" transform="scale(1,-1)"/>
</svg>