<?xml version="1.0" encoding="UTF-8"?>
<svg xmlns="http://www.w3.org/2000/svg" viewBox="0 -2048 2048 2048">
  <path d="M1024 2048Q1165 2048 1295.5 2011.5Q1426 1975 1540.0 1908.0Q1654 1841 1747.5 1747.5Q1841 1654 1908.0 1540.0Q1975 1426 2011.5 1295.5Q2048 1165 2048 1024Q2048 883 2011.5 752.5Q1975 622 1908.0 508.0Q1841 394 1747.5 300.5Q1654 207 1540.0 140.0Q1426 73 1295.5 36.5Q1165 0 1024 0Q883 0 752.5 36.5Q622 73 508.0 140.0Q394 207 300.5 300.5Q207 394 140.0 508.0Q73 622 36.5 752.5Q0 883 0 1024Q0 1165 36.5 1295.5Q73 1426 140.0 1540.0Q207 1654 300.5 1747.5Q394 1841 508.0 1908.0Q622 1975 752.5 2011.5Q883 2048 1024 2048ZM1024 128Q1188 128 1337.5 184.0Q1487 240 1611 347L347 1611Q240 1487 184.0 1337.5Q128 1188 128 1024Q128 900 160.0 785.5Q192 671 250.5 571.5Q309 472 390.5 390.5Q472 309 571.5 250.5Q671 192 785.5 160.0Q900 128 1024 128ZM1701 437Q1808 561 1864.0 710.5Q1920 860 1920 1024Q1920 1148 1888.0 1262.5Q1856 1377 1797.5 1476.5Q1739 1576 1657.5 1657.5Q1576 1739 1476.5 1797.5Q1377 1856 1262.5 1888.0Q1148 1920 1024 1920Q860 1920 710.5 1864.0Q561 1808 437 1701Z" transform="scale(1,-1)"/>
</svg>