<?xml version="1.0" encoding="UTF-8"?>
<svg xmlns="http://www.w3.org/2000/svg" viewBox="384 -2048 1280 2048">
  <path d="M1024 1024Q944 1024 874.5 1054.0Q805 1084 752.5 1136.5Q700 1189 670.0 1258.5Q640 1328 640 1408Q640 1487 670.0 1557.0Q700 1627 752.5 1679.5Q805 1732 874.5 1762.0Q944 1792 1024 1792Q1103 1792 1173.0 1762.0Q1243 1732 1295.5 1679.5Q1348 1627 1378.0 1557.0Q1408 1487 1408 1408Q1408 1328 1378.0 1258.5Q1348 1189 1295.5 1136.5Q1243 1084 1173.0 1054.0Q1103 1024 1024 1024ZM1024 1664Q971 1664 924.5 1644.0Q878 1624 843.0 1589.0Q808 1554 788.0 1507.5Q768 1461 768 1408Q768 1355 788.0 1308.5Q808 1262 843.0 1227.0Q878 1192 924.5 1172.0Q971 1152 1024 1152Q1077 1152 1123.5 1172.0Q1170 1192 1205.0 1227.0Q1240 1262 1260.0 1308.5Q1280 1355 1280 1408Q1280 1461 1260.0 1507.5Q1240 1554 1205.0 1589.0Q1170 1624 1123.5 1644.0Q1077 1664 1024 1664ZM1664 1408Q1664 1304 1631.5 1205.5Q1599 1107 1536 1024V0L1024 256L512 0V1024Q449 1107 416.5 1205.5Q384 1304 384 1408Q384 1541 434.0 1657.5Q484 1774 571.0 1861.0Q658 1948 774.5 1998.0Q891 2048 1024 2048Q1157 2048 1273.5 1998.0Q1390 1948 1477.0 1861.0Q1564 1774 1614.0 1657.5Q1664 1541 1664 1408ZM1024 1920Q918 1920 825.0 1879.5Q732 1839 662.5 1769.5Q593 1700 552.5 1607.0Q512 1514 512 1408Q512 1302 552.5 1209.0Q593 1116 662.5 1046.5Q732 977 825.0 936.5Q918 896 1024 896Q1130 896 1223.0 936.5Q1316 977 1385.5 1046.5Q1455 1116 1495.5 1209.0Q1536 1302 1536 1408Q1536 1514 1495.5 1607.0Q1455 1700 1385.5 1769.5Q1316 1839 1223.0 1879.5Q1130 1920 1024 1920ZM1408 192V896Q1325 833 1226.5 800.5Q1128 768 1024 768Q920 768 821.5 800.5Q723 833 640 896V192L1024 384Z" transform="scale(1,-1)"/>
</svg>