<?xml version="1.0" encoding="UTF-8"?>
<svg xmlns="http://www.w3.org/2000/svg" viewBox="0 -1664 2048 1152">
  <path d="M740 971Q805 938 857.5 889.5Q910 841 947.0 781.5Q984 722 1004.0 653.5Q1024 585 1024 512H896Q896 591 865.5 661.0Q835 731 783.0 783.0Q731 835 661.0 865.5Q591 896 512 896Q433 896 363.0 865.5Q293 835 241.0 783.0Q189 731 158.5 661.0Q128 591 128 512H0Q0 585 20.0 653.5Q40 722 77.0 781.5Q114 841 166.5 889.5Q219 938 284 971Q211 1025 169.5 1107.0Q128 1189 128 1280Q128 1359 158.5 1429.0Q189 1499 241.0 1551.0Q293 1603 363.0 1633.5Q433 1664 512 1664Q591 1664 661.0 1633.5Q731 1603 783.0 1551.0Q835 1499 865.5 1429.0Q896 1359 896 1280Q896 1189 854.5 1107.0Q813 1025 740 971ZM256 1280Q256 1227 276.5 1180.5Q297 1134 331.5 1099.5Q366 1065 412.5 1044.5Q459 1024 512 1024Q564 1024 611.0 1044.5Q658 1065 692.5 1099.5Q727 1134 747.5 1180.5Q768 1227 768 1280Q768 1332 747.5 1379.0Q727 1426 692.5 1460.5Q658 1495 611.0 1515.5Q564 1536 512 1536Q459 1536 412.5 1515.5Q366 1495 331.5 1460.5Q297 1426 276.5 1379.0Q256 1332 256 1280ZM2048 1664V1536H1152V1664ZM1152 1152H2048V1024H1152ZM1152 640H2048V512H1152Z" transform="scale(1,-1)"/>
</svg>