<?xml version="1.0" encoding="UTF-8"?>
<svg xmlns="http://www.w3.org/2000/svg" viewBox="128 -1152 1792 256">
  <path d="M256 1152Q283 1152 306.0 1142.0Q329 1132 346.5 1114.5Q364 1097 374.0 1074.0Q384 1051 384 1024Q384 997 374.0 974.0Q364 951 346.5 933.5Q329 916 306.0 906.0Q283 896 256 896Q229 896 206.0 906.0Q183 916 165.5 933.5Q148 951 138.0 974.0Q128 997 128 1024Q128 1051 138.0 1074.0Q148 1097 165.5 1114.5Q183 1132 206.0 1142.0Q229 1152 256 1152ZM1024 1152Q1051 1152 1074.0 1142.0Q1097 1132 1114.5 1114.5Q1132 1097 1142.0 1074.0Q1152 1051 1152 1024Q1152 997 1142.0 974.0Q1132 951 1114.5 933.5Q1097 916 1074.0 906.0Q1051 896 1024 896Q997 896 974.0 906.0Q951 916 933.5 933.5Q916 951 906.0 974.0Q896 997 896 1024Q896 1051 906.0 1074.0Q916 1097 933.5 1114.5Q951 1132 974.0 1142.0Q997 1152 1024 1152ZM1792 1152Q1819 1152 1842.0 1142.0Q1865 1132 1882.5 1114.5Q1900 1097 1910.0 1074.0Q1920 1051 1920 1024Q1920 997 1910.0 974.0Q1900 951 1882.5 933.5Q1865 916 1842.0 906.0Q1819 896 1792 896Q1765 896 1742.0 906.0Q1719 916 1701.5 933.5Q1684 951 1674.0 974.0Q1664 997 1664 1024Q1664 1051 1674.0 1074.0Q1684 1097 1701.5 1114.5Q1719 1132 1742.0 1142.0Q1765 1152 1792 1152Z" transform="scale(1,-1)"/>
</svg>