<?xml version="1.0" encoding="UTF-8"?>
<svg xmlns="http://www.w3.org/2000/svg" viewBox="128 -2048 1792 1920">
  <path d="M1636 1355Q1701 1322 1753.5 1273.5Q1806 1225 1843.0 1165.5Q1880 1106 1900.0 1037.5Q1920 969 1920 896H1792Q1792 975 1761.5 1045.0Q1731 1115 1679.0 1167.0Q1627 1219 1557.0 1249.5Q1487 1280 1408 1280Q1329 1280 1259.0 1249.5Q1189 1219 1137.0 1167.0Q1085 1115 1054.5 1045.0Q1024 975 1024 896Q1024 805 982.5 723.0Q941 641 868 587Q933 554 985.5 505.5Q1038 457 1075.0 397.5Q1112 338 1132.0 269.5Q1152 201 1152 128H1024Q1024 207 993.5 277.0Q963 347 911.0 399.0Q859 451 789.0 481.5Q719 512 640 512Q561 512 491.0 481.5Q421 451 369.0 399.0Q317 347 286.5 277.0Q256 207 256 128H128Q128 201 148.0 269.5Q168 338 205.0 397.5Q242 457 294.5 505.5Q347 554 412 587Q339 641 297.5 723.0Q256 805 256 896Q256 975 286.5 1045.0Q317 1115 369.0 1167.0Q421 1219 491.0 1249.5Q561 1280 640 1280Q731 1280 813.0 1238.5Q895 1197 949 1124Q987 1199 1046.0 1258.0Q1105 1317 1180 1355Q1107 1409 1065.5 1491.0Q1024 1573 1024 1664Q1024 1743 1054.5 1813.0Q1085 1883 1137.0 1935.0Q1189 1987 1259.0 2017.5Q1329 2048 1408 2048Q1487 2048 1557.0 2017.5Q1627 1987 1679.0 1935.0Q1731 1883 1761.5 1813.0Q1792 1743 1792 1664Q1792 1573 1750.5 1491.0Q1709 1409 1636 1355ZM640 640Q692 640 739.0 660.5Q786 681 820.5 715.5Q855 750 875.5 796.5Q896 843 896 896Q896 948 875.5 995.0Q855 1042 820.5 1076.5Q786 1111 739.0 1131.5Q692 1152 640 1152Q587 1152 540.5 1131.5Q494 1111 459.5 1076.5Q425 1042 404.5 995.0Q384 948 384 896Q384 843 404.5 796.5Q425 750 459.5 715.5Q494 681 540.5 660.5Q587 640 640 640ZM1152 1664Q1152 1611 1172.5 1564.5Q1193 1518 1227.5 1483.5Q1262 1449 1308.5 1428.5Q1355 1408 1408 1408Q1460 1408 1507.0 1428.5Q1554 1449 1588.5 1483.5Q1623 1518 1643.5 1564.5Q1664 1611 1664 1664Q1664 1716 1643.5 1763.0Q1623 1810 1588.5 1844.5Q1554 1879 1507.0 1899.5Q1460 1920 1408 1920Q1355 1920 1308.5 1899.5Q1262 1879 1227.5 1844.5Q1193 1810 1172.5 1763.0Q1152 1716 1152 1664Z" transform="scale(1,-1)"/>
</svg>