<?xml version="1.0" encoding="UTF-8"?>
<svg xmlns="http://www.w3.org/2000/svg" viewBox="0 -2048 2048 2048">
  <path d="M320 1024Q346 1024 365.0 1005.0Q384 986 384 960Q384 934 365.0 915.0Q346 896 320 896Q294 896 275.0 915.0Q256 934 256 960Q256 986 275.0 1005.0Q294 1024 320 1024ZM1536 1664Q1643 1664 1741 1615Q1831 1570 1890.0 1496.5Q1949 1423 1984.5 1335.0Q2020 1247 2034.0 1150.0Q2048 1053 2048 960Q2048 867 2034.0 770.0Q2020 673 1984.5 585.0Q1949 497 1890.0 423.5Q1831 350 1741 305Q1643 256 1536 256H1408V0H384V256H0V1152Q0 1179 10.0 1202.0Q20 1225 37.5 1242.5Q55 1260 78.0 1270.0Q101 1280 128 1280H384V2048H1408V1664ZM512 1280H1280V1920H512ZM1280 640H512V128H1280ZM1536 768V1152H128V384H384V768ZM1536 384Q1610 384 1667.5 410.0Q1725 436 1767.5 480.0Q1810 524 1839.5 582.0Q1869 640 1886.5 704.0Q1904 768 1912.0 834.0Q1920 900 1920 960Q1920 1020 1912.0 1086.0Q1904 1152 1886.5 1216.0Q1869 1280 1839.5 1338.0Q1810 1396 1767.5 1440.0Q1725 1484 1667.5 1510.0Q1610 1536 1536 1536H1472Q1446 1536 1427.0 1517.0Q1408 1498 1408 1472V1344Q1408 1316 1421.0 1302.5Q1434 1289 1453.5 1284.0Q1473 1279 1495.5 1279.5Q1518 1280 1536 1280Q1563 1280 1586.0 1270.0Q1609 1260 1626.5 1242.5Q1644 1225 1654.0 1202.0Q1664 1179 1664 1152V768Q1664 741 1654.0 718.0Q1644 695 1626.5 677.5Q1609 660 1586.0 650.0Q1563 640 1536 640Q1518 640 1495.5 640.5Q1473 641 1453.5 636.0Q1434 631 1421.0 617.5Q1408 604 1408 576V448Q1408 422 1427.0 403.0Q1446 384 1472 384Z" transform="scale(1,-1)"/>
</svg>