<?xml version="1.0" encoding="UTF-8"?>
<svg xmlns="http://www.w3.org/2000/svg" viewBox="0 -1920 2048 1792">
  <path d="M1963 1920Q1998 1920 2023.0 1895.0Q2048 1870 2048 1835V213Q2048 178 2023.0 153.0Q1998 128 1963 128H597Q562 128 537.0 153.0Q512 178 512 213V512H85Q50 512 25.0 537.0Q0 562 0 597V1451Q0 1486 25.0 1511.0Q50 1536 85 1536H512V1835Q512 1870 537.0 1895.0Q562 1920 597 1920ZM515 1092 638 688H778L912 1360H771L691 963L578 1347H459L339 961L259 1360H112L246 688H386ZM1920 256V512H640V256ZM1920 640V960H1024V640ZM1920 1088V1408H1024V1088ZM1920 1536V1792H640V1536Z" transform="scale(1,-1)"/>
</svg>