<?xml version="1.0" encoding="UTF-8"?>
<svg xmlns="http://www.w3.org/2000/svg" viewBox="384 -2048 1280 2048">
  <path d="M1024 2048Q1112 2048 1194.0 2025.0Q1276 2002 1347.0 1960.5Q1418 1919 1476.5 1860.5Q1535 1802 1576.5 1731.0Q1618 1660 1641.0 1578.0Q1664 1496 1664 1408Q1664 1339 1647.5 1276.5Q1631 1214 1600 1152L1024 0L448 1152Q417 1214 400.5 1276.5Q384 1339 384 1408Q384 1496 407.0 1578.0Q430 1660 471.5 1731.0Q513 1802 571.5 1860.5Q630 1919 701.0 1960.5Q772 2002 854.0 2025.0Q936 2048 1024 2048ZM1500 1202Q1500 1203 1500.5 1203.0Q1501 1203 1501 1204Q1526 1251 1539.0 1303.0Q1552 1355 1552 1408Q1552 1517 1510.5 1613.0Q1469 1709 1397.0 1781.0Q1325 1853 1229.0 1894.5Q1133 1936 1024 1936Q915 1936 819.0 1894.5Q723 1853 651.0 1781.0Q579 1709 537.5 1613.0Q496 1517 496 1408Q496 1355 509.0 1303.0Q522 1251 547 1204Q547 1203 547.5 1203.0Q548 1203 548 1202L1024 250ZM1024 1784Q1102 1784 1170.5 1754.5Q1239 1725 1290.0 1674.0Q1341 1623 1370.5 1554.5Q1400 1486 1400 1408Q1400 1330 1370.5 1261.5Q1341 1193 1290.0 1142.0Q1239 1091 1170.5 1061.5Q1102 1032 1024 1032Q946 1032 877.5 1061.5Q809 1091 758.0 1142.0Q707 1193 677.5 1261.5Q648 1330 648 1408Q648 1486 677.5 1554.5Q707 1623 758.0 1674.0Q809 1725 877.5 1754.5Q946 1784 1024 1784ZM1024 1144Q1079 1144 1127.0 1164.5Q1175 1185 1211.0 1221.0Q1247 1257 1267.5 1305.0Q1288 1353 1288 1408Q1288 1463 1267.5 1511.0Q1247 1559 1211.0 1595.0Q1175 1631 1127.0 1651.5Q1079 1672 1024 1672Q969 1672 921.0 1651.5Q873 1631 837.0 1595.0Q801 1559 780.5 1511.0Q760 1463 760 1408Q760 1353 780.5 1305.0Q801 1257 837.0 1221.0Q873 1185 921.0 1164.5Q969 1144 1024 1144Z" transform="scale(1,-1)"/>
</svg>