<?xml version="1.0" encoding="UTF-8"?>
<svg xmlns="http://www.w3.org/2000/svg" viewBox="0 -2048 2048 2064">
  <path d="M128 256Q128 229 138.0 206.0Q148 183 165.5 165.5Q183 148 206.0 138.0Q229 128 256 128H896L1153 0H256Q203 0 156.5 20.0Q110 40 75.0 75.0Q40 110 20.0 156.5Q0 203 0 256V1792Q0 1841 21.5 1887.5Q43 1934 78.5 1969.5Q114 2005 160.0 2026.5Q206 2048 256 2048H1664V1367L1536 1431V1920H256Q233 1920 210.0 1908.5Q187 1897 169.0 1879.0Q151 1861 139.5 1838.0Q128 1815 128 1792V476Q157 493 189.5 502.5Q222 512 256 512H768V384H256Q229 384 206.0 374.0Q183 364 165.5 346.5Q148 329 138.0 306.0Q128 283 128 256ZM2048 1033V271L1472 -16L896 271V1033L1472 1320ZM1472 1177 1103 993 1472 809 1841 993ZM1024 350 1408 159V698L1024 890ZM1920 350V890L1536 698V159Z" transform="scale(1,-1)"/>
</svg>