<?xml version="1.0" encoding="UTF-8"?>
<svg xmlns="http://www.w3.org/2000/svg" viewBox="128 -1837 1837 1837">
  <path d="M1530 741Q1569 741 1606.0 726.0Q1643 711 1671 683Q1692 662 1718.5 638.5Q1745 615 1773.0 589.5Q1801 564 1827.0 536.0Q1853 508 1874.0 478.5Q1895 449 1907.5 417.0Q1920 385 1920 351Q1920 312 1905.0 275.0Q1890 238 1862 210Q1811 159 1770.0 120.0Q1729 81 1684.5 54.0Q1640 27 1586.0 13.5Q1532 0 1457 0Q1348 0 1233.0 34.0Q1118 68 1004.0 128.0Q890 188 781.0 271.0Q672 354 574.5 452.0Q477 550 395.0 659.0Q313 768 254.0 881.5Q195 995 161.5 1108.5Q128 1222 128 1328Q128 1404 141.5 1458.0Q155 1512 181.5 1556.0Q208 1600 247.0 1641.5Q286 1683 338 1734Q366 1762 403.0 1777.0Q440 1792 479 1792Q529 1792 575.5 1765.0Q622 1738 664.0 1699.0Q706 1660 743.0 1617.0Q780 1574 811 1543Q839 1515 854.0 1478.0Q869 1441 869 1402Q869 1363 856.0 1332.0Q843 1301 823.5 1276.5Q804 1252 781.5 1231.5Q759 1211 739.5 1192.0Q720 1173 707.0 1154.5Q694 1136 694 1115Q694 1103 712.5 1076.5Q731 1050 762.0 1015.0Q793 980 833.5 938.0Q874 896 917.5 853.0Q961 810 1004.5 768.0Q1048 726 1085.5 690.0Q1123 654 1151.5 627.0Q1180 600 1193 587Q1214 566 1243 566Q1264 566 1282.5 579.0Q1301 592 1319.5 611.5Q1338 631 1358.5 653.5Q1379 676 1404.0 695.5Q1429 715 1459.5 728.0Q1490 741 1530 741ZM1457 128Q1518 128 1559.5 139.5Q1601 151 1634.0 173.0Q1667 195 1698.5 227.0Q1730 259 1771 300Q1792 321 1792 350Q1792 363 1776.0 387.5Q1760 412 1735.5 441.5Q1711 471 1680.5 501.0Q1650 531 1621.0 556.0Q1592 581 1567.5 597.0Q1543 613 1530 613Q1509 613 1490.0 600.0Q1471 587 1452.5 567.5Q1434 548 1413.5 525.5Q1393 503 1368.0 483.5Q1343 464 1312.5 451.0Q1282 438 1243 438Q1203 438 1166.5 453.5Q1130 469 1102 497L625 974Q597 1002 581.5 1038.5Q566 1075 566 1115Q566 1154 579.0 1184.5Q592 1215 611.5 1240.0Q631 1265 653.5 1285.5Q676 1306 695.5 1325.0Q715 1344 728.0 1362.5Q741 1381 741 1402Q741 1415 725.0 1439.0Q709 1463 684.5 1492.5Q660 1522 629.5 1552.5Q599 1583 569.5 1607.5Q540 1632 516.0 1648.0Q492 1664 479 1664Q449 1664 428 1643Q387 1602 355.0 1571.0Q323 1540 301.0 1506.5Q279 1473 267.5 1432.0Q256 1391 256 1331Q256 1235 287.0 1132.5Q318 1030 373.5 927.0Q429 824 505.0 725.0Q581 626 670.0 537.5Q759 449 858.5 374.0Q958 299 1060.0 244.0Q1162 189 1263.0 158.5Q1364 128 1457 128ZM1792 1024H1152V1664H1280V1243L1875 1837L1965 1747L1371 1152H1792Z" transform="scale(1,-1)"/>
</svg>