<?xml version="1.0" encoding="UTF-8"?>
<svg xmlns="http://www.w3.org/2000/svg" viewBox="0 -2048 2047 2048">
  <path d="M1607 835Q1651 835 1691.5 818.5Q1732 802 1763 771L1983 551Q2014 520 2030.5 479.5Q2047 439 2047 395Q2047 351 2030.5 310.5Q2014 270 1983 239L1969 225Q1915 171 1870.0 129.0Q1825 87 1776.0 58.5Q1727 30 1667.0 15.0Q1607 0 1524 0Q1399 0 1267.0 39.0Q1135 78 1004.5 147.0Q874 216 748.5 311.0Q623 406 511.5 518.5Q400 631 306.0 756.5Q212 882 144.0 1012.5Q76 1143 38.0 1273.0Q0 1403 0 1525Q0 1608 14.5 1667.0Q29 1726 57.5 1775.0Q86 1824 127.5 1868.5Q169 1913 223 1967L239 1983Q270 2014 310.0 2031.0Q350 2048 395 2048Q439 2048 479.5 2031.0Q520 2014 551 1983L771 1763Q802 1732 818.5 1691.5Q835 1651 835 1607Q835 1563 820.0 1528.5Q805 1494 783.0 1466.0Q761 1438 734.5 1415.0Q708 1392 686.0 1370.0Q664 1348 649.0 1325.5Q634 1303 634 1277Q634 1239 661 1212L1212 661Q1239 634 1277 634Q1303 634 1325.5 649.0Q1348 664 1370.0 686.0Q1392 708 1415.0 734.5Q1438 761 1466.0 783.0Q1494 805 1528.5 820.0Q1563 835 1607 835ZM1524 128Q1596 128 1644.5 141.5Q1693 155 1732.0 180.5Q1771 206 1808.0 244.0Q1845 282 1893 330Q1920 357 1920 395Q1920 413 1905.5 437.5Q1891 462 1868.0 489.0Q1845 516 1816.5 544.5Q1788 573 1760.5 598.5Q1733 624 1709.5 645.5Q1686 667 1673 680Q1646 707 1607 707Q1581 707 1559.0 692.0Q1537 677 1515.0 655.0Q1493 633 1469.5 606.5Q1446 580 1418.0 558.0Q1390 536 1355.5 521.0Q1321 506 1277 506Q1233 506 1192.5 522.5Q1152 539 1121 570L570 1121Q539 1152 522.5 1192.5Q506 1233 506 1277Q506 1321 521.0 1355.5Q536 1390 558.0 1418.0Q580 1446 606.5 1469.5Q633 1493 655.0 1515.0Q677 1537 692.0 1559.0Q707 1581 707 1607Q707 1646 680 1673Q667 1686 645.5 1709.5Q624 1733 598.5 1760.5Q573 1788 544.5 1816.5Q516 1845 489.0 1868.0Q462 1891 437.5 1905.5Q413 1920 395 1920Q357 1920 330 1893Q282 1845 244.5 1808.0Q207 1771 180.5 1732.0Q154 1693 140.5 1644.5Q127 1596 127 1525Q127 1413 163.5 1294.0Q200 1175 264.5 1056.0Q329 937 417.0 821.5Q505 706 609.0 603.0Q713 500 828.5 413.0Q944 326 1062.5 262.5Q1181 199 1298.5 163.5Q1416 128 1524 128Z" transform="scale(1,-1)"/>
</svg>