<?xml version="1.0" encoding="UTF-8"?>
<svg xmlns="http://www.w3.org/2000/svg" viewBox="0 -1664 2048 1152">
  <path d="M2048 1536V640H1984Q1906 640 1841.0 673.5Q1776 707 1729 768H1235Q1207 709 1165.0 661.5Q1123 614 1070.5 581.0Q1018 548 957.5 530.0Q897 512 832 512H768V1024H128L0 1088L128 1152H768V1664H832Q897 1664 957.5 1646.0Q1018 1628 1070.5 1595.0Q1123 1562 1165.0 1514.5Q1207 1467 1235 1408H1729Q1776 1469 1841.0 1502.5Q1906 1536 1984 1536ZM1920 1397Q1896 1389 1879.0 1377.0Q1862 1365 1848.5 1350.5Q1835 1336 1823.5 1318.0Q1812 1300 1800 1280H1147L1132 1323Q1104 1402 1041.0 1457.0Q978 1512 896 1529V647Q978 664 1041.0 719.0Q1104 774 1132 853L1147 896H1800Q1812 876 1823.5 858.0Q1835 840 1848.5 825.5Q1862 811 1879.0 799.0Q1896 787 1920 779Z" transform="scale(1,-1)"/>
</svg>