<?xml version="1.0" encoding="UTF-8"?>
<svg xmlns="http://www.w3.org/2000/svg" viewBox="192 -1984 1600 1920">
  <path d="M1600 1152Q1573 1152 1550.0 1142.0Q1527 1132 1509.5 1114.5Q1492 1097 1482.0 1074.0Q1472 1051 1472 1024Q1472 997 1482.0 974.0Q1492 951 1509.5 933.5Q1527 916 1550.0 906.0Q1573 896 1600 896H1792V384H1408V320Q1408 267 1388.0 220.5Q1368 174 1333.0 139.0Q1298 104 1251.5 84.0Q1205 64 1152 64Q1099 64 1052.5 84.0Q1006 104 971.0 139.0Q936 174 916.0 220.5Q896 267 896 320V384H512V768H448Q395 768 348.5 788.0Q302 808 267.0 843.0Q232 878 212.0 924.5Q192 971 192 1024Q192 1077 212.0 1123.5Q232 1170 267.0 1205.0Q302 1240 348.5 1260.0Q395 1280 448 1280H512V1664H896V1728Q896 1781 916.0 1827.5Q936 1874 971.0 1909.0Q1006 1944 1052.5 1964.0Q1099 1984 1152 1984Q1205 1984 1251.5 1964.0Q1298 1944 1333.0 1909.0Q1368 1874 1388.0 1827.5Q1408 1781 1408 1728V1664H1792V1152ZM1600 768Q1547 768 1500.5 788.0Q1454 808 1419.0 843.0Q1384 878 1364.0 924.5Q1344 971 1344 1024Q1344 1077 1364.0 1123.5Q1384 1170 1419.0 1205.0Q1454 1240 1500.5 1260.0Q1547 1280 1600 1280H1664V1536H1280V1728Q1280 1755 1270.0 1778.0Q1260 1801 1242.5 1818.5Q1225 1836 1202.0 1846.0Q1179 1856 1152 1856Q1125 1856 1102.0 1846.0Q1079 1836 1061.5 1818.5Q1044 1801 1034.0 1778.0Q1024 1755 1024 1728V1536H640V1152H448Q421 1152 398.0 1142.0Q375 1132 357.5 1114.5Q340 1097 330.0 1074.0Q320 1051 320 1024Q320 997 330.0 974.0Q340 951 357.5 933.5Q375 916 398.0 906.0Q421 896 448 896H640V512H1024V320Q1024 293 1034.0 270.0Q1044 247 1061.5 229.5Q1079 212 1102.0 202.0Q1125 192 1152 192Q1179 192 1202.0 202.0Q1225 212 1242.5 229.5Q1260 247 1270.0 270.0Q1280 293 1280 320V512H1664V768Z" transform="scale(1,-1)"/>
</svg>