<?xml version="1.0" encoding="UTF-8"?>
<svg xmlns="http://www.w3.org/2000/svg" viewBox="128 -2048 1920 2048">
  <path d="M1980 384Q2009 360 2028.5 327.5Q2048 295 2048 256Q2048 202 2016.0 162.5Q1984 123 1932.5 94.5Q1881 66 1816.5 47.5Q1752 29 1688.0 18.5Q1624 8 1567.0 4.0Q1510 0 1472 0Q1434 0 1377.0 4.0Q1320 8 1256.0 18.5Q1192 29 1127.5 47.5Q1063 66 1011.5 94.5Q960 123 928.0 162.5Q896 202 896 256Q896 294 916.0 327.0Q936 360 965 383Q950 393 937.5 407.5Q925 422 916.0 439.5Q907 457 901.5 475.5Q896 494 896 512Q896 554 918 590Q891 602 864.0 619.0Q837 636 816.0 658.5Q795 681 781.5 708.5Q768 736 768 768Q768 822 800.0 861.5Q832 901 883.5 929.5Q935 958 999.5 976.5Q1064 995 1128.0 1005.5Q1192 1016 1249.0 1020.0Q1306 1024 1344 1024Q1382 1024 1439.0 1020.0Q1496 1016 1560.0 1005.5Q1624 995 1688.5 976.5Q1753 958 1804.5 929.5Q1856 901 1888.0 861.5Q1920 822 1920 768Q1920 748 1914.0 728.0Q1908 708 1897 691Q1924 678 1951.0 661.0Q1978 644 1999.5 621.5Q2021 599 2034.5 572.0Q2048 545 2048 512Q2048 470 2028.5 440.5Q2009 411 1980 384ZM1920 512Q1920 525 1902.5 539.0Q1885 553 1861.5 565.0Q1838 577 1816.0 585.5Q1794 594 1785 597Q1740 573 1684.0 557.0Q1628 541 1569.5 531.0Q1511 521 1453.0 516.5Q1395 512 1344 512Q1269 512 1194.5 519.5Q1120 527 1048 545Q1040 540 1032.0 531.5Q1024 523 1024 512Q1024 501 1038.0 488.5Q1052 476 1070.5 465.5Q1089 455 1106.5 447.0Q1124 439 1132 436Q1169 421 1212.0 411.0Q1255 401 1299.5 395.0Q1344 389 1388.0 386.5Q1432 384 1472 384Q1512 384 1556.0 386.5Q1600 389 1644.5 395.0Q1689 401 1731.5 411.0Q1774 421 1812 436Q1819 439 1837.0 447.0Q1855 455 1873.5 465.5Q1892 476 1906.0 488.5Q1920 501 1920 512ZM896 768Q896 757 910.0 744.5Q924 732 942.5 721.5Q961 711 978.5 703.0Q996 695 1004 692Q1041 677 1084.0 667.0Q1127 657 1171.5 651.0Q1216 645 1260.0 642.5Q1304 640 1344 640Q1384 640 1428.0 642.5Q1472 645 1516.5 651.0Q1561 657 1603.5 667.0Q1646 677 1684 692Q1691 695 1709.0 703.0Q1727 711 1745.5 721.5Q1764 732 1778.0 744.5Q1792 757 1792 768Q1792 779 1778.0 791.5Q1764 804 1745.5 814.5Q1727 825 1709.0 833.0Q1691 841 1684 844Q1646 859 1603.5 869.0Q1561 879 1516.5 885.0Q1472 891 1428.0 893.5Q1384 896 1344 896Q1304 896 1260.0 893.5Q1216 891 1171.5 885.0Q1127 879 1084.0 869.0Q1041 859 1004 844Q996 841 978.5 833.0Q961 825 942.5 814.5Q924 804 910.0 791.5Q896 779 896 768ZM1472 128Q1512 128 1556.0 130.5Q1600 133 1644.5 139.0Q1689 145 1731.5 155.0Q1774 165 1812 180Q1819 183 1837.0 191.0Q1855 199 1873.5 209.5Q1892 220 1906.0 232.5Q1920 245 1920 256Q1920 264 1911.5 273.0Q1903 282 1891.5 290.5Q1880 299 1869.0 305.5Q1858 312 1852 315Q1764 283 1665.0 269.5Q1566 256 1472 256Q1379 256 1280.5 269.0Q1182 282 1094 314Q1089 312 1077.5 305.0Q1066 298 1054.0 289.5Q1042 281 1033.0 271.5Q1024 262 1024 255Q1024 244 1038.0 232.0Q1052 220 1070.5 209.5Q1089 199 1107.0 191.0Q1125 183 1132 180Q1169 165 1212.0 155.0Q1255 145 1299.5 139.0Q1344 133 1388.0 130.5Q1432 128 1472 128ZM764 128Q781 90 807.5 58.0Q834 26 867 0H128V2048H1243L1792 1499V1152H1664V1408H1152V1920H256V128ZM1280 1536H1573L1280 1829Z" transform="scale(1,-1)"/>
</svg>