<?xml version="1.0" encoding="UTF-8"?>
<svg xmlns="http://www.w3.org/2000/svg" viewBox="128 -2048 1917 2048">
  <path d="M1326 844Q1362 830 1396.5 814.5Q1431 799 1464 780L1369 686Q1288 727 1201.5 747.5Q1115 768 1024 768Q918 768 820.0 740.5Q722 713 636.5 663.0Q551 613 481.0 543.0Q411 473 361.0 387.5Q311 302 283.5 204.0Q256 106 256 0H128Q128 142 171.0 273.5Q214 405 292.0 516.0Q370 627 479.5 711.5Q589 796 722 844Q598 911 512 1024H448Q408 1024 373.0 1039.0Q338 1054 312.0 1080.0Q286 1106 271.0 1141.0Q256 1176 256 1216V1600Q256 1640 271.0 1675.0Q286 1710 312.0 1736.0Q338 1762 373.0 1777.0Q408 1792 448 1792Q478 1792 505 1783Q550 1845 608.0 1894.5Q666 1944 733.0 1978.0Q800 2012 873.5 2030.0Q947 2048 1024 2048Q1157 2048 1273.5 1998.0Q1390 1948 1477.0 1861.0Q1564 1774 1614.0 1657.5Q1664 1541 1664 1408Q1664 1319 1640.5 1235.5Q1617 1152 1573.5 1078.5Q1530 1005 1467.0 945.0Q1404 885 1326 844ZM384 1216Q384 1190 403.0 1171.0Q422 1152 448 1152H512V1600Q512 1626 493.0 1645.0Q474 1664 448 1664Q422 1664 403.0 1645.0Q384 1626 384 1600ZM685 1024Q755 962 842.5 929.0Q930 896 1024 896Q1130 896 1223.5 936.0Q1317 976 1386.5 1045.5Q1456 1115 1496.0 1208.5Q1536 1302 1536 1408Q1536 1514 1496.0 1607.5Q1456 1701 1386.5 1770.5Q1317 1840 1223.5 1880.0Q1130 1920 1024 1920Q962 1920 903.0 1905.5Q844 1891 790.5 1863.5Q737 1836 690.5 1796.0Q644 1756 608 1706Q624 1683 632.0 1655.5Q640 1628 640 1600V1152H960Q986 1152 1005.0 1133.0Q1024 1114 1024 1088Q1024 1062 1005.0 1043.0Q986 1024 960 1024ZM1819 320 2045 93 1955 3 1728 229 1501 2 1411 93 1638 320 1411 547 1501 637 1728 410 1955 637 2045 546Z" transform="scale(1,-1)"/>
</svg>