<?xml version="1.0" encoding="UTF-8"?>
<svg xmlns="http://www.w3.org/2000/svg" viewBox="0 -2048 2048 2048">
  <path d="M2048 1573V640H1920V1536H1664Q1637 1536 1614.0 1546.0Q1591 1556 1573.5 1573.5Q1556 1591 1546.0 1614.0Q1536 1637 1536 1664V1920H640V1536H1037Q1061 1536 1081.5 1527.0Q1102 1518 1118.0 1502.0Q1134 1486 1143.0 1465.5Q1152 1445 1152 1421V499Q1152 475 1143.0 454.5Q1134 434 1118.0 418.0Q1102 402 1081.5 393.0Q1061 384 1037 384H640V128H1408V0H640Q613 0 590.0 10.0Q567 20 549.5 37.5Q532 55 522.0 78.0Q512 101 512 128V384H115Q91 384 70.5 393.0Q50 402 34.0 418.0Q18 434 9.0 454.5Q0 475 0 499V1421Q0 1445 9.0 1465.5Q18 1486 34.0 1502.0Q50 1518 70.5 1527.0Q91 1536 115 1536H512V1920Q512 1947 522.0 1970.0Q532 1993 549.5 2010.5Q567 2028 590.0 2038.0Q613 2048 640 2048H1573Q1599 2048 1622.5 2038.5Q1646 2029 1664 2011L2011 1664Q2029 1646 2038.5 1622.5Q2048 1599 2048 1573ZM754 858 654 1296H502L406 856L320 1296H170L320 624H481Q483 632 490.5 667.0Q498 702 508.0 750.5Q518 799 529.5 853.5Q541 908 551.0 954.0Q561 1000 567.5 1030.0Q574 1060 575 1061Q575 1061 582.0 1030.5Q589 1000 599.5 954.0Q610 908 622.0 853.5Q634 799 645.0 750.5Q656 702 664.0 666.5Q672 631 674 624H834L982 1296H834ZM1664 1664H1829L1664 1829ZM1792 1280V1152H1280V1280ZM1280 896V1024H1792V896ZM1920 219V512H2048V0H1536V128H1829L1427 531L1517 621Z" transform="scale(1,-1)"/>
</svg>