<?xml version="1.0" encoding="UTF-8"?>
<svg xmlns="http://www.w3.org/2000/svg" viewBox="256 -2048 1792 2048">
  <path d="M1728 896Q1754 896 1773.0 877.0Q1792 858 1792 832Q1792 806 1773.0 787.0Q1754 768 1728 768Q1702 768 1683.0 787.0Q1664 806 1664 832Q1664 858 1683.0 877.0Q1702 896 1728 896ZM1664 1152Q1743 1152 1813.0 1122.0Q1883 1092 1935.5 1039.5Q1988 987 2018.0 917.0Q2048 847 2048 768Q2048 688 2018.0 618.5Q1988 549 1935.5 496.5Q1883 444 1813.0 414.0Q1743 384 1664 384Q1599 384 1536 407V256H1408V128H1280V0H896V282L1126 512H256V1408H512V1612Q512 1700 536.5 1779.5Q561 1859 609.0 1918.5Q657 1978 729.0 2013.0Q801 2048 896 2048Q991 2048 1063.0 2013.0Q1135 1978 1183.0 1918.5Q1231 1859 1255.5 1779.5Q1280 1700 1280 1612V1408H1536V1130Q1600 1152 1664 1152ZM640 1408H1152V1612Q1152 1673 1137.5 1729.0Q1123 1785 1092.0 1827.5Q1061 1870 1012.5 1895.0Q964 1920 896 1920Q828 1920 779.5 1895.0Q731 1870 700.0 1827.5Q669 1785 654.5 1729.0Q640 1673 640 1612ZM1254 640 1291 678Q1280 724 1280 768Q1280 850 1313.5 925.0Q1347 1000 1408 1054V1280H384V640ZM1664 512Q1717 512 1763.5 532.0Q1810 552 1845.0 587.0Q1880 622 1900.0 668.5Q1920 715 1920 768Q1920 821 1900.0 867.5Q1880 914 1845.0 949.0Q1810 984 1763.5 1004.0Q1717 1024 1664 1024Q1611 1024 1564.5 1004.0Q1518 984 1483.0 949.0Q1448 914 1428.0 867.5Q1408 821 1408 768Q1408 733 1417.0 704.0Q1426 675 1438 643L1024 230V128H1152V256H1280V384H1408V475L1501 567Q1541 544 1578.0 528.0Q1615 512 1664 512Z" transform="scale(1,-1)"/>
</svg>