<?xml version="1.0" encoding="UTF-8"?>
<svg xmlns="http://www.w3.org/2000/svg" viewBox="128 -2048 1920 2048">
  <path d="M1024 1408H640V1536H1024ZM384 1024H512V896H384ZM384 1536H512V1408H384ZM384 1280H512V1152H384ZM384 768H512V640H384ZM1792 1055Q1852 1014 1899.5 961.5Q1947 909 1980.0 847.5Q2013 786 2030.5 717.0Q2048 648 2048 576Q2048 457 2002.5 352.0Q1957 247 1879.0 169.0Q1801 91 1696.0 45.5Q1591 0 1472 0H128V2048H1243L1792 1499ZM1280 1536H1573L1280 1829ZM1110 128Q1059 169 1019.5 219.5Q980 270 952.5 328.0Q925 386 910.5 448.5Q896 511 896 576Q896 695 941.5 800.0Q987 905 1065.0 983.0Q1143 1061 1248.0 1106.5Q1353 1152 1472 1152Q1572 1152 1664 1119V1408H1152V1920H256V128ZM1472 128Q1565 128 1646.5 163.5Q1728 199 1788.5 259.5Q1849 320 1884.5 401.5Q1920 483 1920 576Q1920 669 1884.5 750.5Q1849 832 1788.5 892.5Q1728 953 1646.5 988.5Q1565 1024 1472 1024Q1379 1024 1297.5 988.5Q1216 953 1155.5 892.5Q1095 832 1059.5 750.5Q1024 669 1024 576Q1024 483 1059.5 401.5Q1095 320 1155.5 259.5Q1216 199 1297.5 163.5Q1379 128 1472 128ZM640 768H762Q754 736 748.0 704.0Q742 672 739 640H640ZM640 1024H889Q866 994 846.5 962.0Q827 930 810 896H640ZM1258 1280Q1125 1239 1015 1152H640V1280ZM1536 640H1728V512H1408V896H1536Z" transform="scale(1,-1)"/>
</svg>