<?xml version="1.0" encoding="UTF-8"?>
<svg xmlns="http://www.w3.org/2000/svg" viewBox="0 -2048 2048 2048">
  <path d="M1297 2010Q1463 1965 1601.0 1869.5Q1739 1774 1838.5 1643.5Q1938 1513 1993.0 1354.5Q2048 1196 2048 1024Q2048 883 2011.5 752.0Q1975 621 1908.5 507.0Q1842 393 1748.5 299.5Q1655 206 1541.0 139.5Q1427 73 1296.0 36.5Q1165 0 1024 0Q883 0 752.0 36.5Q621 73 507.0 139.5Q393 206 299.5 299.5Q206 393 139.5 507.0Q73 621 36.5 751.5Q0 882 0 1024Q0 1164 37.0 1296.0Q74 1428 142.5 1544.5Q211 1661 309.0 1756.5Q407 1852 530 1920H256V2048H768V1536H640V1833Q523 1777 428.5 1692.5Q334 1608 267.0 1502.5Q200 1397 164.0 1275.0Q128 1153 128 1024Q128 901 160.0 786.5Q192 672 250.5 572.5Q309 473 391.0 391.0Q473 309 572.5 250.5Q672 192 786.0 160.0Q900 128 1024 128Q1147 128 1261.5 160.0Q1376 192 1475.5 250.5Q1575 309 1657.0 391.0Q1739 473 1797.5 572.5Q1856 672 1888.0 786.0Q1920 900 1920 1024Q1920 1174 1871.5 1313.0Q1823 1452 1736.0 1566.0Q1649 1680 1528.5 1763.5Q1408 1847 1263 1887L1297 2010Z" transform="scale(1,-1)"/>
</svg>