<?xml version="1.0" encoding="UTF-8"?>
<svg xmlns="http://www.w3.org/2000/svg" viewBox="0 -1664 2048 1280">
  <path d="M1536 1280V1152Q1612 1152 1681.5 1134.5Q1751 1117 1804.0 1078.5Q1857 1040 1888.5 979.5Q1920 919 1920 832Q1920 766 1894.5 708.0Q1869 650 1825.5 606.5Q1782 563 1724.0 537.5Q1666 512 1600 512H1088Q1022 512 964.0 537.5Q906 563 862.5 606.5Q819 650 793.5 708.0Q768 766 768 832Q768 919 799.5 979.5Q831 1040 884.0 1078.5Q937 1117 1006.5 1134.5Q1076 1152 1152 1152V1280H1088Q995 1280 913.5 1244.5Q832 1209 771.5 1148.5Q711 1088 675.5 1006.5Q640 925 640 832Q640 739 675.5 657.5Q711 576 771.5 515.5Q832 455 913.5 419.5Q995 384 1088 384H1600Q1693 384 1774.5 419.5Q1856 455 1916.5 515.5Q1977 576 2012.5 657.5Q2048 739 2048 832Q2048 925 2012.5 1006.5Q1977 1088 1916.5 1148.5Q1856 1209 1774.5 1244.5Q1693 1280 1600 1280ZM896 768V896Q972 896 1041.5 913.5Q1111 931 1164.0 969.5Q1217 1008 1248.5 1068.5Q1280 1129 1280 1216Q1280 1282 1254.5 1340.0Q1229 1398 1185.5 1441.5Q1142 1485 1084.0 1510.5Q1026 1536 960 1536H448Q382 1536 324.0 1510.5Q266 1485 222.5 1441.5Q179 1398 153.5 1340.0Q128 1282 128 1216Q128 1129 159.5 1068.5Q191 1008 244.0 969.5Q297 931 366.5 913.5Q436 896 512 896V768H448Q355 768 273.5 803.5Q192 839 131.5 899.5Q71 960 35.5 1041.5Q0 1123 0 1216Q0 1309 35.5 1390.5Q71 1472 131.5 1532.5Q192 1593 273.5 1628.5Q355 1664 448 1664H960Q1053 1664 1134.5 1628.5Q1216 1593 1276.5 1532.5Q1337 1472 1372.5 1390.5Q1408 1309 1408 1216Q1408 1123 1372.5 1041.5Q1337 960 1276.5 899.5Q1216 839 1134.5 803.5Q1053 768 960 768Z" transform="scale(1,-1)"/>
</svg>