<?xml version="1.0" encoding="UTF-8"?>
<svg xmlns="http://www.w3.org/2000/svg" viewBox="256 -2048 1789 2048">
  <path d="M1280 128 1283 0H256V2048H1792Q1819 2048 1842.0 2038.0Q1865 2028 1882.5 2010.5Q1900 1993 1910.0 1970.0Q1920 1947 1920 1920V1440Q1920 1395 1910.5 1362.5Q1901 1330 1887.0 1304.5Q1873 1279 1856.0 1259.0Q1839 1239 1825.0 1218.5Q1811 1198 1801.5 1174.5Q1792 1151 1792 1120V655L1728 591L1664 656V1120Q1664 1151 1654.5 1174.5Q1645 1198 1631.0 1218.5Q1617 1239 1600.0 1259.0Q1583 1279 1569.0 1304.5Q1555 1330 1545.5 1362.5Q1536 1395 1536 1440V1920H384V128ZM1792 1920H1664V1440Q1664 1416 1668.5 1398.0Q1673 1380 1681.5 1365.0Q1690 1350 1701.5 1335.5Q1713 1321 1728 1304Q1743 1321 1754.5 1335.5Q1766 1350 1774.5 1365.0Q1783 1380 1787.5 1398.0Q1792 1416 1792 1440ZM1819 320 2045 93 1955 3 1728 229 1501 2 1411 93 1638 320 1411 547 1501 637 1728 410 1955 637 2045 546ZM1152 896H1024V1408H1152ZM1024 768H1152V640H1024Z" transform="scale(1,-1)"/>
</svg>