<?xml version="1.0" encoding="UTF-8"?>
<svg xmlns="http://www.w3.org/2000/svg" viewBox="230 -1901 1562 1773">
  <path d="M1152 1408Q1280 1408 1397.0 1360.0Q1514 1312 1605 1221Q1696 1130 1744.0 1013.0Q1792 896 1792 768Q1792 635 1742.0 518.5Q1692 402 1605.0 315.0Q1518 228 1401.5 178.0Q1285 128 1152 128V256Q1258 256 1351.0 296.5Q1444 337 1513.5 406.5Q1583 476 1623.5 569.0Q1664 662 1664 768Q1664 874 1623.5 967.0Q1583 1060 1513.5 1129.5Q1444 1199 1351.0 1239.5Q1258 1280 1152 1280H475L877 877L787 787L230 1344L787 1901L877 1811L475 1408Z" transform="scale(1,-1)"/>
</svg>