<?xml version="1.0" encoding="UTF-8"?>
<svg xmlns="http://www.w3.org/2000/svg" viewBox="0 -2048 2048 2048">
  <path d="M2048 1024Q2048 882 2011.5 751.5Q1975 621 1908.5 507.0Q1842 393 1748.5 299.5Q1655 206 1541.0 139.5Q1427 73 1296.0 36.5Q1165 0 1024 0Q882 0 751.5 36.5Q621 73 507.0 139.5Q393 206 299.5 299.5Q206 393 139.5 507.0Q73 621 36.5 752.0Q0 883 0 1024Q0 1050 19.0 1069.0Q38 1088 64 1088Q90 1088 109.0 1069.0Q128 1050 128 1024Q128 900 160.0 786.0Q192 672 250.5 572.5Q309 473 391.0 391.0Q473 309 572.5 250.5Q672 192 786.5 160.0Q901 128 1024 128Q1147 128 1261.5 160.0Q1376 192 1475.5 250.5Q1575 309 1657.0 391.0Q1739 473 1797.5 572.5Q1856 672 1888.0 786.5Q1920 901 1920 1024Q1920 1147 1888.0 1261.5Q1856 1376 1797.5 1475.5Q1739 1575 1657.0 1657.0Q1575 1739 1475.5 1797.5Q1376 1856 1261.5 1888.0Q1147 1920 1024 1920Q998 1920 979.0 1939.0Q960 1958 960 1984Q960 2010 979.0 2029.0Q998 2048 1024 2048Q1165 2048 1296.0 2011.5Q1427 1975 1541.0 1908.5Q1655 1842 1748.5 1748.5Q1842 1655 1908.5 1541.0Q1975 1427 2011.5 1296.0Q2048 1165 2048 1024ZM1024 384Q998 384 979.0 403.0Q960 422 960 448Q960 474 979.0 493.0Q998 512 1024 512Q1130 512 1223.0 552.5Q1316 593 1385.5 662.5Q1455 732 1495.5 825.0Q1536 918 1536 1024Q1536 1130 1495.5 1223.0Q1455 1316 1385.5 1385.5Q1316 1455 1223.0 1495.5Q1130 1536 1024 1536Q998 1536 979.0 1555.0Q960 1574 960 1600Q960 1626 979.0 1645.0Q998 1664 1024 1664Q1157 1664 1273.5 1614.0Q1390 1564 1477.0 1477.0Q1564 1390 1614.0 1273.5Q1664 1157 1664 1024Q1664 891 1614.0 774.5Q1564 658 1477.0 571.0Q1390 484 1273.5 434.0Q1157 384 1024 384ZM960 1216Q960 1242 979.0 1261.0Q998 1280 1024 1280Q1077 1280 1123.5 1260.0Q1170 1240 1205.0 1205.0Q1240 1170 1260.0 1123.5Q1280 1077 1280 1024Q1280 998 1261.0 979.0Q1242 960 1216 960Q1190 960 1171.0 979.0Q1152 998 1152 1024Q1152 1051 1142.0 1074.0Q1132 1097 1114.5 1114.5Q1097 1132 1074.0 1142.0Q1051 1152 1024 1152Q998 1152 979.0 1171.0Q960 1190 960 1216Z" transform="scale(1,-1)"/>
</svg>