<?xml version="1.0" encoding="UTF-8"?>
<svg xmlns="http://www.w3.org/2000/svg" viewBox="0 -2048 2048 2048">
  <path d="M2048 896Q2048 790 2007.5 697.0Q1967 604 1897.5 534.5Q1828 465 1735.0 424.5Q1642 384 1536 384Q1471 384 1406 401Q1397 316 1358.5 242.5Q1320 169 1260.0 115.0Q1200 61 1123.0 30.5Q1046 0 960 0Q867 0 785.5 35.5Q704 71 643.5 131.5Q583 192 547.5 273.5Q512 355 512 448Q512 464 513.5 480.0Q515 496 517 512H85Q50 512 25.0 537.0Q0 562 0 597V1451Q0 1486 25.0 1511.0Q50 1536 85 1536H387Q399 1645 449.0 1738.5Q499 1832 576.0 1901.0Q653 1970 751.5 2009.0Q850 2048 960 2048Q1079 2048 1184.0 2002.5Q1289 1957 1367.0 1879.0Q1445 1801 1490.5 1696.0Q1536 1591 1536 1472Q1536 1456 1535.0 1440.0Q1534 1424 1532 1408Q1638 1408 1732.0 1368.0Q1826 1328 1896.5 1259.0Q1967 1190 2007.5 1096.5Q2048 1003 2048 896ZM960 1920Q877 1920 801.5 1891.0Q726 1862 667.0 1810.5Q608 1759 568.5 1688.5Q529 1618 517 1536H939Q974 1536 999.0 1511.0Q1024 1486 1024 1451V1029L1042 1032Q1060 1096 1094.0 1153.5Q1128 1211 1174.5 1257.5Q1221 1304 1278.0 1338.0Q1335 1372 1400 1390Q1408 1433 1408 1472Q1408 1565 1372.5 1646.5Q1337 1728 1276.5 1788.5Q1216 1849 1134.5 1884.5Q1053 1920 960 1920ZM522 691Q568 691 612.5 700.5Q657 710 692.0 732.0Q727 754 748.5 790.0Q770 826 770 880Q770 934 747.5 970.0Q725 1006 691.0 1030.0Q657 1054 618.0 1069.5Q579 1085 545.0 1098.5Q511 1112 488.5 1127.0Q466 1142 466 1165Q466 1182 478.0 1192.5Q490 1203 506.5 1209.0Q523 1215 541.0 1217.0Q559 1219 571 1219Q622 1219 661.0 1206.0Q700 1193 742 1167V1319Q718 1326 697.5 1331.0Q677 1336 657.0 1339.5Q637 1343 615.5 1344.5Q594 1346 568 1346Q524 1346 478.0 1336.0Q432 1326 394.5 1304.0Q357 1282 333.5 1246.0Q310 1210 310 1158Q310 1107 332.5 1073.0Q355 1039 389.0 1015.0Q423 991 462.0 974.5Q501 958 535.0 943.5Q569 929 591.5 913.0Q614 897 614 874Q614 855 603.5 844.0Q593 833 577.0 827.0Q561 821 543.5 819.5Q526 818 512 818Q452 818 405.5 838.0Q359 858 311 891V731Q413 691 522 691ZM960 128Q1026 128 1084.0 153.0Q1142 178 1185.5 221.5Q1229 265 1254.5 323.5Q1280 382 1280 448Q1280 505 1261.0 557.0Q1242 609 1208.0 650.5Q1174 692 1127.0 721.0Q1080 750 1024 762V597Q1024 562 999.0 537.0Q974 512 939 512H646Q640 480 640 448Q640 382 665.0 323.5Q690 265 733.5 221.5Q777 178 835.5 153.0Q894 128 960 128ZM1536 512Q1615 512 1685.0 542.0Q1755 572 1807.5 624.5Q1860 677 1890.0 746.5Q1920 816 1920 896Q1920 975 1890.0 1045.0Q1860 1115 1807.5 1167.5Q1755 1220 1685.0 1250.0Q1615 1280 1536 1280Q1457 1280 1387.5 1249.5Q1318 1219 1265.5 1166.5Q1213 1114 1182.5 1044.5Q1152 975 1152 896Q1152 885 1152.5 874.0Q1153 863 1154 852Q1201 829 1241.0 796.5Q1281 764 1312.5 723.5Q1344 683 1366.0 636.0Q1388 589 1399 538Q1466 512 1536 512Z" transform="scale(1,-1)"/>
</svg>