<?xml version="1.0" encoding="UTF-8"?>
<svg xmlns="http://www.w3.org/2000/svg" viewBox="0 -2048 1920 2048">
  <path d="M1152 1280Q1179 1280 1202.0 1270.0Q1225 1260 1242.5 1242.5Q1260 1225 1270.0 1202.0Q1280 1179 1280 1152V0H165L0 165V1152Q0 1179 10.0 1202.0Q20 1225 37.5 1242.5Q55 1260 78.0 1270.0Q101 1280 128 1280ZM384 1152V768H896V1152ZM896 128V384H384V128H512V256H640V128ZM1152 1152H1024V640H256V1152H128V219L219 128H256V512H1024V128H1152ZM512 1408H384V2048H896V1920H512ZM1920 2048V1024H1408V1152H1792V1920H1664V2048ZM1349 1792 1187 1955 1277 2045 1595 1728 1277 1411 1187 1501 1349 1664H768V1408H640V1792ZM1414 1728 1408 1733V1723Z" transform="scale(1,-1)"/>
</svg>