<?xml version="1.0" encoding="UTF-8"?>
<svg xmlns="http://www.w3.org/2000/svg" viewBox="0 -2048 2048 2048">
  <path d="M1344 2048Q1441 2048 1531.0 2023.0Q1621 1998 1699.0 1952.0Q1777 1906 1841.5 1841.5Q1906 1777 1952.0 1699.0Q1998 1621 2023.0 1531.0Q2048 1441 2048 1344Q2048 1247 2023.0 1157.0Q1998 1067 1952.0 989.0Q1906 911 1841.5 846.5Q1777 782 1699.0 736.0Q1621 690 1531.0 665.0Q1441 640 1344 640Q1219 640 1104.5 682.0Q990 724 894 803L109 19Q90 0 64 0Q38 0 19.0 19.0Q0 38 0 64Q0 90 19 109L803 894Q724 990 682.0 1104.5Q640 1219 640 1344Q640 1441 665.0 1531.0Q690 1621 736.0 1699.0Q782 1777 846.5 1841.5Q911 1906 989.0 1952.0Q1067 1998 1157.0 2023.0Q1247 2048 1344 2048ZM1344 768Q1463 768 1568.0 813.5Q1673 859 1751.0 937.0Q1829 1015 1874.5 1120.0Q1920 1225 1920 1344Q1920 1463 1874.5 1568.0Q1829 1673 1751.0 1751.0Q1673 1829 1568.0 1874.5Q1463 1920 1344 1920Q1225 1920 1120.0 1874.5Q1015 1829 937.0 1751.0Q859 1673 813.5 1568.0Q768 1463 768 1344Q768 1225 813.5 1120.0Q859 1015 937.0 937.0Q1015 859 1120.0 813.5Q1225 768 1344 768Z" transform="scale(1,-1)"/>
</svg>