<?xml version="1.0" encoding="UTF-8"?>
<svg xmlns="http://www.w3.org/2000/svg" viewBox="0 -2048 2048 2048">
  <path d="M1185 869Q1097 944 990.0 984.0Q883 1024 768 1024Q680 1024 598.0 1001.0Q516 978 445.0 936.5Q374 895 315.5 836.5Q257 778 215.5 707.0Q174 636 151.0 554.0Q128 472 128 384H0Q0 504 35.5 615.0Q71 726 136.0 820.0Q201 914 292.5 987.0Q384 1060 496 1102Q383 1176 319.5 1288.0Q256 1400 256 1536Q256 1642 296.0 1735.5Q336 1829 405.5 1898.5Q475 1968 568.5 2008.0Q662 2048 768 2048Q874 2048 967.5 2008.0Q1061 1968 1130.5 1898.5Q1200 1829 1240.0 1735.5Q1280 1642 1280 1536Q1280 1470 1263.5 1407.0Q1247 1344 1216.0 1288.0Q1185 1232 1140.5 1184.5Q1096 1137 1040 1102Q1105 1077 1164.0 1041.0Q1223 1005 1275 960ZM384 1536Q384 1456 414.0 1386.5Q444 1317 496.5 1264.5Q549 1212 618.5 1182.0Q688 1152 768 1152Q847 1152 917.0 1182.0Q987 1212 1039.5 1264.5Q1092 1317 1122.0 1386.5Q1152 1456 1152 1536Q1152 1615 1122.0 1685.0Q1092 1755 1039.5 1807.5Q987 1860 917.0 1890.0Q847 1920 768 1920Q688 1920 618.5 1890.0Q549 1860 496.5 1807.5Q444 1755 414.0 1685.0Q384 1615 384 1536ZM1728 1280Q1794 1280 1852.0 1254.5Q1910 1229 1953.5 1185.5Q1997 1142 2022.5 1084.0Q2048 1026 2048 960Q2048 894 2022.5 835.5Q1997 777 1953.5 733.5Q1910 690 1852.0 665.0Q1794 640 1728 640Q1705 640 1683 643L1096 56Q1069 29 1033.5 14.5Q998 0 960 0Q920 0 885.0 15.0Q850 30 824.0 56.0Q798 82 783.0 117.0Q768 152 768 192Q768 230 782.5 265.5Q797 301 824 328L1411 915Q1408 937 1408 960Q1408 1026 1433.0 1084.0Q1458 1142 1501.5 1185.5Q1545 1229 1603.5 1254.5Q1662 1280 1728 1280ZM1728 768Q1768 768 1803.0 783.0Q1838 798 1864.0 824.0Q1890 850 1905.0 885.0Q1920 920 1920 960Q1920 1001 1901 1042L1755 896H1664V987L1810 1133Q1769 1152 1728 1152Q1688 1152 1653.0 1137.0Q1618 1122 1592.0 1096.0Q1566 1070 1551.0 1035.0Q1536 1000 1536 960Q1536 919 1555 878L915 237Q896 218 896 192Q896 166 915.0 147.0Q934 128 960 128Q986 128 1005 147L1646 787Q1687 768 1728 768Z" transform="scale(1,-1)"/>
</svg>