<?xml version="1.0" encoding="UTF-8"?>
<svg xmlns="http://www.w3.org/2000/svg" viewBox="256 -2048 1792 2048">
  <path d="M774 128Q782 93 796.0 61.0Q810 29 832 0H256V1792H768Q768 1845 788.0 1891.5Q808 1938 843.0 1973.0Q878 2008 924.5 2028.0Q971 2048 1024 2048Q1077 2048 1123.5 2028.0Q1170 2008 1205.0 1973.0Q1240 1938 1260.0 1891.5Q1280 1845 1280 1792H1792V1275Q1776 1277 1760.0 1278.5Q1744 1280 1728 1280Q1712 1280 1696.0 1278.5Q1680 1277 1664 1275V1664H1536V1408H512V1664H384V128ZM640 1536H1408V1664H1152V1792Q1152 1819 1142.0 1842.0Q1132 1865 1114.5 1882.5Q1097 1900 1074.0 1910.0Q1051 1920 1024 1920Q997 1920 974.0 1910.0Q951 1900 933.5 1882.5Q916 1865 906.0 1842.0Q896 1819 896 1792V1664H640ZM1728 1152Q1794 1152 1852.0 1126.5Q1910 1101 1953.5 1057.5Q1997 1014 2022.5 956.0Q2048 898 2048 832Q2048 766 2022.5 707.5Q1997 649 1953.5 605.5Q1910 562 1852.0 537.0Q1794 512 1728 512Q1705 512 1683 515L1224 56Q1197 29 1161.5 14.5Q1126 0 1088 0Q1048 0 1013.0 15.0Q978 30 952.0 56.0Q926 82 911.0 117.0Q896 152 896 192Q896 230 910.5 265.5Q925 301 952 328L1152 527Q1149 578 1127.5 622.0Q1106 666 1071.5 698.5Q1037 731 992.0 749.5Q947 768 896 768Q843 768 796.5 748.0Q750 728 715.0 693.0Q680 658 660.0 611.5Q640 565 640 512H512Q512 564 526.0 613.5Q540 663 565.5 707.0Q591 751 627.5 787.0Q664 823 710 848Q677 883 658.5 929.0Q640 975 640 1024Q640 1077 660.0 1123.5Q680 1170 715.0 1205.0Q750 1240 796.5 1260.0Q843 1280 896 1280Q949 1280 995.5 1260.0Q1042 1240 1077.0 1205.0Q1112 1170 1132.0 1123.5Q1152 1077 1152 1024Q1152 975 1133.5 929.0Q1115 883 1082 848Q1145 813 1191.0 758.0Q1237 703 1260 635L1411 787Q1408 809 1408 832Q1408 898 1433.0 956.0Q1458 1014 1501.5 1057.5Q1545 1101 1603.5 1126.5Q1662 1152 1728 1152ZM768 1024Q768 997 778.0 974.0Q788 951 805.5 933.5Q823 916 846.0 906.0Q869 896 896 896Q923 896 946.0 906.0Q969 916 986.5 933.5Q1004 951 1014.0 974.0Q1024 997 1024 1024Q1024 1051 1014.0 1074.0Q1004 1097 986.5 1114.5Q969 1132 946.0 1142.0Q923 1152 896 1152Q869 1152 846.0 1142.0Q823 1132 805.5 1114.5Q788 1097 778.0 1074.0Q768 1051 768 1024ZM1728 640Q1768 640 1803.0 655.0Q1838 670 1864.0 696.0Q1890 722 1905.0 757.0Q1920 792 1920 832Q1920 873 1901 914L1755 768H1664V859L1810 1005Q1769 1024 1728 1024Q1688 1024 1653.0 1009.0Q1618 994 1592.0 968.0Q1566 942 1551.0 907.0Q1536 872 1536 832Q1536 791 1555 750L1043 237Q1024 218 1024 192Q1024 166 1043.0 147.0Q1062 128 1088 128Q1114 128 1133 147L1646 659Q1687 640 1728 640Z" transform="scale(1,-1)"/>
</svg>