<?xml version="1.0" encoding="UTF-8"?>
<svg xmlns="http://www.w3.org/2000/svg" viewBox="6 -2042 2036 2036">
  <path d="M1783 1060Q1783 1051 1783.5 1042.0Q1784 1033 1784 1024Q1784 1015 1783.5 1006.0Q1783 997 1783 988L2042 827L1883 444L1586 512Q1562 486 1536 462L1604 165L1221 6L1060 265Q1051 265 1042.0 264.5Q1033 264 1024 264Q1015 264 1006.0 264.5Q997 265 988 265L827 6L444 165L512 462Q486 486 462 512L165 444L6 827L265 988Q265 997 264.5 1006.0Q264 1015 264 1024Q264 1033 264.5 1042.0Q265 1051 265 1060L6 1221L165 1604L462 1536Q486 1562 512 1586L444 1883L827 2042L988 1783Q997 1783 1006.0 1783.5Q1015 1784 1024 1784Q1033 1784 1042.0 1783.5Q1051 1783 1060 1783L1221 2042L1604 1883L1536 1586Q1562 1562 1586 1536L1883 1604L2042 1221ZM1666 930Q1668 954 1670.0 977.5Q1672 1001 1672 1025Q1672 1048 1670.0 1072.0Q1668 1096 1666 1119L1902 1266L1816 1474L1545 1411Q1514 1449 1481.5 1481.0Q1449 1513 1411 1545L1474 1816L1266 1902L1118 1666Q1095 1668 1071.0 1670.0Q1047 1672 1024 1672Q1000 1672 976.5 1670.0Q953 1668 929 1666L782 1902L574 1816L637 1545Q599 1514 567.0 1481.5Q535 1449 503 1411L232 1474L146 1266L382 1118Q380 1094 378.0 1070.5Q376 1047 376 1023Q376 1000 378.0 976.0Q380 952 382 929L146 782L232 574L503 637Q534 599 566.5 567.0Q599 535 637 503L574 232L782 146L930 382Q953 380 977.0 378.0Q1001 376 1024 376Q1048 376 1071.5 378.0Q1095 380 1119 382L1266 146L1474 232L1411 503Q1449 534 1481.0 566.5Q1513 599 1545 637L1816 574L1902 782ZM1024 1400Q1102 1400 1170.5 1370.5Q1239 1341 1290.0 1290.0Q1341 1239 1370.5 1170.5Q1400 1102 1400 1024Q1400 946 1370.5 877.5Q1341 809 1290.0 758.0Q1239 707 1170.5 677.5Q1102 648 1024 648Q946 648 877.5 677.5Q809 707 758.0 758.0Q707 809 677.5 877.5Q648 946 648 1024Q648 1102 677.5 1170.5Q707 1239 758.0 1290.0Q809 1341 877.5 1370.5Q946 1400 1024 1400ZM1024 760Q1079 760 1127.0 780.5Q1175 801 1211.0 837.0Q1247 873 1267.5 921.0Q1288 969 1288 1024Q1288 1079 1267.5 1127.0Q1247 1175 1211.0 1211.0Q1175 1247 1127.0 1267.5Q1079 1288 1024 1288Q969 1288 921.0 1267.5Q873 1247 837.0 1211.0Q801 1175 780.5 1127.0Q760 1079 760 1024Q760 969 780.5 921.0Q801 873 837.0 837.0Q873 801 921.0 780.5Q969 760 1024 760Z" transform="scale(1,-1)"/>
</svg>