<?xml version="1.0" encoding="UTF-8"?>
<svg xmlns="http://www.w3.org/2000/svg" viewBox="0 -1920 2048 1920">
  <path d="M1762 458Q1828 426 1880.5 377.5Q1933 329 1970.5 269.5Q2008 210 2028.0 141.5Q2048 73 2048 0H1920Q1920 79 1889.5 149.0Q1859 219 1807.0 271.0Q1755 323 1685.0 353.5Q1615 384 1536 384Q1457 384 1387.0 353.5Q1317 323 1265.0 271.0Q1213 219 1182.5 149.0Q1152 79 1152 0H1024Q1024 73 1044.0 141.5Q1064 210 1101.5 269.5Q1139 329 1191.5 377.5Q1244 426 1310 458Q1235 512 1193.5 593.5Q1152 675 1152 768Q1152 847 1182.0 917.0Q1212 987 1264.5 1039.5Q1317 1092 1386.5 1122.0Q1456 1152 1536 1152Q1615 1152 1685.0 1122.0Q1755 1092 1807.5 1039.5Q1860 987 1890.0 917.0Q1920 847 1920 768Q1920 675 1878.5 593.5Q1837 512 1762 458ZM1536 512Q1589 512 1635.5 532.0Q1682 552 1717.0 587.0Q1752 622 1772.0 668.5Q1792 715 1792 768Q1792 821 1772.0 867.5Q1752 914 1717.0 949.0Q1682 984 1635.5 1004.0Q1589 1024 1536 1024Q1483 1024 1436.5 1004.0Q1390 984 1355.0 949.0Q1320 914 1300.0 867.5Q1280 821 1280 768Q1280 715 1300.0 668.5Q1320 622 1355.0 587.0Q1390 552 1436.5 532.0Q1483 512 1536 512ZM2048 1920V896Q2048 944 2039.0 980.0Q2030 1016 2013.5 1047.0Q1997 1078 1973.5 1107.0Q1950 1136 1920 1170V1792H128V640H384V373L651 640H1041Q1049 606 1062.5 574.0Q1076 542 1093 512H704L256 64V512H0V1920Z" transform="scale(1,-1)"/>
</svg>