<?xml version="1.0" encoding="UTF-8"?>
<svg xmlns="http://www.w3.org/2000/svg" viewBox="0 -1856 2048 1664">
  <path d="M2048 1659Q2006 1596 1953.0 1541.5Q1900 1487 1838 1442Q1839 1428 1839.5 1414.5Q1840 1401 1840 1387Q1840 1261 1813.0 1138.0Q1786 1015 1735 900Q1661 733 1550.0 601.5Q1439 470 1298.5 379.0Q1158 288 992.0 240.0Q826 192 644 192Q472 192 308.5 239.5Q145 287 0 381Q49 375 100 375Q243 375 376.5 421.0Q510 467 622 555Q555 556 493.0 577.5Q431 599 379.5 637.5Q328 676 289.5 729.0Q251 782 230 846Q250 843 269.5 841.0Q289 839 309 839Q365 839 419 854Q345 869 283.5 907.0Q222 945 177.0 999.5Q132 1054 107.0 1122.5Q82 1191 82 1266V1271Q170 1221 273 1218Q229 1248 194.5 1286.5Q160 1325 136.0 1370.0Q112 1415 99.0 1465.0Q86 1515 86 1568Q86 1624 100.0 1677.5Q114 1731 143 1779Q223 1680 321.0 1601.5Q419 1523 529.5 1467.0Q640 1411 761.0 1378.5Q882 1346 1009 1340Q1003 1363 1000.5 1387.5Q998 1412 998 1436Q998 1523 1031.0 1599.5Q1064 1676 1121.0 1733.0Q1178 1790 1254.5 1823.0Q1331 1856 1418 1856Q1506 1856 1585.5 1821.5Q1665 1787 1725 1723Q1796 1737 1862.5 1762.5Q1929 1788 1991 1825Q1968 1752 1920.5 1692.0Q1873 1632 1807 1593Q1933 1608 2048 1659Z" transform="scale(1,-1)"/>
</svg>