<?xml version="1.0" encoding="UTF-8"?>
<svg xmlns="http://www.w3.org/2000/svg" viewBox="128 -2048 1792 2048">
  <path d="M1330 845Q1466 798 1575.5 713.5Q1685 629 1761.5 518.0Q1838 407 1879.0 275.0Q1920 143 1920 0H1792Q1792 164 1733.5 304.5Q1675 445 1572.0 548.0Q1469 651 1328.5 709.5Q1188 768 1024 768Q917 768 818.0 741.0Q719 714 633.5 664.5Q548 615 478.5 545.5Q409 476 359.5 390.5Q310 305 283.0 206.0Q256 107 256 0H128Q128 144 170.0 275.5Q212 407 289.0 517.0Q366 627 475.5 711.0Q585 795 720 844Q642 886 580.0 946.0Q518 1006 474.5 1079.5Q431 1153 407.5 1236.5Q384 1320 384 1408Q384 1541 434.0 1657.5Q484 1774 571.0 1861.0Q658 1948 774.5 1998.0Q891 2048 1024 2048Q1157 2048 1273.5 1998.0Q1390 1948 1477.0 1861.0Q1564 1774 1614.0 1657.5Q1664 1541 1664 1408Q1664 1320 1640.5 1237.0Q1617 1154 1573.5 1081.0Q1530 1008 1468.5 947.5Q1407 887 1330 845ZM512 1408Q512 1302 552.5 1209.0Q593 1116 662.5 1046.5Q732 977 825.0 936.5Q918 896 1024 896Q1130 896 1223.0 936.5Q1316 977 1385.5 1046.5Q1455 1116 1495.5 1209.0Q1536 1302 1536 1408Q1536 1514 1495.5 1607.0Q1455 1700 1385.5 1769.5Q1316 1839 1223.0 1879.5Q1130 1920 1024 1920Q918 1920 825.0 1879.5Q732 1839 662.5 1769.5Q593 1700 552.5 1607.0Q512 1514 512 1408Z" transform="scale(1,-1)"/>
</svg>