<?xml version="1.0" encoding="UTF-8"?>
<svg xmlns="http://www.w3.org/2000/svg" viewBox="256 -2048 1536 2048">
  <path d="M1792 1792V0H256V1792H768Q768 1845 788.0 1891.5Q808 1938 843.0 1973.0Q878 2008 924.5 2028.0Q971 2048 1024 2048Q1077 2048 1123.5 2028.0Q1170 2008 1205.0 1973.0Q1240 1938 1260.0 1891.5Q1280 1845 1280 1792ZM640 1536H1408V1664H1152V1792Q1152 1819 1142.0 1842.0Q1132 1865 1114.5 1882.5Q1097 1900 1074.0 1910.0Q1051 1920 1024 1920Q997 1920 974.0 1910.0Q951 1900 933.5 1882.5Q916 1865 906.0 1842.0Q896 1819 896 1792V1664H640ZM1664 1664H1536V1408H512V1664H384V128H1664ZM1024 1152H1536V1024H1024ZM1024 768H1536V640H1024ZM1024 384H1536V256H1024ZM851 1325 941 1235 704 998 531 1171 621 1261 704 1178ZM851 941 941 851 704 614 531 787 621 877 704 794ZM851 557 941 467 704 230 531 403 621 493 704 410Z" transform="scale(1,-1)"/>
</svg>