<?xml version="1.0" encoding="UTF-8"?>
<svg xmlns="http://www.w3.org/2000/svg" viewBox="0 -1792 2048 1536">
  <path d="M1850 1360Q1895 1335 1932.0 1298.5Q1969 1262 1994.5 1218.5Q2020 1175 2034.0 1125.5Q2048 1076 2048 1024H1920Q1920 1076 1899.5 1123.0Q1879 1170 1844.5 1204.5Q1810 1239 1763.0 1259.5Q1716 1280 1664 1280Q1611 1280 1564.5 1259.5Q1518 1239 1483.5 1204.5Q1449 1170 1428.5 1123.0Q1408 1076 1408 1024Q1408 933 1366.5 851.0Q1325 769 1252 715Q1317 682 1369.5 633.5Q1422 585 1459.0 525.5Q1496 466 1516.0 397.5Q1536 329 1536 256H1408Q1408 335 1377.5 405.0Q1347 475 1295.0 527.0Q1243 579 1173.0 609.5Q1103 640 1024 640Q945 640 875.0 609.5Q805 579 753.0 527.0Q701 475 670.5 405.0Q640 335 640 256H512Q512 329 532.0 397.5Q552 466 589.0 525.5Q626 585 678.5 633.5Q731 682 796 715Q723 769 681.5 851.0Q640 933 640 1024Q640 1076 619.5 1123.0Q599 1170 564.5 1204.5Q530 1239 483.0 1259.5Q436 1280 384 1280Q331 1280 284.5 1259.5Q238 1239 203.5 1204.5Q169 1170 148.5 1123.0Q128 1076 128 1024H0Q0 1076 14.0 1125.5Q28 1175 53.5 1218.5Q79 1262 116.0 1298.5Q153 1335 198 1360Q165 1395 146.5 1441.0Q128 1487 128 1536Q128 1588 148.5 1635.0Q169 1682 203.5 1716.5Q238 1751 284.5 1771.5Q331 1792 384 1792Q436 1792 483.0 1771.5Q530 1751 564.5 1716.5Q599 1682 619.5 1635.0Q640 1588 640 1536Q640 1487 621.5 1441.0Q603 1395 570 1360Q652 1315 704 1236Q758 1316 842.5 1362.0Q927 1408 1024 1408Q1121 1408 1205.5 1362.0Q1290 1316 1344 1236Q1396 1315 1478 1360Q1445 1395 1426.5 1441.0Q1408 1487 1408 1536Q1408 1588 1428.5 1635.0Q1449 1682 1483.5 1716.5Q1518 1751 1564.5 1771.5Q1611 1792 1664 1792Q1716 1792 1763.0 1771.5Q1810 1751 1844.5 1716.5Q1879 1682 1899.5 1635.0Q1920 1588 1920 1536Q1920 1487 1901.5 1441.0Q1883 1395 1850 1360ZM256 1536Q256 1509 266.0 1486.0Q276 1463 293.5 1445.5Q311 1428 334.0 1418.0Q357 1408 384 1408Q411 1408 434.0 1418.0Q457 1428 474.5 1445.5Q492 1463 502.0 1486.0Q512 1509 512 1536Q512 1563 502.0 1586.0Q492 1609 474.5 1626.5Q457 1644 434.0 1654.0Q411 1664 384 1664Q357 1664 334.0 1654.0Q311 1644 293.5 1626.5Q276 1609 266.0 1586.0Q256 1563 256 1536ZM1024 768Q1076 768 1123.0 788.5Q1170 809 1204.5 843.5Q1239 878 1259.5 924.5Q1280 971 1280 1024Q1280 1076 1259.5 1123.0Q1239 1170 1204.5 1204.5Q1170 1239 1123.0 1259.5Q1076 1280 1024 1280Q971 1280 924.5 1259.5Q878 1239 843.5 1204.5Q809 1170 788.5 1123.0Q768 1076 768 1024Q768 971 788.5 924.5Q809 878 843.5 843.5Q878 809 924.5 788.5Q971 768 1024 768ZM1536 1536Q1536 1509 1546.0 1486.0Q1556 1463 1573.5 1445.5Q1591 1428 1614.0 1418.0Q1637 1408 1664 1408Q1691 1408 1714.0 1418.0Q1737 1428 1754.5 1445.5Q1772 1463 1782.0 1486.0Q1792 1509 1792 1536Q1792 1563 1782.0 1586.0Q1772 1609 1754.5 1626.5Q1737 1644 1714.0 1654.0Q1691 1664 1664 1664Q1637 1664 1614.0 1654.0Q1591 1644 1573.5 1626.5Q1556 1609 1546.0 1586.0Q1536 1563 1536 1536Z" transform="scale(1,-1)"/>
</svg>