<?xml version="1.0" encoding="UTF-8"?>
<svg xmlns="http://www.w3.org/2000/svg" viewBox="0 -2048 2029 2011">
  <path d="M2029 595 1472 37 1203 307 1293 397 1472 219 1939 685ZM1024 1664V1152H1408V1024H896V1664ZM960 256Q976 256 992.0 257.0Q1008 258 1024 259L1138 145Q1093 137 1049.0 132.5Q1005 128 960 128Q828 128 705.5 162.5Q583 197 476.0 259.5Q369 322 281.5 409.5Q194 497 131.5 604.0Q69 711 34.5 833.5Q0 956 0 1088Q0 1220 34.5 1342.5Q69 1465 131.5 1572.0Q194 1679 281.5 1766.5Q369 1854 476.0 1916.5Q583 1979 705.5 2013.5Q828 2048 960 2048Q1092 2048 1214.5 2013.5Q1337 1979 1444.0 1916.5Q1551 1854 1638.5 1766.5Q1726 1679 1788.5 1572.0Q1851 1465 1885.5 1342.5Q1920 1220 1920 1088Q1920 1038 1914 987L1746 818Q1792 951 1792 1088Q1792 1203 1762.0 1309.0Q1732 1415 1678.0 1507.5Q1624 1600 1548.0 1676.0Q1472 1752 1379.5 1806.0Q1287 1860 1181.0 1890.0Q1075 1920 960 1920Q845 1920 739.0 1890.0Q633 1860 540.5 1806.0Q448 1752 372.0 1676.0Q296 1600 242.0 1507.5Q188 1415 158.0 1309.0Q128 1203 128 1088Q128 973 158.0 867.0Q188 761 242.0 668.5Q296 576 372.0 500.0Q448 424 540.5 370.0Q633 316 739.0 286.0Q845 256 960 256Z" transform="scale(1,-1)"/>
</svg>