<?xml version="1.0" encoding="UTF-8"?>
<svg xmlns="http://www.w3.org/2000/svg" viewBox="0 -2048 2048 2048">
  <path d="M958 720Q1059 680 1142.0 613.5Q1225 547 1284.0 461.0Q1343 375 1375.5 274.0Q1408 173 1408 64V0H1280V64Q1280 183 1234.5 288.0Q1189 393 1111.0 471.0Q1033 549 928.0 594.5Q823 640 704 640Q585 640 480.0 594.5Q375 549 297.0 471.0Q219 393 173.5 288.0Q128 183 128 64V0H0V64Q0 173 32.5 274.0Q65 375 124.0 461.0Q183 547 266.0 613.5Q349 680 450 720Q405 751 369.0 792.0Q333 833 308.0 880.5Q283 928 269.5 980.5Q256 1033 256 1088Q256 1181 291.5 1262.5Q327 1344 387.5 1404.5Q448 1465 529.5 1500.5Q611 1536 704 1536Q797 1536 878.5 1500.5Q960 1465 1020.5 1404.5Q1081 1344 1116.5 1262.5Q1152 1181 1152 1088Q1152 1033 1138.5 980.5Q1125 928 1100.0 880.5Q1075 833 1039.0 792.0Q1003 751 958 720ZM704 768Q770 768 828.0 793.0Q886 818 929.5 861.5Q973 905 998.5 963.5Q1024 1022 1024 1088Q1024 1154 998.5 1212.0Q973 1270 929.5 1313.5Q886 1357 828.0 1382.5Q770 1408 704 1408Q638 1408 579.5 1382.5Q521 1357 477.5 1313.5Q434 1270 409.0 1212.0Q384 1154 384 1088Q384 1022 409.0 963.5Q434 905 477.5 861.5Q521 818 579.5 793.0Q638 768 704 768ZM2048 2048V1024H1792L1408 640V1024H1280V1152H1536V949L1739 1152H1920V1920H640V1690Q608 1686 575.5 1679.5Q543 1673 512 1662V2048Z" transform="scale(1,-1)"/>
</svg>