<?xml version="1.0" encoding="UTF-8"?>
<svg xmlns="http://www.w3.org/2000/svg" viewBox="0 -2048 2048 2048">
  <path d="M959 1022Q911 1024 860.0 1034.0Q809 1044 766 1065Q749 1073 739.0 1088.5Q729 1104 729 1123Q729 1149 748.0 1168.0Q767 1187 793 1187Q806 1187 820 1181Q886 1152 958 1151V1370Q921 1383 886.5 1402.0Q852 1421 825.5 1447.5Q799 1474 783.0 1508.0Q767 1542 767 1585Q767 1626 783.5 1659.0Q800 1692 826.5 1716.5Q853 1741 887.5 1757.5Q922 1774 958 1782Q958 1811 974.0 1832.5Q990 1854 1022 1854Q1049 1854 1067.5 1835.5Q1086 1817 1086 1790Q1121 1788 1152.5 1780.5Q1184 1773 1217 1764L1173 1644Q1152 1652 1130.0 1656.0Q1108 1660 1086 1662V1462Q1120 1450 1154.5 1430.0Q1189 1410 1216.5 1383.0Q1244 1356 1261.0 1322.0Q1278 1288 1278 1248Q1278 1204 1263.0 1168.0Q1248 1132 1222.5 1105.0Q1197 1078 1161.5 1059.5Q1126 1041 1086 1032Q1086 1004 1068.5 984.0Q1051 964 1022 964Q997 964 979.0 981.0Q961 998 959 1022ZM1086 1165Q1114 1176 1132.0 1195.5Q1150 1215 1150 1247Q1150 1259 1143.5 1270.0Q1137 1281 1127.5 1290.5Q1118 1300 1107.0 1307.5Q1096 1315 1086 1321ZM895 1585Q895 1557 915.5 1538.5Q936 1520 958 1509V1648Q955 1647 945.0 1642.5Q935 1638 933 1636Q919 1631 907.0 1616.0Q895 1601 895 1585ZM1640 1234Q1732 1198 1807.0 1138.0Q1882 1078 1935.5 1000.5Q1989 923 2018.5 831.5Q2048 740 2048 641Q2048 553 2025.0 471.0Q2002 389 1960.5 318.0Q1919 247 1860.5 188.5Q1802 130 1731.0 88.0Q1660 46 1578.0 23.0Q1496 0 1408 0Q1304 0 1206.0 33.0Q1108 66 1025 129Q941 66 843.0 33.0Q745 0 640 0Q551 0 469.5 23.0Q388 46 317.0 87.5Q246 129 187.5 187.5Q129 246 87.5 317.5Q46 389 23.0 470.5Q0 552 0 641Q0 740 29.5 831.5Q59 923 112.5 1000.5Q166 1078 241.0 1138.0Q316 1198 408 1234Q384 1318 384 1407Q384 1495 407.0 1577.0Q430 1659 471.5 1730.0Q513 1801 571.5 1859.5Q630 1918 701.0 1960.0Q772 2002 854.0 2025.0Q936 2048 1024 2048Q1112 2048 1194.0 2025.0Q1276 2002 1347.0 1960.0Q1418 1918 1476.5 1859.5Q1535 1801 1576.5 1730.0Q1618 1659 1641.0 1577.0Q1664 1495 1664 1407Q1664 1318 1640 1234ZM1024 1920Q918 1920 824.5 1879.5Q731 1839 661.5 1769.0Q592 1699 552.0 1606.0Q512 1513 512 1407Q512 1301 552.0 1207.5Q592 1114 661.5 1044.5Q731 975 824.5 934.5Q918 894 1024 894Q1130 894 1223.5 934.5Q1317 975 1386.5 1044.5Q1456 1114 1496.0 1207.5Q1536 1301 1536 1407Q1536 1513 1496.0 1606.0Q1456 1699 1386.5 1769.0Q1317 1839 1223.5 1879.5Q1130 1920 1024 1920ZM640 128Q746 128 839.5 168.5Q933 209 1002.5 278.5Q1072 348 1112.0 441.5Q1152 535 1152 641Q1152 709 1132 775Q1078 766 1024 766Q919 766 820.5 799.0Q722 832 638 896Q631 892 625 891Q537 865 491.5 799.5Q446 734 446 643V641H572Q598 641 617.0 622.0Q636 603 636 577Q636 546 619.0 532.5Q602 519 578.0 514.5Q554 510 527.0 511.5Q500 513 481 513Q516 454 574.5 420.5Q633 387 702 387Q731 387 756.5 393.0Q782 399 808 410Q821 415 834 415Q860 415 879.0 396.5Q898 378 898 352Q898 323 875.5 305.0Q853 287 821.5 276.5Q790 266 757.0 262.5Q724 259 702 259Q641 259 584.5 277.5Q528 296 480.5 329.0Q433 362 397.0 409.0Q361 456 340 513Q324 513 309.0 516.0Q294 519 282.5 526.0Q271 533 264.0 545.5Q257 558 257 577Q257 603 274.5 621.0Q292 639 318 641Q318 697 332.0 750.5Q346 804 373.0 850.5Q400 897 440.5 934.0Q481 971 534 994Q511 1023 490.5 1054.0Q470 1085 453 1118Q379 1089 319.5 1040.5Q260 992 217.0 929.5Q174 867 151.0 793.5Q128 720 128 641Q128 535 168.0 441.5Q208 348 277.5 278.5Q347 209 440.5 168.5Q534 128 640 128ZM1408 128Q1514 128 1607.5 168.5Q1701 209 1770.5 278.5Q1840 348 1880.0 441.5Q1920 535 1920 641Q1920 720 1897.0 793.5Q1874 867 1831.0 929.0Q1788 991 1728.0 1039.5Q1668 1088 1595 1117Q1557 1043 1502.0 981.0Q1447 919 1378 873L1471 747L1611 934Q1630 960 1662 960Q1689 960 1708.0 941.0Q1727 922 1727 895Q1727 875 1714 857L1534 618V513Q1553 513 1575.5 513.5Q1598 514 1617.5 509.0Q1637 504 1650.5 490.5Q1664 477 1664 449Q1664 421 1650.5 407.5Q1637 394 1617.5 389.0Q1598 384 1575.5 384.5Q1553 385 1534 385Q1534 366 1534.5 343.5Q1535 321 1530.0 301.5Q1525 282 1511.5 268.5Q1498 255 1470 255Q1442 255 1428.5 268.5Q1415 282 1410.0 301.5Q1405 321 1405.5 343.5Q1406 366 1406 385Q1387 385 1365.0 384.5Q1343 384 1323.5 389.0Q1304 394 1291.0 407.5Q1278 421 1278 449Q1278 477 1291.0 490.5Q1304 504 1323.5 509.0Q1343 514 1365.5 513.5Q1388 513 1406 513V618L1264 812L1258 810Q1270 769 1275.0 726.0Q1280 683 1280 641Q1280 523 1239.5 414.5Q1199 306 1121 218Q1185 174 1257.5 151.0Q1330 128 1408 128Z" transform="scale(1,-1)"/>
</svg>