<?xml version="1.0" encoding="UTF-8"?>
<svg xmlns="http://www.w3.org/2000/svg" viewBox="0 -1664 2048 1662">
  <path d="M960 1664Q1053 1664 1134.0 1628.5Q1215 1593 1276.0 1532.5Q1337 1472 1372.0 1390.5Q1407 1309 1407 1216Q1407 1123 1372.0 1041.5Q1337 960 1276.0 899.5Q1215 839 1134.0 803.5Q1053 768 960 768H896V896H960Q1026 896 1084.0 921.0Q1142 946 1185.5 989.5Q1229 1033 1254.5 1091.5Q1280 1150 1280 1216Q1280 1282 1254.5 1340.0Q1229 1398 1185.5 1441.5Q1142 1485 1084.0 1510.5Q1026 1536 960 1536H448Q382 1536 323.5 1510.5Q265 1485 221.5 1441.5Q178 1398 153.0 1340.0Q128 1282 128 1216Q128 1150 153.0 1091.5Q178 1033 221.5 989.5Q265 946 323.5 921.0Q382 896 448 896H512V768H448Q355 768 273.5 803.5Q192 839 131.5 899.5Q71 960 35.5 1041.5Q0 1123 0 1216Q0 1309 35.5 1390.5Q71 1472 131.5 1532.5Q192 1593 273.5 1628.5Q355 1664 448 1664ZM1918 855Q1913 918 1886.5 972.0Q1860 1026 1817.5 1066.0Q1775 1106 1719.0 1129.0Q1663 1152 1600 1152H1536V1280H1600Q1693 1280 1774.5 1244.5Q1856 1209 1916.5 1148.5Q1977 1088 2012.5 1006.5Q2048 925 2048 832Q2048 785 2037 736ZM768 832Q768 766 793.0 707.5Q818 649 861.5 605.5Q905 562 963.5 537.0Q1022 512 1088 512H1264L1392 384H1088Q995 384 913.5 419.5Q832 455 771.5 515.5Q711 576 675.5 657.5Q640 739 640 832Q640 925 675.5 1006.5Q711 1088 771.5 1148.5Q832 1209 913.5 1244.5Q995 1280 1088 1280H1152V1152H1088Q1022 1152 963.5 1126.5Q905 1101 861.5 1057.5Q818 1014 793.0 956.0Q768 898 768 832ZM2045 546 1819 320 2045 93 1955 3 1728 229 1501 2 1411 93 1638 320 1411 547 1501 637 1728 410 1955 637Z" transform="scale(1,-1)"/>
</svg>