<?xml version="1.0" encoding="UTF-8"?>
<svg xmlns="http://www.w3.org/2000/svg" viewBox="0 -1990 1990 1990">
  <path d="M1472 896Q1565 896 1646.5 861.0Q1728 826 1789.0 765.0Q1850 704 1885.0 622.5Q1920 541 1920 448Q1920 355 1885.0 273.5Q1850 192 1789.0 131.0Q1728 70 1646.5 35.0Q1565 0 1472 0Q1379 0 1297.5 35.0Q1216 70 1155.0 131.0Q1094 192 1059.0 273.5Q1024 355 1024 448Q1024 541 1059.0 622.5Q1094 704 1155.0 765.0Q1216 826 1297.5 861.0Q1379 896 1472 896ZM1152 448Q1152 382 1177.0 323.5Q1202 265 1245.5 221.5Q1289 178 1347.5 153.0Q1406 128 1472 128Q1519 128 1564.0 141.5Q1609 155 1648 181L1205 624Q1179 585 1165.5 540.0Q1152 495 1152 448ZM1739 272Q1765 311 1778.5 356.0Q1792 401 1792 448Q1792 514 1766.5 572.0Q1741 630 1697.5 673.5Q1654 717 1596.0 742.5Q1538 768 1472 768Q1425 768 1380.0 754.5Q1335 741 1296 715ZM1990 1300Q1957 1267 1925.5 1239.5Q1894 1212 1860.5 1193.0Q1827 1174 1787.5 1163.5Q1748 1153 1698 1153Q1664 1153 1633 1159L1499 1024H1317L1595 1302L1605 1299Q1628 1292 1651.0 1286.5Q1674 1281 1698 1281Q1753 1281 1802 1307L1307 1802Q1281 1753 1281 1698Q1281 1674 1286.5 1651.0Q1292 1628 1299 1605L1302 1595L810 1104Q786 1114 764.0 1123.0Q742 1132 720.0 1138.0Q698 1144 674.5 1147.5Q651 1151 624 1151Q567 1151 513.0 1134.5Q459 1118 413 1086L896 603V421L704 614L136 45L0 0L45 136L614 704L228 1090L273 1135Q343 1205 435.0 1242.0Q527 1279 626 1279Q665 1279 703.5 1272.5Q742 1266 780 1254L1159 1633Q1153 1664 1153 1698Q1153 1747 1163.5 1786.5Q1174 1826 1193.0 1860.0Q1212 1894 1239.5 1925.5Q1267 1957 1300 1990Z" transform="scale(1,-1)"/>
</svg>