<?xml version="1.0" encoding="UTF-8"?>
<svg xmlns="http://www.w3.org/2000/svg" viewBox="0 -2048 1920 1920">
  <path d="M1920 1152V1024H1024V128H896V1024H0V1152H896V2048H1024V1152ZM256 1280H128V1792H256ZM512 1280H384V1664H512ZM768 1280H640V1920H768ZM1664 1792H1152V1920H1664ZM1536 1536H1152V1664H1536ZM1792 1280H1152V1408H1792ZM384 512H640Q640 459 620.0 412.5Q600 366 565.0 331.0Q530 296 483.5 276.0Q437 256 384 256Q331 256 284.5 276.0Q238 296 203.0 331.0Q168 366 148.0 412.5Q128 459 128 512Q128 565 148.0 611.5Q168 658 203.0 693.0Q238 728 284.5 748.0Q331 768 384 768ZM512 896Q565 896 611.5 876.0Q658 856 693.0 821.0Q728 786 748.0 739.5Q768 693 768 640H512ZM1472 522 1792 843V662L1472 341L1280 534L1152 406V587L1280 715Z" transform="scale(1,-1)"/>
</svg>